ISO-10303-21;
HEADER;
/* Generated by software containing ST-Developer
 * from STEP Tools, Inc. (www.steptools.com) 
 */
/* OPTION: using custom schema-name function */

FILE_DESCRIPTION(
/* description */ (''),
/* implementation_level */ '2;1');

FILE_NAME(
/* name */ 'box_green_in',
/* time_stamp */ '2026-09-03T18:45:51+03:00',
/* author */ (''),
/* organization */ (''),
/* preprocessor_version */ 'ST-DEVELOPER v19.2',
/* originating_system */ 'Rhino 8.34',
/* authorisation */ '');

FILE_SCHEMA (('CONFIG_CONTROL_DESIGN'));
ENDSEC;

DATA;
#10=SHAPE_REPRESENTATION_RELATIONSHIP('','',#396,#12);
#11=MANIFOLD_SOLID_BREP('brep_1',#13);
#12=ADVANCED_BREP_SHAPE_REPRESENTATION('brep_rep_0',(#11,#416),#395);
#13=CLOSED_SHELL('',(#14,#15,#16,#17,#18,#19,#20,#21,#22,#23,#24,#25,#26,
#27,#28,#29,#30,#31));
#14=ADVANCED_FACE('',(#32),#292,.T.);
#15=ADVANCED_FACE('',(#33),#293,.T.);
#16=ADVANCED_FACE('',(#34),#294,.T.);
#17=ADVANCED_FACE('',(#35),#295,.T.);
#18=ADVANCED_FACE('',(#36),#296,.T.);
#19=ADVANCED_FACE('',(#37),#297,.T.);
#20=ADVANCED_FACE('',(#38),#298,.T.);
#21=ADVANCED_FACE('',(#39),#299,.T.);
#22=ADVANCED_FACE('',(#40),#300,.T.);
#23=ADVANCED_FACE('',(#41),#301,.T.);
#24=ADVANCED_FACE('',(#42),#302,.T.);
#25=ADVANCED_FACE('',(#43),#303,.T.);
#26=ADVANCED_FACE('',(#44),#304,.T.);
#27=ADVANCED_FACE('',(#45),#305,.T.);
#28=ADVANCED_FACE('',(#46),#306,.T.);
#29=ADVANCED_FACE('',(#47),#307,.T.);
#30=ADVANCED_FACE('',(#48),#308,.T.);
#31=ADVANCED_FACE('',(#49),#309,.T.);
#32=FACE_OUTER_BOUND('',#50,.T.);
#33=FACE_OUTER_BOUND('',#51,.T.);
#34=FACE_OUTER_BOUND('',#52,.T.);
#35=FACE_OUTER_BOUND('',#53,.T.);
#36=FACE_OUTER_BOUND('',#54,.T.);
#37=FACE_OUTER_BOUND('',#55,.T.);
#38=FACE_OUTER_BOUND('',#56,.T.);
#39=FACE_OUTER_BOUND('',#57,.T.);
#40=FACE_OUTER_BOUND('',#58,.T.);
#41=FACE_OUTER_BOUND('',#59,.T.);
#42=FACE_OUTER_BOUND('',#60,.T.);
#43=FACE_OUTER_BOUND('',#61,.T.);
#44=FACE_OUTER_BOUND('',#62,.T.);
#45=FACE_OUTER_BOUND('',#63,.T.);
#46=FACE_OUTER_BOUND('',#64,.T.);
#47=FACE_OUTER_BOUND('',#65,.T.);
#48=FACE_OUTER_BOUND('',#66,.T.);
#49=FACE_OUTER_BOUND('',#67,.T.);
#50=EDGE_LOOP('',(#68,#69,#70,#71));
#51=EDGE_LOOP('',(#72,#73,#74,#75));
#52=EDGE_LOOP('',(#76,#77,#78,#79));
#53=EDGE_LOOP('',(#80,#81,#82,#83));
#54=EDGE_LOOP('',(#84,#85,#86,#87));
#55=EDGE_LOOP('',(#88,#89,#90,#91));
#56=EDGE_LOOP('',(#92,#93,#94,#95));
#57=EDGE_LOOP('',(#96,#97,#98,#99,#100,#101,#102,#103,#104,#105,#106,#107,
#108,#109,#110,#111));
#58=EDGE_LOOP('',(#112,#113,#114,#115,#116,#117,#118,#119,#120,#121,#122,
#123));
#59=EDGE_LOOP('',(#124,#125,#126,#127));
#60=EDGE_LOOP('',(#128,#129,#130,#131));
#61=EDGE_LOOP('',(#132,#133,#134,#135));
#62=EDGE_LOOP('',(#136,#137,#138,#139));
#63=EDGE_LOOP('',(#140,#141,#142,#143));
#64=EDGE_LOOP('',(#144,#145,#146,#147));
#65=EDGE_LOOP('',(#148,#149,#150,#151));
#66=EDGE_LOOP('',(#152,#153,#154,#155));
#67=EDGE_LOOP('',(#156,#157,#158,#159,#160,#161,#162,#163));
#68=ORIENTED_EDGE('',*,*,#165,.F.);
#69=ORIENTED_EDGE('',*,*,#200,.F.);
#70=ORIENTED_EDGE('',*,*,#164,.T.);
#71=ORIENTED_EDGE('',*,*,#199,.T.);
#72=ORIENTED_EDGE('',*,*,#169,.F.);
#73=ORIENTED_EDGE('',*,*,#201,.F.);
#74=ORIENTED_EDGE('',*,*,#168,.T.);
#75=ORIENTED_EDGE('',*,*,#202,.T.);
#76=ORIENTED_EDGE('',*,*,#181,.F.);
#77=ORIENTED_EDGE('',*,*,#207,.F.);
#78=ORIENTED_EDGE('',*,*,#180,.T.);
#79=ORIENTED_EDGE('',*,*,#208,.T.);
#80=ORIENTED_EDGE('',*,*,#183,.F.);
#81=ORIENTED_EDGE('',*,*,#208,.F.);
#82=ORIENTED_EDGE('',*,*,#182,.T.);
#83=ORIENTED_EDGE('',*,*,#209,.T.);
#84=ORIENTED_EDGE('',*,*,#192,.T.);
#85=ORIENTED_EDGE('',*,*,#196,.T.);
#86=ORIENTED_EDGE('',*,*,#185,.F.);
#87=ORIENTED_EDGE('',*,*,#195,.F.);
#88=ORIENTED_EDGE('',*,*,#193,.T.);
#89=ORIENTED_EDGE('',*,*,#197,.T.);
#90=ORIENTED_EDGE('',*,*,#186,.F.);
#91=ORIENTED_EDGE('',*,*,#196,.F.);
#92=ORIENTED_EDGE('',*,*,#194,.T.);
#93=ORIENTED_EDGE('',*,*,#198,.T.);
#94=ORIENTED_EDGE('',*,*,#187,.F.);
#95=ORIENTED_EDGE('',*,*,#197,.F.);
#96=ORIENTED_EDGE('',*,*,#165,.T.);
#97=ORIENTED_EDGE('',*,*,#167,.T.);
#98=ORIENTED_EDGE('',*,*,#169,.T.);
#99=ORIENTED_EDGE('',*,*,#171,.T.);
#100=ORIENTED_EDGE('',*,*,#173,.T.);
#101=ORIENTED_EDGE('',*,*,#175,.T.);
#102=ORIENTED_EDGE('',*,*,#177,.T.);
#103=ORIENTED_EDGE('',*,*,#179,.T.);
#104=ORIENTED_EDGE('',*,*,#181,.T.);
#105=ORIENTED_EDGE('',*,*,#183,.T.);
#106=ORIENTED_EDGE('',*,*,#184,.T.);
#107=ORIENTED_EDGE('',*,*,#185,.T.);
#108=ORIENTED_EDGE('',*,*,#186,.T.);
#109=ORIENTED_EDGE('',*,*,#187,.T.);
#110=ORIENTED_EDGE('',*,*,#188,.T.);
#111=ORIENTED_EDGE('',*,*,#190,.T.);
#112=ORIENTED_EDGE('',*,*,#182,.F.);
#113=ORIENTED_EDGE('',*,*,#180,.F.);
#114=ORIENTED_EDGE('',*,*,#178,.F.);
#115=ORIENTED_EDGE('',*,*,#176,.F.);
#116=ORIENTED_EDGE('',*,*,#174,.F.);
#117=ORIENTED_EDGE('',*,*,#172,.F.);
#118=ORIENTED_EDGE('',*,*,#170,.F.);
#119=ORIENTED_EDGE('',*,*,#168,.F.);
#120=ORIENTED_EDGE('',*,*,#166,.F.);
#121=ORIENTED_EDGE('',*,*,#164,.F.);
#122=ORIENTED_EDGE('',*,*,#189,.F.);
#123=ORIENTED_EDGE('',*,*,#211,.F.);
#124=ORIENTED_EDGE('',*,*,#199,.F.);
#125=ORIENTED_EDGE('',*,*,#166,.T.);
#126=ORIENTED_EDGE('',*,*,#201,.T.);
#127=ORIENTED_EDGE('',*,*,#167,.F.);
#128=ORIENTED_EDGE('',*,*,#202,.F.);
#129=ORIENTED_EDGE('',*,*,#170,.T.);
#130=ORIENTED_EDGE('',*,*,#203,.T.);
#131=ORIENTED_EDGE('',*,*,#171,.F.);
#132=ORIENTED_EDGE('',*,*,#203,.F.);
#133=ORIENTED_EDGE('',*,*,#172,.T.);
#134=ORIENTED_EDGE('',*,*,#204,.T.);
#135=ORIENTED_EDGE('',*,*,#173,.F.);
#136=ORIENTED_EDGE('',*,*,#204,.F.);
#137=ORIENTED_EDGE('',*,*,#174,.T.);
#138=ORIENTED_EDGE('',*,*,#205,.T.);
#139=ORIENTED_EDGE('',*,*,#175,.F.);
#140=ORIENTED_EDGE('',*,*,#205,.F.);
#141=ORIENTED_EDGE('',*,*,#176,.T.);
#142=ORIENTED_EDGE('',*,*,#206,.T.);
#143=ORIENTED_EDGE('',*,*,#177,.F.);
#144=ORIENTED_EDGE('',*,*,#206,.F.);
#145=ORIENTED_EDGE('',*,*,#178,.T.);
#146=ORIENTED_EDGE('',*,*,#207,.T.);
#147=ORIENTED_EDGE('',*,*,#179,.F.);
#148=ORIENTED_EDGE('',*,*,#210,.F.);
#149=ORIENTED_EDGE('',*,*,#189,.T.);
#150=ORIENTED_EDGE('',*,*,#200,.T.);
#151=ORIENTED_EDGE('',*,*,#190,.F.);
#152=ORIENTED_EDGE('',*,*,#191,.T.);
#153=ORIENTED_EDGE('',*,*,#194,.F.);
#154=ORIENTED_EDGE('',*,*,#193,.F.);
#155=ORIENTED_EDGE('',*,*,#192,.F.);
#156=ORIENTED_EDGE('',*,*,#211,.T.);
#157=ORIENTED_EDGE('',*,*,#210,.T.);
#158=ORIENTED_EDGE('',*,*,#188,.F.);
#159=ORIENTED_EDGE('',*,*,#198,.F.);
#160=ORIENTED_EDGE('',*,*,#191,.F.);
#161=ORIENTED_EDGE('',*,*,#195,.T.);
#162=ORIENTED_EDGE('',*,*,#184,.F.);
#163=ORIENTED_EDGE('',*,*,#209,.F.);
#164=EDGE_CURVE('',#260,#261,#212,.T.);
#165=EDGE_CURVE('',#263,#262,#213,.T.);
#166=EDGE_CURVE('',#261,#264,#214,.T.);
#167=EDGE_CURVE('',#262,#265,#215,.T.);
#168=EDGE_CURVE('',#264,#266,#216,.T.);
#169=EDGE_CURVE('',#265,#267,#217,.T.);
#170=EDGE_CURVE('',#266,#268,#218,.T.);
#171=EDGE_CURVE('',#267,#269,#219,.T.);
#172=EDGE_CURVE('',#268,#270,#220,.T.);
#173=EDGE_CURVE('',#269,#271,#221,.T.);
#174=EDGE_CURVE('',#270,#272,#222,.T.);
#175=EDGE_CURVE('',#271,#273,#223,.T.);
#176=EDGE_CURVE('',#272,#274,#224,.T.);
#177=EDGE_CURVE('',#273,#275,#225,.T.);
#178=EDGE_CURVE('',#274,#276,#226,.T.);
#179=EDGE_CURVE('',#275,#277,#227,.T.);
#180=EDGE_CURVE('',#276,#278,#228,.T.);
#181=EDGE_CURVE('',#277,#279,#229,.T.);
#182=EDGE_CURVE('',#278,#280,#230,.T.);
#183=EDGE_CURVE('',#279,#281,#231,.T.);
#184=EDGE_CURVE('',#281,#282,#232,.T.);
#185=EDGE_CURVE('',#282,#283,#233,.T.);
#186=EDGE_CURVE('',#283,#284,#234,.T.);
#187=EDGE_CURVE('',#284,#285,#235,.T.);
#188=EDGE_CURVE('',#285,#287,#236,.T.);
#189=EDGE_CURVE('',#286,#260,#237,.T.);
#190=EDGE_CURVE('',#287,#263,#238,.T.);
#191=EDGE_CURVE('',#288,#291,#239,.T.);
#192=EDGE_CURVE('',#288,#289,#240,.T.);
#193=EDGE_CURVE('',#289,#290,#241,.T.);
#194=EDGE_CURVE('',#290,#291,#242,.T.);
#195=EDGE_CURVE('',#288,#282,#243,.T.);
#196=EDGE_CURVE('',#289,#283,#244,.T.);
#197=EDGE_CURVE('',#290,#284,#245,.T.);
#198=EDGE_CURVE('',#291,#285,#246,.T.);
#199=EDGE_CURVE('',#261,#262,#247,.T.);
#200=EDGE_CURVE('',#260,#263,#248,.T.);
#201=EDGE_CURVE('',#264,#265,#249,.T.);
#202=EDGE_CURVE('',#266,#267,#250,.T.);
#203=EDGE_CURVE('',#268,#269,#251,.T.);
#204=EDGE_CURVE('',#270,#271,#252,.T.);
#205=EDGE_CURVE('',#272,#273,#253,.T.);
#206=EDGE_CURVE('',#274,#275,#254,.T.);
#207=EDGE_CURVE('',#276,#277,#255,.T.);
#208=EDGE_CURVE('',#278,#279,#256,.T.);
#209=EDGE_CURVE('',#280,#281,#257,.T.);
#210=EDGE_CURVE('',#286,#287,#258,.T.);
#211=EDGE_CURVE('',#280,#286,#259,.T.);
#212=B_SPLINE_CURVE_WITH_KNOTS('',1,(#490,#491),.UNSPECIFIED.,.F.,.F.,(2,
2),(-5.21428571428571,-4.5),.UNSPECIFIED.);
#213=B_SPLINE_CURVE_WITH_KNOTS('',1,(#492,#493),.UNSPECIFIED.,.F.,.F.,(2,
2),(-5.21428571428571,-4.5),.UNSPECIFIED.);
#214=B_SPLINE_CURVE_WITH_KNOTS('',1,(#494,#495),.UNSPECIFIED.,.F.,.F.,(2,
2),(-4.5,-1.),.UNSPECIFIED.);
#215=B_SPLINE_CURVE_WITH_KNOTS('',1,(#496,#497),.UNSPECIFIED.,.F.,.F.,(2,
2),(-4.5,-1.),.UNSPECIFIED.);
#216=B_SPLINE_CURVE_WITH_KNOTS('',1,(#498,#499),.UNSPECIFIED.,.F.,.F.,(2,
2),(-1.,-0.285714285714288),.UNSPECIFIED.);
#217=B_SPLINE_CURVE_WITH_KNOTS('',1,(#500,#501),.UNSPECIFIED.,.F.,.F.,(2,
2),(-1.,-0.285714285714288),.UNSPECIFIED.);
#218=B_SPLINE_CURVE_WITH_KNOTS('',1,(#502,#503),.UNSPECIFIED.,.F.,.F.,(2,
2),(-0.285714285714288,10.3142857142857),.UNSPECIFIED.);
#219=B_SPLINE_CURVE_WITH_KNOTS('',1,(#504,#505),.UNSPECIFIED.,.F.,.F.,(2,
2),(-0.285714285714288,10.3142857142857),.UNSPECIFIED.);
#220=B_SPLINE_CURVE_WITH_KNOTS('',1,(#506,#507),.UNSPECIFIED.,.F.,.F.,(2,
2),(10.3142857142857,63.9142857142857),.UNSPECIFIED.);
#221=B_SPLINE_CURVE_WITH_KNOTS('',1,(#508,#509),.UNSPECIFIED.,.F.,.F.,(2,
2),(10.3142857142857,63.9142857142857),.UNSPECIFIED.);
#222=B_SPLINE_CURVE_WITH_KNOTS('',1,(#510,#511),.UNSPECIFIED.,.F.,.F.,(2,
2),(63.9142857142857,74.5142857142857),.UNSPECIFIED.);
#223=B_SPLINE_CURVE_WITH_KNOTS('',1,(#512,#513),.UNSPECIFIED.,.F.,.F.,(2,
2),(63.9142857142857,74.5142857142857),.UNSPECIFIED.);
#224=B_SPLINE_CURVE_WITH_KNOTS('',1,(#514,#515),.UNSPECIFIED.,.F.,.F.,(2,
2),(74.5142857142857,75.2285714285714),.UNSPECIFIED.);
#225=B_SPLINE_CURVE_WITH_KNOTS('',1,(#516,#517),.UNSPECIFIED.,.F.,.F.,(2,
2),(74.5142857142857,75.2285714285714),.UNSPECIFIED.);
#226=B_SPLINE_CURVE_WITH_KNOTS('',1,(#518,#519),.UNSPECIFIED.,.F.,.F.,(2,
2),(75.2285714285714,78.7285714285714),.UNSPECIFIED.);
#227=B_SPLINE_CURVE_WITH_KNOTS('',1,(#520,#521),.UNSPECIFIED.,.F.,.F.,(2,
2),(75.2285714285714,78.7285714285714),.UNSPECIFIED.);
#228=B_SPLINE_CURVE_WITH_KNOTS('',1,(#522,#523),.UNSPECIFIED.,.F.,.F.,(2,
2),(78.7285714285714,79.4428571428571),.UNSPECIFIED.);
#229=B_SPLINE_CURVE_WITH_KNOTS('',1,(#524,#525),.UNSPECIFIED.,.F.,.F.,(2,
2),(78.7285714285714,79.4428571428571),.UNSPECIFIED.);
#230=B_SPLINE_CURVE_WITH_KNOTS('',1,(#526,#527),.UNSPECIFIED.,.F.,.F.,(2,
2),(79.4428571428571,90.0428571428571),.UNSPECIFIED.);
#231=B_SPLINE_CURVE_WITH_KNOTS('',1,(#528,#529),.UNSPECIFIED.,.F.,.F.,(2,
2),(79.4428571428571,90.0428571428571),.UNSPECIFIED.);
#232=B_SPLINE_CURVE_WITH_KNOTS('',1,(#530,#531),.UNSPECIFIED.,.F.,.F.,(2,
2),(90.0428571428571,92.0428571428571),.UNSPECIFIED.);
#233=B_SPLINE_CURVE_WITH_KNOTS('',1,(#532,#533),.UNSPECIFIED.,.F.,.F.,(2,
2),(92.0428571428571,112.642857142857),.UNSPECIFIED.);
#234=B_SPLINE_CURVE_WITH_KNOTS('',1,(#534,#535),.UNSPECIFIED.,.F.,.F.,(2,
2),(112.642857142857,162.242857142857),.UNSPECIFIED.);
#235=B_SPLINE_CURVE_WITH_KNOTS('',1,(#536,#537),.UNSPECIFIED.,.F.,.F.,(2,
2),(162.242857142857,182.842857142857),.UNSPECIFIED.);
#236=B_SPLINE_CURVE_WITH_KNOTS('',1,(#538,#539),.UNSPECIFIED.,.F.,.F.,(2,
2),(182.842857142857,184.842857142857),.UNSPECIFIED.);
#237=B_SPLINE_CURVE_WITH_KNOTS('',1,(#540,#541),.UNSPECIFIED.,.F.,.F.,(2,
2),(184.842857142857,195.442857142857),.UNSPECIFIED.);
#238=B_SPLINE_CURVE_WITH_KNOTS('',1,(#542,#543),.UNSPECIFIED.,.F.,.F.,(2,
2),(184.842857142857,195.442857142857),.UNSPECIFIED.);
#239=B_SPLINE_CURVE_WITH_KNOTS('',1,(#544,#545),.UNSPECIFIED.,.F.,.F.,(2,
2),(80.2000000000001,129.8),.UNSPECIFIED.);
#240=B_SPLINE_CURVE_WITH_KNOTS('',1,(#546,#547),.UNSPECIFIED.,.F.,.F.,(2,
2),(-1.4210854715202E-14,22.6),.UNSPECIFIED.);
#241=B_SPLINE_CURVE_WITH_KNOTS('',1,(#548,#549),.UNSPECIFIED.,.F.,.F.,(2,
2),(112.642857142857,162.242857142857),.UNSPECIFIED.);
#242=B_SPLINE_CURVE_WITH_KNOTS('',1,(#550,#551),.UNSPECIFIED.,.F.,.F.,(2,
2),(162.242857142857,182.842857142857),.UNSPECIFIED.);
#243=B_SPLINE_CURVE_WITH_KNOTS('',1,(#552,#553),.UNSPECIFIED.,.F.,.F.,(2,
2),(2.,51.8),.UNSPECIFIED.);
#244=B_SPLINE_CURVE_WITH_KNOTS('',1,(#554,#555),.UNSPECIFIED.,.F.,.F.,(2,
2),(2.,51.8),.UNSPECIFIED.);
#245=B_SPLINE_CURVE_WITH_KNOTS('',1,(#556,#557),.UNSPECIFIED.,.F.,.F.,(2,
2),(2.,51.8),.UNSPECIFIED.);
#246=B_SPLINE_CURVE_WITH_KNOTS('',1,(#558,#559),.UNSPECIFIED.,.F.,.F.,(2,
2),(2.,51.8),.UNSPECIFIED.);
#247=B_SPLINE_CURVE_WITH_KNOTS('',1,(#560,#561,#562),.UNSPECIFIED.,.F.,
 .F.,(2,1,2),(0.,2.,51.8),.UNSPECIFIED.);
#248=B_SPLINE_CURVE_WITH_KNOTS('',1,(#563,#564,#565),.UNSPECIFIED.,.F.,
 .F.,(2,1,2),(0.,2.,51.8),.UNSPECIFIED.);
#249=B_SPLINE_CURVE_WITH_KNOTS('',1,(#566,#567,#568),.UNSPECIFIED.,.F.,
 .F.,(2,1,2),(0.,2.,51.8),.UNSPECIFIED.);
#250=B_SPLINE_CURVE_WITH_KNOTS('',1,(#569,#570,#571),.UNSPECIFIED.,.F.,
 .F.,(2,1,2),(0.,2.,51.8),.UNSPECIFIED.);
#251=B_SPLINE_CURVE_WITH_KNOTS('',1,(#572,#573,#574),.UNSPECIFIED.,.F.,
 .F.,(2,1,2),(0.,2.,51.8),.UNSPECIFIED.);
#252=B_SPLINE_CURVE_WITH_KNOTS('',1,(#575,#576,#577),.UNSPECIFIED.,.F.,
 .F.,(2,1,2),(0.,2.,51.8),.UNSPECIFIED.);
#253=B_SPLINE_CURVE_WITH_KNOTS('',1,(#578,#579,#580),.UNSPECIFIED.,.F.,
 .F.,(2,1,2),(0.,2.,51.8),.UNSPECIFIED.);
#254=B_SPLINE_CURVE_WITH_KNOTS('',1,(#581,#582,#583),.UNSPECIFIED.,.F.,
 .F.,(2,1,2),(0.,2.,51.8),.UNSPECIFIED.);
#255=B_SPLINE_CURVE_WITH_KNOTS('',1,(#584,#585,#586),.UNSPECIFIED.,.F.,
 .F.,(2,1,2),(0.,2.,51.8),.UNSPECIFIED.);
#256=B_SPLINE_CURVE_WITH_KNOTS('',1,(#587,#588,#589),.UNSPECIFIED.,.F.,
 .F.,(2,1,2),(0.,2.,51.8),.UNSPECIFIED.);
#257=B_SPLINE_CURVE_WITH_KNOTS('',1,(#590,#591,#592),.UNSPECIFIED.,.F.,
 .F.,(2,1,2),(0.,2.,51.8),.UNSPECIFIED.);
#258=B_SPLINE_CURVE_WITH_KNOTS('',1,(#593,#594,#595),.UNSPECIFIED.,.F.,
 .F.,(2,1,2),(0.,2.,51.8),.UNSPECIFIED.);
#259=B_SPLINE_CURVE_WITH_KNOTS('',1,(#596,#597),.UNSPECIFIED.,.F.,.F.,(2,
2),(0.,53.6),.UNSPECIFIED.);
#260=VERTEX_POINT('',#458);
#261=VERTEX_POINT('',#459);
#262=VERTEX_POINT('',#460);
#263=VERTEX_POINT('',#461);
#264=VERTEX_POINT('',#462);
#265=VERTEX_POINT('',#463);
#266=VERTEX_POINT('',#464);
#267=VERTEX_POINT('',#465);
#268=VERTEX_POINT('',#466);
#269=VERTEX_POINT('',#467);
#270=VERTEX_POINT('',#468);
#271=VERTEX_POINT('',#469);
#272=VERTEX_POINT('',#470);
#273=VERTEX_POINT('',#471);
#274=VERTEX_POINT('',#472);
#275=VERTEX_POINT('',#473);
#276=VERTEX_POINT('',#474);
#277=VERTEX_POINT('',#475);
#278=VERTEX_POINT('',#476);
#279=VERTEX_POINT('',#477);
#280=VERTEX_POINT('',#478);
#281=VERTEX_POINT('',#479);
#282=VERTEX_POINT('',#480);
#283=VERTEX_POINT('',#481);
#284=VERTEX_POINT('',#482);
#285=VERTEX_POINT('',#483);
#286=VERTEX_POINT('',#484);
#287=VERTEX_POINT('',#485);
#288=VERTEX_POINT('',#486);
#289=VERTEX_POINT('',#487);
#290=VERTEX_POINT('',#488);
#291=VERTEX_POINT('',#489);
#292=PLANE('',#398);
#293=PLANE('',#399);
#294=PLANE('',#400);
#295=PLANE('',#401);
#296=PLANE('',#402);
#297=PLANE('',#403);
#298=PLANE('',#404);
#299=PLANE('',#405);
#300=PLANE('',#406);
#301=PLANE('',#407);
#302=PLANE('',#408);
#303=PLANE('',#409);
#304=PLANE('',#410);
#305=PLANE('',#411);
#306=PLANE('',#412);
#307=PLANE('',#413);
#308=PLANE('',#414);
#309=PLANE('',#415);
#310=SHAPE_DEFINITION_REPRESENTATION(#311,#396);
#311=PRODUCT_DEFINITION_SHAPE($,$,#313);
#312=PRODUCT_DEFINITION_CONTEXT('3D Mechanical Parts',#385,'design');
#313=PRODUCT_DEFINITION('A','First version',#355,#312);
#314=DATE_TIME_ROLE('classification_date');
#315=DATE_TIME_ROLE('creation_date');
#316=APPLIED_DATE_AND_TIME_ASSIGNMENT(#340,#314,(#319));
#317=APPLIED_DATE_AND_TIME_ASSIGNMENT(#342,#315,(#313));
#318=SECURITY_CLASSIFICATION_LEVEL('unclassified');
#319=SECURITY_CLASSIFICATION('A','Security for version',#318);
#320=APPLIED_SECURITY_CLASSIFICATION_ASSIGNMENT(#319,(#355));
#321=APPROVAL_ROLE('Version approval');
#322=APPROVAL_ROLE('Version Security approval');
#323=APPROVAL_ROLE('Definition approval');
#324=APPROVAL_PERSON_ORGANIZATION(#373,#349,#321);
#325=APPROVAL_PERSON_ORGANIZATION(#374,#350,#322);
#326=APPROVAL_PERSON_ORGANIZATION(#377,#351,#323);
#327=COORDINATED_UNIVERSAL_TIME_OFFSET(5,0,.BEHIND.);
#328=LOCAL_TIME(0,0,0.,#327);
#329=LOCAL_TIME(0,0,0.,#327);
#330=LOCAL_TIME(0,0,0.,#327);
#331=LOCAL_TIME(0,0,0.,#327);
#332=LOCAL_TIME(0,0,0.,#327);
#333=CALENDAR_DATE(1999,1,1);
#334=CALENDAR_DATE(1999,1,1);
#335=CALENDAR_DATE(1999,1,1);
#336=CALENDAR_DATE(1999,1,1);
#337=CALENDAR_DATE(1999,1,1);
#338=DATE_AND_TIME(#333,#328);
#339=DATE_AND_TIME(#334,#329);
#340=DATE_AND_TIME(#335,#330);
#341=DATE_AND_TIME(#336,#331);
#342=DATE_AND_TIME(#337,#332);
#343=APPROVAL_DATE_TIME(#338,#349);
#344=APPROVAL_DATE_TIME(#339,#350);
#345=APPROVAL_DATE_TIME(#341,#351);
#346=APPROVAL_STATUS('not_yet_approved');
#347=APPROVAL_STATUS('not_yet_approved');
#348=APPROVAL_STATUS('approved');
#349=APPROVAL(#346,'Version approval');
#350=APPROVAL(#347,'Version Security approval');
#351=APPROVAL(#348,'Definition approval');
#352=APPLIED_APPROVAL_ASSIGNMENT(#349,(#355));
#353=APPLIED_APPROVAL_ASSIGNMENT(#350,(#319));
#354=APPLIED_APPROVAL_ASSIGNMENT(#351,(#313));
#355=PRODUCT_DEFINITION_FORMATION_WITH_SPECIFIED_SOURCE('A',
'First version',#387,.MADE.);
#356=PERSON_AND_ORGANIZATION_ROLE('design_owner');
#357=PERSON_AND_ORGANIZATION_ROLE('creator');
#358=PERSON_AND_ORGANIZATION_ROLE('design_supplier');
#359=PERSON_AND_ORGANIZATION_ROLE('classification_officer');
#360=PERSON_AND_ORGANIZATION_ROLE('creator');
#361=ORGANIZATION('STI','lab','lab');
#362=ORGANIZATION('STI','unknown','unknown');
#363=ORGANIZATION('STI','unknown','unknown');
#364=ORGANIZATION('STI','unknown','unknown');
#365=ORGANIZATION('STI','unknown','unknown');
#366=ORGANIZATION('STI','unknown','unknown');
#367=ORGANIZATION('STI','unknown','unknown');
#368=PERSON('1','Box','vc60',$,$,$);
#369=PERSON('2','last','first',$,$,$);
#370=PERSON('3','President','Mr.',$,$,$);
#371=PERSON_AND_ORGANIZATION(#368,#361);
#372=PERSON_AND_ORGANIZATION(#369,#362);
#373=PERSON_AND_ORGANIZATION(#370,#363);
#374=PERSON_AND_ORGANIZATION(#370,#364);
#375=PERSON_AND_ORGANIZATION(#370,#365);
#376=PERSON_AND_ORGANIZATION(#369,#366);
#377=PERSON_AND_ORGANIZATION(#370,#367);
#378=APPLIED_PERSON_AND_ORGANIZATION_ASSIGNMENT(#371,#356,(#387));
#379=APPLIED_PERSON_AND_ORGANIZATION_ASSIGNMENT(#372,#357,(#355));
#380=APPLIED_PERSON_AND_ORGANIZATION_ASSIGNMENT(#372,#358,(#355));
#381=APPLIED_PERSON_AND_ORGANIZATION_ASSIGNMENT(#375,#359,(#319));
#382=APPLIED_PERSON_AND_ORGANIZATION_ASSIGNMENT(#376,#360,(#313));
#383=PRODUCT_RELATED_PRODUCT_CATEGORY('detail','detail',(#387));
#384=APPLICATION_PROTOCOL_DEFINITION('International Standard',
'config_control_design',1994,#385);
#385=APPLICATION_CONTEXT(
'configuration controlled 3d designs of mechanical parts and assemblie
s');
#386=PRODUCT_CONTEXT('3D Mechanical Parts',#385,'mechanical');
#387=PRODUCT('Document','Document','',(#386));
#388=(
LENGTH_UNIT()
NAMED_UNIT(*)
SI_UNIT(.MILLI.,.METRE.)
);
#389=(
NAMED_UNIT(*)
PLANE_ANGLE_UNIT()
SI_UNIT($,.RADIAN.)
);
#390=DIMENSIONAL_EXPONENTS(0.,0.,0.,0.,0.,0.,0.);
#391=PLANE_ANGLE_MEASURE_WITH_UNIT(PLANE_ANGLE_MEASURE(0.01745329252),#389);
#392=(
CONVERSION_BASED_UNIT('DEGREES',#391)
NAMED_UNIT(#390)
PLANE_ANGLE_UNIT()
);
#393=(
NAMED_UNIT(*)
SI_UNIT($,.STERADIAN.)
SOLID_ANGLE_UNIT()
);
#394=UNCERTAINTY_MEASURE_WITH_UNIT(LENGTH_MEASURE(0.001),#388,
'DISTANCE_ACCURACY_VALUE',
'Maximum model space distance between geometric entities at asserted c
onnectivities');
#395=(
GEOMETRIC_REPRESENTATION_CONTEXT(3)
GLOBAL_UNCERTAINTY_ASSIGNED_CONTEXT((#394))
GLOBAL_UNIT_ASSIGNED_CONTEXT((#393,#392,#388))
REPRESENTATION_CONTEXT('ID1','3D')
);
#396=SHAPE_REPRESENTATION('Document',(#397,#416),#395);
#397=AXIS2_PLACEMENT_3D($,#439,#417,#418);
#398=AXIS2_PLACEMENT_3D('',#440,#419,$);
#399=AXIS2_PLACEMENT_3D('',#441,#420,$);
#400=AXIS2_PLACEMENT_3D('',#442,#421,$);
#401=AXIS2_PLACEMENT_3D('',#443,#422,$);
#402=AXIS2_PLACEMENT_3D('',#444,#423,$);
#403=AXIS2_PLACEMENT_3D('',#445,#424,$);
#404=AXIS2_PLACEMENT_3D('',#446,#425,$);
#405=AXIS2_PLACEMENT_3D('',#447,#426,$);
#406=AXIS2_PLACEMENT_3D('',#448,#427,$);
#407=AXIS2_PLACEMENT_3D('',#449,#428,$);
#408=AXIS2_PLACEMENT_3D('',#450,#429,$);
#409=AXIS2_PLACEMENT_3D('',#451,#430,$);
#410=AXIS2_PLACEMENT_3D('',#452,#431,$);
#411=AXIS2_PLACEMENT_3D('',#453,#432,$);
#412=AXIS2_PLACEMENT_3D('',#454,#433,$);
#413=AXIS2_PLACEMENT_3D('',#455,#434,$);
#414=AXIS2_PLACEMENT_3D('',#456,#435,$);
#415=AXIS2_PLACEMENT_3D('',#457,#436,$);
#416=AXIS2_PLACEMENT_3D($,#598,#437,#438);
#417=DIRECTION('',(0.,0.,1.));
#418=DIRECTION('',(1.,0.,0.));
#419=DIRECTION('',(0.,-1.,0.));
#420=DIRECTION('',(0.,1.,0.));
#421=DIRECTION('',(0.,-1.,0.));
#422=DIRECTION('',(1.,0.,0.));
#423=DIRECTION('',(-1.,0.,0.));
#424=DIRECTION('',(0.,1.,0.));
#425=DIRECTION('',(1.,0.,0.));
#426=DIRECTION('',(0.,0.,1.));
#427=DIRECTION('',(0.,0.,-1.));
#428=DIRECTION('',(-1.,0.,0.));
#429=DIRECTION('',(-1.,0.,0.));
#430=DIRECTION('',(0.,-1.,0.));
#431=DIRECTION('',(1.,0.,0.));
#432=DIRECTION('',(0.,1.,0.));
#433=DIRECTION('',(1.,0.,0.));
#434=DIRECTION('',(-1.,0.,0.));
#435=DIRECTION('',(0.,0.,1.));
#436=DIRECTION('',(0.,1.,0.));
#437=DIRECTION('',(0.,0.,1.));
#438=DIRECTION('',(1.,0.,0.));
#439=CARTESIAN_POINT('',(0.,0.,0.));
#440=CARTESIAN_POINT('',(123.2,78.2,3.1));
#441=CARTESIAN_POINT('',(124.2,74.8,3.1));
#442=CARTESIAN_POINT('',(175.8,78.2,3.1));
#443=CARTESIAN_POINT('',(176.8,78.2,3.1));
#444=CARTESIAN_POINT('',(174.8,88.8,3.1));
#445=CARTESIAN_POINT('',(174.8,66.2,3.1));
#446=CARTESIAN_POINT('',(125.2,66.2,3.1));
#447=CARTESIAN_POINT('',(123.2,64.2,54.9));
#448=CARTESIAN_POINT('',(123.2,64.2,3.1));
#449=CARTESIAN_POINT('',(124.2,78.2,3.1));
#450=CARTESIAN_POINT('',(123.2,74.8,3.1));
#451=CARTESIAN_POINT('',(123.2,64.2,3.1));
#452=CARTESIAN_POINT('',(176.8,64.2,3.1));
#453=CARTESIAN_POINT('',(176.8,74.8,3.1));
#454=CARTESIAN_POINT('',(175.8,74.8,3.1));
#455=CARTESIAN_POINT('',(123.2,88.8,3.1));
#456=CARTESIAN_POINT('',(123.2,64.2,5.1));
#457=CARTESIAN_POINT('',(176.8,88.8,3.09999999999996));
#458=CARTESIAN_POINT('',(123.2,78.2,3.1));
#459=CARTESIAN_POINT('',(124.2,78.2,3.1));
#460=CARTESIAN_POINT('',(124.2,78.2,54.9));
#461=CARTESIAN_POINT('',(123.2,78.2,54.9));
#462=CARTESIAN_POINT('',(124.2,74.8,3.1));
#463=CARTESIAN_POINT('',(124.2,74.8,54.9));
#464=CARTESIAN_POINT('',(123.2,74.8,3.1));
#465=CARTESIAN_POINT('',(123.2,74.8,54.9));
#466=CARTESIAN_POINT('',(123.2,64.2,3.1));
#467=CARTESIAN_POINT('',(123.2,64.2,54.9));
#468=CARTESIAN_POINT('',(176.8,64.2,3.1));
#469=CARTESIAN_POINT('',(176.8,64.2,54.9));
#470=CARTESIAN_POINT('',(176.8,74.8,3.1));
#471=CARTESIAN_POINT('',(176.8,74.8,54.9));
#472=CARTESIAN_POINT('',(175.8,74.8,3.1));
#473=CARTESIAN_POINT('',(175.8,74.8,54.9));
#474=CARTESIAN_POINT('',(175.8,78.2,3.1));
#475=CARTESIAN_POINT('',(175.8,78.2,54.9));
#476=CARTESIAN_POINT('',(176.8,78.2,3.1));
#477=CARTESIAN_POINT('',(176.8,78.2,54.9));
#478=CARTESIAN_POINT('',(176.8,88.8,3.1));
#479=CARTESIAN_POINT('',(176.8,88.8,54.9));
#480=CARTESIAN_POINT('',(174.8,88.8,54.9));
#481=CARTESIAN_POINT('',(174.8,66.2,54.9));
#482=CARTESIAN_POINT('',(125.2,66.2,54.9));
#483=CARTESIAN_POINT('',(125.2,88.8,54.9));
#484=CARTESIAN_POINT('',(123.2,88.8,3.1));
#485=CARTESIAN_POINT('',(123.2,88.8,54.9));
#486=CARTESIAN_POINT('',(174.8,88.8,5.1));
#487=CARTESIAN_POINT('',(174.8,66.2,5.1));
#488=CARTESIAN_POINT('',(125.2,66.2,5.1));
#489=CARTESIAN_POINT('',(125.2,88.8,5.1));
#490=CARTESIAN_POINT('',(123.2,78.2,3.1));
#491=CARTESIAN_POINT('',(124.2,78.2,3.1));
#492=CARTESIAN_POINT('',(123.2,78.2,54.9));
#493=CARTESIAN_POINT('',(124.2,78.2,54.9));
#494=CARTESIAN_POINT('',(124.2,78.2,3.1));
#495=CARTESIAN_POINT('',(124.2,74.8,3.1));
#496=CARTESIAN_POINT('',(124.2,78.2,54.9));
#497=CARTESIAN_POINT('',(124.2,74.8,54.9));
#498=CARTESIAN_POINT('',(124.2,74.8,3.1));
#499=CARTESIAN_POINT('',(123.2,74.8,3.1));
#500=CARTESIAN_POINT('',(124.2,74.8,54.9));
#501=CARTESIAN_POINT('',(123.2,74.8,54.9));
#502=CARTESIAN_POINT('',(123.2,74.8,3.1));
#503=CARTESIAN_POINT('',(123.2,64.2,3.1));
#504=CARTESIAN_POINT('',(123.2,74.8,54.9));
#505=CARTESIAN_POINT('',(123.2,64.2,54.9));
#506=CARTESIAN_POINT('',(123.2,64.2,3.1));
#507=CARTESIAN_POINT('',(176.8,64.2,3.1));
#508=CARTESIAN_POINT('',(123.2,64.2,54.9));
#509=CARTESIAN_POINT('',(176.8,64.2,54.9));
#510=CARTESIAN_POINT('',(176.8,64.2,3.1));
#511=CARTESIAN_POINT('',(176.8,74.8,3.1));
#512=CARTESIAN_POINT('',(176.8,64.2,54.9));
#513=CARTESIAN_POINT('',(176.8,74.8,54.9));
#514=CARTESIAN_POINT('',(176.8,74.8,3.1));
#515=CARTESIAN_POINT('',(175.8,74.8,3.1));
#516=CARTESIAN_POINT('',(176.8,74.8,54.9));
#517=CARTESIAN_POINT('',(175.8,74.8,54.9));
#518=CARTESIAN_POINT('',(175.8,74.8,3.1));
#519=CARTESIAN_POINT('',(175.8,78.2,3.1));
#520=CARTESIAN_POINT('',(175.8,74.8,54.9));
#521=CARTESIAN_POINT('',(175.8,78.2,54.9));
#522=CARTESIAN_POINT('',(175.8,78.2,3.1));
#523=CARTESIAN_POINT('',(176.8,78.2,3.1));
#524=CARTESIAN_POINT('',(175.8,78.2,54.9));
#525=CARTESIAN_POINT('',(176.8,78.2,54.9));
#526=CARTESIAN_POINT('',(176.8,78.2,3.1));
#527=CARTESIAN_POINT('',(176.8,88.8,3.1));
#528=CARTESIAN_POINT('',(176.8,78.2,54.9));
#529=CARTESIAN_POINT('',(176.8,88.8,54.9));
#530=CARTESIAN_POINT('',(176.8,88.8,54.9));
#531=CARTESIAN_POINT('',(174.8,88.8,54.9));
#532=CARTESIAN_POINT('',(174.8,88.8,54.9));
#533=CARTESIAN_POINT('',(174.8,66.2,54.9));
#534=CARTESIAN_POINT('',(174.8,66.2,54.9));
#535=CARTESIAN_POINT('',(125.2,66.2,54.9));
#536=CARTESIAN_POINT('',(125.2,66.2,54.9));
#537=CARTESIAN_POINT('',(125.2,88.8,54.9));
#538=CARTESIAN_POINT('',(125.2,88.8,54.9));
#539=CARTESIAN_POINT('',(123.2,88.8,54.9));
#540=CARTESIAN_POINT('',(123.2,88.8,3.1));
#541=CARTESIAN_POINT('',(123.2,78.2,3.1));
#542=CARTESIAN_POINT('',(123.2,88.8,54.9));
#543=CARTESIAN_POINT('',(123.2,78.2,54.9));
#544=CARTESIAN_POINT('',(174.8,88.8,5.1));
#545=CARTESIAN_POINT('',(125.2,88.8,5.1));
#546=CARTESIAN_POINT('',(174.8,88.8,5.1));
#547=CARTESIAN_POINT('',(174.8,66.2,5.1));
#548=CARTESIAN_POINT('',(174.8,66.2,5.1));
#549=CARTESIAN_POINT('',(125.2,66.2,5.1));
#550=CARTESIAN_POINT('',(125.2,66.2,5.1));
#551=CARTESIAN_POINT('',(125.2,88.8,5.1));
#552=CARTESIAN_POINT('',(174.8,88.8,5.1));
#553=CARTESIAN_POINT('',(174.8,88.8,54.9));
#554=CARTESIAN_POINT('',(174.8,66.2,5.1));
#555=CARTESIAN_POINT('',(174.8,66.2,54.9));
#556=CARTESIAN_POINT('',(125.2,66.2,5.1));
#557=CARTESIAN_POINT('',(125.2,66.2,54.9));
#558=CARTESIAN_POINT('',(125.2,88.8,5.1));
#559=CARTESIAN_POINT('',(125.2,88.8,54.9));
#560=CARTESIAN_POINT('',(124.2,78.2,3.1));
#561=CARTESIAN_POINT('',(124.2,78.2,5.1));
#562=CARTESIAN_POINT('',(124.2,78.2,54.9));
#563=CARTESIAN_POINT('',(123.2,78.2,3.1));
#564=CARTESIAN_POINT('',(123.2,78.2,5.1));
#565=CARTESIAN_POINT('',(123.2,78.2,54.9));
#566=CARTESIAN_POINT('',(124.2,74.8,3.1));
#567=CARTESIAN_POINT('',(124.2,74.8,5.1));
#568=CARTESIAN_POINT('',(124.2,74.8,54.9));
#569=CARTESIAN_POINT('',(123.2,74.8,3.1));
#570=CARTESIAN_POINT('',(123.2,74.8,5.1));
#571=CARTESIAN_POINT('',(123.2,74.8,54.9));
#572=CARTESIAN_POINT('',(123.2,64.2,3.1));
#573=CARTESIAN_POINT('',(123.2,64.2,5.1));
#574=CARTESIAN_POINT('',(123.2,64.2,54.9));
#575=CARTESIAN_POINT('',(176.8,64.2,3.1));
#576=CARTESIAN_POINT('',(176.8,64.2,5.1));
#577=CARTESIAN_POINT('',(176.8,64.2,54.9));
#578=CARTESIAN_POINT('',(176.8,74.8,3.1));
#579=CARTESIAN_POINT('',(176.8,74.8,5.1));
#580=CARTESIAN_POINT('',(176.8,74.8,54.9));
#581=CARTESIAN_POINT('',(175.8,74.8,3.1));
#582=CARTESIAN_POINT('',(175.8,74.8,5.1));
#583=CARTESIAN_POINT('',(175.8,74.8,54.9));
#584=CARTESIAN_POINT('',(175.8,78.2,3.1));
#585=CARTESIAN_POINT('',(175.8,78.2,5.1));
#586=CARTESIAN_POINT('',(175.8,78.2,54.9));
#587=CARTESIAN_POINT('',(176.8,78.2,3.1));
#588=CARTESIAN_POINT('',(176.8,78.2,5.1));
#589=CARTESIAN_POINT('',(176.8,78.2,54.9));
#590=CARTESIAN_POINT('',(176.8,88.8,3.1));
#591=CARTESIAN_POINT('',(176.8,88.8,5.1));
#592=CARTESIAN_POINT('',(176.8,88.8,54.9));
#593=CARTESIAN_POINT('',(123.2,88.8,3.1));
#594=CARTESIAN_POINT('',(123.2,88.8,5.1));
#595=CARTESIAN_POINT('',(123.2,88.8,54.9));
#596=CARTESIAN_POINT('',(176.8,88.8,3.1));
#597=CARTESIAN_POINT('',(123.2,88.8,3.1));
#598=CARTESIAN_POINT('',(0.,0.,0.));
ENDSEC;
END-ISO-10303-21;
