ISO-10303-21;
HEADER;
/* Generated by software containing ST-Developer
 * from STEP Tools, Inc. (www.steptools.com) 
 */
/* OPTION: using custom schema-name function */

FILE_DESCRIPTION(
/* description */ (''),
/* implementation_level */ '2;1');

FILE_NAME(
/* name */ 'box_yellow_top',
/* time_stamp */ '2026-09-03T18:46:58+03:00',
/* author */ (''),
/* organization */ (''),
/* preprocessor_version */ 'ST-DEVELOPER v19.2',
/* originating_system */ 'Rhino 8.34',
/* authorisation */ '');

FILE_SCHEMA (('CONFIG_CONTROL_DESIGN'));
ENDSEC;

DATA;
#10=SHAPE_REPRESENTATION_RELATIONSHIP('','',#290,#12);
#11=MANIFOLD_SOLID_BREP('brep_1',#13);
#12=ADVANCED_BREP_SHAPE_REPRESENTATION('brep_rep_0',(#11,#313),#289);
#13=CLOSED_SHELL('',(#16,#17,#18,#19,#20,#21,#22,#23,#24,#25,#26,#27,#28));
#14=FACE_BOUND('',#53,.T.);
#15=FACE_BOUND('',#54,.T.);
#16=ADVANCED_FACE('',(#29),#200,.T.);
#17=ADVANCED_FACE('',(#30),#191,.T.);
#18=ADVANCED_FACE('',(#31),#201,.T.);
#19=ADVANCED_FACE('',(#32),#192,.T.);
#20=ADVANCED_FACE('',(#33),#193,.T.);
#21=ADVANCED_FACE('',(#34),#194,.T.);
#22=ADVANCED_FACE('',(#35),#195,.T.);
#23=ADVANCED_FACE('',(#36),#196,.T.);
#24=ADVANCED_FACE('',(#37),#197,.T.);
#25=ADVANCED_FACE('',(#38),#198,.T.);
#26=ADVANCED_FACE('',(#39,#14,#15),#199,.T.);
#27=ADVANCED_FACE('',(#40),#202,.T.);
#28=ADVANCED_FACE('',(#41),#203,.T.);
#29=FACE_OUTER_BOUND('',#42,.T.);
#30=FACE_OUTER_BOUND('',#43,.T.);
#31=FACE_OUTER_BOUND('',#44,.T.);
#32=FACE_OUTER_BOUND('',#45,.T.);
#33=FACE_OUTER_BOUND('',#46,.T.);
#34=FACE_OUTER_BOUND('',#47,.T.);
#35=FACE_OUTER_BOUND('',#48,.T.);
#36=FACE_OUTER_BOUND('',#49,.T.);
#37=FACE_OUTER_BOUND('',#50,.T.);
#38=FACE_OUTER_BOUND('',#51,.T.);
#39=FACE_OUTER_BOUND('',#52,.T.);
#40=FACE_OUTER_BOUND('',#55,.T.);
#41=FACE_OUTER_BOUND('',#56,.T.);
#42=EDGE_LOOP('',(#57,#58,#59,#60));
#43=EDGE_LOOP('',(#61,#62));
#44=EDGE_LOOP('',(#63,#64,#65,#66));
#45=EDGE_LOOP('',(#67,#68));
#46=EDGE_LOOP('',(#69,#70,#71,#72));
#47=EDGE_LOOP('',(#73,#74,#75,#76));
#48=EDGE_LOOP('',(#77,#78,#79,#80));
#49=EDGE_LOOP('',(#81,#82,#83,#84));
#50=EDGE_LOOP('',(#85,#86,#87,#88));
#51=EDGE_LOOP('',(#89,#90,#91,#92,#93));
#52=EDGE_LOOP('',(#94,#95,#96,#97,#98));
#53=EDGE_LOOP('',(#99,#100));
#54=EDGE_LOOP('',(#101,#102));
#55=EDGE_LOOP('',(#103,#104,#105,#106));
#56=EDGE_LOOP('',(#107,#108,#109,#110));
#57=ORIENTED_EDGE('',*,*,#132,.T.);
#58=ORIENTED_EDGE('',*,*,#111,.F.);
#59=ORIENTED_EDGE('',*,*,#131,.F.);
#60=ORIENTED_EDGE('',*,*,#130,.T.);
#61=ORIENTED_EDGE('',*,*,#111,.T.);
#62=ORIENTED_EDGE('',*,*,#133,.T.);
#63=ORIENTED_EDGE('',*,*,#135,.T.);
#64=ORIENTED_EDGE('',*,*,#112,.F.);
#65=ORIENTED_EDGE('',*,*,#129,.F.);
#66=ORIENTED_EDGE('',*,*,#128,.T.);
#67=ORIENTED_EDGE('',*,*,#112,.T.);
#68=ORIENTED_EDGE('',*,*,#136,.T.);
#69=ORIENTED_EDGE('',*,*,#113,.T.);
#70=ORIENTED_EDGE('',*,*,#114,.T.);
#71=ORIENTED_EDGE('',*,*,#115,.F.);
#72=ORIENTED_EDGE('',*,*,#116,.F.);
#73=ORIENTED_EDGE('',*,*,#117,.T.);
#74=ORIENTED_EDGE('',*,*,#118,.T.);
#75=ORIENTED_EDGE('',*,*,#119,.F.);
#76=ORIENTED_EDGE('',*,*,#114,.F.);
#77=ORIENTED_EDGE('',*,*,#120,.T.);
#78=ORIENTED_EDGE('',*,*,#121,.T.);
#79=ORIENTED_EDGE('',*,*,#122,.F.);
#80=ORIENTED_EDGE('',*,*,#118,.F.);
#81=ORIENTED_EDGE('',*,*,#123,.T.);
#82=ORIENTED_EDGE('',*,*,#124,.T.);
#83=ORIENTED_EDGE('',*,*,#125,.F.);
#84=ORIENTED_EDGE('',*,*,#121,.F.);
#85=ORIENTED_EDGE('',*,*,#126,.T.);
#86=ORIENTED_EDGE('',*,*,#116,.T.);
#87=ORIENTED_EDGE('',*,*,#127,.F.);
#88=ORIENTED_EDGE('',*,*,#124,.F.);
#89=ORIENTED_EDGE('',*,*,#126,.F.);
#90=ORIENTED_EDGE('',*,*,#123,.F.);
#91=ORIENTED_EDGE('',*,*,#120,.F.);
#92=ORIENTED_EDGE('',*,*,#117,.F.);
#93=ORIENTED_EDGE('',*,*,#113,.F.);
#94=ORIENTED_EDGE('',*,*,#115,.T.);
#95=ORIENTED_EDGE('',*,*,#119,.T.);
#96=ORIENTED_EDGE('',*,*,#122,.T.);
#97=ORIENTED_EDGE('',*,*,#125,.T.);
#98=ORIENTED_EDGE('',*,*,#127,.T.);
#99=ORIENTED_EDGE('',*,*,#137,.F.);
#100=ORIENTED_EDGE('',*,*,#128,.F.);
#101=ORIENTED_EDGE('',*,*,#134,.F.);
#102=ORIENTED_EDGE('',*,*,#130,.F.);
#103=ORIENTED_EDGE('',*,*,#134,.T.);
#104=ORIENTED_EDGE('',*,*,#131,.T.);
#105=ORIENTED_EDGE('',*,*,#133,.F.);
#106=ORIENTED_EDGE('',*,*,#132,.F.);
#107=ORIENTED_EDGE('',*,*,#137,.T.);
#108=ORIENTED_EDGE('',*,*,#129,.T.);
#109=ORIENTED_EDGE('',*,*,#136,.F.);
#110=ORIENTED_EDGE('',*,*,#135,.F.);
#111=EDGE_CURVE('',#173,#188,#157,.T.);
#112=EDGE_CURVE('',#174,#190,#158,.T.);
#113=EDGE_CURVE('',#175,#176,#142,.T.);
#114=EDGE_CURVE('',#176,#177,#143,.T.);
#115=EDGE_CURVE('',#178,#177,#144,.T.);
#116=EDGE_CURVE('',#175,#178,#145,.T.);
#117=EDGE_CURVE('',#176,#179,#146,.T.);
#118=EDGE_CURVE('',#179,#180,#147,.T.);
#119=EDGE_CURVE('',#177,#180,#148,.T.);
#120=EDGE_CURVE('',#179,#181,#149,.T.);
#121=EDGE_CURVE('',#181,#182,#150,.T.);
#122=EDGE_CURVE('',#180,#182,#151,.T.);
#123=EDGE_CURVE('',#181,#183,#152,.T.);
#124=EDGE_CURVE('',#183,#184,#153,.T.);
#125=EDGE_CURVE('',#182,#184,#154,.T.);
#126=EDGE_CURVE('',#183,#175,#155,.T.);
#127=EDGE_CURVE('',#184,#178,#156,.T.);
#128=EDGE_CURVE('',#185,#189,#159,.T.);
#129=EDGE_CURVE('',#185,#174,#138,.T.);
#130=EDGE_CURVE('',#186,#187,#160,.T.);
#131=EDGE_CURVE('',#186,#173,#139,.T.);
#132=EDGE_CURVE('',#187,#188,#140,.T.);
#133=EDGE_CURVE('',#188,#173,#161,.T.);
#134=EDGE_CURVE('',#187,#186,#162,.T.);
#135=EDGE_CURVE('',#189,#190,#141,.T.);
#136=EDGE_CURVE('',#190,#174,#163,.T.);
#137=EDGE_CURVE('',#189,#185,#164,.T.);
#138=(
BOUNDED_CURVE()
B_SPLINE_CURVE(1,(#418,#419),.UNSPECIFIED.,.F.,.F.)
B_SPLINE_CURVE_WITH_KNOTS((2,2),(2.,4.),.UNSPECIFIED.)
CURVE()
GEOMETRIC_REPRESENTATION_ITEM()
RATIONAL_B_SPLINE_CURVE((1.,1.))
REPRESENTATION_ITEM('')
);
#139=(
BOUNDED_CURVE()
B_SPLINE_CURVE(1,(#423,#424),.UNSPECIFIED.,.F.,.F.)
B_SPLINE_CURVE_WITH_KNOTS((2,2),(2.,4.),.UNSPECIFIED.)
CURVE()
GEOMETRIC_REPRESENTATION_ITEM()
RATIONAL_B_SPLINE_CURVE((1.,1.))
REPRESENTATION_ITEM('')
);
#140=(
BOUNDED_CURVE()
B_SPLINE_CURVE(1,(#425,#426),.UNSPECIFIED.,.F.,.F.)
B_SPLINE_CURVE_WITH_KNOTS((2,2),(2.,4.),.UNSPECIFIED.)
CURVE()
GEOMETRIC_REPRESENTATION_ITEM()
RATIONAL_B_SPLINE_CURVE((1.,1.))
REPRESENTATION_ITEM('')
);
#141=(
BOUNDED_CURVE()
B_SPLINE_CURVE(1,(#433,#434),.UNSPECIFIED.,.F.,.F.)
B_SPLINE_CURVE_WITH_KNOTS((2,2),(2.,4.),.UNSPECIFIED.)
CURVE()
GEOMETRIC_REPRESENTATION_ITEM()
RATIONAL_B_SPLINE_CURVE((1.,1.))
REPRESENTATION_ITEM('')
);
#142=B_SPLINE_CURVE_WITH_KNOTS('',1,(#385,#386),.UNSPECIFIED.,.F.,.F.,(2,
2),(78.,156.),.UNSPECIFIED.);
#143=B_SPLINE_CURVE_WITH_KNOTS('',1,(#387,#388),.UNSPECIFIED.,.F.,.F.,(2,
2),(0.,2.),.UNSPECIFIED.);
#144=B_SPLINE_CURVE_WITH_KNOTS('',1,(#389,#390),.UNSPECIFIED.,.F.,.F.,(2,
2),(78.,156.),.UNSPECIFIED.);
#145=B_SPLINE_CURVE_WITH_KNOTS('',1,(#391,#392),.UNSPECIFIED.,.F.,.F.,(2,
2),(0.,2.),.UNSPECIFIED.);
#146=B_SPLINE_CURVE_WITH_KNOTS('',1,(#393,#394),.UNSPECIFIED.,.F.,.F.,(2,
2),(156.,234.),.UNSPECIFIED.);
#147=B_SPLINE_CURVE_WITH_KNOTS('',1,(#395,#396),.UNSPECIFIED.,.F.,.F.,(2,
2),(0.,2.),.UNSPECIFIED.);
#148=B_SPLINE_CURVE_WITH_KNOTS('',1,(#397,#398),.UNSPECIFIED.,.F.,.F.,(2,
2),(156.,234.),.UNSPECIFIED.);
#149=B_SPLINE_CURVE_WITH_KNOTS('',1,(#399,#400),.UNSPECIFIED.,.F.,.F.,(2,
2),(234.,390.),.UNSPECIFIED.);
#150=B_SPLINE_CURVE_WITH_KNOTS('',1,(#401,#402),.UNSPECIFIED.,.F.,.F.,(2,
2),(0.,2.),.UNSPECIFIED.);
#151=B_SPLINE_CURVE_WITH_KNOTS('',1,(#403,#404),.UNSPECIFIED.,.F.,.F.,(2,
2),(234.,390.),.UNSPECIFIED.);
#152=B_SPLINE_CURVE_WITH_KNOTS('',1,(#405,#406),.UNSPECIFIED.,.F.,.F.,(2,
2),(390.,468.),.UNSPECIFIED.);
#153=B_SPLINE_CURVE_WITH_KNOTS('',1,(#407,#408),.UNSPECIFIED.,.F.,.F.,(2,
2),(0.,2.),.UNSPECIFIED.);
#154=B_SPLINE_CURVE_WITH_KNOTS('',1,(#409,#410),.UNSPECIFIED.,.F.,.F.,(2,
2),(390.,468.),.UNSPECIFIED.);
#155=B_SPLINE_CURVE_WITH_KNOTS('',1,(#411,#412),.UNSPECIFIED.,.F.,.F.,(2,
2),(468.,546.),.UNSPECIFIED.);
#156=B_SPLINE_CURVE_WITH_KNOTS('',1,(#413,#414),.UNSPECIFIED.,.F.,.F.,(2,
2),(468.,546.),.UNSPECIFIED.);
#157=TRIMMED_CURVE($,#165,(#380),(#381),.T.,.CARTESIAN.);
#158=TRIMMED_CURVE($,#166,(#383),(#384),.T.,.CARTESIAN.);
#159=TRIMMED_CURVE($,#167,(#416),(#417),.T.,.CARTESIAN.);
#160=TRIMMED_CURVE($,#168,(#421),(#422),.T.,.CARTESIAN.);
#161=TRIMMED_CURVE($,#169,(#428),(#429),.T.,.CARTESIAN.);
#162=TRIMMED_CURVE($,#170,(#431),(#432),.T.,.CARTESIAN.);
#163=TRIMMED_CURVE($,#171,(#436),(#437),.T.,.CARTESIAN.);
#164=TRIMMED_CURVE($,#172,(#439),(#440),.T.,.CARTESIAN.);
#165=CIRCLE('',#305,9.23076923076927);
#166=CIRCLE('',#306,9.23076923076925);
#167=CIRCLE('',#307,9.23076923076925);
#168=CIRCLE('',#308,9.23076923076927);
#169=CIRCLE('',#309,9.23076923076924);
#170=CIRCLE('',#310,9.23076923076924);
#171=CIRCLE('',#311,9.23076923076927);
#172=CIRCLE('',#312,9.23076923076927);
#173=VERTEX_POINT('',#361);
#174=VERTEX_POINT('',#362);
#175=VERTEX_POINT('',#363);
#176=VERTEX_POINT('',#364);
#177=VERTEX_POINT('',#365);
#178=VERTEX_POINT('',#366);
#179=VERTEX_POINT('',#367);
#180=VERTEX_POINT('',#368);
#181=VERTEX_POINT('',#369);
#182=VERTEX_POINT('',#370);
#183=VERTEX_POINT('',#371);
#184=VERTEX_POINT('',#372);
#185=VERTEX_POINT('',#373);
#186=VERTEX_POINT('',#374);
#187=VERTEX_POINT('',#375);
#188=VERTEX_POINT('',#376);
#189=VERTEX_POINT('',#377);
#190=VERTEX_POINT('',#378);
#191=PLANE('',#293);
#192=PLANE('',#295);
#193=PLANE('',#296);
#194=PLANE('',#297);
#195=PLANE('',#298);
#196=PLANE('',#299);
#197=PLANE('',#300);
#198=PLANE('',#301);
#199=PLANE('',#302);
#200=CYLINDRICAL_SURFACE('',#292,9.23076923076927);
#201=CYLINDRICAL_SURFACE('',#294,9.23076923076925);
#202=CYLINDRICAL_SURFACE('',#303,9.23076923076924);
#203=CYLINDRICAL_SURFACE('',#304,9.23076923076927);
#204=SHAPE_DEFINITION_REPRESENTATION(#205,#290);
#205=PRODUCT_DEFINITION_SHAPE($,$,#207);
#206=PRODUCT_DEFINITION_CONTEXT('3D Mechanical Parts',#279,'design');
#207=PRODUCT_DEFINITION('A','First version',#249,#206);
#208=DATE_TIME_ROLE('classification_date');
#209=DATE_TIME_ROLE('creation_date');
#210=APPLIED_DATE_AND_TIME_ASSIGNMENT(#234,#208,(#213));
#211=APPLIED_DATE_AND_TIME_ASSIGNMENT(#236,#209,(#207));
#212=SECURITY_CLASSIFICATION_LEVEL('unclassified');
#213=SECURITY_CLASSIFICATION('A','Security for version',#212);
#214=APPLIED_SECURITY_CLASSIFICATION_ASSIGNMENT(#213,(#249));
#215=APPROVAL_ROLE('Version approval');
#216=APPROVAL_ROLE('Version Security approval');
#217=APPROVAL_ROLE('Definition approval');
#218=APPROVAL_PERSON_ORGANIZATION(#267,#243,#215);
#219=APPROVAL_PERSON_ORGANIZATION(#268,#244,#216);
#220=APPROVAL_PERSON_ORGANIZATION(#271,#245,#217);
#221=COORDINATED_UNIVERSAL_TIME_OFFSET(5,0,.BEHIND.);
#222=LOCAL_TIME(0,0,0.,#221);
#223=LOCAL_TIME(0,0,0.,#221);
#224=LOCAL_TIME(0,0,0.,#221);
#225=LOCAL_TIME(0,0,0.,#221);
#226=LOCAL_TIME(0,0,0.,#221);
#227=CALENDAR_DATE(1999,1,1);
#228=CALENDAR_DATE(1999,1,1);
#229=CALENDAR_DATE(1999,1,1);
#230=CALENDAR_DATE(1999,1,1);
#231=CALENDAR_DATE(1999,1,1);
#232=DATE_AND_TIME(#227,#222);
#233=DATE_AND_TIME(#228,#223);
#234=DATE_AND_TIME(#229,#224);
#235=DATE_AND_TIME(#230,#225);
#236=DATE_AND_TIME(#231,#226);
#237=APPROVAL_DATE_TIME(#232,#243);
#238=APPROVAL_DATE_TIME(#233,#244);
#239=APPROVAL_DATE_TIME(#235,#245);
#240=APPROVAL_STATUS('not_yet_approved');
#241=APPROVAL_STATUS('not_yet_approved');
#242=APPROVAL_STATUS('approved');
#243=APPROVAL(#240,'Version approval');
#244=APPROVAL(#241,'Version Security approval');
#245=APPROVAL(#242,'Definition approval');
#246=APPLIED_APPROVAL_ASSIGNMENT(#243,(#249));
#247=APPLIED_APPROVAL_ASSIGNMENT(#244,(#213));
#248=APPLIED_APPROVAL_ASSIGNMENT(#245,(#207));
#249=PRODUCT_DEFINITION_FORMATION_WITH_SPECIFIED_SOURCE('A',
'First version',#281,.MADE.);
#250=PERSON_AND_ORGANIZATION_ROLE('design_owner');
#251=PERSON_AND_ORGANIZATION_ROLE('creator');
#252=PERSON_AND_ORGANIZATION_ROLE('design_supplier');
#253=PERSON_AND_ORGANIZATION_ROLE('classification_officer');
#254=PERSON_AND_ORGANIZATION_ROLE('creator');
#255=ORGANIZATION('STI','lab','lab');
#256=ORGANIZATION('STI','unknown','unknown');
#257=ORGANIZATION('STI','unknown','unknown');
#258=ORGANIZATION('STI','unknown','unknown');
#259=ORGANIZATION('STI','unknown','unknown');
#260=ORGANIZATION('STI','unknown','unknown');
#261=ORGANIZATION('STI','unknown','unknown');
#262=PERSON('1','Box','vc60',$,$,$);
#263=PERSON('2','last','first',$,$,$);
#264=PERSON('3','President','Mr.',$,$,$);
#265=PERSON_AND_ORGANIZATION(#262,#255);
#266=PERSON_AND_ORGANIZATION(#263,#256);
#267=PERSON_AND_ORGANIZATION(#264,#257);
#268=PERSON_AND_ORGANIZATION(#264,#258);
#269=PERSON_AND_ORGANIZATION(#264,#259);
#270=PERSON_AND_ORGANIZATION(#263,#260);
#271=PERSON_AND_ORGANIZATION(#264,#261);
#272=APPLIED_PERSON_AND_ORGANIZATION_ASSIGNMENT(#265,#250,(#281));
#273=APPLIED_PERSON_AND_ORGANIZATION_ASSIGNMENT(#266,#251,(#249));
#274=APPLIED_PERSON_AND_ORGANIZATION_ASSIGNMENT(#266,#252,(#249));
#275=APPLIED_PERSON_AND_ORGANIZATION_ASSIGNMENT(#269,#253,(#213));
#276=APPLIED_PERSON_AND_ORGANIZATION_ASSIGNMENT(#270,#254,(#207));
#277=PRODUCT_RELATED_PRODUCT_CATEGORY('detail','detail',(#281));
#278=APPLICATION_PROTOCOL_DEFINITION('International Standard',
'config_control_design',1994,#279);
#279=APPLICATION_CONTEXT(
'configuration controlled 3d designs of mechanical parts and assemblie
s');
#280=PRODUCT_CONTEXT('3D Mechanical Parts',#279,'mechanical');
#281=PRODUCT('Document','Document','',(#280));
#282=(
LENGTH_UNIT()
NAMED_UNIT(*)
SI_UNIT(.MILLI.,.METRE.)
);
#283=(
NAMED_UNIT(*)
PLANE_ANGLE_UNIT()
SI_UNIT($,.RADIAN.)
);
#284=DIMENSIONAL_EXPONENTS(0.,0.,0.,0.,0.,0.,0.);
#285=PLANE_ANGLE_MEASURE_WITH_UNIT(PLANE_ANGLE_MEASURE(0.01745329252),#283);
#286=(
CONVERSION_BASED_UNIT('DEGREES',#285)
NAMED_UNIT(#284)
PLANE_ANGLE_UNIT()
);
#287=(
NAMED_UNIT(*)
SI_UNIT($,.STERADIAN.)
SOLID_ANGLE_UNIT()
);
#288=UNCERTAINTY_MEASURE_WITH_UNIT(LENGTH_MEASURE(0.001),#282,
'DISTANCE_ACCURACY_VALUE',
'Maximum model space distance between geometric entities at asserted c
onnectivities');
#289=(
GEOMETRIC_REPRESENTATION_CONTEXT(3)
GLOBAL_UNCERTAINTY_ASSIGNED_CONTEXT((#288))
GLOBAL_UNIT_ASSIGNED_CONTEXT((#287,#286,#282))
REPRESENTATION_CONTEXT('ID1','3D')
);
#290=SHAPE_REPRESENTATION('Document',(#291,#313),#289);
#291=AXIS2_PLACEMENT_3D($,#347,#314,#315);
#292=AXIS2_PLACEMENT_3D('',#348,#316,$);
#293=AXIS2_PLACEMENT_3D('',#349,#317,$);
#294=AXIS2_PLACEMENT_3D('',#350,#318,$);
#295=AXIS2_PLACEMENT_3D('',#351,#319,$);
#296=AXIS2_PLACEMENT_3D('',#352,#320,$);
#297=AXIS2_PLACEMENT_3D('',#353,#321,$);
#298=AXIS2_PLACEMENT_3D('',#354,#322,$);
#299=AXIS2_PLACEMENT_3D('',#355,#323,$);
#300=AXIS2_PLACEMENT_3D('',#356,#324,$);
#301=AXIS2_PLACEMENT_3D('',#357,#325,$);
#302=AXIS2_PLACEMENT_3D('',#358,#326,$);
#303=AXIS2_PLACEMENT_3D('',#359,#327,$);
#304=AXIS2_PLACEMENT_3D('',#360,#328,$);
#305=AXIS2_PLACEMENT_3D($,#379,#329,#330);
#306=AXIS2_PLACEMENT_3D($,#382,#331,#332);
#307=AXIS2_PLACEMENT_3D($,#415,#333,#334);
#308=AXIS2_PLACEMENT_3D($,#420,#335,#336);
#309=AXIS2_PLACEMENT_3D($,#427,#337,#338);
#310=AXIS2_PLACEMENT_3D($,#430,#339,#340);
#311=AXIS2_PLACEMENT_3D($,#435,#341,#342);
#312=AXIS2_PLACEMENT_3D($,#438,#343,#344);
#313=AXIS2_PLACEMENT_3D($,#441,#345,#346);
#314=DIRECTION('',(0.,0.,1.));
#315=DIRECTION('',(1.,0.,0.));
#316=DIRECTION('',(0.,0.,1.));
#317=DIRECTION('',(0.,0.,1.));
#318=DIRECTION('',(0.,0.,1.));
#319=DIRECTION('',(0.,0.,1.));
#320=DIRECTION('',(0.,1.,0.));
#321=DIRECTION('',(-1.,0.,0.));
#322=DIRECTION('',(0.,-1.,0.));
#323=DIRECTION('',(1.,0.,0.));
#324=DIRECTION('',(0.,1.,0.));
#325=DIRECTION('',(0.,0.,-1.));
#326=DIRECTION('',(0.,0.,1.));
#327=DIRECTION('',(0.,0.,1.));
#328=DIRECTION('',(0.,0.,1.));
#329=DIRECTION('',(0.,0.,1.));
#330=DIRECTION('',(-3.07901852162709E-15,1.,0.));
#331=DIRECTION('',(0.,0.,1.));
#332=DIRECTION('',(-3.07901852162709E-15,1.,0.));
#333=DIRECTION('',(0.,0.,1.));
#334=DIRECTION('',(-3.07901852162709E-15,1.,0.));
#335=DIRECTION('',(0.,0.,1.));
#336=DIRECTION('',(-3.07901852162709E-15,1.,0.));
#337=DIRECTION('',(0.,0.,1.));
#338=DIRECTION('',(3.0790185216271E-15,-1.,0.));
#339=DIRECTION('',(0.,0.,1.));
#340=DIRECTION('',(3.0790185216271E-15,-1.,0.));
#341=DIRECTION('',(0.,0.,1.));
#342=DIRECTION('',(4.61852778244063E-15,-1.,0.));
#343=DIRECTION('',(0.,0.,1.));
#344=DIRECTION('',(4.61852778244063E-15,-1.,0.));
#345=DIRECTION('',(0.,0.,1.));
#346=DIRECTION('',(1.,0.,0.));
#347=CARTESIAN_POINT('',(0.,0.,0.));
#348=CARTESIAN_POINT('',(-92.054335594753,106.769899867998,57.));
#349=CARTESIAN_POINT('',(-80.5158740562915,95.2314383295367,59.));
#350=CARTESIAN_POINT('',(-122.054335594753,106.769899867998,57.));
#351=CARTESIAN_POINT('',(-110.515874056292,95.2314383295367,59.));
#352=CARTESIAN_POINT('',(-107.054335594753,121.769899867998,55.));
#353=CARTESIAN_POINT('',(-137.054335594753,121.769899867998,55.));
#354=CARTESIAN_POINT('',(-137.054335594753,91.7698998679982,55.));
#355=CARTESIAN_POINT('',(-77.0543355947531,91.7698998679982,55.));
#356=CARTESIAN_POINT('',(-77.0543355947531,121.769899867998,55.));
#357=CARTESIAN_POINT('',(-77.0543355947531,91.7698998679983,55.));
#358=CARTESIAN_POINT('',(-77.0543355947531,91.7698998679983,57.));
#359=CARTESIAN_POINT('',(-92.0543355947531,106.769899867998,57.));
#360=CARTESIAN_POINT('',(-122.054335594753,106.769899867998,57.));
#361=CARTESIAN_POINT('',(-92.0543355947531,116.000669098768,59.));
#362=CARTESIAN_POINT('',(-122.054335594753,116.000669098768,59.));
#363=CARTESIAN_POINT('',(-107.054335594753,121.769899867998,55.));
#364=CARTESIAN_POINT('',(-137.054335594753,121.769899867998,55.));
#365=CARTESIAN_POINT('',(-137.054335594753,121.769899867998,57.));
#366=CARTESIAN_POINT('',(-107.054335594753,121.769899867998,57.));
#367=CARTESIAN_POINT('',(-137.054335594753,91.7698998679982,55.));
#368=CARTESIAN_POINT('',(-137.054335594753,91.7698998679982,57.));
#369=CARTESIAN_POINT('',(-77.0543355947531,91.7698998679982,55.));
#370=CARTESIAN_POINT('',(-77.0543355947531,91.7698998679982,57.));
#371=CARTESIAN_POINT('',(-77.0543355947531,121.769899867998,55.));
#372=CARTESIAN_POINT('',(-77.0543355947531,121.769899867998,57.));
#373=CARTESIAN_POINT('',(-122.054335594753,116.000669098768,57.));
#374=CARTESIAN_POINT('',(-92.0543355947531,116.000669098768,57.));
#375=CARTESIAN_POINT('',(-92.0543355947531,97.539130637229,57.));
#376=CARTESIAN_POINT('',(-92.0543355947531,97.539130637229,59.));
#377=CARTESIAN_POINT('',(-122.054335594753,97.539130637229,57.));
#378=CARTESIAN_POINT('',(-122.054335594753,97.539130637229,59.));
#379=CARTESIAN_POINT('',(-92.054335594753,106.769899867998,59.));
#380=CARTESIAN_POINT('',(-92.0543355947531,116.000669098768,59.));
#381=CARTESIAN_POINT('',(-92.0543355947531,97.539130637229,59.));
#382=CARTESIAN_POINT('',(-122.054335594753,106.769899867998,59.));
#383=CARTESIAN_POINT('',(-122.054335594753,116.000669098768,59.));
#384=CARTESIAN_POINT('',(-122.054335594753,97.539130637229,59.));
#385=CARTESIAN_POINT('',(-107.054335594753,121.769899867998,55.));
#386=CARTESIAN_POINT('',(-137.054335594753,121.769899867998,55.));
#387=CARTESIAN_POINT('',(-137.054335594753,121.769899867998,55.));
#388=CARTESIAN_POINT('',(-137.054335594753,121.769899867998,57.));
#389=CARTESIAN_POINT('',(-107.054335594753,121.769899867998,57.));
#390=CARTESIAN_POINT('',(-137.054335594753,121.769899867998,57.));
#391=CARTESIAN_POINT('',(-107.054335594753,121.769899867998,55.));
#392=CARTESIAN_POINT('',(-107.054335594753,121.769899867998,57.));
#393=CARTESIAN_POINT('',(-137.054335594753,121.769899867998,55.));
#394=CARTESIAN_POINT('',(-137.054335594753,91.7698998679982,55.));
#395=CARTESIAN_POINT('',(-137.054335594753,91.7698998679982,55.));
#396=CARTESIAN_POINT('',(-137.054335594753,91.7698998679982,57.));
#397=CARTESIAN_POINT('',(-137.054335594753,121.769899867998,57.));
#398=CARTESIAN_POINT('',(-137.054335594753,91.7698998679982,57.));
#399=CARTESIAN_POINT('',(-137.054335594753,91.7698998679982,55.));
#400=CARTESIAN_POINT('',(-77.0543355947531,91.7698998679982,55.));
#401=CARTESIAN_POINT('',(-77.0543355947531,91.7698998679982,55.));
#402=CARTESIAN_POINT('',(-77.0543355947531,91.7698998679982,57.));
#403=CARTESIAN_POINT('',(-137.054335594753,91.7698998679982,57.));
#404=CARTESIAN_POINT('',(-77.0543355947531,91.7698998679982,57.));
#405=CARTESIAN_POINT('',(-77.0543355947531,91.7698998679982,55.));
#406=CARTESIAN_POINT('',(-77.0543355947531,121.769899867998,55.));
#407=CARTESIAN_POINT('',(-77.0543355947531,121.769899867998,55.));
#408=CARTESIAN_POINT('',(-77.0543355947531,121.769899867998,57.));
#409=CARTESIAN_POINT('',(-77.0543355947531,91.7698998679982,57.));
#410=CARTESIAN_POINT('',(-77.0543355947531,121.769899867998,57.));
#411=CARTESIAN_POINT('',(-77.0543355947531,121.769899867998,55.));
#412=CARTESIAN_POINT('',(-107.054335594753,121.769899867998,55.));
#413=CARTESIAN_POINT('',(-77.0543355947531,121.769899867998,57.));
#414=CARTESIAN_POINT('',(-107.054335594753,121.769899867998,57.));
#415=CARTESIAN_POINT('',(-122.054335594753,106.769899867998,57.));
#416=CARTESIAN_POINT('',(-122.054335594753,116.000669098768,57.));
#417=CARTESIAN_POINT('',(-122.054335594753,97.539130637229,57.));
#418=CARTESIAN_POINT('',(-122.054335594753,116.000669098768,57.));
#419=CARTESIAN_POINT('',(-122.054335594753,116.000669098768,59.));
#420=CARTESIAN_POINT('',(-92.054335594753,106.769899867998,57.));
#421=CARTESIAN_POINT('',(-92.0543355947531,116.000669098768,57.));
#422=CARTESIAN_POINT('',(-92.0543355947531,97.539130637229,57.));
#423=CARTESIAN_POINT('',(-92.0543355947531,116.000669098768,57.));
#424=CARTESIAN_POINT('',(-92.0543355947531,116.000669098768,59.));
#425=CARTESIAN_POINT('',(-92.0543355947531,97.539130637229,57.));
#426=CARTESIAN_POINT('',(-92.0543355947531,97.539130637229,59.));
#427=CARTESIAN_POINT('',(-92.0543355947531,106.769899867998,59.));
#428=CARTESIAN_POINT('',(-92.0543355947531,97.539130637229,59.));
#429=CARTESIAN_POINT('',(-92.0543355947531,116.000669098768,59.));
#430=CARTESIAN_POINT('',(-92.0543355947531,106.769899867998,57.));
#431=CARTESIAN_POINT('',(-92.0543355947531,97.539130637229,57.));
#432=CARTESIAN_POINT('',(-92.0543355947531,116.000669098768,57.));
#433=CARTESIAN_POINT('',(-122.054335594753,97.539130637229,57.));
#434=CARTESIAN_POINT('',(-122.054335594753,97.539130637229,59.));
#435=CARTESIAN_POINT('',(-122.054335594753,106.769899867998,59.));
#436=CARTESIAN_POINT('',(-122.054335594753,97.539130637229,59.));
#437=CARTESIAN_POINT('',(-122.054335594753,116.000669098768,59.));
#438=CARTESIAN_POINT('',(-122.054335594753,106.769899867998,57.));
#439=CARTESIAN_POINT('',(-122.054335594753,97.539130637229,57.));
#440=CARTESIAN_POINT('',(-122.054335594753,116.000669098768,57.));
#441=CARTESIAN_POINT('',(0.,0.,0.));
ENDSEC;
END-ISO-10303-21;
