ISO-10303-21;
HEADER;
/* Generated by software containing ST-Developer
 * from STEP Tools, Inc. (www.steptools.com) 
 */
/* OPTION: using custom schema-name function */

FILE_DESCRIPTION(
/* description */ (''),
/* implementation_level */ '2;1');

FILE_NAME(
/* name */ 'box_blue_top',
/* time_stamp */ '2026-09-03T18:44:59+03:00',
/* author */ (''),
/* organization */ (''),
/* preprocessor_version */ 'ST-DEVELOPER v19.2',
/* originating_system */ 'Rhino 8.34',
/* authorisation */ '');

FILE_SCHEMA (('CONFIG_CONTROL_DESIGN'));
ENDSEC;

DATA;
#10=SHAPE_REPRESENTATION_RELATIONSHIP('','',#638,#14);
#11=MANIFOLD_SOLID_BREP('brep_1',#15);
#12=MANIFOLD_SOLID_BREP('brep_2',#16);
#13=MANIFOLD_SOLID_BREP('brep_3',#17);
#14=ADVANCED_BREP_SHAPE_REPRESENTATION('brep_rep_0',(#11,#12,#13,#703),
#637);
#15=CLOSED_SHELL('',(#26,#27,#28,#29,#30,#31,#32,#33));
#16=CLOSED_SHELL('',(#34,#35,#36,#37,#38,#39,#40,#41,#42,#43,#44,#45,#46,
#47,#48,#49,#50,#51,#52));
#17=CLOSED_SHELL('',(#53,#54,#55,#56,#57,#58,#59,#60));
#18=FACE_BOUND('',#101,.T.);
#19=FACE_BOUND('',#103,.T.);
#20=FACE_BOUND('',#121,.T.);
#21=FACE_BOUND('',#122,.T.);
#22=FACE_BOUND('',#123,.T.);
#23=FACE_BOUND('',#124,.T.);
#24=FACE_BOUND('',#134,.T.);
#25=FACE_BOUND('',#136,.T.);
#26=ADVANCED_FACE('',(#61),#531,.T.);
#27=ADVANCED_FACE('',(#62),#532,.T.);
#28=ADVANCED_FACE('',(#63),#517,.T.);
#29=ADVANCED_FACE('',(#64),#533,.T.);
#30=ADVANCED_FACE('',(#65,#18),#534,.T.);
#31=ADVANCED_FACE('',(#66,#19),#535,.T.);
#32=ADVANCED_FACE('',(#67),#518,.F.);
#33=ADVANCED_FACE('',(#68),#519,.F.);
#34=ADVANCED_FACE('',(#69),#520,.T.);
#35=ADVANCED_FACE('',(#70),#536,.T.);
#36=ADVANCED_FACE('',(#71),#521,.T.);
#37=ADVANCED_FACE('',(#72),#537,.T.);
#38=ADVANCED_FACE('',(#73),#522,.T.);
#39=ADVANCED_FACE('',(#74),#538,.T.);
#40=ADVANCED_FACE('',(#75),#523,.T.);
#41=ADVANCED_FACE('',(#76),#539,.T.);
#42=ADVANCED_FACE('',(#77),#540,.T.);
#43=ADVANCED_FACE('',(#78),#541,.T.);
#44=ADVANCED_FACE('',(#79),#542,.T.);
#45=ADVANCED_FACE('',(#80),#543,.T.);
#46=ADVANCED_FACE('',(#81),#544,.T.);
#47=ADVANCED_FACE('',(#82),#545,.T.);
#48=ADVANCED_FACE('',(#83,#20,#21,#22,#23),#546,.T.);
#49=ADVANCED_FACE('',(#84),#524,.T.);
#50=ADVANCED_FACE('',(#85),#525,.T.);
#51=ADVANCED_FACE('',(#86),#526,.T.);
#52=ADVANCED_FACE('',(#87),#527,.T.);
#53=ADVANCED_FACE('',(#88),#547,.T.);
#54=ADVANCED_FACE('',(#89),#548,.T.);
#55=ADVANCED_FACE('',(#90),#528,.T.);
#56=ADVANCED_FACE('',(#91),#549,.T.);
#57=ADVANCED_FACE('',(#92,#24),#550,.T.);
#58=ADVANCED_FACE('',(#93,#25),#551,.T.);
#59=ADVANCED_FACE('',(#94),#529,.F.);
#60=ADVANCED_FACE('',(#95),#530,.F.);
#61=FACE_OUTER_BOUND('',#96,.T.);
#62=FACE_OUTER_BOUND('',#97,.T.);
#63=FACE_OUTER_BOUND('',#98,.T.);
#64=FACE_OUTER_BOUND('',#99,.T.);
#65=FACE_OUTER_BOUND('',#100,.T.);
#66=FACE_OUTER_BOUND('',#102,.T.);
#67=FACE_OUTER_BOUND('',#104,.T.);
#68=FACE_OUTER_BOUND('',#105,.T.);
#69=FACE_OUTER_BOUND('',#106,.T.);
#70=FACE_OUTER_BOUND('',#107,.T.);
#71=FACE_OUTER_BOUND('',#108,.T.);
#72=FACE_OUTER_BOUND('',#109,.T.);
#73=FACE_OUTER_BOUND('',#110,.T.);
#74=FACE_OUTER_BOUND('',#111,.T.);
#75=FACE_OUTER_BOUND('',#112,.T.);
#76=FACE_OUTER_BOUND('',#113,.T.);
#77=FACE_OUTER_BOUND('',#114,.T.);
#78=FACE_OUTER_BOUND('',#115,.T.);
#79=FACE_OUTER_BOUND('',#116,.T.);
#80=FACE_OUTER_BOUND('',#117,.T.);
#81=FACE_OUTER_BOUND('',#118,.T.);
#82=FACE_OUTER_BOUND('',#119,.T.);
#83=FACE_OUTER_BOUND('',#120,.T.);
#84=FACE_OUTER_BOUND('',#125,.T.);
#85=FACE_OUTER_BOUND('',#126,.T.);
#86=FACE_OUTER_BOUND('',#127,.T.);
#87=FACE_OUTER_BOUND('',#128,.T.);
#88=FACE_OUTER_BOUND('',#129,.T.);
#89=FACE_OUTER_BOUND('',#130,.T.);
#90=FACE_OUTER_BOUND('',#131,.T.);
#91=FACE_OUTER_BOUND('',#132,.T.);
#92=FACE_OUTER_BOUND('',#133,.T.);
#93=FACE_OUTER_BOUND('',#135,.T.);
#94=FACE_OUTER_BOUND('',#137,.T.);
#95=FACE_OUTER_BOUND('',#138,.T.);
#96=EDGE_LOOP('',(#139,#140,#141,#142));
#97=EDGE_LOOP('',(#143,#144,#145,#146));
#98=EDGE_LOOP('',(#147,#148,#149,#150));
#99=EDGE_LOOP('',(#151,#152,#153,#154));
#100=EDGE_LOOP('',(#155,#156,#157,#158));
#101=EDGE_LOOP('',(#159,#160));
#102=EDGE_LOOP('',(#161,#162,#163,#164));
#103=EDGE_LOOP('',(#165,#166));
#104=EDGE_LOOP('',(#167,#168,#169,#170));
#105=EDGE_LOOP('',(#171,#172,#173,#174));
#106=EDGE_LOOP('',(#175,#176,#177,#178));
#107=EDGE_LOOP('',(#179,#180));
#108=EDGE_LOOP('',(#181,#182,#183,#184));
#109=EDGE_LOOP('',(#185,#186));
#110=EDGE_LOOP('',(#187,#188,#189,#190));
#111=EDGE_LOOP('',(#191,#192));
#112=EDGE_LOOP('',(#193,#194,#195,#196));
#113=EDGE_LOOP('',(#197,#198));
#114=EDGE_LOOP('',(#199,#200,#201,#202));
#115=EDGE_LOOP('',(#203,#204,#205,#206));
#116=EDGE_LOOP('',(#207,#208,#209,#210));
#117=EDGE_LOOP('',(#211,#212,#213,#214));
#118=EDGE_LOOP('',(#215,#216,#217,#218));
#119=EDGE_LOOP('',(#219,#220,#221,#222,#223));
#120=EDGE_LOOP('',(#224,#225,#226,#227,#228));
#121=EDGE_LOOP('',(#229,#230));
#122=EDGE_LOOP('',(#231,#232));
#123=EDGE_LOOP('',(#233,#234));
#124=EDGE_LOOP('',(#235,#236));
#125=EDGE_LOOP('',(#237,#238,#239,#240));
#126=EDGE_LOOP('',(#241,#242,#243,#244));
#127=EDGE_LOOP('',(#245,#246,#247,#248));
#128=EDGE_LOOP('',(#249,#250,#251,#252));
#129=EDGE_LOOP('',(#253,#254,#255,#256));
#130=EDGE_LOOP('',(#257,#258,#259,#260));
#131=EDGE_LOOP('',(#261,#262,#263,#264));
#132=EDGE_LOOP('',(#265,#266,#267,#268));
#133=EDGE_LOOP('',(#269,#270,#271,#272));
#134=EDGE_LOOP('',(#273,#274));
#135=EDGE_LOOP('',(#275,#276,#277,#278));
#136=EDGE_LOOP('',(#279,#280));
#137=EDGE_LOOP('',(#281,#282,#283,#284));
#138=EDGE_LOOP('',(#285,#286,#287,#288));
#139=ORIENTED_EDGE('',*,*,#292,.T.);
#140=ORIENTED_EDGE('',*,*,#291,.T.);
#141=ORIENTED_EDGE('',*,*,#290,.F.);
#142=ORIENTED_EDGE('',*,*,#289,.F.);
#143=ORIENTED_EDGE('',*,*,#290,.T.);
#144=ORIENTED_EDGE('',*,*,#295,.T.);
#145=ORIENTED_EDGE('',*,*,#294,.F.);
#146=ORIENTED_EDGE('',*,*,#293,.F.);
#147=ORIENTED_EDGE('',*,*,#294,.T.);
#148=ORIENTED_EDGE('',*,*,#298,.T.);
#149=ORIENTED_EDGE('',*,*,#297,.F.);
#150=ORIENTED_EDGE('',*,*,#296,.F.);
#151=ORIENTED_EDGE('',*,*,#297,.T.);
#152=ORIENTED_EDGE('',*,*,#300,.T.);
#153=ORIENTED_EDGE('',*,*,#292,.F.);
#154=ORIENTED_EDGE('',*,*,#299,.F.);
#155=ORIENTED_EDGE('',*,*,#289,.T.);
#156=ORIENTED_EDGE('',*,*,#293,.T.);
#157=ORIENTED_EDGE('',*,*,#296,.T.);
#158=ORIENTED_EDGE('',*,*,#299,.T.);
#159=ORIENTED_EDGE('',*,*,#301,.T.);
#160=ORIENTED_EDGE('',*,*,#305,.T.);
#161=ORIENTED_EDGE('',*,*,#300,.F.);
#162=ORIENTED_EDGE('',*,*,#298,.F.);
#163=ORIENTED_EDGE('',*,*,#295,.F.);
#164=ORIENTED_EDGE('',*,*,#291,.F.);
#165=ORIENTED_EDGE('',*,*,#306,.F.);
#166=ORIENTED_EDGE('',*,*,#302,.F.);
#167=ORIENTED_EDGE('',*,*,#304,.T.);
#168=ORIENTED_EDGE('',*,*,#306,.T.);
#169=ORIENTED_EDGE('',*,*,#303,.F.);
#170=ORIENTED_EDGE('',*,*,#305,.F.);
#171=ORIENTED_EDGE('',*,*,#301,.F.);
#172=ORIENTED_EDGE('',*,*,#303,.T.);
#173=ORIENTED_EDGE('',*,*,#302,.T.);
#174=ORIENTED_EDGE('',*,*,#304,.F.);
#175=ORIENTED_EDGE('',*,*,#334,.T.);
#176=ORIENTED_EDGE('',*,*,#307,.F.);
#177=ORIENTED_EDGE('',*,*,#333,.F.);
#178=ORIENTED_EDGE('',*,*,#332,.T.);
#179=ORIENTED_EDGE('',*,*,#307,.T.);
#180=ORIENTED_EDGE('',*,*,#335,.T.);
#181=ORIENTED_EDGE('',*,*,#337,.T.);
#182=ORIENTED_EDGE('',*,*,#308,.F.);
#183=ORIENTED_EDGE('',*,*,#331,.F.);
#184=ORIENTED_EDGE('',*,*,#330,.T.);
#185=ORIENTED_EDGE('',*,*,#308,.T.);
#186=ORIENTED_EDGE('',*,*,#338,.T.);
#187=ORIENTED_EDGE('',*,*,#340,.T.);
#188=ORIENTED_EDGE('',*,*,#309,.F.);
#189=ORIENTED_EDGE('',*,*,#329,.F.);
#190=ORIENTED_EDGE('',*,*,#328,.T.);
#191=ORIENTED_EDGE('',*,*,#309,.T.);
#192=ORIENTED_EDGE('',*,*,#341,.T.);
#193=ORIENTED_EDGE('',*,*,#343,.T.);
#194=ORIENTED_EDGE('',*,*,#310,.F.);
#195=ORIENTED_EDGE('',*,*,#327,.F.);
#196=ORIENTED_EDGE('',*,*,#326,.T.);
#197=ORIENTED_EDGE('',*,*,#310,.T.);
#198=ORIENTED_EDGE('',*,*,#344,.T.);
#199=ORIENTED_EDGE('',*,*,#311,.T.);
#200=ORIENTED_EDGE('',*,*,#312,.T.);
#201=ORIENTED_EDGE('',*,*,#313,.F.);
#202=ORIENTED_EDGE('',*,*,#314,.F.);
#203=ORIENTED_EDGE('',*,*,#315,.T.);
#204=ORIENTED_EDGE('',*,*,#316,.T.);
#205=ORIENTED_EDGE('',*,*,#317,.F.);
#206=ORIENTED_EDGE('',*,*,#312,.F.);
#207=ORIENTED_EDGE('',*,*,#318,.T.);
#208=ORIENTED_EDGE('',*,*,#319,.T.);
#209=ORIENTED_EDGE('',*,*,#320,.F.);
#210=ORIENTED_EDGE('',*,*,#316,.F.);
#211=ORIENTED_EDGE('',*,*,#321,.T.);
#212=ORIENTED_EDGE('',*,*,#322,.T.);
#213=ORIENTED_EDGE('',*,*,#323,.F.);
#214=ORIENTED_EDGE('',*,*,#319,.F.);
#215=ORIENTED_EDGE('',*,*,#324,.T.);
#216=ORIENTED_EDGE('',*,*,#314,.T.);
#217=ORIENTED_EDGE('',*,*,#325,.F.);
#218=ORIENTED_EDGE('',*,*,#322,.F.);
#219=ORIENTED_EDGE('',*,*,#324,.F.);
#220=ORIENTED_EDGE('',*,*,#321,.F.);
#221=ORIENTED_EDGE('',*,*,#318,.F.);
#222=ORIENTED_EDGE('',*,*,#315,.F.);
#223=ORIENTED_EDGE('',*,*,#311,.F.);
#224=ORIENTED_EDGE('',*,*,#313,.T.);
#225=ORIENTED_EDGE('',*,*,#317,.T.);
#226=ORIENTED_EDGE('',*,*,#320,.T.);
#227=ORIENTED_EDGE('',*,*,#323,.T.);
#228=ORIENTED_EDGE('',*,*,#325,.T.);
#229=ORIENTED_EDGE('',*,*,#345,.F.);
#230=ORIENTED_EDGE('',*,*,#326,.F.);
#231=ORIENTED_EDGE('',*,*,#342,.F.);
#232=ORIENTED_EDGE('',*,*,#328,.F.);
#233=ORIENTED_EDGE('',*,*,#339,.F.);
#234=ORIENTED_EDGE('',*,*,#330,.F.);
#235=ORIENTED_EDGE('',*,*,#336,.F.);
#236=ORIENTED_EDGE('',*,*,#332,.F.);
#237=ORIENTED_EDGE('',*,*,#336,.T.);
#238=ORIENTED_EDGE('',*,*,#333,.T.);
#239=ORIENTED_EDGE('',*,*,#335,.F.);
#240=ORIENTED_EDGE('',*,*,#334,.F.);
#241=ORIENTED_EDGE('',*,*,#339,.T.);
#242=ORIENTED_EDGE('',*,*,#331,.T.);
#243=ORIENTED_EDGE('',*,*,#338,.F.);
#244=ORIENTED_EDGE('',*,*,#337,.F.);
#245=ORIENTED_EDGE('',*,*,#342,.T.);
#246=ORIENTED_EDGE('',*,*,#329,.T.);
#247=ORIENTED_EDGE('',*,*,#341,.F.);
#248=ORIENTED_EDGE('',*,*,#340,.F.);
#249=ORIENTED_EDGE('',*,*,#345,.T.);
#250=ORIENTED_EDGE('',*,*,#327,.T.);
#251=ORIENTED_EDGE('',*,*,#344,.F.);
#252=ORIENTED_EDGE('',*,*,#343,.F.);
#253=ORIENTED_EDGE('',*,*,#349,.T.);
#254=ORIENTED_EDGE('',*,*,#348,.T.);
#255=ORIENTED_EDGE('',*,*,#347,.F.);
#256=ORIENTED_EDGE('',*,*,#346,.F.);
#257=ORIENTED_EDGE('',*,*,#347,.T.);
#258=ORIENTED_EDGE('',*,*,#352,.T.);
#259=ORIENTED_EDGE('',*,*,#351,.F.);
#260=ORIENTED_EDGE('',*,*,#350,.F.);
#261=ORIENTED_EDGE('',*,*,#351,.T.);
#262=ORIENTED_EDGE('',*,*,#355,.T.);
#263=ORIENTED_EDGE('',*,*,#354,.F.);
#264=ORIENTED_EDGE('',*,*,#353,.F.);
#265=ORIENTED_EDGE('',*,*,#354,.T.);
#266=ORIENTED_EDGE('',*,*,#357,.T.);
#267=ORIENTED_EDGE('',*,*,#349,.F.);
#268=ORIENTED_EDGE('',*,*,#356,.F.);
#269=ORIENTED_EDGE('',*,*,#346,.T.);
#270=ORIENTED_EDGE('',*,*,#350,.T.);
#271=ORIENTED_EDGE('',*,*,#353,.T.);
#272=ORIENTED_EDGE('',*,*,#356,.T.);
#273=ORIENTED_EDGE('',*,*,#358,.T.);
#274=ORIENTED_EDGE('',*,*,#362,.T.);
#275=ORIENTED_EDGE('',*,*,#357,.F.);
#276=ORIENTED_EDGE('',*,*,#355,.F.);
#277=ORIENTED_EDGE('',*,*,#352,.F.);
#278=ORIENTED_EDGE('',*,*,#348,.F.);
#279=ORIENTED_EDGE('',*,*,#363,.F.);
#280=ORIENTED_EDGE('',*,*,#359,.F.);
#281=ORIENTED_EDGE('',*,*,#361,.T.);
#282=ORIENTED_EDGE('',*,*,#363,.T.);
#283=ORIENTED_EDGE('',*,*,#360,.F.);
#284=ORIENTED_EDGE('',*,*,#362,.F.);
#285=ORIENTED_EDGE('',*,*,#358,.F.);
#286=ORIENTED_EDGE('',*,*,#360,.T.);
#287=ORIENTED_EDGE('',*,*,#359,.T.);
#288=ORIENTED_EDGE('',*,*,#361,.F.);
#289=EDGE_CURVE('',#467,#468,#434,.T.);
#290=EDGE_CURVE('',#468,#469,#435,.T.);
#291=EDGE_CURVE('',#470,#469,#436,.T.);
#292=EDGE_CURVE('',#467,#470,#437,.T.);
#293=EDGE_CURVE('',#468,#471,#438,.T.);
#294=EDGE_CURVE('',#471,#472,#439,.T.);
#295=EDGE_CURVE('',#469,#472,#440,.T.);
#296=EDGE_CURVE('',#471,#473,#378,.T.);
#297=EDGE_CURVE('',#473,#474,#364,.T.);
#298=EDGE_CURVE('',#472,#474,#379,.T.);
#299=EDGE_CURVE('',#473,#467,#441,.T.);
#300=EDGE_CURVE('',#474,#470,#442,.T.);
#301=EDGE_CURVE('',#475,#477,#380,.T.);
#302=EDGE_CURVE('',#476,#478,#381,.T.);
#303=EDGE_CURVE('',#475,#476,#365,.T.);
#304=EDGE_CURVE('',#477,#478,#366,.T.);
#305=EDGE_CURVE('',#477,#475,#382,.T.);
#306=EDGE_CURVE('',#478,#476,#383,.T.);
#307=EDGE_CURVE('',#479,#498,#384,.T.);
#308=EDGE_CURVE('',#480,#500,#385,.T.);
#309=EDGE_CURVE('',#481,#502,#386,.T.);
#310=EDGE_CURVE('',#482,#504,#387,.T.);
#311=EDGE_CURVE('',#483,#484,#443,.T.);
#312=EDGE_CURVE('',#484,#485,#444,.T.);
#313=EDGE_CURVE('',#486,#485,#445,.T.);
#314=EDGE_CURVE('',#483,#486,#446,.T.);
#315=EDGE_CURVE('',#484,#487,#447,.T.);
#316=EDGE_CURVE('',#487,#488,#448,.T.);
#317=EDGE_CURVE('',#485,#488,#449,.T.);
#318=EDGE_CURVE('',#487,#489,#450,.T.);
#319=EDGE_CURVE('',#489,#490,#451,.T.);
#320=EDGE_CURVE('',#488,#490,#452,.T.);
#321=EDGE_CURVE('',#489,#491,#453,.T.);
#322=EDGE_CURVE('',#491,#492,#454,.T.);
#323=EDGE_CURVE('',#490,#492,#455,.T.);
#324=EDGE_CURVE('',#491,#483,#456,.T.);
#325=EDGE_CURVE('',#492,#486,#457,.T.);
#326=EDGE_CURVE('',#493,#503,#388,.T.);
#327=EDGE_CURVE('',#493,#482,#367,.T.);
#328=EDGE_CURVE('',#494,#501,#389,.T.);
#329=EDGE_CURVE('',#494,#481,#368,.T.);
#330=EDGE_CURVE('',#495,#499,#390,.T.);
#331=EDGE_CURVE('',#495,#480,#369,.T.);
#332=EDGE_CURVE('',#496,#497,#391,.T.);
#333=EDGE_CURVE('',#496,#479,#370,.T.);
#334=EDGE_CURVE('',#497,#498,#371,.T.);
#335=EDGE_CURVE('',#498,#479,#392,.T.);
#336=EDGE_CURVE('',#497,#496,#393,.T.);
#337=EDGE_CURVE('',#499,#500,#372,.T.);
#338=EDGE_CURVE('',#500,#480,#394,.T.);
#339=EDGE_CURVE('',#499,#495,#395,.T.);
#340=EDGE_CURVE('',#501,#502,#373,.T.);
#341=EDGE_CURVE('',#502,#481,#396,.T.);
#342=EDGE_CURVE('',#501,#494,#397,.T.);
#343=EDGE_CURVE('',#503,#504,#374,.T.);
#344=EDGE_CURVE('',#504,#482,#398,.T.);
#345=EDGE_CURVE('',#503,#493,#399,.T.);
#346=EDGE_CURVE('',#505,#506,#458,.T.);
#347=EDGE_CURVE('',#506,#507,#459,.T.);
#348=EDGE_CURVE('',#508,#507,#460,.T.);
#349=EDGE_CURVE('',#505,#508,#461,.T.);
#350=EDGE_CURVE('',#506,#509,#462,.T.);
#351=EDGE_CURVE('',#509,#510,#463,.T.);
#352=EDGE_CURVE('',#507,#510,#464,.T.);
#353=EDGE_CURVE('',#509,#511,#400,.T.);
#354=EDGE_CURVE('',#511,#512,#375,.T.);
#355=EDGE_CURVE('',#510,#512,#401,.T.);
#356=EDGE_CURVE('',#511,#505,#465,.T.);
#357=EDGE_CURVE('',#512,#508,#466,.T.);
#358=EDGE_CURVE('',#513,#515,#402,.T.);
#359=EDGE_CURVE('',#514,#516,#403,.T.);
#360=EDGE_CURVE('',#513,#514,#376,.T.);
#361=EDGE_CURVE('',#515,#516,#377,.T.);
#362=EDGE_CURVE('',#515,#513,#404,.T.);
#363=EDGE_CURVE('',#516,#514,#405,.T.);
#364=(
BOUNDED_CURVE()
B_SPLINE_CURVE(1,(#837,#838),.UNSPECIFIED.,.F.,.F.)
B_SPLINE_CURVE_WITH_KNOTS((2,2),(0.,10.),.UNSPECIFIED.)
CURVE()
GEOMETRIC_REPRESENTATION_ITEM()
RATIONAL_B_SPLINE_CURVE((1.,1.))
REPRESENTATION_ITEM('')
);
#365=(
BOUNDED_CURVE()
B_SPLINE_CURVE(1,(#852,#853),.UNSPECIFIED.,.F.,.F.)
B_SPLINE_CURVE_WITH_KNOTS((2,2),(4.99941753368514,14.9994175336851),
 .UNSPECIFIED.)
CURVE()
GEOMETRIC_REPRESENTATION_ITEM()
RATIONAL_B_SPLINE_CURVE((1.,1.))
REPRESENTATION_ITEM('')
);
#366=(
BOUNDED_CURVE()
B_SPLINE_CURVE(1,(#854,#855),.UNSPECIFIED.,.F.,.F.)
B_SPLINE_CURVE_WITH_KNOTS((2,2),(4.99941753368514,14.9994175336851),
 .UNSPECIFIED.)
CURVE()
GEOMETRIC_REPRESENTATION_ITEM()
RATIONAL_B_SPLINE_CURVE((1.,1.))
REPRESENTATION_ITEM('')
);
#367=(
BOUNDED_CURVE()
B_SPLINE_CURVE(1,(#952,#953),.UNSPECIFIED.,.F.,.F.)
B_SPLINE_CURVE_WITH_KNOTS((2,2),(2.,4.),.UNSPECIFIED.)
CURVE()
GEOMETRIC_REPRESENTATION_ITEM()
RATIONAL_B_SPLINE_CURVE((1.,1.))
REPRESENTATION_ITEM('')
);
#368=(
BOUNDED_CURVE()
B_SPLINE_CURVE(1,(#957,#958),.UNSPECIFIED.,.F.,.F.)
B_SPLINE_CURVE_WITH_KNOTS((2,2),(2.,4.),.UNSPECIFIED.)
CURVE()
GEOMETRIC_REPRESENTATION_ITEM()
RATIONAL_B_SPLINE_CURVE((1.,1.))
REPRESENTATION_ITEM('')
);
#369=(
BOUNDED_CURVE()
B_SPLINE_CURVE(1,(#962,#963),.UNSPECIFIED.,.F.,.F.)
B_SPLINE_CURVE_WITH_KNOTS((2,2),(2.,4.),.UNSPECIFIED.)
CURVE()
GEOMETRIC_REPRESENTATION_ITEM()
RATIONAL_B_SPLINE_CURVE((1.,1.))
REPRESENTATION_ITEM('')
);
#370=(
BOUNDED_CURVE()
B_SPLINE_CURVE(1,(#967,#968),.UNSPECIFIED.,.F.,.F.)
B_SPLINE_CURVE_WITH_KNOTS((2,2),(2.,4.),.UNSPECIFIED.)
CURVE()
GEOMETRIC_REPRESENTATION_ITEM()
RATIONAL_B_SPLINE_CURVE((1.,1.))
REPRESENTATION_ITEM('')
);
#371=(
BOUNDED_CURVE()
B_SPLINE_CURVE(1,(#969,#970),.UNSPECIFIED.,.F.,.F.)
B_SPLINE_CURVE_WITH_KNOTS((2,2),(2.,4.),.UNSPECIFIED.)
CURVE()
GEOMETRIC_REPRESENTATION_ITEM()
RATIONAL_B_SPLINE_CURVE((1.,1.))
REPRESENTATION_ITEM('')
);
#372=(
BOUNDED_CURVE()
B_SPLINE_CURVE(1,(#977,#978),.UNSPECIFIED.,.F.,.F.)
B_SPLINE_CURVE_WITH_KNOTS((2,2),(2.,4.),.UNSPECIFIED.)
CURVE()
GEOMETRIC_REPRESENTATION_ITEM()
RATIONAL_B_SPLINE_CURVE((1.,1.))
REPRESENTATION_ITEM('')
);
#373=(
BOUNDED_CURVE()
B_SPLINE_CURVE(1,(#985,#986),.UNSPECIFIED.,.F.,.F.)
B_SPLINE_CURVE_WITH_KNOTS((2,2),(2.,4.),.UNSPECIFIED.)
CURVE()
GEOMETRIC_REPRESENTATION_ITEM()
RATIONAL_B_SPLINE_CURVE((1.,1.))
REPRESENTATION_ITEM('')
);
#374=(
BOUNDED_CURVE()
B_SPLINE_CURVE(1,(#993,#994),.UNSPECIFIED.,.F.,.F.)
B_SPLINE_CURVE_WITH_KNOTS((2,2),(2.,4.),.UNSPECIFIED.)
CURVE()
GEOMETRIC_REPRESENTATION_ITEM()
RATIONAL_B_SPLINE_CURVE((1.,1.))
REPRESENTATION_ITEM('')
);
#375=(
BOUNDED_CURVE()
B_SPLINE_CURVE(1,(#1038,#1039),.UNSPECIFIED.,.F.,.F.)
B_SPLINE_CURVE_WITH_KNOTS((2,2),(0.,10.),.UNSPECIFIED.)
CURVE()
GEOMETRIC_REPRESENTATION_ITEM()
RATIONAL_B_SPLINE_CURVE((1.,1.))
REPRESENTATION_ITEM('')
);
#376=(
BOUNDED_CURVE()
B_SPLINE_CURVE(1,(#1053,#1054),.UNSPECIFIED.,.F.,.F.)
B_SPLINE_CURVE_WITH_KNOTS((2,2),(4.99941753368514,14.9994175336851),
 .UNSPECIFIED.)
CURVE()
GEOMETRIC_REPRESENTATION_ITEM()
RATIONAL_B_SPLINE_CURVE((1.,1.))
REPRESENTATION_ITEM('')
);
#377=(
BOUNDED_CURVE()
B_SPLINE_CURVE(1,(#1055,#1056),.UNSPECIFIED.,.F.,.F.)
B_SPLINE_CURVE_WITH_KNOTS((2,2),(4.99941753368514,14.9994175336851),
 .UNSPECIFIED.)
CURVE()
GEOMETRIC_REPRESENTATION_ITEM()
RATIONAL_B_SPLINE_CURVE((1.,1.))
REPRESENTATION_ITEM('')
);
#378=TRIMMED_CURVE($,#406,(#835),(#836),.T.,.CARTESIAN.);
#379=TRIMMED_CURVE($,#407,(#840),(#841),.T.,.CARTESIAN.);
#380=TRIMMED_CURVE($,#408,(#847),(#848),.T.,.CARTESIAN.);
#381=TRIMMED_CURVE($,#409,(#850),(#851),.T.,.CARTESIAN.);
#382=TRIMMED_CURVE($,#410,(#857),(#858),.T.,.CARTESIAN.);
#383=TRIMMED_CURVE($,#411,(#860),(#861),.T.,.CARTESIAN.);
#384=TRIMMED_CURVE($,#412,(#908),(#909),.T.,.CARTESIAN.);
#385=TRIMMED_CURVE($,#413,(#911),(#912),.T.,.CARTESIAN.);
#386=TRIMMED_CURVE($,#414,(#914),(#915),.T.,.CARTESIAN.);
#387=TRIMMED_CURVE($,#415,(#917),(#918),.T.,.CARTESIAN.);
#388=TRIMMED_CURVE($,#416,(#950),(#951),.T.,.CARTESIAN.);
#389=TRIMMED_CURVE($,#417,(#955),(#956),.T.,.CARTESIAN.);
#390=TRIMMED_CURVE($,#418,(#960),(#961),.T.,.CARTESIAN.);
#391=TRIMMED_CURVE($,#419,(#965),(#966),.T.,.CARTESIAN.);
#392=TRIMMED_CURVE($,#420,(#972),(#973),.T.,.CARTESIAN.);
#393=TRIMMED_CURVE($,#421,(#975),(#976),.T.,.CARTESIAN.);
#394=TRIMMED_CURVE($,#422,(#980),(#981),.T.,.CARTESIAN.);
#395=TRIMMED_CURVE($,#423,(#983),(#984),.T.,.CARTESIAN.);
#396=TRIMMED_CURVE($,#424,(#988),(#989),.T.,.CARTESIAN.);
#397=TRIMMED_CURVE($,#425,(#991),(#992),.T.,.CARTESIAN.);
#398=TRIMMED_CURVE($,#426,(#996),(#997),.T.,.CARTESIAN.);
#399=TRIMMED_CURVE($,#427,(#999),(#1000),.T.,.CARTESIAN.);
#400=TRIMMED_CURVE($,#428,(#1036),(#1037),.T.,.CARTESIAN.);
#401=TRIMMED_CURVE($,#429,(#1041),(#1042),.T.,.CARTESIAN.);
#402=TRIMMED_CURVE($,#430,(#1048),(#1049),.T.,.CARTESIAN.);
#403=TRIMMED_CURVE($,#431,(#1051),(#1052),.T.,.CARTESIAN.);
#404=TRIMMED_CURVE($,#432,(#1058),(#1059),.T.,.CARTESIAN.);
#405=TRIMMED_CURVE($,#433,(#1061),(#1062),.T.,.CARTESIAN.);
#406=CIRCLE('',#648,2.50008960205303);
#407=CIRCLE('',#649,2.50008960205303);
#408=CIRCLE('',#650,1.09999999999997);
#409=CIRCLE('',#651,1.09999999999997);
#410=CIRCLE('',#652,1.09999999999997);
#411=CIRCLE('',#653,1.09999999999997);
#412=CIRCLE('',#673,9.23076923076925);
#413=CIRCLE('',#674,9.23076923076923);
#414=CIRCLE('',#675,9.23076923076925);
#415=CIRCLE('',#676,9.23076923076925);
#416=CIRCLE('',#677,9.23076923076925);
#417=CIRCLE('',#678,9.23076923076925);
#418=CIRCLE('',#679,9.23076923076923);
#419=CIRCLE('',#680,9.23076923076925);
#420=CIRCLE('',#681,9.2307692307692);
#421=CIRCLE('',#682,9.2307692307692);
#422=CIRCLE('',#683,9.23076923076923);
#423=CIRCLE('',#684,9.23076923076923);
#424=CIRCLE('',#685,9.23076923076925);
#425=CIRCLE('',#686,9.23076923076925);
#426=CIRCLE('',#687,9.23076923076925);
#427=CIRCLE('',#688,9.23076923076925);
#428=CIRCLE('',#697,2.50008960205303);
#429=CIRCLE('',#698,2.50008960205303);
#430=CIRCLE('',#699,1.09999999999999);
#431=CIRCLE('',#700,1.09999999999997);
#432=CIRCLE('',#701,1.09999999999997);
#433=CIRCLE('',#702,1.09999999999997);
#434=B_SPLINE_CURVE_WITH_KNOTS('',1,(#820,#821),.UNSPECIFIED.,.F.,.F.,(2,
2),(-32.4393152316181,-29.9948050910221),.UNSPECIFIED.);
#435=B_SPLINE_CURVE_WITH_KNOTS('',1,(#822,#823),.UNSPECIFIED.,.F.,.F.,(2,
2),(0.,10.),.UNSPECIFIED.);
#436=B_SPLINE_CURVE_WITH_KNOTS('',1,(#824,#825),.UNSPECIFIED.,.F.,.F.,(2,
2),(-32.4393152316181,-29.9948050910221),.UNSPECIFIED.);
#437=B_SPLINE_CURVE_WITH_KNOTS('',1,(#826,#827),.UNSPECIFIED.,.F.,.F.,(2,
2),(0.,10.),.UNSPECIFIED.);
#438=B_SPLINE_CURVE_WITH_KNOTS('',1,(#828,#829),.UNSPECIFIED.,.F.,.F.,(2,
2),(-29.9948050910221,-27.5502949504261),.UNSPECIFIED.);
#439=B_SPLINE_CURVE_WITH_KNOTS('',1,(#830,#831),.UNSPECIFIED.,.F.,.F.,(2,
2),(0.,10.),.UNSPECIFIED.);
#440=B_SPLINE_CURVE_WITH_KNOTS('',1,(#832,#833),.UNSPECIFIED.,.F.,.F.,(2,
2),(-29.9948050910221,-27.5502949504261),.UNSPECIFIED.);
#441=B_SPLINE_CURVE_WITH_KNOTS('',1,(#842,#843),.UNSPECIFIED.,.F.,.F.,(2,
2),(-15.707963267949,-15.6466040364335),.UNSPECIFIED.);
#442=B_SPLINE_CURVE_WITH_KNOTS('',1,(#844,#845),.UNSPECIFIED.,.F.,.F.,(2,
2),(-15.707963267949,-15.6466040364335),.UNSPECIFIED.);
#443=B_SPLINE_CURVE_WITH_KNOTS('',1,(#919,#920),.UNSPECIFIED.,.F.,.F.,(2,
2),(156.,234.),.UNSPECIFIED.);
#444=B_SPLINE_CURVE_WITH_KNOTS('',1,(#921,#922),.UNSPECIFIED.,.F.,.F.,(2,
2),(0.,2.),.UNSPECIFIED.);
#445=B_SPLINE_CURVE_WITH_KNOTS('',1,(#923,#924),.UNSPECIFIED.,.F.,.F.,(2,
2),(156.,234.),.UNSPECIFIED.);
#446=B_SPLINE_CURVE_WITH_KNOTS('',1,(#925,#926),.UNSPECIFIED.,.F.,.F.,(2,
2),(0.,2.),.UNSPECIFIED.);
#447=B_SPLINE_CURVE_WITH_KNOTS('',1,(#927,#928),.UNSPECIFIED.,.F.,.F.,(2,
2),(234.,390.),.UNSPECIFIED.);
#448=B_SPLINE_CURVE_WITH_KNOTS('',1,(#929,#930),.UNSPECIFIED.,.F.,.F.,(2,
2),(0.,2.),.UNSPECIFIED.);
#449=B_SPLINE_CURVE_WITH_KNOTS('',1,(#931,#932),.UNSPECIFIED.,.F.,.F.,(2,
2),(234.,390.),.UNSPECIFIED.);
#450=B_SPLINE_CURVE_WITH_KNOTS('',1,(#933,#934),.UNSPECIFIED.,.F.,.F.,(2,
2),(390.,546.),.UNSPECIFIED.);
#451=B_SPLINE_CURVE_WITH_KNOTS('',1,(#935,#936),.UNSPECIFIED.,.F.,.F.,(2,
2),(0.,2.),.UNSPECIFIED.);
#452=B_SPLINE_CURVE_WITH_KNOTS('',1,(#937,#938),.UNSPECIFIED.,.F.,.F.,(2,
2),(390.,546.),.UNSPECIFIED.);
#453=B_SPLINE_CURVE_WITH_KNOTS('',1,(#939,#940),.UNSPECIFIED.,.F.,.F.,(2,
2),(546.,702.),.UNSPECIFIED.);
#454=B_SPLINE_CURVE_WITH_KNOTS('',1,(#941,#942),.UNSPECIFIED.,.F.,.F.,(2,
2),(0.,2.),.UNSPECIFIED.);
#455=B_SPLINE_CURVE_WITH_KNOTS('',1,(#943,#944),.UNSPECIFIED.,.F.,.F.,(2,
2),(546.,702.),.UNSPECIFIED.);
#456=B_SPLINE_CURVE_WITH_KNOTS('',1,(#945,#946),.UNSPECIFIED.,.F.,.F.,(2,
2),(702.,780.),.UNSPECIFIED.);
#457=B_SPLINE_CURVE_WITH_KNOTS('',1,(#947,#948),.UNSPECIFIED.,.F.,.F.,(2,
2),(702.,780.),.UNSPECIFIED.);
#458=B_SPLINE_CURVE_WITH_KNOTS('',1,(#1021,#1022),.UNSPECIFIED.,.F.,.F.,
(2,2),(-32.4393152316181,-29.9948050910221),.UNSPECIFIED.);
#459=B_SPLINE_CURVE_WITH_KNOTS('',1,(#1023,#1024),.UNSPECIFIED.,.F.,.F.,
(2,2),(0.,10.),.UNSPECIFIED.);
#460=B_SPLINE_CURVE_WITH_KNOTS('',1,(#1025,#1026),.UNSPECIFIED.,.F.,.F.,
(2,2),(-32.4393152316181,-29.9948050910221),.UNSPECIFIED.);
#461=B_SPLINE_CURVE_WITH_KNOTS('',1,(#1027,#1028),.UNSPECIFIED.,.F.,.F.,
(2,2),(0.,10.),.UNSPECIFIED.);
#462=B_SPLINE_CURVE_WITH_KNOTS('',1,(#1029,#1030),.UNSPECIFIED.,.F.,.F.,
(2,2),(-29.9948050910221,-27.5502949504261),.UNSPECIFIED.);
#463=B_SPLINE_CURVE_WITH_KNOTS('',1,(#1031,#1032),.UNSPECIFIED.,.F.,.F.,
(2,2),(0.,10.),.UNSPECIFIED.);
#464=B_SPLINE_CURVE_WITH_KNOTS('',1,(#1033,#1034),.UNSPECIFIED.,.F.,.F.,
(2,2),(-29.9948050910221,-27.5502949504261),.UNSPECIFIED.);
#465=B_SPLINE_CURVE_WITH_KNOTS('',1,(#1043,#1044),.UNSPECIFIED.,.F.,.F.,
(2,2),(-15.707963267949,-15.6466040364335),.UNSPECIFIED.);
#466=B_SPLINE_CURVE_WITH_KNOTS('',1,(#1045,#1046),.UNSPECIFIED.,.F.,.F.,
(2,2),(-15.707963267949,-15.6466040364335),.UNSPECIFIED.);
#467=VERTEX_POINT('',#808);
#468=VERTEX_POINT('',#809);
#469=VERTEX_POINT('',#810);
#470=VERTEX_POINT('',#811);
#471=VERTEX_POINT('',#812);
#472=VERTEX_POINT('',#813);
#473=VERTEX_POINT('',#814);
#474=VERTEX_POINT('',#815);
#475=VERTEX_POINT('',#816);
#476=VERTEX_POINT('',#817);
#477=VERTEX_POINT('',#818);
#478=VERTEX_POINT('',#819);
#479=VERTEX_POINT('',#881);
#480=VERTEX_POINT('',#882);
#481=VERTEX_POINT('',#883);
#482=VERTEX_POINT('',#884);
#483=VERTEX_POINT('',#885);
#484=VERTEX_POINT('',#886);
#485=VERTEX_POINT('',#887);
#486=VERTEX_POINT('',#888);
#487=VERTEX_POINT('',#889);
#488=VERTEX_POINT('',#890);
#489=VERTEX_POINT('',#891);
#490=VERTEX_POINT('',#892);
#491=VERTEX_POINT('',#893);
#492=VERTEX_POINT('',#894);
#493=VERTEX_POINT('',#895);
#494=VERTEX_POINT('',#896);
#495=VERTEX_POINT('',#897);
#496=VERTEX_POINT('',#898);
#497=VERTEX_POINT('',#899);
#498=VERTEX_POINT('',#900);
#499=VERTEX_POINT('',#901);
#500=VERTEX_POINT('',#902);
#501=VERTEX_POINT('',#903);
#502=VERTEX_POINT('',#904);
#503=VERTEX_POINT('',#905);
#504=VERTEX_POINT('',#906);
#505=VERTEX_POINT('',#1009);
#506=VERTEX_POINT('',#1010);
#507=VERTEX_POINT('',#1011);
#508=VERTEX_POINT('',#1012);
#509=VERTEX_POINT('',#1013);
#510=VERTEX_POINT('',#1014);
#511=VERTEX_POINT('',#1015);
#512=VERTEX_POINT('',#1016);
#513=VERTEX_POINT('',#1017);
#514=VERTEX_POINT('',#1018);
#515=VERTEX_POINT('',#1019);
#516=VERTEX_POINT('',#1020);
#517=CYLINDRICAL_SURFACE('',#642,2.50008960205299);
#518=CYLINDRICAL_SURFACE('',#646,1.10000000000002);
#519=CYLINDRICAL_SURFACE('',#647,1.09999999999999);
#520=CYLINDRICAL_SURFACE('',#654,9.23076923076925);
#521=CYLINDRICAL_SURFACE('',#656,9.23076923076923);
#522=CYLINDRICAL_SURFACE('',#658,9.23076923076925);
#523=CYLINDRICAL_SURFACE('',#660,9.23076923076925);
#524=CYLINDRICAL_SURFACE('',#669,9.2307692307692);
#525=CYLINDRICAL_SURFACE('',#670,9.23076923076923);
#526=CYLINDRICAL_SURFACE('',#671,9.23076923076925);
#527=CYLINDRICAL_SURFACE('',#672,9.23076923076925);
#528=CYLINDRICAL_SURFACE('',#691,2.50008960205303);
#529=CYLINDRICAL_SURFACE('',#695,1.10000000000002);
#530=CYLINDRICAL_SURFACE('',#696,1.09999999999999);
#531=PLANE('',#640);
#532=PLANE('',#641);
#533=PLANE('',#643);
#534=PLANE('',#644);
#535=PLANE('',#645);
#536=PLANE('',#655);
#537=PLANE('',#657);
#538=PLANE('',#659);
#539=PLANE('',#661);
#540=PLANE('',#662);
#541=PLANE('',#663);
#542=PLANE('',#664);
#543=PLANE('',#665);
#544=PLANE('',#666);
#545=PLANE('',#667);
#546=PLANE('',#668);
#547=PLANE('',#689);
#548=PLANE('',#690);
#549=PLANE('',#692);
#550=PLANE('',#693);
#551=PLANE('',#694);
#552=SHAPE_DEFINITION_REPRESENTATION(#553,#638);
#553=PRODUCT_DEFINITION_SHAPE($,$,#555);
#554=PRODUCT_DEFINITION_CONTEXT('3D Mechanical Parts',#627,'design');
#555=PRODUCT_DEFINITION('A','First version',#597,#554);
#556=DATE_TIME_ROLE('classification_date');
#557=DATE_TIME_ROLE('creation_date');
#558=APPLIED_DATE_AND_TIME_ASSIGNMENT(#582,#556,(#561));
#559=APPLIED_DATE_AND_TIME_ASSIGNMENT(#584,#557,(#555));
#560=SECURITY_CLASSIFICATION_LEVEL('unclassified');
#561=SECURITY_CLASSIFICATION('A','Security for version',#560);
#562=APPLIED_SECURITY_CLASSIFICATION_ASSIGNMENT(#561,(#597));
#563=APPROVAL_ROLE('Version approval');
#564=APPROVAL_ROLE('Version Security approval');
#565=APPROVAL_ROLE('Definition approval');
#566=APPROVAL_PERSON_ORGANIZATION(#615,#591,#563);
#567=APPROVAL_PERSON_ORGANIZATION(#616,#592,#564);
#568=APPROVAL_PERSON_ORGANIZATION(#619,#593,#565);
#569=COORDINATED_UNIVERSAL_TIME_OFFSET(5,0,.BEHIND.);
#570=LOCAL_TIME(0,0,0.,#569);
#571=LOCAL_TIME(0,0,0.,#569);
#572=LOCAL_TIME(0,0,0.,#569);
#573=LOCAL_TIME(0,0,0.,#569);
#574=LOCAL_TIME(0,0,0.,#569);
#575=CALENDAR_DATE(1999,1,1);
#576=CALENDAR_DATE(1999,1,1);
#577=CALENDAR_DATE(1999,1,1);
#578=CALENDAR_DATE(1999,1,1);
#579=CALENDAR_DATE(1999,1,1);
#580=DATE_AND_TIME(#575,#570);
#581=DATE_AND_TIME(#576,#571);
#582=DATE_AND_TIME(#577,#572);
#583=DATE_AND_TIME(#578,#573);
#584=DATE_AND_TIME(#579,#574);
#585=APPROVAL_DATE_TIME(#580,#591);
#586=APPROVAL_DATE_TIME(#581,#592);
#587=APPROVAL_DATE_TIME(#583,#593);
#588=APPROVAL_STATUS('not_yet_approved');
#589=APPROVAL_STATUS('not_yet_approved');
#590=APPROVAL_STATUS('approved');
#591=APPROVAL(#588,'Version approval');
#592=APPROVAL(#589,'Version Security approval');
#593=APPROVAL(#590,'Definition approval');
#594=APPLIED_APPROVAL_ASSIGNMENT(#591,(#597));
#595=APPLIED_APPROVAL_ASSIGNMENT(#592,(#561));
#596=APPLIED_APPROVAL_ASSIGNMENT(#593,(#555));
#597=PRODUCT_DEFINITION_FORMATION_WITH_SPECIFIED_SOURCE('A',
'First version',#629,.MADE.);
#598=PERSON_AND_ORGANIZATION_ROLE('design_owner');
#599=PERSON_AND_ORGANIZATION_ROLE('creator');
#600=PERSON_AND_ORGANIZATION_ROLE('design_supplier');
#601=PERSON_AND_ORGANIZATION_ROLE('classification_officer');
#602=PERSON_AND_ORGANIZATION_ROLE('creator');
#603=ORGANIZATION('STI','lab','lab');
#604=ORGANIZATION('STI','unknown','unknown');
#605=ORGANIZATION('STI','unknown','unknown');
#606=ORGANIZATION('STI','unknown','unknown');
#607=ORGANIZATION('STI','unknown','unknown');
#608=ORGANIZATION('STI','unknown','unknown');
#609=ORGANIZATION('STI','unknown','unknown');
#610=PERSON('1','Box','vc60',$,$,$);
#611=PERSON('2','last','first',$,$,$);
#612=PERSON('3','President','Mr.',$,$,$);
#613=PERSON_AND_ORGANIZATION(#610,#603);
#614=PERSON_AND_ORGANIZATION(#611,#604);
#615=PERSON_AND_ORGANIZATION(#612,#605);
#616=PERSON_AND_ORGANIZATION(#612,#606);
#617=PERSON_AND_ORGANIZATION(#612,#607);
#618=PERSON_AND_ORGANIZATION(#611,#608);
#619=PERSON_AND_ORGANIZATION(#612,#609);
#620=APPLIED_PERSON_AND_ORGANIZATION_ASSIGNMENT(#613,#598,(#629));
#621=APPLIED_PERSON_AND_ORGANIZATION_ASSIGNMENT(#614,#599,(#597));
#622=APPLIED_PERSON_AND_ORGANIZATION_ASSIGNMENT(#614,#600,(#597));
#623=APPLIED_PERSON_AND_ORGANIZATION_ASSIGNMENT(#617,#601,(#561));
#624=APPLIED_PERSON_AND_ORGANIZATION_ASSIGNMENT(#618,#602,(#555));
#625=PRODUCT_RELATED_PRODUCT_CATEGORY('detail','detail',(#629));
#626=APPLICATION_PROTOCOL_DEFINITION('International Standard',
'config_control_design',1994,#627);
#627=APPLICATION_CONTEXT(
'configuration controlled 3d designs of mechanical parts and assemblie
s');
#628=PRODUCT_CONTEXT('3D Mechanical Parts',#627,'mechanical');
#629=PRODUCT('Document','Document','',(#628));
#630=(
LENGTH_UNIT()
NAMED_UNIT(*)
SI_UNIT(.MILLI.,.METRE.)
);
#631=(
NAMED_UNIT(*)
PLANE_ANGLE_UNIT()
SI_UNIT($,.RADIAN.)
);
#632=DIMENSIONAL_EXPONENTS(0.,0.,0.,0.,0.,0.,0.);
#633=PLANE_ANGLE_MEASURE_WITH_UNIT(PLANE_ANGLE_MEASURE(0.01745329252),#631);
#634=(
CONVERSION_BASED_UNIT('DEGREES',#633)
NAMED_UNIT(#632)
PLANE_ANGLE_UNIT()
);
#635=(
NAMED_UNIT(*)
SI_UNIT($,.STERADIAN.)
SOLID_ANGLE_UNIT()
);
#636=UNCERTAINTY_MEASURE_WITH_UNIT(LENGTH_MEASURE(0.001),#630,
'DISTANCE_ACCURACY_VALUE',
'Maximum model space distance between geometric entities at asserted c
onnectivities');
#637=(
GEOMETRIC_REPRESENTATION_CONTEXT(3)
GLOBAL_UNCERTAINTY_ASSIGNED_CONTEXT((#636))
GLOBAL_UNIT_ASSIGNED_CONTEXT((#635,#634,#630))
REPRESENTATION_CONTEXT('ID1','3D')
);
#638=SHAPE_REPRESENTATION('Document',(#639,#703),#637);
#639=AXIS2_PLACEMENT_3D($,#799,#704,#705);
#640=AXIS2_PLACEMENT_3D('',#800,#706,$);
#641=AXIS2_PLACEMENT_3D('',#801,#707,$);
#642=AXIS2_PLACEMENT_3D('',#802,#708,$);
#643=AXIS2_PLACEMENT_3D('',#803,#709,$);
#644=AXIS2_PLACEMENT_3D('',#804,#710,$);
#645=AXIS2_PLACEMENT_3D('',#805,#711,$);
#646=AXIS2_PLACEMENT_3D('',#806,#712,$);
#647=AXIS2_PLACEMENT_3D('',#807,#713,$);
#648=AXIS2_PLACEMENT_3D($,#834,#714,#715);
#649=AXIS2_PLACEMENT_3D($,#839,#716,#717);
#650=AXIS2_PLACEMENT_3D($,#846,#718,#719);
#651=AXIS2_PLACEMENT_3D($,#849,#720,#721);
#652=AXIS2_PLACEMENT_3D($,#856,#722,#723);
#653=AXIS2_PLACEMENT_3D($,#859,#724,#725);
#654=AXIS2_PLACEMENT_3D('',#862,#726,$);
#655=AXIS2_PLACEMENT_3D('',#863,#727,$);
#656=AXIS2_PLACEMENT_3D('',#864,#728,$);
#657=AXIS2_PLACEMENT_3D('',#865,#729,$);
#658=AXIS2_PLACEMENT_3D('',#866,#730,$);
#659=AXIS2_PLACEMENT_3D('',#867,#731,$);
#660=AXIS2_PLACEMENT_3D('',#868,#732,$);
#661=AXIS2_PLACEMENT_3D('',#869,#733,$);
#662=AXIS2_PLACEMENT_3D('',#870,#734,$);
#663=AXIS2_PLACEMENT_3D('',#871,#735,$);
#664=AXIS2_PLACEMENT_3D('',#872,#736,$);
#665=AXIS2_PLACEMENT_3D('',#873,#737,$);
#666=AXIS2_PLACEMENT_3D('',#874,#738,$);
#667=AXIS2_PLACEMENT_3D('',#875,#739,$);
#668=AXIS2_PLACEMENT_3D('',#876,#740,$);
#669=AXIS2_PLACEMENT_3D('',#877,#741,$);
#670=AXIS2_PLACEMENT_3D('',#878,#742,$);
#671=AXIS2_PLACEMENT_3D('',#879,#743,$);
#672=AXIS2_PLACEMENT_3D('',#880,#744,$);
#673=AXIS2_PLACEMENT_3D($,#907,#745,#746);
#674=AXIS2_PLACEMENT_3D($,#910,#747,#748);
#675=AXIS2_PLACEMENT_3D($,#913,#749,#750);
#676=AXIS2_PLACEMENT_3D($,#916,#751,#752);
#677=AXIS2_PLACEMENT_3D($,#949,#753,#754);
#678=AXIS2_PLACEMENT_3D($,#954,#755,#756);
#679=AXIS2_PLACEMENT_3D($,#959,#757,#758);
#680=AXIS2_PLACEMENT_3D($,#964,#759,#760);
#681=AXIS2_PLACEMENT_3D($,#971,#761,#762);
#682=AXIS2_PLACEMENT_3D($,#974,#763,#764);
#683=AXIS2_PLACEMENT_3D($,#979,#765,#766);
#684=AXIS2_PLACEMENT_3D($,#982,#767,#768);
#685=AXIS2_PLACEMENT_3D($,#987,#769,#770);
#686=AXIS2_PLACEMENT_3D($,#990,#771,#772);
#687=AXIS2_PLACEMENT_3D($,#995,#773,#774);
#688=AXIS2_PLACEMENT_3D($,#998,#775,#776);
#689=AXIS2_PLACEMENT_3D('',#1001,#777,$);
#690=AXIS2_PLACEMENT_3D('',#1002,#778,$);
#691=AXIS2_PLACEMENT_3D('',#1003,#779,$);
#692=AXIS2_PLACEMENT_3D('',#1004,#780,$);
#693=AXIS2_PLACEMENT_3D('',#1005,#781,$);
#694=AXIS2_PLACEMENT_3D('',#1006,#782,$);
#695=AXIS2_PLACEMENT_3D('',#1007,#783,$);
#696=AXIS2_PLACEMENT_3D('',#1008,#784,$);
#697=AXIS2_PLACEMENT_3D($,#1035,#785,#786);
#698=AXIS2_PLACEMENT_3D($,#1040,#787,#788);
#699=AXIS2_PLACEMENT_3D($,#1047,#789,#790);
#700=AXIS2_PLACEMENT_3D($,#1050,#791,#792);
#701=AXIS2_PLACEMENT_3D($,#1057,#793,#794);
#702=AXIS2_PLACEMENT_3D($,#1060,#795,#796);
#703=AXIS2_PLACEMENT_3D($,#1063,#797,#798);
#704=DIRECTION('',(0.,0.,1.));
#705=DIRECTION('',(1.,0.,0.));
#706=DIRECTION('',(-0.999999992064984,4.44091723129137E-16,0.000125976315439851));
#707=DIRECTION('',(0.000125976315455123,2.86466681101046E-16,-0.999999992064984));
#708=DIRECTION('',(-5.92442140580947E-16,-1.,-5.79363694255234E-16));
#709=DIRECTION('',(-0.999984600939652,-1.63406433624983E-15,-0.0055495840893019));
#710=DIRECTION('',(0.,-1.,0.));
#711=DIRECTION('',(0.,1.,0.));
#712=DIRECTION('',(0.,-1.,0.));
#713=DIRECTION('',(0.,-1.,0.));
#714=DIRECTION('',(0.,-1.,0.));
#715=DIRECTION('',(-0.022230983923072,0.,-0.999752861138098));
#716=DIRECTION('',(0.,-1.,0.));
#717=DIRECTION('',(-0.022230983923072,0.,-0.999752861138098));
#718=DIRECTION('',(0.,1.,0.));
#719=DIRECTION('',(-1.,0.,1.29189588320022E-14));
#720=DIRECTION('',(3.22973970800049E-15,1.,-3.22973970800047E-15));
#721=DIRECTION('',(-1.,3.22973970800056E-15,-3.22973970800056E-14));
#722=DIRECTION('',(0.,1.,0.));
#723=DIRECTION('',(1.,0.,-6.45947941600111E-15));
#724=DIRECTION('',(0.,1.,0.));
#725=DIRECTION('',(1.,0.,-6.45947941600111E-15));
#726=DIRECTION('',(0.,0.,1.));
#727=DIRECTION('',(0.,0.,1.));
#728=DIRECTION('',(0.,0.,1.));
#729=DIRECTION('',(0.,0.,1.));
#730=DIRECTION('',(0.,0.,1.));
#731=DIRECTION('',(0.,0.,1.));
#732=DIRECTION('',(0.,0.,1.));
#733=DIRECTION('',(0.,0.,1.));
#734=DIRECTION('',(0.,1.,0.));
#735=DIRECTION('',(-1.,0.,0.));
#736=DIRECTION('',(0.,-1.,0.));
#737=DIRECTION('',(1.,0.,0.));
#738=DIRECTION('',(0.,1.,0.));
#739=DIRECTION('',(0.,0.,-1.));
#740=DIRECTION('',(0.,0.,1.));
#741=DIRECTION('',(0.,0.,1.));
#742=DIRECTION('',(0.,0.,1.));
#743=DIRECTION('',(0.,0.,1.));
#744=DIRECTION('',(0.,0.,1.));
#745=DIRECTION('',(0.,0.,1.));
#746=DIRECTION('',(1.,1.53950926081355E-15,0.));
#747=DIRECTION('',(0.,0.,1.));
#748=DIRECTION('',(1.,0.,0.));
#749=DIRECTION('',(0.,0.,1.));
#750=DIRECTION('',(1.,3.84877315203387E-15,0.));
#751=DIRECTION('',(0.,0.,1.));
#752=DIRECTION('',(1.,2.30926389122032E-15,0.));
#753=DIRECTION('',(0.,0.,1.));
#754=DIRECTION('',(1.,2.30926389122032E-15,0.));
#755=DIRECTION('',(0.,0.,1.));
#756=DIRECTION('',(1.,3.84877315203387E-15,0.));
#757=DIRECTION('',(0.,0.,1.));
#758=DIRECTION('',(1.,0.,0.));
#759=DIRECTION('',(0.,0.,1.));
#760=DIRECTION('',(1.,1.53950926081355E-15,0.));
#761=DIRECTION('',(0.,0.,1.));
#762=DIRECTION('',(-1.,1.53950926081356E-15,0.));
#763=DIRECTION('',(0.,0.,1.));
#764=DIRECTION('',(-1.,1.53950926081356E-15,0.));
#765=DIRECTION('',(0.,0.,1.));
#766=DIRECTION('',(-1.,0.,0.));
#767=DIRECTION('',(0.,0.,1.));
#768=DIRECTION('',(-1.,0.,0.));
#769=DIRECTION('',(0.,0.,1.));
#770=DIRECTION('',(-1.,-3.84877315203387E-15,0.));
#771=DIRECTION('',(0.,0.,1.));
#772=DIRECTION('',(-1.,-3.84877315203387E-15,0.));
#773=DIRECTION('',(0.,0.,1.));
#774=DIRECTION('',(-1.,-3.65633449443217E-15,0.));
#775=DIRECTION('',(0.,0.,1.));
#776=DIRECTION('',(-1.,-3.65633449443217E-15,0.));
#777=DIRECTION('',(-0.999999992064984,4.44091723129137E-16,0.000125976315439851));
#778=DIRECTION('',(0.000125976315455123,2.86466681101046E-16,-0.999999992064984));
#779=DIRECTION('',(0.,-1.,0.));
#780=DIRECTION('',(-0.999984600939652,-1.63406433624983E-15,-0.0055495840893019));
#781=DIRECTION('',(0.,-1.,0.));
#782=DIRECTION('',(0.,1.,0.));
#783=DIRECTION('',(0.,-1.,0.));
#784=DIRECTION('',(0.,-1.,0.));
#785=DIRECTION('',(-1.18488428116189E-15,-1.,-1.15872738851047E-15));
#786=DIRECTION('',(-0.022230983923072,2.8420690809506E-15,-0.999752861138098));
#787=DIRECTION('',(0.,-1.,0.));
#788=DIRECTION('',(-0.022230983923072,0.,-0.999752861138098));
#789=DIRECTION('',(3.22973970800047E-15,1.,-9.6892191240014E-15));
#790=DIRECTION('',(-1.,6.45947941600094E-15,-3.87568764960057E-14));
#791=DIRECTION('',(6.45947941600099E-15,1.,-6.45947941600094E-15));
#792=DIRECTION('',(-1.,6.45947941600111E-15,-3.22973970800056E-14));
#793=DIRECTION('',(3.22973970800047E-15,1.,3.22973970800053E-15));
#794=DIRECTION('',(1.,0.,1.93784382480033E-14));
#795=DIRECTION('',(0.,1.,0.));
#796=DIRECTION('',(1.,0.,-6.45947941600111E-15));
#797=DIRECTION('',(0.,0.,1.));
#798=DIRECTION('',(1.,0.,0.));
#799=CARTESIAN_POINT('',(0.,0.,0.));
#800=CARTESIAN_POINT('',(180.000064415186,15.6766166043027,58.144576520189));
#801=CARTESIAN_POINT('',(179.999756464803,15.6766166043027,55.700066379593));
#802=CARTESIAN_POINT('',(182.499846057148,20.6766166043027,58.1998460627301));
#803=CARTESIAN_POINT('',(179.999756464803,15.6766166043027,58.200066379593));
#804=CARTESIAN_POINT('',(179.374734065503,15.6766166043027,55.0747340601639));
#805=CARTESIAN_POINT('',(179.374734065503,25.6766166043027,55.0747340601639));
#806=CARTESIAN_POINT('',(182.500172936861,20.6771990706176,58.1997229876628));
#807=CARTESIAN_POINT('',(182.500172936861,20.6771990706176,58.1997229876628));
#808=CARTESIAN_POINT('',(180.000064415186,15.6766166043027,58.144576520189));
#809=CARTESIAN_POINT('',(179.999756464803,15.6766166043027,55.700066379593));
#810=CARTESIAN_POINT('',(179.999756464803,25.6766166043027,55.700066379593));
#811=CARTESIAN_POINT('',(180.000064415186,25.6766166043027,58.144576520189));
#812=CARTESIAN_POINT('',(182.444266605399,15.6766166043027,55.7003743299761));
#813=CARTESIAN_POINT('',(182.444266605399,25.6766166043027,55.7003743299761));
#814=CARTESIAN_POINT('',(179.999756464803,15.6766166043027,58.200066379593));
#815=CARTESIAN_POINT('',(179.999756464803,25.6766166043027,58.200066379593));
#816=CARTESIAN_POINT('',(181.400172936861,15.6766166043027,58.1997229876628));
#817=CARTESIAN_POINT('',(181.400172936861,25.6766166043027,58.1997229876628));
#818=CARTESIAN_POINT('',(183.600172936861,15.6766166043027,58.1997229876628));
#819=CARTESIAN_POINT('',(183.600172936861,25.6766166043027,58.1997229876628));
#820=CARTESIAN_POINT('',(180.000064415186,15.6766166043027,58.144576520189));
#821=CARTESIAN_POINT('',(179.999756464803,15.6766166043027,55.700066379593));
#822=CARTESIAN_POINT('',(179.999756464803,15.6766166043027,55.700066379593));
#823=CARTESIAN_POINT('',(179.999756464803,25.6766166043027,55.700066379593));
#824=CARTESIAN_POINT('',(180.000064415186,25.6766166043027,58.144576520189));
#825=CARTESIAN_POINT('',(179.999756464803,25.6766166043027,55.700066379593));
#826=CARTESIAN_POINT('',(180.000064415186,15.6766166043027,58.144576520189));
#827=CARTESIAN_POINT('',(180.000064415186,25.6766166043027,58.144576520189));
#828=CARTESIAN_POINT('',(179.999756464803,15.6766166043027,55.700066379593));
#829=CARTESIAN_POINT('',(182.444266605399,15.6766166043027,55.7003743299761));
#830=CARTESIAN_POINT('',(182.444266605399,15.6766166043027,55.7003743299761));
#831=CARTESIAN_POINT('',(182.444266605399,25.6766166043027,55.7003743299761));
#832=CARTESIAN_POINT('',(179.999756464803,25.6766166043027,55.700066379593));
#833=CARTESIAN_POINT('',(182.444266605399,25.6766166043027,55.7003743299761));
#834=CARTESIAN_POINT('',(182.499846057148,15.6766166043027,58.1998460627302));
#835=CARTESIAN_POINT('',(182.444266605399,15.6766166043027,55.7003743299761));
#836=CARTESIAN_POINT('',(179.999756464803,15.6766166043027,58.200066379593));
#837=CARTESIAN_POINT('',(179.999756464803,15.6766166043027,58.200066379593));
#838=CARTESIAN_POINT('',(179.999756464803,25.6766166043027,58.200066379593));
#839=CARTESIAN_POINT('',(182.499846057148,25.6766166043027,58.1998460627302));
#840=CARTESIAN_POINT('',(182.444266605399,25.6766166043027,55.7003743299761));
#841=CARTESIAN_POINT('',(179.999756464803,25.6766166043027,58.200066379593));
#842=CARTESIAN_POINT('',(179.999756464803,15.6766166043027,58.200066379593));
#843=CARTESIAN_POINT('',(180.000064415186,15.6766166043027,58.144576520189));
#844=CARTESIAN_POINT('',(179.999756464803,25.6766166043027,58.200066379593));
#845=CARTESIAN_POINT('',(180.000064415186,25.6766166043027,58.144576520189));
#846=CARTESIAN_POINT('',(182.500172936861,15.6766166043027,58.1997229876628));
#847=CARTESIAN_POINT('',(181.400172936861,15.6766166043027,58.1997229876628));
#848=CARTESIAN_POINT('',(183.600172936861,15.6766166043027,58.1997229876628));
#849=CARTESIAN_POINT('',(182.500172936861,25.6766166043027,58.1997229876629));
#850=CARTESIAN_POINT('',(181.400172936861,25.6766166043027,58.1997229876628));
#851=CARTESIAN_POINT('',(183.600172936861,25.6766166043027,58.1997229876628));
#852=CARTESIAN_POINT('',(181.400172936861,15.6766166043027,58.1997229876628));
#853=CARTESIAN_POINT('',(181.400172936861,25.6766166043027,58.1997229876628));
#854=CARTESIAN_POINT('',(183.600172936861,15.6766166043027,58.1997229876628));
#855=CARTESIAN_POINT('',(183.600172936861,25.6766166043027,58.1997229876628));
#856=CARTESIAN_POINT('',(182.500172936861,15.6766166043027,58.1997229876628));
#857=CARTESIAN_POINT('',(183.600172936861,15.6766166043027,58.1997229876628));
#858=CARTESIAN_POINT('',(181.400172936861,15.6766166043027,58.1997229876628));
#859=CARTESIAN_POINT('',(182.500172936861,25.6766166043027,58.1997229876628));
#860=CARTESIAN_POINT('',(183.600172936861,25.6766166043027,58.1997229876628));
#861=CARTESIAN_POINT('',(181.400172936861,25.6766166043027,58.1997229876628));
#862=CARTESIAN_POINT('',(165.,45.5,57.7));
#863=CARTESIAN_POINT('',(153.461538461538,33.9615384615385,59.7));
#864=CARTESIAN_POINT('',(165.,15.5,57.7));
#865=CARTESIAN_POINT('',(153.461538461538,3.96153846153847,59.7));
#866=CARTESIAN_POINT('',(135.,45.5,57.7));
#867=CARTESIAN_POINT('',(123.461538461538,33.9615384615385,59.7));
#868=CARTESIAN_POINT('',(135.,15.5,57.7));
#869=CARTESIAN_POINT('',(123.461538461538,3.96153846153847,59.7));
#870=CARTESIAN_POINT('',(150.,60.5,55.7));
#871=CARTESIAN_POINT('',(120.,60.5,55.7));
#872=CARTESIAN_POINT('',(120.,0.5,55.7));
#873=CARTESIAN_POINT('',(180.,0.5,55.7));
#874=CARTESIAN_POINT('',(180.,60.5,55.7));
#875=CARTESIAN_POINT('',(120.,0.5,55.7));
#876=CARTESIAN_POINT('',(120.,0.5,57.7));
#877=CARTESIAN_POINT('',(165.,45.5,57.7));
#878=CARTESIAN_POINT('',(165.,15.5,57.7));
#879=CARTESIAN_POINT('',(135.,45.5,57.7));
#880=CARTESIAN_POINT('',(135.,15.5,57.7));
#881=CARTESIAN_POINT('',(174.230769230769,45.5,59.7));
#882=CARTESIAN_POINT('',(174.230769230769,15.5,59.7));
#883=CARTESIAN_POINT('',(144.230769230769,45.5,59.7));
#884=CARTESIAN_POINT('',(144.230769230769,15.5,59.7));
#885=CARTESIAN_POINT('',(150.,60.5,55.7));
#886=CARTESIAN_POINT('',(120.,60.5,55.7));
#887=CARTESIAN_POINT('',(120.,60.5,57.7));
#888=CARTESIAN_POINT('',(150.,60.5,57.7));
#889=CARTESIAN_POINT('',(120.,0.5,55.7));
#890=CARTESIAN_POINT('',(120.,0.5,57.7));
#891=CARTESIAN_POINT('',(180.,0.5,55.7));
#892=CARTESIAN_POINT('',(180.,0.5,57.7));
#893=CARTESIAN_POINT('',(180.,60.5,55.7));
#894=CARTESIAN_POINT('',(180.,60.5,57.7));
#895=CARTESIAN_POINT('',(144.230769230769,15.5,57.7));
#896=CARTESIAN_POINT('',(144.230769230769,45.5,57.7));
#897=CARTESIAN_POINT('',(174.230769230769,15.5,57.7));
#898=CARTESIAN_POINT('',(174.230769230769,45.5,57.7));
#899=CARTESIAN_POINT('',(155.769230769231,45.5,57.7));
#900=CARTESIAN_POINT('',(155.769230769231,45.5,59.7));
#901=CARTESIAN_POINT('',(155.769230769231,15.5,57.7));
#902=CARTESIAN_POINT('',(155.769230769231,15.5,59.7));
#903=CARTESIAN_POINT('',(125.769230769231,45.5,57.7));
#904=CARTESIAN_POINT('',(125.769230769231,45.5,59.7));
#905=CARTESIAN_POINT('',(125.769230769231,15.5,57.7));
#906=CARTESIAN_POINT('',(125.769230769231,15.5,59.7));
#907=CARTESIAN_POINT('',(165.,45.5,59.7));
#908=CARTESIAN_POINT('',(174.230769230769,45.5,59.7));
#909=CARTESIAN_POINT('',(155.769230769231,45.5,59.7));
#910=CARTESIAN_POINT('',(165.,15.5,59.7));
#911=CARTESIAN_POINT('',(174.230769230769,15.5,59.7));
#912=CARTESIAN_POINT('',(155.769230769231,15.5,59.7));
#913=CARTESIAN_POINT('',(135.,45.5,59.7));
#914=CARTESIAN_POINT('',(144.230769230769,45.5,59.7));
#915=CARTESIAN_POINT('',(125.769230769231,45.5,59.7));
#916=CARTESIAN_POINT('',(135.,15.5,59.7));
#917=CARTESIAN_POINT('',(144.230769230769,15.5,59.7));
#918=CARTESIAN_POINT('',(125.769230769231,15.5,59.7));
#919=CARTESIAN_POINT('',(150.,60.5,55.7));
#920=CARTESIAN_POINT('',(120.,60.5,55.7));
#921=CARTESIAN_POINT('',(120.,60.5,55.7));
#922=CARTESIAN_POINT('',(120.,60.5,57.7));
#923=CARTESIAN_POINT('',(150.,60.5,57.7));
#924=CARTESIAN_POINT('',(120.,60.5,57.7));
#925=CARTESIAN_POINT('',(150.,60.5,55.7));
#926=CARTESIAN_POINT('',(150.,60.5,57.7));
#927=CARTESIAN_POINT('',(120.,60.5,55.7));
#928=CARTESIAN_POINT('',(120.,0.5,55.7));
#929=CARTESIAN_POINT('',(120.,0.5,55.7));
#930=CARTESIAN_POINT('',(120.,0.5,57.7));
#931=CARTESIAN_POINT('',(120.,60.5,57.7));
#932=CARTESIAN_POINT('',(120.,0.5,57.7));
#933=CARTESIAN_POINT('',(120.,0.5,55.7));
#934=CARTESIAN_POINT('',(180.,0.5,55.7));
#935=CARTESIAN_POINT('',(180.,0.5,55.7));
#936=CARTESIAN_POINT('',(180.,0.5,57.7));
#937=CARTESIAN_POINT('',(120.,0.5,57.7));
#938=CARTESIAN_POINT('',(180.,0.5,57.7));
#939=CARTESIAN_POINT('',(180.,0.5,55.7));
#940=CARTESIAN_POINT('',(180.,60.5,55.7));
#941=CARTESIAN_POINT('',(180.,60.5,55.7));
#942=CARTESIAN_POINT('',(180.,60.5,57.7));
#943=CARTESIAN_POINT('',(180.,0.5,57.7));
#944=CARTESIAN_POINT('',(180.,60.5,57.7));
#945=CARTESIAN_POINT('',(180.,60.5,55.7));
#946=CARTESIAN_POINT('',(150.,60.5,55.7));
#947=CARTESIAN_POINT('',(180.,60.5,57.7));
#948=CARTESIAN_POINT('',(150.,60.5,57.7));
#949=CARTESIAN_POINT('',(135.,15.5,57.7));
#950=CARTESIAN_POINT('',(144.230769230769,15.5,57.7));
#951=CARTESIAN_POINT('',(125.769230769231,15.5,57.7));
#952=CARTESIAN_POINT('',(144.230769230769,15.5,57.7));
#953=CARTESIAN_POINT('',(144.230769230769,15.5,59.7));
#954=CARTESIAN_POINT('',(135.,45.5,57.7));
#955=CARTESIAN_POINT('',(144.230769230769,45.5,57.7));
#956=CARTESIAN_POINT('',(125.769230769231,45.5,57.7));
#957=CARTESIAN_POINT('',(144.230769230769,45.5,57.7));
#958=CARTESIAN_POINT('',(144.230769230769,45.5,59.7));
#959=CARTESIAN_POINT('',(165.,15.5,57.7));
#960=CARTESIAN_POINT('',(174.230769230769,15.5,57.7));
#961=CARTESIAN_POINT('',(155.769230769231,15.5,57.7));
#962=CARTESIAN_POINT('',(174.230769230769,15.5,57.7));
#963=CARTESIAN_POINT('',(174.230769230769,15.5,59.7));
#964=CARTESIAN_POINT('',(165.,45.5,57.7));
#965=CARTESIAN_POINT('',(174.230769230769,45.5,57.7));
#966=CARTESIAN_POINT('',(155.769230769231,45.5,57.7));
#967=CARTESIAN_POINT('',(174.230769230769,45.5,57.7));
#968=CARTESIAN_POINT('',(174.230769230769,45.5,59.7));
#969=CARTESIAN_POINT('',(155.769230769231,45.5,57.7));
#970=CARTESIAN_POINT('',(155.769230769231,45.5,59.7));
#971=CARTESIAN_POINT('',(165.,45.5,59.7));
#972=CARTESIAN_POINT('',(155.769230769231,45.5,59.7));
#973=CARTESIAN_POINT('',(174.230769230769,45.5,59.7));
#974=CARTESIAN_POINT('',(165.,45.5,57.7));
#975=CARTESIAN_POINT('',(155.769230769231,45.5,57.7));
#976=CARTESIAN_POINT('',(174.230769230769,45.5,57.7));
#977=CARTESIAN_POINT('',(155.769230769231,15.5,57.7));
#978=CARTESIAN_POINT('',(155.769230769231,15.5,59.7));
#979=CARTESIAN_POINT('',(165.,15.5,59.7));
#980=CARTESIAN_POINT('',(155.769230769231,15.5,59.7));
#981=CARTESIAN_POINT('',(174.230769230769,15.5,59.7));
#982=CARTESIAN_POINT('',(165.,15.5,57.7));
#983=CARTESIAN_POINT('',(155.769230769231,15.5,57.7));
#984=CARTESIAN_POINT('',(174.230769230769,15.5,57.7));
#985=CARTESIAN_POINT('',(125.769230769231,45.5,57.7));
#986=CARTESIAN_POINT('',(125.769230769231,45.5,59.7));
#987=CARTESIAN_POINT('',(135.,45.5,59.7));
#988=CARTESIAN_POINT('',(125.769230769231,45.5,59.7));
#989=CARTESIAN_POINT('',(144.230769230769,45.5,59.7));
#990=CARTESIAN_POINT('',(135.,45.5,57.7));
#991=CARTESIAN_POINT('',(125.769230769231,45.5,57.7));
#992=CARTESIAN_POINT('',(144.230769230769,45.5,57.7));
#993=CARTESIAN_POINT('',(125.769230769231,15.5,57.7));
#994=CARTESIAN_POINT('',(125.769230769231,15.5,59.7));
#995=CARTESIAN_POINT('',(135.,15.5,59.7));
#996=CARTESIAN_POINT('',(125.769230769231,15.5,59.7));
#997=CARTESIAN_POINT('',(144.230769230769,15.5,59.7));
#998=CARTESIAN_POINT('',(135.,15.5,57.7));
#999=CARTESIAN_POINT('',(125.769230769231,15.5,57.7));
#1000=CARTESIAN_POINT('',(144.230769230769,15.5,57.7));
#1001=CARTESIAN_POINT('',(180.000064415186,45.7754880507621,58.144576520189));
#1002=CARTESIAN_POINT('',(179.999756464803,45.7754880507621,55.700066379593));
#1003=CARTESIAN_POINT('',(182.499846057148,50.7754880507621,58.1998460627302));
#1004=CARTESIAN_POINT('',(179.999756464803,45.7754880507621,58.200066379593));
#1005=CARTESIAN_POINT('',(179.374734065503,45.7754880507621,55.0747340601639));
#1006=CARTESIAN_POINT('',(179.374734065503,55.7754880507621,55.0747340601639));
#1007=CARTESIAN_POINT('',(182.500172936861,50.776070517077,58.1997229876628));
#1008=CARTESIAN_POINT('',(182.500172936861,50.776070517077,58.1997229876628));
#1009=CARTESIAN_POINT('',(180.000064415186,45.7754880507621,58.144576520189));
#1010=CARTESIAN_POINT('',(179.999756464803,45.7754880507621,55.700066379593));
#1011=CARTESIAN_POINT('',(179.999756464803,55.7754880507621,55.700066379593));
#1012=CARTESIAN_POINT('',(180.000064415186,55.7754880507621,58.144576520189));
#1013=CARTESIAN_POINT('',(182.444266605399,45.7754880507621,55.7003743299761));
#1014=CARTESIAN_POINT('',(182.444266605399,55.7754880507621,55.7003743299761));
#1015=CARTESIAN_POINT('',(179.999756464803,45.7754880507621,58.200066379593));
#1016=CARTESIAN_POINT('',(179.999756464803,55.7754880507621,58.200066379593));
#1017=CARTESIAN_POINT('',(181.400172936861,45.7754880507621,58.1997229876628));
#1018=CARTESIAN_POINT('',(181.400172936861,55.7754880507621,58.1997229876628));
#1019=CARTESIAN_POINT('',(183.600172936861,45.7754880507621,58.1997229876628));
#1020=CARTESIAN_POINT('',(183.600172936861,55.7754880507622,58.1997229876628));
#1021=CARTESIAN_POINT('',(180.000064415186,45.7754880507621,58.144576520189));
#1022=CARTESIAN_POINT('',(179.999756464803,45.7754880507621,55.700066379593));
#1023=CARTESIAN_POINT('',(179.999756464803,45.7754880507621,55.700066379593));
#1024=CARTESIAN_POINT('',(179.999756464803,55.7754880507621,55.700066379593));
#1025=CARTESIAN_POINT('',(180.000064415186,55.7754880507621,58.144576520189));
#1026=CARTESIAN_POINT('',(179.999756464803,55.7754880507621,55.700066379593));
#1027=CARTESIAN_POINT('',(180.000064415186,45.7754880507621,58.144576520189));
#1028=CARTESIAN_POINT('',(180.000064415186,55.7754880507621,58.144576520189));
#1029=CARTESIAN_POINT('',(179.999756464803,45.7754880507621,55.700066379593));
#1030=CARTESIAN_POINT('',(182.444266605399,45.7754880507621,55.7003743299761));
#1031=CARTESIAN_POINT('',(182.444266605399,45.7754880507621,55.7003743299761));
#1032=CARTESIAN_POINT('',(182.444266605399,55.7754880507621,55.7003743299761));
#1033=CARTESIAN_POINT('',(179.999756464803,55.7754880507621,55.700066379593));
#1034=CARTESIAN_POINT('',(182.444266605399,55.7754880507621,55.7003743299761));
#1035=CARTESIAN_POINT('',(182.499846057148,45.7754880507621,58.1998460627302));
#1036=CARTESIAN_POINT('',(182.444266605399,45.7754880507621,55.7003743299761));
#1037=CARTESIAN_POINT('',(179.999756464803,45.7754880507621,58.200066379593));
#1038=CARTESIAN_POINT('',(179.999756464803,45.7754880507621,58.200066379593));
#1039=CARTESIAN_POINT('',(179.999756464803,55.7754880507621,58.200066379593));
#1040=CARTESIAN_POINT('',(182.499846057148,55.7754880507621,58.1998460627302));
#1041=CARTESIAN_POINT('',(182.444266605399,55.7754880507621,55.7003743299761));
#1042=CARTESIAN_POINT('',(179.999756464803,55.7754880507621,58.200066379593));
#1043=CARTESIAN_POINT('',(179.999756464803,45.7754880507621,58.200066379593));
#1044=CARTESIAN_POINT('',(180.000064415186,45.7754880507621,58.144576520189));
#1045=CARTESIAN_POINT('',(179.999756464803,55.7754880507621,58.200066379593));
#1046=CARTESIAN_POINT('',(180.000064415186,55.7754880507621,58.144576520189));
#1047=CARTESIAN_POINT('',(182.500172936861,45.7754880507621,58.1997229876629));
#1048=CARTESIAN_POINT('',(181.400172936861,45.7754880507621,58.1997229876628));
#1049=CARTESIAN_POINT('',(183.600172936861,45.7754880507621,58.1997229876628));
#1050=CARTESIAN_POINT('',(182.500172936861,55.7754880507622,58.1997229876629));
#1051=CARTESIAN_POINT('',(181.400172936861,55.7754880507622,58.1997229876628));
#1052=CARTESIAN_POINT('',(183.600172936861,55.7754880507621,58.1997229876628));
#1053=CARTESIAN_POINT('',(181.400172936861,45.7754880507621,58.1997229876628));
#1054=CARTESIAN_POINT('',(181.400172936861,55.7754880507621,58.1997229876628));
#1055=CARTESIAN_POINT('',(183.600172936861,45.7754880507622,58.1997229876628));
#1056=CARTESIAN_POINT('',(183.600172936861,55.7754880507622,58.1997229876628));
#1057=CARTESIAN_POINT('',(182.500172936861,45.7754880507621,58.1997229876628));
#1058=CARTESIAN_POINT('',(183.600172936861,45.7754880507621,58.1997229876628));
#1059=CARTESIAN_POINT('',(181.400172936861,45.7754880507621,58.1997229876628));
#1060=CARTESIAN_POINT('',(182.500172936861,55.7754880507622,58.1997229876628));
#1061=CARTESIAN_POINT('',(183.600172936861,55.7754880507622,58.1997229876628));
#1062=CARTESIAN_POINT('',(181.400172936861,55.7754880507622,58.1997229876628));
#1063=CARTESIAN_POINT('',(0.,0.,0.));
ENDSEC;
END-ISO-10303-21;
