ISO-10303-21;
HEADER;
/* Generated by software containing ST-Developer
 * from STEP Tools, Inc. (www.steptools.com) 
 */
/* OPTION: using custom schema-name function */

FILE_DESCRIPTION(
/* description */ (''),
/* implementation_level */ '2;1');

FILE_NAME(
/* name */ 'box_red_top',
/* time_stamp */ '2026-09-03T18:44:25+03:00',
/* author */ (''),
/* organization */ (''),
/* preprocessor_version */ 'ST-DEVELOPER v19.2',
/* originating_system */ 'Rhino 8.34',
/* authorisation */ '');

FILE_SCHEMA (('CONFIG_CONTROL_DESIGN'));
ENDSEC;

DATA;
#10=SHAPE_REPRESENTATION_RELATIONSHIP('','',#822,#14);
#11=MANIFOLD_SOLID_BREP('brep_1',#15);
#12=MANIFOLD_SOLID_BREP('brep_2',#16);
#13=MANIFOLD_SOLID_BREP('brep_3',#17);
#14=ADVANCED_BREP_SHAPE_REPRESENTATION('brep_rep_0',(#11,#12,#13,#915),
#821);
#15=CLOSED_SHELL('',(#30,#31,#32,#33,#34,#35,#36,#37));
#16=CLOSED_SHELL('',(#38,#39,#40,#41,#42,#43,#44,#45,#46,#47,#48,#49,#50,
#51,#52,#53,#54,#55,#56,#57,#58,#59,#60,#61,#62,#63,#64,#65,#66,#67,#68));
#17=CLOSED_SHELL('',(#69,#70,#71,#72,#73,#74,#75,#76));
#18=FACE_BOUND('',#129,.T.);
#19=FACE_BOUND('',#131,.T.);
#20=FACE_BOUND('',#157,.T.);
#21=FACE_BOUND('',#158,.T.);
#22=FACE_BOUND('',#159,.T.);
#23=FACE_BOUND('',#160,.T.);
#24=FACE_BOUND('',#161,.T.);
#25=FACE_BOUND('',#162,.T.);
#26=FACE_BOUND('',#163,.T.);
#27=FACE_BOUND('',#164,.T.);
#28=FACE_BOUND('',#178,.T.);
#29=FACE_BOUND('',#180,.T.);
#30=ADVANCED_FACE('',(#77),#711,.T.);
#31=ADVANCED_FACE('',(#78),#712,.T.);
#32=ADVANCED_FACE('',(#79),#689,.T.);
#33=ADVANCED_FACE('',(#80),#713,.T.);
#34=ADVANCED_FACE('',(#81,#18),#714,.T.);
#35=ADVANCED_FACE('',(#82,#19),#715,.T.);
#36=ADVANCED_FACE('',(#83),#690,.F.);
#37=ADVANCED_FACE('',(#84),#691,.F.);
#38=ADVANCED_FACE('',(#85),#692,.T.);
#39=ADVANCED_FACE('',(#86),#716,.T.);
#40=ADVANCED_FACE('',(#87),#693,.T.);
#41=ADVANCED_FACE('',(#88),#717,.T.);
#42=ADVANCED_FACE('',(#89),#694,.T.);
#43=ADVANCED_FACE('',(#90),#718,.T.);
#44=ADVANCED_FACE('',(#91),#695,.T.);
#45=ADVANCED_FACE('',(#92),#719,.T.);
#46=ADVANCED_FACE('',(#93),#696,.T.);
#47=ADVANCED_FACE('',(#94),#720,.T.);
#48=ADVANCED_FACE('',(#95),#697,.T.);
#49=ADVANCED_FACE('',(#96),#721,.T.);
#50=ADVANCED_FACE('',(#97),#698,.T.);
#51=ADVANCED_FACE('',(#98),#722,.T.);
#52=ADVANCED_FACE('',(#99),#699,.T.);
#53=ADVANCED_FACE('',(#100),#723,.T.);
#54=ADVANCED_FACE('',(#101),#724,.T.);
#55=ADVANCED_FACE('',(#102),#725,.T.);
#56=ADVANCED_FACE('',(#103),#726,.T.);
#57=ADVANCED_FACE('',(#104),#727,.T.);
#58=ADVANCED_FACE('',(#105),#728,.T.);
#59=ADVANCED_FACE('',(#106),#729,.T.);
#60=ADVANCED_FACE('',(#107,#20,#21,#22,#23,#24,#25,#26,#27),#730,.T.);
#61=ADVANCED_FACE('',(#108),#700,.T.);
#62=ADVANCED_FACE('',(#109),#701,.T.);
#63=ADVANCED_FACE('',(#110),#702,.T.);
#64=ADVANCED_FACE('',(#111),#703,.T.);
#65=ADVANCED_FACE('',(#112),#704,.T.);
#66=ADVANCED_FACE('',(#113),#705,.T.);
#67=ADVANCED_FACE('',(#114),#706,.T.);
#68=ADVANCED_FACE('',(#115),#707,.T.);
#69=ADVANCED_FACE('',(#116),#731,.T.);
#70=ADVANCED_FACE('',(#117),#732,.T.);
#71=ADVANCED_FACE('',(#118),#708,.T.);
#72=ADVANCED_FACE('',(#119),#733,.T.);
#73=ADVANCED_FACE('',(#120,#28),#734,.T.);
#74=ADVANCED_FACE('',(#121,#29),#735,.T.);
#75=ADVANCED_FACE('',(#122),#709,.F.);
#76=ADVANCED_FACE('',(#123),#710,.F.);
#77=FACE_OUTER_BOUND('',#124,.T.);
#78=FACE_OUTER_BOUND('',#125,.T.);
#79=FACE_OUTER_BOUND('',#126,.T.);
#80=FACE_OUTER_BOUND('',#127,.T.);
#81=FACE_OUTER_BOUND('',#128,.T.);
#82=FACE_OUTER_BOUND('',#130,.T.);
#83=FACE_OUTER_BOUND('',#132,.T.);
#84=FACE_OUTER_BOUND('',#133,.T.);
#85=FACE_OUTER_BOUND('',#134,.T.);
#86=FACE_OUTER_BOUND('',#135,.T.);
#87=FACE_OUTER_BOUND('',#136,.T.);
#88=FACE_OUTER_BOUND('',#137,.T.);
#89=FACE_OUTER_BOUND('',#138,.T.);
#90=FACE_OUTER_BOUND('',#139,.T.);
#91=FACE_OUTER_BOUND('',#140,.T.);
#92=FACE_OUTER_BOUND('',#141,.T.);
#93=FACE_OUTER_BOUND('',#142,.T.);
#94=FACE_OUTER_BOUND('',#143,.T.);
#95=FACE_OUTER_BOUND('',#144,.T.);
#96=FACE_OUTER_BOUND('',#145,.T.);
#97=FACE_OUTER_BOUND('',#146,.T.);
#98=FACE_OUTER_BOUND('',#147,.T.);
#99=FACE_OUTER_BOUND('',#148,.T.);
#100=FACE_OUTER_BOUND('',#149,.T.);
#101=FACE_OUTER_BOUND('',#150,.T.);
#102=FACE_OUTER_BOUND('',#151,.T.);
#103=FACE_OUTER_BOUND('',#152,.T.);
#104=FACE_OUTER_BOUND('',#153,.T.);
#105=FACE_OUTER_BOUND('',#154,.T.);
#106=FACE_OUTER_BOUND('',#155,.T.);
#107=FACE_OUTER_BOUND('',#156,.T.);
#108=FACE_OUTER_BOUND('',#165,.T.);
#109=FACE_OUTER_BOUND('',#166,.T.);
#110=FACE_OUTER_BOUND('',#167,.T.);
#111=FACE_OUTER_BOUND('',#168,.T.);
#112=FACE_OUTER_BOUND('',#169,.T.);
#113=FACE_OUTER_BOUND('',#170,.T.);
#114=FACE_OUTER_BOUND('',#171,.T.);
#115=FACE_OUTER_BOUND('',#172,.T.);
#116=FACE_OUTER_BOUND('',#173,.T.);
#117=FACE_OUTER_BOUND('',#174,.T.);
#118=FACE_OUTER_BOUND('',#175,.T.);
#119=FACE_OUTER_BOUND('',#176,.T.);
#120=FACE_OUTER_BOUND('',#177,.T.);
#121=FACE_OUTER_BOUND('',#179,.T.);
#122=FACE_OUTER_BOUND('',#181,.T.);
#123=FACE_OUTER_BOUND('',#182,.T.);
#124=EDGE_LOOP('',(#183,#184,#185,#186));
#125=EDGE_LOOP('',(#187,#188,#189,#190));
#126=EDGE_LOOP('',(#191,#192,#193,#194));
#127=EDGE_LOOP('',(#195,#196,#197,#198));
#128=EDGE_LOOP('',(#199,#200,#201,#202));
#129=EDGE_LOOP('',(#203,#204));
#130=EDGE_LOOP('',(#205,#206,#207,#208));
#131=EDGE_LOOP('',(#209,#210));
#132=EDGE_LOOP('',(#211,#212,#213,#214));
#133=EDGE_LOOP('',(#215,#216,#217,#218));
#134=EDGE_LOOP('',(#219,#220,#221,#222));
#135=EDGE_LOOP('',(#223,#224));
#136=EDGE_LOOP('',(#225,#226,#227,#228));
#137=EDGE_LOOP('',(#229,#230));
#138=EDGE_LOOP('',(#231,#232,#233,#234));
#139=EDGE_LOOP('',(#235,#236));
#140=EDGE_LOOP('',(#237,#238,#239,#240));
#141=EDGE_LOOP('',(#241,#242));
#142=EDGE_LOOP('',(#243,#244,#245,#246));
#143=EDGE_LOOP('',(#247,#248));
#144=EDGE_LOOP('',(#249,#250,#251,#252));
#145=EDGE_LOOP('',(#253,#254));
#146=EDGE_LOOP('',(#255,#256,#257,#258));
#147=EDGE_LOOP('',(#259,#260));
#148=EDGE_LOOP('',(#261,#262,#263,#264));
#149=EDGE_LOOP('',(#265,#266));
#150=EDGE_LOOP('',(#267,#268,#269,#270));
#151=EDGE_LOOP('',(#271,#272,#273,#274));
#152=EDGE_LOOP('',(#275,#276,#277,#278));
#153=EDGE_LOOP('',(#279,#280,#281,#282));
#154=EDGE_LOOP('',(#283,#284,#285,#286));
#155=EDGE_LOOP('',(#287,#288,#289,#290,#291));
#156=EDGE_LOOP('',(#292,#293,#294,#295,#296));
#157=EDGE_LOOP('',(#297,#298));
#158=EDGE_LOOP('',(#299,#300));
#159=EDGE_LOOP('',(#301,#302));
#160=EDGE_LOOP('',(#303,#304));
#161=EDGE_LOOP('',(#305,#306));
#162=EDGE_LOOP('',(#307,#308));
#163=EDGE_LOOP('',(#309,#310));
#164=EDGE_LOOP('',(#311,#312));
#165=EDGE_LOOP('',(#313,#314,#315,#316));
#166=EDGE_LOOP('',(#317,#318,#319,#320));
#167=EDGE_LOOP('',(#321,#322,#323,#324));
#168=EDGE_LOOP('',(#325,#326,#327,#328));
#169=EDGE_LOOP('',(#329,#330,#331,#332));
#170=EDGE_LOOP('',(#333,#334,#335,#336));
#171=EDGE_LOOP('',(#337,#338,#339,#340));
#172=EDGE_LOOP('',(#341,#342,#343,#344));
#173=EDGE_LOOP('',(#345,#346,#347,#348));
#174=EDGE_LOOP('',(#349,#350,#351,#352));
#175=EDGE_LOOP('',(#353,#354,#355,#356));
#176=EDGE_LOOP('',(#357,#358,#359,#360));
#177=EDGE_LOOP('',(#361,#362,#363,#364));
#178=EDGE_LOOP('',(#365,#366));
#179=EDGE_LOOP('',(#367,#368,#369,#370));
#180=EDGE_LOOP('',(#371,#372));
#181=EDGE_LOOP('',(#373,#374,#375,#376));
#182=EDGE_LOOP('',(#377,#378,#379,#380));
#183=ORIENTED_EDGE('',*,*,#381,.T.);
#184=ORIENTED_EDGE('',*,*,#382,.T.);
#185=ORIENTED_EDGE('',*,*,#383,.F.);
#186=ORIENTED_EDGE('',*,*,#384,.F.);
#187=ORIENTED_EDGE('',*,*,#385,.T.);
#188=ORIENTED_EDGE('',*,*,#386,.T.);
#189=ORIENTED_EDGE('',*,*,#387,.F.);
#190=ORIENTED_EDGE('',*,*,#382,.F.);
#191=ORIENTED_EDGE('',*,*,#388,.T.);
#192=ORIENTED_EDGE('',*,*,#389,.T.);
#193=ORIENTED_EDGE('',*,*,#390,.F.);
#194=ORIENTED_EDGE('',*,*,#386,.F.);
#195=ORIENTED_EDGE('',*,*,#391,.T.);
#196=ORIENTED_EDGE('',*,*,#384,.T.);
#197=ORIENTED_EDGE('',*,*,#392,.F.);
#198=ORIENTED_EDGE('',*,*,#389,.F.);
#199=ORIENTED_EDGE('',*,*,#391,.F.);
#200=ORIENTED_EDGE('',*,*,#388,.F.);
#201=ORIENTED_EDGE('',*,*,#385,.F.);
#202=ORIENTED_EDGE('',*,*,#381,.F.);
#203=ORIENTED_EDGE('',*,*,#397,.F.);
#204=ORIENTED_EDGE('',*,*,#393,.F.);
#205=ORIENTED_EDGE('',*,*,#383,.T.);
#206=ORIENTED_EDGE('',*,*,#387,.T.);
#207=ORIENTED_EDGE('',*,*,#390,.T.);
#208=ORIENTED_EDGE('',*,*,#392,.T.);
#209=ORIENTED_EDGE('',*,*,#394,.T.);
#210=ORIENTED_EDGE('',*,*,#398,.T.);
#211=ORIENTED_EDGE('',*,*,#397,.T.);
#212=ORIENTED_EDGE('',*,*,#395,.T.);
#213=ORIENTED_EDGE('',*,*,#398,.F.);
#214=ORIENTED_EDGE('',*,*,#396,.F.);
#215=ORIENTED_EDGE('',*,*,#396,.T.);
#216=ORIENTED_EDGE('',*,*,#394,.F.);
#217=ORIENTED_EDGE('',*,*,#395,.F.);
#218=ORIENTED_EDGE('',*,*,#393,.T.);
#219=ORIENTED_EDGE('',*,*,#438,.T.);
#220=ORIENTED_EDGE('',*,*,#399,.F.);
#221=ORIENTED_EDGE('',*,*,#437,.F.);
#222=ORIENTED_EDGE('',*,*,#436,.T.);
#223=ORIENTED_EDGE('',*,*,#399,.T.);
#224=ORIENTED_EDGE('',*,*,#439,.T.);
#225=ORIENTED_EDGE('',*,*,#441,.T.);
#226=ORIENTED_EDGE('',*,*,#400,.F.);
#227=ORIENTED_EDGE('',*,*,#435,.F.);
#228=ORIENTED_EDGE('',*,*,#434,.T.);
#229=ORIENTED_EDGE('',*,*,#400,.T.);
#230=ORIENTED_EDGE('',*,*,#442,.T.);
#231=ORIENTED_EDGE('',*,*,#444,.T.);
#232=ORIENTED_EDGE('',*,*,#401,.F.);
#233=ORIENTED_EDGE('',*,*,#433,.F.);
#234=ORIENTED_EDGE('',*,*,#432,.T.);
#235=ORIENTED_EDGE('',*,*,#401,.T.);
#236=ORIENTED_EDGE('',*,*,#445,.T.);
#237=ORIENTED_EDGE('',*,*,#447,.T.);
#238=ORIENTED_EDGE('',*,*,#402,.F.);
#239=ORIENTED_EDGE('',*,*,#431,.F.);
#240=ORIENTED_EDGE('',*,*,#430,.T.);
#241=ORIENTED_EDGE('',*,*,#402,.T.);
#242=ORIENTED_EDGE('',*,*,#448,.T.);
#243=ORIENTED_EDGE('',*,*,#450,.T.);
#244=ORIENTED_EDGE('',*,*,#403,.F.);
#245=ORIENTED_EDGE('',*,*,#429,.F.);
#246=ORIENTED_EDGE('',*,*,#428,.T.);
#247=ORIENTED_EDGE('',*,*,#403,.T.);
#248=ORIENTED_EDGE('',*,*,#451,.T.);
#249=ORIENTED_EDGE('',*,*,#453,.T.);
#250=ORIENTED_EDGE('',*,*,#404,.F.);
#251=ORIENTED_EDGE('',*,*,#427,.F.);
#252=ORIENTED_EDGE('',*,*,#426,.T.);
#253=ORIENTED_EDGE('',*,*,#404,.T.);
#254=ORIENTED_EDGE('',*,*,#454,.T.);
#255=ORIENTED_EDGE('',*,*,#456,.T.);
#256=ORIENTED_EDGE('',*,*,#405,.F.);
#257=ORIENTED_EDGE('',*,*,#425,.F.);
#258=ORIENTED_EDGE('',*,*,#424,.T.);
#259=ORIENTED_EDGE('',*,*,#405,.T.);
#260=ORIENTED_EDGE('',*,*,#457,.T.);
#261=ORIENTED_EDGE('',*,*,#459,.T.);
#262=ORIENTED_EDGE('',*,*,#406,.F.);
#263=ORIENTED_EDGE('',*,*,#423,.F.);
#264=ORIENTED_EDGE('',*,*,#422,.T.);
#265=ORIENTED_EDGE('',*,*,#406,.T.);
#266=ORIENTED_EDGE('',*,*,#460,.T.);
#267=ORIENTED_EDGE('',*,*,#407,.T.);
#268=ORIENTED_EDGE('',*,*,#408,.T.);
#269=ORIENTED_EDGE('',*,*,#409,.F.);
#270=ORIENTED_EDGE('',*,*,#410,.F.);
#271=ORIENTED_EDGE('',*,*,#411,.T.);
#272=ORIENTED_EDGE('',*,*,#412,.T.);
#273=ORIENTED_EDGE('',*,*,#413,.F.);
#274=ORIENTED_EDGE('',*,*,#408,.F.);
#275=ORIENTED_EDGE('',*,*,#414,.T.);
#276=ORIENTED_EDGE('',*,*,#415,.T.);
#277=ORIENTED_EDGE('',*,*,#416,.F.);
#278=ORIENTED_EDGE('',*,*,#412,.F.);
#279=ORIENTED_EDGE('',*,*,#417,.T.);
#280=ORIENTED_EDGE('',*,*,#418,.T.);
#281=ORIENTED_EDGE('',*,*,#419,.F.);
#282=ORIENTED_EDGE('',*,*,#415,.F.);
#283=ORIENTED_EDGE('',*,*,#420,.T.);
#284=ORIENTED_EDGE('',*,*,#410,.T.);
#285=ORIENTED_EDGE('',*,*,#421,.F.);
#286=ORIENTED_EDGE('',*,*,#418,.F.);
#287=ORIENTED_EDGE('',*,*,#420,.F.);
#288=ORIENTED_EDGE('',*,*,#417,.F.);
#289=ORIENTED_EDGE('',*,*,#414,.F.);
#290=ORIENTED_EDGE('',*,*,#411,.F.);
#291=ORIENTED_EDGE('',*,*,#407,.F.);
#292=ORIENTED_EDGE('',*,*,#409,.T.);
#293=ORIENTED_EDGE('',*,*,#413,.T.);
#294=ORIENTED_EDGE('',*,*,#416,.T.);
#295=ORIENTED_EDGE('',*,*,#419,.T.);
#296=ORIENTED_EDGE('',*,*,#421,.T.);
#297=ORIENTED_EDGE('',*,*,#461,.F.);
#298=ORIENTED_EDGE('',*,*,#422,.F.);
#299=ORIENTED_EDGE('',*,*,#458,.F.);
#300=ORIENTED_EDGE('',*,*,#424,.F.);
#301=ORIENTED_EDGE('',*,*,#455,.F.);
#302=ORIENTED_EDGE('',*,*,#426,.F.);
#303=ORIENTED_EDGE('',*,*,#452,.F.);
#304=ORIENTED_EDGE('',*,*,#428,.F.);
#305=ORIENTED_EDGE('',*,*,#449,.F.);
#306=ORIENTED_EDGE('',*,*,#430,.F.);
#307=ORIENTED_EDGE('',*,*,#446,.F.);
#308=ORIENTED_EDGE('',*,*,#432,.F.);
#309=ORIENTED_EDGE('',*,*,#443,.F.);
#310=ORIENTED_EDGE('',*,*,#434,.F.);
#311=ORIENTED_EDGE('',*,*,#440,.F.);
#312=ORIENTED_EDGE('',*,*,#436,.F.);
#313=ORIENTED_EDGE('',*,*,#440,.T.);
#314=ORIENTED_EDGE('',*,*,#437,.T.);
#315=ORIENTED_EDGE('',*,*,#439,.F.);
#316=ORIENTED_EDGE('',*,*,#438,.F.);
#317=ORIENTED_EDGE('',*,*,#443,.T.);
#318=ORIENTED_EDGE('',*,*,#435,.T.);
#319=ORIENTED_EDGE('',*,*,#442,.F.);
#320=ORIENTED_EDGE('',*,*,#441,.F.);
#321=ORIENTED_EDGE('',*,*,#446,.T.);
#322=ORIENTED_EDGE('',*,*,#433,.T.);
#323=ORIENTED_EDGE('',*,*,#445,.F.);
#324=ORIENTED_EDGE('',*,*,#444,.F.);
#325=ORIENTED_EDGE('',*,*,#449,.T.);
#326=ORIENTED_EDGE('',*,*,#431,.T.);
#327=ORIENTED_EDGE('',*,*,#448,.F.);
#328=ORIENTED_EDGE('',*,*,#447,.F.);
#329=ORIENTED_EDGE('',*,*,#452,.T.);
#330=ORIENTED_EDGE('',*,*,#429,.T.);
#331=ORIENTED_EDGE('',*,*,#451,.F.);
#332=ORIENTED_EDGE('',*,*,#450,.F.);
#333=ORIENTED_EDGE('',*,*,#455,.T.);
#334=ORIENTED_EDGE('',*,*,#427,.T.);
#335=ORIENTED_EDGE('',*,*,#454,.F.);
#336=ORIENTED_EDGE('',*,*,#453,.F.);
#337=ORIENTED_EDGE('',*,*,#458,.T.);
#338=ORIENTED_EDGE('',*,*,#425,.T.);
#339=ORIENTED_EDGE('',*,*,#457,.F.);
#340=ORIENTED_EDGE('',*,*,#456,.F.);
#341=ORIENTED_EDGE('',*,*,#461,.T.);
#342=ORIENTED_EDGE('',*,*,#423,.T.);
#343=ORIENTED_EDGE('',*,*,#460,.F.);
#344=ORIENTED_EDGE('',*,*,#459,.F.);
#345=ORIENTED_EDGE('',*,*,#462,.T.);
#346=ORIENTED_EDGE('',*,*,#463,.T.);
#347=ORIENTED_EDGE('',*,*,#464,.F.);
#348=ORIENTED_EDGE('',*,*,#465,.F.);
#349=ORIENTED_EDGE('',*,*,#466,.T.);
#350=ORIENTED_EDGE('',*,*,#467,.T.);
#351=ORIENTED_EDGE('',*,*,#468,.F.);
#352=ORIENTED_EDGE('',*,*,#463,.F.);
#353=ORIENTED_EDGE('',*,*,#469,.T.);
#354=ORIENTED_EDGE('',*,*,#470,.T.);
#355=ORIENTED_EDGE('',*,*,#471,.F.);
#356=ORIENTED_EDGE('',*,*,#467,.F.);
#357=ORIENTED_EDGE('',*,*,#472,.T.);
#358=ORIENTED_EDGE('',*,*,#465,.T.);
#359=ORIENTED_EDGE('',*,*,#473,.F.);
#360=ORIENTED_EDGE('',*,*,#470,.F.);
#361=ORIENTED_EDGE('',*,*,#472,.F.);
#362=ORIENTED_EDGE('',*,*,#469,.F.);
#363=ORIENTED_EDGE('',*,*,#466,.F.);
#364=ORIENTED_EDGE('',*,*,#462,.F.);
#365=ORIENTED_EDGE('',*,*,#478,.F.);
#366=ORIENTED_EDGE('',*,*,#474,.F.);
#367=ORIENTED_EDGE('',*,*,#464,.T.);
#368=ORIENTED_EDGE('',*,*,#468,.T.);
#369=ORIENTED_EDGE('',*,*,#471,.T.);
#370=ORIENTED_EDGE('',*,*,#473,.T.);
#371=ORIENTED_EDGE('',*,*,#475,.T.);
#372=ORIENTED_EDGE('',*,*,#479,.T.);
#373=ORIENTED_EDGE('',*,*,#478,.T.);
#374=ORIENTED_EDGE('',*,*,#476,.T.);
#375=ORIENTED_EDGE('',*,*,#479,.F.);
#376=ORIENTED_EDGE('',*,*,#477,.F.);
#377=ORIENTED_EDGE('',*,*,#477,.T.);
#378=ORIENTED_EDGE('',*,*,#475,.F.);
#379=ORIENTED_EDGE('',*,*,#476,.F.);
#380=ORIENTED_EDGE('',*,*,#474,.T.);
#381=EDGE_CURVE('',#623,#624,#590,.T.);
#382=EDGE_CURVE('',#624,#625,#591,.T.);
#383=EDGE_CURVE('',#626,#625,#592,.T.);
#384=EDGE_CURVE('',#623,#626,#593,.T.);
#385=EDGE_CURVE('',#624,#627,#594,.T.);
#386=EDGE_CURVE('',#627,#628,#595,.T.);
#387=EDGE_CURVE('',#625,#628,#596,.T.);
#388=EDGE_CURVE('',#627,#629,#502,.T.);
#389=EDGE_CURVE('',#629,#630,#480,.T.);
#390=EDGE_CURVE('',#628,#630,#503,.T.);
#391=EDGE_CURVE('',#629,#623,#597,.T.);
#392=EDGE_CURVE('',#630,#626,#598,.T.);
#393=EDGE_CURVE('',#631,#633,#504,.T.);
#394=EDGE_CURVE('',#632,#634,#505,.T.);
#395=EDGE_CURVE('',#631,#632,#481,.T.);
#396=EDGE_CURVE('',#633,#634,#482,.T.);
#397=EDGE_CURVE('',#633,#631,#506,.T.);
#398=EDGE_CURVE('',#634,#632,#507,.T.);
#399=EDGE_CURVE('',#635,#662,#508,.T.);
#400=EDGE_CURVE('',#636,#664,#509,.T.);
#401=EDGE_CURVE('',#637,#666,#510,.T.);
#402=EDGE_CURVE('',#638,#668,#511,.T.);
#403=EDGE_CURVE('',#639,#670,#512,.T.);
#404=EDGE_CURVE('',#640,#672,#513,.T.);
#405=EDGE_CURVE('',#641,#674,#514,.T.);
#406=EDGE_CURVE('',#642,#676,#515,.T.);
#407=EDGE_CURVE('',#643,#644,#599,.T.);
#408=EDGE_CURVE('',#644,#645,#600,.T.);
#409=EDGE_CURVE('',#646,#645,#601,.T.);
#410=EDGE_CURVE('',#643,#646,#602,.T.);
#411=EDGE_CURVE('',#644,#647,#603,.T.);
#412=EDGE_CURVE('',#647,#648,#604,.T.);
#413=EDGE_CURVE('',#645,#648,#605,.T.);
#414=EDGE_CURVE('',#647,#649,#606,.T.);
#415=EDGE_CURVE('',#649,#650,#607,.T.);
#416=EDGE_CURVE('',#648,#650,#608,.T.);
#417=EDGE_CURVE('',#649,#651,#609,.T.);
#418=EDGE_CURVE('',#651,#652,#610,.T.);
#419=EDGE_CURVE('',#650,#652,#611,.T.);
#420=EDGE_CURVE('',#651,#643,#612,.T.);
#421=EDGE_CURVE('',#652,#646,#613,.T.);
#422=EDGE_CURVE('',#653,#675,#516,.T.);
#423=EDGE_CURVE('',#653,#642,#483,.T.);
#424=EDGE_CURVE('',#654,#673,#517,.T.);
#425=EDGE_CURVE('',#654,#641,#484,.T.);
#426=EDGE_CURVE('',#655,#671,#518,.T.);
#427=EDGE_CURVE('',#655,#640,#485,.T.);
#428=EDGE_CURVE('',#656,#669,#519,.T.);
#429=EDGE_CURVE('',#656,#639,#486,.T.);
#430=EDGE_CURVE('',#657,#667,#520,.T.);
#431=EDGE_CURVE('',#657,#638,#487,.T.);
#432=EDGE_CURVE('',#658,#665,#521,.T.);
#433=EDGE_CURVE('',#658,#637,#488,.T.);
#434=EDGE_CURVE('',#659,#663,#522,.T.);
#435=EDGE_CURVE('',#659,#636,#489,.T.);
#436=EDGE_CURVE('',#660,#661,#523,.T.);
#437=EDGE_CURVE('',#660,#635,#490,.T.);
#438=EDGE_CURVE('',#661,#662,#491,.T.);
#439=EDGE_CURVE('',#662,#635,#524,.T.);
#440=EDGE_CURVE('',#661,#660,#525,.T.);
#441=EDGE_CURVE('',#663,#664,#492,.T.);
#442=EDGE_CURVE('',#664,#636,#526,.T.);
#443=EDGE_CURVE('',#663,#659,#527,.T.);
#444=EDGE_CURVE('',#665,#666,#493,.T.);
#445=EDGE_CURVE('',#666,#637,#528,.T.);
#446=EDGE_CURVE('',#665,#658,#529,.T.);
#447=EDGE_CURVE('',#667,#668,#494,.T.);
#448=EDGE_CURVE('',#668,#638,#530,.T.);
#449=EDGE_CURVE('',#667,#657,#531,.T.);
#450=EDGE_CURVE('',#669,#670,#495,.T.);
#451=EDGE_CURVE('',#670,#639,#532,.T.);
#452=EDGE_CURVE('',#669,#656,#533,.T.);
#453=EDGE_CURVE('',#671,#672,#496,.T.);
#454=EDGE_CURVE('',#672,#640,#534,.T.);
#455=EDGE_CURVE('',#671,#655,#535,.T.);
#456=EDGE_CURVE('',#673,#674,#497,.T.);
#457=EDGE_CURVE('',#674,#641,#536,.T.);
#458=EDGE_CURVE('',#673,#654,#537,.T.);
#459=EDGE_CURVE('',#675,#676,#498,.T.);
#460=EDGE_CURVE('',#676,#642,#538,.T.);
#461=EDGE_CURVE('',#675,#653,#539,.T.);
#462=EDGE_CURVE('',#677,#678,#614,.T.);
#463=EDGE_CURVE('',#678,#679,#615,.T.);
#464=EDGE_CURVE('',#680,#679,#616,.T.);
#465=EDGE_CURVE('',#677,#680,#617,.T.);
#466=EDGE_CURVE('',#678,#681,#618,.T.);
#467=EDGE_CURVE('',#681,#682,#619,.T.);
#468=EDGE_CURVE('',#679,#682,#620,.T.);
#469=EDGE_CURVE('',#681,#683,#540,.T.);
#470=EDGE_CURVE('',#683,#684,#499,.T.);
#471=EDGE_CURVE('',#682,#684,#541,.T.);
#472=EDGE_CURVE('',#683,#677,#621,.T.);
#473=EDGE_CURVE('',#684,#680,#622,.T.);
#474=EDGE_CURVE('',#685,#687,#542,.T.);
#475=EDGE_CURVE('',#686,#688,#543,.T.);
#476=EDGE_CURVE('',#685,#686,#500,.T.);
#477=EDGE_CURVE('',#687,#688,#501,.T.);
#478=EDGE_CURVE('',#687,#685,#544,.T.);
#479=EDGE_CURVE('',#688,#686,#545,.T.);
#480=(
BOUNDED_CURVE()
B_SPLINE_CURVE(1,(#1093,#1094),.UNSPECIFIED.,.F.,.F.)
B_SPLINE_CURVE_WITH_KNOTS((2,2),(0.,10.),.UNSPECIFIED.)
CURVE()
GEOMETRIC_REPRESENTATION_ITEM()
RATIONAL_B_SPLINE_CURVE((1.,1.))
REPRESENTATION_ITEM('')
);
#481=(
BOUNDED_CURVE()
B_SPLINE_CURVE(1,(#1108,#1109),.UNSPECIFIED.,.F.,.F.)
B_SPLINE_CURVE_WITH_KNOTS((2,2),(4.99941753368514,14.9994175336851),
 .UNSPECIFIED.)
CURVE()
GEOMETRIC_REPRESENTATION_ITEM()
RATIONAL_B_SPLINE_CURVE((1.,1.))
REPRESENTATION_ITEM('')
);
#482=(
BOUNDED_CURVE()
B_SPLINE_CURVE(1,(#1110,#1111),.UNSPECIFIED.,.F.,.F.)
B_SPLINE_CURVE_WITH_KNOTS((2,2),(4.99941753368514,14.9994175336851),
 .UNSPECIFIED.)
CURVE()
GEOMETRIC_REPRESENTATION_ITEM()
RATIONAL_B_SPLINE_CURVE((1.,1.))
REPRESENTATION_ITEM('')
);
#483=(
BOUNDED_CURVE()
B_SPLINE_CURVE(1,(#1248,#1249),.UNSPECIFIED.,.F.,.F.)
B_SPLINE_CURVE_WITH_KNOTS((2,2),(2.,4.),.UNSPECIFIED.)
CURVE()
GEOMETRIC_REPRESENTATION_ITEM()
RATIONAL_B_SPLINE_CURVE((1.,1.))
REPRESENTATION_ITEM('')
);
#484=(
BOUNDED_CURVE()
B_SPLINE_CURVE(1,(#1253,#1254),.UNSPECIFIED.,.F.,.F.)
B_SPLINE_CURVE_WITH_KNOTS((2,2),(2.,4.),.UNSPECIFIED.)
CURVE()
GEOMETRIC_REPRESENTATION_ITEM()
RATIONAL_B_SPLINE_CURVE((1.,1.))
REPRESENTATION_ITEM('')
);
#485=(
BOUNDED_CURVE()
B_SPLINE_CURVE(1,(#1258,#1259),.UNSPECIFIED.,.F.,.F.)
B_SPLINE_CURVE_WITH_KNOTS((2,2),(2.,4.),.UNSPECIFIED.)
CURVE()
GEOMETRIC_REPRESENTATION_ITEM()
RATIONAL_B_SPLINE_CURVE((1.,1.))
REPRESENTATION_ITEM('')
);
#486=(
BOUNDED_CURVE()
B_SPLINE_CURVE(1,(#1263,#1264),.UNSPECIFIED.,.F.,.F.)
B_SPLINE_CURVE_WITH_KNOTS((2,2),(2.,4.),.UNSPECIFIED.)
CURVE()
GEOMETRIC_REPRESENTATION_ITEM()
RATIONAL_B_SPLINE_CURVE((1.,1.))
REPRESENTATION_ITEM('')
);
#487=(
BOUNDED_CURVE()
B_SPLINE_CURVE(1,(#1268,#1269),.UNSPECIFIED.,.F.,.F.)
B_SPLINE_CURVE_WITH_KNOTS((2,2),(2.,4.),.UNSPECIFIED.)
CURVE()
GEOMETRIC_REPRESENTATION_ITEM()
RATIONAL_B_SPLINE_CURVE((1.,1.))
REPRESENTATION_ITEM('')
);
#488=(
BOUNDED_CURVE()
B_SPLINE_CURVE(1,(#1273,#1274),.UNSPECIFIED.,.F.,.F.)
B_SPLINE_CURVE_WITH_KNOTS((2,2),(2.,4.),.UNSPECIFIED.)
CURVE()
GEOMETRIC_REPRESENTATION_ITEM()
RATIONAL_B_SPLINE_CURVE((1.,1.))
REPRESENTATION_ITEM('')
);
#489=(
BOUNDED_CURVE()
B_SPLINE_CURVE(1,(#1278,#1279),.UNSPECIFIED.,.F.,.F.)
B_SPLINE_CURVE_WITH_KNOTS((2,2),(2.,4.),.UNSPECIFIED.)
CURVE()
GEOMETRIC_REPRESENTATION_ITEM()
RATIONAL_B_SPLINE_CURVE((1.,1.))
REPRESENTATION_ITEM('')
);
#490=(
BOUNDED_CURVE()
B_SPLINE_CURVE(1,(#1283,#1284),.UNSPECIFIED.,.F.,.F.)
B_SPLINE_CURVE_WITH_KNOTS((2,2),(2.,4.),.UNSPECIFIED.)
CURVE()
GEOMETRIC_REPRESENTATION_ITEM()
RATIONAL_B_SPLINE_CURVE((1.,1.))
REPRESENTATION_ITEM('')
);
#491=(
BOUNDED_CURVE()
B_SPLINE_CURVE(1,(#1285,#1286),.UNSPECIFIED.,.F.,.F.)
B_SPLINE_CURVE_WITH_KNOTS((2,2),(2.,4.),.UNSPECIFIED.)
CURVE()
GEOMETRIC_REPRESENTATION_ITEM()
RATIONAL_B_SPLINE_CURVE((1.,1.))
REPRESENTATION_ITEM('')
);
#492=(
BOUNDED_CURVE()
B_SPLINE_CURVE(1,(#1293,#1294),.UNSPECIFIED.,.F.,.F.)
B_SPLINE_CURVE_WITH_KNOTS((2,2),(2.,4.),.UNSPECIFIED.)
CURVE()
GEOMETRIC_REPRESENTATION_ITEM()
RATIONAL_B_SPLINE_CURVE((1.,1.))
REPRESENTATION_ITEM('')
);
#493=(
BOUNDED_CURVE()
B_SPLINE_CURVE(1,(#1301,#1302),.UNSPECIFIED.,.F.,.F.)
B_SPLINE_CURVE_WITH_KNOTS((2,2),(2.,4.),.UNSPECIFIED.)
CURVE()
GEOMETRIC_REPRESENTATION_ITEM()
RATIONAL_B_SPLINE_CURVE((1.,1.))
REPRESENTATION_ITEM('')
);
#494=(
BOUNDED_CURVE()
B_SPLINE_CURVE(1,(#1309,#1310),.UNSPECIFIED.,.F.,.F.)
B_SPLINE_CURVE_WITH_KNOTS((2,2),(2.,4.),.UNSPECIFIED.)
CURVE()
GEOMETRIC_REPRESENTATION_ITEM()
RATIONAL_B_SPLINE_CURVE((1.,1.))
REPRESENTATION_ITEM('')
);
#495=(
BOUNDED_CURVE()
B_SPLINE_CURVE(1,(#1317,#1318),.UNSPECIFIED.,.F.,.F.)
B_SPLINE_CURVE_WITH_KNOTS((2,2),(2.,4.),.UNSPECIFIED.)
CURVE()
GEOMETRIC_REPRESENTATION_ITEM()
RATIONAL_B_SPLINE_CURVE((1.,1.))
REPRESENTATION_ITEM('')
);
#496=(
BOUNDED_CURVE()
B_SPLINE_CURVE(1,(#1325,#1326),.UNSPECIFIED.,.F.,.F.)
B_SPLINE_CURVE_WITH_KNOTS((2,2),(2.,4.),.UNSPECIFIED.)
CURVE()
GEOMETRIC_REPRESENTATION_ITEM()
RATIONAL_B_SPLINE_CURVE((1.,1.))
REPRESENTATION_ITEM('')
);
#497=(
BOUNDED_CURVE()
B_SPLINE_CURVE(1,(#1333,#1334),.UNSPECIFIED.,.F.,.F.)
B_SPLINE_CURVE_WITH_KNOTS((2,2),(2.,4.),.UNSPECIFIED.)
CURVE()
GEOMETRIC_REPRESENTATION_ITEM()
RATIONAL_B_SPLINE_CURVE((1.,1.))
REPRESENTATION_ITEM('')
);
#498=(
BOUNDED_CURVE()
B_SPLINE_CURVE(1,(#1341,#1342),.UNSPECIFIED.,.F.,.F.)
B_SPLINE_CURVE_WITH_KNOTS((2,2),(2.,4.),.UNSPECIFIED.)
CURVE()
GEOMETRIC_REPRESENTATION_ITEM()
RATIONAL_B_SPLINE_CURVE((1.,1.))
REPRESENTATION_ITEM('')
);
#499=(
BOUNDED_CURVE()
B_SPLINE_CURVE(1,(#1386,#1387),.UNSPECIFIED.,.F.,.F.)
B_SPLINE_CURVE_WITH_KNOTS((2,2),(0.,10.),.UNSPECIFIED.)
CURVE()
GEOMETRIC_REPRESENTATION_ITEM()
RATIONAL_B_SPLINE_CURVE((1.,1.))
REPRESENTATION_ITEM('')
);
#500=(
BOUNDED_CURVE()
B_SPLINE_CURVE(1,(#1401,#1402),.UNSPECIFIED.,.F.,.F.)
B_SPLINE_CURVE_WITH_KNOTS((2,2),(4.99941753368514,14.9994175336851),
 .UNSPECIFIED.)
CURVE()
GEOMETRIC_REPRESENTATION_ITEM()
RATIONAL_B_SPLINE_CURVE((1.,1.))
REPRESENTATION_ITEM('')
);
#501=(
BOUNDED_CURVE()
B_SPLINE_CURVE(1,(#1403,#1404),.UNSPECIFIED.,.F.,.F.)
B_SPLINE_CURVE_WITH_KNOTS((2,2),(4.99941753368514,14.9994175336851),
 .UNSPECIFIED.)
CURVE()
GEOMETRIC_REPRESENTATION_ITEM()
RATIONAL_B_SPLINE_CURVE((1.,1.))
REPRESENTATION_ITEM('')
);
#502=TRIMMED_CURVE($,#546,(#1091),(#1092),.T.,.CARTESIAN.);
#503=TRIMMED_CURVE($,#547,(#1096),(#1097),.T.,.CARTESIAN.);
#504=TRIMMED_CURVE($,#548,(#1103),(#1104),.T.,.CARTESIAN.);
#505=TRIMMED_CURVE($,#549,(#1106),(#1107),.T.,.CARTESIAN.);
#506=TRIMMED_CURVE($,#550,(#1113),(#1114),.T.,.CARTESIAN.);
#507=TRIMMED_CURVE($,#551,(#1116),(#1117),.T.,.CARTESIAN.);
#508=TRIMMED_CURVE($,#552,(#1192),(#1193),.T.,.CARTESIAN.);
#509=TRIMMED_CURVE($,#553,(#1195),(#1196),.T.,.CARTESIAN.);
#510=TRIMMED_CURVE($,#554,(#1198),(#1199),.T.,.CARTESIAN.);
#511=TRIMMED_CURVE($,#555,(#1201),(#1202),.T.,.CARTESIAN.);
#512=TRIMMED_CURVE($,#556,(#1204),(#1205),.T.,.CARTESIAN.);
#513=TRIMMED_CURVE($,#557,(#1207),(#1208),.T.,.CARTESIAN.);
#514=TRIMMED_CURVE($,#558,(#1210),(#1211),.T.,.CARTESIAN.);
#515=TRIMMED_CURVE($,#559,(#1213),(#1214),.T.,.CARTESIAN.);
#516=TRIMMED_CURVE($,#560,(#1246),(#1247),.T.,.CARTESIAN.);
#517=TRIMMED_CURVE($,#561,(#1251),(#1252),.T.,.CARTESIAN.);
#518=TRIMMED_CURVE($,#562,(#1256),(#1257),.T.,.CARTESIAN.);
#519=TRIMMED_CURVE($,#563,(#1261),(#1262),.T.,.CARTESIAN.);
#520=TRIMMED_CURVE($,#564,(#1266),(#1267),.T.,.CARTESIAN.);
#521=TRIMMED_CURVE($,#565,(#1271),(#1272),.T.,.CARTESIAN.);
#522=TRIMMED_CURVE($,#566,(#1276),(#1277),.T.,.CARTESIAN.);
#523=TRIMMED_CURVE($,#567,(#1281),(#1282),.T.,.CARTESIAN.);
#524=TRIMMED_CURVE($,#568,(#1288),(#1289),.T.,.CARTESIAN.);
#525=TRIMMED_CURVE($,#569,(#1291),(#1292),.T.,.CARTESIAN.);
#526=TRIMMED_CURVE($,#570,(#1296),(#1297),.T.,.CARTESIAN.);
#527=TRIMMED_CURVE($,#571,(#1299),(#1300),.T.,.CARTESIAN.);
#528=TRIMMED_CURVE($,#572,(#1304),(#1305),.T.,.CARTESIAN.);
#529=TRIMMED_CURVE($,#573,(#1307),(#1308),.T.,.CARTESIAN.);
#530=TRIMMED_CURVE($,#574,(#1312),(#1313),.T.,.CARTESIAN.);
#531=TRIMMED_CURVE($,#575,(#1315),(#1316),.T.,.CARTESIAN.);
#532=TRIMMED_CURVE($,#576,(#1320),(#1321),.T.,.CARTESIAN.);
#533=TRIMMED_CURVE($,#577,(#1323),(#1324),.T.,.CARTESIAN.);
#534=TRIMMED_CURVE($,#578,(#1328),(#1329),.T.,.CARTESIAN.);
#535=TRIMMED_CURVE($,#579,(#1331),(#1332),.T.,.CARTESIAN.);
#536=TRIMMED_CURVE($,#580,(#1336),(#1337),.T.,.CARTESIAN.);
#537=TRIMMED_CURVE($,#581,(#1339),(#1340),.T.,.CARTESIAN.);
#538=TRIMMED_CURVE($,#582,(#1344),(#1345),.T.,.CARTESIAN.);
#539=TRIMMED_CURVE($,#583,(#1347),(#1348),.T.,.CARTESIAN.);
#540=TRIMMED_CURVE($,#584,(#1384),(#1385),.T.,.CARTESIAN.);
#541=TRIMMED_CURVE($,#585,(#1389),(#1390),.T.,.CARTESIAN.);
#542=TRIMMED_CURVE($,#586,(#1396),(#1397),.T.,.CARTESIAN.);
#543=TRIMMED_CURVE($,#587,(#1399),(#1400),.T.,.CARTESIAN.);
#544=TRIMMED_CURVE($,#588,(#1406),(#1407),.T.,.CARTESIAN.);
#545=TRIMMED_CURVE($,#589,(#1409),(#1410),.T.,.CARTESIAN.);
#546=CIRCLE('',#832,2.50008960205303);
#547=CIRCLE('',#833,2.50008960205303);
#548=CIRCLE('',#834,1.1);
#549=CIRCLE('',#835,1.1);
#550=CIRCLE('',#836,1.1);
#551=CIRCLE('',#837,1.1);
#552=CIRCLE('',#869,9.23076923076923);
#553=CIRCLE('',#870,9.23076923076922);
#554=CIRCLE('',#871,9.23076923076923);
#555=CIRCLE('',#872,9.23076923076923);
#556=CIRCLE('',#873,9.23076923076922);
#557=CIRCLE('',#874,9.23076923076923);
#558=CIRCLE('',#875,9.23076923076923);
#559=CIRCLE('',#876,9.23076923076923);
#560=CIRCLE('',#877,9.23076923076923);
#561=CIRCLE('',#878,9.23076923076923);
#562=CIRCLE('',#879,9.23076923076923);
#563=CIRCLE('',#880,9.23076923076922);
#564=CIRCLE('',#881,9.23076923076923);
#565=CIRCLE('',#882,9.23076923076923);
#566=CIRCLE('',#883,9.23076923076922);
#567=CIRCLE('',#884,9.23076923076923);
#568=CIRCLE('',#885,9.23076923076922);
#569=CIRCLE('',#886,9.23076923076922);
#570=CIRCLE('',#887,9.23076923076922);
#571=CIRCLE('',#888,9.23076923076922);
#572=CIRCLE('',#889,9.23076923076923);
#573=CIRCLE('',#890,9.23076923076923);
#574=CIRCLE('',#891,9.23076923076923);
#575=CIRCLE('',#892,9.23076923076923);
#576=CIRCLE('',#893,9.23076923076923);
#577=CIRCLE('',#894,9.23076923076923);
#578=CIRCLE('',#895,9.23076923076923);
#579=CIRCLE('',#896,9.23076923076923);
#580=CIRCLE('',#897,9.23076923076923);
#581=CIRCLE('',#898,9.23076923076923);
#582=CIRCLE('',#899,9.23076923076922);
#583=CIRCLE('',#900,9.23076923076922);
#584=CIRCLE('',#909,2.50008960205303);
#585=CIRCLE('',#910,2.50008960205303);
#586=CIRCLE('',#911,1.1);
#587=CIRCLE('',#912,1.09999999999999);
#588=CIRCLE('',#913,1.1);
#589=CIRCLE('',#914,1.1);
#590=B_SPLINE_CURVE_WITH_KNOTS('',1,(#1076,#1077),.UNSPECIFIED.,.F.,.F.,
(2,2),(-32.4393152316181,-29.9948050910221),.UNSPECIFIED.);
#591=B_SPLINE_CURVE_WITH_KNOTS('',1,(#1078,#1079),.UNSPECIFIED.,.F.,.F.,
(2,2),(0.,10.),.UNSPECIFIED.);
#592=B_SPLINE_CURVE_WITH_KNOTS('',1,(#1080,#1081),.UNSPECIFIED.,.F.,.F.,
(2,2),(-32.4393152316181,-29.9948050910221),.UNSPECIFIED.);
#593=B_SPLINE_CURVE_WITH_KNOTS('',1,(#1082,#1083),.UNSPECIFIED.,.F.,.F.,
(2,2),(0.,10.),.UNSPECIFIED.);
#594=B_SPLINE_CURVE_WITH_KNOTS('',1,(#1084,#1085),.UNSPECIFIED.,.F.,.F.,
(2,2),(-29.9948050910221,-27.5502949504261),.UNSPECIFIED.);
#595=B_SPLINE_CURVE_WITH_KNOTS('',1,(#1086,#1087),.UNSPECIFIED.,.F.,.F.,
(2,2),(0.,10.),.UNSPECIFIED.);
#596=B_SPLINE_CURVE_WITH_KNOTS('',1,(#1088,#1089),.UNSPECIFIED.,.F.,.F.,
(2,2),(-29.9948050910221,-27.5502949504261),.UNSPECIFIED.);
#597=B_SPLINE_CURVE_WITH_KNOTS('',1,(#1098,#1099),.UNSPECIFIED.,.F.,.F.,
(2,2),(-15.707963267949,-15.6466040364335),.UNSPECIFIED.);
#598=B_SPLINE_CURVE_WITH_KNOTS('',1,(#1100,#1101),.UNSPECIFIED.,.F.,.F.,
(2,2),(-15.707963267949,-15.6466040364335),.UNSPECIFIED.);
#599=B_SPLINE_CURVE_WITH_KNOTS('',1,(#1215,#1216),.UNSPECIFIED.,.F.,.F.,
(2,2),(546.,702.),.UNSPECIFIED.);
#600=B_SPLINE_CURVE_WITH_KNOTS('',1,(#1217,#1218),.UNSPECIFIED.,.F.,.F.,
(2,2),(0.,2.),.UNSPECIFIED.);
#601=B_SPLINE_CURVE_WITH_KNOTS('',1,(#1219,#1220),.UNSPECIFIED.,.F.,.F.,
(2,2),(546.,702.),.UNSPECIFIED.);
#602=B_SPLINE_CURVE_WITH_KNOTS('',1,(#1221,#1222),.UNSPECIFIED.,.F.,.F.,
(2,2),(0.,2.),.UNSPECIFIED.);
#603=B_SPLINE_CURVE_WITH_KNOTS('',1,(#1223,#1224),.UNSPECIFIED.,.F.,.F.,
(2,2),(702.,858.),.UNSPECIFIED.);
#604=B_SPLINE_CURVE_WITH_KNOTS('',1,(#1225,#1226),.UNSPECIFIED.,.F.,.F.,
(2,2),(0.,2.),.UNSPECIFIED.);
#605=B_SPLINE_CURVE_WITH_KNOTS('',1,(#1227,#1228),.UNSPECIFIED.,.F.,.F.,
(2,2),(702.,858.),.UNSPECIFIED.);
#606=B_SPLINE_CURVE_WITH_KNOTS('',1,(#1229,#1230),.UNSPECIFIED.,.F.,.F.,
(2,2),(858.,1170.),.UNSPECIFIED.);
#607=B_SPLINE_CURVE_WITH_KNOTS('',1,(#1231,#1232),.UNSPECIFIED.,.F.,.F.,
(2,2),(0.,2.),.UNSPECIFIED.);
#608=B_SPLINE_CURVE_WITH_KNOTS('',1,(#1233,#1234),.UNSPECIFIED.,.F.,.F.,
(2,2),(858.,1170.),.UNSPECIFIED.);
#609=B_SPLINE_CURVE_WITH_KNOTS('',1,(#1235,#1236),.UNSPECIFIED.,.F.,.F.,
(2,2),(1170.,1326.),.UNSPECIFIED.);
#610=B_SPLINE_CURVE_WITH_KNOTS('',1,(#1237,#1238),.UNSPECIFIED.,.F.,.F.,
(2,2),(0.,2.),.UNSPECIFIED.);
#611=B_SPLINE_CURVE_WITH_KNOTS('',1,(#1239,#1240),.UNSPECIFIED.,.F.,.F.,
(2,2),(1170.,1326.),.UNSPECIFIED.);
#612=B_SPLINE_CURVE_WITH_KNOTS('',1,(#1241,#1242),.UNSPECIFIED.,.F.,.F.,
(2,2),(1326.,1482.),.UNSPECIFIED.);
#613=B_SPLINE_CURVE_WITH_KNOTS('',1,(#1243,#1244),.UNSPECIFIED.,.F.,.F.,
(2,2),(1326.,1482.),.UNSPECIFIED.);
#614=B_SPLINE_CURVE_WITH_KNOTS('',1,(#1369,#1370),.UNSPECIFIED.,.F.,.F.,
(2,2),(-32.4393152316181,-29.9948050910221),.UNSPECIFIED.);
#615=B_SPLINE_CURVE_WITH_KNOTS('',1,(#1371,#1372),.UNSPECIFIED.,.F.,.F.,
(2,2),(0.,10.),.UNSPECIFIED.);
#616=B_SPLINE_CURVE_WITH_KNOTS('',1,(#1373,#1374),.UNSPECIFIED.,.F.,.F.,
(2,2),(-32.4393152316181,-29.9948050910221),.UNSPECIFIED.);
#617=B_SPLINE_CURVE_WITH_KNOTS('',1,(#1375,#1376),.UNSPECIFIED.,.F.,.F.,
(2,2),(0.,10.),.UNSPECIFIED.);
#618=B_SPLINE_CURVE_WITH_KNOTS('',1,(#1377,#1378),.UNSPECIFIED.,.F.,.F.,
(2,2),(-29.9948050910221,-27.5502949504261),.UNSPECIFIED.);
#619=B_SPLINE_CURVE_WITH_KNOTS('',1,(#1379,#1380),.UNSPECIFIED.,.F.,.F.,
(2,2),(0.,10.),.UNSPECIFIED.);
#620=B_SPLINE_CURVE_WITH_KNOTS('',1,(#1381,#1382),.UNSPECIFIED.,.F.,.F.,
(2,2),(-29.9948050910221,-27.5502949504261),.UNSPECIFIED.);
#621=B_SPLINE_CURVE_WITH_KNOTS('',1,(#1391,#1392),.UNSPECIFIED.,.F.,.F.,
(2,2),(-15.707963267949,-15.6466040364335),.UNSPECIFIED.);
#622=B_SPLINE_CURVE_WITH_KNOTS('',1,(#1393,#1394),.UNSPECIFIED.,.F.,.F.,
(2,2),(-15.707963267949,-15.6466040364335),.UNSPECIFIED.);
#623=VERTEX_POINT('',#1064);
#624=VERTEX_POINT('',#1065);
#625=VERTEX_POINT('',#1066);
#626=VERTEX_POINT('',#1067);
#627=VERTEX_POINT('',#1068);
#628=VERTEX_POINT('',#1069);
#629=VERTEX_POINT('',#1070);
#630=VERTEX_POINT('',#1071);
#631=VERTEX_POINT('',#1072);
#632=VERTEX_POINT('',#1073);
#633=VERTEX_POINT('',#1074);
#634=VERTEX_POINT('',#1075);
#635=VERTEX_POINT('',#1149);
#636=VERTEX_POINT('',#1150);
#637=VERTEX_POINT('',#1151);
#638=VERTEX_POINT('',#1152);
#639=VERTEX_POINT('',#1153);
#640=VERTEX_POINT('',#1154);
#641=VERTEX_POINT('',#1155);
#642=VERTEX_POINT('',#1156);
#643=VERTEX_POINT('',#1157);
#644=VERTEX_POINT('',#1158);
#645=VERTEX_POINT('',#1159);
#646=VERTEX_POINT('',#1160);
#647=VERTEX_POINT('',#1161);
#648=VERTEX_POINT('',#1162);
#649=VERTEX_POINT('',#1163);
#650=VERTEX_POINT('',#1164);
#651=VERTEX_POINT('',#1165);
#652=VERTEX_POINT('',#1166);
#653=VERTEX_POINT('',#1167);
#654=VERTEX_POINT('',#1168);
#655=VERTEX_POINT('',#1169);
#656=VERTEX_POINT('',#1170);
#657=VERTEX_POINT('',#1171);
#658=VERTEX_POINT('',#1172);
#659=VERTEX_POINT('',#1173);
#660=VERTEX_POINT('',#1174);
#661=VERTEX_POINT('',#1175);
#662=VERTEX_POINT('',#1176);
#663=VERTEX_POINT('',#1177);
#664=VERTEX_POINT('',#1178);
#665=VERTEX_POINT('',#1179);
#666=VERTEX_POINT('',#1180);
#667=VERTEX_POINT('',#1181);
#668=VERTEX_POINT('',#1182);
#669=VERTEX_POINT('',#1183);
#670=VERTEX_POINT('',#1184);
#671=VERTEX_POINT('',#1185);
#672=VERTEX_POINT('',#1186);
#673=VERTEX_POINT('',#1187);
#674=VERTEX_POINT('',#1188);
#675=VERTEX_POINT('',#1189);
#676=VERTEX_POINT('',#1190);
#677=VERTEX_POINT('',#1357);
#678=VERTEX_POINT('',#1358);
#679=VERTEX_POINT('',#1359);
#680=VERTEX_POINT('',#1360);
#681=VERTEX_POINT('',#1361);
#682=VERTEX_POINT('',#1362);
#683=VERTEX_POINT('',#1363);
#684=VERTEX_POINT('',#1364);
#685=VERTEX_POINT('',#1365);
#686=VERTEX_POINT('',#1366);
#687=VERTEX_POINT('',#1367);
#688=VERTEX_POINT('',#1368);
#689=CYLINDRICAL_SURFACE('',#826,2.50008960205303);
#690=CYLINDRICAL_SURFACE('',#830,1.1);
#691=CYLINDRICAL_SURFACE('',#831,1.1);
#692=CYLINDRICAL_SURFACE('',#838,9.23076923076923);
#693=CYLINDRICAL_SURFACE('',#840,9.23076923076922);
#694=CYLINDRICAL_SURFACE('',#842,9.23076923076923);
#695=CYLINDRICAL_SURFACE('',#844,9.23076923076923);
#696=CYLINDRICAL_SURFACE('',#846,9.23076923076922);
#697=CYLINDRICAL_SURFACE('',#848,9.23076923076923);
#698=CYLINDRICAL_SURFACE('',#850,9.23076923076923);
#699=CYLINDRICAL_SURFACE('',#852,9.23076923076923);
#700=CYLINDRICAL_SURFACE('',#861,9.23076923076922);
#701=CYLINDRICAL_SURFACE('',#862,9.23076923076922);
#702=CYLINDRICAL_SURFACE('',#863,9.23076923076923);
#703=CYLINDRICAL_SURFACE('',#864,9.23076923076923);
#704=CYLINDRICAL_SURFACE('',#865,9.23076923076923);
#705=CYLINDRICAL_SURFACE('',#866,9.23076923076923);
#706=CYLINDRICAL_SURFACE('',#867,9.23076923076923);
#707=CYLINDRICAL_SURFACE('',#868,9.23076923076922);
#708=CYLINDRICAL_SURFACE('',#903,2.50008960205303);
#709=CYLINDRICAL_SURFACE('',#907,1.1);
#710=CYLINDRICAL_SURFACE('',#908,1.1);
#711=PLANE('',#824);
#712=PLANE('',#825);
#713=PLANE('',#827);
#714=PLANE('',#828);
#715=PLANE('',#829);
#716=PLANE('',#839);
#717=PLANE('',#841);
#718=PLANE('',#843);
#719=PLANE('',#845);
#720=PLANE('',#847);
#721=PLANE('',#849);
#722=PLANE('',#851);
#723=PLANE('',#853);
#724=PLANE('',#854);
#725=PLANE('',#855);
#726=PLANE('',#856);
#727=PLANE('',#857);
#728=PLANE('',#858);
#729=PLANE('',#859);
#730=PLANE('',#860);
#731=PLANE('',#901);
#732=PLANE('',#902);
#733=PLANE('',#904);
#734=PLANE('',#905);
#735=PLANE('',#906);
#736=SHAPE_DEFINITION_REPRESENTATION(#737,#822);
#737=PRODUCT_DEFINITION_SHAPE($,$,#739);
#738=PRODUCT_DEFINITION_CONTEXT('3D Mechanical Parts',#811,'design');
#739=PRODUCT_DEFINITION('A','First version',#781,#738);
#740=DATE_TIME_ROLE('classification_date');
#741=DATE_TIME_ROLE('creation_date');
#742=APPLIED_DATE_AND_TIME_ASSIGNMENT(#766,#740,(#745));
#743=APPLIED_DATE_AND_TIME_ASSIGNMENT(#768,#741,(#739));
#744=SECURITY_CLASSIFICATION_LEVEL('unclassified');
#745=SECURITY_CLASSIFICATION('A','Security for version',#744);
#746=APPLIED_SECURITY_CLASSIFICATION_ASSIGNMENT(#745,(#781));
#747=APPROVAL_ROLE('Version approval');
#748=APPROVAL_ROLE('Version Security approval');
#749=APPROVAL_ROLE('Definition approval');
#750=APPROVAL_PERSON_ORGANIZATION(#799,#775,#747);
#751=APPROVAL_PERSON_ORGANIZATION(#800,#776,#748);
#752=APPROVAL_PERSON_ORGANIZATION(#803,#777,#749);
#753=COORDINATED_UNIVERSAL_TIME_OFFSET(5,0,.BEHIND.);
#754=LOCAL_TIME(0,0,0.,#753);
#755=LOCAL_TIME(0,0,0.,#753);
#756=LOCAL_TIME(0,0,0.,#753);
#757=LOCAL_TIME(0,0,0.,#753);
#758=LOCAL_TIME(0,0,0.,#753);
#759=CALENDAR_DATE(1999,1,1);
#760=CALENDAR_DATE(1999,1,1);
#761=CALENDAR_DATE(1999,1,1);
#762=CALENDAR_DATE(1999,1,1);
#763=CALENDAR_DATE(1999,1,1);
#764=DATE_AND_TIME(#759,#754);
#765=DATE_AND_TIME(#760,#755);
#766=DATE_AND_TIME(#761,#756);
#767=DATE_AND_TIME(#762,#757);
#768=DATE_AND_TIME(#763,#758);
#769=APPROVAL_DATE_TIME(#764,#775);
#770=APPROVAL_DATE_TIME(#765,#776);
#771=APPROVAL_DATE_TIME(#767,#777);
#772=APPROVAL_STATUS('not_yet_approved');
#773=APPROVAL_STATUS('not_yet_approved');
#774=APPROVAL_STATUS('approved');
#775=APPROVAL(#772,'Version approval');
#776=APPROVAL(#773,'Version Security approval');
#777=APPROVAL(#774,'Definition approval');
#778=APPLIED_APPROVAL_ASSIGNMENT(#775,(#781));
#779=APPLIED_APPROVAL_ASSIGNMENT(#776,(#745));
#780=APPLIED_APPROVAL_ASSIGNMENT(#777,(#739));
#781=PRODUCT_DEFINITION_FORMATION_WITH_SPECIFIED_SOURCE('A',
'First version',#813,.MADE.);
#782=PERSON_AND_ORGANIZATION_ROLE('design_owner');
#783=PERSON_AND_ORGANIZATION_ROLE('creator');
#784=PERSON_AND_ORGANIZATION_ROLE('design_supplier');
#785=PERSON_AND_ORGANIZATION_ROLE('classification_officer');
#786=PERSON_AND_ORGANIZATION_ROLE('creator');
#787=ORGANIZATION('STI','lab','lab');
#788=ORGANIZATION('STI','unknown','unknown');
#789=ORGANIZATION('STI','unknown','unknown');
#790=ORGANIZATION('STI','unknown','unknown');
#791=ORGANIZATION('STI','unknown','unknown');
#792=ORGANIZATION('STI','unknown','unknown');
#793=ORGANIZATION('STI','unknown','unknown');
#794=PERSON('1','Box','vc60',$,$,$);
#795=PERSON('2','last','first',$,$,$);
#796=PERSON('3','President','Mr.',$,$,$);
#797=PERSON_AND_ORGANIZATION(#794,#787);
#798=PERSON_AND_ORGANIZATION(#795,#788);
#799=PERSON_AND_ORGANIZATION(#796,#789);
#800=PERSON_AND_ORGANIZATION(#796,#790);
#801=PERSON_AND_ORGANIZATION(#796,#791);
#802=PERSON_AND_ORGANIZATION(#795,#792);
#803=PERSON_AND_ORGANIZATION(#796,#793);
#804=APPLIED_PERSON_AND_ORGANIZATION_ASSIGNMENT(#797,#782,(#813));
#805=APPLIED_PERSON_AND_ORGANIZATION_ASSIGNMENT(#798,#783,(#781));
#806=APPLIED_PERSON_AND_ORGANIZATION_ASSIGNMENT(#798,#784,(#781));
#807=APPLIED_PERSON_AND_ORGANIZATION_ASSIGNMENT(#801,#785,(#745));
#808=APPLIED_PERSON_AND_ORGANIZATION_ASSIGNMENT(#802,#786,(#739));
#809=PRODUCT_RELATED_PRODUCT_CATEGORY('detail','detail',(#813));
#810=APPLICATION_PROTOCOL_DEFINITION('International Standard',
'config_control_design',1994,#811);
#811=APPLICATION_CONTEXT(
'configuration controlled 3d designs of mechanical parts and assemblie
s');
#812=PRODUCT_CONTEXT('3D Mechanical Parts',#811,'mechanical');
#813=PRODUCT('Document','Document','',(#812));
#814=(
LENGTH_UNIT()
NAMED_UNIT(*)
SI_UNIT(.MILLI.,.METRE.)
);
#815=(
NAMED_UNIT(*)
PLANE_ANGLE_UNIT()
SI_UNIT($,.RADIAN.)
);
#816=DIMENSIONAL_EXPONENTS(0.,0.,0.,0.,0.,0.,0.);
#817=PLANE_ANGLE_MEASURE_WITH_UNIT(PLANE_ANGLE_MEASURE(0.01745329252),#815);
#818=(
CONVERSION_BASED_UNIT('DEGREES',#817)
NAMED_UNIT(#816)
PLANE_ANGLE_UNIT()
);
#819=(
NAMED_UNIT(*)
SI_UNIT($,.STERADIAN.)
SOLID_ANGLE_UNIT()
);
#820=UNCERTAINTY_MEASURE_WITH_UNIT(LENGTH_MEASURE(0.001),#814,
'DISTANCE_ACCURACY_VALUE',
'Maximum model space distance between geometric entities at asserted c
onnectivities');
#821=(
GEOMETRIC_REPRESENTATION_CONTEXT(3)
GLOBAL_UNCERTAINTY_ASSIGNED_CONTEXT((#820))
GLOBAL_UNIT_ASSIGNED_CONTEXT((#819,#818,#814))
REPRESENTATION_CONTEXT('ID1','3D')
);
#822=SHAPE_REPRESENTATION('Document',(#823,#915),#821);
#823=AXIS2_PLACEMENT_3D($,#1055,#916,#917);
#824=AXIS2_PLACEMENT_3D('',#1056,#918,$);
#825=AXIS2_PLACEMENT_3D('',#1057,#919,$);
#826=AXIS2_PLACEMENT_3D('',#1058,#920,$);
#827=AXIS2_PLACEMENT_3D('',#1059,#921,$);
#828=AXIS2_PLACEMENT_3D('',#1060,#922,$);
#829=AXIS2_PLACEMENT_3D('',#1061,#923,$);
#830=AXIS2_PLACEMENT_3D('',#1062,#924,$);
#831=AXIS2_PLACEMENT_3D('',#1063,#925,$);
#832=AXIS2_PLACEMENT_3D($,#1090,#926,#927);
#833=AXIS2_PLACEMENT_3D($,#1095,#928,#929);
#834=AXIS2_PLACEMENT_3D($,#1102,#930,#931);
#835=AXIS2_PLACEMENT_3D($,#1105,#932,#933);
#836=AXIS2_PLACEMENT_3D($,#1112,#934,#935);
#837=AXIS2_PLACEMENT_3D($,#1115,#936,#937);
#838=AXIS2_PLACEMENT_3D('',#1118,#938,$);
#839=AXIS2_PLACEMENT_3D('',#1119,#939,$);
#840=AXIS2_PLACEMENT_3D('',#1120,#940,$);
#841=AXIS2_PLACEMENT_3D('',#1121,#941,$);
#842=AXIS2_PLACEMENT_3D('',#1122,#942,$);
#843=AXIS2_PLACEMENT_3D('',#1123,#943,$);
#844=AXIS2_PLACEMENT_3D('',#1124,#944,$);
#845=AXIS2_PLACEMENT_3D('',#1125,#945,$);
#846=AXIS2_PLACEMENT_3D('',#1126,#946,$);
#847=AXIS2_PLACEMENT_3D('',#1127,#947,$);
#848=AXIS2_PLACEMENT_3D('',#1128,#948,$);
#849=AXIS2_PLACEMENT_3D('',#1129,#949,$);
#850=AXIS2_PLACEMENT_3D('',#1130,#950,$);
#851=AXIS2_PLACEMENT_3D('',#1131,#951,$);
#852=AXIS2_PLACEMENT_3D('',#1132,#952,$);
#853=AXIS2_PLACEMENT_3D('',#1133,#953,$);
#854=AXIS2_PLACEMENT_3D('',#1134,#954,$);
#855=AXIS2_PLACEMENT_3D('',#1135,#955,$);
#856=AXIS2_PLACEMENT_3D('',#1136,#956,$);
#857=AXIS2_PLACEMENT_3D('',#1137,#957,$);
#858=AXIS2_PLACEMENT_3D('',#1138,#958,$);
#859=AXIS2_PLACEMENT_3D('',#1139,#959,$);
#860=AXIS2_PLACEMENT_3D('',#1140,#960,$);
#861=AXIS2_PLACEMENT_3D('',#1141,#961,$);
#862=AXIS2_PLACEMENT_3D('',#1142,#962,$);
#863=AXIS2_PLACEMENT_3D('',#1143,#963,$);
#864=AXIS2_PLACEMENT_3D('',#1144,#964,$);
#865=AXIS2_PLACEMENT_3D('',#1145,#965,$);
#866=AXIS2_PLACEMENT_3D('',#1146,#966,$);
#867=AXIS2_PLACEMENT_3D('',#1147,#967,$);
#868=AXIS2_PLACEMENT_3D('',#1148,#968,$);
#869=AXIS2_PLACEMENT_3D($,#1191,#969,#970);
#870=AXIS2_PLACEMENT_3D($,#1194,#971,#972);
#871=AXIS2_PLACEMENT_3D($,#1197,#973,#974);
#872=AXIS2_PLACEMENT_3D($,#1200,#975,#976);
#873=AXIS2_PLACEMENT_3D($,#1203,#977,#978);
#874=AXIS2_PLACEMENT_3D($,#1206,#979,#980);
#875=AXIS2_PLACEMENT_3D($,#1209,#981,#982);
#876=AXIS2_PLACEMENT_3D($,#1212,#983,#984);
#877=AXIS2_PLACEMENT_3D($,#1245,#985,#986);
#878=AXIS2_PLACEMENT_3D($,#1250,#987,#988);
#879=AXIS2_PLACEMENT_3D($,#1255,#989,#990);
#880=AXIS2_PLACEMENT_3D($,#1260,#991,#992);
#881=AXIS2_PLACEMENT_3D($,#1265,#993,#994);
#882=AXIS2_PLACEMENT_3D($,#1270,#995,#996);
#883=AXIS2_PLACEMENT_3D($,#1275,#997,#998);
#884=AXIS2_PLACEMENT_3D($,#1280,#999,#1000);
#885=AXIS2_PLACEMENT_3D($,#1287,#1001,#1002);
#886=AXIS2_PLACEMENT_3D($,#1290,#1003,#1004);
#887=AXIS2_PLACEMENT_3D($,#1295,#1005,#1006);
#888=AXIS2_PLACEMENT_3D($,#1298,#1007,#1008);
#889=AXIS2_PLACEMENT_3D($,#1303,#1009,#1010);
#890=AXIS2_PLACEMENT_3D($,#1306,#1011,#1012);
#891=AXIS2_PLACEMENT_3D($,#1311,#1013,#1014);
#892=AXIS2_PLACEMENT_3D($,#1314,#1015,#1016);
#893=AXIS2_PLACEMENT_3D($,#1319,#1017,#1018);
#894=AXIS2_PLACEMENT_3D($,#1322,#1019,#1020);
#895=AXIS2_PLACEMENT_3D($,#1327,#1021,#1022);
#896=AXIS2_PLACEMENT_3D($,#1330,#1023,#1024);
#897=AXIS2_PLACEMENT_3D($,#1335,#1025,#1026);
#898=AXIS2_PLACEMENT_3D($,#1338,#1027,#1028);
#899=AXIS2_PLACEMENT_3D($,#1343,#1029,#1030);
#900=AXIS2_PLACEMENT_3D($,#1346,#1031,#1032);
#901=AXIS2_PLACEMENT_3D('',#1349,#1033,$);
#902=AXIS2_PLACEMENT_3D('',#1350,#1034,$);
#903=AXIS2_PLACEMENT_3D('',#1351,#1035,$);
#904=AXIS2_PLACEMENT_3D('',#1352,#1036,$);
#905=AXIS2_PLACEMENT_3D('',#1353,#1037,$);
#906=AXIS2_PLACEMENT_3D('',#1354,#1038,$);
#907=AXIS2_PLACEMENT_3D('',#1355,#1039,$);
#908=AXIS2_PLACEMENT_3D('',#1356,#1040,$);
#909=AXIS2_PLACEMENT_3D($,#1383,#1041,#1042);
#910=AXIS2_PLACEMENT_3D($,#1388,#1043,#1044);
#911=AXIS2_PLACEMENT_3D($,#1395,#1045,#1046);
#912=AXIS2_PLACEMENT_3D($,#1398,#1047,#1048);
#913=AXIS2_PLACEMENT_3D($,#1405,#1049,#1050);
#914=AXIS2_PLACEMENT_3D($,#1408,#1051,#1052);
#915=AXIS2_PLACEMENT_3D($,#1411,#1053,#1054);
#916=DIRECTION('',(0.,0.,1.));
#917=DIRECTION('',(1.,0.,0.));
#918=DIRECTION('',(0.999999992064984,-1.44238558817315E-20,0.00012597631544258));
#919=DIRECTION('',(-0.000125976315455123,-1.57676721674977E-16,-0.999999992064984));
#920=DIRECTION('',(-1.18488428116189E-15,1.,1.15872738851046E-15));
#921=DIRECTION('',(0.999984600939652,4.02126349165315E-19,-0.00554958408939633));
#922=DIRECTION('',(0.,-1.,0.));
#923=DIRECTION('',(0.,1.,0.));
#924=DIRECTION('',(0.,1.,0.));
#925=DIRECTION('',(0.,1.,0.));
#926=DIRECTION('',(0.,1.,0.));
#927=DIRECTION('',(0.0222309839230785,0.,-0.999752861138097));
#928=DIRECTION('',(-1.18488428116189E-15,1.,1.15872738851046E-15));
#929=DIRECTION('',(0.0222309839230785,2.8420690809506E-15,-0.999752861138097));
#930=DIRECTION('',(0.,-1.,0.));
#931=DIRECTION('',(1.,0.,6.4594794160009E-15));
#932=DIRECTION('',(6.45947941600091E-15,-1.,0.));
#933=DIRECTION('',(1.,6.4594794160009E-15,6.4594794160009E-15));
#934=DIRECTION('',(0.,-1.,0.));
#935=DIRECTION('',(-1.,0.,0.));
#936=DIRECTION('',(3.22973970800045E-15,-1.,-3.22973970800045E-15));
#937=DIRECTION('',(-1.,0.,0.));
#938=DIRECTION('',(0.,0.,1.));
#939=DIRECTION('',(0.,0.,1.));
#940=DIRECTION('',(0.,0.,1.));
#941=DIRECTION('',(0.,0.,1.));
#942=DIRECTION('',(0.,0.,1.));
#943=DIRECTION('',(0.,0.,1.));
#944=DIRECTION('',(0.,0.,1.));
#945=DIRECTION('',(0.,0.,1.));
#946=DIRECTION('',(0.,0.,1.));
#947=DIRECTION('',(0.,0.,1.));
#948=DIRECTION('',(0.,0.,1.));
#949=DIRECTION('',(0.,0.,1.));
#950=DIRECTION('',(0.,0.,1.));
#951=DIRECTION('',(0.,0.,1.));
#952=DIRECTION('',(0.,0.,1.));
#953=DIRECTION('',(0.,0.,1.));
#954=DIRECTION('',(1.,0.,0.));
#955=DIRECTION('',(0.,1.,0.));
#956=DIRECTION('',(-1.,0.,0.));
#957=DIRECTION('',(0.,-1.,0.));
#958=DIRECTION('',(1.,0.,0.));
#959=DIRECTION('',(0.,0.,-1.));
#960=DIRECTION('',(0.,0.,1.));
#961=DIRECTION('',(0.,0.,1.));
#962=DIRECTION('',(0.,0.,1.));
#963=DIRECTION('',(0.,0.,1.));
#964=DIRECTION('',(0.,0.,1.));
#965=DIRECTION('',(0.,0.,1.));
#966=DIRECTION('',(0.,0.,1.));
#967=DIRECTION('',(0.,0.,1.));
#968=DIRECTION('',(0.,0.,1.));
#969=DIRECTION('',(0.,0.,1.));
#970=DIRECTION('',(1.,0.,0.));
#971=DIRECTION('',(0.,0.,1.));
#972=DIRECTION('',(1.,-6.15803704325421E-15,0.));
#973=DIRECTION('',(0.,0.,1.));
#974=DIRECTION('',(1.,0.,0.));
#975=DIRECTION('',(0.,0.,1.));
#976=DIRECTION('',(1.,-4.61852778244065E-15,0.));
#977=DIRECTION('',(0.,0.,1.));
#978=DIRECTION('',(1.,-3.84877315203388E-16,0.));
#979=DIRECTION('',(0.,0.,1.));
#980=DIRECTION('',(1.,0.,0.));
#981=DIRECTION('',(0.,0.,1.));
#982=DIRECTION('',(1.,0.,0.));
#983=DIRECTION('',(0.,0.,1.));
#984=DIRECTION('',(1.,0.,0.));
#985=DIRECTION('',(0.,0.,1.));
#986=DIRECTION('',(1.,0.,0.));
#987=DIRECTION('',(0.,0.,1.));
#988=DIRECTION('',(1.,0.,0.));
#989=DIRECTION('',(0.,0.,1.));
#990=DIRECTION('',(1.,0.,0.));
#991=DIRECTION('',(0.,0.,1.));
#992=DIRECTION('',(1.,-3.84877315203388E-16,0.));
#993=DIRECTION('',(0.,0.,1.));
#994=DIRECTION('',(1.,-4.61852778244065E-15,0.));
#995=DIRECTION('',(0.,0.,1.));
#996=DIRECTION('',(1.,0.,0.));
#997=DIRECTION('',(0.,0.,1.));
#998=DIRECTION('',(1.,-6.15803704325421E-15,0.));
#999=DIRECTION('',(0.,0.,1.));
#1000=DIRECTION('',(1.,0.,0.));
#1001=DIRECTION('',(0.,0.,1.));
#1002=DIRECTION('',(-1.,0.,0.));
#1003=DIRECTION('',(0.,0.,1.));
#1004=DIRECTION('',(-1.,0.,0.));
#1005=DIRECTION('',(0.,0.,1.));
#1006=DIRECTION('',(-1.,7.69754630406776E-15,0.));
#1007=DIRECTION('',(0.,0.,1.));
#1008=DIRECTION('',(-1.,7.69754630406776E-15,0.));
#1009=DIRECTION('',(0.,0.,1.));
#1010=DIRECTION('',(-1.,0.,0.));
#1011=DIRECTION('',(0.,0.,1.));
#1012=DIRECTION('',(-1.,0.,0.));
#1013=DIRECTION('',(0.,0.,1.));
#1014=DIRECTION('',(-1.,6.1580370432542E-15,0.));
#1015=DIRECTION('',(0.,0.,1.));
#1016=DIRECTION('',(-1.,6.1580370432542E-15,0.));
#1017=DIRECTION('',(0.,0.,1.));
#1018=DIRECTION('',(-1.,-3.84877315203388E-16,0.));
#1019=DIRECTION('',(0.,0.,1.));
#1020=DIRECTION('',(-1.,-3.84877315203388E-16,0.));
#1021=DIRECTION('',(0.,0.,1.));
#1022=DIRECTION('',(-1.,0.,0.));
#1023=DIRECTION('',(0.,0.,1.));
#1024=DIRECTION('',(-1.,0.,0.));
#1025=DIRECTION('',(0.,0.,1.));
#1026=DIRECTION('',(-1.,0.,0.));
#1027=DIRECTION('',(0.,0.,1.));
#1028=DIRECTION('',(-1.,0.,0.));
#1029=DIRECTION('',(0.,0.,1.));
#1030=DIRECTION('',(-1.,7.69754630406776E-16,0.));
#1031=DIRECTION('',(0.,0.,1.));
#1032=DIRECTION('',(-1.,7.69754630406776E-16,0.));
#1033=DIRECTION('',(0.999999992064984,-1.44238558817315E-20,0.00012597631544258));
#1034=DIRECTION('',(-0.000125976315455123,-1.57676721674977E-16,-0.999999992064984));
#1035=DIRECTION('',(0.,1.,0.));
#1036=DIRECTION('',(0.999984600939652,4.02126349165315E-19,-0.00554958408939633));
#1037=DIRECTION('',(0.,-1.,0.));
#1038=DIRECTION('',(0.,1.,0.));
#1039=DIRECTION('',(0.,1.,0.));
#1040=DIRECTION('',(0.,1.,0.));
#1041=DIRECTION('',(-2.36976856232378E-15,1.,2.31745477702093E-15));
#1042=DIRECTION('',(0.0222309839230785,5.6841381619012E-15,-0.999752861138097));
#1043=DIRECTION('',(0.,1.,0.));
#1044=DIRECTION('',(0.0222309839230785,0.,-0.999752861138097));
#1045=DIRECTION('',(0.,-1.,0.));
#1046=DIRECTION('',(1.,0.,6.4594794160009E-15));
#1047=DIRECTION('',(1.29189588320017E-14,-1.,1.29189588320017E-14));
#1048=DIRECTION('',(1.,1.29189588320019E-14,0.));
#1049=DIRECTION('',(0.,-1.,0.));
#1050=DIRECTION('',(-1.,0.,0.));
#1051=DIRECTION('',(0.,-1.,0.));
#1052=DIRECTION('',(-1.,0.,0.));
#1053=DIRECTION('',(0.,0.,1.));
#1054=DIRECTION('',(1.,0.,0.));
#1055=CARTESIAN_POINT('',(0.,0.,0.));
#1056=CARTESIAN_POINT('',(-6.44151856761255E-5,31.6508704172289,58.144576520189));
#1057=CARTESIAN_POINT('',(0.000243535197341771,31.6508704172289,55.700066379593));
#1058=CARTESIAN_POINT('',(-2.49984605714814,36.6508704172288,58.1998460627302));
#1059=CARTESIAN_POINT('',(0.000243535197341771,31.6508704172289,58.200066379593));
#1060=CARTESIAN_POINT('',(0.625265934497181,31.6508704172289,55.0747340601639));
#1061=CARTESIAN_POINT('',(0.625265934497181,41.6508704172289,55.0747340601639));
#1062=CARTESIAN_POINT('',(-2.50017293686067,36.6514528835437,58.1997229876628));
#1063=CARTESIAN_POINT('',(-2.50017293686067,36.6514528835437,58.1997229876628));
#1064=CARTESIAN_POINT('',(-6.44151856761255E-5,31.6508704172289,58.144576520189));
#1065=CARTESIAN_POINT('',(0.000243535197341771,31.6508704172289,55.700066379593));
#1066=CARTESIAN_POINT('',(0.000243535197341771,41.6508704172289,55.700066379593));
#1067=CARTESIAN_POINT('',(-6.44151856761255E-5,41.6508704172289,58.144576520189));
#1068=CARTESIAN_POINT('',(-2.44426660539864,31.6508704172289,55.7003743299761));
#1069=CARTESIAN_POINT('',(-2.44426660539864,41.6508704172289,55.7003743299761));
#1070=CARTESIAN_POINT('',(0.000243535197341771,31.6508704172289,58.200066379593));
#1071=CARTESIAN_POINT('',(0.000243535197341771,41.6508704172289,58.200066379593));
#1072=CARTESIAN_POINT('',(-1.40017293686067,31.6508704172289,58.1997229876628));
#1073=CARTESIAN_POINT('',(-1.40017293686067,41.6508704172289,58.1997229876628));
#1074=CARTESIAN_POINT('',(-3.60017293686067,31.6508704172289,58.1997229876628));
#1075=CARTESIAN_POINT('',(-3.60017293686067,41.6508704172289,58.1997229876628));
#1076=CARTESIAN_POINT('',(-6.44151856761255E-5,31.6508704172289,58.144576520189));
#1077=CARTESIAN_POINT('',(0.000243535197341771,31.6508704172289,55.700066379593));
#1078=CARTESIAN_POINT('',(0.000243535197341771,31.6508704172289,55.700066379593));
#1079=CARTESIAN_POINT('',(0.000243535197341771,41.6508704172289,55.700066379593));
#1080=CARTESIAN_POINT('',(-6.44151856761255E-5,41.6508704172289,58.144576520189));
#1081=CARTESIAN_POINT('',(0.000243535197341771,41.6508704172289,55.700066379593));
#1082=CARTESIAN_POINT('',(-6.44151856761255E-5,31.6508704172289,58.144576520189));
#1083=CARTESIAN_POINT('',(-6.44151856761255E-5,41.6508704172289,58.144576520189));
#1084=CARTESIAN_POINT('',(0.000243535197341771,31.6508704172289,55.700066379593));
#1085=CARTESIAN_POINT('',(-2.44426660539864,31.6508704172289,55.7003743299761));
#1086=CARTESIAN_POINT('',(-2.44426660539864,31.6508704172289,55.7003743299761));
#1087=CARTESIAN_POINT('',(-2.44426660539864,41.6508704172289,55.7003743299761));
#1088=CARTESIAN_POINT('',(0.000243535197341771,41.6508704172289,55.700066379593));
#1089=CARTESIAN_POINT('',(-2.44426660539864,41.6508704172289,55.7003743299761));
#1090=CARTESIAN_POINT('',(-2.49984605714814,31.6508704172289,58.1998460627302));
#1091=CARTESIAN_POINT('',(-2.44426660539864,31.6508704172289,55.7003743299761));
#1092=CARTESIAN_POINT('',(0.000243535197338218,31.6508704172289,58.200066379593));
#1093=CARTESIAN_POINT('',(0.000243535197341771,31.6508704172289,58.200066379593));
#1094=CARTESIAN_POINT('',(0.000243535197341771,41.6508704172289,58.200066379593));
#1095=CARTESIAN_POINT('',(-2.49984605714814,41.6508704172288,58.1998460627302));
#1096=CARTESIAN_POINT('',(-2.44426660539864,41.6508704172289,55.7003743299761));
#1097=CARTESIAN_POINT('',(0.000243535197338218,41.6508704172288,58.200066379593));
#1098=CARTESIAN_POINT('',(0.000243535197341771,31.6508704172289,58.200066379593));
#1099=CARTESIAN_POINT('',(-6.44151856761255E-5,31.6508704172289,58.144576520189));
#1100=CARTESIAN_POINT('',(0.000243535197341771,41.6508704172289,58.200066379593));
#1101=CARTESIAN_POINT('',(-6.44151856761255E-5,41.6508704172289,58.144576520189));
#1102=CARTESIAN_POINT('',(-2.50017293686067,31.6508704172289,58.1997229876628));
#1103=CARTESIAN_POINT('',(-1.40017293686067,31.6508704172289,58.1997229876628));
#1104=CARTESIAN_POINT('',(-3.60017293686067,31.6508704172289,58.1997229876628));
#1105=CARTESIAN_POINT('',(-2.50017293686067,41.6508704172289,58.1997229876628));
#1106=CARTESIAN_POINT('',(-1.40017293686067,41.6508704172289,58.1997229876628));
#1107=CARTESIAN_POINT('',(-3.60017293686067,41.6508704172288,58.1997229876628));
#1108=CARTESIAN_POINT('',(-1.40017293686067,31.6508704172289,58.1997229876628));
#1109=CARTESIAN_POINT('',(-1.40017293686067,41.6508704172289,58.1997229876628));
#1110=CARTESIAN_POINT('',(-3.60017293686067,31.6508704172289,58.1997229876628));
#1111=CARTESIAN_POINT('',(-3.60017293686067,41.6508704172289,58.1997229876628));
#1112=CARTESIAN_POINT('',(-2.50017293686067,31.6508704172289,58.1997229876628));
#1113=CARTESIAN_POINT('',(-3.60017293686067,31.6508704172289,58.1997229876628));
#1114=CARTESIAN_POINT('',(-1.40017293686067,31.6508704172289,58.1997229876628));
#1115=CARTESIAN_POINT('',(-2.50017293686067,41.6508704172289,58.1997229876628));
#1116=CARTESIAN_POINT('',(-3.60017293686067,41.6508704172289,58.1997229876628));
#1117=CARTESIAN_POINT('',(-1.40017293686067,41.6508704172289,58.1997229876628));
#1118=CARTESIAN_POINT('',(15.,76.5,57.7));
#1119=CARTESIAN_POINT('',(3.46153846153847,64.9615384615385,59.7));
#1120=CARTESIAN_POINT('',(15.,106.5,57.7));
#1121=CARTESIAN_POINT('',(3.46153846153847,94.9615384615384,59.7));
#1122=CARTESIAN_POINT('',(45.,76.5,57.7));
#1123=CARTESIAN_POINT('',(33.4615384615385,64.9615384615385,59.7));
#1124=CARTESIAN_POINT('',(45.,106.5,57.7));
#1125=CARTESIAN_POINT('',(33.4615384615385,94.9615384615384,59.7));
#1126=CARTESIAN_POINT('',(15.,16.5,57.7));
#1127=CARTESIAN_POINT('',(3.46153846153847,4.9615384615385,59.7));
#1128=CARTESIAN_POINT('',(15.,46.5,57.7));
#1129=CARTESIAN_POINT('',(3.46153846153847,34.9615384615385,59.7));
#1130=CARTESIAN_POINT('',(45.,16.5,57.7));
#1131=CARTESIAN_POINT('',(33.4615384615385,4.9615384615385,59.7));
#1132=CARTESIAN_POINT('',(45.,46.5,57.7));
#1133=CARTESIAN_POINT('',(33.4615384615385,34.9615384615385,59.7));
#1134=CARTESIAN_POINT('',(60.,61.5,55.7));
#1135=CARTESIAN_POINT('',(60.,121.5,55.7));
#1136=CARTESIAN_POINT('',(0.,121.5,55.7));
#1137=CARTESIAN_POINT('',(0.,1.50000000000003,55.7));
#1138=CARTESIAN_POINT('',(60.,1.50000000000003,55.7));
#1139=CARTESIAN_POINT('',(0.,1.50000000000003,55.7));
#1140=CARTESIAN_POINT('',(0.,1.50000000000003,57.7));
#1141=CARTESIAN_POINT('',(15.,76.5,57.7));
#1142=CARTESIAN_POINT('',(15.,106.5,57.7));
#1143=CARTESIAN_POINT('',(45.,76.5,57.7));
#1144=CARTESIAN_POINT('',(45.,106.5,57.7));
#1145=CARTESIAN_POINT('',(15.,16.5,57.7));
#1146=CARTESIAN_POINT('',(15.,46.5,57.7));
#1147=CARTESIAN_POINT('',(45.,16.5,57.7));
#1148=CARTESIAN_POINT('',(45.,46.5,57.7));
#1149=CARTESIAN_POINT('',(24.2307692307692,76.5,59.7));
#1150=CARTESIAN_POINT('',(24.2307692307692,106.5,59.7));
#1151=CARTESIAN_POINT('',(54.2307692307692,76.5,59.7));
#1152=CARTESIAN_POINT('',(54.2307692307692,106.5,59.7));
#1153=CARTESIAN_POINT('',(24.2307692307692,16.5,59.7));
#1154=CARTESIAN_POINT('',(24.2307692307692,46.5,59.7));
#1155=CARTESIAN_POINT('',(54.2307692307692,16.5,59.7));
#1156=CARTESIAN_POINT('',(54.2307692307692,46.5,59.7));
#1157=CARTESIAN_POINT('',(60.,61.5,55.7));
#1158=CARTESIAN_POINT('',(60.,121.5,55.7));
#1159=CARTESIAN_POINT('',(60.,121.5,57.7));
#1160=CARTESIAN_POINT('',(60.,61.5,57.7));
#1161=CARTESIAN_POINT('',(0.,121.5,55.7));
#1162=CARTESIAN_POINT('',(0.,121.5,57.7));
#1163=CARTESIAN_POINT('',(0.,1.50000000000003,55.7));
#1164=CARTESIAN_POINT('',(0.,1.50000000000003,57.7));
#1165=CARTESIAN_POINT('',(60.,1.50000000000003,55.7));
#1166=CARTESIAN_POINT('',(60.,1.50000000000003,57.7));
#1167=CARTESIAN_POINT('',(54.2307692307692,46.5,57.7));
#1168=CARTESIAN_POINT('',(54.2307692307692,16.5,57.7));
#1169=CARTESIAN_POINT('',(24.2307692307692,46.5,57.7));
#1170=CARTESIAN_POINT('',(24.2307692307692,16.5,57.7));
#1171=CARTESIAN_POINT('',(54.2307692307692,106.5,57.7));
#1172=CARTESIAN_POINT('',(54.2307692307692,76.5,57.7));
#1173=CARTESIAN_POINT('',(24.2307692307692,106.5,57.7));
#1174=CARTESIAN_POINT('',(24.2307692307692,76.5,57.7));
#1175=CARTESIAN_POINT('',(5.76923076923077,76.5,57.7));
#1176=CARTESIAN_POINT('',(5.76923076923077,76.5,59.7));
#1177=CARTESIAN_POINT('',(5.76923076923077,106.5,57.7));
#1178=CARTESIAN_POINT('',(5.76923076923077,106.5,59.7));
#1179=CARTESIAN_POINT('',(35.7692307692308,76.5,57.7));
#1180=CARTESIAN_POINT('',(35.7692307692308,76.5,59.7));
#1181=CARTESIAN_POINT('',(35.7692307692308,106.5,57.7));
#1182=CARTESIAN_POINT('',(35.7692307692308,106.5,59.7));
#1183=CARTESIAN_POINT('',(5.76923076923077,16.5,57.7));
#1184=CARTESIAN_POINT('',(5.76923076923077,16.5,59.7));
#1185=CARTESIAN_POINT('',(5.76923076923077,46.5,57.7));
#1186=CARTESIAN_POINT('',(5.76923076923077,46.5,59.7));
#1187=CARTESIAN_POINT('',(35.7692307692308,16.5,57.7));
#1188=CARTESIAN_POINT('',(35.7692307692308,16.5,59.7));
#1189=CARTESIAN_POINT('',(35.7692307692308,46.5,57.7));
#1190=CARTESIAN_POINT('',(35.7692307692308,46.5,59.7));
#1191=CARTESIAN_POINT('',(15.,76.5,59.7));
#1192=CARTESIAN_POINT('',(24.2307692307692,76.5,59.7));
#1193=CARTESIAN_POINT('',(5.76923076923077,76.5,59.7));
#1194=CARTESIAN_POINT('',(15.,106.5,59.7));
#1195=CARTESIAN_POINT('',(24.2307692307692,106.5,59.7));
#1196=CARTESIAN_POINT('',(5.76923076923078,106.5,59.7));
#1197=CARTESIAN_POINT('',(45.,76.5,59.7));
#1198=CARTESIAN_POINT('',(54.2307692307692,76.5,59.7));
#1199=CARTESIAN_POINT('',(35.7692307692308,76.5,59.7));
#1200=CARTESIAN_POINT('',(45.,106.5,59.7));
#1201=CARTESIAN_POINT('',(54.2307692307692,106.5,59.7));
#1202=CARTESIAN_POINT('',(35.7692307692308,106.5,59.7));
#1203=CARTESIAN_POINT('',(15.,16.5,59.7));
#1204=CARTESIAN_POINT('',(24.2307692307692,16.5,59.7));
#1205=CARTESIAN_POINT('',(5.76923076923078,16.5,59.7));
#1206=CARTESIAN_POINT('',(15.,46.5,59.7));
#1207=CARTESIAN_POINT('',(24.2307692307692,46.5,59.7));
#1208=CARTESIAN_POINT('',(5.76923076923077,46.5,59.7));
#1209=CARTESIAN_POINT('',(45.,16.5,59.7));
#1210=CARTESIAN_POINT('',(54.2307692307692,16.5,59.7));
#1211=CARTESIAN_POINT('',(35.7692307692308,16.5,59.7));
#1212=CARTESIAN_POINT('',(45.,46.5,59.7));
#1213=CARTESIAN_POINT('',(54.2307692307692,46.5,59.7));
#1214=CARTESIAN_POINT('',(35.7692307692308,46.5,59.7));
#1215=CARTESIAN_POINT('',(60.,61.5,55.7));
#1216=CARTESIAN_POINT('',(60.,121.5,55.7));
#1217=CARTESIAN_POINT('',(60.,121.5,55.7));
#1218=CARTESIAN_POINT('',(60.,121.5,57.7));
#1219=CARTESIAN_POINT('',(60.,61.5,57.7));
#1220=CARTESIAN_POINT('',(60.,121.5,57.7));
#1221=CARTESIAN_POINT('',(60.,61.5,55.7));
#1222=CARTESIAN_POINT('',(60.,61.5,57.7));
#1223=CARTESIAN_POINT('',(60.,121.5,55.7));
#1224=CARTESIAN_POINT('',(0.,121.5,55.7));
#1225=CARTESIAN_POINT('',(0.,121.5,55.7));
#1226=CARTESIAN_POINT('',(0.,121.5,57.7));
#1227=CARTESIAN_POINT('',(60.,121.5,57.7));
#1228=CARTESIAN_POINT('',(0.,121.5,57.7));
#1229=CARTESIAN_POINT('',(0.,121.5,55.7));
#1230=CARTESIAN_POINT('',(0.,1.50000000000003,55.7));
#1231=CARTESIAN_POINT('',(0.,1.50000000000003,55.7));
#1232=CARTESIAN_POINT('',(0.,1.50000000000003,57.7));
#1233=CARTESIAN_POINT('',(0.,121.5,57.7));
#1234=CARTESIAN_POINT('',(0.,1.50000000000003,57.7));
#1235=CARTESIAN_POINT('',(0.,1.50000000000003,55.7));
#1236=CARTESIAN_POINT('',(60.,1.50000000000003,55.7));
#1237=CARTESIAN_POINT('',(60.,1.50000000000003,55.7));
#1238=CARTESIAN_POINT('',(60.,1.50000000000003,57.7));
#1239=CARTESIAN_POINT('',(0.,1.50000000000003,57.7));
#1240=CARTESIAN_POINT('',(60.,1.50000000000003,57.7));
#1241=CARTESIAN_POINT('',(60.,1.50000000000003,55.7));
#1242=CARTESIAN_POINT('',(60.,61.5,55.7));
#1243=CARTESIAN_POINT('',(60.,1.50000000000003,57.7));
#1244=CARTESIAN_POINT('',(60.,61.5,57.7));
#1245=CARTESIAN_POINT('',(45.,46.5,57.7));
#1246=CARTESIAN_POINT('',(54.2307692307692,46.5,57.7));
#1247=CARTESIAN_POINT('',(35.7692307692308,46.5,57.7));
#1248=CARTESIAN_POINT('',(54.2307692307692,46.5,57.7));
#1249=CARTESIAN_POINT('',(54.2307692307692,46.5,59.7));
#1250=CARTESIAN_POINT('',(45.,16.5,57.7));
#1251=CARTESIAN_POINT('',(54.2307692307692,16.5,57.7));
#1252=CARTESIAN_POINT('',(35.7692307692308,16.5,57.7));
#1253=CARTESIAN_POINT('',(54.2307692307692,16.5,57.7));
#1254=CARTESIAN_POINT('',(54.2307692307692,16.5,59.7));
#1255=CARTESIAN_POINT('',(15.,46.5,57.7));
#1256=CARTESIAN_POINT('',(24.2307692307692,46.5,57.7));
#1257=CARTESIAN_POINT('',(5.76923076923077,46.5,57.7));
#1258=CARTESIAN_POINT('',(24.2307692307692,46.5,57.7));
#1259=CARTESIAN_POINT('',(24.2307692307692,46.5,59.7));
#1260=CARTESIAN_POINT('',(15.,16.5,57.7));
#1261=CARTESIAN_POINT('',(24.2307692307692,16.5,57.7));
#1262=CARTESIAN_POINT('',(5.76923076923078,16.5,57.7));
#1263=CARTESIAN_POINT('',(24.2307692307692,16.5,57.7));
#1264=CARTESIAN_POINT('',(24.2307692307692,16.5,59.7));
#1265=CARTESIAN_POINT('',(45.,106.5,57.7));
#1266=CARTESIAN_POINT('',(54.2307692307692,106.5,57.7));
#1267=CARTESIAN_POINT('',(35.7692307692308,106.5,57.7));
#1268=CARTESIAN_POINT('',(54.2307692307692,106.5,57.7));
#1269=CARTESIAN_POINT('',(54.2307692307692,106.5,59.7));
#1270=CARTESIAN_POINT('',(45.,76.5,57.7));
#1271=CARTESIAN_POINT('',(54.2307692307692,76.5,57.7));
#1272=CARTESIAN_POINT('',(35.7692307692308,76.5,57.7));
#1273=CARTESIAN_POINT('',(54.2307692307692,76.5,57.7));
#1274=CARTESIAN_POINT('',(54.2307692307692,76.5,59.7));
#1275=CARTESIAN_POINT('',(15.,106.5,57.7));
#1276=CARTESIAN_POINT('',(24.2307692307692,106.5,57.7));
#1277=CARTESIAN_POINT('',(5.76923076923078,106.5,57.7));
#1278=CARTESIAN_POINT('',(24.2307692307692,106.5,57.7));
#1279=CARTESIAN_POINT('',(24.2307692307692,106.5,59.7));
#1280=CARTESIAN_POINT('',(15.,76.5,57.7));
#1281=CARTESIAN_POINT('',(24.2307692307692,76.5,57.7));
#1282=CARTESIAN_POINT('',(5.76923076923077,76.5,57.7));
#1283=CARTESIAN_POINT('',(24.2307692307692,76.5,57.7));
#1284=CARTESIAN_POINT('',(24.2307692307692,76.5,59.7));
#1285=CARTESIAN_POINT('',(5.76923076923077,76.5,57.7));
#1286=CARTESIAN_POINT('',(5.76923076923077,76.5,59.7));
#1287=CARTESIAN_POINT('',(15.,76.5,59.7));
#1288=CARTESIAN_POINT('',(5.76923076923077,76.5,59.7));
#1289=CARTESIAN_POINT('',(24.2307692307692,76.5,59.7));
#1290=CARTESIAN_POINT('',(15.,76.5,57.7));
#1291=CARTESIAN_POINT('',(5.76923076923077,76.5,57.7));
#1292=CARTESIAN_POINT('',(24.2307692307692,76.5,57.7));
#1293=CARTESIAN_POINT('',(5.76923076923077,106.5,57.7));
#1294=CARTESIAN_POINT('',(5.76923076923077,106.5,59.7));
#1295=CARTESIAN_POINT('',(15.,106.5,59.7));
#1296=CARTESIAN_POINT('',(5.76923076923077,106.5,59.7));
#1297=CARTESIAN_POINT('',(24.2307692307692,106.5,59.7));
#1298=CARTESIAN_POINT('',(15.,106.5,57.7));
#1299=CARTESIAN_POINT('',(5.76923076923077,106.5,57.7));
#1300=CARTESIAN_POINT('',(24.2307692307692,106.5,57.7));
#1301=CARTESIAN_POINT('',(35.7692307692308,76.5,57.7));
#1302=CARTESIAN_POINT('',(35.7692307692308,76.5,59.7));
#1303=CARTESIAN_POINT('',(45.,76.5,59.7));
#1304=CARTESIAN_POINT('',(35.7692307692308,76.5,59.7));
#1305=CARTESIAN_POINT('',(54.2307692307692,76.5,59.7));
#1306=CARTESIAN_POINT('',(45.,76.5,57.7));
#1307=CARTESIAN_POINT('',(35.7692307692308,76.5,57.7));
#1308=CARTESIAN_POINT('',(54.2307692307692,76.5,57.7));
#1309=CARTESIAN_POINT('',(35.7692307692308,106.5,57.7));
#1310=CARTESIAN_POINT('',(35.7692307692308,106.5,59.7));
#1311=CARTESIAN_POINT('',(45.,106.5,59.7));
#1312=CARTESIAN_POINT('',(35.7692307692308,106.5,59.7));
#1313=CARTESIAN_POINT('',(54.2307692307692,106.5,59.7));
#1314=CARTESIAN_POINT('',(45.,106.5,57.7));
#1315=CARTESIAN_POINT('',(35.7692307692308,106.5,57.7));
#1316=CARTESIAN_POINT('',(54.2307692307692,106.5,57.7));
#1317=CARTESIAN_POINT('',(5.76923076923077,16.5,57.7));
#1318=CARTESIAN_POINT('',(5.76923076923077,16.5,59.7));
#1319=CARTESIAN_POINT('',(15.,16.5,59.7));
#1320=CARTESIAN_POINT('',(5.76923076923077,16.5,59.7));
#1321=CARTESIAN_POINT('',(24.2307692307692,16.5,59.7));
#1322=CARTESIAN_POINT('',(15.,16.5,57.7));
#1323=CARTESIAN_POINT('',(5.76923076923077,16.5,57.7));
#1324=CARTESIAN_POINT('',(24.2307692307692,16.5,57.7));
#1325=CARTESIAN_POINT('',(5.76923076923077,46.5,57.7));
#1326=CARTESIAN_POINT('',(5.76923076923077,46.5,59.7));
#1327=CARTESIAN_POINT('',(15.,46.5,59.7));
#1328=CARTESIAN_POINT('',(5.76923076923077,46.5,59.7));
#1329=CARTESIAN_POINT('',(24.2307692307692,46.5,59.7));
#1330=CARTESIAN_POINT('',(15.,46.5,57.7));
#1331=CARTESIAN_POINT('',(5.76923076923077,46.5,57.7));
#1332=CARTESIAN_POINT('',(24.2307692307692,46.5,57.7));
#1333=CARTESIAN_POINT('',(35.7692307692308,16.5,57.7));
#1334=CARTESIAN_POINT('',(35.7692307692308,16.5,59.7));
#1335=CARTESIAN_POINT('',(45.,16.5,59.7));
#1336=CARTESIAN_POINT('',(35.7692307692308,16.5,59.7));
#1337=CARTESIAN_POINT('',(54.2307692307692,16.5,59.7));
#1338=CARTESIAN_POINT('',(45.,16.5,57.7));
#1339=CARTESIAN_POINT('',(35.7692307692308,16.5,57.7));
#1340=CARTESIAN_POINT('',(54.2307692307692,16.5,57.7));
#1341=CARTESIAN_POINT('',(35.7692307692308,46.5,57.7));
#1342=CARTESIAN_POINT('',(35.7692307692308,46.5,59.7));
#1343=CARTESIAN_POINT('',(45.,46.5,59.7));
#1344=CARTESIAN_POINT('',(35.7692307692308,46.5,59.7));
#1345=CARTESIAN_POINT('',(54.2307692307692,46.5,59.7));
#1346=CARTESIAN_POINT('',(45.,46.5,57.7));
#1347=CARTESIAN_POINT('',(35.7692307692308,46.5,57.7));
#1348=CARTESIAN_POINT('',(54.2307692307692,46.5,57.7));
#1349=CARTESIAN_POINT('',(-6.44151856761255E-5,91.6508704172288,58.144576520189));
#1350=CARTESIAN_POINT('',(0.000243535197341771,91.6508704172288,55.700066379593));
#1351=CARTESIAN_POINT('',(-2.49984605714814,96.6508704172288,58.1998460627302));
#1352=CARTESIAN_POINT('',(0.000243535197341771,91.6508704172288,58.200066379593));
#1353=CARTESIAN_POINT('',(0.625265934497181,91.6508704172288,55.0747340601639));
#1354=CARTESIAN_POINT('',(0.625265934497181,101.650870417229,55.0747340601639));
#1355=CARTESIAN_POINT('',(-2.50017293686067,96.6514528835437,58.1997229876628));
#1356=CARTESIAN_POINT('',(-2.50017293686067,96.6514528835437,58.1997229876628));
#1357=CARTESIAN_POINT('',(-6.44151856761255E-5,91.6508704172288,58.144576520189));
#1358=CARTESIAN_POINT('',(0.000243535197341771,91.6508704172288,55.700066379593));
#1359=CARTESIAN_POINT('',(0.000243535197341771,101.650870417229,55.700066379593));
#1360=CARTESIAN_POINT('',(-6.44151856761255E-5,101.650870417229,58.144576520189));
#1361=CARTESIAN_POINT('',(-2.44426660539864,91.6508704172288,55.7003743299761));
#1362=CARTESIAN_POINT('',(-2.44426660539864,101.650870417229,55.7003743299761));
#1363=CARTESIAN_POINT('',(0.000243535197341771,91.6508704172288,58.200066379593));
#1364=CARTESIAN_POINT('',(0.000243535197341771,101.650870417229,58.200066379593));
#1365=CARTESIAN_POINT('',(-1.40017293686067,91.6508704172288,58.1997229876628));
#1366=CARTESIAN_POINT('',(-1.40017293686067,101.650870417229,58.1997229876628));
#1367=CARTESIAN_POINT('',(-3.60017293686067,91.6508704172288,58.1997229876628));
#1368=CARTESIAN_POINT('',(-3.60017293686067,101.650870417229,58.1997229876628));
#1369=CARTESIAN_POINT('',(-6.44151856761255E-5,91.6508704172288,58.144576520189));
#1370=CARTESIAN_POINT('',(0.000243535197341771,91.6508704172288,55.700066379593));
#1371=CARTESIAN_POINT('',(0.000243535197341771,91.6508704172288,55.700066379593));
#1372=CARTESIAN_POINT('',(0.000243535197341771,101.650870417229,55.700066379593));
#1373=CARTESIAN_POINT('',(-6.44151856761255E-5,101.650870417229,58.144576520189));
#1374=CARTESIAN_POINT('',(0.000243535197341771,101.650870417229,55.700066379593));
#1375=CARTESIAN_POINT('',(-6.44151856761255E-5,91.6508704172288,58.144576520189));
#1376=CARTESIAN_POINT('',(-6.44151856761255E-5,101.650870417229,58.144576520189));
#1377=CARTESIAN_POINT('',(0.000243535197341771,91.6508704172288,55.700066379593));
#1378=CARTESIAN_POINT('',(-2.44426660539864,91.6508704172288,55.7003743299761));
#1379=CARTESIAN_POINT('',(-2.44426660539864,91.6508704172288,55.7003743299761));
#1380=CARTESIAN_POINT('',(-2.44426660539864,101.650870417229,55.7003743299761));
#1381=CARTESIAN_POINT('',(0.000243535197341771,101.650870417229,55.700066379593));
#1382=CARTESIAN_POINT('',(-2.44426660539864,101.650870417229,55.7003743299761));
#1383=CARTESIAN_POINT('',(-2.49984605714814,91.6508704172288,58.1998460627302));
#1384=CARTESIAN_POINT('',(-2.44426660539864,91.6508704172288,55.7003743299761));
#1385=CARTESIAN_POINT('',(0.000243535197338218,91.6508704172288,58.200066379593));
#1386=CARTESIAN_POINT('',(0.000243535197341771,91.6508704172288,58.200066379593));
#1387=CARTESIAN_POINT('',(0.000243535197341771,101.650870417229,58.200066379593));
#1388=CARTESIAN_POINT('',(-2.49984605714814,101.650870417229,58.1998460627302));
#1389=CARTESIAN_POINT('',(-2.44426660539864,101.650870417229,55.7003743299761));
#1390=CARTESIAN_POINT('',(0.000243535197338218,101.650870417229,58.200066379593));
#1391=CARTESIAN_POINT('',(0.000243535197341771,91.6508704172288,58.200066379593));
#1392=CARTESIAN_POINT('',(-6.44151856761255E-5,91.6508704172288,58.144576520189));
#1393=CARTESIAN_POINT('',(0.000243535197341771,101.650870417229,58.200066379593));
#1394=CARTESIAN_POINT('',(-6.44151856761255E-5,101.650870417229,58.144576520189));
#1395=CARTESIAN_POINT('',(-2.50017293686067,91.6508704172288,58.1997229876628));
#1396=CARTESIAN_POINT('',(-1.40017293686067,91.6508704172288,58.1997229876628));
#1397=CARTESIAN_POINT('',(-3.60017293686067,91.6508704172288,58.1997229876628));
#1398=CARTESIAN_POINT('',(-2.50017293686066,101.650870417229,58.1997229876628));
#1399=CARTESIAN_POINT('',(-1.40017293686067,101.650870417229,58.1997229876628));
#1400=CARTESIAN_POINT('',(-3.60017293686066,101.650870417229,58.1997229876628));
#1401=CARTESIAN_POINT('',(-1.40017293686067,91.6508704172288,58.1997229876628));
#1402=CARTESIAN_POINT('',(-1.40017293686067,101.650870417229,58.1997229876628));
#1403=CARTESIAN_POINT('',(-3.60017293686067,91.6508704172289,58.1997229876628));
#1404=CARTESIAN_POINT('',(-3.60017293686067,101.650870417229,58.1997229876628));
#1405=CARTESIAN_POINT('',(-2.50017293686067,91.6508704172288,58.1997229876628));
#1406=CARTESIAN_POINT('',(-3.60017293686067,91.6508704172288,58.1997229876628));
#1407=CARTESIAN_POINT('',(-1.40017293686067,91.6508704172288,58.1997229876628));
#1408=CARTESIAN_POINT('',(-2.50017293686067,101.650870417229,58.1997229876628));
#1409=CARTESIAN_POINT('',(-3.60017293686067,101.650870417229,58.1997229876628));
#1410=CARTESIAN_POINT('',(-1.40017293686067,101.650870417229,58.1997229876628));
#1411=CARTESIAN_POINT('',(0.,0.,0.));
ENDSEC;
END-ISO-10303-21;
