ISO-10303-21;
HEADER;
/* Generated by software containing ST-Developer
 * from STEP Tools, Inc. (www.steptools.com) 
 */
/* OPTION: using custom schema-name function */

FILE_DESCRIPTION(
/* description */ (''),
/* implementation_level */ '2;1');

FILE_NAME(
/* name */ 'cube_2x2',
/* time_stamp */ '2026-09-06T14:15:57+03:00',
/* author */ (''),
/* organization */ (''),
/* preprocessor_version */ 'ST-DEVELOPER v19.2',
/* originating_system */ 'Rhino 8.34',
/* authorisation */ '');

FILE_SCHEMA (('CONFIG_CONTROL_DESIGN'));
ENDSEC;

DATA;
#10=SHAPE_REPRESENTATION_RELATIONSHIP('','',#1084,#14);
#11=MANIFOLD_SOLID_BREP('brep_1',#15);
#12=MANIFOLD_SOLID_BREP('brep_2',#16);
#13=MANIFOLD_SOLID_BREP('brep_3',#17);
#14=ADVANCED_BREP_SHAPE_REPRESENTATION('brep_rep_0',(#11,#12,#13,#1185),
#1083);
#15=CLOSED_SHELL('',(#18,#19,#20,#21,#22,#23,#24,#25,#26,#27,#28,#29,#30,
#31,#32,#33,#34,#35,#36,#37,#38,#39,#40,#41,#42,#43,#44,#45,#46));
#16=CLOSED_SHELL('',(#47,#48,#49,#50,#51,#52,#53,#54,#55,#56,#57,#58,#59,
#60,#61,#62));
#17=CLOSED_SHELL('',(#63,#64,#65,#66,#67,#68,#69,#70,#71,#72,#73,#74,#75,
#76,#77,#78,#79,#80));
#18=ADVANCED_FACE('',(#89,#81,#82,#83,#84),#953,.T.);
#19=ADVANCED_FACE('',(#90),#935,.F.);
#20=ADVANCED_FACE('',(#91),#936,.F.);
#21=ADVANCED_FACE('',(#92),#937,.F.);
#22=ADVANCED_FACE('',(#93),#938,.F.);
#23=ADVANCED_FACE('',(#94),#954,.T.);
#24=ADVANCED_FACE('',(#95),#955,.T.);
#25=ADVANCED_FACE('',(#96),#956,.T.);
#26=ADVANCED_FACE('',(#97),#957,.T.);
#27=ADVANCED_FACE('',(#98),#958,.T.);
#28=ADVANCED_FACE('',(#99),#959,.T.);
#29=ADVANCED_FACE('',(#100),#960,.T.);
#30=ADVANCED_FACE('',(#101),#961,.T.);
#31=ADVANCED_FACE('',(#102),#962,.T.);
#32=ADVANCED_FACE('',(#103),#963,.T.);
#33=ADVANCED_FACE('',(#104),#964,.T.);
#34=ADVANCED_FACE('',(#105),#965,.T.);
#35=ADVANCED_FACE('',(#106),#966,.T.);
#36=ADVANCED_FACE('',(#107),#967,.T.);
#37=ADVANCED_FACE('',(#108),#968,.T.);
#38=ADVANCED_FACE('',(#109),#969,.T.);
#39=ADVANCED_FACE('',(#110),#970,.T.);
#40=ADVANCED_FACE('',(#111),#971,.T.);
#41=ADVANCED_FACE('',(#112),#972,.T.);
#42=ADVANCED_FACE('',(#113),#973,.T.);
#43=ADVANCED_FACE('',(#114),#939,.F.);
#44=ADVANCED_FACE('',(#115),#940,.F.);
#45=ADVANCED_FACE('',(#116),#941,.F.);
#46=ADVANCED_FACE('',(#117),#942,.F.);
#47=ADVANCED_FACE('',(#118),#974,.T.);
#48=ADVANCED_FACE('',(#119),#975,.T.);
#49=ADVANCED_FACE('',(#120),#976,.T.);
#50=ADVANCED_FACE('',(#121),#977,.T.);
#51=ADVANCED_FACE('',(#122),#978,.T.);
#52=ADVANCED_FACE('',(#123),#979,.T.);
#53=ADVANCED_FACE('',(#124),#980,.T.);
#54=ADVANCED_FACE('',(#125),#981,.T.);
#55=ADVANCED_FACE('',(#126),#982,.T.);
#56=ADVANCED_FACE('',(#127),#943,.F.);
#57=ADVANCED_FACE('',(#128),#983,.T.);
#58=ADVANCED_FACE('',(#129),#984,.T.);
#59=ADVANCED_FACE('',(#130),#944,.F.);
#60=ADVANCED_FACE('',(#131),#985,.T.);
#61=ADVANCED_FACE('',(#132),#986,.T.);
#62=ADVANCED_FACE('',(#133),#987,.T.);
#63=ADVANCED_FACE('',(#134),#945,.T.);
#64=ADVANCED_FACE('',(#135),#947,.T.);
#65=ADVANCED_FACE('',(#136),#949,.T.);
#66=ADVANCED_FACE('',(#137),#951,.T.);
#67=ADVANCED_FACE('',(#138),#993,.T.);
#68=ADVANCED_FACE('',(#139),#988,.T.);
#69=ADVANCED_FACE('',(#140),#989,.T.);
#70=ADVANCED_FACE('',(#141),#990,.T.);
#71=ADVANCED_FACE('',(#142),#991,.T.);
#72=ADVANCED_FACE('',(#143,#85,#86,#87,#88),#994,.T.);
#73=ADVANCED_FACE('',(#144),#995,.T.);
#74=ADVANCED_FACE('',(#145),#996,.T.);
#75=ADVANCED_FACE('',(#146),#997,.T.);
#76=ADVANCED_FACE('',(#147),#992,.T.);
#77=ADVANCED_FACE('',(#148),#946,.T.);
#78=ADVANCED_FACE('',(#149),#948,.T.);
#79=ADVANCED_FACE('',(#150),#950,.T.);
#80=ADVANCED_FACE('',(#151),#952,.T.);
#81=FACE_BOUND('',#153,.T.);
#82=FACE_BOUND('',#154,.T.);
#83=FACE_BOUND('',#155,.T.);
#84=FACE_BOUND('',#156,.T.);
#85=FACE_BOUND('',#211,.T.);
#86=FACE_BOUND('',#212,.T.);
#87=FACE_BOUND('',#213,.T.);
#88=FACE_BOUND('',#214,.T.);
#89=FACE_OUTER_BOUND('',#152,.T.);
#90=FACE_OUTER_BOUND('',#157,.T.);
#91=FACE_OUTER_BOUND('',#158,.T.);
#92=FACE_OUTER_BOUND('',#159,.T.);
#93=FACE_OUTER_BOUND('',#160,.T.);
#94=FACE_OUTER_BOUND('',#161,.T.);
#95=FACE_OUTER_BOUND('',#162,.T.);
#96=FACE_OUTER_BOUND('',#163,.T.);
#97=FACE_OUTER_BOUND('',#164,.T.);
#98=FACE_OUTER_BOUND('',#165,.T.);
#99=FACE_OUTER_BOUND('',#166,.T.);
#100=FACE_OUTER_BOUND('',#167,.T.);
#101=FACE_OUTER_BOUND('',#168,.T.);
#102=FACE_OUTER_BOUND('',#169,.T.);
#103=FACE_OUTER_BOUND('',#170,.T.);
#104=FACE_OUTER_BOUND('',#171,.T.);
#105=FACE_OUTER_BOUND('',#172,.T.);
#106=FACE_OUTER_BOUND('',#173,.T.);
#107=FACE_OUTER_BOUND('',#174,.T.);
#108=FACE_OUTER_BOUND('',#175,.T.);
#109=FACE_OUTER_BOUND('',#176,.T.);
#110=FACE_OUTER_BOUND('',#177,.T.);
#111=FACE_OUTER_BOUND('',#178,.T.);
#112=FACE_OUTER_BOUND('',#179,.T.);
#113=FACE_OUTER_BOUND('',#180,.T.);
#114=FACE_OUTER_BOUND('',#181,.T.);
#115=FACE_OUTER_BOUND('',#182,.T.);
#116=FACE_OUTER_BOUND('',#183,.T.);
#117=FACE_OUTER_BOUND('',#184,.T.);
#118=FACE_OUTER_BOUND('',#185,.T.);
#119=FACE_OUTER_BOUND('',#186,.T.);
#120=FACE_OUTER_BOUND('',#187,.T.);
#121=FACE_OUTER_BOUND('',#188,.T.);
#122=FACE_OUTER_BOUND('',#189,.T.);
#123=FACE_OUTER_BOUND('',#190,.T.);
#124=FACE_OUTER_BOUND('',#191,.T.);
#125=FACE_OUTER_BOUND('',#192,.T.);
#126=FACE_OUTER_BOUND('',#193,.T.);
#127=FACE_OUTER_BOUND('',#194,.T.);
#128=FACE_OUTER_BOUND('',#195,.T.);
#129=FACE_OUTER_BOUND('',#196,.T.);
#130=FACE_OUTER_BOUND('',#197,.T.);
#131=FACE_OUTER_BOUND('',#198,.T.);
#132=FACE_OUTER_BOUND('',#199,.T.);
#133=FACE_OUTER_BOUND('',#200,.T.);
#134=FACE_OUTER_BOUND('',#201,.T.);
#135=FACE_OUTER_BOUND('',#202,.T.);
#136=FACE_OUTER_BOUND('',#203,.T.);
#137=FACE_OUTER_BOUND('',#204,.T.);
#138=FACE_OUTER_BOUND('',#205,.T.);
#139=FACE_OUTER_BOUND('',#206,.T.);
#140=FACE_OUTER_BOUND('',#207,.T.);
#141=FACE_OUTER_BOUND('',#208,.T.);
#142=FACE_OUTER_BOUND('',#209,.T.);
#143=FACE_OUTER_BOUND('',#210,.T.);
#144=FACE_OUTER_BOUND('',#215,.T.);
#145=FACE_OUTER_BOUND('',#216,.T.);
#146=FACE_OUTER_BOUND('',#217,.T.);
#147=FACE_OUTER_BOUND('',#218,.T.);
#148=FACE_OUTER_BOUND('',#219,.T.);
#149=FACE_OUTER_BOUND('',#220,.T.);
#150=FACE_OUTER_BOUND('',#221,.T.);
#151=FACE_OUTER_BOUND('',#222,.T.);
#152=EDGE_LOOP('',(#223,#224,#225,#226));
#153=EDGE_LOOP('',(#227,#228));
#154=EDGE_LOOP('',(#229,#230));
#155=EDGE_LOOP('',(#231,#232));
#156=EDGE_LOOP('',(#233,#234));
#157=EDGE_LOOP('',(#235,#236,#237,#238));
#158=EDGE_LOOP('',(#239,#240,#241,#242));
#159=EDGE_LOOP('',(#243,#244,#245,#246));
#160=EDGE_LOOP('',(#247,#248,#249,#250));
#161=EDGE_LOOP('',(#251,#252,#253,#254,#255,#256,#257,#258));
#162=EDGE_LOOP('',(#259,#260,#261,#262));
#163=EDGE_LOOP('',(#263,#264,#265,#266));
#164=EDGE_LOOP('',(#267,#268,#269,#270));
#165=EDGE_LOOP('',(#271,#272,#273,#274));
#166=EDGE_LOOP('',(#275,#276,#277,#278));
#167=EDGE_LOOP('',(#279,#280,#281,#282));
#168=EDGE_LOOP('',(#283,#284,#285,#286));
#169=EDGE_LOOP('',(#287,#288,#289,#290));
#170=EDGE_LOOP('',(#291,#292,#293,#294));
#171=EDGE_LOOP('',(#295,#296,#297,#298,#299,#300,#301,#302,#303,#304));
#172=EDGE_LOOP('',(#305,#306,#307,#308));
#173=EDGE_LOOP('',(#309,#310));
#174=EDGE_LOOP('',(#311,#312));
#175=EDGE_LOOP('',(#313,#314));
#176=EDGE_LOOP('',(#315,#316));
#177=EDGE_LOOP('',(#317,#318,#319,#320));
#178=EDGE_LOOP('',(#321,#322,#323,#324));
#179=EDGE_LOOP('',(#325,#326,#327,#328,#329,#330,#331,#332,#333,#334,#335,
#336));
#180=EDGE_LOOP('',(#337,#338,#339,#340));
#181=EDGE_LOOP('',(#341,#342,#343,#344));
#182=EDGE_LOOP('',(#345,#346,#347,#348));
#183=EDGE_LOOP('',(#349,#350,#351,#352));
#184=EDGE_LOOP('',(#353,#354,#355,#356));
#185=EDGE_LOOP('',(#357,#358,#359,#360));
#186=EDGE_LOOP('',(#361,#362,#363,#364,#365,#366,#367,#368,#369,#370,#371,
#372));
#187=EDGE_LOOP('',(#373,#374,#375,#376));
#188=EDGE_LOOP('',(#377,#378,#379,#380));
#189=EDGE_LOOP('',(#381,#382,#383,#384));
#190=EDGE_LOOP('',(#385,#386,#387,#388));
#191=EDGE_LOOP('',(#389,#390,#391,#392));
#192=EDGE_LOOP('',(#393,#394,#395,#396));
#193=EDGE_LOOP('',(#397,#398,#399,#400));
#194=EDGE_LOOP('',(#401,#402,#403,#404));
#195=EDGE_LOOP('',(#405,#406,#407,#408));
#196=EDGE_LOOP('',(#409,#410,#411,#412));
#197=EDGE_LOOP('',(#413,#414,#415,#416));
#198=EDGE_LOOP('',(#417,#418,#419,#420));
#199=EDGE_LOOP('',(#421,#422,#423,#424,#425,#426,#427,#428,#429,#430));
#200=EDGE_LOOP('',(#431,#432,#433,#434,#435,#436,#437,#438,#439,#440));
#201=EDGE_LOOP('',(#441,#442,#443,#444));
#202=EDGE_LOOP('',(#445,#446,#447,#448));
#203=EDGE_LOOP('',(#449,#450,#451,#452));
#204=EDGE_LOOP('',(#453,#454,#455,#456));
#205=EDGE_LOOP('',(#457,#458,#459,#460));
#206=EDGE_LOOP('',(#461,#462,#463,#464));
#207=EDGE_LOOP('',(#465,#466,#467,#468));
#208=EDGE_LOOP('',(#469,#470,#471,#472));
#209=EDGE_LOOP('',(#473,#474,#475,#476));
#210=EDGE_LOOP('',(#477,#478,#479,#480));
#211=EDGE_LOOP('',(#481,#482));
#212=EDGE_LOOP('',(#483,#484));
#213=EDGE_LOOP('',(#485,#486));
#214=EDGE_LOOP('',(#487,#488));
#215=EDGE_LOOP('',(#489,#490));
#216=EDGE_LOOP('',(#491,#492));
#217=EDGE_LOOP('',(#493,#494));
#218=EDGE_LOOP('',(#495,#496));
#219=EDGE_LOOP('',(#497,#498,#499,#500));
#220=EDGE_LOOP('',(#501,#502,#503,#504));
#221=EDGE_LOOP('',(#505,#506,#507,#508));
#222=EDGE_LOOP('',(#509,#510,#511,#512));
#223=ORIENTED_EDGE('',*,*,#526,.T.);
#224=ORIENTED_EDGE('',*,*,#527,.T.);
#225=ORIENTED_EDGE('',*,*,#525,.T.);
#226=ORIENTED_EDGE('',*,*,#528,.F.);
#227=ORIENTED_EDGE('',*,*,#570,.F.);
#228=ORIENTED_EDGE('',*,*,#515,.F.);
#229=ORIENTED_EDGE('',*,*,#573,.F.);
#230=ORIENTED_EDGE('',*,*,#518,.F.);
#231=ORIENTED_EDGE('',*,*,#576,.F.);
#232=ORIENTED_EDGE('',*,*,#521,.F.);
#233=ORIENTED_EDGE('',*,*,#579,.F.);
#234=ORIENTED_EDGE('',*,*,#524,.F.);
#235=ORIENTED_EDGE('',*,*,#513,.F.);
#236=ORIENTED_EDGE('',*,*,#514,.T.);
#237=ORIENTED_EDGE('',*,*,#515,.T.);
#238=ORIENTED_EDGE('',*,*,#568,.F.);
#239=ORIENTED_EDGE('',*,*,#516,.F.);
#240=ORIENTED_EDGE('',*,*,#517,.T.);
#241=ORIENTED_EDGE('',*,*,#518,.T.);
#242=ORIENTED_EDGE('',*,*,#571,.F.);
#243=ORIENTED_EDGE('',*,*,#519,.F.);
#244=ORIENTED_EDGE('',*,*,#520,.T.);
#245=ORIENTED_EDGE('',*,*,#521,.T.);
#246=ORIENTED_EDGE('',*,*,#574,.F.);
#247=ORIENTED_EDGE('',*,*,#522,.F.);
#248=ORIENTED_EDGE('',*,*,#523,.T.);
#249=ORIENTED_EDGE('',*,*,#524,.T.);
#250=ORIENTED_EDGE('',*,*,#577,.F.);
#251=ORIENTED_EDGE('',*,*,#562,.T.);
#252=ORIENTED_EDGE('',*,*,#563,.T.);
#253=ORIENTED_EDGE('',*,*,#542,.T.);
#254=ORIENTED_EDGE('',*,*,#541,.T.);
#255=ORIENTED_EDGE('',*,*,#540,.T.);
#256=ORIENTED_EDGE('',*,*,#547,.T.);
#257=ORIENTED_EDGE('',*,*,#560,.T.);
#258=ORIENTED_EDGE('',*,*,#561,.T.);
#259=ORIENTED_EDGE('',*,*,#530,.T.);
#260=ORIENTED_EDGE('',*,*,#557,.T.);
#261=ORIENTED_EDGE('',*,*,#529,.T.);
#262=ORIENTED_EDGE('',*,*,#556,.F.);
#263=ORIENTED_EDGE('',*,*,#536,.F.);
#264=ORIENTED_EDGE('',*,*,#535,.F.);
#265=ORIENTED_EDGE('',*,*,#545,.T.);
#266=ORIENTED_EDGE('',*,*,#540,.F.);
#267=ORIENTED_EDGE('',*,*,#538,.F.);
#268=ORIENTED_EDGE('',*,*,#537,.F.);
#269=ORIENTED_EDGE('',*,*,#536,.T.);
#270=ORIENTED_EDGE('',*,*,#541,.F.);
#271=ORIENTED_EDGE('',*,*,#546,.F.);
#272=ORIENTED_EDGE('',*,*,#539,.F.);
#273=ORIENTED_EDGE('',*,*,#538,.T.);
#274=ORIENTED_EDGE('',*,*,#542,.F.);
#275=ORIENTED_EDGE('',*,*,#533,.F.);
#276=ORIENTED_EDGE('',*,*,#556,.T.);
#277=ORIENTED_EDGE('',*,*,#531,.T.);
#278=ORIENTED_EDGE('',*,*,#558,.F.);
#279=ORIENTED_EDGE('',*,*,#543,.T.);
#280=ORIENTED_EDGE('',*,*,#534,.F.);
#281=ORIENTED_EDGE('',*,*,#530,.F.);
#282=ORIENTED_EDGE('',*,*,#533,.T.);
#283=ORIENTED_EDGE('',*,*,#557,.F.);
#284=ORIENTED_EDGE('',*,*,#534,.T.);
#285=ORIENTED_EDGE('',*,*,#559,.T.);
#286=ORIENTED_EDGE('',*,*,#532,.F.);
#287=ORIENTED_EDGE('',*,*,#555,.T.);
#288=ORIENTED_EDGE('',*,*,#550,.F.);
#289=ORIENTED_EDGE('',*,*,#554,.F.);
#290=ORIENTED_EDGE('',*,*,#529,.F.);
#291=ORIENTED_EDGE('',*,*,#548,.F.);
#292=ORIENTED_EDGE('',*,*,#531,.F.);
#293=ORIENTED_EDGE('',*,*,#554,.T.);
#294=ORIENTED_EDGE('',*,*,#551,.F.);
#295=ORIENTED_EDGE('',*,*,#559,.F.);
#296=ORIENTED_EDGE('',*,*,#543,.F.);
#297=ORIENTED_EDGE('',*,*,#558,.T.);
#298=ORIENTED_EDGE('',*,*,#548,.T.);
#299=ORIENTED_EDGE('',*,*,#553,.T.);
#300=ORIENTED_EDGE('',*,*,#535,.T.);
#301=ORIENTED_EDGE('',*,*,#537,.T.);
#302=ORIENTED_EDGE('',*,*,#539,.T.);
#303=ORIENTED_EDGE('',*,*,#544,.T.);
#304=ORIENTED_EDGE('',*,*,#549,.F.);
#305=ORIENTED_EDGE('',*,*,#532,.T.);
#306=ORIENTED_EDGE('',*,*,#549,.T.);
#307=ORIENTED_EDGE('',*,*,#552,.F.);
#308=ORIENTED_EDGE('',*,*,#555,.F.);
#309=ORIENTED_EDGE('',*,*,#516,.T.);
#310=ORIENTED_EDGE('',*,*,#572,.T.);
#311=ORIENTED_EDGE('',*,*,#519,.T.);
#312=ORIENTED_EDGE('',*,*,#575,.T.);
#313=ORIENTED_EDGE('',*,*,#522,.T.);
#314=ORIENTED_EDGE('',*,*,#578,.T.);
#315=ORIENTED_EDGE('',*,*,#513,.T.);
#316=ORIENTED_EDGE('',*,*,#569,.T.);
#317=ORIENTED_EDGE('',*,*,#564,.T.);
#318=ORIENTED_EDGE('',*,*,#560,.F.);
#319=ORIENTED_EDGE('',*,*,#565,.F.);
#320=ORIENTED_EDGE('',*,*,#525,.F.);
#321=ORIENTED_EDGE('',*,*,#566,.T.);
#322=ORIENTED_EDGE('',*,*,#561,.F.);
#323=ORIENTED_EDGE('',*,*,#564,.F.);
#324=ORIENTED_EDGE('',*,*,#527,.F.);
#325=ORIENTED_EDGE('',*,*,#528,.T.);
#326=ORIENTED_EDGE('',*,*,#565,.T.);
#327=ORIENTED_EDGE('',*,*,#547,.F.);
#328=ORIENTED_EDGE('',*,*,#545,.F.);
#329=ORIENTED_EDGE('',*,*,#553,.F.);
#330=ORIENTED_EDGE('',*,*,#551,.T.);
#331=ORIENTED_EDGE('',*,*,#550,.T.);
#332=ORIENTED_EDGE('',*,*,#552,.T.);
#333=ORIENTED_EDGE('',*,*,#544,.F.);
#334=ORIENTED_EDGE('',*,*,#546,.T.);
#335=ORIENTED_EDGE('',*,*,#563,.F.);
#336=ORIENTED_EDGE('',*,*,#567,.T.);
#337=ORIENTED_EDGE('',*,*,#567,.F.);
#338=ORIENTED_EDGE('',*,*,#562,.F.);
#339=ORIENTED_EDGE('',*,*,#566,.F.);
#340=ORIENTED_EDGE('',*,*,#526,.F.);
#341=ORIENTED_EDGE('',*,*,#568,.T.);
#342=ORIENTED_EDGE('',*,*,#570,.T.);
#343=ORIENTED_EDGE('',*,*,#514,.F.);
#344=ORIENTED_EDGE('',*,*,#569,.F.);
#345=ORIENTED_EDGE('',*,*,#571,.T.);
#346=ORIENTED_EDGE('',*,*,#573,.T.);
#347=ORIENTED_EDGE('',*,*,#517,.F.);
#348=ORIENTED_EDGE('',*,*,#572,.F.);
#349=ORIENTED_EDGE('',*,*,#574,.T.);
#350=ORIENTED_EDGE('',*,*,#576,.T.);
#351=ORIENTED_EDGE('',*,*,#520,.F.);
#352=ORIENTED_EDGE('',*,*,#575,.F.);
#353=ORIENTED_EDGE('',*,*,#577,.T.);
#354=ORIENTED_EDGE('',*,*,#579,.T.);
#355=ORIENTED_EDGE('',*,*,#523,.F.);
#356=ORIENTED_EDGE('',*,*,#578,.F.);
#357=ORIENTED_EDGE('',*,*,#580,.T.);
#358=ORIENTED_EDGE('',*,*,#581,.T.);
#359=ORIENTED_EDGE('',*,*,#582,.F.);
#360=ORIENTED_EDGE('',*,*,#583,.F.);
#361=ORIENTED_EDGE('',*,*,#612,.T.);
#362=ORIENTED_EDGE('',*,*,#601,.F.);
#363=ORIENTED_EDGE('',*,*,#600,.T.);
#364=ORIENTED_EDGE('',*,*,#603,.T.);
#365=ORIENTED_EDGE('',*,*,#602,.F.);
#366=ORIENTED_EDGE('',*,*,#621,.F.);
#367=ORIENTED_EDGE('',*,*,#613,.F.);
#368=ORIENTED_EDGE('',*,*,#620,.T.);
#369=ORIENTED_EDGE('',*,*,#585,.T.);
#370=ORIENTED_EDGE('',*,*,#586,.F.);
#371=ORIENTED_EDGE('',*,*,#581,.F.);
#372=ORIENTED_EDGE('',*,*,#584,.T.);
#373=ORIENTED_EDGE('',*,*,#587,.T.);
#374=ORIENTED_EDGE('',*,*,#588,.T.);
#375=ORIENTED_EDGE('',*,*,#589,.F.);
#376=ORIENTED_EDGE('',*,*,#585,.F.);
#377=ORIENTED_EDGE('',*,*,#590,.T.);
#378=ORIENTED_EDGE('',*,*,#583,.T.);
#379=ORIENTED_EDGE('',*,*,#591,.F.);
#380=ORIENTED_EDGE('',*,*,#588,.F.);
#381=ORIENTED_EDGE('',*,*,#582,.T.);
#382=ORIENTED_EDGE('',*,*,#586,.T.);
#383=ORIENTED_EDGE('',*,*,#589,.T.);
#384=ORIENTED_EDGE('',*,*,#591,.T.);
#385=ORIENTED_EDGE('',*,*,#594,.T.);
#386=ORIENTED_EDGE('',*,*,#593,.T.);
#387=ORIENTED_EDGE('',*,*,#600,.F.);
#388=ORIENTED_EDGE('',*,*,#592,.F.);
#389=ORIENTED_EDGE('',*,*,#602,.T.);
#390=ORIENTED_EDGE('',*,*,#597,.T.);
#391=ORIENTED_EDGE('',*,*,#596,.F.);
#392=ORIENTED_EDGE('',*,*,#595,.F.);
#393=ORIENTED_EDGE('',*,*,#596,.T.);
#394=ORIENTED_EDGE('',*,*,#599,.T.);
#395=ORIENTED_EDGE('',*,*,#594,.F.);
#396=ORIENTED_EDGE('',*,*,#598,.F.);
#397=ORIENTED_EDGE('',*,*,#599,.F.);
#398=ORIENTED_EDGE('',*,*,#597,.F.);
#399=ORIENTED_EDGE('',*,*,#603,.F.);
#400=ORIENTED_EDGE('',*,*,#593,.F.);
#401=ORIENTED_EDGE('',*,*,#607,.T.);
#402=ORIENTED_EDGE('',*,*,#606,.T.);
#403=ORIENTED_EDGE('',*,*,#605,.F.);
#404=ORIENTED_EDGE('',*,*,#604,.F.);
#405=ORIENTED_EDGE('',*,*,#605,.T.);
#406=ORIENTED_EDGE('',*,*,#617,.T.);
#407=ORIENTED_EDGE('',*,*,#612,.F.);
#408=ORIENTED_EDGE('',*,*,#614,.F.);
#409=ORIENTED_EDGE('',*,*,#613,.T.);
#410=ORIENTED_EDGE('',*,*,#618,.T.);
#411=ORIENTED_EDGE('',*,*,#608,.F.);
#412=ORIENTED_EDGE('',*,*,#615,.F.);
#413=ORIENTED_EDGE('',*,*,#608,.T.);
#414=ORIENTED_EDGE('',*,*,#611,.T.);
#415=ORIENTED_EDGE('',*,*,#610,.F.);
#416=ORIENTED_EDGE('',*,*,#609,.F.);
#417=ORIENTED_EDGE('',*,*,#610,.T.);
#418=ORIENTED_EDGE('',*,*,#619,.T.);
#419=ORIENTED_EDGE('',*,*,#607,.F.);
#420=ORIENTED_EDGE('',*,*,#616,.F.);
#421=ORIENTED_EDGE('',*,*,#615,.T.);
#422=ORIENTED_EDGE('',*,*,#609,.T.);
#423=ORIENTED_EDGE('',*,*,#616,.T.);
#424=ORIENTED_EDGE('',*,*,#604,.T.);
#425=ORIENTED_EDGE('',*,*,#614,.T.);
#426=ORIENTED_EDGE('',*,*,#584,.F.);
#427=ORIENTED_EDGE('',*,*,#580,.F.);
#428=ORIENTED_EDGE('',*,*,#590,.F.);
#429=ORIENTED_EDGE('',*,*,#587,.F.);
#430=ORIENTED_EDGE('',*,*,#620,.F.);
#431=ORIENTED_EDGE('',*,*,#619,.F.);
#432=ORIENTED_EDGE('',*,*,#611,.F.);
#433=ORIENTED_EDGE('',*,*,#618,.F.);
#434=ORIENTED_EDGE('',*,*,#621,.T.);
#435=ORIENTED_EDGE('',*,*,#595,.T.);
#436=ORIENTED_EDGE('',*,*,#598,.T.);
#437=ORIENTED_EDGE('',*,*,#592,.T.);
#438=ORIENTED_EDGE('',*,*,#601,.T.);
#439=ORIENTED_EDGE('',*,*,#617,.F.);
#440=ORIENTED_EDGE('',*,*,#606,.F.);
#441=ORIENTED_EDGE('',*,*,#646,.T.);
#442=ORIENTED_EDGE('',*,*,#648,.T.);
#443=ORIENTED_EDGE('',*,*,#629,.F.);
#444=ORIENTED_EDGE('',*,*,#628,.T.);
#445=ORIENTED_EDGE('',*,*,#649,.T.);
#446=ORIENTED_EDGE('',*,*,#651,.T.);
#447=ORIENTED_EDGE('',*,*,#627,.F.);
#448=ORIENTED_EDGE('',*,*,#626,.T.);
#449=ORIENTED_EDGE('',*,*,#652,.T.);
#450=ORIENTED_EDGE('',*,*,#654,.T.);
#451=ORIENTED_EDGE('',*,*,#625,.F.);
#452=ORIENTED_EDGE('',*,*,#624,.T.);
#453=ORIENTED_EDGE('',*,*,#655,.T.);
#454=ORIENTED_EDGE('',*,*,#657,.T.);
#455=ORIENTED_EDGE('',*,*,#623,.F.);
#456=ORIENTED_EDGE('',*,*,#622,.T.);
#457=ORIENTED_EDGE('',*,*,#636,.F.);
#458=ORIENTED_EDGE('',*,*,#635,.F.);
#459=ORIENTED_EDGE('',*,*,#634,.F.);
#460=ORIENTED_EDGE('',*,*,#641,.F.);
#461=ORIENTED_EDGE('',*,*,#637,.T.);
#462=ORIENTED_EDGE('',*,*,#632,.F.);
#463=ORIENTED_EDGE('',*,*,#634,.T.);
#464=ORIENTED_EDGE('',*,*,#630,.T.);
#465=ORIENTED_EDGE('',*,*,#638,.T.);
#466=ORIENTED_EDGE('',*,*,#630,.F.);
#467=ORIENTED_EDGE('',*,*,#635,.T.);
#468=ORIENTED_EDGE('',*,*,#631,.T.);
#469=ORIENTED_EDGE('',*,*,#639,.T.);
#470=ORIENTED_EDGE('',*,*,#631,.F.);
#471=ORIENTED_EDGE('',*,*,#636,.T.);
#472=ORIENTED_EDGE('',*,*,#633,.T.);
#473=ORIENTED_EDGE('',*,*,#641,.T.);
#474=ORIENTED_EDGE('',*,*,#632,.T.);
#475=ORIENTED_EDGE('',*,*,#640,.F.);
#476=ORIENTED_EDGE('',*,*,#633,.F.);
#477=ORIENTED_EDGE('',*,*,#638,.F.);
#478=ORIENTED_EDGE('',*,*,#639,.F.);
#479=ORIENTED_EDGE('',*,*,#640,.T.);
#480=ORIENTED_EDGE('',*,*,#637,.F.);
#481=ORIENTED_EDGE('',*,*,#656,.F.);
#482=ORIENTED_EDGE('',*,*,#622,.F.);
#483=ORIENTED_EDGE('',*,*,#653,.F.);
#484=ORIENTED_EDGE('',*,*,#624,.F.);
#485=ORIENTED_EDGE('',*,*,#650,.F.);
#486=ORIENTED_EDGE('',*,*,#626,.F.);
#487=ORIENTED_EDGE('',*,*,#647,.F.);
#488=ORIENTED_EDGE('',*,*,#628,.F.);
#489=ORIENTED_EDGE('',*,*,#651,.F.);
#490=ORIENTED_EDGE('',*,*,#643,.F.);
#491=ORIENTED_EDGE('',*,*,#654,.F.);
#492=ORIENTED_EDGE('',*,*,#644,.F.);
#493=ORIENTED_EDGE('',*,*,#657,.F.);
#494=ORIENTED_EDGE('',*,*,#645,.F.);
#495=ORIENTED_EDGE('',*,*,#648,.F.);
#496=ORIENTED_EDGE('',*,*,#642,.F.);
#497=ORIENTED_EDGE('',*,*,#647,.T.);
#498=ORIENTED_EDGE('',*,*,#629,.T.);
#499=ORIENTED_EDGE('',*,*,#642,.T.);
#500=ORIENTED_EDGE('',*,*,#646,.F.);
#501=ORIENTED_EDGE('',*,*,#650,.T.);
#502=ORIENTED_EDGE('',*,*,#627,.T.);
#503=ORIENTED_EDGE('',*,*,#643,.T.);
#504=ORIENTED_EDGE('',*,*,#649,.F.);
#505=ORIENTED_EDGE('',*,*,#653,.T.);
#506=ORIENTED_EDGE('',*,*,#625,.T.);
#507=ORIENTED_EDGE('',*,*,#644,.T.);
#508=ORIENTED_EDGE('',*,*,#652,.F.);
#509=ORIENTED_EDGE('',*,*,#656,.T.);
#510=ORIENTED_EDGE('',*,*,#623,.T.);
#511=ORIENTED_EDGE('',*,*,#645,.T.);
#512=ORIENTED_EDGE('',*,*,#655,.F.);
#513=EDGE_CURVE('',#840,#875,#767,.T.);
#514=EDGE_CURVE('',#840,#839,#748,.T.);
#515=EDGE_CURVE('',#839,#876,#768,.T.);
#516=EDGE_CURVE('',#842,#877,#769,.T.);
#517=EDGE_CURVE('',#842,#841,#749,.T.);
#518=EDGE_CURVE('',#841,#878,#770,.T.);
#519=EDGE_CURVE('',#844,#879,#771,.T.);
#520=EDGE_CURVE('',#844,#843,#750,.T.);
#521=EDGE_CURVE('',#843,#880,#772,.T.);
#522=EDGE_CURVE('',#846,#881,#773,.T.);
#523=EDGE_CURVE('',#846,#845,#751,.T.);
#524=EDGE_CURVE('',#845,#882,#774,.T.);
#525=EDGE_CURVE('',#848,#847,#658,.T.);
#526=EDGE_CURVE('',#849,#850,#659,.T.);
#527=EDGE_CURVE('',#850,#848,#660,.T.);
#528=EDGE_CURVE('',#849,#847,#661,.T.);
#529=EDGE_CURVE('',#851,#852,#662,.T.);
#530=EDGE_CURVE('',#853,#854,#663,.T.);
#531=EDGE_CURVE('',#852,#862,#664,.T.);
#532=EDGE_CURVE('',#851,#861,#665,.T.);
#533=EDGE_CURVE('',#853,#863,#666,.T.);
#534=EDGE_CURVE('',#854,#864,#667,.T.);
#535=EDGE_CURVE('',#866,#855,#668,.T.);
#536=EDGE_CURVE('',#855,#859,#669,.T.);
#537=EDGE_CURVE('',#855,#856,#670,.T.);
#538=EDGE_CURVE('',#856,#860,#671,.T.);
#539=EDGE_CURVE('',#856,#865,#672,.T.);
#540=EDGE_CURVE('',#859,#858,#673,.T.);
#541=EDGE_CURVE('',#860,#859,#674,.T.);
#542=EDGE_CURVE('',#857,#860,#675,.T.);
#543=EDGE_CURVE('',#863,#864,#676,.T.);
#544=EDGE_CURVE('',#865,#868,#677,.T.);
#545=EDGE_CURVE('',#866,#858,#678,.T.);
#546=EDGE_CURVE('',#865,#857,#679,.T.);
#547=EDGE_CURVE('',#858,#871,#680,.T.);
#548=EDGE_CURVE('',#862,#867,#681,.T.);
#549=EDGE_CURVE('',#861,#868,#682,.T.);
#550=EDGE_CURVE('',#869,#870,#683,.T.);
#551=EDGE_CURVE('',#867,#869,#684,.T.);
#552=EDGE_CURVE('',#870,#868,#685,.T.);
#553=EDGE_CURVE('',#867,#866,#686,.T.);
#554=EDGE_CURVE('',#852,#869,#687,.T.);
#555=EDGE_CURVE('',#851,#870,#688,.T.);
#556=EDGE_CURVE('',#853,#852,#689,.T.);
#557=EDGE_CURVE('',#854,#851,#690,.T.);
#558=EDGE_CURVE('',#863,#862,#691,.T.);
#559=EDGE_CURVE('',#864,#861,#692,.T.);
#560=EDGE_CURVE('',#871,#872,#693,.T.);
#561=EDGE_CURVE('',#872,#873,#694,.T.);
#562=EDGE_CURVE('',#873,#874,#695,.T.);
#563=EDGE_CURVE('',#874,#857,#696,.T.);
#564=EDGE_CURVE('',#848,#872,#697,.T.);
#565=EDGE_CURVE('',#847,#871,#698,.T.);
#566=EDGE_CURVE('',#850,#873,#699,.T.);
#567=EDGE_CURVE('',#874,#849,#700,.T.);
#568=EDGE_CURVE('',#875,#876,#752,.T.);
#569=EDGE_CURVE('',#875,#840,#775,.T.);
#570=EDGE_CURVE('',#876,#839,#776,.T.);
#571=EDGE_CURVE('',#877,#878,#753,.T.);
#572=EDGE_CURVE('',#877,#842,#777,.T.);
#573=EDGE_CURVE('',#878,#841,#778,.T.);
#574=EDGE_CURVE('',#879,#880,#754,.T.);
#575=EDGE_CURVE('',#879,#844,#779,.T.);
#576=EDGE_CURVE('',#880,#843,#780,.T.);
#577=EDGE_CURVE('',#881,#882,#755,.T.);
#578=EDGE_CURVE('',#881,#846,#781,.T.);
#579=EDGE_CURVE('',#882,#845,#782,.T.);
#580=EDGE_CURVE('',#883,#884,#701,.T.);
#581=EDGE_CURVE('',#884,#885,#702,.T.);
#582=EDGE_CURVE('',#886,#885,#703,.T.);
#583=EDGE_CURVE('',#883,#886,#704,.T.);
#584=EDGE_CURVE('',#884,#899,#705,.T.);
#585=EDGE_CURVE('',#887,#888,#706,.T.);
#586=EDGE_CURVE('',#885,#888,#707,.T.);
#587=EDGE_CURVE('',#887,#889,#708,.T.);
#588=EDGE_CURVE('',#889,#890,#709,.T.);
#589=EDGE_CURVE('',#888,#890,#710,.T.);
#590=EDGE_CURVE('',#889,#883,#711,.T.);
#591=EDGE_CURVE('',#890,#886,#712,.T.);
#592=EDGE_CURVE('',#891,#895,#713,.T.);
#593=EDGE_CURVE('',#892,#896,#714,.T.);
#594=EDGE_CURVE('',#891,#892,#715,.T.);
#595=EDGE_CURVE('',#897,#893,#716,.T.);
#596=EDGE_CURVE('',#893,#894,#717,.T.);
#597=EDGE_CURVE('',#898,#894,#718,.T.);
#598=EDGE_CURVE('',#893,#891,#719,.T.);
#599=EDGE_CURVE('',#894,#892,#720,.T.);
#600=EDGE_CURVE('',#895,#896,#721,.T.);
#601=EDGE_CURVE('',#895,#900,#722,.T.);
#602=EDGE_CURVE('',#897,#898,#723,.T.);
#603=EDGE_CURVE('',#896,#898,#724,.T.);
#604=EDGE_CURVE('',#903,#904,#783,.T.);
#605=EDGE_CURVE('',#904,#908,#756,.T.);
#606=EDGE_CURVE('',#907,#908,#784,.T.);
#607=EDGE_CURVE('',#903,#907,#757,.T.);
#608=EDGE_CURVE('',#905,#909,#725,.T.);
#609=EDGE_CURVE('',#905,#906,#785,.T.);
#610=EDGE_CURVE('',#906,#910,#758,.T.);
#611=EDGE_CURVE('',#909,#910,#786,.T.);
#612=EDGE_CURVE('',#899,#900,#726,.T.);
#613=EDGE_CURVE('',#901,#902,#727,.T.);
#614=EDGE_CURVE('',#904,#899,#728,.T.);
#615=EDGE_CURVE('',#901,#905,#729,.T.);
#616=EDGE_CURVE('',#906,#903,#730,.T.);
#617=EDGE_CURVE('',#908,#900,#731,.T.);
#618=EDGE_CURVE('',#902,#909,#732,.T.);
#619=EDGE_CURVE('',#910,#907,#733,.T.);
#620=EDGE_CURVE('',#901,#887,#734,.T.);
#621=EDGE_CURVE('',#902,#897,#735,.T.);
#622=EDGE_CURVE('',#911,#933,#787,.T.);
#623=EDGE_CURVE('',#911,#926,#759,.T.);
#624=EDGE_CURVE('',#912,#931,#788,.T.);
#625=EDGE_CURVE('',#912,#925,#760,.T.);
#626=EDGE_CURVE('',#913,#929,#789,.T.);
#627=EDGE_CURVE('',#913,#924,#761,.T.);
#628=EDGE_CURVE('',#914,#927,#790,.T.);
#629=EDGE_CURVE('',#914,#923,#762,.T.);
#630=EDGE_CURVE('',#919,#921,#736,.T.);
#631=EDGE_CURVE('',#920,#922,#737,.T.);
#632=EDGE_CURVE('',#917,#916,#738,.T.);
#633=EDGE_CURVE('',#918,#915,#739,.T.);
#634=EDGE_CURVE('',#917,#919,#740,.T.);
#635=EDGE_CURVE('',#919,#920,#741,.T.);
#636=EDGE_CURVE('',#920,#918,#742,.T.);
#637=EDGE_CURVE('',#921,#916,#743,.T.);
#638=EDGE_CURVE('',#922,#921,#744,.T.);
#639=EDGE_CURVE('',#915,#922,#745,.T.);
#640=EDGE_CURVE('',#915,#916,#746,.T.);
#641=EDGE_CURVE('',#918,#917,#747,.T.);
#642=EDGE_CURVE('',#923,#928,#791,.T.);
#643=EDGE_CURVE('',#924,#930,#792,.T.);
#644=EDGE_CURVE('',#925,#932,#793,.T.);
#645=EDGE_CURVE('',#926,#934,#794,.T.);
#646=EDGE_CURVE('',#927,#928,#763,.T.);
#647=EDGE_CURVE('',#927,#914,#795,.T.);
#648=EDGE_CURVE('',#928,#923,#796,.T.);
#649=EDGE_CURVE('',#929,#930,#764,.T.);
#650=EDGE_CURVE('',#929,#913,#797,.T.);
#651=EDGE_CURVE('',#930,#924,#798,.T.);
#652=EDGE_CURVE('',#931,#932,#765,.T.);
#653=EDGE_CURVE('',#931,#912,#799,.T.);
#654=EDGE_CURVE('',#932,#925,#800,.T.);
#655=EDGE_CURVE('',#933,#934,#766,.T.);
#656=EDGE_CURVE('',#933,#911,#801,.T.);
#657=EDGE_CURVE('',#934,#926,#802,.T.);
#658=B_SPLINE_CURVE_WITH_KNOTS('',1,(#1431,#1432),.UNSPECIFIED.,.F.,.F.,
(2,2),(22.1,44.1),.UNSPECIFIED.);
#659=B_SPLINE_CURVE_WITH_KNOTS('',1,(#1433,#1434),.UNSPECIFIED.,.F.,.F.,
(2,2),(-22.,0.),.UNSPECIFIED.);
#660=B_SPLINE_CURVE_WITH_KNOTS('',1,(#1435,#1436),.UNSPECIFIED.,.F.,.F.,
(2,2),(0.0500000000000114,21.85),.UNSPECIFIED.);
#661=B_SPLINE_CURVE_WITH_KNOTS('',1,(#1437,#1438),.UNSPECIFIED.,.F.,.F.,
(2,2),(0.0500000000000114,21.85),.UNSPECIFIED.);
#662=B_SPLINE_CURVE_WITH_KNOTS('',1,(#1439,#1440),.UNSPECIFIED.,.F.,.F.,
(2,2),(1.,10.),.UNSPECIFIED.);
#663=B_SPLINE_CURVE_WITH_KNOTS('',1,(#1441,#1442),.UNSPECIFIED.,.F.,.F.,
(2,2),(19.,28.),.UNSPECIFIED.);
#664=B_SPLINE_CURVE_WITH_KNOTS('',1,(#1443,#1444),.UNSPECIFIED.,.F.,.F.,
(2,2),(1.,10.),.UNSPECIFIED.);
#665=B_SPLINE_CURVE_WITH_KNOTS('',1,(#1445,#1446),.UNSPECIFIED.,.F.,.F.,
(2,2),(1.,10.),.UNSPECIFIED.);
#666=B_SPLINE_CURVE_WITH_KNOTS('',1,(#1447,#1448),.UNSPECIFIED.,.F.,.F.,
(2,2),(1.,10.),.UNSPECIFIED.);
#667=B_SPLINE_CURVE_WITH_KNOTS('',1,(#1449,#1450),.UNSPECIFIED.,.F.,.F.,
(2,2),(1.,10.),.UNSPECIFIED.);
#668=B_SPLINE_CURVE_WITH_KNOTS('',1,(#1451,#1452),.UNSPECIFIED.,.F.,.F.,
(2,2),(10.5,20.5),.UNSPECIFIED.);
#669=B_SPLINE_CURVE_WITH_KNOTS('',1,(#1453,#1454),.UNSPECIFIED.,.F.,.F.,
(2,2),(0.,0.999999999999999),.UNSPECIFIED.);
#670=B_SPLINE_CURVE_WITH_KNOTS('',1,(#1455,#1456),.UNSPECIFIED.,.F.,.F.,
(2,2),(20.5,30.5),.UNSPECIFIED.);
#671=B_SPLINE_CURVE_WITH_KNOTS('',1,(#1457,#1458),.UNSPECIFIED.,.F.,.F.,
(2,2),(0.,0.999999999999999),.UNSPECIFIED.);
#672=B_SPLINE_CURVE_WITH_KNOTS('',1,(#1459,#1460),.UNSPECIFIED.,.F.,.F.,
(2,2),(30.5,40.5),.UNSPECIFIED.);
#673=B_SPLINE_CURVE_WITH_KNOTS('',1,(#1461,#1462),.UNSPECIFIED.,.F.,.F.,
(2,2),(-20.5,-10.5),.UNSPECIFIED.);
#674=B_SPLINE_CURVE_WITH_KNOTS('',1,(#1463,#1464),.UNSPECIFIED.,.F.,.F.,
(2,2),(-30.5,-20.5),.UNSPECIFIED.);
#675=B_SPLINE_CURVE_WITH_KNOTS('',1,(#1465,#1466),.UNSPECIFIED.,.F.,.F.,
(2,2),(0.,10.5),.UNSPECIFIED.);
#676=B_SPLINE_CURVE_WITH_KNOTS('',1,(#1467,#1468),.UNSPECIFIED.,.F.,.F.,
(2,2),(-9.5,-0.5),.UNSPECIFIED.);
#677=B_SPLINE_CURVE_WITH_KNOTS('',1,(#1469,#1470),.UNSPECIFIED.,.F.,.F.,
(2,2),(0.5,1.),.UNSPECIFIED.);
#678=B_SPLINE_CURVE_WITH_KNOTS('',1,(#1471,#1472),.UNSPECIFIED.,.F.,.F.,
(2,2),(0.,1.),.UNSPECIFIED.);
#679=B_SPLINE_CURVE_WITH_KNOTS('',1,(#1473,#1474),.UNSPECIFIED.,.F.,.F.,
(2,2),(0.,1.),.UNSPECIFIED.);
#680=B_SPLINE_CURVE_WITH_KNOTS('',1,(#1475,#1476),.UNSPECIFIED.,.F.,.F.,
(2,2),(10.5,10.95),.UNSPECIFIED.);
#681=B_SPLINE_CURVE_WITH_KNOTS('',1,(#1477,#1478),.UNSPECIFIED.,.F.,.F.,
(2,2),(2.,4.),.UNSPECIFIED.);
#682=B_SPLINE_CURVE_WITH_KNOTS('',1,(#1479,#1480),.UNSPECIFIED.,.F.,.F.,
(2,2),(2.,4.),.UNSPECIFIED.);
#683=B_SPLINE_CURVE_WITH_KNOTS('',1,(#1481,#1482),.UNSPECIFIED.,.F.,.F.,
(2,2),(-10.,-1.),.UNSPECIFIED.);
#684=B_SPLINE_CURVE_WITH_KNOTS('',1,(#1483,#1484),.UNSPECIFIED.,.F.,.F.,
(2,2),(-36.,-18.),.UNSPECIFIED.);
#685=B_SPLINE_CURVE_WITH_KNOTS('',1,(#1485,#1486),.UNSPECIFIED.,.F.,.F.,
(2,2),(1.,10.),.UNSPECIFIED.);
#686=B_SPLINE_CURVE_WITH_KNOTS('',1,(#1487,#1488),.UNSPECIFIED.,.F.,.F.,
(2,2),(10.,10.5),.UNSPECIFIED.);
#687=B_SPLINE_CURVE_WITH_KNOTS('',1,(#1489,#1490),.UNSPECIFIED.,.F.,.F.,
(2,2),(2.,4.),.UNSPECIFIED.);
#688=B_SPLINE_CURVE_WITH_KNOTS('',1,(#1491,#1492),.UNSPECIFIED.,.F.,.F.,
(2,2),(2.,4.),.UNSPECIFIED.);
#689=B_SPLINE_CURVE_WITH_KNOTS('',1,(#1493,#1494,#1495),.UNSPECIFIED.,.F.,
 .F.,(2,1,2),(-19.,-11.,-10.),.UNSPECIFIED.);
#690=B_SPLINE_CURVE_WITH_KNOTS('',1,(#1496,#1497,#1498),.UNSPECIFIED.,.F.,
 .F.,(2,1,2),(-10.,-2.,-1.),.UNSPECIFIED.);
#691=B_SPLINE_CURVE_WITH_KNOTS('',1,(#1499,#1500,#1501),.UNSPECIFIED.,.F.,
 .F.,(2,1,2),(-10.,-2.,-1.),.UNSPECIFIED.);
#692=B_SPLINE_CURVE_WITH_KNOTS('',1,(#1502,#1503,#1504),.UNSPECIFIED.,.F.,
 .F.,(2,1,2),(-10.,-2.,-1.),.UNSPECIFIED.);
#693=B_SPLINE_CURVE_WITH_KNOTS('',1,(#1505,#1506),.UNSPECIFIED.,.F.,.F.,
(2,2),(-44.2,-22.2),.UNSPECIFIED.);
#694=B_SPLINE_CURVE_WITH_KNOTS('',1,(#1507,#1508),.UNSPECIFIED.,.F.,.F.,
(2,2),(22.05,32.95),.UNSPECIFIED.);
#695=B_SPLINE_CURVE_WITH_KNOTS('',1,(#1509,#1510),.UNSPECIFIED.,.F.,.F.,
(2,2),(-22.1,-0.0999999999999947),.UNSPECIFIED.);
#696=B_SPLINE_CURVE_WITH_KNOTS('',1,(#1511,#1512),.UNSPECIFIED.,.F.,.F.,
(2,2),(0.0499999999999972,0.5),.UNSPECIFIED.);
#697=B_SPLINE_CURVE_WITH_KNOTS('',1,(#1513,#1514),.UNSPECIFIED.,.F.,.F.,
(2,2),(0.,24.),.UNSPECIFIED.);
#698=B_SPLINE_CURVE_WITH_KNOTS('',1,(#1515,#1516),.UNSPECIFIED.,.F.,.F.,
(2,2),(0.,24.),.UNSPECIFIED.);
#699=B_SPLINE_CURVE_WITH_KNOTS('',1,(#1517,#1518),.UNSPECIFIED.,.F.,.F.,
(2,2),(0.,24.),.UNSPECIFIED.);
#700=B_SPLINE_CURVE_WITH_KNOTS('',1,(#1519,#1520),.UNSPECIFIED.,.F.,.F.,
(2,2),(0.,24.),.UNSPECIFIED.);
#701=B_SPLINE_CURVE_WITH_KNOTS('',1,(#1597,#1598),.UNSPECIFIED.,.F.,.F.,
(2,2),(-72.,-54.),.UNSPECIFIED.);
#702=B_SPLINE_CURVE_WITH_KNOTS('',1,(#1599,#1600),.UNSPECIFIED.,.F.,.F.,
(2,2),(0.,19.8),.UNSPECIFIED.);
#703=B_SPLINE_CURVE_WITH_KNOTS('',1,(#1601,#1602),.UNSPECIFIED.,.F.,.F.,
(2,2),(-72.,-54.),.UNSPECIFIED.);
#704=B_SPLINE_CURVE_WITH_KNOTS('',1,(#1603,#1604),.UNSPECIFIED.,.F.,.F.,
(2,2),(0.,19.8),.UNSPECIFIED.);
#705=B_SPLINE_CURVE_WITH_KNOTS('',1,(#1605,#1606),.UNSPECIFIED.,.F.,.F.,
(2,2),(-54.,-47.5568181818182),.UNSPECIFIED.);
#706=B_SPLINE_CURVE_WITH_KNOTS('',1,(#1607,#1608),.UNSPECIFIED.,.F.,.F.,
(2,2),(0.,19.8),.UNSPECIFIED.);
#707=B_SPLINE_CURVE_WITH_KNOTS('',1,(#1609,#1610),.UNSPECIFIED.,.F.,.F.,
(2,2),(-54.,-36.),.UNSPECIFIED.);
#708=B_SPLINE_CURVE_WITH_KNOTS('',1,(#1611,#1612),.UNSPECIFIED.,.F.,.F.,
(2,2),(-36.,-18.),.UNSPECIFIED.);
#709=B_SPLINE_CURVE_WITH_KNOTS('',1,(#1613,#1614),.UNSPECIFIED.,.F.,.F.,
(2,2),(0.,19.8),.UNSPECIFIED.);
#710=B_SPLINE_CURVE_WITH_KNOTS('',1,(#1615,#1616),.UNSPECIFIED.,.F.,.F.,
(2,2),(-36.,-18.),.UNSPECIFIED.);
#711=B_SPLINE_CURVE_WITH_KNOTS('',1,(#1617,#1618),.UNSPECIFIED.,.F.,.F.,
(2,2),(-18.,0.),.UNSPECIFIED.);
#712=B_SPLINE_CURVE_WITH_KNOTS('',1,(#1619,#1620),.UNSPECIFIED.,.F.,.F.,
(2,2),(-18.,0.),.UNSPECIFIED.);
#713=B_SPLINE_CURVE_WITH_KNOTS('',1,(#1621,#1622),.UNSPECIFIED.,.F.,.F.,
(2,2),(-57.6818181818182,-43.7727272727273),.UNSPECIFIED.);
#714=B_SPLINE_CURVE_WITH_KNOTS('',1,(#1623,#1624),.UNSPECIFIED.,.F.,.F.,
(2,2),(-57.6818181818182,-43.7727272727273),.UNSPECIFIED.);
#715=B_SPLINE_CURVE_WITH_KNOTS('',1,(#1625,#1626),.UNSPECIFIED.,.F.,.F.,
(2,2),(0.,15.8),.UNSPECIFIED.);
#716=B_SPLINE_CURVE_WITH_KNOTS('',1,(#1627,#1628),.UNSPECIFIED.,.F.,.F.,
(2,2),(-29.8636363636364,-15.9545454545454),.UNSPECIFIED.);
#717=B_SPLINE_CURVE_WITH_KNOTS('',1,(#1629,#1630),.UNSPECIFIED.,.F.,.F.,
(2,2),(0.,15.8),.UNSPECIFIED.);
#718=B_SPLINE_CURVE_WITH_KNOTS('',1,(#1631,#1632),.UNSPECIFIED.,.F.,.F.,
(2,2),(-29.8636363636364,-15.9545454545454),.UNSPECIFIED.);
#719=B_SPLINE_CURVE_WITH_KNOTS('',1,(#1633,#1634),.UNSPECIFIED.,.F.,.F.,
(2,2),(-15.9545454545454,-2.04545454545455),.UNSPECIFIED.);
#720=B_SPLINE_CURVE_WITH_KNOTS('',1,(#1635,#1636),.UNSPECIFIED.,.F.,.F.,
(2,2),(-15.9545454545454,-2.04545454545455),.UNSPECIFIED.);
#721=B_SPLINE_CURVE_WITH_KNOTS('',1,(#1637,#1638),.UNSPECIFIED.,.F.,.F.,
(2,2),(0.,15.8),.UNSPECIFIED.);
#722=B_SPLINE_CURVE_WITH_KNOTS('',1,(#1639,#1640),.UNSPECIFIED.,.F.,.F.,
(2,2),(-43.7727272727273,-39.375),.UNSPECIFIED.);
#723=B_SPLINE_CURVE_WITH_KNOTS('',1,(#1641,#1642),.UNSPECIFIED.,.F.,.F.,
(2,2),(0.,15.8),.UNSPECIFIED.);
#724=B_SPLINE_CURVE_WITH_KNOTS('',1,(#1643,#1644),.UNSPECIFIED.,.F.,.F.,
(2,2),(-43.7727272727273,-29.8636363636364),.UNSPECIFIED.);
#725=B_SPLINE_CURVE_WITH_KNOTS('',1,(#1655,#1656),.UNSPECIFIED.,.F.,.F.,
(2,2),(0.,2.),.UNSPECIFIED.);
#726=B_SPLINE_CURVE_WITH_KNOTS('',1,(#1665,#1666),.UNSPECIFIED.,.F.,.F.,
(2,2),(0.,2.),.UNSPECIFIED.);
#727=B_SPLINE_CURVE_WITH_KNOTS('',1,(#1667,#1668),.UNSPECIFIED.,.F.,.F.,
(2,2),(0.,2.),.UNSPECIFIED.);
#728=B_SPLINE_CURVE_WITH_KNOTS('',1,(#1669,#1670),.UNSPECIFIED.,.F.,.F.,
(2,2),(-27.4274333882308,-26.7274333882308),.UNSPECIFIED.);
#729=B_SPLINE_CURVE_WITH_KNOTS('',1,(#1671,#1672),.UNSPECIFIED.,.F.,.F.,
(2,2),(-21.7274333882308,-21.0274333882308),.UNSPECIFIED.);
#730=B_SPLINE_CURVE_WITH_KNOTS('',1,(#1673,#1674),.UNSPECIFIED.,.F.,.F.,
(2,2),(-18.2,-16.8),.UNSPECIFIED.);
#731=B_SPLINE_CURVE_WITH_KNOTS('',1,(#1675,#1676),.UNSPECIFIED.,.F.,.F.,
(2,2),(-27.4274333882308,-26.7274333882308),.UNSPECIFIED.);
#732=B_SPLINE_CURVE_WITH_KNOTS('',1,(#1677,#1678),.UNSPECIFIED.,.F.,.F.,
(2,2),(-21.7274333882308,-21.0274333882308),.UNSPECIFIED.);
#733=B_SPLINE_CURVE_WITH_KNOTS('',1,(#1679,#1680),.UNSPECIFIED.,.F.,.F.,
(2,2),(-18.2,-16.8),.UNSPECIFIED.);
#734=B_SPLINE_CURVE_WITH_KNOTS('',1,(#1681,#1682),.UNSPECIFIED.,.F.,.F.,
(2,2),(-42.4431818181818,-36.),.UNSPECIFIED.);
#735=B_SPLINE_CURVE_WITH_KNOTS('',1,(#1683,#1684),.UNSPECIFIED.,.F.,.F.,
(2,2),(-34.2613636363636,-29.8636363636364),.UNSPECIFIED.);
#736=B_SPLINE_CURVE_WITH_KNOTS('',1,(#1747,#1748),.UNSPECIFIED.,.F.,.F.,
(2,2),(0.,0.999999999999999),.UNSPECIFIED.);
#737=B_SPLINE_CURVE_WITH_KNOTS('',1,(#1749,#1750),.UNSPECIFIED.,.F.,.F.,
(2,2),(0.,0.999999999999999),.UNSPECIFIED.);
#738=B_SPLINE_CURVE_WITH_KNOTS('',1,(#1751,#1752),.UNSPECIFIED.,.F.,.F.,
(2,2),(0.,1.),.UNSPECIFIED.);
#739=B_SPLINE_CURVE_WITH_KNOTS('',1,(#1753,#1754),.UNSPECIFIED.,.F.,.F.,
(2,2),(0.,1.),.UNSPECIFIED.);
#740=B_SPLINE_CURVE_WITH_KNOTS('',1,(#1755,#1756),.UNSPECIFIED.,.F.,.F.,
(2,2),(10.5,20.5),.UNSPECIFIED.);
#741=B_SPLINE_CURVE_WITH_KNOTS('',1,(#1757,#1758),.UNSPECIFIED.,.F.,.F.,
(2,2),(20.5,30.5),.UNSPECIFIED.);
#742=B_SPLINE_CURVE_WITH_KNOTS('',1,(#1759,#1760),.UNSPECIFIED.,.F.,.F.,
(2,2),(30.5,40.5),.UNSPECIFIED.);
#743=B_SPLINE_CURVE_WITH_KNOTS('',1,(#1761,#1762),.UNSPECIFIED.,.F.,.F.,
(2,2),(-20.5,-10.5),.UNSPECIFIED.);
#744=B_SPLINE_CURVE_WITH_KNOTS('',1,(#1763,#1764),.UNSPECIFIED.,.F.,.F.,
(2,2),(-30.5,-20.5),.UNSPECIFIED.);
#745=B_SPLINE_CURVE_WITH_KNOTS('',1,(#1765,#1766),.UNSPECIFIED.,.F.,.F.,
(2,2),(0.,10.5),.UNSPECIFIED.);
#746=B_SPLINE_CURVE_WITH_KNOTS('',1,(#1767,#1768),.UNSPECIFIED.,.F.,.F.,
(2,2),(397.090909090909,538.909090909091),.UNSPECIFIED.);
#747=B_SPLINE_CURVE_WITH_KNOTS('',1,(#1769,#1770,#1771,#1772),
 .UNSPECIFIED.,.F.,.F.,(2,1,1,2),(397.090909090909,404.181818181818,531.818181818182,
538.909090909091),.UNSPECIFIED.);
#748=(
BOUNDED_CURVE()
B_SPLINE_CURVE(1,(#1402,#1403),.UNSPECIFIED.,.F.,.F.)
B_SPLINE_CURVE_WITH_KNOTS((2,2),(0.,2.),.UNSPECIFIED.)
CURVE()
GEOMETRIC_REPRESENTATION_ITEM()
RATIONAL_B_SPLINE_CURVE((1.,1.))
REPRESENTATION_ITEM('')
);
#749=(
BOUNDED_CURVE()
B_SPLINE_CURVE(1,(#1410,#1411),.UNSPECIFIED.,.F.,.F.)
B_SPLINE_CURVE_WITH_KNOTS((2,2),(0.,2.),.UNSPECIFIED.)
CURVE()
GEOMETRIC_REPRESENTATION_ITEM()
RATIONAL_B_SPLINE_CURVE((1.,1.))
REPRESENTATION_ITEM('')
);
#750=(
BOUNDED_CURVE()
B_SPLINE_CURVE(1,(#1418,#1419),.UNSPECIFIED.,.F.,.F.)
B_SPLINE_CURVE_WITH_KNOTS((2,2),(0.,2.),.UNSPECIFIED.)
CURVE()
GEOMETRIC_REPRESENTATION_ITEM()
RATIONAL_B_SPLINE_CURVE((1.,1.))
REPRESENTATION_ITEM('')
);
#751=(
BOUNDED_CURVE()
B_SPLINE_CURVE(1,(#1426,#1427),.UNSPECIFIED.,.F.,.F.)
B_SPLINE_CURVE_WITH_KNOTS((2,2),(0.,2.),.UNSPECIFIED.)
CURVE()
GEOMETRIC_REPRESENTATION_ITEM()
RATIONAL_B_SPLINE_CURVE((1.,1.))
REPRESENTATION_ITEM('')
);
#752=(
BOUNDED_CURVE()
B_SPLINE_CURVE(1,(#1521,#1522),.UNSPECIFIED.,.F.,.F.)
B_SPLINE_CURVE_WITH_KNOTS((2,2),(0.,2.),.UNSPECIFIED.)
CURVE()
GEOMETRIC_REPRESENTATION_ITEM()
RATIONAL_B_SPLINE_CURVE((1.,1.))
REPRESENTATION_ITEM('')
);
#753=(
BOUNDED_CURVE()
B_SPLINE_CURVE(1,(#1529,#1530),.UNSPECIFIED.,.F.,.F.)
B_SPLINE_CURVE_WITH_KNOTS((2,2),(0.,2.),.UNSPECIFIED.)
CURVE()
GEOMETRIC_REPRESENTATION_ITEM()
RATIONAL_B_SPLINE_CURVE((1.,1.))
REPRESENTATION_ITEM('')
);
#754=(
BOUNDED_CURVE()
B_SPLINE_CURVE(1,(#1537,#1538),.UNSPECIFIED.,.F.,.F.)
B_SPLINE_CURVE_WITH_KNOTS((2,2),(0.,2.),.UNSPECIFIED.)
CURVE()
GEOMETRIC_REPRESENTATION_ITEM()
RATIONAL_B_SPLINE_CURVE((1.,1.))
REPRESENTATION_ITEM('')
);
#755=(
BOUNDED_CURVE()
B_SPLINE_CURVE(1,(#1545,#1546),.UNSPECIFIED.,.F.,.F.)
B_SPLINE_CURVE_WITH_KNOTS((2,2),(0.,2.),.UNSPECIFIED.)
CURVE()
GEOMETRIC_REPRESENTATION_ITEM()
RATIONAL_B_SPLINE_CURVE((1.,1.))
REPRESENTATION_ITEM('')
);
#756=(
BOUNDED_CURVE()
B_SPLINE_CURVE(1,(#1648,#1649),.UNSPECIFIED.,.F.,.F.)
B_SPLINE_CURVE_WITH_KNOTS((2,2),(0.,2.),.UNSPECIFIED.)
CURVE()
GEOMETRIC_REPRESENTATION_ITEM()
RATIONAL_B_SPLINE_CURVE((1.,1.))
REPRESENTATION_ITEM('')
);
#757=(
BOUNDED_CURVE()
B_SPLINE_CURVE(1,(#1653,#1654),.UNSPECIFIED.,.F.,.F.)
B_SPLINE_CURVE_WITH_KNOTS((2,2),(0.,2.),.UNSPECIFIED.)
CURVE()
GEOMETRIC_REPRESENTATION_ITEM()
RATIONAL_B_SPLINE_CURVE((1.,1.))
REPRESENTATION_ITEM('')
);
#758=(
BOUNDED_CURVE()
B_SPLINE_CURVE(1,(#1660,#1661),.UNSPECIFIED.,.F.,.F.)
B_SPLINE_CURVE_WITH_KNOTS((2,2),(0.,2.),.UNSPECIFIED.)
CURVE()
GEOMETRIC_REPRESENTATION_ITEM()
RATIONAL_B_SPLINE_CURVE((1.,1.))
REPRESENTATION_ITEM('')
);
#759=(
BOUNDED_CURVE()
B_SPLINE_CURVE(1,(#1730,#1731),.UNSPECIFIED.,.F.,.F.)
B_SPLINE_CURVE_WITH_KNOTS((2,2),(2.00000000000001,3.8),.UNSPECIFIED.)
CURVE()
GEOMETRIC_REPRESENTATION_ITEM()
RATIONAL_B_SPLINE_CURVE((1.,1.))
REPRESENTATION_ITEM('')
);
#760=(
BOUNDED_CURVE()
B_SPLINE_CURVE(1,(#1735,#1736),.UNSPECIFIED.,.F.,.F.)
B_SPLINE_CURVE_WITH_KNOTS((2,2),(2.00000000000001,3.8),.UNSPECIFIED.)
CURVE()
GEOMETRIC_REPRESENTATION_ITEM()
RATIONAL_B_SPLINE_CURVE((1.,1.))
REPRESENTATION_ITEM('')
);
#761=(
BOUNDED_CURVE()
B_SPLINE_CURVE(1,(#1740,#1741),.UNSPECIFIED.,.F.,.F.)
B_SPLINE_CURVE_WITH_KNOTS((2,2),(1.99999999999999,3.8),.UNSPECIFIED.)
CURVE()
GEOMETRIC_REPRESENTATION_ITEM()
RATIONAL_B_SPLINE_CURVE((1.,1.))
REPRESENTATION_ITEM('')
);
#762=(
BOUNDED_CURVE()
B_SPLINE_CURVE(1,(#1745,#1746),.UNSPECIFIED.,.F.,.F.)
B_SPLINE_CURVE_WITH_KNOTS((2,2),(2.00000000000001,3.8),.UNSPECIFIED.)
CURVE()
GEOMETRIC_REPRESENTATION_ITEM()
RATIONAL_B_SPLINE_CURVE((1.,1.))
REPRESENTATION_ITEM('')
);
#763=(
BOUNDED_CURVE()
B_SPLINE_CURVE(1,(#1785,#1786),.UNSPECIFIED.,.F.,.F.)
B_SPLINE_CURVE_WITH_KNOTS((2,2),(2.00000000000003,3.79999999999999),
 .UNSPECIFIED.)
CURVE()
GEOMETRIC_REPRESENTATION_ITEM()
RATIONAL_B_SPLINE_CURVE((1.,1.))
REPRESENTATION_ITEM('')
);
#764=(
BOUNDED_CURVE()
B_SPLINE_CURVE(1,(#1793,#1794),.UNSPECIFIED.,.F.,.F.)
B_SPLINE_CURVE_WITH_KNOTS((2,2),(2.,3.8),.UNSPECIFIED.)
CURVE()
GEOMETRIC_REPRESENTATION_ITEM()
RATIONAL_B_SPLINE_CURVE((1.,1.))
REPRESENTATION_ITEM('')
);
#765=(
BOUNDED_CURVE()
B_SPLINE_CURVE(1,(#1801,#1802),.UNSPECIFIED.,.F.,.F.)
B_SPLINE_CURVE_WITH_KNOTS((2,2),(2.00000000000003,3.79999999999999),
 .UNSPECIFIED.)
CURVE()
GEOMETRIC_REPRESENTATION_ITEM()
RATIONAL_B_SPLINE_CURVE((1.,1.))
REPRESENTATION_ITEM('')
);
#766=(
BOUNDED_CURVE()
B_SPLINE_CURVE(1,(#1809,#1810),.UNSPECIFIED.,.F.,.F.)
B_SPLINE_CURVE_WITH_KNOTS((2,2),(2.00000000000003,3.79999999999999),
 .UNSPECIFIED.)
CURVE()
GEOMETRIC_REPRESENTATION_ITEM()
RATIONAL_B_SPLINE_CURVE((1.,1.))
REPRESENTATION_ITEM('')
);
#767=TRIMMED_CURVE($,#803,(#1400),(#1401),.T.,.CARTESIAN.);
#768=TRIMMED_CURVE($,#804,(#1405),(#1406),.T.,.CARTESIAN.);
#769=TRIMMED_CURVE($,#805,(#1408),(#1409),.T.,.CARTESIAN.);
#770=TRIMMED_CURVE($,#806,(#1413),(#1414),.T.,.CARTESIAN.);
#771=TRIMMED_CURVE($,#807,(#1416),(#1417),.T.,.CARTESIAN.);
#772=TRIMMED_CURVE($,#808,(#1421),(#1422),.T.,.CARTESIAN.);
#773=TRIMMED_CURVE($,#809,(#1424),(#1425),.T.,.CARTESIAN.);
#774=TRIMMED_CURVE($,#810,(#1429),(#1430),.T.,.CARTESIAN.);
#775=TRIMMED_CURVE($,#811,(#1524),(#1525),.T.,.CARTESIAN.);
#776=TRIMMED_CURVE($,#812,(#1527),(#1528),.T.,.CARTESIAN.);
#777=TRIMMED_CURVE($,#813,(#1532),(#1533),.T.,.CARTESIAN.);
#778=TRIMMED_CURVE($,#814,(#1535),(#1536),.T.,.CARTESIAN.);
#779=TRIMMED_CURVE($,#815,(#1540),(#1541),.T.,.CARTESIAN.);
#780=TRIMMED_CURVE($,#816,(#1543),(#1544),.T.,.CARTESIAN.);
#781=TRIMMED_CURVE($,#817,(#1548),(#1549),.T.,.CARTESIAN.);
#782=TRIMMED_CURVE($,#818,(#1551),(#1552),.T.,.CARTESIAN.);
#783=TRIMMED_CURVE($,#819,(#1646),(#1647),.T.,.CARTESIAN.);
#784=TRIMMED_CURVE($,#820,(#1651),(#1652),.T.,.CARTESIAN.);
#785=TRIMMED_CURVE($,#821,(#1658),(#1659),.T.,.CARTESIAN.);
#786=TRIMMED_CURVE($,#822,(#1663),(#1664),.T.,.CARTESIAN.);
#787=TRIMMED_CURVE($,#823,(#1728),(#1729),.T.,.CARTESIAN.);
#788=TRIMMED_CURVE($,#824,(#1733),(#1734),.T.,.CARTESIAN.);
#789=TRIMMED_CURVE($,#825,(#1738),(#1739),.T.,.CARTESIAN.);
#790=TRIMMED_CURVE($,#826,(#1743),(#1744),.T.,.CARTESIAN.);
#791=TRIMMED_CURVE($,#827,(#1774),(#1775),.T.,.CARTESIAN.);
#792=TRIMMED_CURVE($,#828,(#1777),(#1778),.T.,.CARTESIAN.);
#793=TRIMMED_CURVE($,#829,(#1780),(#1781),.T.,.CARTESIAN.);
#794=TRIMMED_CURVE($,#830,(#1783),(#1784),.T.,.CARTESIAN.);
#795=TRIMMED_CURVE($,#831,(#1788),(#1789),.T.,.CARTESIAN.);
#796=TRIMMED_CURVE($,#832,(#1791),(#1792),.T.,.CARTESIAN.);
#797=TRIMMED_CURVE($,#833,(#1796),(#1797),.T.,.CARTESIAN.);
#798=TRIMMED_CURVE($,#834,(#1799),(#1800),.T.,.CARTESIAN.);
#799=TRIMMED_CURVE($,#835,(#1804),(#1805),.T.,.CARTESIAN.);
#800=TRIMMED_CURVE($,#836,(#1807),(#1808),.T.,.CARTESIAN.);
#801=TRIMMED_CURVE($,#837,(#1812),(#1813),.T.,.CARTESIAN.);
#802=TRIMMED_CURVE($,#838,(#1815),(#1816),.T.,.CARTESIAN.);
#803=CIRCLE('',#1115,3.535);
#804=CIRCLE('',#1116,3.535);
#805=CIRCLE('',#1117,3.535);
#806=CIRCLE('',#1118,3.535);
#807=CIRCLE('',#1119,3.535);
#808=CIRCLE('',#1120,3.535);
#809=CIRCLE('',#1121,3.535);
#810=CIRCLE('',#1122,3.535);
#811=CIRCLE('',#1123,3.535);
#812=CIRCLE('',#1124,3.535);
#813=CIRCLE('',#1125,3.535);
#814=CIRCLE('',#1126,3.535);
#815=CIRCLE('',#1127,3.535);
#816=CIRCLE('',#1128,3.535);
#817=CIRCLE('',#1129,3.535);
#818=CIRCLE('',#1130,3.535);
#819=CIRCLE('',#1147,1.79999999999999);
#820=CIRCLE('',#1148,1.79999999999998);
#821=CIRCLE('',#1149,1.79999999999995);
#822=CIRCLE('',#1150,1.79999999999995);
#823=CIRCLE('',#1169,3.38461538461539);
#824=CIRCLE('',#1170,3.38461538461539);
#825=CIRCLE('',#1171,3.38461538461539);
#826=CIRCLE('',#1172,3.38461538461542);
#827=CIRCLE('',#1173,3.38461538461539);
#828=CIRCLE('',#1174,3.38461538461542);
#829=CIRCLE('',#1175,3.38461538461539);
#830=CIRCLE('',#1176,3.38461538461539);
#831=CIRCLE('',#1177,3.38461538461542);
#832=CIRCLE('',#1178,3.38461538461539);
#833=CIRCLE('',#1179,3.38461538461539);
#834=CIRCLE('',#1180,3.38461538461542);
#835=CIRCLE('',#1181,3.38461538461539);
#836=CIRCLE('',#1182,3.38461538461539);
#837=CIRCLE('',#1183,3.38461538461539);
#838=CIRCLE('',#1184,3.38461538461539);
#839=VERTEX_POINT('',#1355);
#840=VERTEX_POINT('',#1356);
#841=VERTEX_POINT('',#1357);
#842=VERTEX_POINT('',#1358);
#843=VERTEX_POINT('',#1359);
#844=VERTEX_POINT('',#1360);
#845=VERTEX_POINT('',#1361);
#846=VERTEX_POINT('',#1362);
#847=VERTEX_POINT('',#1363);
#848=VERTEX_POINT('',#1364);
#849=VERTEX_POINT('',#1365);
#850=VERTEX_POINT('',#1366);
#851=VERTEX_POINT('',#1367);
#852=VERTEX_POINT('',#1368);
#853=VERTEX_POINT('',#1369);
#854=VERTEX_POINT('',#1370);
#855=VERTEX_POINT('',#1371);
#856=VERTEX_POINT('',#1372);
#857=VERTEX_POINT('',#1373);
#858=VERTEX_POINT('',#1374);
#859=VERTEX_POINT('',#1375);
#860=VERTEX_POINT('',#1376);
#861=VERTEX_POINT('',#1377);
#862=VERTEX_POINT('',#1378);
#863=VERTEX_POINT('',#1379);
#864=VERTEX_POINT('',#1380);
#865=VERTEX_POINT('',#1381);
#866=VERTEX_POINT('',#1382);
#867=VERTEX_POINT('',#1383);
#868=VERTEX_POINT('',#1384);
#869=VERTEX_POINT('',#1385);
#870=VERTEX_POINT('',#1386);
#871=VERTEX_POINT('',#1387);
#872=VERTEX_POINT('',#1388);
#873=VERTEX_POINT('',#1389);
#874=VERTEX_POINT('',#1390);
#875=VERTEX_POINT('',#1391);
#876=VERTEX_POINT('',#1392);
#877=VERTEX_POINT('',#1393);
#878=VERTEX_POINT('',#1394);
#879=VERTEX_POINT('',#1395);
#880=VERTEX_POINT('',#1396);
#881=VERTEX_POINT('',#1397);
#882=VERTEX_POINT('',#1398);
#883=VERTEX_POINT('',#1569);
#884=VERTEX_POINT('',#1570);
#885=VERTEX_POINT('',#1571);
#886=VERTEX_POINT('',#1572);
#887=VERTEX_POINT('',#1573);
#888=VERTEX_POINT('',#1574);
#889=VERTEX_POINT('',#1575);
#890=VERTEX_POINT('',#1576);
#891=VERTEX_POINT('',#1577);
#892=VERTEX_POINT('',#1578);
#893=VERTEX_POINT('',#1579);
#894=VERTEX_POINT('',#1580);
#895=VERTEX_POINT('',#1581);
#896=VERTEX_POINT('',#1582);
#897=VERTEX_POINT('',#1583);
#898=VERTEX_POINT('',#1584);
#899=VERTEX_POINT('',#1585);
#900=VERTEX_POINT('',#1586);
#901=VERTEX_POINT('',#1587);
#902=VERTEX_POINT('',#1588);
#903=VERTEX_POINT('',#1589);
#904=VERTEX_POINT('',#1590);
#905=VERTEX_POINT('',#1591);
#906=VERTEX_POINT('',#1592);
#907=VERTEX_POINT('',#1593);
#908=VERTEX_POINT('',#1594);
#909=VERTEX_POINT('',#1595);
#910=VERTEX_POINT('',#1596);
#911=VERTEX_POINT('',#1703);
#912=VERTEX_POINT('',#1704);
#913=VERTEX_POINT('',#1705);
#914=VERTEX_POINT('',#1706);
#915=VERTEX_POINT('',#1707);
#916=VERTEX_POINT('',#1708);
#917=VERTEX_POINT('',#1709);
#918=VERTEX_POINT('',#1710);
#919=VERTEX_POINT('',#1711);
#920=VERTEX_POINT('',#1712);
#921=VERTEX_POINT('',#1713);
#922=VERTEX_POINT('',#1714);
#923=VERTEX_POINT('',#1715);
#924=VERTEX_POINT('',#1716);
#925=VERTEX_POINT('',#1717);
#926=VERTEX_POINT('',#1718);
#927=VERTEX_POINT('',#1719);
#928=VERTEX_POINT('',#1720);
#929=VERTEX_POINT('',#1721);
#930=VERTEX_POINT('',#1722);
#931=VERTEX_POINT('',#1723);
#932=VERTEX_POINT('',#1724);
#933=VERTEX_POINT('',#1725);
#934=VERTEX_POINT('',#1726);
#935=CYLINDRICAL_SURFACE('',#1087,3.535);
#936=CYLINDRICAL_SURFACE('',#1088,3.535);
#937=CYLINDRICAL_SURFACE('',#1089,3.535);
#938=CYLINDRICAL_SURFACE('',#1090,3.535);
#939=CYLINDRICAL_SURFACE('',#1111,3.535);
#940=CYLINDRICAL_SURFACE('',#1112,3.535);
#941=CYLINDRICAL_SURFACE('',#1113,3.535);
#942=CYLINDRICAL_SURFACE('',#1114,3.535);
#943=CYLINDRICAL_SURFACE('',#1140,1.79999999999999);
#944=CYLINDRICAL_SURFACE('',#1143,1.79999999999995);
#945=CYLINDRICAL_SURFACE('',#1156,3.38461538461542);
#946=CYLINDRICAL_SURFACE('',#1157,3.38461538461542);
#947=CYLINDRICAL_SURFACE('',#1158,3.38461538461539);
#948=CYLINDRICAL_SURFACE('',#1159,3.38461538461539);
#949=CYLINDRICAL_SURFACE('',#1160,3.38461538461539);
#950=CYLINDRICAL_SURFACE('',#1161,3.38461538461539);
#951=CYLINDRICAL_SURFACE('',#1162,3.38461538461539);
#952=CYLINDRICAL_SURFACE('',#1163,3.38461538461539);
#953=PLANE('',#1086);
#954=PLANE('',#1091);
#955=PLANE('',#1092);
#956=PLANE('',#1093);
#957=PLANE('',#1094);
#958=PLANE('',#1095);
#959=PLANE('',#1096);
#960=PLANE('',#1097);
#961=PLANE('',#1098);
#962=PLANE('',#1099);
#963=PLANE('',#1100);
#964=PLANE('',#1101);
#965=PLANE('',#1102);
#966=PLANE('',#1103);
#967=PLANE('',#1104);
#968=PLANE('',#1105);
#969=PLANE('',#1106);
#970=PLANE('',#1107);
#971=PLANE('',#1108);
#972=PLANE('',#1109);
#973=PLANE('',#1110);
#974=PLANE('',#1131);
#975=PLANE('',#1132);
#976=PLANE('',#1133);
#977=PLANE('',#1134);
#978=PLANE('',#1135);
#979=PLANE('',#1136);
#980=PLANE('',#1137);
#981=PLANE('',#1138);
#982=PLANE('',#1139);
#983=PLANE('',#1141);
#984=PLANE('',#1142);
#985=PLANE('',#1144);
#986=PLANE('',#1145);
#987=PLANE('',#1146);
#988=PLANE('',#1151);
#989=PLANE('',#1152);
#990=PLANE('',#1153);
#991=PLANE('',#1154);
#992=PLANE('',#1155);
#993=PLANE('',#1164);
#994=PLANE('',#1165);
#995=PLANE('',#1166);
#996=PLANE('',#1167);
#997=PLANE('',#1168);
#998=SHAPE_DEFINITION_REPRESENTATION(#999,#1084);
#999=PRODUCT_DEFINITION_SHAPE($,$,#1001);
#1000=PRODUCT_DEFINITION_CONTEXT('3D Mechanical Parts',#1073,'design');
#1001=PRODUCT_DEFINITION('A','First version',#1043,#1000);
#1002=DATE_TIME_ROLE('classification_date');
#1003=DATE_TIME_ROLE('creation_date');
#1004=APPLIED_DATE_AND_TIME_ASSIGNMENT(#1028,#1002,(#1007));
#1005=APPLIED_DATE_AND_TIME_ASSIGNMENT(#1030,#1003,(#1001));
#1006=SECURITY_CLASSIFICATION_LEVEL('unclassified');
#1007=SECURITY_CLASSIFICATION('A','Security for version',#1006);
#1008=APPLIED_SECURITY_CLASSIFICATION_ASSIGNMENT(#1007,(#1043));
#1009=APPROVAL_ROLE('Version approval');
#1010=APPROVAL_ROLE('Version Security approval');
#1011=APPROVAL_ROLE('Definition approval');
#1012=APPROVAL_PERSON_ORGANIZATION(#1061,#1037,#1009);
#1013=APPROVAL_PERSON_ORGANIZATION(#1062,#1038,#1010);
#1014=APPROVAL_PERSON_ORGANIZATION(#1065,#1039,#1011);
#1015=COORDINATED_UNIVERSAL_TIME_OFFSET(5,0,.BEHIND.);
#1016=LOCAL_TIME(0,0,0.,#1015);
#1017=LOCAL_TIME(0,0,0.,#1015);
#1018=LOCAL_TIME(0,0,0.,#1015);
#1019=LOCAL_TIME(0,0,0.,#1015);
#1020=LOCAL_TIME(0,0,0.,#1015);
#1021=CALENDAR_DATE(1999,1,1);
#1022=CALENDAR_DATE(1999,1,1);
#1023=CALENDAR_DATE(1999,1,1);
#1024=CALENDAR_DATE(1999,1,1);
#1025=CALENDAR_DATE(1999,1,1);
#1026=DATE_AND_TIME(#1021,#1016);
#1027=DATE_AND_TIME(#1022,#1017);
#1028=DATE_AND_TIME(#1023,#1018);
#1029=DATE_AND_TIME(#1024,#1019);
#1030=DATE_AND_TIME(#1025,#1020);
#1031=APPROVAL_DATE_TIME(#1026,#1037);
#1032=APPROVAL_DATE_TIME(#1027,#1038);
#1033=APPROVAL_DATE_TIME(#1029,#1039);
#1034=APPROVAL_STATUS('not_yet_approved');
#1035=APPROVAL_STATUS('not_yet_approved');
#1036=APPROVAL_STATUS('approved');
#1037=APPROVAL(#1034,'Version approval');
#1038=APPROVAL(#1035,'Version Security approval');
#1039=APPROVAL(#1036,'Definition approval');
#1040=APPLIED_APPROVAL_ASSIGNMENT(#1037,(#1043));
#1041=APPLIED_APPROVAL_ASSIGNMENT(#1038,(#1007));
#1042=APPLIED_APPROVAL_ASSIGNMENT(#1039,(#1001));
#1043=PRODUCT_DEFINITION_FORMATION_WITH_SPECIFIED_SOURCE('A',
'First version',#1075,.MADE.);
#1044=PERSON_AND_ORGANIZATION_ROLE('design_owner');
#1045=PERSON_AND_ORGANIZATION_ROLE('creator');
#1046=PERSON_AND_ORGANIZATION_ROLE('design_supplier');
#1047=PERSON_AND_ORGANIZATION_ROLE('classification_officer');
#1048=PERSON_AND_ORGANIZATION_ROLE('creator');
#1049=ORGANIZATION('STI','lab','lab');
#1050=ORGANIZATION('STI','unknown','unknown');
#1051=ORGANIZATION('STI','unknown','unknown');
#1052=ORGANIZATION('STI','unknown','unknown');
#1053=ORGANIZATION('STI','unknown','unknown');
#1054=ORGANIZATION('STI','unknown','unknown');
#1055=ORGANIZATION('STI','unknown','unknown');
#1056=PERSON('1','Box','vc60',$,$,$);
#1057=PERSON('2','last','first',$,$,$);
#1058=PERSON('3','President','Mr.',$,$,$);
#1059=PERSON_AND_ORGANIZATION(#1056,#1049);
#1060=PERSON_AND_ORGANIZATION(#1057,#1050);
#1061=PERSON_AND_ORGANIZATION(#1058,#1051);
#1062=PERSON_AND_ORGANIZATION(#1058,#1052);
#1063=PERSON_AND_ORGANIZATION(#1058,#1053);
#1064=PERSON_AND_ORGANIZATION(#1057,#1054);
#1065=PERSON_AND_ORGANIZATION(#1058,#1055);
#1066=APPLIED_PERSON_AND_ORGANIZATION_ASSIGNMENT(#1059,#1044,(#1075));
#1067=APPLIED_PERSON_AND_ORGANIZATION_ASSIGNMENT(#1060,#1045,(#1043));
#1068=APPLIED_PERSON_AND_ORGANIZATION_ASSIGNMENT(#1060,#1046,(#1043));
#1069=APPLIED_PERSON_AND_ORGANIZATION_ASSIGNMENT(#1063,#1047,(#1007));
#1070=APPLIED_PERSON_AND_ORGANIZATION_ASSIGNMENT(#1064,#1048,(#1001));
#1071=PRODUCT_RELATED_PRODUCT_CATEGORY('detail','detail',(#1075));
#1072=APPLICATION_PROTOCOL_DEFINITION('International Standard',
'config_control_design',1994,#1073);
#1073=APPLICATION_CONTEXT(
'configuration controlled 3d designs of mechanical parts and assemblie
s');
#1074=PRODUCT_CONTEXT('3D Mechanical Parts',#1073,'mechanical');
#1075=PRODUCT('Document','Document','',(#1074));
#1076=(
LENGTH_UNIT()
NAMED_UNIT(*)
SI_UNIT(.MILLI.,.METRE.)
);
#1077=(
NAMED_UNIT(*)
PLANE_ANGLE_UNIT()
SI_UNIT($,.RADIAN.)
);
#1078=DIMENSIONAL_EXPONENTS(0.,0.,0.,0.,0.,0.,0.);
#1079=PLANE_ANGLE_MEASURE_WITH_UNIT(PLANE_ANGLE_MEASURE(0.01745329252),
#1077);
#1080=(
CONVERSION_BASED_UNIT('DEGREES',#1079)
NAMED_UNIT(#1078)
PLANE_ANGLE_UNIT()
);
#1081=(
NAMED_UNIT(*)
SI_UNIT($,.STERADIAN.)
SOLID_ANGLE_UNIT()
);
#1082=UNCERTAINTY_MEASURE_WITH_UNIT(LENGTH_MEASURE(0.001),#1076,
'DISTANCE_ACCURACY_VALUE',
'Maximum model space distance between geometric entities at asserted c
onnectivities');
#1083=(
GEOMETRIC_REPRESENTATION_CONTEXT(3)
GLOBAL_UNCERTAINTY_ASSIGNED_CONTEXT((#1082))
GLOBAL_UNIT_ASSIGNED_CONTEXT((#1081,#1080,#1076))
REPRESENTATION_CONTEXT('ID1','3D')
);
#1084=SHAPE_REPRESENTATION('Document',(#1085,#1185),#1083);
#1085=AXIS2_PLACEMENT_3D($,#1325,#1186,#1187);
#1086=AXIS2_PLACEMENT_3D('',#1326,#1188,$);
#1087=AXIS2_PLACEMENT_3D('',#1327,#1189,$);
#1088=AXIS2_PLACEMENT_3D('',#1328,#1190,$);
#1089=AXIS2_PLACEMENT_3D('',#1329,#1191,$);
#1090=AXIS2_PLACEMENT_3D('',#1330,#1192,$);
#1091=AXIS2_PLACEMENT_3D('',#1331,#1193,$);
#1092=AXIS2_PLACEMENT_3D('',#1332,#1194,$);
#1093=AXIS2_PLACEMENT_3D('',#1333,#1195,$);
#1094=AXIS2_PLACEMENT_3D('',#1334,#1196,$);
#1095=AXIS2_PLACEMENT_3D('',#1335,#1197,$);
#1096=AXIS2_PLACEMENT_3D('',#1336,#1198,$);
#1097=AXIS2_PLACEMENT_3D('',#1337,#1199,$);
#1098=AXIS2_PLACEMENT_3D('',#1338,#1200,$);
#1099=AXIS2_PLACEMENT_3D('',#1339,#1201,$);
#1100=AXIS2_PLACEMENT_3D('',#1340,#1202,$);
#1101=AXIS2_PLACEMENT_3D('',#1341,#1203,$);
#1102=AXIS2_PLACEMENT_3D('',#1342,#1204,$);
#1103=AXIS2_PLACEMENT_3D('',#1343,#1205,$);
#1104=AXIS2_PLACEMENT_3D('',#1344,#1206,$);
#1105=AXIS2_PLACEMENT_3D('',#1345,#1207,$);
#1106=AXIS2_PLACEMENT_3D('',#1346,#1208,$);
#1107=AXIS2_PLACEMENT_3D('',#1347,#1209,$);
#1108=AXIS2_PLACEMENT_3D('',#1348,#1210,$);
#1109=AXIS2_PLACEMENT_3D('',#1349,#1211,$);
#1110=AXIS2_PLACEMENT_3D('',#1350,#1212,$);
#1111=AXIS2_PLACEMENT_3D('',#1351,#1213,$);
#1112=AXIS2_PLACEMENT_3D('',#1352,#1214,$);
#1113=AXIS2_PLACEMENT_3D('',#1353,#1215,$);
#1114=AXIS2_PLACEMENT_3D('',#1354,#1216,$);
#1115=AXIS2_PLACEMENT_3D($,#1399,#1217,#1218);
#1116=AXIS2_PLACEMENT_3D($,#1404,#1219,#1220);
#1117=AXIS2_PLACEMENT_3D($,#1407,#1221,#1222);
#1118=AXIS2_PLACEMENT_3D($,#1412,#1223,#1224);
#1119=AXIS2_PLACEMENT_3D($,#1415,#1225,#1226);
#1120=AXIS2_PLACEMENT_3D($,#1420,#1227,#1228);
#1121=AXIS2_PLACEMENT_3D($,#1423,#1229,#1230);
#1122=AXIS2_PLACEMENT_3D($,#1428,#1231,#1232);
#1123=AXIS2_PLACEMENT_3D($,#1523,#1233,#1234);
#1124=AXIS2_PLACEMENT_3D($,#1526,#1235,#1236);
#1125=AXIS2_PLACEMENT_3D($,#1531,#1237,#1238);
#1126=AXIS2_PLACEMENT_3D($,#1534,#1239,#1240);
#1127=AXIS2_PLACEMENT_3D($,#1539,#1241,#1242);
#1128=AXIS2_PLACEMENT_3D($,#1542,#1243,#1244);
#1129=AXIS2_PLACEMENT_3D($,#1547,#1245,#1246);
#1130=AXIS2_PLACEMENT_3D($,#1550,#1247,#1248);
#1131=AXIS2_PLACEMENT_3D('',#1553,#1249,$);
#1132=AXIS2_PLACEMENT_3D('',#1554,#1250,$);
#1133=AXIS2_PLACEMENT_3D('',#1555,#1251,$);
#1134=AXIS2_PLACEMENT_3D('',#1556,#1252,$);
#1135=AXIS2_PLACEMENT_3D('',#1557,#1253,$);
#1136=AXIS2_PLACEMENT_3D('',#1558,#1254,$);
#1137=AXIS2_PLACEMENT_3D('',#1559,#1255,$);
#1138=AXIS2_PLACEMENT_3D('',#1560,#1256,$);
#1139=AXIS2_PLACEMENT_3D('',#1561,#1257,$);
#1140=AXIS2_PLACEMENT_3D('',#1562,#1258,$);
#1141=AXIS2_PLACEMENT_3D('',#1563,#1259,$);
#1142=AXIS2_PLACEMENT_3D('',#1564,#1260,$);
#1143=AXIS2_PLACEMENT_3D('',#1565,#1261,$);
#1144=AXIS2_PLACEMENT_3D('',#1566,#1262,$);
#1145=AXIS2_PLACEMENT_3D('',#1567,#1263,$);
#1146=AXIS2_PLACEMENT_3D('',#1568,#1264,$);
#1147=AXIS2_PLACEMENT_3D($,#1645,#1265,#1266);
#1148=AXIS2_PLACEMENT_3D($,#1650,#1267,#1268);
#1149=AXIS2_PLACEMENT_3D($,#1657,#1269,#1270);
#1150=AXIS2_PLACEMENT_3D($,#1662,#1271,#1272);
#1151=AXIS2_PLACEMENT_3D('',#1685,#1273,$);
#1152=AXIS2_PLACEMENT_3D('',#1686,#1274,$);
#1153=AXIS2_PLACEMENT_3D('',#1687,#1275,$);
#1154=AXIS2_PLACEMENT_3D('',#1688,#1276,$);
#1155=AXIS2_PLACEMENT_3D('',#1689,#1277,$);
#1156=AXIS2_PLACEMENT_3D('',#1690,#1278,$);
#1157=AXIS2_PLACEMENT_3D('',#1691,#1279,$);
#1158=AXIS2_PLACEMENT_3D('',#1692,#1280,$);
#1159=AXIS2_PLACEMENT_3D('',#1693,#1281,$);
#1160=AXIS2_PLACEMENT_3D('',#1694,#1282,$);
#1161=AXIS2_PLACEMENT_3D('',#1695,#1283,$);
#1162=AXIS2_PLACEMENT_3D('',#1696,#1284,$);
#1163=AXIS2_PLACEMENT_3D('',#1697,#1285,$);
#1164=AXIS2_PLACEMENT_3D('',#1698,#1286,$);
#1165=AXIS2_PLACEMENT_3D('',#1699,#1287,$);
#1166=AXIS2_PLACEMENT_3D('',#1700,#1288,$);
#1167=AXIS2_PLACEMENT_3D('',#1701,#1289,$);
#1168=AXIS2_PLACEMENT_3D('',#1702,#1290,$);
#1169=AXIS2_PLACEMENT_3D($,#1727,#1291,#1292);
#1170=AXIS2_PLACEMENT_3D($,#1732,#1293,#1294);
#1171=AXIS2_PLACEMENT_3D($,#1737,#1295,#1296);
#1172=AXIS2_PLACEMENT_3D($,#1742,#1297,#1298);
#1173=AXIS2_PLACEMENT_3D($,#1773,#1299,#1300);
#1174=AXIS2_PLACEMENT_3D($,#1776,#1301,#1302);
#1175=AXIS2_PLACEMENT_3D($,#1779,#1303,#1304);
#1176=AXIS2_PLACEMENT_3D($,#1782,#1305,#1306);
#1177=AXIS2_PLACEMENT_3D($,#1787,#1307,#1308);
#1178=AXIS2_PLACEMENT_3D($,#1790,#1309,#1310);
#1179=AXIS2_PLACEMENT_3D($,#1795,#1311,#1312);
#1180=AXIS2_PLACEMENT_3D($,#1798,#1313,#1314);
#1181=AXIS2_PLACEMENT_3D($,#1803,#1315,#1316);
#1182=AXIS2_PLACEMENT_3D($,#1806,#1317,#1318);
#1183=AXIS2_PLACEMENT_3D($,#1811,#1319,#1320);
#1184=AXIS2_PLACEMENT_3D($,#1814,#1321,#1322);
#1185=AXIS2_PLACEMENT_3D($,#1817,#1323,#1324);
#1186=DIRECTION('',(0.,0.,1.));
#1187=DIRECTION('',(1.,0.,0.));
#1188=DIRECTION('',(0.,0.,-1.));
#1189=DIRECTION('',(0.,0.,-1.));
#1190=DIRECTION('',(0.,0.,-1.));
#1191=DIRECTION('',(0.,0.,-1.));
#1192=DIRECTION('',(0.,0.,-1.));
#1193=DIRECTION('',(0.,0.,1.));
#1194=DIRECTION('',(0.,0.,1.));
#1195=DIRECTION('',(-1.,0.,0.));
#1196=DIRECTION('',(0.,-1.,0.));
#1197=DIRECTION('',(1.,0.,0.));
#1198=DIRECTION('',(-1.,0.,0.));
#1199=DIRECTION('',(0.,-1.,0.));
#1200=DIRECTION('',(1.,0.,0.));
#1201=DIRECTION('',(0.,0.,1.));
#1202=DIRECTION('',(-1.,0.,0.));
#1203=DIRECTION('',(0.,0.,1.));
#1204=DIRECTION('',(1.,0.,0.));
#1205=DIRECTION('',(0.,0.,-1.));
#1206=DIRECTION('',(0.,0.,-1.));
#1207=DIRECTION('',(0.,0.,-1.));
#1208=DIRECTION('',(0.,0.,-1.));
#1209=DIRECTION('',(1.,0.,0.));
#1210=DIRECTION('',(0.,1.,0.));
#1211=DIRECTION('',(0.,-1.,0.));
#1212=DIRECTION('',(-1.,0.,0.));
#1213=DIRECTION('',(0.,0.,-1.));
#1214=DIRECTION('',(0.,0.,-1.));
#1215=DIRECTION('',(0.,0.,-1.));
#1216=DIRECTION('',(0.,0.,-1.));
#1217=DIRECTION('',(0.,0.,-1.));
#1218=DIRECTION('',(1.,-4.02004376667667E-15,0.));
#1219=DIRECTION('',(0.,0.,-1.));
#1220=DIRECTION('',(1.,-4.02004376667667E-15,0.));
#1221=DIRECTION('',(0.,0.,-1.));
#1222=DIRECTION('',(1.,-4.02004376667667E-15,0.));
#1223=DIRECTION('',(0.,0.,-1.));
#1224=DIRECTION('',(1.,-4.02004376667667E-15,0.));
#1225=DIRECTION('',(0.,0.,-1.));
#1226=DIRECTION('',(1.,-4.02004376667667E-15,0.));
#1227=DIRECTION('',(0.,0.,-1.));
#1228=DIRECTION('',(1.,-4.02004376667667E-15,0.));
#1229=DIRECTION('',(0.,0.,-1.));
#1230=DIRECTION('',(1.,-4.02004376667667E-15,0.));
#1231=DIRECTION('',(0.,0.,-1.));
#1232=DIRECTION('',(1.,-4.02004376667667E-15,0.));
#1233=DIRECTION('',(0.,0.,-1.));
#1234=DIRECTION('',(-1.,4.02004376667667E-15,0.));
#1235=DIRECTION('',(0.,0.,-1.));
#1236=DIRECTION('',(-1.,4.02004376667667E-15,0.));
#1237=DIRECTION('',(0.,0.,-1.));
#1238=DIRECTION('',(-1.,4.02004376667667E-15,0.));
#1239=DIRECTION('',(0.,0.,-1.));
#1240=DIRECTION('',(-1.,4.02004376667667E-15,0.));
#1241=DIRECTION('',(0.,0.,-1.));
#1242=DIRECTION('',(-1.,0.,0.));
#1243=DIRECTION('',(0.,0.,-1.));
#1244=DIRECTION('',(-1.,0.,0.));
#1245=DIRECTION('',(0.,0.,-1.));
#1246=DIRECTION('',(-1.,4.02004376667667E-15,0.));
#1247=DIRECTION('',(0.,0.,-1.));
#1248=DIRECTION('',(-1.,4.02004376667667E-15,0.));
#1249=DIRECTION('',(-1.,0.,0.));
#1250=DIRECTION('',(0.,0.,1.));
#1251=DIRECTION('',(1.,0.,0.));
#1252=DIRECTION('',(0.,0.,-1.));
#1253=DIRECTION('',(0.,1.,0.));
#1254=DIRECTION('',(1.,0.,0.));
#1255=DIRECTION('',(-1.,0.,0.));
#1256=DIRECTION('',(0.,0.,1.));
#1257=DIRECTION('',(0.,-1.,0.));
#1258=DIRECTION('',(0.,1.,0.));
#1259=DIRECTION('',(1.,0.,0.));
#1260=DIRECTION('',(-1.,0.,0.));
#1261=DIRECTION('',(9.53001060732026E-15,1.,-9.53001060732032E-15));
#1262=DIRECTION('',(0.,0.,1.));
#1263=DIRECTION('',(0.,-1.,0.));
#1264=DIRECTION('',(0.,1.,0.));
#1265=DIRECTION('',(0.,1.,0.));
#1266=DIRECTION('',(0.,0.,-1.));
#1267=DIRECTION('',(-9.53001060732059E-15,1.,-9.53001060732067E-15));
#1268=DIRECTION('',(1.57898385724469E-14,-7.89491928622343E-15,-1.));
#1269=DIRECTION('',(1.90600212146405E-14,1.,-1.90600212146406E-14));
#1270=DIRECTION('',(1.,-1.57898385724471E-14,2.76322175017824E-14));
#1271=DIRECTION('',(9.53001060732026E-15,1.,-9.53001060732032E-15));
#1272=DIRECTION('',(1.,-7.89491928622353E-15,2.36847578586706E-14));
#1273=DIRECTION('',(1.,0.,0.));
#1274=DIRECTION('',(0.,1.,0.));
#1275=DIRECTION('',(-1.,0.,0.));
#1276=DIRECTION('',(0.,-1.,0.));
#1277=DIRECTION('',(0.,0.,1.));
#1278=DIRECTION('',(0.,0.,1.));
#1279=DIRECTION('',(0.,0.,1.));
#1280=DIRECTION('',(0.,0.,1.));
#1281=DIRECTION('',(0.,0.,1.));
#1282=DIRECTION('',(0.,0.,1.));
#1283=DIRECTION('',(0.,0.,1.));
#1284=DIRECTION('',(0.,0.,1.));
#1285=DIRECTION('',(0.,0.,1.));
#1286=DIRECTION('',(0.,0.,-1.));
#1287=DIRECTION('',(0.,0.,1.));
#1288=DIRECTION('',(0.,0.,1.));
#1289=DIRECTION('',(0.,0.,1.));
#1290=DIRECTION('',(0.,0.,1.));
#1291=DIRECTION('',(0.,0.,1.));
#1292=DIRECTION('',(1.,0.,0.));
#1293=DIRECTION('',(0.,0.,1.));
#1294=DIRECTION('',(1.,0.,0.));
#1295=DIRECTION('',(0.,0.,1.));
#1296=DIRECTION('',(1.,2.09933081020029E-15,0.));
#1297=DIRECTION('',(0.,0.,1.));
#1298=DIRECTION('',(1.,0.,0.));
#1299=DIRECTION('',(0.,0.,-1.));
#1300=DIRECTION('',(1.,0.,0.));
#1301=DIRECTION('',(0.,0.,-1.));
#1302=DIRECTION('',(1.,-2.09933081020028E-15,0.));
#1303=DIRECTION('',(0.,0.,-1.));
#1304=DIRECTION('',(1.,4.19866162040059E-15,0.));
#1305=DIRECTION('',(0.,0.,-1.));
#1306=DIRECTION('',(1.,4.19866162040059E-15,0.));
#1307=DIRECTION('',(0.,0.,1.));
#1308=DIRECTION('',(-1.,0.,0.));
#1309=DIRECTION('',(0.,0.,-1.));
#1310=DIRECTION('',(-1.,0.,0.));
#1311=DIRECTION('',(0.,0.,1.));
#1312=DIRECTION('',(-1.,-2.09933081020029E-15,0.));
#1313=DIRECTION('',(0.,0.,-1.));
#1314=DIRECTION('',(-1.,2.09933081020028E-15,0.));
#1315=DIRECTION('',(0.,0.,1.));
#1316=DIRECTION('',(-1.,0.,0.));
#1317=DIRECTION('',(0.,0.,-1.));
#1318=DIRECTION('',(-1.,-4.19866162040059E-15,0.));
#1319=DIRECTION('',(0.,0.,1.));
#1320=DIRECTION('',(-1.,8.39732324080118E-15,0.));
#1321=DIRECTION('',(0.,0.,-1.));
#1322=DIRECTION('',(-1.,-4.19866162040059E-15,0.));
#1323=DIRECTION('',(0.,0.,1.));
#1324=DIRECTION('',(1.,0.,0.));
#1325=CARTESIAN_POINT('',(0.,0.,0.));
#1326=CARTESIAN_POINT('',(-151.95,63.,-2.));
#1327=CARTESIAN_POINT('',(-135.5,57.5,-1.));
#1328=CARTESIAN_POINT('',(-135.5,46.5,-1.));
#1329=CARTESIAN_POINT('',(-146.5,46.5,-1.));
#1330=CARTESIAN_POINT('',(-146.5,57.5,-1.));
#1331=CARTESIAN_POINT('',(-152.,41.,22.));
#1332=CARTESIAN_POINT('',(-152.,41.,2.));
#1333=CARTESIAN_POINT('',(-131.,41.,20.));
#1334=CARTESIAN_POINT('',(-131.,62.,20.));
#1335=CARTESIAN_POINT('',(-151.,62.,20.));
#1336=CARTESIAN_POINT('',(-132.,43.,0.));
#1337=CARTESIAN_POINT('',(-132.,61.,0.));
#1338=CARTESIAN_POINT('',(-150.,61.,0.));
#1339=CARTESIAN_POINT('',(-150.,45.,2.));
#1340=CARTESIAN_POINT('',(-132.,45.,2.));
#1341=CARTESIAN_POINT('',(-151.,41.,20.));
#1342=CARTESIAN_POINT('',(-150.,45.,20.));
#1343=CARTESIAN_POINT('',(-152.,41.,0.));
#1344=CARTESIAN_POINT('',(-152.,41.,0.));
#1345=CARTESIAN_POINT('',(-152.,41.,0.));
#1346=CARTESIAN_POINT('',(-152.,41.,0.));
#1347=CARTESIAN_POINT('',(-130.1,63.,-2.2));
#1348=CARTESIAN_POINT('',(-152.,63.,-2.));
#1349=CARTESIAN_POINT('',(-152.,41.,-2.));
#1350=CARTESIAN_POINT('',(-151.9,41.,-2.2));
#1351=CARTESIAN_POINT('',(-135.5,57.5,-1.));
#1352=CARTESIAN_POINT('',(-135.5,46.5,-1.));
#1353=CARTESIAN_POINT('',(-146.5,46.5,-1.));
#1354=CARTESIAN_POINT('',(-146.5,57.5,-1.));
#1355=CARTESIAN_POINT('',(-131.965,57.5,-2.));
#1356=CARTESIAN_POINT('',(-131.965,57.5,0.));
#1357=CARTESIAN_POINT('',(-131.965,46.5,-2.));
#1358=CARTESIAN_POINT('',(-131.965,46.5,0.));
#1359=CARTESIAN_POINT('',(-142.965,46.5,-2.));
#1360=CARTESIAN_POINT('',(-142.965,46.5,0.));
#1361=CARTESIAN_POINT('',(-142.965,57.5,-2.));
#1362=CARTESIAN_POINT('',(-142.965,57.5,0.));
#1363=CARTESIAN_POINT('',(-130.1,41.,-2.));
#1364=CARTESIAN_POINT('',(-130.1,63.,-2.));
#1365=CARTESIAN_POINT('',(-151.9,41.,-2.));
#1366=CARTESIAN_POINT('',(-151.9,63.,-2.));
#1367=CARTESIAN_POINT('',(-150.,43.,2.));
#1368=CARTESIAN_POINT('',(-132.,43.,2.));
#1369=CARTESIAN_POINT('',(-132.,61.,2.));
#1370=CARTESIAN_POINT('',(-150.,61.,2.));
#1371=CARTESIAN_POINT('',(-131.,62.,20.));
#1372=CARTESIAN_POINT('',(-151.,62.,20.));
#1373=CARTESIAN_POINT('',(-151.,41.,22.));
#1374=CARTESIAN_POINT('',(-131.,41.,22.));
#1375=CARTESIAN_POINT('',(-131.,62.,22.));
#1376=CARTESIAN_POINT('',(-151.,62.,22.));
#1377=CARTESIAN_POINT('',(-150.,43.,20.));
#1378=CARTESIAN_POINT('',(-132.,43.,20.));
#1379=CARTESIAN_POINT('',(-132.,61.,20.));
#1380=CARTESIAN_POINT('',(-150.,61.,20.));
#1381=CARTESIAN_POINT('',(-151.,41.,20.));
#1382=CARTESIAN_POINT('',(-131.,41.,20.));
#1383=CARTESIAN_POINT('',(-132.,41.,20.));
#1384=CARTESIAN_POINT('',(-150.,41.,20.));
#1385=CARTESIAN_POINT('',(-132.,41.,2.));
#1386=CARTESIAN_POINT('',(-150.,41.,2.));
#1387=CARTESIAN_POINT('',(-130.1,41.,22.));
#1388=CARTESIAN_POINT('',(-130.1,63.,22.));
#1389=CARTESIAN_POINT('',(-151.9,63.,22.));
#1390=CARTESIAN_POINT('',(-151.9,41.,22.));
#1391=CARTESIAN_POINT('',(-139.035,57.5,0.));
#1392=CARTESIAN_POINT('',(-139.035,57.5,-2.));
#1393=CARTESIAN_POINT('',(-139.035,46.5,0.));
#1394=CARTESIAN_POINT('',(-139.035,46.5,-2.));
#1395=CARTESIAN_POINT('',(-150.035,46.5,0.));
#1396=CARTESIAN_POINT('',(-150.035,46.5,-2.));
#1397=CARTESIAN_POINT('',(-150.035,57.5,0.));
#1398=CARTESIAN_POINT('',(-150.035,57.5,-2.));
#1399=CARTESIAN_POINT('',(-135.5,57.5,0.));
#1400=CARTESIAN_POINT('',(-131.965,57.5,0.));
#1401=CARTESIAN_POINT('',(-139.035,57.5,0.));
#1402=CARTESIAN_POINT('',(-131.965,57.5,0.));
#1403=CARTESIAN_POINT('',(-131.965,57.5,-2.));
#1404=CARTESIAN_POINT('',(-135.5,57.5,-2.));
#1405=CARTESIAN_POINT('',(-131.965,57.5,-2.));
#1406=CARTESIAN_POINT('',(-139.035,57.5,-2.));
#1407=CARTESIAN_POINT('',(-135.5,46.5,0.));
#1408=CARTESIAN_POINT('',(-131.965,46.5,0.));
#1409=CARTESIAN_POINT('',(-139.035,46.5,0.));
#1410=CARTESIAN_POINT('',(-131.965,46.5,0.));
#1411=CARTESIAN_POINT('',(-131.965,46.5,-2.));
#1412=CARTESIAN_POINT('',(-135.5,46.5,-2.));
#1413=CARTESIAN_POINT('',(-131.965,46.5,-2.));
#1414=CARTESIAN_POINT('',(-139.035,46.5,-2.));
#1415=CARTESIAN_POINT('',(-146.5,46.5,0.));
#1416=CARTESIAN_POINT('',(-142.965,46.5,0.));
#1417=CARTESIAN_POINT('',(-150.035,46.5,0.));
#1418=CARTESIAN_POINT('',(-142.965,46.5,0.));
#1419=CARTESIAN_POINT('',(-142.965,46.5,-2.));
#1420=CARTESIAN_POINT('',(-146.5,46.5,-2.));
#1421=CARTESIAN_POINT('',(-142.965,46.5,-2.));
#1422=CARTESIAN_POINT('',(-150.035,46.5,-2.));
#1423=CARTESIAN_POINT('',(-146.5,57.5,0.));
#1424=CARTESIAN_POINT('',(-142.965,57.5,0.));
#1425=CARTESIAN_POINT('',(-150.035,57.5,0.));
#1426=CARTESIAN_POINT('',(-142.965,57.5,0.));
#1427=CARTESIAN_POINT('',(-142.965,57.5,-2.));
#1428=CARTESIAN_POINT('',(-146.5,57.5,-2.));
#1429=CARTESIAN_POINT('',(-142.965,57.5,-2.));
#1430=CARTESIAN_POINT('',(-150.035,57.5,-2.));
#1431=CARTESIAN_POINT('',(-130.1,63.,-2.));
#1432=CARTESIAN_POINT('',(-130.1,41.,-2.));
#1433=CARTESIAN_POINT('',(-151.9,41.,-2.));
#1434=CARTESIAN_POINT('',(-151.9,63.,-2.));
#1435=CARTESIAN_POINT('',(-151.9,63.,-2.));
#1436=CARTESIAN_POINT('',(-130.1,63.,-2.));
#1437=CARTESIAN_POINT('',(-151.9,41.,-2.));
#1438=CARTESIAN_POINT('',(-130.1,41.,-2.));
#1439=CARTESIAN_POINT('',(-150.,43.,2.));
#1440=CARTESIAN_POINT('',(-132.,43.,2.));
#1441=CARTESIAN_POINT('',(-132.,61.,2.));
#1442=CARTESIAN_POINT('',(-150.,61.,2.));
#1443=CARTESIAN_POINT('',(-132.,43.,2.));
#1444=CARTESIAN_POINT('',(-132.,43.,20.));
#1445=CARTESIAN_POINT('',(-150.,43.,2.));
#1446=CARTESIAN_POINT('',(-150.,43.,20.));
#1447=CARTESIAN_POINT('',(-132.,61.,2.));
#1448=CARTESIAN_POINT('',(-132.,61.,20.));
#1449=CARTESIAN_POINT('',(-150.,61.,2.));
#1450=CARTESIAN_POINT('',(-150.,61.,20.));
#1451=CARTESIAN_POINT('',(-131.,41.,20.));
#1452=CARTESIAN_POINT('',(-131.,62.,20.));
#1453=CARTESIAN_POINT('',(-131.,62.,20.));
#1454=CARTESIAN_POINT('',(-131.,62.,22.));
#1455=CARTESIAN_POINT('',(-131.,62.,20.));
#1456=CARTESIAN_POINT('',(-151.,62.,20.));
#1457=CARTESIAN_POINT('',(-151.,62.,20.));
#1458=CARTESIAN_POINT('',(-151.,62.,22.));
#1459=CARTESIAN_POINT('',(-151.,62.,20.));
#1460=CARTESIAN_POINT('',(-151.,41.,20.));
#1461=CARTESIAN_POINT('',(-131.,62.,22.));
#1462=CARTESIAN_POINT('',(-131.,41.,22.));
#1463=CARTESIAN_POINT('',(-151.,62.,22.));
#1464=CARTESIAN_POINT('',(-131.,62.,22.));
#1465=CARTESIAN_POINT('',(-151.,41.,22.));
#1466=CARTESIAN_POINT('',(-151.,62.,22.));
#1467=CARTESIAN_POINT('',(-132.,61.,20.));
#1468=CARTESIAN_POINT('',(-150.,61.,20.));
#1469=CARTESIAN_POINT('',(-151.,41.,20.));
#1470=CARTESIAN_POINT('',(-150.,41.,20.));
#1471=CARTESIAN_POINT('',(-131.,41.,20.));
#1472=CARTESIAN_POINT('',(-131.,41.,22.));
#1473=CARTESIAN_POINT('',(-151.,41.,20.));
#1474=CARTESIAN_POINT('',(-151.,41.,22.));
#1475=CARTESIAN_POINT('',(-131.,41.,22.));
#1476=CARTESIAN_POINT('',(-130.1,41.,22.));
#1477=CARTESIAN_POINT('',(-132.,43.,20.));
#1478=CARTESIAN_POINT('',(-132.,41.,20.));
#1479=CARTESIAN_POINT('',(-150.,43.,20.));
#1480=CARTESIAN_POINT('',(-150.,41.,20.));
#1481=CARTESIAN_POINT('',(-132.,41.,2.));
#1482=CARTESIAN_POINT('',(-150.,41.,2.));
#1483=CARTESIAN_POINT('',(-132.,41.,20.));
#1484=CARTESIAN_POINT('',(-132.,41.,2.));
#1485=CARTESIAN_POINT('',(-150.,41.,2.));
#1486=CARTESIAN_POINT('',(-150.,41.,20.));
#1487=CARTESIAN_POINT('',(-132.,41.,20.));
#1488=CARTESIAN_POINT('',(-131.,41.,20.));
#1489=CARTESIAN_POINT('',(-132.,43.,2.));
#1490=CARTESIAN_POINT('',(-132.,41.,2.));
#1491=CARTESIAN_POINT('',(-150.,43.,2.));
#1492=CARTESIAN_POINT('',(-150.,41.,2.));
#1493=CARTESIAN_POINT('',(-132.,61.,2.));
#1494=CARTESIAN_POINT('',(-132.,45.,2.));
#1495=CARTESIAN_POINT('',(-132.,43.,2.));
#1496=CARTESIAN_POINT('',(-150.,61.,2.));
#1497=CARTESIAN_POINT('',(-150.,45.,2.));
#1498=CARTESIAN_POINT('',(-150.,43.,2.));
#1499=CARTESIAN_POINT('',(-132.,61.,20.));
#1500=CARTESIAN_POINT('',(-132.,45.,20.));
#1501=CARTESIAN_POINT('',(-132.,43.,20.));
#1502=CARTESIAN_POINT('',(-150.,61.,20.));
#1503=CARTESIAN_POINT('',(-150.,45.,20.));
#1504=CARTESIAN_POINT('',(-150.,43.,20.));
#1505=CARTESIAN_POINT('',(-130.1,41.,22.));
#1506=CARTESIAN_POINT('',(-130.1,63.,22.));
#1507=CARTESIAN_POINT('',(-130.1,63.,22.));
#1508=CARTESIAN_POINT('',(-151.9,63.,22.));
#1509=CARTESIAN_POINT('',(-151.9,63.,22.));
#1510=CARTESIAN_POINT('',(-151.9,41.,22.));
#1511=CARTESIAN_POINT('',(-151.9,41.,22.));
#1512=CARTESIAN_POINT('',(-151.,41.,22.));
#1513=CARTESIAN_POINT('',(-130.1,63.,-2.));
#1514=CARTESIAN_POINT('',(-130.1,63.,22.));
#1515=CARTESIAN_POINT('',(-130.1,41.,-2.));
#1516=CARTESIAN_POINT('',(-130.1,41.,22.));
#1517=CARTESIAN_POINT('',(-151.9,63.,-2.));
#1518=CARTESIAN_POINT('',(-151.9,63.,22.));
#1519=CARTESIAN_POINT('',(-151.9,41.,22.));
#1520=CARTESIAN_POINT('',(-151.9,41.,-2.));
#1521=CARTESIAN_POINT('',(-139.035,57.5,0.));
#1522=CARTESIAN_POINT('',(-139.035,57.5,-2.));
#1523=CARTESIAN_POINT('',(-135.5,57.5,0.));
#1524=CARTESIAN_POINT('',(-139.035,57.5,0.));
#1525=CARTESIAN_POINT('',(-131.965,57.5,0.));
#1526=CARTESIAN_POINT('',(-135.5,57.5,-2.));
#1527=CARTESIAN_POINT('',(-139.035,57.5,-2.));
#1528=CARTESIAN_POINT('',(-131.965,57.5,-2.));
#1529=CARTESIAN_POINT('',(-139.035,46.5,0.));
#1530=CARTESIAN_POINT('',(-139.035,46.5,-2.));
#1531=CARTESIAN_POINT('',(-135.5,46.5,0.));
#1532=CARTESIAN_POINT('',(-139.035,46.5,0.));
#1533=CARTESIAN_POINT('',(-131.965,46.5,0.));
#1534=CARTESIAN_POINT('',(-135.5,46.5,-2.));
#1535=CARTESIAN_POINT('',(-139.035,46.5,-2.));
#1536=CARTESIAN_POINT('',(-131.965,46.5,-2.));
#1537=CARTESIAN_POINT('',(-150.035,46.5,0.));
#1538=CARTESIAN_POINT('',(-150.035,46.5,-2.));
#1539=CARTESIAN_POINT('',(-146.5,46.5,0.));
#1540=CARTESIAN_POINT('',(-150.035,46.5,0.));
#1541=CARTESIAN_POINT('',(-142.965,46.5,0.));
#1542=CARTESIAN_POINT('',(-146.5,46.5,-2.));
#1543=CARTESIAN_POINT('',(-150.035,46.5,-2.));
#1544=CARTESIAN_POINT('',(-142.965,46.5,-2.));
#1545=CARTESIAN_POINT('',(-150.035,57.5,0.));
#1546=CARTESIAN_POINT('',(-150.035,57.5,-2.));
#1547=CARTESIAN_POINT('',(-146.5,57.5,0.));
#1548=CARTESIAN_POINT('',(-150.035,57.5,0.));
#1549=CARTESIAN_POINT('',(-142.965,57.5,0.));
#1550=CARTESIAN_POINT('',(-146.5,57.5,-2.));
#1551=CARTESIAN_POINT('',(-150.035,57.5,-2.));
#1552=CARTESIAN_POINT('',(-142.965,57.5,-2.));
#1553=CARTESIAN_POINT('',(-149.8,41.,2.2));
#1554=CARTESIAN_POINT('',(-149.8,41.,19.8));
#1555=CARTESIAN_POINT('',(-132.2,41.,19.8));
#1556=CARTESIAN_POINT('',(-132.2,41.,2.2));
#1557=CARTESIAN_POINT('',(-132.2,60.8,2.2));
#1558=CARTESIAN_POINT('',(-147.8,43.,4.2));
#1559=CARTESIAN_POINT('',(-134.2,43.,19.8));
#1560=CARTESIAN_POINT('',(-134.2,43.,4.2));
#1561=CARTESIAN_POINT('',(-134.2,58.8,4.2));
#1562=CARTESIAN_POINT('',(-141.7,42.,19.1));
#1563=CARTESIAN_POINT('',(-143.5,41.,19.1));
#1564=CARTESIAN_POINT('',(-138.5,41.,19.8));
#1565=CARTESIAN_POINT('',(-140.3,42.,19.1));
#1566=CARTESIAN_POINT('',(-140.3,41.,17.3));
#1567=CARTESIAN_POINT('',(-132.2,41.,2.2));
#1568=CARTESIAN_POINT('',(-134.2,43.,4.2));
#1569=CARTESIAN_POINT('',(-149.8,41.,2.2));
#1570=CARTESIAN_POINT('',(-149.8,41.,19.8));
#1571=CARTESIAN_POINT('',(-149.8,60.8,19.8));
#1572=CARTESIAN_POINT('',(-149.8,60.8,2.2));
#1573=CARTESIAN_POINT('',(-132.2,41.,19.8));
#1574=CARTESIAN_POINT('',(-132.2,60.8,19.8));
#1575=CARTESIAN_POINT('',(-132.2,41.,2.2));
#1576=CARTESIAN_POINT('',(-132.2,60.8,2.2));
#1577=CARTESIAN_POINT('',(-147.8,43.,4.2));
#1578=CARTESIAN_POINT('',(-147.8,58.8,4.2));
#1579=CARTESIAN_POINT('',(-134.2,43.,4.2));
#1580=CARTESIAN_POINT('',(-134.2,58.8,4.2));
#1581=CARTESIAN_POINT('',(-147.8,43.,19.8));
#1582=CARTESIAN_POINT('',(-147.8,58.8,19.8));
#1583=CARTESIAN_POINT('',(-134.2,43.,19.8));
#1584=CARTESIAN_POINT('',(-134.2,58.8,19.8));
#1585=CARTESIAN_POINT('',(-143.5,41.,19.8));
#1586=CARTESIAN_POINT('',(-143.5,43.,19.8));
#1587=CARTESIAN_POINT('',(-138.5,41.,19.8));
#1588=CARTESIAN_POINT('',(-138.5,43.,19.8));
#1589=CARTESIAN_POINT('',(-141.7,41.,17.3));
#1590=CARTESIAN_POINT('',(-143.5,41.,19.1));
#1591=CARTESIAN_POINT('',(-138.5,41.,19.1));
#1592=CARTESIAN_POINT('',(-140.3,41.,17.3));
#1593=CARTESIAN_POINT('',(-141.7,43.,17.3));
#1594=CARTESIAN_POINT('',(-143.5,43.,19.1));
#1595=CARTESIAN_POINT('',(-138.5,43.,19.1));
#1596=CARTESIAN_POINT('',(-140.3,43.,17.3));
#1597=CARTESIAN_POINT('',(-149.8,41.,2.2));
#1598=CARTESIAN_POINT('',(-149.8,41.,19.8));
#1599=CARTESIAN_POINT('',(-149.8,41.,19.8));
#1600=CARTESIAN_POINT('',(-149.8,60.8,19.8));
#1601=CARTESIAN_POINT('',(-149.8,60.8,2.2));
#1602=CARTESIAN_POINT('',(-149.8,60.8,19.8));
#1603=CARTESIAN_POINT('',(-149.8,41.,2.2));
#1604=CARTESIAN_POINT('',(-149.8,60.8,2.2));
#1605=CARTESIAN_POINT('',(-149.8,41.,19.8));
#1606=CARTESIAN_POINT('',(-143.5,41.,19.8));
#1607=CARTESIAN_POINT('',(-132.2,41.,19.8));
#1608=CARTESIAN_POINT('',(-132.2,60.8,19.8));
#1609=CARTESIAN_POINT('',(-149.8,60.8,19.8));
#1610=CARTESIAN_POINT('',(-132.2,60.8,19.8));
#1611=CARTESIAN_POINT('',(-132.2,41.,19.8));
#1612=CARTESIAN_POINT('',(-132.2,41.,2.2));
#1613=CARTESIAN_POINT('',(-132.2,41.,2.2));
#1614=CARTESIAN_POINT('',(-132.2,60.8,2.2));
#1615=CARTESIAN_POINT('',(-132.2,60.8,19.8));
#1616=CARTESIAN_POINT('',(-132.2,60.8,2.2));
#1617=CARTESIAN_POINT('',(-132.2,41.,2.2));
#1618=CARTESIAN_POINT('',(-149.8,41.,2.2));
#1619=CARTESIAN_POINT('',(-132.2,60.8,2.2));
#1620=CARTESIAN_POINT('',(-149.8,60.8,2.2));
#1621=CARTESIAN_POINT('',(-147.8,43.,4.2));
#1622=CARTESIAN_POINT('',(-147.8,43.,19.8));
#1623=CARTESIAN_POINT('',(-147.8,58.8,4.2));
#1624=CARTESIAN_POINT('',(-147.8,58.8,19.8));
#1625=CARTESIAN_POINT('',(-147.8,43.,4.2));
#1626=CARTESIAN_POINT('',(-147.8,58.8,4.2));
#1627=CARTESIAN_POINT('',(-134.2,43.,19.8));
#1628=CARTESIAN_POINT('',(-134.2,43.,4.2));
#1629=CARTESIAN_POINT('',(-134.2,43.,4.2));
#1630=CARTESIAN_POINT('',(-134.2,58.8,4.2));
#1631=CARTESIAN_POINT('',(-134.2,58.8,19.8));
#1632=CARTESIAN_POINT('',(-134.2,58.8,4.2));
#1633=CARTESIAN_POINT('',(-134.2,43.,4.2));
#1634=CARTESIAN_POINT('',(-147.8,43.,4.2));
#1635=CARTESIAN_POINT('',(-134.2,58.8,4.2));
#1636=CARTESIAN_POINT('',(-147.8,58.8,4.2));
#1637=CARTESIAN_POINT('',(-147.8,43.,19.8));
#1638=CARTESIAN_POINT('',(-147.8,58.8,19.8));
#1639=CARTESIAN_POINT('',(-147.8,43.,19.8));
#1640=CARTESIAN_POINT('',(-143.5,43.,19.8));
#1641=CARTESIAN_POINT('',(-134.2,43.,19.8));
#1642=CARTESIAN_POINT('',(-134.2,58.8,19.8));
#1643=CARTESIAN_POINT('',(-147.8,58.8,19.8));
#1644=CARTESIAN_POINT('',(-134.2,58.8,19.8));
#1645=CARTESIAN_POINT('',(-141.7,41.,19.1));
#1646=CARTESIAN_POINT('',(-141.7,41.,17.3));
#1647=CARTESIAN_POINT('',(-143.5,41.,19.1));
#1648=CARTESIAN_POINT('',(-143.5,41.,19.1));
#1649=CARTESIAN_POINT('',(-143.5,43.,19.1));
#1650=CARTESIAN_POINT('',(-141.7,43.,19.1));
#1651=CARTESIAN_POINT('',(-141.7,43.,17.3));
#1652=CARTESIAN_POINT('',(-143.5,43.,19.1));
#1653=CARTESIAN_POINT('',(-141.7,41.,17.3));
#1654=CARTESIAN_POINT('',(-141.7,43.,17.3));
#1655=CARTESIAN_POINT('',(-138.5,41.,19.1));
#1656=CARTESIAN_POINT('',(-138.5,43.,19.1));
#1657=CARTESIAN_POINT('',(-140.3,41.,19.1));
#1658=CARTESIAN_POINT('',(-138.5,41.,19.1));
#1659=CARTESIAN_POINT('',(-140.3,41.,17.3));
#1660=CARTESIAN_POINT('',(-140.3,41.,17.3));
#1661=CARTESIAN_POINT('',(-140.3,43.,17.3));
#1662=CARTESIAN_POINT('',(-140.3,43.,19.1));
#1663=CARTESIAN_POINT('',(-138.5,43.,19.1));
#1664=CARTESIAN_POINT('',(-140.3,43.,17.3));
#1665=CARTESIAN_POINT('',(-143.5,41.,19.8));
#1666=CARTESIAN_POINT('',(-143.5,43.,19.8));
#1667=CARTESIAN_POINT('',(-138.5,41.,19.8));
#1668=CARTESIAN_POINT('',(-138.5,43.,19.8));
#1669=CARTESIAN_POINT('',(-143.5,41.,19.1));
#1670=CARTESIAN_POINT('',(-143.5,41.,19.8));
#1671=CARTESIAN_POINT('',(-138.5,41.,19.8));
#1672=CARTESIAN_POINT('',(-138.5,41.,19.1));
#1673=CARTESIAN_POINT('',(-140.3,41.,17.3));
#1674=CARTESIAN_POINT('',(-141.7,41.,17.3));
#1675=CARTESIAN_POINT('',(-143.5,43.,19.1));
#1676=CARTESIAN_POINT('',(-143.5,43.,19.8));
#1677=CARTESIAN_POINT('',(-138.5,43.,19.8));
#1678=CARTESIAN_POINT('',(-138.5,43.,19.1));
#1679=CARTESIAN_POINT('',(-140.3,43.,17.3));
#1680=CARTESIAN_POINT('',(-141.7,43.,17.3));
#1681=CARTESIAN_POINT('',(-138.5,41.,19.8));
#1682=CARTESIAN_POINT('',(-132.2,41.,19.8));
#1683=CARTESIAN_POINT('',(-138.5,43.,19.8));
#1684=CARTESIAN_POINT('',(-134.2,43.,19.8));
#1685=CARTESIAN_POINT('',(-131.,41.,20.));
#1686=CARTESIAN_POINT('',(-131.,62.,20.));
#1687=CARTESIAN_POINT('',(-151.,62.,20.));
#1688=CARTESIAN_POINT('',(-152.,41.,20.));
#1689=CARTESIAN_POINT('',(-117.,38.5,23.8));
#1690=CARTESIAN_POINT('',(-146.5,57.5,22.));
#1691=CARTESIAN_POINT('',(-146.5,57.5,22.));
#1692=CARTESIAN_POINT('',(-146.5,46.5,22.));
#1693=CARTESIAN_POINT('',(-146.5,46.5,22.));
#1694=CARTESIAN_POINT('',(-135.5,46.5,22.));
#1695=CARTESIAN_POINT('',(-135.5,46.5,22.));
#1696=CARTESIAN_POINT('',(-135.5,57.5,22.));
#1697=CARTESIAN_POINT('',(-135.5,57.5,22.));
#1698=CARTESIAN_POINT('',(-152.,41.,20.));
#1699=CARTESIAN_POINT('',(-152.,41.,22.));
#1700=CARTESIAN_POINT('',(-117.,38.5,23.8));
#1701=CARTESIAN_POINT('',(-117.,38.5,23.8));
#1702=CARTESIAN_POINT('',(-117.,38.5,23.8));
#1703=CARTESIAN_POINT('',(-132.115384615385,57.5,22.));
#1704=CARTESIAN_POINT('',(-132.115384615385,46.5,22.));
#1705=CARTESIAN_POINT('',(-143.115384615385,46.5,22.));
#1706=CARTESIAN_POINT('',(-143.115384615385,57.5,22.));
#1707=CARTESIAN_POINT('',(-151.,41.,22.));
#1708=CARTESIAN_POINT('',(-131.,41.,22.));
#1709=CARTESIAN_POINT('',(-131.,41.,20.));
#1710=CARTESIAN_POINT('',(-151.,41.,20.));
#1711=CARTESIAN_POINT('',(-131.,62.,20.));
#1712=CARTESIAN_POINT('',(-151.,62.,20.));
#1713=CARTESIAN_POINT('',(-131.,62.,22.));
#1714=CARTESIAN_POINT('',(-151.,62.,22.));
#1715=CARTESIAN_POINT('',(-143.115384615385,57.5,23.8));
#1716=CARTESIAN_POINT('',(-143.115384615385,46.5,23.8));
#1717=CARTESIAN_POINT('',(-132.115384615385,46.5,23.8));
#1718=CARTESIAN_POINT('',(-132.115384615385,57.5,23.8));
#1719=CARTESIAN_POINT('',(-149.884615384615,57.5,22.));
#1720=CARTESIAN_POINT('',(-149.884615384615,57.5,23.8));
#1721=CARTESIAN_POINT('',(-149.884615384615,46.5,22.));
#1722=CARTESIAN_POINT('',(-149.884615384615,46.5,23.8));
#1723=CARTESIAN_POINT('',(-138.884615384615,46.5,22.));
#1724=CARTESIAN_POINT('',(-138.884615384615,46.5,23.8));
#1725=CARTESIAN_POINT('',(-138.884615384615,57.5,22.));
#1726=CARTESIAN_POINT('',(-138.884615384615,57.5,23.8));
#1727=CARTESIAN_POINT('',(-135.5,57.5,22.));
#1728=CARTESIAN_POINT('',(-132.115384615385,57.5,22.));
#1729=CARTESIAN_POINT('',(-138.884615384615,57.5,22.));
#1730=CARTESIAN_POINT('',(-132.115384615385,57.5,22.));
#1731=CARTESIAN_POINT('',(-132.115384615385,57.5,23.8));
#1732=CARTESIAN_POINT('',(-135.5,46.5,22.));
#1733=CARTESIAN_POINT('',(-132.115384615385,46.5,22.));
#1734=CARTESIAN_POINT('',(-138.884615384615,46.5,22.));
#1735=CARTESIAN_POINT('',(-132.115384615385,46.5,22.));
#1736=CARTESIAN_POINT('',(-132.115384615385,46.5,23.8));
#1737=CARTESIAN_POINT('',(-146.5,46.5,22.));
#1738=CARTESIAN_POINT('',(-143.115384615385,46.5,22.));
#1739=CARTESIAN_POINT('',(-149.884615384615,46.5,22.));
#1740=CARTESIAN_POINT('',(-143.115384615385,46.5,22.));
#1741=CARTESIAN_POINT('',(-143.115384615385,46.5,23.8));
#1742=CARTESIAN_POINT('',(-146.5,57.5,22.));
#1743=CARTESIAN_POINT('',(-143.115384615385,57.5,22.));
#1744=CARTESIAN_POINT('',(-149.884615384615,57.5,22.));
#1745=CARTESIAN_POINT('',(-143.115384615385,57.5,22.));
#1746=CARTESIAN_POINT('',(-143.115384615385,57.5,23.8));
#1747=CARTESIAN_POINT('',(-131.,62.,20.));
#1748=CARTESIAN_POINT('',(-131.,62.,22.));
#1749=CARTESIAN_POINT('',(-151.,62.,20.));
#1750=CARTESIAN_POINT('',(-151.,62.,22.));
#1751=CARTESIAN_POINT('',(-131.,41.,20.));
#1752=CARTESIAN_POINT('',(-131.,41.,22.));
#1753=CARTESIAN_POINT('',(-151.,41.,20.));
#1754=CARTESIAN_POINT('',(-151.,41.,22.));
#1755=CARTESIAN_POINT('',(-131.,41.,20.));
#1756=CARTESIAN_POINT('',(-131.,62.,20.));
#1757=CARTESIAN_POINT('',(-131.,62.,20.));
#1758=CARTESIAN_POINT('',(-151.,62.,20.));
#1759=CARTESIAN_POINT('',(-151.,62.,20.));
#1760=CARTESIAN_POINT('',(-151.,41.,20.));
#1761=CARTESIAN_POINT('',(-131.,62.,22.));
#1762=CARTESIAN_POINT('',(-131.,41.,22.));
#1763=CARTESIAN_POINT('',(-151.,62.,22.));
#1764=CARTESIAN_POINT('',(-131.,62.,22.));
#1765=CARTESIAN_POINT('',(-151.,41.,22.));
#1766=CARTESIAN_POINT('',(-151.,62.,22.));
#1767=CARTESIAN_POINT('',(-151.,41.,22.));
#1768=CARTESIAN_POINT('',(-131.,41.,22.));
#1769=CARTESIAN_POINT('',(-151.,41.,20.));
#1770=CARTESIAN_POINT('',(-150.,41.,20.));
#1771=CARTESIAN_POINT('',(-132.,41.,20.));
#1772=CARTESIAN_POINT('',(-131.,41.,20.));
#1773=CARTESIAN_POINT('',(-146.5,57.5,23.8));
#1774=CARTESIAN_POINT('',(-143.115384615385,57.5,23.8));
#1775=CARTESIAN_POINT('',(-149.884615384615,57.5,23.8));
#1776=CARTESIAN_POINT('',(-146.5,46.5,23.8));
#1777=CARTESIAN_POINT('',(-143.115384615385,46.5,23.8));
#1778=CARTESIAN_POINT('',(-149.884615384615,46.5,23.8));
#1779=CARTESIAN_POINT('',(-135.5,46.5,23.8));
#1780=CARTESIAN_POINT('',(-132.115384615385,46.5,23.8));
#1781=CARTESIAN_POINT('',(-138.884615384615,46.5,23.8));
#1782=CARTESIAN_POINT('',(-135.5,57.5,23.8));
#1783=CARTESIAN_POINT('',(-132.115384615385,57.5,23.8));
#1784=CARTESIAN_POINT('',(-138.884615384615,57.5,23.8));
#1785=CARTESIAN_POINT('',(-149.884615384615,57.5,22.));
#1786=CARTESIAN_POINT('',(-149.884615384615,57.5,23.8));
#1787=CARTESIAN_POINT('',(-146.5,57.5,22.));
#1788=CARTESIAN_POINT('',(-149.884615384615,57.5,22.));
#1789=CARTESIAN_POINT('',(-143.115384615385,57.5,22.));
#1790=CARTESIAN_POINT('',(-146.5,57.5,23.8));
#1791=CARTESIAN_POINT('',(-149.884615384615,57.5,23.8));
#1792=CARTESIAN_POINT('',(-143.115384615385,57.5,23.8));
#1793=CARTESIAN_POINT('',(-149.884615384615,46.5,22.));
#1794=CARTESIAN_POINT('',(-149.884615384615,46.5,23.8));
#1795=CARTESIAN_POINT('',(-146.5,46.5,22.));
#1796=CARTESIAN_POINT('',(-149.884615384615,46.5,22.));
#1797=CARTESIAN_POINT('',(-143.115384615385,46.5,22.));
#1798=CARTESIAN_POINT('',(-146.5,46.5,23.8));
#1799=CARTESIAN_POINT('',(-149.884615384615,46.5,23.8));
#1800=CARTESIAN_POINT('',(-143.115384615385,46.5,23.8));
#1801=CARTESIAN_POINT('',(-138.884615384615,46.5,22.));
#1802=CARTESIAN_POINT('',(-138.884615384615,46.5,23.8));
#1803=CARTESIAN_POINT('',(-135.5,46.5,22.));
#1804=CARTESIAN_POINT('',(-138.884615384615,46.5,22.));
#1805=CARTESIAN_POINT('',(-132.115384615385,46.5,22.));
#1806=CARTESIAN_POINT('',(-135.5,46.5,23.8));
#1807=CARTESIAN_POINT('',(-138.884615384615,46.5,23.8));
#1808=CARTESIAN_POINT('',(-132.115384615385,46.5,23.8));
#1809=CARTESIAN_POINT('',(-138.884615384615,57.5,22.));
#1810=CARTESIAN_POINT('',(-138.884615384615,57.5,23.8));
#1811=CARTESIAN_POINT('',(-135.5,57.5,22.));
#1812=CARTESIAN_POINT('',(-138.884615384615,57.5,22.));
#1813=CARTESIAN_POINT('',(-132.115384615385,57.5,22.));
#1814=CARTESIAN_POINT('',(-135.5,57.5,23.8));
#1815=CARTESIAN_POINT('',(-138.884615384615,57.5,23.8));
#1816=CARTESIAN_POINT('',(-132.115384615385,57.5,23.8));
#1817=CARTESIAN_POINT('',(0.,0.,0.));
ENDSEC;
END-ISO-10303-21;
