ISO-10303-21;
HEADER;
/* Generated by software containing ST-Developer
 * from STEP Tools, Inc. (www.steptools.com) 
 */
/* OPTION: using custom schema-name function */

FILE_DESCRIPTION(
/* description */ (''),
/* implementation_level */ '2;1');

FILE_NAME(
/* name */ 'cube_1x4',
/* time_stamp */ '2026-09-07T13:41:00+03:00',
/* author */ (''),
/* organization */ (''),
/* preprocessor_version */ 'ST-DEVELOPER v19.2',
/* originating_system */ 'Rhino 8.34',
/* authorisation */ '');

FILE_SCHEMA (('CONFIG_CONTROL_DESIGN'));
ENDSEC;

DATA;
#10=SHAPE_REPRESENTATION_RELATIONSHIP('','',#626,#12);
#11=MANIFOLD_SOLID_BREP('brep_1',#13);
#12=ADVANCED_BREP_SHAPE_REPRESENTATION('brep_rep_0',(#11,#695),#625);
#13=CLOSED_SHELL('',(#23,#24,#25,#26,#27,#28,#29,#30,#31,#32,#33,#34,#35,
#36,#37,#38,#39,#40,#41,#42,#43,#44,#45,#46,#47,#48,#49,#50,#51,#52,#53,
#54,#55,#56,#57));
#14=FACE_BOUND('',#98,.T.);
#15=FACE_BOUND('',#99,.T.);
#16=FACE_BOUND('',#100,.T.);
#17=FACE_BOUND('',#101,.T.);
#18=FACE_BOUND('',#104,.T.);
#19=FACE_BOUND('',#125,.T.);
#20=FACE_BOUND('',#126,.T.);
#21=FACE_BOUND('',#127,.T.);
#22=FACE_BOUND('',#128,.T.);
#23=ADVANCED_FACE('',(#58),#521,.T.);
#24=ADVANCED_FACE('',(#59),#522,.T.);
#25=ADVANCED_FACE('',(#60),#523,.T.);
#26=ADVANCED_FACE('',(#61),#524,.T.);
#27=ADVANCED_FACE('',(#62,#14,#15,#16,#17),#525,.T.);
#28=ADVANCED_FACE('',(#63),#526,.T.);
#29=ADVANCED_FACE('',(#64,#18),#527,.T.);
#30=ADVANCED_FACE('',(#65),#505,.T.);
#31=ADVANCED_FACE('',(#66),#528,.T.);
#32=ADVANCED_FACE('',(#67),#506,.T.);
#33=ADVANCED_FACE('',(#68),#529,.T.);
#34=ADVANCED_FACE('',(#69),#507,.T.);
#35=ADVANCED_FACE('',(#70),#530,.T.);
#36=ADVANCED_FACE('',(#71),#508,.T.);
#37=ADVANCED_FACE('',(#72),#531,.T.);
#38=ADVANCED_FACE('',(#73),#532,.T.);
#39=ADVANCED_FACE('',(#74),#533,.T.);
#40=ADVANCED_FACE('',(#75),#534,.T.);
#41=ADVANCED_FACE('',(#76),#509,.F.);
#42=ADVANCED_FACE('',(#77),#535,.T.);
#43=ADVANCED_FACE('',(#78),#510,.F.);
#44=ADVANCED_FACE('',(#79),#536,.T.);
#45=ADVANCED_FACE('',(#80),#511,.F.);
#46=ADVANCED_FACE('',(#81),#537,.T.);
#47=ADVANCED_FACE('',(#82),#512,.F.);
#48=ADVANCED_FACE('',(#83),#538,.T.);
#49=ADVANCED_FACE('',(#84,#19,#20,#21,#22),#539,.T.);
#50=ADVANCED_FACE('',(#85),#513,.T.);
#51=ADVANCED_FACE('',(#86),#514,.T.);
#52=ADVANCED_FACE('',(#87),#515,.T.);
#53=ADVANCED_FACE('',(#88),#516,.T.);
#54=ADVANCED_FACE('',(#89),#517,.F.);
#55=ADVANCED_FACE('',(#90),#518,.F.);
#56=ADVANCED_FACE('',(#91),#519,.F.);
#57=ADVANCED_FACE('',(#92),#520,.F.);
#58=FACE_OUTER_BOUND('',#93,.T.);
#59=FACE_OUTER_BOUND('',#94,.T.);
#60=FACE_OUTER_BOUND('',#95,.T.);
#61=FACE_OUTER_BOUND('',#96,.T.);
#62=FACE_OUTER_BOUND('',#97,.T.);
#63=FACE_OUTER_BOUND('',#102,.T.);
#64=FACE_OUTER_BOUND('',#103,.T.);
#65=FACE_OUTER_BOUND('',#105,.T.);
#66=FACE_OUTER_BOUND('',#106,.T.);
#67=FACE_OUTER_BOUND('',#107,.T.);
#68=FACE_OUTER_BOUND('',#108,.T.);
#69=FACE_OUTER_BOUND('',#109,.T.);
#70=FACE_OUTER_BOUND('',#110,.T.);
#71=FACE_OUTER_BOUND('',#111,.T.);
#72=FACE_OUTER_BOUND('',#112,.T.);
#73=FACE_OUTER_BOUND('',#113,.T.);
#74=FACE_OUTER_BOUND('',#114,.T.);
#75=FACE_OUTER_BOUND('',#115,.T.);
#76=FACE_OUTER_BOUND('',#116,.T.);
#77=FACE_OUTER_BOUND('',#117,.T.);
#78=FACE_OUTER_BOUND('',#118,.T.);
#79=FACE_OUTER_BOUND('',#119,.T.);
#80=FACE_OUTER_BOUND('',#120,.T.);
#81=FACE_OUTER_BOUND('',#121,.T.);
#82=FACE_OUTER_BOUND('',#122,.T.);
#83=FACE_OUTER_BOUND('',#123,.T.);
#84=FACE_OUTER_BOUND('',#124,.T.);
#85=FACE_OUTER_BOUND('',#129,.T.);
#86=FACE_OUTER_BOUND('',#130,.T.);
#87=FACE_OUTER_BOUND('',#131,.T.);
#88=FACE_OUTER_BOUND('',#132,.T.);
#89=FACE_OUTER_BOUND('',#133,.T.);
#90=FACE_OUTER_BOUND('',#134,.T.);
#91=FACE_OUTER_BOUND('',#135,.T.);
#92=FACE_OUTER_BOUND('',#136,.T.);
#93=EDGE_LOOP('',(#137,#138,#139,#140));
#94=EDGE_LOOP('',(#141,#142,#143,#144));
#95=EDGE_LOOP('',(#145,#146,#147,#148));
#96=EDGE_LOOP('',(#149,#150,#151,#152));
#97=EDGE_LOOP('',(#153,#154,#155,#156));
#98=EDGE_LOOP('',(#157,#158));
#99=EDGE_LOOP('',(#159,#160));
#100=EDGE_LOOP('',(#161,#162));
#101=EDGE_LOOP('',(#163,#164));
#102=EDGE_LOOP('',(#165,#166,#167,#168));
#103=EDGE_LOOP('',(#169,#170,#171,#172));
#104=EDGE_LOOP('',(#173,#174,#175,#176));
#105=EDGE_LOOP('',(#177,#178,#179,#180));
#106=EDGE_LOOP('',(#181,#182));
#107=EDGE_LOOP('',(#183,#184,#185,#186));
#108=EDGE_LOOP('',(#187,#188));
#109=EDGE_LOOP('',(#189,#190,#191,#192));
#110=EDGE_LOOP('',(#193,#194));
#111=EDGE_LOOP('',(#195,#196,#197,#198));
#112=EDGE_LOOP('',(#199,#200));
#113=EDGE_LOOP('',(#201,#202,#203,#204));
#114=EDGE_LOOP('',(#205,#206,#207,#208));
#115=EDGE_LOOP('',(#209,#210,#211,#212));
#116=EDGE_LOOP('',(#213,#214,#215,#216));
#117=EDGE_LOOP('',(#217,#218));
#118=EDGE_LOOP('',(#219,#220,#221,#222));
#119=EDGE_LOOP('',(#223,#224));
#120=EDGE_LOOP('',(#225,#226,#227,#228));
#121=EDGE_LOOP('',(#229,#230));
#122=EDGE_LOOP('',(#231,#232,#233,#234));
#123=EDGE_LOOP('',(#235,#236));
#124=EDGE_LOOP('',(#237,#238,#239,#240));
#125=EDGE_LOOP('',(#241,#242));
#126=EDGE_LOOP('',(#243,#244));
#127=EDGE_LOOP('',(#245,#246));
#128=EDGE_LOOP('',(#247,#248));
#129=EDGE_LOOP('',(#249,#250,#251,#252));
#130=EDGE_LOOP('',(#253,#254,#255,#256));
#131=EDGE_LOOP('',(#257,#258,#259,#260));
#132=EDGE_LOOP('',(#261,#262,#263,#264));
#133=EDGE_LOOP('',(#265,#266,#267,#268));
#134=EDGE_LOOP('',(#269,#270,#271,#272));
#135=EDGE_LOOP('',(#273,#274,#275,#276));
#136=EDGE_LOOP('',(#277,#278,#279,#280));
#137=ORIENTED_EDGE('',*,*,#285,.F.);
#138=ORIENTED_EDGE('',*,*,#286,.F.);
#139=ORIENTED_EDGE('',*,*,#287,.F.);
#140=ORIENTED_EDGE('',*,*,#288,.F.);
#141=ORIENTED_EDGE('',*,*,#286,.T.);
#142=ORIENTED_EDGE('',*,*,#289,.T.);
#143=ORIENTED_EDGE('',*,*,#282,.T.);
#144=ORIENTED_EDGE('',*,*,#291,.F.);
#145=ORIENTED_EDGE('',*,*,#287,.T.);
#146=ORIENTED_EDGE('',*,*,#291,.T.);
#147=ORIENTED_EDGE('',*,*,#283,.T.);
#148=ORIENTED_EDGE('',*,*,#292,.F.);
#149=ORIENTED_EDGE('',*,*,#288,.T.);
#150=ORIENTED_EDGE('',*,*,#292,.T.);
#151=ORIENTED_EDGE('',*,*,#284,.T.);
#152=ORIENTED_EDGE('',*,*,#290,.F.);
#153=ORIENTED_EDGE('',*,*,#297,.T.);
#154=ORIENTED_EDGE('',*,*,#293,.T.);
#155=ORIENTED_EDGE('',*,*,#298,.T.);
#156=ORIENTED_EDGE('',*,*,#296,.F.);
#157=ORIENTED_EDGE('',*,*,#340,.F.);
#158=ORIENTED_EDGE('',*,*,#303,.F.);
#159=ORIENTED_EDGE('',*,*,#337,.F.);
#160=ORIENTED_EDGE('',*,*,#305,.F.);
#161=ORIENTED_EDGE('',*,*,#334,.F.);
#162=ORIENTED_EDGE('',*,*,#307,.F.);
#163=ORIENTED_EDGE('',*,*,#331,.F.);
#164=ORIENTED_EDGE('',*,*,#309,.F.);
#165=ORIENTED_EDGE('',*,*,#297,.F.);
#166=ORIENTED_EDGE('',*,*,#313,.T.);
#167=ORIENTED_EDGE('',*,*,#294,.F.);
#168=ORIENTED_EDGE('',*,*,#311,.T.);
#169=ORIENTED_EDGE('',*,*,#314,.F.);
#170=ORIENTED_EDGE('',*,*,#298,.F.);
#171=ORIENTED_EDGE('',*,*,#312,.F.);
#172=ORIENTED_EDGE('',*,*,#295,.T.);
#173=ORIENTED_EDGE('',*,*,#281,.T.);
#174=ORIENTED_EDGE('',*,*,#284,.F.);
#175=ORIENTED_EDGE('',*,*,#283,.F.);
#176=ORIENTED_EDGE('',*,*,#282,.F.);
#177=ORIENTED_EDGE('',*,*,#329,.T.);
#178=ORIENTED_EDGE('',*,*,#299,.F.);
#179=ORIENTED_EDGE('',*,*,#310,.F.);
#180=ORIENTED_EDGE('',*,*,#309,.T.);
#181=ORIENTED_EDGE('',*,*,#299,.T.);
#182=ORIENTED_EDGE('',*,*,#330,.T.);
#183=ORIENTED_EDGE('',*,*,#332,.T.);
#184=ORIENTED_EDGE('',*,*,#300,.F.);
#185=ORIENTED_EDGE('',*,*,#308,.F.);
#186=ORIENTED_EDGE('',*,*,#307,.T.);
#187=ORIENTED_EDGE('',*,*,#300,.T.);
#188=ORIENTED_EDGE('',*,*,#333,.T.);
#189=ORIENTED_EDGE('',*,*,#335,.T.);
#190=ORIENTED_EDGE('',*,*,#301,.F.);
#191=ORIENTED_EDGE('',*,*,#306,.F.);
#192=ORIENTED_EDGE('',*,*,#305,.T.);
#193=ORIENTED_EDGE('',*,*,#301,.T.);
#194=ORIENTED_EDGE('',*,*,#336,.T.);
#195=ORIENTED_EDGE('',*,*,#338,.T.);
#196=ORIENTED_EDGE('',*,*,#302,.F.);
#197=ORIENTED_EDGE('',*,*,#304,.F.);
#198=ORIENTED_EDGE('',*,*,#303,.T.);
#199=ORIENTED_EDGE('',*,*,#302,.T.);
#200=ORIENTED_EDGE('',*,*,#339,.T.);
#201=ORIENTED_EDGE('',*,*,#311,.F.);
#202=ORIENTED_EDGE('',*,*,#327,.T.);
#203=ORIENTED_EDGE('',*,*,#312,.T.);
#204=ORIENTED_EDGE('',*,*,#293,.F.);
#205=ORIENTED_EDGE('',*,*,#328,.F.);
#206=ORIENTED_EDGE('',*,*,#313,.F.);
#207=ORIENTED_EDGE('',*,*,#296,.T.);
#208=ORIENTED_EDGE('',*,*,#314,.T.);
#209=ORIENTED_EDGE('',*,*,#285,.T.);
#210=ORIENTED_EDGE('',*,*,#290,.T.);
#211=ORIENTED_EDGE('',*,*,#281,.F.);
#212=ORIENTED_EDGE('',*,*,#289,.F.);
#213=ORIENTED_EDGE('',*,*,#325,.F.);
#214=ORIENTED_EDGE('',*,*,#326,.T.);
#215=ORIENTED_EDGE('',*,*,#315,.T.);
#216=ORIENTED_EDGE('',*,*,#341,.F.);
#217=ORIENTED_EDGE('',*,*,#342,.F.);
#218=ORIENTED_EDGE('',*,*,#315,.F.);
#219=ORIENTED_EDGE('',*,*,#323,.F.);
#220=ORIENTED_EDGE('',*,*,#324,.T.);
#221=ORIENTED_EDGE('',*,*,#316,.T.);
#222=ORIENTED_EDGE('',*,*,#344,.F.);
#223=ORIENTED_EDGE('',*,*,#345,.F.);
#224=ORIENTED_EDGE('',*,*,#316,.F.);
#225=ORIENTED_EDGE('',*,*,#321,.F.);
#226=ORIENTED_EDGE('',*,*,#322,.T.);
#227=ORIENTED_EDGE('',*,*,#317,.T.);
#228=ORIENTED_EDGE('',*,*,#347,.F.);
#229=ORIENTED_EDGE('',*,*,#348,.F.);
#230=ORIENTED_EDGE('',*,*,#317,.F.);
#231=ORIENTED_EDGE('',*,*,#319,.F.);
#232=ORIENTED_EDGE('',*,*,#320,.T.);
#233=ORIENTED_EDGE('',*,*,#318,.T.);
#234=ORIENTED_EDGE('',*,*,#350,.F.);
#235=ORIENTED_EDGE('',*,*,#351,.F.);
#236=ORIENTED_EDGE('',*,*,#318,.F.);
#237=ORIENTED_EDGE('',*,*,#295,.F.);
#238=ORIENTED_EDGE('',*,*,#327,.F.);
#239=ORIENTED_EDGE('',*,*,#294,.T.);
#240=ORIENTED_EDGE('',*,*,#328,.T.);
#241=ORIENTED_EDGE('',*,*,#323,.T.);
#242=ORIENTED_EDGE('',*,*,#346,.T.);
#243=ORIENTED_EDGE('',*,*,#321,.T.);
#244=ORIENTED_EDGE('',*,*,#349,.T.);
#245=ORIENTED_EDGE('',*,*,#319,.T.);
#246=ORIENTED_EDGE('',*,*,#352,.T.);
#247=ORIENTED_EDGE('',*,*,#325,.T.);
#248=ORIENTED_EDGE('',*,*,#343,.T.);
#249=ORIENTED_EDGE('',*,*,#331,.T.);
#250=ORIENTED_EDGE('',*,*,#310,.T.);
#251=ORIENTED_EDGE('',*,*,#330,.F.);
#252=ORIENTED_EDGE('',*,*,#329,.F.);
#253=ORIENTED_EDGE('',*,*,#334,.T.);
#254=ORIENTED_EDGE('',*,*,#308,.T.);
#255=ORIENTED_EDGE('',*,*,#333,.F.);
#256=ORIENTED_EDGE('',*,*,#332,.F.);
#257=ORIENTED_EDGE('',*,*,#337,.T.);
#258=ORIENTED_EDGE('',*,*,#306,.T.);
#259=ORIENTED_EDGE('',*,*,#336,.F.);
#260=ORIENTED_EDGE('',*,*,#335,.F.);
#261=ORIENTED_EDGE('',*,*,#340,.T.);
#262=ORIENTED_EDGE('',*,*,#304,.T.);
#263=ORIENTED_EDGE('',*,*,#339,.F.);
#264=ORIENTED_EDGE('',*,*,#338,.F.);
#265=ORIENTED_EDGE('',*,*,#341,.T.);
#266=ORIENTED_EDGE('',*,*,#342,.T.);
#267=ORIENTED_EDGE('',*,*,#326,.F.);
#268=ORIENTED_EDGE('',*,*,#343,.F.);
#269=ORIENTED_EDGE('',*,*,#344,.T.);
#270=ORIENTED_EDGE('',*,*,#345,.T.);
#271=ORIENTED_EDGE('',*,*,#324,.F.);
#272=ORIENTED_EDGE('',*,*,#346,.F.);
#273=ORIENTED_EDGE('',*,*,#347,.T.);
#274=ORIENTED_EDGE('',*,*,#348,.T.);
#275=ORIENTED_EDGE('',*,*,#322,.F.);
#276=ORIENTED_EDGE('',*,*,#349,.F.);
#277=ORIENTED_EDGE('',*,*,#350,.T.);
#278=ORIENTED_EDGE('',*,*,#351,.T.);
#279=ORIENTED_EDGE('',*,*,#320,.F.);
#280=ORIENTED_EDGE('',*,*,#352,.F.);
#281=EDGE_CURVE('',#458,#457,#433,.T.);
#282=EDGE_CURVE('',#458,#459,#434,.T.);
#283=EDGE_CURVE('',#459,#460,#435,.T.);
#284=EDGE_CURVE('',#460,#457,#436,.T.);
#285=EDGE_CURVE('',#461,#462,#437,.T.);
#286=EDGE_CURVE('',#463,#461,#438,.T.);
#287=EDGE_CURVE('',#464,#463,#439,.T.);
#288=EDGE_CURVE('',#462,#464,#440,.T.);
#289=EDGE_CURVE('',#461,#458,#441,.T.);
#290=EDGE_CURVE('',#462,#457,#442,.T.);
#291=EDGE_CURVE('',#463,#459,#443,.T.);
#292=EDGE_CURVE('',#464,#460,#444,.T.);
#293=EDGE_CURVE('',#467,#468,#445,.T.);
#294=EDGE_CURVE('',#465,#471,#446,.T.);
#295=EDGE_CURVE('',#466,#472,#447,.T.);
#296=EDGE_CURVE('',#469,#470,#448,.T.);
#297=EDGE_CURVE('',#469,#467,#449,.T.);
#298=EDGE_CURVE('',#468,#470,#450,.T.);
#299=EDGE_CURVE('',#473,#490,#369,.T.);
#300=EDGE_CURVE('',#474,#492,#370,.T.);
#301=EDGE_CURVE('',#475,#494,#371,.T.);
#302=EDGE_CURVE('',#476,#496,#372,.T.);
#303=EDGE_CURVE('',#480,#495,#373,.T.);
#304=EDGE_CURVE('',#480,#476,#353,.T.);
#305=EDGE_CURVE('',#479,#493,#374,.T.);
#306=EDGE_CURVE('',#479,#475,#354,.T.);
#307=EDGE_CURVE('',#478,#491,#375,.T.);
#308=EDGE_CURVE('',#478,#474,#355,.T.);
#309=EDGE_CURVE('',#477,#489,#376,.T.);
#310=EDGE_CURVE('',#477,#473,#356,.T.);
#311=EDGE_CURVE('',#465,#467,#451,.T.);
#312=EDGE_CURVE('',#466,#468,#452,.T.);
#313=EDGE_CURVE('',#469,#471,#453,.T.);
#314=EDGE_CURVE('',#470,#472,#454,.T.);
#315=EDGE_CURVE('',#481,#498,#377,.T.);
#316=EDGE_CURVE('',#482,#500,#378,.T.);
#317=EDGE_CURVE('',#483,#502,#379,.T.);
#318=EDGE_CURVE('',#484,#504,#380,.T.);
#319=EDGE_CURVE('',#488,#503,#381,.T.);
#320=EDGE_CURVE('',#488,#484,#357,.T.);
#321=EDGE_CURVE('',#487,#501,#382,.T.);
#322=EDGE_CURVE('',#487,#483,#358,.T.);
#323=EDGE_CURVE('',#486,#499,#383,.T.);
#324=EDGE_CURVE('',#486,#482,#359,.T.);
#325=EDGE_CURVE('',#485,#497,#384,.T.);
#326=EDGE_CURVE('',#485,#481,#360,.T.);
#327=EDGE_CURVE('',#465,#466,#455,.T.);
#328=EDGE_CURVE('',#471,#472,#456,.T.);
#329=EDGE_CURVE('',#489,#490,#361,.T.);
#330=EDGE_CURVE('',#490,#473,#385,.T.);
#331=EDGE_CURVE('',#489,#477,#386,.T.);
#332=EDGE_CURVE('',#491,#492,#362,.T.);
#333=EDGE_CURVE('',#492,#474,#387,.T.);
#334=EDGE_CURVE('',#491,#478,#388,.T.);
#335=EDGE_CURVE('',#493,#494,#363,.T.);
#336=EDGE_CURVE('',#494,#475,#389,.T.);
#337=EDGE_CURVE('',#493,#479,#390,.T.);
#338=EDGE_CURVE('',#495,#496,#364,.T.);
#339=EDGE_CURVE('',#496,#476,#391,.T.);
#340=EDGE_CURVE('',#495,#480,#392,.T.);
#341=EDGE_CURVE('',#497,#498,#365,.T.);
#342=EDGE_CURVE('',#498,#481,#393,.T.);
#343=EDGE_CURVE('',#497,#485,#394,.T.);
#344=EDGE_CURVE('',#499,#500,#366,.T.);
#345=EDGE_CURVE('',#500,#482,#395,.T.);
#346=EDGE_CURVE('',#499,#486,#396,.T.);
#347=EDGE_CURVE('',#501,#502,#367,.T.);
#348=EDGE_CURVE('',#502,#483,#397,.T.);
#349=EDGE_CURVE('',#501,#487,#398,.T.);
#350=EDGE_CURVE('',#503,#504,#368,.T.);
#351=EDGE_CURVE('',#504,#484,#399,.T.);
#352=EDGE_CURVE('',#503,#488,#400,.T.);
#353=(
BOUNDED_CURVE()
B_SPLINE_CURVE(1,(#934,#935),.UNSPECIFIED.,.F.,.F.)
B_SPLINE_CURVE_WITH_KNOTS((2,2),(1.,2.8),.UNSPECIFIED.)
CURVE()
GEOMETRIC_REPRESENTATION_ITEM()
RATIONAL_B_SPLINE_CURVE((1.,1.))
REPRESENTATION_ITEM('')
);
#354=(
BOUNDED_CURVE()
B_SPLINE_CURVE(1,(#939,#940),.UNSPECIFIED.,.F.,.F.)
B_SPLINE_CURVE_WITH_KNOTS((2,2),(1.,2.8),.UNSPECIFIED.)
CURVE()
GEOMETRIC_REPRESENTATION_ITEM()
RATIONAL_B_SPLINE_CURVE((1.,1.))
REPRESENTATION_ITEM('')
);
#355=(
BOUNDED_CURVE()
B_SPLINE_CURVE(1,(#944,#945),.UNSPECIFIED.,.F.,.F.)
B_SPLINE_CURVE_WITH_KNOTS((2,2),(1.,2.8),.UNSPECIFIED.)
CURVE()
GEOMETRIC_REPRESENTATION_ITEM()
RATIONAL_B_SPLINE_CURVE((1.,1.))
REPRESENTATION_ITEM('')
);
#356=(
BOUNDED_CURVE()
B_SPLINE_CURVE(1,(#949,#950),.UNSPECIFIED.,.F.,.F.)
B_SPLINE_CURVE_WITH_KNOTS((2,2),(1.,2.8),.UNSPECIFIED.)
CURVE()
GEOMETRIC_REPRESENTATION_ITEM()
RATIONAL_B_SPLINE_CURVE((1.,1.))
REPRESENTATION_ITEM('')
);
#357=(
BOUNDED_CURVE()
B_SPLINE_CURVE(1,(#978,#979),.UNSPECIFIED.,.F.,.F.)
B_SPLINE_CURVE_WITH_KNOTS((2,2),(1.,3.),.UNSPECIFIED.)
CURVE()
GEOMETRIC_REPRESENTATION_ITEM()
RATIONAL_B_SPLINE_CURVE((1.,1.))
REPRESENTATION_ITEM('')
);
#358=(
BOUNDED_CURVE()
B_SPLINE_CURVE(1,(#983,#984),.UNSPECIFIED.,.F.,.F.)
B_SPLINE_CURVE_WITH_KNOTS((2,2),(1.,3.),.UNSPECIFIED.)
CURVE()
GEOMETRIC_REPRESENTATION_ITEM()
RATIONAL_B_SPLINE_CURVE((1.,1.))
REPRESENTATION_ITEM('')
);
#359=(
BOUNDED_CURVE()
B_SPLINE_CURVE(1,(#988,#989),.UNSPECIFIED.,.F.,.F.)
B_SPLINE_CURVE_WITH_KNOTS((2,2),(1.,3.),.UNSPECIFIED.)
CURVE()
GEOMETRIC_REPRESENTATION_ITEM()
RATIONAL_B_SPLINE_CURVE((1.,1.))
REPRESENTATION_ITEM('')
);
#360=(
BOUNDED_CURVE()
B_SPLINE_CURVE(1,(#993,#994),.UNSPECIFIED.,.F.,.F.)
B_SPLINE_CURVE_WITH_KNOTS((2,2),(1.,3.),.UNSPECIFIED.)
CURVE()
GEOMETRIC_REPRESENTATION_ITEM()
RATIONAL_B_SPLINE_CURVE((1.,1.))
REPRESENTATION_ITEM('')
);
#361=(
BOUNDED_CURVE()
B_SPLINE_CURVE(1,(#1001,#1002),.UNSPECIFIED.,.F.,.F.)
B_SPLINE_CURVE_WITH_KNOTS((2,2),(1.,2.8),.UNSPECIFIED.)
CURVE()
GEOMETRIC_REPRESENTATION_ITEM()
RATIONAL_B_SPLINE_CURVE((1.,1.))
REPRESENTATION_ITEM('')
);
#362=(
BOUNDED_CURVE()
B_SPLINE_CURVE(1,(#1009,#1010),.UNSPECIFIED.,.F.,.F.)
B_SPLINE_CURVE_WITH_KNOTS((2,2),(1.,2.8),.UNSPECIFIED.)
CURVE()
GEOMETRIC_REPRESENTATION_ITEM()
RATIONAL_B_SPLINE_CURVE((1.,1.))
REPRESENTATION_ITEM('')
);
#363=(
BOUNDED_CURVE()
B_SPLINE_CURVE(1,(#1017,#1018),.UNSPECIFIED.,.F.,.F.)
B_SPLINE_CURVE_WITH_KNOTS((2,2),(1.,2.8),.UNSPECIFIED.)
CURVE()
GEOMETRIC_REPRESENTATION_ITEM()
RATIONAL_B_SPLINE_CURVE((1.,1.))
REPRESENTATION_ITEM('')
);
#364=(
BOUNDED_CURVE()
B_SPLINE_CURVE(1,(#1025,#1026),.UNSPECIFIED.,.F.,.F.)
B_SPLINE_CURVE_WITH_KNOTS((2,2),(1.,2.8),.UNSPECIFIED.)
CURVE()
GEOMETRIC_REPRESENTATION_ITEM()
RATIONAL_B_SPLINE_CURVE((1.,1.))
REPRESENTATION_ITEM('')
);
#365=(
BOUNDED_CURVE()
B_SPLINE_CURVE(1,(#1033,#1034),.UNSPECIFIED.,.F.,.F.)
B_SPLINE_CURVE_WITH_KNOTS((2,2),(1.,3.),.UNSPECIFIED.)
CURVE()
GEOMETRIC_REPRESENTATION_ITEM()
RATIONAL_B_SPLINE_CURVE((1.,1.))
REPRESENTATION_ITEM('')
);
#366=(
BOUNDED_CURVE()
B_SPLINE_CURVE(1,(#1041,#1042),.UNSPECIFIED.,.F.,.F.)
B_SPLINE_CURVE_WITH_KNOTS((2,2),(1.,3.),.UNSPECIFIED.)
CURVE()
GEOMETRIC_REPRESENTATION_ITEM()
RATIONAL_B_SPLINE_CURVE((1.,1.))
REPRESENTATION_ITEM('')
);
#367=(
BOUNDED_CURVE()
B_SPLINE_CURVE(1,(#1049,#1050),.UNSPECIFIED.,.F.,.F.)
B_SPLINE_CURVE_WITH_KNOTS((2,2),(1.,3.),.UNSPECIFIED.)
CURVE()
GEOMETRIC_REPRESENTATION_ITEM()
RATIONAL_B_SPLINE_CURVE((1.,1.))
REPRESENTATION_ITEM('')
);
#368=(
BOUNDED_CURVE()
B_SPLINE_CURVE(1,(#1057,#1058),.UNSPECIFIED.,.F.,.F.)
B_SPLINE_CURVE_WITH_KNOTS((2,2),(1.,3.),.UNSPECIFIED.)
CURVE()
GEOMETRIC_REPRESENTATION_ITEM()
RATIONAL_B_SPLINE_CURVE((1.,1.))
REPRESENTATION_ITEM('')
);
#369=TRIMMED_CURVE($,#401,(#920),(#921),.T.,.CARTESIAN.);
#370=TRIMMED_CURVE($,#402,(#923),(#924),.T.,.CARTESIAN.);
#371=TRIMMED_CURVE($,#403,(#926),(#927),.T.,.CARTESIAN.);
#372=TRIMMED_CURVE($,#404,(#929),(#930),.T.,.CARTESIAN.);
#373=TRIMMED_CURVE($,#405,(#932),(#933),.T.,.CARTESIAN.);
#374=TRIMMED_CURVE($,#406,(#937),(#938),.T.,.CARTESIAN.);
#375=TRIMMED_CURVE($,#407,(#942),(#943),.T.,.CARTESIAN.);
#376=TRIMMED_CURVE($,#408,(#947),(#948),.T.,.CARTESIAN.);
#377=TRIMMED_CURVE($,#409,(#964),(#965),.T.,.CARTESIAN.);
#378=TRIMMED_CURVE($,#410,(#967),(#968),.T.,.CARTESIAN.);
#379=TRIMMED_CURVE($,#411,(#970),(#971),.T.,.CARTESIAN.);
#380=TRIMMED_CURVE($,#412,(#973),(#974),.T.,.CARTESIAN.);
#381=TRIMMED_CURVE($,#413,(#976),(#977),.T.,.CARTESIAN.);
#382=TRIMMED_CURVE($,#414,(#981),(#982),.T.,.CARTESIAN.);
#383=TRIMMED_CURVE($,#415,(#986),(#987),.T.,.CARTESIAN.);
#384=TRIMMED_CURVE($,#416,(#991),(#992),.T.,.CARTESIAN.);
#385=TRIMMED_CURVE($,#417,(#1004),(#1005),.T.,.CARTESIAN.);
#386=TRIMMED_CURVE($,#418,(#1007),(#1008),.T.,.CARTESIAN.);
#387=TRIMMED_CURVE($,#419,(#1012),(#1013),.T.,.CARTESIAN.);
#388=TRIMMED_CURVE($,#420,(#1015),(#1016),.T.,.CARTESIAN.);
#389=TRIMMED_CURVE($,#421,(#1020),(#1021),.T.,.CARTESIAN.);
#390=TRIMMED_CURVE($,#422,(#1023),(#1024),.T.,.CARTESIAN.);
#391=TRIMMED_CURVE($,#423,(#1028),(#1029),.T.,.CARTESIAN.);
#392=TRIMMED_CURVE($,#424,(#1031),(#1032),.T.,.CARTESIAN.);
#393=TRIMMED_CURVE($,#425,(#1036),(#1037),.T.,.CARTESIAN.);
#394=TRIMMED_CURVE($,#426,(#1039),(#1040),.T.,.CARTESIAN.);
#395=TRIMMED_CURVE($,#427,(#1044),(#1045),.T.,.CARTESIAN.);
#396=TRIMMED_CURVE($,#428,(#1047),(#1048),.T.,.CARTESIAN.);
#397=TRIMMED_CURVE($,#429,(#1052),(#1053),.T.,.CARTESIAN.);
#398=TRIMMED_CURVE($,#430,(#1055),(#1056),.T.,.CARTESIAN.);
#399=TRIMMED_CURVE($,#431,(#1060),(#1061),.T.,.CARTESIAN.);
#400=TRIMMED_CURVE($,#432,(#1063),(#1064),.T.,.CARTESIAN.);
#401=CIRCLE('',#663,3.38461538461539);
#402=CIRCLE('',#664,3.38461538461539);
#403=CIRCLE('',#665,3.38461538461539);
#404=CIRCLE('',#666,3.38461538461539);
#405=CIRCLE('',#667,3.38461538461539);
#406=CIRCLE('',#668,3.38461538461539);
#407=CIRCLE('',#669,3.38461538461539);
#408=CIRCLE('',#670,3.38461538461539);
#409=CIRCLE('',#671,3.535);
#410=CIRCLE('',#672,3.535);
#411=CIRCLE('',#673,3.535);
#412=CIRCLE('',#674,3.535);
#413=CIRCLE('',#675,3.535);
#414=CIRCLE('',#676,3.535);
#415=CIRCLE('',#677,3.535);
#416=CIRCLE('',#678,3.535);
#417=CIRCLE('',#679,3.38461538461539);
#418=CIRCLE('',#680,3.38461538461539);
#419=CIRCLE('',#681,3.38461538461539);
#420=CIRCLE('',#682,3.38461538461539);
#421=CIRCLE('',#683,3.38461538461539);
#422=CIRCLE('',#684,3.38461538461539);
#423=CIRCLE('',#685,3.38461538461539);
#424=CIRCLE('',#686,3.38461538461539);
#425=CIRCLE('',#687,3.535);
#426=CIRCLE('',#688,3.535);
#427=CIRCLE('',#689,3.53499999999999);
#428=CIRCLE('',#690,3.53499999999999);
#429=CIRCLE('',#691,3.535);
#430=CIRCLE('',#692,3.535);
#431=CIRCLE('',#693,3.535);
#432=CIRCLE('',#694,3.535);
#433=B_SPLINE_CURVE_WITH_KNOTS('',1,(#883,#884),.UNSPECIFIED.,.F.,.F.,(2,
2),(-43.,-1.),.UNSPECIFIED.);
#434=B_SPLINE_CURVE_WITH_KNOTS('',1,(#885,#886),.UNSPECIFIED.,.F.,.F.,(2,
2),(43.,52.),.UNSPECIFIED.);
#435=B_SPLINE_CURVE_WITH_KNOTS('',1,(#887,#888),.UNSPECIFIED.,.F.,.F.,(2,
2),(52.,94.),.UNSPECIFIED.);
#436=B_SPLINE_CURVE_WITH_KNOTS('',1,(#889,#890),.UNSPECIFIED.,.F.,.F.,(2,
2),(94.,103.),.UNSPECIFIED.);
#437=B_SPLINE_CURVE_WITH_KNOTS('',1,(#891,#892),.UNSPECIFIED.,.F.,.F.,(2,
2),(-43.,-1.),.UNSPECIFIED.);
#438=B_SPLINE_CURVE_WITH_KNOTS('',1,(#893,#894),.UNSPECIFIED.,.F.,.F.,(2,
2),(-52.,-43.),.UNSPECIFIED.);
#439=B_SPLINE_CURVE_WITH_KNOTS('',1,(#895,#896),.UNSPECIFIED.,.F.,.F.,(2,
2),(-94.,-52.),.UNSPECIFIED.);
#440=B_SPLINE_CURVE_WITH_KNOTS('',1,(#897,#898),.UNSPECIFIED.,.F.,.F.,(2,
2),(1.,10.),.UNSPECIFIED.);
#441=B_SPLINE_CURVE_WITH_KNOTS('',1,(#899,#900),.UNSPECIFIED.,.F.,.F.,(2,
2),(1.,11.),.UNSPECIFIED.);
#442=B_SPLINE_CURVE_WITH_KNOTS('',1,(#901,#902),.UNSPECIFIED.,.F.,.F.,(2,
2),(1.,11.),.UNSPECIFIED.);
#443=B_SPLINE_CURVE_WITH_KNOTS('',1,(#903,#904),.UNSPECIFIED.,.F.,.F.,(2,
2),(1.,11.),.UNSPECIFIED.);
#444=B_SPLINE_CURVE_WITH_KNOTS('',1,(#905,#906),.UNSPECIFIED.,.F.,.F.,(2,
2),(1.,11.),.UNSPECIFIED.);
#445=B_SPLINE_CURVE_WITH_KNOTS('',1,(#907,#908),.UNSPECIFIED.,.F.,.F.,(2,
2),(0.,11.),.UNSPECIFIED.);
#446=B_SPLINE_CURVE_WITH_KNOTS('',1,(#909,#910),.UNSPECIFIED.,.F.,.F.,(2,
2),(46.1,89.9),.UNSPECIFIED.);
#447=B_SPLINE_CURVE_WITH_KNOTS('',1,(#911,#912),.UNSPECIFIED.,.F.,.F.,(2,
2),(46.1,89.9),.UNSPECIFIED.);
#448=B_SPLINE_CURVE_WITH_KNOTS('',1,(#913,#914),.UNSPECIFIED.,.F.,.F.,(2,
2),(0.,11.),.UNSPECIFIED.);
#449=B_SPLINE_CURVE_WITH_KNOTS('',1,(#915,#916),.UNSPECIFIED.,.F.,.F.,(2,
2),(0.1,43.9),.UNSPECIFIED.);
#450=B_SPLINE_CURVE_WITH_KNOTS('',1,(#917,#918),.UNSPECIFIED.,.F.,.F.,(2,
2),(-43.9,-0.1),.UNSPECIFIED.);
#451=B_SPLINE_CURVE_WITH_KNOTS('',1,(#951,#952,#953),.UNSPECIFIED.,.F.,
 .F.,(2,1,2),(13.2,25.2,26.2),.UNSPECIFIED.);
#452=B_SPLINE_CURVE_WITH_KNOTS('',1,(#954,#955,#956),.UNSPECIFIED.,.F.,
 .F.,(2,1,2),(13.2,25.2,26.2),.UNSPECIFIED.);
#453=B_SPLINE_CURVE_WITH_KNOTS('',1,(#957,#958,#959),.UNSPECIFIED.,.F.,
 .F.,(2,1,2),(0.1,1.1,13.1),.UNSPECIFIED.);
#454=B_SPLINE_CURVE_WITH_KNOTS('',1,(#960,#961,#962),.UNSPECIFIED.,.F.,
 .F.,(2,1,2),(0.1,1.1,13.1),.UNSPECIFIED.);
#455=B_SPLINE_CURVE_WITH_KNOTS('',1,(#995,#996,#997),.UNSPECIFIED.,.F.,
 .F.,(2,1,2),(0.,0.199999999999989,11.),.UNSPECIFIED.);
#456=B_SPLINE_CURVE_WITH_KNOTS('',1,(#998,#999,#1000),.UNSPECIFIED.,.F.,
 .F.,(2,1,2),(0.,0.199999999999989,11.),.UNSPECIFIED.);
#457=VERTEX_POINT('',#835);
#458=VERTEX_POINT('',#836);
#459=VERTEX_POINT('',#837);
#460=VERTEX_POINT('',#838);
#461=VERTEX_POINT('',#839);
#462=VERTEX_POINT('',#840);
#463=VERTEX_POINT('',#841);
#464=VERTEX_POINT('',#842);
#465=VERTEX_POINT('',#843);
#466=VERTEX_POINT('',#844);
#467=VERTEX_POINT('',#845);
#468=VERTEX_POINT('',#846);
#469=VERTEX_POINT('',#847);
#470=VERTEX_POINT('',#848);
#471=VERTEX_POINT('',#849);
#472=VERTEX_POINT('',#850);
#473=VERTEX_POINT('',#851);
#474=VERTEX_POINT('',#852);
#475=VERTEX_POINT('',#853);
#476=VERTEX_POINT('',#854);
#477=VERTEX_POINT('',#855);
#478=VERTEX_POINT('',#856);
#479=VERTEX_POINT('',#857);
#480=VERTEX_POINT('',#858);
#481=VERTEX_POINT('',#859);
#482=VERTEX_POINT('',#860);
#483=VERTEX_POINT('',#861);
#484=VERTEX_POINT('',#862);
#485=VERTEX_POINT('',#863);
#486=VERTEX_POINT('',#864);
#487=VERTEX_POINT('',#865);
#488=VERTEX_POINT('',#866);
#489=VERTEX_POINT('',#867);
#490=VERTEX_POINT('',#868);
#491=VERTEX_POINT('',#869);
#492=VERTEX_POINT('',#870);
#493=VERTEX_POINT('',#871);
#494=VERTEX_POINT('',#872);
#495=VERTEX_POINT('',#873);
#496=VERTEX_POINT('',#874);
#497=VERTEX_POINT('',#875);
#498=VERTEX_POINT('',#876);
#499=VERTEX_POINT('',#877);
#500=VERTEX_POINT('',#878);
#501=VERTEX_POINT('',#879);
#502=VERTEX_POINT('',#880);
#503=VERTEX_POINT('',#881);
#504=VERTEX_POINT('',#882);
#505=CYLINDRICAL_SURFACE('',#635,3.38461538461539);
#506=CYLINDRICAL_SURFACE('',#637,3.38461538461539);
#507=CYLINDRICAL_SURFACE('',#639,3.38461538461539);
#508=CYLINDRICAL_SURFACE('',#641,3.38461538461539);
#509=CYLINDRICAL_SURFACE('',#646,3.535);
#510=CYLINDRICAL_SURFACE('',#648,3.535);
#511=CYLINDRICAL_SURFACE('',#650,3.535);
#512=CYLINDRICAL_SURFACE('',#652,3.535);
#513=CYLINDRICAL_SURFACE('',#655,3.38461538461539);
#514=CYLINDRICAL_SURFACE('',#656,3.38461538461539);
#515=CYLINDRICAL_SURFACE('',#657,3.38461538461539);
#516=CYLINDRICAL_SURFACE('',#658,3.38461538461539);
#517=CYLINDRICAL_SURFACE('',#659,3.535);
#518=CYLINDRICAL_SURFACE('',#660,3.53499999999999);
#519=CYLINDRICAL_SURFACE('',#661,3.535);
#520=CYLINDRICAL_SURFACE('',#662,3.535);
#521=PLANE('',#628);
#522=PLANE('',#629);
#523=PLANE('',#630);
#524=PLANE('',#631);
#525=PLANE('',#632);
#526=PLANE('',#633);
#527=PLANE('',#634);
#528=PLANE('',#636);
#529=PLANE('',#638);
#530=PLANE('',#640);
#531=PLANE('',#642);
#532=PLANE('',#643);
#533=PLANE('',#644);
#534=PLANE('',#645);
#535=PLANE('',#647);
#536=PLANE('',#649);
#537=PLANE('',#651);
#538=PLANE('',#653);
#539=PLANE('',#654);
#540=SHAPE_DEFINITION_REPRESENTATION(#541,#626);
#541=PRODUCT_DEFINITION_SHAPE($,$,#543);
#542=PRODUCT_DEFINITION_CONTEXT('3D Mechanical Parts',#615,'design');
#543=PRODUCT_DEFINITION('A','First version',#585,#542);
#544=DATE_TIME_ROLE('classification_date');
#545=DATE_TIME_ROLE('creation_date');
#546=APPLIED_DATE_AND_TIME_ASSIGNMENT(#570,#544,(#549));
#547=APPLIED_DATE_AND_TIME_ASSIGNMENT(#572,#545,(#543));
#548=SECURITY_CLASSIFICATION_LEVEL('unclassified');
#549=SECURITY_CLASSIFICATION('A','Security for version',#548);
#550=APPLIED_SECURITY_CLASSIFICATION_ASSIGNMENT(#549,(#585));
#551=APPROVAL_ROLE('Version approval');
#552=APPROVAL_ROLE('Version Security approval');
#553=APPROVAL_ROLE('Definition approval');
#554=APPROVAL_PERSON_ORGANIZATION(#603,#579,#551);
#555=APPROVAL_PERSON_ORGANIZATION(#604,#580,#552);
#556=APPROVAL_PERSON_ORGANIZATION(#607,#581,#553);
#557=COORDINATED_UNIVERSAL_TIME_OFFSET(5,0,.BEHIND.);
#558=LOCAL_TIME(0,0,0.,#557);
#559=LOCAL_TIME(0,0,0.,#557);
#560=LOCAL_TIME(0,0,0.,#557);
#561=LOCAL_TIME(0,0,0.,#557);
#562=LOCAL_TIME(0,0,0.,#557);
#563=CALENDAR_DATE(1999,1,1);
#564=CALENDAR_DATE(1999,1,1);
#565=CALENDAR_DATE(1999,1,1);
#566=CALENDAR_DATE(1999,1,1);
#567=CALENDAR_DATE(1999,1,1);
#568=DATE_AND_TIME(#563,#558);
#569=DATE_AND_TIME(#564,#559);
#570=DATE_AND_TIME(#565,#560);
#571=DATE_AND_TIME(#566,#561);
#572=DATE_AND_TIME(#567,#562);
#573=APPROVAL_DATE_TIME(#568,#579);
#574=APPROVAL_DATE_TIME(#569,#580);
#575=APPROVAL_DATE_TIME(#571,#581);
#576=APPROVAL_STATUS('not_yet_approved');
#577=APPROVAL_STATUS('not_yet_approved');
#578=APPROVAL_STATUS('approved');
#579=APPROVAL(#576,'Version approval');
#580=APPROVAL(#577,'Version Security approval');
#581=APPROVAL(#578,'Definition approval');
#582=APPLIED_APPROVAL_ASSIGNMENT(#579,(#585));
#583=APPLIED_APPROVAL_ASSIGNMENT(#580,(#549));
#584=APPLIED_APPROVAL_ASSIGNMENT(#581,(#543));
#585=PRODUCT_DEFINITION_FORMATION_WITH_SPECIFIED_SOURCE('A',
'First version',#617,.MADE.);
#586=PERSON_AND_ORGANIZATION_ROLE('design_owner');
#587=PERSON_AND_ORGANIZATION_ROLE('creator');
#588=PERSON_AND_ORGANIZATION_ROLE('design_supplier');
#589=PERSON_AND_ORGANIZATION_ROLE('classification_officer');
#590=PERSON_AND_ORGANIZATION_ROLE('creator');
#591=ORGANIZATION('STI','lab','lab');
#592=ORGANIZATION('STI','unknown','unknown');
#593=ORGANIZATION('STI','unknown','unknown');
#594=ORGANIZATION('STI','unknown','unknown');
#595=ORGANIZATION('STI','unknown','unknown');
#596=ORGANIZATION('STI','unknown','unknown');
#597=ORGANIZATION('STI','unknown','unknown');
#598=PERSON('1','Box','vc60',$,$,$);
#599=PERSON('2','last','first',$,$,$);
#600=PERSON('3','President','Mr.',$,$,$);
#601=PERSON_AND_ORGANIZATION(#598,#591);
#602=PERSON_AND_ORGANIZATION(#599,#592);
#603=PERSON_AND_ORGANIZATION(#600,#593);
#604=PERSON_AND_ORGANIZATION(#600,#594);
#605=PERSON_AND_ORGANIZATION(#600,#595);
#606=PERSON_AND_ORGANIZATION(#599,#596);
#607=PERSON_AND_ORGANIZATION(#600,#597);
#608=APPLIED_PERSON_AND_ORGANIZATION_ASSIGNMENT(#601,#586,(#617));
#609=APPLIED_PERSON_AND_ORGANIZATION_ASSIGNMENT(#602,#587,(#585));
#610=APPLIED_PERSON_AND_ORGANIZATION_ASSIGNMENT(#602,#588,(#585));
#611=APPLIED_PERSON_AND_ORGANIZATION_ASSIGNMENT(#605,#589,(#549));
#612=APPLIED_PERSON_AND_ORGANIZATION_ASSIGNMENT(#606,#590,(#543));
#613=PRODUCT_RELATED_PRODUCT_CATEGORY('detail','detail',(#617));
#614=APPLICATION_PROTOCOL_DEFINITION('International Standard',
'config_control_design',1994,#615);
#615=APPLICATION_CONTEXT(
'configuration controlled 3d designs of mechanical parts and assemblie
s');
#616=PRODUCT_CONTEXT('3D Mechanical Parts',#615,'mechanical');
#617=PRODUCT('Document','Document','',(#616));
#618=(
LENGTH_UNIT()
NAMED_UNIT(*)
SI_UNIT(.MILLI.,.METRE.)
);
#619=(
NAMED_UNIT(*)
PLANE_ANGLE_UNIT()
SI_UNIT($,.RADIAN.)
);
#620=DIMENSIONAL_EXPONENTS(0.,0.,0.,0.,0.,0.,0.);
#621=PLANE_ANGLE_MEASURE_WITH_UNIT(PLANE_ANGLE_MEASURE(0.01745329252),#619);
#622=(
CONVERSION_BASED_UNIT('DEGREES',#621)
NAMED_UNIT(#620)
PLANE_ANGLE_UNIT()
);
#623=(
NAMED_UNIT(*)
SI_UNIT($,.STERADIAN.)
SOLID_ANGLE_UNIT()
);
#624=UNCERTAINTY_MEASURE_WITH_UNIT(LENGTH_MEASURE(0.001),#618,
'DISTANCE_ACCURACY_VALUE',
'Maximum model space distance between geometric entities at asserted c
onnectivities');
#625=(
GEOMETRIC_REPRESENTATION_CONTEXT(3)
GLOBAL_UNCERTAINTY_ASSIGNED_CONTEXT((#624))
GLOBAL_UNIT_ASSIGNED_CONTEXT((#623,#622,#618))
REPRESENTATION_CONTEXT('ID1','3D')
);
#626=SHAPE_REPRESENTATION('Document',(#627,#695),#625);
#627=AXIS2_PLACEMENT_3D($,#799,#696,#697);
#628=AXIS2_PLACEMENT_3D('',#800,#698,$);
#629=AXIS2_PLACEMENT_3D('',#801,#699,$);
#630=AXIS2_PLACEMENT_3D('',#802,#700,$);
#631=AXIS2_PLACEMENT_3D('',#803,#701,$);
#632=AXIS2_PLACEMENT_3D('',#804,#702,$);
#633=AXIS2_PLACEMENT_3D('',#805,#703,$);
#634=AXIS2_PLACEMENT_3D('',#806,#704,$);
#635=AXIS2_PLACEMENT_3D('',#807,#705,$);
#636=AXIS2_PLACEMENT_3D('',#808,#706,$);
#637=AXIS2_PLACEMENT_3D('',#809,#707,$);
#638=AXIS2_PLACEMENT_3D('',#810,#708,$);
#639=AXIS2_PLACEMENT_3D('',#811,#709,$);
#640=AXIS2_PLACEMENT_3D('',#812,#710,$);
#641=AXIS2_PLACEMENT_3D('',#813,#711,$);
#642=AXIS2_PLACEMENT_3D('',#814,#712,$);
#643=AXIS2_PLACEMENT_3D('',#815,#713,$);
#644=AXIS2_PLACEMENT_3D('',#816,#714,$);
#645=AXIS2_PLACEMENT_3D('',#817,#715,$);
#646=AXIS2_PLACEMENT_3D('',#818,#716,$);
#647=AXIS2_PLACEMENT_3D('',#819,#717,$);
#648=AXIS2_PLACEMENT_3D('',#820,#718,$);
#649=AXIS2_PLACEMENT_3D('',#821,#719,$);
#650=AXIS2_PLACEMENT_3D('',#822,#720,$);
#651=AXIS2_PLACEMENT_3D('',#823,#721,$);
#652=AXIS2_PLACEMENT_3D('',#824,#722,$);
#653=AXIS2_PLACEMENT_3D('',#825,#723,$);
#654=AXIS2_PLACEMENT_3D('',#826,#724,$);
#655=AXIS2_PLACEMENT_3D('',#827,#725,$);
#656=AXIS2_PLACEMENT_3D('',#828,#726,$);
#657=AXIS2_PLACEMENT_3D('',#829,#727,$);
#658=AXIS2_PLACEMENT_3D('',#830,#728,$);
#659=AXIS2_PLACEMENT_3D('',#831,#729,$);
#660=AXIS2_PLACEMENT_3D('',#832,#730,$);
#661=AXIS2_PLACEMENT_3D('',#833,#731,$);
#662=AXIS2_PLACEMENT_3D('',#834,#732,$);
#663=AXIS2_PLACEMENT_3D($,#919,#733,#734);
#664=AXIS2_PLACEMENT_3D($,#922,#735,#736);
#665=AXIS2_PLACEMENT_3D($,#925,#737,#738);
#666=AXIS2_PLACEMENT_3D($,#928,#739,#740);
#667=AXIS2_PLACEMENT_3D($,#931,#741,#742);
#668=AXIS2_PLACEMENT_3D($,#936,#743,#744);
#669=AXIS2_PLACEMENT_3D($,#941,#745,#746);
#670=AXIS2_PLACEMENT_3D($,#946,#747,#748);
#671=AXIS2_PLACEMENT_3D($,#963,#749,#750);
#672=AXIS2_PLACEMENT_3D($,#966,#751,#752);
#673=AXIS2_PLACEMENT_3D($,#969,#753,#754);
#674=AXIS2_PLACEMENT_3D($,#972,#755,#756);
#675=AXIS2_PLACEMENT_3D($,#975,#757,#758);
#676=AXIS2_PLACEMENT_3D($,#980,#759,#760);
#677=AXIS2_PLACEMENT_3D($,#985,#761,#762);
#678=AXIS2_PLACEMENT_3D($,#990,#763,#764);
#679=AXIS2_PLACEMENT_3D($,#1003,#765,#766);
#680=AXIS2_PLACEMENT_3D($,#1006,#767,#768);
#681=AXIS2_PLACEMENT_3D($,#1011,#769,#770);
#682=AXIS2_PLACEMENT_3D($,#1014,#771,#772);
#683=AXIS2_PLACEMENT_3D($,#1019,#773,#774);
#684=AXIS2_PLACEMENT_3D($,#1022,#775,#776);
#685=AXIS2_PLACEMENT_3D($,#1027,#777,#778);
#686=AXIS2_PLACEMENT_3D($,#1030,#779,#780);
#687=AXIS2_PLACEMENT_3D($,#1035,#781,#782);
#688=AXIS2_PLACEMENT_3D($,#1038,#783,#784);
#689=AXIS2_PLACEMENT_3D($,#1043,#785,#786);
#690=AXIS2_PLACEMENT_3D($,#1046,#787,#788);
#691=AXIS2_PLACEMENT_3D($,#1051,#789,#790);
#692=AXIS2_PLACEMENT_3D($,#1054,#791,#792);
#693=AXIS2_PLACEMENT_3D($,#1059,#793,#794);
#694=AXIS2_PLACEMENT_3D($,#1062,#795,#796);
#695=AXIS2_PLACEMENT_3D($,#1065,#797,#798);
#696=DIRECTION('',(0.,0.,1.));
#697=DIRECTION('',(1.,0.,0.));
#698=DIRECTION('',(0.,0.,1.));
#699=DIRECTION('',(-1.,0.,0.));
#700=DIRECTION('',(0.,-1.,0.));
#701=DIRECTION('',(1.,0.,0.));
#702=DIRECTION('',(0.,-1.,0.));
#703=DIRECTION('',(0.,0.,-1.));
#704=DIRECTION('',(0.,0.,1.));
#705=DIRECTION('',(0.,-1.,0.));
#706=DIRECTION('',(0.,-1.,0.));
#707=DIRECTION('',(0.,-1.,0.));
#708=DIRECTION('',(0.,-1.,0.));
#709=DIRECTION('',(0.,-1.,0.));
#710=DIRECTION('',(0.,-1.,0.));
#711=DIRECTION('',(0.,-1.,0.));
#712=DIRECTION('',(0.,-1.,0.));
#713=DIRECTION('',(1.,0.,0.));
#714=DIRECTION('',(-1.,0.,0.));
#715=DIRECTION('',(0.,1.,0.));
#716=DIRECTION('',(0.,-1.,0.));
#717=DIRECTION('',(0.,1.,0.));
#718=DIRECTION('',(0.,-1.,0.));
#719=DIRECTION('',(0.,1.,0.));
#720=DIRECTION('',(0.,-1.,0.));
#721=DIRECTION('',(0.,1.,0.));
#722=DIRECTION('',(0.,-1.,0.));
#723=DIRECTION('',(0.,1.,0.));
#724=DIRECTION('',(0.,1.,0.));
#725=DIRECTION('',(0.,-1.,0.));
#726=DIRECTION('',(0.,-1.,0.));
#727=DIRECTION('',(0.,-1.,0.));
#728=DIRECTION('',(0.,-1.,0.));
#729=DIRECTION('',(0.,-1.,0.));
#730=DIRECTION('',(0.,-1.,0.));
#731=DIRECTION('',(0.,-1.,0.));
#732=DIRECTION('',(0.,-1.,0.));
#733=DIRECTION('',(0.,-1.,0.));
#734=DIRECTION('',(4.19866162040059E-15,0.,1.));
#735=DIRECTION('',(0.,-1.,0.));
#736=DIRECTION('',(0.,0.,1.));
#737=DIRECTION('',(0.,-1.,0.));
#738=DIRECTION('',(0.,0.,1.));
#739=DIRECTION('',(0.,-1.,0.));
#740=DIRECTION('',(0.,0.,1.));
#741=DIRECTION('',(0.,-1.,0.));
#742=DIRECTION('',(0.,0.,1.));
#743=DIRECTION('',(0.,-1.,0.));
#744=DIRECTION('',(0.,0.,1.));
#745=DIRECTION('',(0.,-1.,0.));
#746=DIRECTION('',(0.,0.,1.));
#747=DIRECTION('',(0.,-1.,0.));
#748=DIRECTION('',(4.19866162040059E-15,0.,1.));
#749=DIRECTION('',(0.,-1.,0.));
#750=DIRECTION('',(0.,0.,1.));
#751=DIRECTION('',(0.,-1.,0.));
#752=DIRECTION('',(0.,0.,1.));
#753=DIRECTION('',(0.,-1.,0.));
#754=DIRECTION('',(0.,0.,1.));
#755=DIRECTION('',(0.,-1.,0.));
#756=DIRECTION('',(0.,0.,1.));
#757=DIRECTION('',(0.,-1.,0.));
#758=DIRECTION('',(0.,0.,1.));
#759=DIRECTION('',(0.,-1.,0.));
#760=DIRECTION('',(0.,0.,1.));
#761=DIRECTION('',(0.,-1.,0.));
#762=DIRECTION('',(0.,0.,1.));
#763=DIRECTION('',(0.,-1.,0.));
#764=DIRECTION('',(0.,0.,1.));
#765=DIRECTION('',(0.,-1.,0.));
#766=DIRECTION('',(-4.19866162040059E-15,0.,-1.));
#767=DIRECTION('',(0.,-1.,0.));
#768=DIRECTION('',(-4.19866162040059E-15,0.,-1.));
#769=DIRECTION('',(0.,-1.,0.));
#770=DIRECTION('',(0.,0.,-1.));
#771=DIRECTION('',(0.,-1.,0.));
#772=DIRECTION('',(0.,0.,-1.));
#773=DIRECTION('',(0.,-1.,0.));
#774=DIRECTION('',(-1.04966540510015E-15,0.,-1.));
#775=DIRECTION('',(0.,-1.,0.));
#776=DIRECTION('',(-1.04966540510015E-15,0.,-1.));
#777=DIRECTION('',(0.,-1.,0.));
#778=DIRECTION('',(2.0993308102003E-15,0.,-1.));
#779=DIRECTION('',(0.,-1.,0.));
#780=DIRECTION('',(2.0993308102003E-15,0.,-1.));
#781=DIRECTION('',(0.,-1.,0.));
#782=DIRECTION('',(0.,0.,-1.));
#783=DIRECTION('',(0.,-1.,0.));
#784=DIRECTION('',(0.,0.,-1.));
#785=DIRECTION('',(0.,-1.,0.));
#786=DIRECTION('',(0.,0.,-1.));
#787=DIRECTION('',(0.,-1.,0.));
#788=DIRECTION('',(0.,0.,-1.));
#789=DIRECTION('',(0.,-1.,0.));
#790=DIRECTION('',(0.,0.,-1.));
#791=DIRECTION('',(0.,-1.,0.));
#792=DIRECTION('',(0.,0.,-1.));
#793=DIRECTION('',(0.,-1.,0.));
#794=DIRECTION('',(0.,0.,-1.));
#795=DIRECTION('',(0.,-1.,0.));
#796=DIRECTION('',(0.,0.,-1.));
#797=DIRECTION('',(0.,0.,1.));
#798=DIRECTION('',(1.,0.,0.));
#799=CARTESIAN_POINT('',(0.,0.,0.));
#800=CARTESIAN_POINT('',(0.,0.,1.));
#801=CARTESIAN_POINT('',(43.,1.,0.));
#802=CARTESIAN_POINT('',(43.,10.,0.));
#803=CARTESIAN_POINT('',(0.999999999999992,10.,0.));
#804=CARTESIAN_POINT('',(0.,0.,0.));
#805=CARTESIAN_POINT('',(0.,0.,0.));
#806=CARTESIAN_POINT('',(0.,0.,11.));
#807=CARTESIAN_POINT('',(5.49999999999999,-0.4,5.5));
#808=CARTESIAN_POINT('',(1.26923076923075,-1.8,1.26923076923077));
#809=CARTESIAN_POINT('',(16.5,-0.4,5.5));
#810=CARTESIAN_POINT('',(12.2692307692308,-1.8,1.26923076923077));
#811=CARTESIAN_POINT('',(27.5,-0.4,5.5));
#812=CARTESIAN_POINT('',(23.2692307692308,-1.8,1.26923076923077));
#813=CARTESIAN_POINT('',(38.5,-0.4,5.5));
#814=CARTESIAN_POINT('',(34.2692307692308,-1.8,1.26923076923077));
#815=CARTESIAN_POINT('',(43.9,13.,0.));
#816=CARTESIAN_POINT('',(0.1,0.,0.));
#817=CARTESIAN_POINT('',(0.,1.,0.));
#818=CARTESIAN_POINT('',(5.49999999999999,12.5,5.59999999999999));
#819=CARTESIAN_POINT('',(1.08125,11.,1.18125));
#820=CARTESIAN_POINT('',(16.5,12.5,5.59999999999999));
#821=CARTESIAN_POINT('',(12.08125,11.,1.18125));
#822=CARTESIAN_POINT('',(27.5,12.5,5.6));
#823=CARTESIAN_POINT('',(23.08125,11.,1.18125));
#824=CARTESIAN_POINT('',(38.5,12.5,5.59999999999999));
#825=CARTESIAN_POINT('',(34.08125,11.,1.18125));
#826=CARTESIAN_POINT('',(44.,13.,0.));
#827=CARTESIAN_POINT('',(5.50000000000001,-0.4,5.5));
#828=CARTESIAN_POINT('',(16.5,-0.4,5.5));
#829=CARTESIAN_POINT('',(27.5,-0.4,5.5));
#830=CARTESIAN_POINT('',(38.5,-0.4,5.5));
#831=CARTESIAN_POINT('',(5.49999999999999,12.5,5.59999999999999));
#832=CARTESIAN_POINT('',(16.5,12.5,5.59999999999999));
#833=CARTESIAN_POINT('',(27.5,12.5,5.6));
#834=CARTESIAN_POINT('',(38.5,12.5,5.59999999999999));
#835=CARTESIAN_POINT('',(1.,1.,11.));
#836=CARTESIAN_POINT('',(43.,1.,11.));
#837=CARTESIAN_POINT('',(43.,10.,11.));
#838=CARTESIAN_POINT('',(0.999999999999992,10.,11.));
#839=CARTESIAN_POINT('',(43.,1.,1.));
#840=CARTESIAN_POINT('',(1.,1.,1.));
#841=CARTESIAN_POINT('',(43.,10.,1.));
#842=CARTESIAN_POINT('',(0.999999999999991,10.,1.));
#843=CARTESIAN_POINT('',(43.9,13.,0.));
#844=CARTESIAN_POINT('',(43.9,13.,11.));
#845=CARTESIAN_POINT('',(43.9,0.,0.));
#846=CARTESIAN_POINT('',(43.9,0.,11.));
#847=CARTESIAN_POINT('',(0.1,0.,0.));
#848=CARTESIAN_POINT('',(0.1,0.,11.));
#849=CARTESIAN_POINT('',(0.1,13.,0.));
#850=CARTESIAN_POINT('',(0.1,13.,11.));
#851=CARTESIAN_POINT('',(5.5,-1.8,8.88461538461539));
#852=CARTESIAN_POINT('',(16.5,-1.8,8.88461538461539));
#853=CARTESIAN_POINT('',(27.5,-1.8,8.88461538461539));
#854=CARTESIAN_POINT('',(38.5,-1.8,8.88461538461539));
#855=CARTESIAN_POINT('',(5.5,0.,8.88461538461539));
#856=CARTESIAN_POINT('',(16.5,0.,8.88461538461539));
#857=CARTESIAN_POINT('',(27.5,0.,8.88461538461539));
#858=CARTESIAN_POINT('',(38.5,0.,8.88461538461539));
#859=CARTESIAN_POINT('',(5.49999999999999,11.,9.13499999999999));
#860=CARTESIAN_POINT('',(16.5,11.,9.13499999999999));
#861=CARTESIAN_POINT('',(27.5,11.,9.13499999999999));
#862=CARTESIAN_POINT('',(38.5,11.,9.13499999999999));
#863=CARTESIAN_POINT('',(5.49999999999999,13.,9.13499999999999));
#864=CARTESIAN_POINT('',(16.5,13.,9.13499999999999));
#865=CARTESIAN_POINT('',(27.5,13.,9.13499999999999));
#866=CARTESIAN_POINT('',(38.5,13.,9.13499999999999));
#867=CARTESIAN_POINT('',(5.5,0.,2.11538461538461));
#868=CARTESIAN_POINT('',(5.5,-1.8,2.11538461538461));
#869=CARTESIAN_POINT('',(16.5,0.,2.11538461538461));
#870=CARTESIAN_POINT('',(16.5,-1.8,2.11538461538461));
#871=CARTESIAN_POINT('',(27.5,0.,2.11538461538461));
#872=CARTESIAN_POINT('',(27.5,-1.8,2.11538461538461));
#873=CARTESIAN_POINT('',(38.5,0.,2.11538461538461));
#874=CARTESIAN_POINT('',(38.5,-1.8,2.11538461538461));
#875=CARTESIAN_POINT('',(5.49999999999999,13.,2.065));
#876=CARTESIAN_POINT('',(5.49999999999999,11.,2.065));
#877=CARTESIAN_POINT('',(16.5,13.,2.065));
#878=CARTESIAN_POINT('',(16.5,11.,2.065));
#879=CARTESIAN_POINT('',(27.5,13.,2.065));
#880=CARTESIAN_POINT('',(27.5,11.,2.065));
#881=CARTESIAN_POINT('',(38.5,13.,2.065));
#882=CARTESIAN_POINT('',(38.5,11.,2.065));
#883=CARTESIAN_POINT('',(43.,1.,11.));
#884=CARTESIAN_POINT('',(1.,1.,11.));
#885=CARTESIAN_POINT('',(43.,1.,11.));
#886=CARTESIAN_POINT('',(43.,10.,11.));
#887=CARTESIAN_POINT('',(43.,10.,11.));
#888=CARTESIAN_POINT('',(0.999999999999992,10.,11.));
#889=CARTESIAN_POINT('',(0.999999999999992,10.,11.));
#890=CARTESIAN_POINT('',(1.,1.,11.));
#891=CARTESIAN_POINT('',(43.,1.,1.));
#892=CARTESIAN_POINT('',(1.,1.,1.));
#893=CARTESIAN_POINT('',(43.,10.,1.));
#894=CARTESIAN_POINT('',(43.,1.,1.));
#895=CARTESIAN_POINT('',(0.999999999999991,10.,1.));
#896=CARTESIAN_POINT('',(43.,10.,1.));
#897=CARTESIAN_POINT('',(1.,1.,1.));
#898=CARTESIAN_POINT('',(0.999999999999991,10.,1.));
#899=CARTESIAN_POINT('',(43.,1.,1.));
#900=CARTESIAN_POINT('',(43.,1.,11.));
#901=CARTESIAN_POINT('',(1.,1.,1.));
#902=CARTESIAN_POINT('',(1.,1.,11.));
#903=CARTESIAN_POINT('',(43.,10.,1.));
#904=CARTESIAN_POINT('',(43.,10.,11.));
#905=CARTESIAN_POINT('',(0.999999999999991,10.,1.));
#906=CARTESIAN_POINT('',(0.999999999999992,10.,11.));
#907=CARTESIAN_POINT('',(43.9,0.,0.));
#908=CARTESIAN_POINT('',(43.9,0.,11.));
#909=CARTESIAN_POINT('',(43.9,13.,0.));
#910=CARTESIAN_POINT('',(0.1,13.,0.));
#911=CARTESIAN_POINT('',(43.9,13.,11.));
#912=CARTESIAN_POINT('',(0.1,13.,11.));
#913=CARTESIAN_POINT('',(0.1,0.,0.));
#914=CARTESIAN_POINT('',(0.1,0.,11.));
#915=CARTESIAN_POINT('',(0.1,0.,0.));
#916=CARTESIAN_POINT('',(43.9,0.,0.));
#917=CARTESIAN_POINT('',(43.9,0.,11.));
#918=CARTESIAN_POINT('',(0.1,0.,11.));
#919=CARTESIAN_POINT('',(5.49999999999999,-1.8,5.5));
#920=CARTESIAN_POINT('',(5.5,-1.8,8.88461538461539));
#921=CARTESIAN_POINT('',(5.5,-1.8,2.11538461538461));
#922=CARTESIAN_POINT('',(16.5,-1.8,5.5));
#923=CARTESIAN_POINT('',(16.5,-1.8,8.88461538461539));
#924=CARTESIAN_POINT('',(16.5,-1.8,2.11538461538461));
#925=CARTESIAN_POINT('',(27.5,-1.8,5.5));
#926=CARTESIAN_POINT('',(27.5,-1.8,8.88461538461539));
#927=CARTESIAN_POINT('',(27.5,-1.8,2.11538461538461));
#928=CARTESIAN_POINT('',(38.5,-1.8,5.5));
#929=CARTESIAN_POINT('',(38.5,-1.8,8.88461538461539));
#930=CARTESIAN_POINT('',(38.5,-1.8,2.11538461538461));
#931=CARTESIAN_POINT('',(38.5,0.,5.5));
#932=CARTESIAN_POINT('',(38.5,0.,8.88461538461539));
#933=CARTESIAN_POINT('',(38.5,0.,2.11538461538461));
#934=CARTESIAN_POINT('',(38.5,0.,8.88461538461539));
#935=CARTESIAN_POINT('',(38.5,-1.8,8.88461538461539));
#936=CARTESIAN_POINT('',(27.5,0.,5.5));
#937=CARTESIAN_POINT('',(27.5,0.,8.88461538461539));
#938=CARTESIAN_POINT('',(27.5,0.,2.11538461538461));
#939=CARTESIAN_POINT('',(27.5,0.,8.88461538461539));
#940=CARTESIAN_POINT('',(27.5,-1.8,8.88461538461539));
#941=CARTESIAN_POINT('',(16.5,0.,5.5));
#942=CARTESIAN_POINT('',(16.5,0.,8.88461538461539));
#943=CARTESIAN_POINT('',(16.5,0.,2.11538461538461));
#944=CARTESIAN_POINT('',(16.5,0.,8.88461538461539));
#945=CARTESIAN_POINT('',(16.5,-1.8,8.88461538461539));
#946=CARTESIAN_POINT('',(5.49999999999999,0.,5.5));
#947=CARTESIAN_POINT('',(5.5,0.,8.88461538461539));
#948=CARTESIAN_POINT('',(5.5,0.,2.11538461538461));
#949=CARTESIAN_POINT('',(5.5,0.,8.88461538461539));
#950=CARTESIAN_POINT('',(5.5,-1.8,8.88461538461539));
#951=CARTESIAN_POINT('',(43.9,13.,0.));
#952=CARTESIAN_POINT('',(43.9,1.,0.));
#953=CARTESIAN_POINT('',(43.9,0.,0.));
#954=CARTESIAN_POINT('',(43.9,13.,11.));
#955=CARTESIAN_POINT('',(43.9,1.,11.));
#956=CARTESIAN_POINT('',(43.9,0.,11.));
#957=CARTESIAN_POINT('',(0.1,0.,0.));
#958=CARTESIAN_POINT('',(0.1,1.,0.));
#959=CARTESIAN_POINT('',(0.1,13.,0.));
#960=CARTESIAN_POINT('',(0.1,0.,11.));
#961=CARTESIAN_POINT('',(0.1,1.,11.));
#962=CARTESIAN_POINT('',(0.1,13.,11.));
#963=CARTESIAN_POINT('',(5.49999999999999,11.,5.59999999999999));
#964=CARTESIAN_POINT('',(5.49999999999999,11.,9.13499999999999));
#965=CARTESIAN_POINT('',(5.49999999999999,11.,2.065));
#966=CARTESIAN_POINT('',(16.5,11.,5.59999999999999));
#967=CARTESIAN_POINT('',(16.5,11.,9.13499999999999));
#968=CARTESIAN_POINT('',(16.5,11.,2.065));
#969=CARTESIAN_POINT('',(27.5,11.,5.6));
#970=CARTESIAN_POINT('',(27.5,11.,9.13499999999999));
#971=CARTESIAN_POINT('',(27.5,11.,2.065));
#972=CARTESIAN_POINT('',(38.5,11.,5.59999999999999));
#973=CARTESIAN_POINT('',(38.5,11.,9.13499999999999));
#974=CARTESIAN_POINT('',(38.5,11.,2.065));
#975=CARTESIAN_POINT('',(38.5,13.,5.59999999999999));
#976=CARTESIAN_POINT('',(38.5,13.,9.13499999999999));
#977=CARTESIAN_POINT('',(38.5,13.,2.065));
#978=CARTESIAN_POINT('',(38.5,13.,9.13499999999999));
#979=CARTESIAN_POINT('',(38.5,11.,9.13499999999999));
#980=CARTESIAN_POINT('',(27.5,13.,5.6));
#981=CARTESIAN_POINT('',(27.5,13.,9.13499999999999));
#982=CARTESIAN_POINT('',(27.5,13.,2.065));
#983=CARTESIAN_POINT('',(27.5,13.,9.13499999999999));
#984=CARTESIAN_POINT('',(27.5,11.,9.13499999999999));
#985=CARTESIAN_POINT('',(16.5,13.,5.59999999999999));
#986=CARTESIAN_POINT('',(16.5,13.,9.13499999999999));
#987=CARTESIAN_POINT('',(16.5,13.,2.065));
#988=CARTESIAN_POINT('',(16.5,13.,9.13499999999999));
#989=CARTESIAN_POINT('',(16.5,11.,9.13499999999999));
#990=CARTESIAN_POINT('',(5.49999999999999,13.,5.59999999999999));
#991=CARTESIAN_POINT('',(5.49999999999999,13.,9.13499999999999));
#992=CARTESIAN_POINT('',(5.49999999999999,13.,2.065));
#993=CARTESIAN_POINT('',(5.49999999999999,13.,9.13499999999999));
#994=CARTESIAN_POINT('',(5.49999999999999,11.,9.13499999999999));
#995=CARTESIAN_POINT('',(43.9,13.,0.));
#996=CARTESIAN_POINT('',(43.9,13.,0.199999999999989));
#997=CARTESIAN_POINT('',(43.9,13.,11.));
#998=CARTESIAN_POINT('',(0.1,13.,0.));
#999=CARTESIAN_POINT('',(0.1,13.,0.199999999999989));
#1000=CARTESIAN_POINT('',(0.1,13.,11.));
#1001=CARTESIAN_POINT('',(5.5,-5.55111512312578E-16,2.11538461538461));
#1002=CARTESIAN_POINT('',(5.5,-1.8,2.11538461538461));
#1003=CARTESIAN_POINT('',(5.50000000000001,-1.8,5.5));
#1004=CARTESIAN_POINT('',(5.5,-1.8,2.11538461538461));
#1005=CARTESIAN_POINT('',(5.5,-1.8,8.88461538461539));
#1006=CARTESIAN_POINT('',(5.50000000000001,0.,5.5));
#1007=CARTESIAN_POINT('',(5.5,0.,2.11538461538461));
#1008=CARTESIAN_POINT('',(5.5,0.,8.88461538461539));
#1009=CARTESIAN_POINT('',(16.5,-1.11022302462516E-16,2.11538461538461));
#1010=CARTESIAN_POINT('',(16.5,-1.8,2.11538461538461));
#1011=CARTESIAN_POINT('',(16.5,-1.8,5.5));
#1012=CARTESIAN_POINT('',(16.5,-1.8,2.11538461538461));
#1013=CARTESIAN_POINT('',(16.5,-1.8,8.88461538461539));
#1014=CARTESIAN_POINT('',(16.5,0.,5.5));
#1015=CARTESIAN_POINT('',(16.5,0.,2.11538461538461));
#1016=CARTESIAN_POINT('',(16.5,0.,8.88461538461539));
#1017=CARTESIAN_POINT('',(27.5,-5.55111512312578E-16,2.11538461538461));
#1018=CARTESIAN_POINT('',(27.5,-1.8,2.11538461538461));
#1019=CARTESIAN_POINT('',(27.5,-1.8,5.5));
#1020=CARTESIAN_POINT('',(27.5,-1.8,2.11538461538461));
#1021=CARTESIAN_POINT('',(27.5,-1.8,8.88461538461539));
#1022=CARTESIAN_POINT('',(27.5,0.,5.5));
#1023=CARTESIAN_POINT('',(27.5,0.,2.11538461538461));
#1024=CARTESIAN_POINT('',(27.5,0.,8.88461538461539));
#1025=CARTESIAN_POINT('',(38.5,-5.55111512312578E-16,2.11538461538461));
#1026=CARTESIAN_POINT('',(38.5,-1.8,2.11538461538461));
#1027=CARTESIAN_POINT('',(38.5,-1.8,5.5));
#1028=CARTESIAN_POINT('',(38.5,-1.8,2.11538461538461));
#1029=CARTESIAN_POINT('',(38.5,-1.8,8.88461538461539));
#1030=CARTESIAN_POINT('',(38.5,0.,5.5));
#1031=CARTESIAN_POINT('',(38.5,0.,2.11538461538461));
#1032=CARTESIAN_POINT('',(38.5,0.,8.88461538461539));
#1033=CARTESIAN_POINT('',(5.49999999999999,13.,2.065));
#1034=CARTESIAN_POINT('',(5.49999999999999,11.,2.065));
#1035=CARTESIAN_POINT('',(5.49999999999999,11.,5.59999999999999));
#1036=CARTESIAN_POINT('',(5.49999999999999,11.,2.065));
#1037=CARTESIAN_POINT('',(5.49999999999999,11.,9.13499999999999));
#1038=CARTESIAN_POINT('',(5.49999999999999,13.,5.59999999999999));
#1039=CARTESIAN_POINT('',(5.49999999999999,13.,2.065));
#1040=CARTESIAN_POINT('',(5.49999999999999,13.,9.13499999999999));
#1041=CARTESIAN_POINT('',(16.5,13.,2.065));
#1042=CARTESIAN_POINT('',(16.5,11.,2.065));
#1043=CARTESIAN_POINT('',(16.5,11.,5.59999999999999));
#1044=CARTESIAN_POINT('',(16.5,11.,2.065));
#1045=CARTESIAN_POINT('',(16.5,11.,9.13499999999999));
#1046=CARTESIAN_POINT('',(16.5,13.,5.59999999999999));
#1047=CARTESIAN_POINT('',(16.5,13.,2.065));
#1048=CARTESIAN_POINT('',(16.5,13.,9.13499999999999));
#1049=CARTESIAN_POINT('',(27.5,13.,2.065));
#1050=CARTESIAN_POINT('',(27.5,11.,2.065));
#1051=CARTESIAN_POINT('',(27.5,11.,5.6));
#1052=CARTESIAN_POINT('',(27.5,11.,2.065));
#1053=CARTESIAN_POINT('',(27.5,11.,9.13499999999999));
#1054=CARTESIAN_POINT('',(27.5,13.,5.6));
#1055=CARTESIAN_POINT('',(27.5,13.,2.065));
#1056=CARTESIAN_POINT('',(27.5,13.,9.13499999999999));
#1057=CARTESIAN_POINT('',(38.5,13.,2.065));
#1058=CARTESIAN_POINT('',(38.5,11.,2.065));
#1059=CARTESIAN_POINT('',(38.5,11.,5.59999999999999));
#1060=CARTESIAN_POINT('',(38.5,11.,2.065));
#1061=CARTESIAN_POINT('',(38.5,11.,9.13499999999999));
#1062=CARTESIAN_POINT('',(38.5,13.,5.59999999999999));
#1063=CARTESIAN_POINT('',(38.5,13.,2.065));
#1064=CARTESIAN_POINT('',(38.5,13.,9.13499999999999));
#1065=CARTESIAN_POINT('',(0.,0.,0.));
ENDSEC;
END-ISO-10303-21;
