ISO-10303-21;
HEADER;
/* Generated by software containing ST-Developer
 * from STEP Tools, Inc. (www.steptools.com) 
 */
/* OPTION: using custom schema-name function */

FILE_DESCRIPTION(
/* description */ (''),
/* implementation_level */ '2;1');

FILE_NAME(
/* name */ 'cube_1x2',
/* time_stamp */ '2026-09-06T22:11:08+03:00',
/* author */ (''),
/* organization */ (''),
/* preprocessor_version */ 'ST-DEVELOPER v19.2',
/* originating_system */ 'Rhino 8.34',
/* authorisation */ '');

FILE_SCHEMA (('CONFIG_CONTROL_DESIGN'));
ENDSEC;

DATA;
#10=SHAPE_REPRESENTATION_RELATIONSHIP('','',#477,#12);
#11=MANIFOLD_SOLID_BREP('brep_1',#13);
#12=ADVANCED_BREP_SHAPE_REPRESENTATION('brep_rep_0',(#11,#519),#476);
#13=CLOSED_SHELL('',(#14,#15,#16,#17,#18,#19,#20,#21,#22,#23,#24,#25,#26,
#27,#28,#29,#30,#31,#32,#33,#34,#35,#36,#37,#38));
#14=ADVANCED_FACE('',(#44,#39,#40),#375,.T.);
#15=ADVANCED_FACE('',(#45),#367,.F.);
#16=ADVANCED_FACE('',(#46),#369,.F.);
#17=ADVANCED_FACE('',(#47),#371,.T.);
#18=ADVANCED_FACE('',(#48),#386,.T.);
#19=ADVANCED_FACE('',(#49),#373,.T.);
#20=ADVANCED_FACE('',(#50),#387,.T.);
#21=ADVANCED_FACE('',(#51),#376,.T.);
#22=ADVANCED_FACE('',(#52),#388,.T.);
#23=ADVANCED_FACE('',(#53),#389,.T.);
#24=ADVANCED_FACE('',(#54),#378,.T.);
#25=ADVANCED_FACE('',(#55),#379,.T.);
#26=ADVANCED_FACE('',(#56),#380,.T.);
#27=ADVANCED_FACE('',(#57),#390,.T.);
#28=ADVANCED_FACE('',(#58,#41,#42),#381,.T.);
#29=ADVANCED_FACE('',(#59),#377,.T.);
#30=ADVANCED_FACE('',(#60),#377,.T.);
#31=ADVANCED_FACE('',(#61),#382,.T.);
#32=ADVANCED_FACE('',(#62),#383,.T.);
#33=ADVANCED_FACE('',(#63),#384,.T.);
#34=ADVANCED_FACE('',(#64,#43),#385,.T.);
#35=ADVANCED_FACE('',(#65),#368,.F.);
#36=ADVANCED_FACE('',(#66),#370,.F.);
#37=ADVANCED_FACE('',(#67),#372,.T.);
#38=ADVANCED_FACE('',(#68),#374,.T.);
#39=FACE_BOUND('',#70,.T.);
#40=FACE_BOUND('',#71,.T.);
#41=FACE_BOUND('',#86,.T.);
#42=FACE_BOUND('',#87,.T.);
#43=FACE_BOUND('',#94,.T.);
#44=FACE_OUTER_BOUND('',#69,.T.);
#45=FACE_OUTER_BOUND('',#72,.T.);
#46=FACE_OUTER_BOUND('',#73,.T.);
#47=FACE_OUTER_BOUND('',#74,.T.);
#48=FACE_OUTER_BOUND('',#75,.T.);
#49=FACE_OUTER_BOUND('',#76,.T.);
#50=FACE_OUTER_BOUND('',#77,.T.);
#51=FACE_OUTER_BOUND('',#78,.T.);
#52=FACE_OUTER_BOUND('',#79,.T.);
#53=FACE_OUTER_BOUND('',#80,.T.);
#54=FACE_OUTER_BOUND('',#81,.T.);
#55=FACE_OUTER_BOUND('',#82,.T.);
#56=FACE_OUTER_BOUND('',#83,.T.);
#57=FACE_OUTER_BOUND('',#84,.T.);
#58=FACE_OUTER_BOUND('',#85,.T.);
#59=FACE_OUTER_BOUND('',#88,.T.);
#60=FACE_OUTER_BOUND('',#89,.T.);
#61=FACE_OUTER_BOUND('',#90,.T.);
#62=FACE_OUTER_BOUND('',#91,.T.);
#63=FACE_OUTER_BOUND('',#92,.T.);
#64=FACE_OUTER_BOUND('',#93,.T.);
#65=FACE_OUTER_BOUND('',#95,.T.);
#66=FACE_OUTER_BOUND('',#96,.T.);
#67=FACE_OUTER_BOUND('',#97,.T.);
#68=FACE_OUTER_BOUND('',#98,.T.);
#69=EDGE_LOOP('',(#99,#100,#101,#102));
#70=EDGE_LOOP('',(#103,#104));
#71=EDGE_LOOP('',(#105,#106));
#72=EDGE_LOOP('',(#107,#108,#109,#110));
#73=EDGE_LOOP('',(#111,#112,#113,#114));
#74=EDGE_LOOP('',(#115,#116,#117,#118));
#75=EDGE_LOOP('',(#119,#120));
#76=EDGE_LOOP('',(#121,#122,#123,#124));
#77=EDGE_LOOP('',(#125,#126));
#78=EDGE_LOOP('',(#127,#128,#129,#130));
#79=EDGE_LOOP('',(#131,#132,#133,#134));
#80=EDGE_LOOP('',(#135,#136,#137,#138));
#81=EDGE_LOOP('',(#139,#140,#141,#142));
#82=EDGE_LOOP('',(#143,#144,#145,#146));
#83=EDGE_LOOP('',(#147,#148,#149,#150));
#84=EDGE_LOOP('',(#151,#152,#153,#154));
#85=EDGE_LOOP('',(#155,#156,#157,#158));
#86=EDGE_LOOP('',(#159,#160));
#87=EDGE_LOOP('',(#161,#162));
#88=EDGE_LOOP('',(#163,#164));
#89=EDGE_LOOP('',(#165,#166));
#90=EDGE_LOOP('',(#167,#168,#169,#170));
#91=EDGE_LOOP('',(#171,#172,#173,#174));
#92=EDGE_LOOP('',(#175,#176,#177,#178,#179,#180));
#93=EDGE_LOOP('',(#181,#182,#183,#184,#185,#186));
#94=EDGE_LOOP('',(#187,#188,#189,#190));
#95=EDGE_LOOP('',(#191,#192,#193,#194));
#96=EDGE_LOOP('',(#195,#196,#197,#198));
#97=EDGE_LOOP('',(#199,#200,#201,#202));
#98=EDGE_LOOP('',(#203,#204,#205,#206));
#99=ORIENTED_EDGE('',*,*,#208,.F.);
#100=ORIENTED_EDGE('',*,*,#209,.F.);
#101=ORIENTED_EDGE('',*,*,#210,.F.);
#102=ORIENTED_EDGE('',*,*,#207,.F.);
#103=ORIENTED_EDGE('',*,*,#215,.T.);
#104=ORIENTED_EDGE('',*,*,#251,.T.);
#105=ORIENTED_EDGE('',*,*,#213,.T.);
#106=ORIENTED_EDGE('',*,*,#254,.T.);
#107=ORIENTED_EDGE('',*,*,#215,.F.);
#108=ORIENTED_EDGE('',*,*,#216,.T.);
#109=ORIENTED_EDGE('',*,*,#211,.T.);
#110=ORIENTED_EDGE('',*,*,#249,.F.);
#111=ORIENTED_EDGE('',*,*,#213,.F.);
#112=ORIENTED_EDGE('',*,*,#214,.T.);
#113=ORIENTED_EDGE('',*,*,#212,.T.);
#114=ORIENTED_EDGE('',*,*,#252,.F.);
#115=ORIENTED_EDGE('',*,*,#255,.T.);
#116=ORIENTED_EDGE('',*,*,#217,.F.);
#117=ORIENTED_EDGE('',*,*,#227,.F.);
#118=ORIENTED_EDGE('',*,*,#226,.T.);
#119=ORIENTED_EDGE('',*,*,#217,.T.);
#120=ORIENTED_EDGE('',*,*,#256,.T.);
#121=ORIENTED_EDGE('',*,*,#258,.T.);
#122=ORIENTED_EDGE('',*,*,#218,.F.);
#123=ORIENTED_EDGE('',*,*,#225,.F.);
#124=ORIENTED_EDGE('',*,*,#224,.T.);
#125=ORIENTED_EDGE('',*,*,#218,.T.);
#126=ORIENTED_EDGE('',*,*,#259,.T.);
#127=ORIENTED_EDGE('',*,*,#220,.T.);
#128=ORIENTED_EDGE('',*,*,#221,.T.);
#129=ORIENTED_EDGE('',*,*,#222,.F.);
#130=ORIENTED_EDGE('',*,*,#219,.F.);
#131=ORIENTED_EDGE('',*,*,#223,.F.);
#132=ORIENTED_EDGE('',*,*,#220,.F.);
#133=ORIENTED_EDGE('',*,*,#240,.F.);
#134=ORIENTED_EDGE('',*,*,#237,.F.);
#135=ORIENTED_EDGE('',*,*,#236,.F.);
#136=ORIENTED_EDGE('',*,*,#231,.F.);
#137=ORIENTED_EDGE('',*,*,#232,.F.);
#138=ORIENTED_EDGE('',*,*,#233,.F.);
#139=ORIENTED_EDGE('',*,*,#231,.T.);
#140=ORIENTED_EDGE('',*,*,#238,.T.);
#141=ORIENTED_EDGE('',*,*,#228,.T.);
#142=ORIENTED_EDGE('',*,*,#234,.F.);
#143=ORIENTED_EDGE('',*,*,#232,.T.);
#144=ORIENTED_EDGE('',*,*,#234,.T.);
#145=ORIENTED_EDGE('',*,*,#229,.T.);
#146=ORIENTED_EDGE('',*,*,#235,.F.);
#147=ORIENTED_EDGE('',*,*,#233,.T.);
#148=ORIENTED_EDGE('',*,*,#235,.T.);
#149=ORIENTED_EDGE('',*,*,#230,.T.);
#150=ORIENTED_EDGE('',*,*,#239,.F.);
#151=ORIENTED_EDGE('',*,*,#236,.T.);
#152=ORIENTED_EDGE('',*,*,#239,.T.);
#153=ORIENTED_EDGE('',*,*,#241,.T.);
#154=ORIENTED_EDGE('',*,*,#238,.F.);
#155=ORIENTED_EDGE('',*,*,#243,.T.);
#156=ORIENTED_EDGE('',*,*,#222,.T.);
#157=ORIENTED_EDGE('',*,*,#244,.T.);
#158=ORIENTED_EDGE('',*,*,#242,.T.);
#159=ORIENTED_EDGE('',*,*,#260,.F.);
#160=ORIENTED_EDGE('',*,*,#224,.F.);
#161=ORIENTED_EDGE('',*,*,#257,.F.);
#162=ORIENTED_EDGE('',*,*,#226,.F.);
#163=ORIENTED_EDGE('',*,*,#253,.F.);
#164=ORIENTED_EDGE('',*,*,#212,.F.);
#165=ORIENTED_EDGE('',*,*,#250,.F.);
#166=ORIENTED_EDGE('',*,*,#211,.F.);
#167=ORIENTED_EDGE('',*,*,#245,.T.);
#168=ORIENTED_EDGE('',*,*,#207,.T.);
#169=ORIENTED_EDGE('',*,*,#247,.F.);
#170=ORIENTED_EDGE('',*,*,#242,.F.);
#171=ORIENTED_EDGE('',*,*,#246,.T.);
#172=ORIENTED_EDGE('',*,*,#237,.T.);
#173=ORIENTED_EDGE('',*,*,#248,.F.);
#174=ORIENTED_EDGE('',*,*,#209,.T.);
#175=ORIENTED_EDGE('',*,*,#244,.F.);
#176=ORIENTED_EDGE('',*,*,#221,.F.);
#177=ORIENTED_EDGE('',*,*,#223,.T.);
#178=ORIENTED_EDGE('',*,*,#246,.F.);
#179=ORIENTED_EDGE('',*,*,#208,.T.);
#180=ORIENTED_EDGE('',*,*,#245,.F.);
#181=ORIENTED_EDGE('',*,*,#247,.T.);
#182=ORIENTED_EDGE('',*,*,#210,.T.);
#183=ORIENTED_EDGE('',*,*,#248,.T.);
#184=ORIENTED_EDGE('',*,*,#240,.T.);
#185=ORIENTED_EDGE('',*,*,#219,.T.);
#186=ORIENTED_EDGE('',*,*,#243,.F.);
#187=ORIENTED_EDGE('',*,*,#230,.F.);
#188=ORIENTED_EDGE('',*,*,#229,.F.);
#189=ORIENTED_EDGE('',*,*,#228,.F.);
#190=ORIENTED_EDGE('',*,*,#241,.F.);
#191=ORIENTED_EDGE('',*,*,#249,.T.);
#192=ORIENTED_EDGE('',*,*,#250,.T.);
#193=ORIENTED_EDGE('',*,*,#216,.F.);
#194=ORIENTED_EDGE('',*,*,#251,.F.);
#195=ORIENTED_EDGE('',*,*,#252,.T.);
#196=ORIENTED_EDGE('',*,*,#253,.T.);
#197=ORIENTED_EDGE('',*,*,#214,.F.);
#198=ORIENTED_EDGE('',*,*,#254,.F.);
#199=ORIENTED_EDGE('',*,*,#257,.T.);
#200=ORIENTED_EDGE('',*,*,#227,.T.);
#201=ORIENTED_EDGE('',*,*,#256,.F.);
#202=ORIENTED_EDGE('',*,*,#255,.F.);
#203=ORIENTED_EDGE('',*,*,#260,.T.);
#204=ORIENTED_EDGE('',*,*,#225,.T.);
#205=ORIENTED_EDGE('',*,*,#259,.F.);
#206=ORIENTED_EDGE('',*,*,#258,.F.);
#207=EDGE_CURVE('',#331,#332,#301,.T.);
#208=EDGE_CURVE('',#333,#331,#302,.T.);
#209=EDGE_CURVE('',#334,#333,#303,.T.);
#210=EDGE_CURVE('',#332,#334,#304,.T.);
#211=EDGE_CURVE('',#337,#360,#269,.T.);
#212=EDGE_CURVE('',#338,#362,#270,.T.);
#213=EDGE_CURVE('',#336,#361,#271,.T.);
#214=EDGE_CURVE('',#336,#338,#261,.T.);
#215=EDGE_CURVE('',#335,#359,#272,.T.);
#216=EDGE_CURVE('',#335,#337,#262,.T.);
#217=EDGE_CURVE('',#339,#364,#273,.T.);
#218=EDGE_CURVE('',#340,#366,#274,.T.);
#219=EDGE_CURVE('',#342,#343,#305,.T.);
#220=EDGE_CURVE('',#342,#344,#306,.T.);
#221=EDGE_CURVE('',#344,#345,#307,.T.);
#222=EDGE_CURVE('',#343,#345,#308,.T.);
#223=EDGE_CURVE('',#344,#356,#309,.T.);
#224=EDGE_CURVE('',#347,#365,#275,.T.);
#225=EDGE_CURVE('',#347,#340,#263,.T.);
#226=EDGE_CURVE('',#348,#363,#276,.T.);
#227=EDGE_CURVE('',#348,#339,#264,.T.);
#228=EDGE_CURVE('',#353,#349,#310,.T.);
#229=EDGE_CURVE('',#349,#350,#311,.T.);
#230=EDGE_CURVE('',#350,#354,#312,.T.);
#231=EDGE_CURVE('',#351,#357,#313,.T.);
#232=EDGE_CURVE('',#352,#351,#314,.T.);
#233=EDGE_CURVE('',#358,#352,#315,.T.);
#234=EDGE_CURVE('',#351,#349,#316,.T.);
#235=EDGE_CURVE('',#352,#350,#317,.T.);
#236=EDGE_CURVE('',#357,#358,#318,.T.);
#237=EDGE_CURVE('',#356,#355,#319,.T.);
#238=EDGE_CURVE('',#357,#353,#320,.T.);
#239=EDGE_CURVE('',#358,#354,#321,.T.);
#240=EDGE_CURVE('',#355,#342,#322,.T.);
#241=EDGE_CURVE('',#354,#353,#323,.T.);
#242=EDGE_CURVE('',#346,#341,#324,.T.);
#243=EDGE_CURVE('',#341,#343,#325,.T.);
#244=EDGE_CURVE('',#345,#346,#326,.T.);
#245=EDGE_CURVE('',#346,#331,#327,.T.);
#246=EDGE_CURVE('',#333,#356,#328,.T.);
#247=EDGE_CURVE('',#341,#332,#329,.T.);
#248=EDGE_CURVE('',#334,#355,#330,.T.);
#249=EDGE_CURVE('',#359,#360,#265,.T.);
#250=EDGE_CURVE('',#360,#337,#277,.T.);
#251=EDGE_CURVE('',#359,#335,#278,.T.);
#252=EDGE_CURVE('',#361,#362,#266,.T.);
#253=EDGE_CURVE('',#362,#338,#279,.T.);
#254=EDGE_CURVE('',#361,#336,#280,.T.);
#255=EDGE_CURVE('',#363,#364,#267,.T.);
#256=EDGE_CURVE('',#364,#339,#281,.T.);
#257=EDGE_CURVE('',#363,#348,#282,.T.);
#258=EDGE_CURVE('',#365,#366,#268,.T.);
#259=EDGE_CURVE('',#366,#340,#283,.T.);
#260=EDGE_CURVE('',#365,#347,#284,.T.);
#261=(
BOUNDED_CURVE()
B_SPLINE_CURVE(1,(#658,#659),.UNSPECIFIED.,.F.,.F.)
B_SPLINE_CURVE_WITH_KNOTS((2,2),(1.,3.),.UNSPECIFIED.)
CURVE()
GEOMETRIC_REPRESENTATION_ITEM()
RATIONAL_B_SPLINE_CURVE((1.,1.))
REPRESENTATION_ITEM('')
);
#262=(
BOUNDED_CURVE()
B_SPLINE_CURVE(1,(#663,#664),.UNSPECIFIED.,.F.,.F.)
B_SPLINE_CURVE_WITH_KNOTS((2,2),(1.,3.),.UNSPECIFIED.)
CURVE()
GEOMETRIC_REPRESENTATION_ITEM()
RATIONAL_B_SPLINE_CURVE((1.,1.))
REPRESENTATION_ITEM('')
);
#263=(
BOUNDED_CURVE()
B_SPLINE_CURVE(1,(#684,#685),.UNSPECIFIED.,.F.,.F.)
B_SPLINE_CURVE_WITH_KNOTS((2,2),(1.,2.8),.UNSPECIFIED.)
CURVE()
GEOMETRIC_REPRESENTATION_ITEM()
RATIONAL_B_SPLINE_CURVE((1.,1.))
REPRESENTATION_ITEM('')
);
#264=(
BOUNDED_CURVE()
B_SPLINE_CURVE(1,(#689,#690),.UNSPECIFIED.,.F.,.F.)
B_SPLINE_CURVE_WITH_KNOTS((2,2),(1.,2.8),.UNSPECIFIED.)
CURVE()
GEOMETRIC_REPRESENTATION_ITEM()
RATIONAL_B_SPLINE_CURVE((1.,1.))
REPRESENTATION_ITEM('')
);
#265=(
BOUNDED_CURVE()
B_SPLINE_CURVE(1,(#734,#735),.UNSPECIFIED.,.F.,.F.)
B_SPLINE_CURVE_WITH_KNOTS((2,2),(1.,3.),.UNSPECIFIED.)
CURVE()
GEOMETRIC_REPRESENTATION_ITEM()
RATIONAL_B_SPLINE_CURVE((1.,1.))
REPRESENTATION_ITEM('')
);
#266=(
BOUNDED_CURVE()
B_SPLINE_CURVE(1,(#742,#743),.UNSPECIFIED.,.F.,.F.)
B_SPLINE_CURVE_WITH_KNOTS((2,2),(1.,3.),.UNSPECIFIED.)
CURVE()
GEOMETRIC_REPRESENTATION_ITEM()
RATIONAL_B_SPLINE_CURVE((1.,1.))
REPRESENTATION_ITEM('')
);
#267=(
BOUNDED_CURVE()
B_SPLINE_CURVE(1,(#750,#751),.UNSPECIFIED.,.F.,.F.)
B_SPLINE_CURVE_WITH_KNOTS((2,2),(1.,2.8),.UNSPECIFIED.)
CURVE()
GEOMETRIC_REPRESENTATION_ITEM()
RATIONAL_B_SPLINE_CURVE((1.,1.))
REPRESENTATION_ITEM('')
);
#268=(
BOUNDED_CURVE()
B_SPLINE_CURVE(1,(#758,#759),.UNSPECIFIED.,.F.,.F.)
B_SPLINE_CURVE_WITH_KNOTS((2,2),(1.,2.8),.UNSPECIFIED.)
CURVE()
GEOMETRIC_REPRESENTATION_ITEM()
RATIONAL_B_SPLINE_CURVE((1.,1.))
REPRESENTATION_ITEM('')
);
#269=TRIMMED_CURVE($,#285,(#650),(#651),.T.,.CARTESIAN.);
#270=TRIMMED_CURVE($,#286,(#653),(#654),.T.,.CARTESIAN.);
#271=TRIMMED_CURVE($,#287,(#656),(#657),.T.,.CARTESIAN.);
#272=TRIMMED_CURVE($,#288,(#661),(#662),.T.,.CARTESIAN.);
#273=TRIMMED_CURVE($,#289,(#666),(#667),.T.,.CARTESIAN.);
#274=TRIMMED_CURVE($,#290,(#669),(#670),.T.,.CARTESIAN.);
#275=TRIMMED_CURVE($,#291,(#682),(#683),.T.,.CARTESIAN.);
#276=TRIMMED_CURVE($,#292,(#687),(#688),.T.,.CARTESIAN.);
#277=TRIMMED_CURVE($,#293,(#737),(#738),.T.,.CARTESIAN.);
#278=TRIMMED_CURVE($,#294,(#740),(#741),.T.,.CARTESIAN.);
#279=TRIMMED_CURVE($,#295,(#745),(#746),.T.,.CARTESIAN.);
#280=TRIMMED_CURVE($,#296,(#748),(#749),.T.,.CARTESIAN.);
#281=TRIMMED_CURVE($,#297,(#753),(#754),.T.,.CARTESIAN.);
#282=TRIMMED_CURVE($,#298,(#756),(#757),.T.,.CARTESIAN.);
#283=TRIMMED_CURVE($,#299,(#761),(#762),.T.,.CARTESIAN.);
#284=TRIMMED_CURVE($,#300,(#764),(#765),.T.,.CARTESIAN.);
#285=CIRCLE('',#503,3.53499999999999);
#286=CIRCLE('',#504,3.535);
#287=CIRCLE('',#505,3.535);
#288=CIRCLE('',#506,3.53499999999999);
#289=CIRCLE('',#507,3.38461538461539);
#290=CIRCLE('',#508,3.38461538461539);
#291=CIRCLE('',#509,3.38461538461539);
#292=CIRCLE('',#510,3.38461538461539);
#293=CIRCLE('',#511,3.535);
#294=CIRCLE('',#512,3.535);
#295=CIRCLE('',#513,3.535);
#296=CIRCLE('',#514,3.535);
#297=CIRCLE('',#515,3.38461538461539);
#298=CIRCLE('',#516,3.38461538461539);
#299=CIRCLE('',#517,3.38461538461539);
#300=CIRCLE('',#518,3.38461538461539);
#301=B_SPLINE_CURVE_WITH_KNOTS('',1,(#641,#642),.UNSPECIFIED.,.F.,.F.,(2,
2),(0.,22.),.UNSPECIFIED.);
#302=B_SPLINE_CURVE_WITH_KNOTS('',1,(#643,#644),.UNSPECIFIED.,.F.,.F.,(2,
2),(-8.6,13.2),.UNSPECIFIED.);
#303=B_SPLINE_CURVE_WITH_KNOTS('',1,(#645,#646),.UNSPECIFIED.,.F.,.F.,(2,
2),(-22.,0.),.UNSPECIFIED.);
#304=B_SPLINE_CURVE_WITH_KNOTS('',1,(#647,#648),.UNSPECIFIED.,.F.,.F.,(2,
2),(-13.2,8.6),.UNSPECIFIED.);
#305=B_SPLINE_CURVE_WITH_KNOTS('',1,(#671,#672),.UNSPECIFIED.,.F.,.F.,(2,
2),(0.,1.),.UNSPECIFIED.);
#306=B_SPLINE_CURVE_WITH_KNOTS('',1,(#673,#674),.UNSPECIFIED.,.F.,.F.,(2,
2),(234.,390.),.UNSPECIFIED.);
#307=B_SPLINE_CURVE_WITH_KNOTS('',1,(#675,#676),.UNSPECIFIED.,.F.,.F.,(2,
2),(0.,1.),.UNSPECIFIED.);
#308=B_SPLINE_CURVE_WITH_KNOTS('',1,(#677,#678),.UNSPECIFIED.,.F.,.F.,(2,
2),(234.,390.),.UNSPECIFIED.);
#309=B_SPLINE_CURVE_WITH_KNOTS('',1,(#679,#680),.UNSPECIFIED.,.F.,.F.,(2,
2),(390.,391.418181818182),.UNSPECIFIED.);
#310=B_SPLINE_CURVE_WITH_KNOTS('',1,(#691,#692),.UNSPECIFIED.,.F.,.F.,(2,
2),(21.,30.),.UNSPECIFIED.);
#311=B_SPLINE_CURVE_WITH_KNOTS('',1,(#693,#694),.UNSPECIFIED.,.F.,.F.,(2,
2),(30.,50.),.UNSPECIFIED.);
#312=B_SPLINE_CURVE_WITH_KNOTS('',1,(#695,#696),.UNSPECIFIED.,.F.,.F.,(2,
2),(50.,59.),.UNSPECIFIED.);
#313=B_SPLINE_CURVE_WITH_KNOTS('',1,(#697,#698),.UNSPECIFIED.,.F.,.F.,(2,
2),(-30.,-21.),.UNSPECIFIED.);
#314=B_SPLINE_CURVE_WITH_KNOTS('',1,(#699,#700),.UNSPECIFIED.,.F.,.F.,(2,
2),(-50.,-30.),.UNSPECIFIED.);
#315=B_SPLINE_CURVE_WITH_KNOTS('',1,(#701,#702),.UNSPECIFIED.,.F.,.F.,(2,
2),(1.,10.),.UNSPECIFIED.);
#316=B_SPLINE_CURVE_WITH_KNOTS('',1,(#703,#704),.UNSPECIFIED.,.F.,.F.,(2,
2),(1.,22.),.UNSPECIFIED.);
#317=B_SPLINE_CURVE_WITH_KNOTS('',1,(#705,#706),.UNSPECIFIED.,.F.,.F.,(2,
2),(1.,22.),.UNSPECIFIED.);
#318=B_SPLINE_CURVE_WITH_KNOTS('',1,(#707,#708),.UNSPECIFIED.,.F.,.F.,(2,
2),(-21.,-1.),.UNSPECIFIED.);
#319=B_SPLINE_CURVE_WITH_KNOTS('',1,(#709,#710),.UNSPECIFIED.,.F.,.F.,(2,
2),(-11.,11.),.UNSPECIFIED.);
#320=B_SPLINE_CURVE_WITH_KNOTS('',1,(#711,#712),.UNSPECIFIED.,.F.,.F.,(2,
2),(1.,22.),.UNSPECIFIED.);
#321=B_SPLINE_CURVE_WITH_KNOTS('',1,(#713,#714),.UNSPECIFIED.,.F.,.F.,(2,
2),(1.,22.),.UNSPECIFIED.);
#322=B_SPLINE_CURVE_WITH_KNOTS('',1,(#715,#716),.UNSPECIFIED.,.F.,.F.,(2,
2),(232.581818181818,234.),.UNSPECIFIED.);
#323=B_SPLINE_CURVE_WITH_KNOTS('',1,(#717,#718),.UNSPECIFIED.,.F.,.F.,(2,
2),(-226.2,-162.381818181818),.UNSPECIFIED.);
#324=B_SPLINE_CURVE_WITH_KNOTS('',1,(#719,#720,#721),.UNSPECIFIED.,.F.,
 .F.,(2,1,2),(468.,546.,624.),.UNSPECIFIED.);
#325=B_SPLINE_CURVE_WITH_KNOTS('',1,(#722,#723),.UNSPECIFIED.,.F.,.F.,(2,
2),(0.,11.),.UNSPECIFIED.);
#326=B_SPLINE_CURVE_WITH_KNOTS('',1,(#724,#725),.UNSPECIFIED.,.F.,.F.,(2,
2),(0.,11.),.UNSPECIFIED.);
#327=B_SPLINE_CURVE_WITH_KNOTS('',1,(#726,#727),.UNSPECIFIED.,.F.,.F.,(2,
2),(0.,13.),.UNSPECIFIED.);
#328=B_SPLINE_CURVE_WITH_KNOTS('',1,(#728,#729),.UNSPECIFIED.,.F.,.F.,(2,
2),(0.,12.),.UNSPECIFIED.);
#329=B_SPLINE_CURVE_WITH_KNOTS('',1,(#730,#731),.UNSPECIFIED.,.F.,.F.,(2,
2),(0.,13.),.UNSPECIFIED.);
#330=B_SPLINE_CURVE_WITH_KNOTS('',1,(#732,#733),.UNSPECIFIED.,.F.,.F.,(2,
2),(0.,12.),.UNSPECIFIED.);
#331=VERTEX_POINT('',#605);
#332=VERTEX_POINT('',#606);
#333=VERTEX_POINT('',#607);
#334=VERTEX_POINT('',#608);
#335=VERTEX_POINT('',#609);
#336=VERTEX_POINT('',#610);
#337=VERTEX_POINT('',#611);
#338=VERTEX_POINT('',#612);
#339=VERTEX_POINT('',#613);
#340=VERTEX_POINT('',#614);
#341=VERTEX_POINT('',#615);
#342=VERTEX_POINT('',#616);
#343=VERTEX_POINT('',#617);
#344=VERTEX_POINT('',#618);
#345=VERTEX_POINT('',#619);
#346=VERTEX_POINT('',#620);
#347=VERTEX_POINT('',#621);
#348=VERTEX_POINT('',#622);
#349=VERTEX_POINT('',#623);
#350=VERTEX_POINT('',#624);
#351=VERTEX_POINT('',#625);
#352=VERTEX_POINT('',#626);
#353=VERTEX_POINT('',#627);
#354=VERTEX_POINT('',#628);
#355=VERTEX_POINT('',#629);
#356=VERTEX_POINT('',#630);
#357=VERTEX_POINT('',#631);
#358=VERTEX_POINT('',#632);
#359=VERTEX_POINT('',#633);
#360=VERTEX_POINT('',#634);
#361=VERTEX_POINT('',#635);
#362=VERTEX_POINT('',#636);
#363=VERTEX_POINT('',#637);
#364=VERTEX_POINT('',#638);
#365=VERTEX_POINT('',#639);
#366=VERTEX_POINT('',#640);
#367=CYLINDRICAL_SURFACE('',#490,3.53499999999999);
#368=CYLINDRICAL_SURFACE('',#491,3.535);
#369=CYLINDRICAL_SURFACE('',#492,3.535);
#370=CYLINDRICAL_SURFACE('',#493,3.535);
#371=CYLINDRICAL_SURFACE('',#494,3.38461538461539);
#372=CYLINDRICAL_SURFACE('',#495,3.38461538461539);
#373=CYLINDRICAL_SURFACE('',#496,3.38461538461539);
#374=CYLINDRICAL_SURFACE('',#497,3.38461538461539);
#375=PLANE('',#479);
#376=PLANE('',#480);
#377=PLANE('',#481);
#378=PLANE('',#482);
#379=PLANE('',#483);
#380=PLANE('',#484);
#381=PLANE('',#485);
#382=PLANE('',#486);
#383=PLANE('',#487);
#384=PLANE('',#488);
#385=PLANE('',#489);
#386=PLANE('',#498);
#387=PLANE('',#499);
#388=PLANE('',#500);
#389=PLANE('',#501);
#390=PLANE('',#502);
#391=SHAPE_DEFINITION_REPRESENTATION(#392,#477);
#392=PRODUCT_DEFINITION_SHAPE($,$,#394);
#393=PRODUCT_DEFINITION_CONTEXT('3D Mechanical Parts',#466,'design');
#394=PRODUCT_DEFINITION('A','First version',#436,#393);
#395=DATE_TIME_ROLE('classification_date');
#396=DATE_TIME_ROLE('creation_date');
#397=APPLIED_DATE_AND_TIME_ASSIGNMENT(#421,#395,(#400));
#398=APPLIED_DATE_AND_TIME_ASSIGNMENT(#423,#396,(#394));
#399=SECURITY_CLASSIFICATION_LEVEL('unclassified');
#400=SECURITY_CLASSIFICATION('A','Security for version',#399);
#401=APPLIED_SECURITY_CLASSIFICATION_ASSIGNMENT(#400,(#436));
#402=APPROVAL_ROLE('Version approval');
#403=APPROVAL_ROLE('Version Security approval');
#404=APPROVAL_ROLE('Definition approval');
#405=APPROVAL_PERSON_ORGANIZATION(#454,#430,#402);
#406=APPROVAL_PERSON_ORGANIZATION(#455,#431,#403);
#407=APPROVAL_PERSON_ORGANIZATION(#458,#432,#404);
#408=COORDINATED_UNIVERSAL_TIME_OFFSET(5,0,.BEHIND.);
#409=LOCAL_TIME(0,0,0.,#408);
#410=LOCAL_TIME(0,0,0.,#408);
#411=LOCAL_TIME(0,0,0.,#408);
#412=LOCAL_TIME(0,0,0.,#408);
#413=LOCAL_TIME(0,0,0.,#408);
#414=CALENDAR_DATE(1999,1,1);
#415=CALENDAR_DATE(1999,1,1);
#416=CALENDAR_DATE(1999,1,1);
#417=CALENDAR_DATE(1999,1,1);
#418=CALENDAR_DATE(1999,1,1);
#419=DATE_AND_TIME(#414,#409);
#420=DATE_AND_TIME(#415,#410);
#421=DATE_AND_TIME(#416,#411);
#422=DATE_AND_TIME(#417,#412);
#423=DATE_AND_TIME(#418,#413);
#424=APPROVAL_DATE_TIME(#419,#430);
#425=APPROVAL_DATE_TIME(#420,#431);
#426=APPROVAL_DATE_TIME(#422,#432);
#427=APPROVAL_STATUS('not_yet_approved');
#428=APPROVAL_STATUS('not_yet_approved');
#429=APPROVAL_STATUS('approved');
#430=APPROVAL(#427,'Version approval');
#431=APPROVAL(#428,'Version Security approval');
#432=APPROVAL(#429,'Definition approval');
#433=APPLIED_APPROVAL_ASSIGNMENT(#430,(#436));
#434=APPLIED_APPROVAL_ASSIGNMENT(#431,(#400));
#435=APPLIED_APPROVAL_ASSIGNMENT(#432,(#394));
#436=PRODUCT_DEFINITION_FORMATION_WITH_SPECIFIED_SOURCE('A',
'First version',#468,.MADE.);
#437=PERSON_AND_ORGANIZATION_ROLE('design_owner');
#438=PERSON_AND_ORGANIZATION_ROLE('creator');
#439=PERSON_AND_ORGANIZATION_ROLE('design_supplier');
#440=PERSON_AND_ORGANIZATION_ROLE('classification_officer');
#441=PERSON_AND_ORGANIZATION_ROLE('creator');
#442=ORGANIZATION('STI','lab','lab');
#443=ORGANIZATION('STI','unknown','unknown');
#444=ORGANIZATION('STI','unknown','unknown');
#445=ORGANIZATION('STI','unknown','unknown');
#446=ORGANIZATION('STI','unknown','unknown');
#447=ORGANIZATION('STI','unknown','unknown');
#448=ORGANIZATION('STI','unknown','unknown');
#449=PERSON('1','Box','vc60',$,$,$);
#450=PERSON('2','last','first',$,$,$);
#451=PERSON('3','President','Mr.',$,$,$);
#452=PERSON_AND_ORGANIZATION(#449,#442);
#453=PERSON_AND_ORGANIZATION(#450,#443);
#454=PERSON_AND_ORGANIZATION(#451,#444);
#455=PERSON_AND_ORGANIZATION(#451,#445);
#456=PERSON_AND_ORGANIZATION(#451,#446);
#457=PERSON_AND_ORGANIZATION(#450,#447);
#458=PERSON_AND_ORGANIZATION(#451,#448);
#459=APPLIED_PERSON_AND_ORGANIZATION_ASSIGNMENT(#452,#437,(#468));
#460=APPLIED_PERSON_AND_ORGANIZATION_ASSIGNMENT(#453,#438,(#436));
#461=APPLIED_PERSON_AND_ORGANIZATION_ASSIGNMENT(#453,#439,(#436));
#462=APPLIED_PERSON_AND_ORGANIZATION_ASSIGNMENT(#456,#440,(#400));
#463=APPLIED_PERSON_AND_ORGANIZATION_ASSIGNMENT(#457,#441,(#394));
#464=PRODUCT_RELATED_PRODUCT_CATEGORY('detail','detail',(#468));
#465=APPLICATION_PROTOCOL_DEFINITION('International Standard',
'config_control_design',1994,#466);
#466=APPLICATION_CONTEXT(
'configuration controlled 3d designs of mechanical parts and assemblie
s');
#467=PRODUCT_CONTEXT('3D Mechanical Parts',#466,'mechanical');
#468=PRODUCT('Document','Document','',(#467));
#469=(
LENGTH_UNIT()
NAMED_UNIT(*)
SI_UNIT(.MILLI.,.METRE.)
);
#470=(
NAMED_UNIT(*)
PLANE_ANGLE_UNIT()
SI_UNIT($,.RADIAN.)
);
#471=DIMENSIONAL_EXPONENTS(0.,0.,0.,0.,0.,0.,0.);
#472=PLANE_ANGLE_MEASURE_WITH_UNIT(PLANE_ANGLE_MEASURE(0.01745329252),#470);
#473=(
CONVERSION_BASED_UNIT('DEGREES',#472)
NAMED_UNIT(#471)
PLANE_ANGLE_UNIT()
);
#474=(
NAMED_UNIT(*)
SI_UNIT($,.STERADIAN.)
SOLID_ANGLE_UNIT()
);
#475=UNCERTAINTY_MEASURE_WITH_UNIT(LENGTH_MEASURE(0.001),#469,
'DISTANCE_ACCURACY_VALUE',
'Maximum model space distance between geometric entities at asserted c
onnectivities');
#476=(
GEOMETRIC_REPRESENTATION_CONTEXT(3)
GLOBAL_UNCERTAINTY_ASSIGNED_CONTEXT((#475))
GLOBAL_UNIT_ASSIGNED_CONTEXT((#474,#473,#469))
REPRESENTATION_CONTEXT('ID1','3D')
);
#477=SHAPE_REPRESENTATION('Document',(#478,#519),#476);
#478=AXIS2_PLACEMENT_3D($,#580,#520,#521);
#479=AXIS2_PLACEMENT_3D('',#581,#522,$);
#480=AXIS2_PLACEMENT_3D('',#582,#523,$);
#481=AXIS2_PLACEMENT_3D('',#583,#524,$);
#482=AXIS2_PLACEMENT_3D('',#584,#525,$);
#483=AXIS2_PLACEMENT_3D('',#585,#526,$);
#484=AXIS2_PLACEMENT_3D('',#586,#527,$);
#485=AXIS2_PLACEMENT_3D('',#587,#528,$);
#486=AXIS2_PLACEMENT_3D('',#588,#529,$);
#487=AXIS2_PLACEMENT_3D('',#589,#530,$);
#488=AXIS2_PLACEMENT_3D('',#590,#531,$);
#489=AXIS2_PLACEMENT_3D('',#591,#532,$);
#490=AXIS2_PLACEMENT_3D('',#592,#533,$);
#491=AXIS2_PLACEMENT_3D('',#593,#534,$);
#492=AXIS2_PLACEMENT_3D('',#594,#535,$);
#493=AXIS2_PLACEMENT_3D('',#595,#536,$);
#494=AXIS2_PLACEMENT_3D('',#596,#537,$);
#495=AXIS2_PLACEMENT_3D('',#597,#538,$);
#496=AXIS2_PLACEMENT_3D('',#598,#539,$);
#497=AXIS2_PLACEMENT_3D('',#599,#540,$);
#498=AXIS2_PLACEMENT_3D('',#600,#541,$);
#499=AXIS2_PLACEMENT_3D('',#601,#542,$);
#500=AXIS2_PLACEMENT_3D('',#602,#543,$);
#501=AXIS2_PLACEMENT_3D('',#603,#544,$);
#502=AXIS2_PLACEMENT_3D('',#604,#545,$);
#503=AXIS2_PLACEMENT_3D($,#649,#546,#547);
#504=AXIS2_PLACEMENT_3D($,#652,#548,#549);
#505=AXIS2_PLACEMENT_3D($,#655,#550,#551);
#506=AXIS2_PLACEMENT_3D($,#660,#552,#553);
#507=AXIS2_PLACEMENT_3D($,#665,#554,#555);
#508=AXIS2_PLACEMENT_3D($,#668,#556,#557);
#509=AXIS2_PLACEMENT_3D($,#681,#558,#559);
#510=AXIS2_PLACEMENT_3D($,#686,#560,#561);
#511=AXIS2_PLACEMENT_3D($,#736,#562,#563);
#512=AXIS2_PLACEMENT_3D($,#739,#564,#565);
#513=AXIS2_PLACEMENT_3D($,#744,#566,#567);
#514=AXIS2_PLACEMENT_3D($,#747,#568,#569);
#515=AXIS2_PLACEMENT_3D($,#752,#570,#571);
#516=AXIS2_PLACEMENT_3D($,#755,#572,#573);
#517=AXIS2_PLACEMENT_3D($,#760,#574,#575);
#518=AXIS2_PLACEMENT_3D($,#763,#576,#577);
#519=AXIS2_PLACEMENT_3D($,#766,#578,#579);
#520=DIRECTION('',(0.,0.,1.));
#521=DIRECTION('',(1.,0.,0.));
#522=DIRECTION('',(0.,1.,0.));
#523=DIRECTION('',(-1.,0.,0.));
#524=DIRECTION('',(0.,1.,0.));
#525=DIRECTION('',(-1.,0.,0.));
#526=DIRECTION('',(0.,-1.,0.));
#527=DIRECTION('',(1.,0.,0.));
#528=DIRECTION('',(0.,-1.,0.));
#529=DIRECTION('',(1.,0.,0.));
#530=DIRECTION('',(-1.,0.,0.));
#531=DIRECTION('',(0.,0.,-1.));
#532=DIRECTION('',(0.,0.,1.));
#533=DIRECTION('',(0.,-1.,0.));
#534=DIRECTION('',(0.,-1.,0.));
#535=DIRECTION('',(0.,-1.,0.));
#536=DIRECTION('',(0.,-1.,0.));
#537=DIRECTION('',(0.,-1.,0.));
#538=DIRECTION('',(0.,-1.,0.));
#539=DIRECTION('',(0.,-1.,0.));
#540=DIRECTION('',(0.,-1.,0.));
#541=DIRECTION('',(0.,-1.,0.));
#542=DIRECTION('',(0.,-1.,0.));
#543=DIRECTION('',(0.,1.,0.));
#544=DIRECTION('',(0.,0.,1.));
#545=DIRECTION('',(0.,1.,0.));
#546=DIRECTION('',(0.,-1.,0.));
#547=DIRECTION('',(1.,0.,0.));
#548=DIRECTION('',(0.,-1.,0.));
#549=DIRECTION('',(1.,0.,0.));
#550=DIRECTION('',(0.,-1.,0.));
#551=DIRECTION('',(1.,0.,0.));
#552=DIRECTION('',(0.,-1.,0.));
#553=DIRECTION('',(1.,0.,0.));
#554=DIRECTION('',(0.,-1.,0.));
#555=DIRECTION('',(1.,0.,0.));
#556=DIRECTION('',(0.,-1.,0.));
#557=DIRECTION('',(1.,0.,0.));
#558=DIRECTION('',(0.,-1.,0.));
#559=DIRECTION('',(1.,0.,0.));
#560=DIRECTION('',(0.,-1.,0.));
#561=DIRECTION('',(1.,0.,0.));
#562=DIRECTION('',(0.,-1.,0.));
#563=DIRECTION('',(-1.,0.,0.));
#564=DIRECTION('',(0.,-1.,0.));
#565=DIRECTION('',(-1.,0.,0.));
#566=DIRECTION('',(0.,-1.,0.));
#567=DIRECTION('',(-1.,0.,0.));
#568=DIRECTION('',(0.,-1.,0.));
#569=DIRECTION('',(-1.,0.,0.));
#570=DIRECTION('',(0.,-1.,0.));
#571=DIRECTION('',(-1.,0.,0.));
#572=DIRECTION('',(0.,-1.,0.));
#573=DIRECTION('',(-1.,0.,0.));
#574=DIRECTION('',(0.,-1.,0.));
#575=DIRECTION('',(-1.,0.,-4.19866162040059E-15));
#576=DIRECTION('',(0.,-1.,0.));
#577=DIRECTION('',(-1.,0.,-4.19866162040059E-15));
#578=DIRECTION('',(0.,0.,1.));
#579=DIRECTION('',(1.,0.,0.));
#580=CARTESIAN_POINT('',(0.,0.,0.));
#581=CARTESIAN_POINT('',(10.9,13.,0.));
#582=CARTESIAN_POINT('',(-0.0999999999999943,1.,22.));
#583=CARTESIAN_POINT('',(10.9,11.,0.));
#584=CARTESIAN_POINT('',(10.,1.,0.));
#585=CARTESIAN_POINT('',(10.,10.,0.));
#586=CARTESIAN_POINT('',(0.999999999999996,10.,0.));
#587=CARTESIAN_POINT('',(-0.0999999999999943,0.,0.));
#588=CARTESIAN_POINT('',(10.9,0.,0.));
#589=CARTESIAN_POINT('',(0.100000000000001,13.,0.));
#590=CARTESIAN_POINT('',(-0.0999999999999943,0.,0.));
#591=CARTESIAN_POINT('',(-0.0999999999999943,0.,22.));
#592=CARTESIAN_POINT('',(5.5,12.5,16.5));
#593=CARTESIAN_POINT('',(5.5,12.5,16.5));
#594=CARTESIAN_POINT('',(5.5,12.5,5.5));
#595=CARTESIAN_POINT('',(5.5,12.5,5.5));
#596=CARTESIAN_POINT('',(5.40000000000001,-0.399999999999999,16.5));
#597=CARTESIAN_POINT('',(5.40000000000001,-0.399999999999999,16.5));
#598=CARTESIAN_POINT('',(5.40000000000001,-0.399999999999999,5.5));
#599=CARTESIAN_POINT('',(5.40000000000001,-0.399999999999999,5.50000000000001));
#600=CARTESIAN_POINT('',(1.16923076923077,-1.8,12.2692307692308));
#601=CARTESIAN_POINT('',(1.16923076923077,-1.8,1.26923076923078));
#602=CARTESIAN_POINT('',(-0.0999999999999943,1.,0.));
#603=CARTESIAN_POINT('',(0.1,0.,1.));
#604=CARTESIAN_POINT('',(-0.0999999999999943,1.,0.));
#605=CARTESIAN_POINT('',(10.9,13.,0.));
#606=CARTESIAN_POINT('',(10.9,13.,22.));
#607=CARTESIAN_POINT('',(0.100000000000001,13.,0.));
#608=CARTESIAN_POINT('',(0.100000000000001,13.,22.));
#609=CARTESIAN_POINT('',(9.035,13.,16.5));
#610=CARTESIAN_POINT('',(9.035,13.,5.5));
#611=CARTESIAN_POINT('',(9.035,11.,16.5));
#612=CARTESIAN_POINT('',(9.035,11.,5.5));
#613=CARTESIAN_POINT('',(8.78461538461539,-1.8,16.5));
#614=CARTESIAN_POINT('',(8.78461538461539,-1.8,5.5));
#615=CARTESIAN_POINT('',(10.9,0.,22.));
#616=CARTESIAN_POINT('',(-0.0999999999999943,1.,22.));
#617=CARTESIAN_POINT('',(-0.0999999999999943,0.,22.));
#618=CARTESIAN_POINT('',(-0.0999999999999943,1.,0.));
#619=CARTESIAN_POINT('',(-0.0999999999999943,0.,0.));
#620=CARTESIAN_POINT('',(10.9,0.,0.));
#621=CARTESIAN_POINT('',(8.78461538461539,0.,5.5));
#622=CARTESIAN_POINT('',(8.78461538461539,0.,16.5));
#623=CARTESIAN_POINT('',(10.,10.,22.));
#624=CARTESIAN_POINT('',(0.999999999999996,10.,22.));
#625=CARTESIAN_POINT('',(10.,10.,1.));
#626=CARTESIAN_POINT('',(0.999999999999995,10.,1.));
#627=CARTESIAN_POINT('',(10.,1.,22.));
#628=CARTESIAN_POINT('',(1.00000000000001,1.,22.));
#629=CARTESIAN_POINT('',(0.100000000000004,1.,22.));
#630=CARTESIAN_POINT('',(0.1,1.,0.));
#631=CARTESIAN_POINT('',(10.,1.,1.));
#632=CARTESIAN_POINT('',(1.,1.,1.));
#633=CARTESIAN_POINT('',(1.965,13.,16.5));
#634=CARTESIAN_POINT('',(1.965,11.,16.5));
#635=CARTESIAN_POINT('',(1.965,13.,5.5));
#636=CARTESIAN_POINT('',(1.965,11.,5.5));
#637=CARTESIAN_POINT('',(2.01538461538462,0.,16.5));
#638=CARTESIAN_POINT('',(2.01538461538462,-1.8,16.5));
#639=CARTESIAN_POINT('',(2.01538461538462,0.,5.5));
#640=CARTESIAN_POINT('',(2.01538461538462,-1.8,5.5));
#641=CARTESIAN_POINT('',(10.9,13.,0.));
#642=CARTESIAN_POINT('',(10.9,13.,22.));
#643=CARTESIAN_POINT('',(0.100000000000001,13.,0.));
#644=CARTESIAN_POINT('',(10.9,13.,0.));
#645=CARTESIAN_POINT('',(0.100000000000001,13.,22.));
#646=CARTESIAN_POINT('',(0.100000000000001,13.,0.));
#647=CARTESIAN_POINT('',(10.9,13.,22.));
#648=CARTESIAN_POINT('',(0.100000000000001,13.,22.));
#649=CARTESIAN_POINT('',(5.5,11.,16.5));
#650=CARTESIAN_POINT('',(9.035,11.,16.5));
#651=CARTESIAN_POINT('',(1.96500000000001,11.,16.5));
#652=CARTESIAN_POINT('',(5.5,11.,5.5));
#653=CARTESIAN_POINT('',(9.035,11.,5.5));
#654=CARTESIAN_POINT('',(1.96500000000001,11.,5.5));
#655=CARTESIAN_POINT('',(5.5,13.,5.5));
#656=CARTESIAN_POINT('',(9.035,13.,5.5));
#657=CARTESIAN_POINT('',(1.96500000000001,13.,5.5));
#658=CARTESIAN_POINT('',(9.035,13.,5.5));
#659=CARTESIAN_POINT('',(9.035,11.,5.5));
#660=CARTESIAN_POINT('',(5.5,13.,16.5));
#661=CARTESIAN_POINT('',(9.035,13.,16.5));
#662=CARTESIAN_POINT('',(1.96500000000001,13.,16.5));
#663=CARTESIAN_POINT('',(9.035,13.,16.5));
#664=CARTESIAN_POINT('',(9.035,11.,16.5));
#665=CARTESIAN_POINT('',(5.40000000000001,-1.8,16.5));
#666=CARTESIAN_POINT('',(8.78461538461539,-1.8,16.5));
#667=CARTESIAN_POINT('',(2.01538461538462,-1.8,16.5));
#668=CARTESIAN_POINT('',(5.40000000000001,-1.8,5.5));
#669=CARTESIAN_POINT('',(8.78461538461539,-1.8,5.5));
#670=CARTESIAN_POINT('',(2.01538461538462,-1.8,5.5));
#671=CARTESIAN_POINT('',(-0.0999999999999943,1.,22.));
#672=CARTESIAN_POINT('',(-0.0999999999999943,0.,22.));
#673=CARTESIAN_POINT('',(-0.0999999999999943,1.,22.));
#674=CARTESIAN_POINT('',(-0.0999999999999943,1.,0.));
#675=CARTESIAN_POINT('',(-0.0999999999999943,1.,0.));
#676=CARTESIAN_POINT('',(-0.0999999999999943,0.,0.));
#677=CARTESIAN_POINT('',(-0.0999999999999943,0.,22.));
#678=CARTESIAN_POINT('',(-0.0999999999999943,0.,0.));
#679=CARTESIAN_POINT('',(-0.0999999999999943,1.,0.));
#680=CARTESIAN_POINT('',(0.1,1.,0.));
#681=CARTESIAN_POINT('',(5.40000000000001,0.,5.5));
#682=CARTESIAN_POINT('',(8.78461538461539,0.,5.5));
#683=CARTESIAN_POINT('',(2.01538461538462,0.,5.5));
#684=CARTESIAN_POINT('',(8.78461538461539,0.,5.5));
#685=CARTESIAN_POINT('',(8.78461538461539,-1.8,5.5));
#686=CARTESIAN_POINT('',(5.40000000000001,0.,16.5));
#687=CARTESIAN_POINT('',(8.78461538461539,0.,16.5));
#688=CARTESIAN_POINT('',(2.01538461538462,0.,16.5));
#689=CARTESIAN_POINT('',(8.78461538461539,0.,16.5));
#690=CARTESIAN_POINT('',(8.78461538461539,-1.8,16.5));
#691=CARTESIAN_POINT('',(10.,1.,22.));
#692=CARTESIAN_POINT('',(10.,10.,22.));
#693=CARTESIAN_POINT('',(10.,10.,22.));
#694=CARTESIAN_POINT('',(0.999999999999996,10.,22.));
#695=CARTESIAN_POINT('',(0.999999999999996,10.,22.));
#696=CARTESIAN_POINT('',(1.00000000000001,1.,22.));
#697=CARTESIAN_POINT('',(10.,10.,1.));
#698=CARTESIAN_POINT('',(10.,1.,1.));
#699=CARTESIAN_POINT('',(0.999999999999995,10.,1.));
#700=CARTESIAN_POINT('',(10.,10.,1.));
#701=CARTESIAN_POINT('',(1.,1.,1.));
#702=CARTESIAN_POINT('',(0.999999999999995,10.,1.));
#703=CARTESIAN_POINT('',(10.,10.,1.));
#704=CARTESIAN_POINT('',(10.,10.,22.));
#705=CARTESIAN_POINT('',(0.999999999999995,10.,1.));
#706=CARTESIAN_POINT('',(0.999999999999996,10.,22.));
#707=CARTESIAN_POINT('',(10.,1.,1.));
#708=CARTESIAN_POINT('',(1.,1.,1.));
#709=CARTESIAN_POINT('',(0.1,1.,0.));
#710=CARTESIAN_POINT('',(0.100000000000004,1.,22.));
#711=CARTESIAN_POINT('',(10.,1.,1.));
#712=CARTESIAN_POINT('',(10.,1.,22.));
#713=CARTESIAN_POINT('',(1.,1.,1.));
#714=CARTESIAN_POINT('',(1.00000000000001,1.,22.));
#715=CARTESIAN_POINT('',(0.100000000000004,1.,22.));
#716=CARTESIAN_POINT('',(-0.0999999999999943,1.,22.));
#717=CARTESIAN_POINT('',(1.00000000000001,1.,22.));
#718=CARTESIAN_POINT('',(10.,1.,22.));
#719=CARTESIAN_POINT('',(10.9,0.,0.));
#720=CARTESIAN_POINT('',(10.9,0.,11.));
#721=CARTESIAN_POINT('',(10.9,0.,22.));
#722=CARTESIAN_POINT('',(10.9,0.,22.));
#723=CARTESIAN_POINT('',(-0.0999999999999943,0.,22.));
#724=CARTESIAN_POINT('',(-0.0999999999999943,0.,0.));
#725=CARTESIAN_POINT('',(10.9,0.,0.));
#726=CARTESIAN_POINT('',(10.9,0.,0.));
#727=CARTESIAN_POINT('',(10.9,13.,0.));
#728=CARTESIAN_POINT('',(0.100000000000001,13.,0.));
#729=CARTESIAN_POINT('',(0.1,1.,0.));
#730=CARTESIAN_POINT('',(10.9,0.,22.));
#731=CARTESIAN_POINT('',(10.9,13.,22.));
#732=CARTESIAN_POINT('',(0.100000000000001,13.,22.));
#733=CARTESIAN_POINT('',(0.100000000000004,1.,22.));
#734=CARTESIAN_POINT('',(1.965,13.,16.5));
#735=CARTESIAN_POINT('',(1.965,11.,16.5));
#736=CARTESIAN_POINT('',(5.5,11.,16.5));
#737=CARTESIAN_POINT('',(1.965,11.,16.5));
#738=CARTESIAN_POINT('',(9.035,11.,16.5));
#739=CARTESIAN_POINT('',(5.5,13.,16.5));
#740=CARTESIAN_POINT('',(1.965,13.,16.5));
#741=CARTESIAN_POINT('',(9.035,13.,16.5));
#742=CARTESIAN_POINT('',(1.965,13.,5.5));
#743=CARTESIAN_POINT('',(1.965,11.,5.5));
#744=CARTESIAN_POINT('',(5.5,11.,5.5));
#745=CARTESIAN_POINT('',(1.965,11.,5.5));
#746=CARTESIAN_POINT('',(9.035,11.,5.5));
#747=CARTESIAN_POINT('',(5.5,13.,5.5));
#748=CARTESIAN_POINT('',(1.965,13.,5.5));
#749=CARTESIAN_POINT('',(9.035,13.,5.5));
#750=CARTESIAN_POINT('',(2.01538461538462,3.33066907387547E-16,16.5));
#751=CARTESIAN_POINT('',(2.01538461538462,-1.8,16.5));
#752=CARTESIAN_POINT('',(5.40000000000001,-1.8,16.5));
#753=CARTESIAN_POINT('',(2.01538461538462,-1.8,16.5));
#754=CARTESIAN_POINT('',(8.78461538461539,-1.8,16.5));
#755=CARTESIAN_POINT('',(5.40000000000001,0.,16.5));
#756=CARTESIAN_POINT('',(2.01538461538462,0.,16.5));
#757=CARTESIAN_POINT('',(8.78461538461539,0.,16.5));
#758=CARTESIAN_POINT('',(2.01538461538462,7.7715611723761E-16,5.5));
#759=CARTESIAN_POINT('',(2.01538461538462,-1.8,5.5));
#760=CARTESIAN_POINT('',(5.40000000000001,-1.8,5.50000000000001));
#761=CARTESIAN_POINT('',(2.01538461538462,-1.8,5.5));
#762=CARTESIAN_POINT('',(8.78461538461539,-1.8,5.5));
#763=CARTESIAN_POINT('',(5.40000000000001,0.,5.50000000000001));
#764=CARTESIAN_POINT('',(2.01538461538462,0.,5.5));
#765=CARTESIAN_POINT('',(8.78461538461539,0.,5.5));
#766=CARTESIAN_POINT('',(0.,0.,0.));
ENDSEC;
END-ISO-10303-21;
