ISO-10303-21;
HEADER;
/* Generated by software containing ST-Developer
 * from STEP Tools, Inc. (www.steptools.com) 
 */
/* OPTION: using custom schema-name function */

FILE_DESCRIPTION(
/* description */ (''),
/* implementation_level */ '2;1');

FILE_NAME(
/* name */ 'lable_green_bot_4',
/* time_stamp */ '2026-09-04T19:58:04+03:00',
/* author */ (''),
/* organization */ (''),
/* preprocessor_version */ 'ST-DEVELOPER v19.2',
/* originating_system */ 'Rhino 8.34',
/* authorisation */ '');

FILE_SCHEMA (('CONFIG_CONTROL_DESIGN'));
ENDSEC;

DATA;
#10=SHAPE_REPRESENTATION_RELATIONSHIP('','',#724,#12);
#11=MANIFOLD_SOLID_BREP('brep_1',#13);
#12=ADVANCED_BREP_SHAPE_REPRESENTATION('brep_rep_0',(#11,#764),#723);
#13=CLOSED_SHELL('',(#15,#16,#17,#18,#19,#20,#21,#22,#23,#24,#25,#26,#27,
#28,#29,#30,#31,#32,#33,#34,#35,#36,#37,#38,#39,#40,#41,#42,#43,#44,#45,
#46,#47,#48,#49,#50,#51,#52));
#14=FACE_BOUND('',#127,.T.);
#15=ADVANCED_FACE('',(#53),#600,.T.);
#16=ADVANCED_FACE('',(#54),#601,.T.);
#17=ADVANCED_FACE('',(#55),#602,.T.);
#18=ADVANCED_FACE('',(#56),#603,.T.);
#19=ADVANCED_FACE('',(#57),#604,.T.);
#20=ADVANCED_FACE('',(#58),#605,.T.);
#21=ADVANCED_FACE('',(#59),#606,.T.);
#22=ADVANCED_FACE('',(#60),#607,.T.);
#23=ADVANCED_FACE('',(#61),#608,.T.);
#24=ADVANCED_FACE('',(#62),#609,.T.);
#25=ADVANCED_FACE('',(#63),#610,.T.);
#26=ADVANCED_FACE('',(#64),#611,.T.);
#27=ADVANCED_FACE('',(#65),#612,.T.);
#28=ADVANCED_FACE('',(#66),#613,.T.);
#29=ADVANCED_FACE('',(#67),#614,.T.);
#30=ADVANCED_FACE('',(#68),#615,.T.);
#31=ADVANCED_FACE('',(#69),#616,.T.);
#32=ADVANCED_FACE('',(#70),#617,.T.);
#33=ADVANCED_FACE('',(#71),#618,.T.);
#34=ADVANCED_FACE('',(#72),#619,.T.);
#35=ADVANCED_FACE('',(#73),#620,.T.);
#36=ADVANCED_FACE('',(#74),#621,.T.);
#37=ADVANCED_FACE('',(#75),#622,.T.);
#38=ADVANCED_FACE('',(#76),#623,.T.);
#39=ADVANCED_FACE('',(#77),#624,.T.);
#40=ADVANCED_FACE('',(#78),#625,.T.);
#41=ADVANCED_FACE('',(#79),#626,.T.);
#42=ADVANCED_FACE('',(#80),#627,.T.);
#43=ADVANCED_FACE('',(#81),#628,.T.);
#44=ADVANCED_FACE('',(#82),#629,.T.);
#45=ADVANCED_FACE('',(#83),#630,.T.);
#46=ADVANCED_FACE('',(#84),#631,.T.);
#47=ADVANCED_FACE('',(#85),#632,.T.);
#48=ADVANCED_FACE('',(#86),#633,.T.);
#49=ADVANCED_FACE('',(#87),#634,.T.);
#50=ADVANCED_FACE('',(#88,#14),#635,.T.);
#51=ADVANCED_FACE('',(#89),#636,.T.);
#52=ADVANCED_FACE('',(#90),#637,.T.);
#53=FACE_OUTER_BOUND('',#91,.T.);
#54=FACE_OUTER_BOUND('',#92,.T.);
#55=FACE_OUTER_BOUND('',#93,.T.);
#56=FACE_OUTER_BOUND('',#94,.T.);
#57=FACE_OUTER_BOUND('',#95,.T.);
#58=FACE_OUTER_BOUND('',#96,.T.);
#59=FACE_OUTER_BOUND('',#97,.T.);
#60=FACE_OUTER_BOUND('',#98,.T.);
#61=FACE_OUTER_BOUND('',#99,.T.);
#62=FACE_OUTER_BOUND('',#100,.T.);
#63=FACE_OUTER_BOUND('',#101,.T.);
#64=FACE_OUTER_BOUND('',#102,.T.);
#65=FACE_OUTER_BOUND('',#103,.T.);
#66=FACE_OUTER_BOUND('',#104,.T.);
#67=FACE_OUTER_BOUND('',#105,.T.);
#68=FACE_OUTER_BOUND('',#106,.T.);
#69=FACE_OUTER_BOUND('',#107,.T.);
#70=FACE_OUTER_BOUND('',#108,.T.);
#71=FACE_OUTER_BOUND('',#109,.T.);
#72=FACE_OUTER_BOUND('',#110,.T.);
#73=FACE_OUTER_BOUND('',#111,.T.);
#74=FACE_OUTER_BOUND('',#112,.T.);
#75=FACE_OUTER_BOUND('',#113,.T.);
#76=FACE_OUTER_BOUND('',#114,.T.);
#77=FACE_OUTER_BOUND('',#115,.T.);
#78=FACE_OUTER_BOUND('',#116,.T.);
#79=FACE_OUTER_BOUND('',#117,.T.);
#80=FACE_OUTER_BOUND('',#118,.T.);
#81=FACE_OUTER_BOUND('',#119,.T.);
#82=FACE_OUTER_BOUND('',#120,.T.);
#83=FACE_OUTER_BOUND('',#121,.T.);
#84=FACE_OUTER_BOUND('',#122,.T.);
#85=FACE_OUTER_BOUND('',#123,.T.);
#86=FACE_OUTER_BOUND('',#124,.T.);
#87=FACE_OUTER_BOUND('',#125,.T.);
#88=FACE_OUTER_BOUND('',#126,.T.);
#89=FACE_OUTER_BOUND('',#128,.T.);
#90=FACE_OUTER_BOUND('',#129,.T.);
#91=EDGE_LOOP('',(#130,#131,#132,#133));
#92=EDGE_LOOP('',(#134,#135,#136,#137,#138,#139,#140,#141,#142,#143,#144,
#145,#146,#147,#148,#149,#150,#151,#152,#153));
#93=EDGE_LOOP('',(#154,#155,#156,#157));
#94=EDGE_LOOP('',(#158,#159,#160,#161));
#95=EDGE_LOOP('',(#162,#163,#164,#165));
#96=EDGE_LOOP('',(#166,#167,#168,#169,#170,#171,#172,#173,#174,#175,#176,
#177));
#97=EDGE_LOOP('',(#178,#179,#180,#181));
#98=EDGE_LOOP('',(#182,#183,#184,#185));
#99=EDGE_LOOP('',(#186,#187,#188,#189));
#100=EDGE_LOOP('',(#190,#191,#192,#193));
#101=EDGE_LOOP('',(#194,#195,#196,#197));
#102=EDGE_LOOP('',(#198,#199,#200,#201));
#103=EDGE_LOOP('',(#202,#203,#204,#205));
#104=EDGE_LOOP('',(#206,#207,#208,#209));
#105=EDGE_LOOP('',(#210,#211,#212,#213));
#106=EDGE_LOOP('',(#214,#215,#216,#217));
#107=EDGE_LOOP('',(#218,#219,#220,#221));
#108=EDGE_LOOP('',(#222,#223,#224,#225));
#109=EDGE_LOOP('',(#226,#227,#228,#229));
#110=EDGE_LOOP('',(#230,#231,#232,#233));
#111=EDGE_LOOP('',(#234,#235,#236,#237));
#112=EDGE_LOOP('',(#238,#239,#240,#241,#242));
#113=EDGE_LOOP('',(#243,#244,#245,#246,#247));
#114=EDGE_LOOP('',(#248,#249,#250,#251));
#115=EDGE_LOOP('',(#252,#253,#254,#255,#256,#257));
#116=EDGE_LOOP('',(#258,#259,#260,#261));
#117=EDGE_LOOP('',(#262,#263,#264,#265));
#118=EDGE_LOOP('',(#266,#267,#268,#269));
#119=EDGE_LOOP('',(#270,#271,#272,#273));
#120=EDGE_LOOP('',(#274,#275,#276,#277));
#121=EDGE_LOOP('',(#278,#279,#280,#281));
#122=EDGE_LOOP('',(#282,#283,#284,#285));
#123=EDGE_LOOP('',(#286,#287,#288,#289));
#124=EDGE_LOOP('',(#290,#291,#292,#293));
#125=EDGE_LOOP('',(#294,#295,#296,#297));
#126=EDGE_LOOP('',(#298,#299,#300,#301,#302,#303));
#127=EDGE_LOOP('',(#304,#305,#306,#307,#308,#309,#310,#311,#312,#313,#314,
#315));
#128=EDGE_LOOP('',(#316,#317,#318,#319));
#129=EDGE_LOOP('',(#320,#321,#322,#323,#324,#325,#326,#327,#328,#329,#330,
#331));
#130=ORIENTED_EDGE('',*,*,#421,.T.);
#131=ORIENTED_EDGE('',*,*,#422,.T.);
#132=ORIENTED_EDGE('',*,*,#418,.T.);
#133=ORIENTED_EDGE('',*,*,#425,.T.);
#134=ORIENTED_EDGE('',*,*,#351,.F.);
#135=ORIENTED_EDGE('',*,*,#350,.F.);
#136=ORIENTED_EDGE('',*,*,#349,.F.);
#137=ORIENTED_EDGE('',*,*,#348,.F.);
#138=ORIENTED_EDGE('',*,*,#347,.F.);
#139=ORIENTED_EDGE('',*,*,#346,.F.);
#140=ORIENTED_EDGE('',*,*,#345,.F.);
#141=ORIENTED_EDGE('',*,*,#344,.F.);
#142=ORIENTED_EDGE('',*,*,#343,.F.);
#143=ORIENTED_EDGE('',*,*,#342,.F.);
#144=ORIENTED_EDGE('',*,*,#341,.F.);
#145=ORIENTED_EDGE('',*,*,#340,.F.);
#146=ORIENTED_EDGE('',*,*,#339,.F.);
#147=ORIENTED_EDGE('',*,*,#338,.F.);
#148=ORIENTED_EDGE('',*,*,#337,.F.);
#149=ORIENTED_EDGE('',*,*,#336,.F.);
#150=ORIENTED_EDGE('',*,*,#335,.F.);
#151=ORIENTED_EDGE('',*,*,#334,.F.);
#152=ORIENTED_EDGE('',*,*,#333,.F.);
#153=ORIENTED_EDGE('',*,*,#332,.F.);
#154=ORIENTED_EDGE('',*,*,#403,.T.);
#155=ORIENTED_EDGE('',*,*,#399,.F.);
#156=ORIENTED_EDGE('',*,*,#348,.T.);
#157=ORIENTED_EDGE('',*,*,#400,.T.);
#158=ORIENTED_EDGE('',*,*,#404,.T.);
#159=ORIENTED_EDGE('',*,*,#400,.F.);
#160=ORIENTED_EDGE('',*,*,#349,.T.);
#161=ORIENTED_EDGE('',*,*,#401,.T.);
#162=ORIENTED_EDGE('',*,*,#405,.T.);
#163=ORIENTED_EDGE('',*,*,#401,.F.);
#164=ORIENTED_EDGE('',*,*,#350,.T.);
#165=ORIENTED_EDGE('',*,*,#402,.T.);
#166=ORIENTED_EDGE('',*,*,#369,.F.);
#167=ORIENTED_EDGE('',*,*,#370,.F.);
#168=ORIENTED_EDGE('',*,*,#371,.F.);
#169=ORIENTED_EDGE('',*,*,#372,.F.);
#170=ORIENTED_EDGE('',*,*,#373,.F.);
#171=ORIENTED_EDGE('',*,*,#374,.F.);
#172=ORIENTED_EDGE('',*,*,#375,.F.);
#173=ORIENTED_EDGE('',*,*,#376,.F.);
#174=ORIENTED_EDGE('',*,*,#365,.F.);
#175=ORIENTED_EDGE('',*,*,#366,.F.);
#176=ORIENTED_EDGE('',*,*,#367,.F.);
#177=ORIENTED_EDGE('',*,*,#368,.F.);
#178=ORIENTED_EDGE('',*,*,#406,.T.);
#179=ORIENTED_EDGE('',*,*,#388,.F.);
#180=ORIENTED_EDGE('',*,*,#332,.T.);
#181=ORIENTED_EDGE('',*,*,#387,.T.);
#182=ORIENTED_EDGE('',*,*,#407,.T.);
#183=ORIENTED_EDGE('',*,*,#387,.F.);
#184=ORIENTED_EDGE('',*,*,#333,.T.);
#185=ORIENTED_EDGE('',*,*,#389,.T.);
#186=ORIENTED_EDGE('',*,*,#408,.T.);
#187=ORIENTED_EDGE('',*,*,#389,.F.);
#188=ORIENTED_EDGE('',*,*,#334,.T.);
#189=ORIENTED_EDGE('',*,*,#390,.T.);
#190=ORIENTED_EDGE('',*,*,#365,.T.);
#191=ORIENTED_EDGE('',*,*,#377,.T.);
#192=ORIENTED_EDGE('',*,*,#354,.T.);
#193=ORIENTED_EDGE('',*,*,#430,.F.);
#194=ORIENTED_EDGE('',*,*,#367,.T.);
#195=ORIENTED_EDGE('',*,*,#431,.T.);
#196=ORIENTED_EDGE('',*,*,#355,.T.);
#197=ORIENTED_EDGE('',*,*,#378,.F.);
#198=ORIENTED_EDGE('',*,*,#368,.T.);
#199=ORIENTED_EDGE('',*,*,#378,.T.);
#200=ORIENTED_EDGE('',*,*,#356,.T.);
#201=ORIENTED_EDGE('',*,*,#379,.F.);
#202=ORIENTED_EDGE('',*,*,#369,.T.);
#203=ORIENTED_EDGE('',*,*,#379,.T.);
#204=ORIENTED_EDGE('',*,*,#357,.T.);
#205=ORIENTED_EDGE('',*,*,#380,.F.);
#206=ORIENTED_EDGE('',*,*,#370,.T.);
#207=ORIENTED_EDGE('',*,*,#380,.T.);
#208=ORIENTED_EDGE('',*,*,#358,.T.);
#209=ORIENTED_EDGE('',*,*,#381,.F.);
#210=ORIENTED_EDGE('',*,*,#371,.T.);
#211=ORIENTED_EDGE('',*,*,#381,.T.);
#212=ORIENTED_EDGE('',*,*,#359,.T.);
#213=ORIENTED_EDGE('',*,*,#382,.F.);
#214=ORIENTED_EDGE('',*,*,#372,.T.);
#215=ORIENTED_EDGE('',*,*,#382,.T.);
#216=ORIENTED_EDGE('',*,*,#360,.T.);
#217=ORIENTED_EDGE('',*,*,#383,.F.);
#218=ORIENTED_EDGE('',*,*,#373,.T.);
#219=ORIENTED_EDGE('',*,*,#383,.T.);
#220=ORIENTED_EDGE('',*,*,#361,.T.);
#221=ORIENTED_EDGE('',*,*,#384,.F.);
#222=ORIENTED_EDGE('',*,*,#374,.T.);
#223=ORIENTED_EDGE('',*,*,#384,.T.);
#224=ORIENTED_EDGE('',*,*,#362,.T.);
#225=ORIENTED_EDGE('',*,*,#385,.F.);
#226=ORIENTED_EDGE('',*,*,#375,.T.);
#227=ORIENTED_EDGE('',*,*,#385,.T.);
#228=ORIENTED_EDGE('',*,*,#363,.T.);
#229=ORIENTED_EDGE('',*,*,#386,.F.);
#230=ORIENTED_EDGE('',*,*,#376,.T.);
#231=ORIENTED_EDGE('',*,*,#386,.T.);
#232=ORIENTED_EDGE('',*,*,#364,.T.);
#233=ORIENTED_EDGE('',*,*,#377,.F.);
#234=ORIENTED_EDGE('',*,*,#412,.F.);
#235=ORIENTED_EDGE('',*,*,#406,.F.);
#236=ORIENTED_EDGE('',*,*,#407,.F.);
#237=ORIENTED_EDGE('',*,*,#408,.F.);
#238=ORIENTED_EDGE('',*,*,#390,.F.);
#239=ORIENTED_EDGE('',*,*,#335,.T.);
#240=ORIENTED_EDGE('',*,*,#415,.T.);
#241=ORIENTED_EDGE('',*,*,#352,.F.);
#242=ORIENTED_EDGE('',*,*,#410,.F.);
#243=ORIENTED_EDGE('',*,*,#416,.F.);
#244=ORIENTED_EDGE('',*,*,#347,.T.);
#245=ORIENTED_EDGE('',*,*,#399,.T.);
#246=ORIENTED_EDGE('',*,*,#411,.T.);
#247=ORIENTED_EDGE('',*,*,#353,.F.);
#248=ORIENTED_EDGE('',*,*,#402,.F.);
#249=ORIENTED_EDGE('',*,*,#351,.T.);
#250=ORIENTED_EDGE('',*,*,#388,.T.);
#251=ORIENTED_EDGE('',*,*,#409,.F.);
#252=ORIENTED_EDGE('',*,*,#412,.T.);
#253=ORIENTED_EDGE('',*,*,#410,.T.);
#254=ORIENTED_EDGE('',*,*,#414,.F.);
#255=ORIENTED_EDGE('',*,*,#411,.F.);
#256=ORIENTED_EDGE('',*,*,#413,.T.);
#257=ORIENTED_EDGE('',*,*,#409,.T.);
#258=ORIENTED_EDGE('',*,*,#404,.F.);
#259=ORIENTED_EDGE('',*,*,#405,.F.);
#260=ORIENTED_EDGE('',*,*,#413,.F.);
#261=ORIENTED_EDGE('',*,*,#403,.F.);
#262=ORIENTED_EDGE('',*,*,#420,.T.);
#263=ORIENTED_EDGE('',*,*,#417,.T.);
#264=ORIENTED_EDGE('',*,*,#424,.T.);
#265=ORIENTED_EDGE('',*,*,#419,.T.);
#266=ORIENTED_EDGE('',*,*,#415,.F.);
#267=ORIENTED_EDGE('',*,*,#336,.T.);
#268=ORIENTED_EDGE('',*,*,#432,.T.);
#269=ORIENTED_EDGE('',*,*,#427,.F.);
#270=ORIENTED_EDGE('',*,*,#393,.F.);
#271=ORIENTED_EDGE('',*,*,#340,.T.);
#272=ORIENTED_EDGE('',*,*,#394,.T.);
#273=ORIENTED_EDGE('',*,*,#417,.F.);
#274=ORIENTED_EDGE('',*,*,#397,.F.);
#275=ORIENTED_EDGE('',*,*,#344,.T.);
#276=ORIENTED_EDGE('',*,*,#398,.T.);
#277=ORIENTED_EDGE('',*,*,#418,.F.);
#278=ORIENTED_EDGE('',*,*,#391,.F.);
#279=ORIENTED_EDGE('',*,*,#338,.T.);
#280=ORIENTED_EDGE('',*,*,#392,.T.);
#281=ORIENTED_EDGE('',*,*,#419,.F.);
#282=ORIENTED_EDGE('',*,*,#392,.F.);
#283=ORIENTED_EDGE('',*,*,#339,.T.);
#284=ORIENTED_EDGE('',*,*,#393,.T.);
#285=ORIENTED_EDGE('',*,*,#420,.F.);
#286=ORIENTED_EDGE('',*,*,#395,.F.);
#287=ORIENTED_EDGE('',*,*,#342,.T.);
#288=ORIENTED_EDGE('',*,*,#396,.T.);
#289=ORIENTED_EDGE('',*,*,#421,.F.);
#290=ORIENTED_EDGE('',*,*,#396,.F.);
#291=ORIENTED_EDGE('',*,*,#343,.T.);
#292=ORIENTED_EDGE('',*,*,#397,.T.);
#293=ORIENTED_EDGE('',*,*,#422,.F.);
#294=ORIENTED_EDGE('',*,*,#429,.F.);
#295=ORIENTED_EDGE('',*,*,#346,.T.);
#296=ORIENTED_EDGE('',*,*,#416,.T.);
#297=ORIENTED_EDGE('',*,*,#428,.F.);
#298=ORIENTED_EDGE('',*,*,#426,.T.);
#299=ORIENTED_EDGE('',*,*,#428,.T.);
#300=ORIENTED_EDGE('',*,*,#353,.T.);
#301=ORIENTED_EDGE('',*,*,#414,.T.);
#302=ORIENTED_EDGE('',*,*,#352,.T.);
#303=ORIENTED_EDGE('',*,*,#427,.T.);
#304=ORIENTED_EDGE('',*,*,#354,.F.);
#305=ORIENTED_EDGE('',*,*,#364,.F.);
#306=ORIENTED_EDGE('',*,*,#363,.F.);
#307=ORIENTED_EDGE('',*,*,#362,.F.);
#308=ORIENTED_EDGE('',*,*,#361,.F.);
#309=ORIENTED_EDGE('',*,*,#360,.F.);
#310=ORIENTED_EDGE('',*,*,#359,.F.);
#311=ORIENTED_EDGE('',*,*,#358,.F.);
#312=ORIENTED_EDGE('',*,*,#357,.F.);
#313=ORIENTED_EDGE('',*,*,#356,.F.);
#314=ORIENTED_EDGE('',*,*,#355,.F.);
#315=ORIENTED_EDGE('',*,*,#423,.F.);
#316=ORIENTED_EDGE('',*,*,#430,.T.);
#317=ORIENTED_EDGE('',*,*,#423,.T.);
#318=ORIENTED_EDGE('',*,*,#431,.F.);
#319=ORIENTED_EDGE('',*,*,#366,.T.);
#320=ORIENTED_EDGE('',*,*,#394,.F.);
#321=ORIENTED_EDGE('',*,*,#341,.T.);
#322=ORIENTED_EDGE('',*,*,#395,.T.);
#323=ORIENTED_EDGE('',*,*,#425,.F.);
#324=ORIENTED_EDGE('',*,*,#398,.F.);
#325=ORIENTED_EDGE('',*,*,#345,.T.);
#326=ORIENTED_EDGE('',*,*,#429,.T.);
#327=ORIENTED_EDGE('',*,*,#426,.F.);
#328=ORIENTED_EDGE('',*,*,#432,.F.);
#329=ORIENTED_EDGE('',*,*,#337,.T.);
#330=ORIENTED_EDGE('',*,*,#391,.T.);
#331=ORIENTED_EDGE('',*,*,#424,.F.);
#332=EDGE_CURVE('',#536,#537,#433,.T.);
#333=EDGE_CURVE('',#537,#538,#434,.T.);
#334=EDGE_CURVE('',#538,#539,#435,.T.);
#335=EDGE_CURVE('',#539,#540,#436,.T.);
#336=EDGE_CURVE('',#540,#541,#437,.T.);
#337=EDGE_CURVE('',#541,#542,#438,.T.);
#338=EDGE_CURVE('',#542,#543,#439,.T.);
#339=EDGE_CURVE('',#543,#544,#440,.T.);
#340=EDGE_CURVE('',#544,#545,#441,.T.);
#341=EDGE_CURVE('',#545,#546,#442,.T.);
#342=EDGE_CURVE('',#546,#547,#443,.T.);
#343=EDGE_CURVE('',#547,#548,#444,.T.);
#344=EDGE_CURVE('',#548,#549,#445,.T.);
#345=EDGE_CURVE('',#549,#550,#446,.T.);
#346=EDGE_CURVE('',#550,#551,#447,.T.);
#347=EDGE_CURVE('',#551,#552,#448,.T.);
#348=EDGE_CURVE('',#552,#553,#449,.T.);
#349=EDGE_CURVE('',#553,#554,#450,.T.);
#350=EDGE_CURVE('',#554,#555,#451,.T.);
#351=EDGE_CURVE('',#555,#536,#452,.T.);
#352=EDGE_CURVE('',#556,#557,#453,.T.);
#353=EDGE_CURVE('',#558,#559,#454,.T.);
#354=EDGE_CURVE('',#560,#590,#455,.T.);
#355=EDGE_CURVE('',#591,#561,#456,.T.);
#356=EDGE_CURVE('',#561,#562,#457,.T.);
#357=EDGE_CURVE('',#562,#563,#458,.T.);
#358=EDGE_CURVE('',#563,#564,#459,.T.);
#359=EDGE_CURVE('',#564,#565,#460,.T.);
#360=EDGE_CURVE('',#565,#566,#461,.T.);
#361=EDGE_CURVE('',#566,#567,#462,.T.);
#362=EDGE_CURVE('',#567,#568,#463,.T.);
#363=EDGE_CURVE('',#568,#569,#464,.T.);
#364=EDGE_CURVE('',#569,#560,#465,.T.);
#365=EDGE_CURVE('',#570,#571,#466,.T.);
#366=EDGE_CURVE('',#572,#570,#467,.T.);
#367=EDGE_CURVE('',#573,#572,#468,.T.);
#368=EDGE_CURVE('',#574,#573,#469,.T.);
#369=EDGE_CURVE('',#575,#574,#470,.T.);
#370=EDGE_CURVE('',#576,#575,#471,.T.);
#371=EDGE_CURVE('',#577,#576,#472,.T.);
#372=EDGE_CURVE('',#578,#577,#473,.T.);
#373=EDGE_CURVE('',#579,#578,#474,.T.);
#374=EDGE_CURVE('',#580,#579,#475,.T.);
#375=EDGE_CURVE('',#581,#580,#476,.T.);
#376=EDGE_CURVE('',#571,#581,#477,.T.);
#377=EDGE_CURVE('',#571,#560,#478,.T.);
#378=EDGE_CURVE('',#573,#561,#479,.T.);
#379=EDGE_CURVE('',#574,#562,#480,.T.);
#380=EDGE_CURVE('',#575,#563,#481,.T.);
#381=EDGE_CURVE('',#576,#564,#482,.T.);
#382=EDGE_CURVE('',#577,#565,#483,.T.);
#383=EDGE_CURVE('',#578,#566,#484,.T.);
#384=EDGE_CURVE('',#579,#567,#485,.T.);
#385=EDGE_CURVE('',#580,#568,#486,.T.);
#386=EDGE_CURVE('',#581,#569,#487,.T.);
#387=EDGE_CURVE('',#537,#588,#488,.T.);
#388=EDGE_CURVE('',#536,#587,#489,.T.);
#389=EDGE_CURVE('',#538,#589,#490,.T.);
#390=EDGE_CURVE('',#539,#582,#491,.T.);
#391=EDGE_CURVE('',#542,#595,#492,.T.);
#392=EDGE_CURVE('',#543,#598,#493,.T.);
#393=EDGE_CURVE('',#544,#596,#494,.T.);
#394=EDGE_CURVE('',#545,#592,#495,.T.);
#395=EDGE_CURVE('',#546,#593,#496,.T.);
#396=EDGE_CURVE('',#547,#599,#497,.T.);
#397=EDGE_CURVE('',#548,#597,#498,.T.);
#398=EDGE_CURVE('',#549,#594,#499,.T.);
#399=EDGE_CURVE('',#552,#583,#500,.T.);
#400=EDGE_CURVE('',#553,#584,#501,.T.);
#401=EDGE_CURVE('',#554,#585,#502,.T.);
#402=EDGE_CURVE('',#555,#586,#503,.T.);
#403=EDGE_CURVE('',#584,#583,#504,.T.);
#404=EDGE_CURVE('',#585,#584,#505,.T.);
#405=EDGE_CURVE('',#586,#585,#506,.T.);
#406=EDGE_CURVE('',#588,#587,#507,.T.);
#407=EDGE_CURVE('',#589,#588,#508,.T.);
#408=EDGE_CURVE('',#582,#589,#509,.T.);
#409=EDGE_CURVE('',#586,#587,#510,.T.);
#410=EDGE_CURVE('',#582,#556,#511,.T.);
#411=EDGE_CURVE('',#583,#559,#512,.T.);
#412=EDGE_CURVE('',#587,#582,#513,.T.);
#413=EDGE_CURVE('',#583,#586,#514,.T.);
#414=EDGE_CURVE('',#559,#556,#515,.T.);
#415=EDGE_CURVE('',#540,#557,#516,.T.);
#416=EDGE_CURVE('',#551,#558,#517,.T.);
#417=EDGE_CURVE('',#596,#592,#518,.T.);
#418=EDGE_CURVE('',#597,#594,#519,.T.);
#419=EDGE_CURVE('',#595,#598,#520,.T.);
#420=EDGE_CURVE('',#598,#596,#521,.T.);
#421=EDGE_CURVE('',#593,#599,#522,.T.);
#422=EDGE_CURVE('',#599,#597,#523,.T.);
#423=EDGE_CURVE('',#590,#591,#524,.T.);
#424=EDGE_CURVE('',#592,#595,#525,.T.);
#425=EDGE_CURVE('',#594,#593,#526,.T.);
#426=EDGE_CURVE('',#534,#535,#527,.T.);
#427=EDGE_CURVE('',#557,#534,#528,.T.);
#428=EDGE_CURVE('',#535,#558,#529,.T.);
#429=EDGE_CURVE('',#550,#535,#530,.T.);
#430=EDGE_CURVE('',#570,#590,#531,.T.);
#431=EDGE_CURVE('',#572,#591,#532,.T.);
#432=EDGE_CURVE('',#541,#534,#533,.T.);
#433=B_SPLINE_CURVE_WITH_KNOTS('',1,(#912,#913),.UNSPECIFIED.,.F.,.F.,(2,
2),(10.,12.),.UNSPECIFIED.);
#434=B_SPLINE_CURVE_WITH_KNOTS('',1,(#914,#915),.UNSPECIFIED.,.F.,.F.,(2,
2),(12.,22.),.UNSPECIFIED.);
#435=B_SPLINE_CURVE_WITH_KNOTS('',1,(#916,#917),.UNSPECIFIED.,.F.,.F.,(2,
2),(22.,24.),.UNSPECIFIED.);
#436=B_SPLINE_CURVE_WITH_KNOTS('',1,(#918,#919),.UNSPECIFIED.,.F.,.F.,(2,
2),(24.,35.),.UNSPECIFIED.);
#437=B_SPLINE_CURVE_WITH_KNOTS('',1,(#920,#921),.UNSPECIFIED.,.F.,.F.,(2,
2),(35.,66.),.UNSPECIFIED.);
#438=B_SPLINE_CURVE_WITH_KNOTS('',1,(#922,#923),.UNSPECIFIED.,.F.,.F.,(2,
2),(66.,76.8322949016875),.UNSPECIFIED.);
#439=B_SPLINE_CURVE_WITH_KNOTS('',1,(#924,#925),.UNSPECIFIED.,.F.,.F.,(2,
2),(76.8322949016875,78.7018601190788),.UNSPECIFIED.);
#440=B_SPLINE_CURVE_WITH_KNOTS('',1,(#926,#927),.UNSPECIFIED.,.F.,.F.,(2,
2),(78.7018601190788,88.7018601190788),.UNSPECIFIED.);
#441=B_SPLINE_CURVE_WITH_KNOTS('',1,(#928,#929),.UNSPECIFIED.,.F.,.F.,(2,
2),(88.7018601190788,90.5714253364702),.UNSPECIFIED.);
#442=B_SPLINE_CURVE_WITH_KNOTS('',1,(#930,#931),.UNSPECIFIED.,.F.,.F.,(2,
2),(90.5714253364702,112.236015139845),.UNSPECIFIED.);
#443=B_SPLINE_CURVE_WITH_KNOTS('',1,(#932,#933),.UNSPECIFIED.,.F.,.F.,(2,
2),(112.236015139845,114.105580357236),.UNSPECIFIED.);
#444=B_SPLINE_CURVE_WITH_KNOTS('',1,(#934,#935),.UNSPECIFIED.,.F.,.F.,(2,
2),(114.105580357236,124.105580357237),.UNSPECIFIED.);
#445=B_SPLINE_CURVE_WITH_KNOTS('',1,(#936,#937),.UNSPECIFIED.,.F.,.F.,(2,
2),(124.105580357237,125.975145574628),.UNSPECIFIED.);
#446=B_SPLINE_CURVE_WITH_KNOTS('',1,(#938,#939),.UNSPECIFIED.,.F.,.F.,(2,
2),(125.975145574628,136.807440476315),.UNSPECIFIED.);
#447=B_SPLINE_CURVE_WITH_KNOTS('',1,(#940,#941),.UNSPECIFIED.,.F.,.F.,(2,
2),(136.807440476315,167.807440476315),.UNSPECIFIED.);
#448=B_SPLINE_CURVE_WITH_KNOTS('',1,(#942,#943),.UNSPECIFIED.,.F.,.F.,(2,
2),(167.807440476315,178.807440476315),.UNSPECIFIED.);
#449=B_SPLINE_CURVE_WITH_KNOTS('',1,(#944,#945),.UNSPECIFIED.,.F.,.F.,(2,
2),(178.807440476315,180.807440476315),.UNSPECIFIED.);
#450=B_SPLINE_CURVE_WITH_KNOTS('',1,(#946,#947),.UNSPECIFIED.,.F.,.F.,(2,
2),(180.807440476315,190.807440476315),.UNSPECIFIED.);
#451=B_SPLINE_CURVE_WITH_KNOTS('',1,(#948,#949),.UNSPECIFIED.,.F.,.F.,(2,
2),(190.807440476315,192.807440476315),.UNSPECIFIED.);
#452=B_SPLINE_CURVE_WITH_KNOTS('',1,(#950,#951),.UNSPECIFIED.,.F.,.F.,(2,
2),(192.807440476315,214.807440476315),.UNSPECIFIED.);
#453=B_SPLINE_CURVE_WITH_KNOTS('',1,(#952,#953),.UNSPECIFIED.,.F.,.F.,(2,
2),(24.,35.),.UNSPECIFIED.);
#454=B_SPLINE_CURVE_WITH_KNOTS('',1,(#954,#955),.UNSPECIFIED.,.F.,.F.,(2,
2),(167.807440476315,178.807440476315),.UNSPECIFIED.);
#455=B_SPLINE_CURVE_WITH_KNOTS('',1,(#956,#957),.UNSPECIFIED.,.F.,.F.,(2,
2),(-163.,-152.),.UNSPECIFIED.);
#456=B_SPLINE_CURVE_WITH_KNOTS('',1,(#958,#959),.UNSPECIFIED.,.F.,.F.,(2,
2),(-98.,-87.),.UNSPECIFIED.);
#457=B_SPLINE_CURVE_WITH_KNOTS('',1,(#960,#961),.UNSPECIFIED.,.F.,.F.,(2,
2),(-87.,-86.),.UNSPECIFIED.);
#458=B_SPLINE_CURVE_WITH_KNOTS('',1,(#962,#963),.UNSPECIFIED.,.F.,.F.,(2,
2),(-86.,-82.5),.UNSPECIFIED.);
#459=B_SPLINE_CURVE_WITH_KNOTS('',1,(#964,#965),.UNSPECIFIED.,.F.,.F.,(2,
2),(-82.5,-81.5),.UNSPECIFIED.);
#460=B_SPLINE_CURVE_WITH_KNOTS('',1,(#966,#967),.UNSPECIFIED.,.F.,.F.,(2,
2),(-81.5,-70.5),.UNSPECIFIED.);
#461=B_SPLINE_CURVE_WITH_KNOTS('',1,(#968,#969),.UNSPECIFIED.,.F.,.F.,(2,
2),(-70.5,-16.5),.UNSPECIFIED.);
#462=B_SPLINE_CURVE_WITH_KNOTS('',1,(#970,#971),.UNSPECIFIED.,.F.,.F.,(2,
2),(-16.5,-5.5),.UNSPECIFIED.);
#463=B_SPLINE_CURVE_WITH_KNOTS('',1,(#972,#973),.UNSPECIFIED.,.F.,.F.,(2,
2),(-5.5,-4.49999999999999),.UNSPECIFIED.);
#464=B_SPLINE_CURVE_WITH_KNOTS('',1,(#974,#975),.UNSPECIFIED.,.F.,.F.,(2,
2),(-4.49999999999999,-0.999999999999994),.UNSPECIFIED.);
#465=B_SPLINE_CURVE_WITH_KNOTS('',1,(#976,#977),.UNSPECIFIED.,.F.,.F.,(2,
2),(-0.999999999999994,0.),.UNSPECIFIED.);
#466=B_SPLINE_CURVE_WITH_KNOTS('',1,(#978,#979),.UNSPECIFIED.,.F.,.F.,(2,
2),(152.,163.),.UNSPECIFIED.);
#467=B_SPLINE_CURVE_WITH_KNOTS('',1,(#980,#981),.UNSPECIFIED.,.F.,.F.,(2,
2),(98.,152.),.UNSPECIFIED.);
#468=B_SPLINE_CURVE_WITH_KNOTS('',1,(#982,#983),.UNSPECIFIED.,.F.,.F.,(2,
2),(87.,98.),.UNSPECIFIED.);
#469=B_SPLINE_CURVE_WITH_KNOTS('',1,(#984,#985),.UNSPECIFIED.,.F.,.F.,(2,
2),(86.,87.),.UNSPECIFIED.);
#470=B_SPLINE_CURVE_WITH_KNOTS('',1,(#986,#987),.UNSPECIFIED.,.F.,.F.,(2,
2),(82.5,86.),.UNSPECIFIED.);
#471=B_SPLINE_CURVE_WITH_KNOTS('',1,(#988,#989),.UNSPECIFIED.,.F.,.F.,(2,
2),(81.5,82.5),.UNSPECIFIED.);
#472=B_SPLINE_CURVE_WITH_KNOTS('',1,(#990,#991),.UNSPECIFIED.,.F.,.F.,(2,
2),(70.5,81.5),.UNSPECIFIED.);
#473=B_SPLINE_CURVE_WITH_KNOTS('',1,(#992,#993),.UNSPECIFIED.,.F.,.F.,(2,
2),(-15.9,38.1),.UNSPECIFIED.);
#474=B_SPLINE_CURVE_WITH_KNOTS('',1,(#994,#995),.UNSPECIFIED.,.F.,.F.,(2,
2),(5.5,16.5),.UNSPECIFIED.);
#475=B_SPLINE_CURVE_WITH_KNOTS('',1,(#996,#997),.UNSPECIFIED.,.F.,.F.,(2,
2),(4.49999999999999,5.5),.UNSPECIFIED.);
#476=B_SPLINE_CURVE_WITH_KNOTS('',1,(#998,#999),.UNSPECIFIED.,.F.,.F.,(2,
2),(0.999999999999994,4.49999999999999),.UNSPECIFIED.);
#477=B_SPLINE_CURVE_WITH_KNOTS('',1,(#1000,#1001),.UNSPECIFIED.,.F.,.F.,
(2,2),(0.,0.999999999999994),.UNSPECIFIED.);
#478=B_SPLINE_CURVE_WITH_KNOTS('',1,(#1002,#1003),.UNSPECIFIED.,.F.,.F.,
(2,2),(3.,55.),.UNSPECIFIED.);
#479=B_SPLINE_CURVE_WITH_KNOTS('',1,(#1004,#1005),.UNSPECIFIED.,.F.,.F.,
(2,2),(3.,55.),.UNSPECIFIED.);
#480=B_SPLINE_CURVE_WITH_KNOTS('',1,(#1006,#1007),.UNSPECIFIED.,.F.,.F.,
(2,2),(3.,55.),.UNSPECIFIED.);
#481=B_SPLINE_CURVE_WITH_KNOTS('',1,(#1008,#1009),.UNSPECIFIED.,.F.,.F.,
(2,2),(3.,55.),.UNSPECIFIED.);
#482=B_SPLINE_CURVE_WITH_KNOTS('',1,(#1010,#1011),.UNSPECIFIED.,.F.,.F.,
(2,2),(3.,55.),.UNSPECIFIED.);
#483=B_SPLINE_CURVE_WITH_KNOTS('',1,(#1012,#1013),.UNSPECIFIED.,.F.,.F.,
(2,2),(3.,55.),.UNSPECIFIED.);
#484=B_SPLINE_CURVE_WITH_KNOTS('',1,(#1014,#1015),.UNSPECIFIED.,.F.,.F.,
(2,2),(3.,55.),.UNSPECIFIED.);
#485=B_SPLINE_CURVE_WITH_KNOTS('',1,(#1016,#1017),.UNSPECIFIED.,.F.,.F.,
(2,2),(3.,55.),.UNSPECIFIED.);
#486=B_SPLINE_CURVE_WITH_KNOTS('',1,(#1018,#1019),.UNSPECIFIED.,.F.,.F.,
(2,2),(3.,55.),.UNSPECIFIED.);
#487=B_SPLINE_CURVE_WITH_KNOTS('',1,(#1020,#1021),.UNSPECIFIED.,.F.,.F.,
(2,2),(3.,55.),.UNSPECIFIED.);
#488=B_SPLINE_CURVE_WITH_KNOTS('',1,(#1022,#1023,#1024),.UNSPECIFIED.,.F.,
 .F.,(2,1,2),(0.,3.,49.9),.UNSPECIFIED.);
#489=B_SPLINE_CURVE_WITH_KNOTS('',1,(#1025,#1026,#1027),.UNSPECIFIED.,.F.,
 .F.,(2,1,2),(0.,3.,49.9),.UNSPECIFIED.);
#490=B_SPLINE_CURVE_WITH_KNOTS('',1,(#1028,#1029,#1030),.UNSPECIFIED.,.F.,
 .F.,(2,1,2),(0.,3.,49.9),.UNSPECIFIED.);
#491=B_SPLINE_CURVE_WITH_KNOTS('',1,(#1031,#1032,#1033),.UNSPECIFIED.,.F.,
 .F.,(2,1,2),(0.,3.,49.9),.UNSPECIFIED.);
#492=B_SPLINE_CURVE_WITH_KNOTS('',1,(#1034,#1035,#1036),.UNSPECIFIED.,.F.,
 .F.,(2,1,2),(0.,3.,50.1),.UNSPECIFIED.);
#493=B_SPLINE_CURVE_WITH_KNOTS('',1,(#1037,#1038,#1039),.UNSPECIFIED.,.F.,
 .F.,(2,1,2),(0.,3.,50.1),.UNSPECIFIED.);
#494=B_SPLINE_CURVE_WITH_KNOTS('',1,(#1040,#1041,#1042),.UNSPECIFIED.,.F.,
 .F.,(2,1,2),(0.,3.,50.1),.UNSPECIFIED.);
#495=B_SPLINE_CURVE_WITH_KNOTS('',1,(#1043,#1044,#1045),.UNSPECIFIED.,.F.,
 .F.,(2,1,2),(0.,3.,50.1),.UNSPECIFIED.);
#496=B_SPLINE_CURVE_WITH_KNOTS('',1,(#1046,#1047,#1048),.UNSPECIFIED.,.F.,
 .F.,(2,1,2),(0.,3.,50.1),.UNSPECIFIED.);
#497=B_SPLINE_CURVE_WITH_KNOTS('',1,(#1049,#1050,#1051),.UNSPECIFIED.,.F.,
 .F.,(2,1,2),(0.,3.,50.1),.UNSPECIFIED.);
#498=B_SPLINE_CURVE_WITH_KNOTS('',1,(#1052,#1053,#1054),.UNSPECIFIED.,.F.,
 .F.,(2,1,2),(0.,3.,50.1),.UNSPECIFIED.);
#499=B_SPLINE_CURVE_WITH_KNOTS('',1,(#1055,#1056,#1057),.UNSPECIFIED.,.F.,
 .F.,(2,1,2),(0.,3.,50.1),.UNSPECIFIED.);
#500=B_SPLINE_CURVE_WITH_KNOTS('',1,(#1058,#1059,#1060),.UNSPECIFIED.,.F.,
 .F.,(2,1,2),(0.,3.,49.9),.UNSPECIFIED.);
#501=B_SPLINE_CURVE_WITH_KNOTS('',1,(#1061,#1062,#1063),.UNSPECIFIED.,.F.,
 .F.,(2,1,2),(0.,3.,49.9),.UNSPECIFIED.);
#502=B_SPLINE_CURVE_WITH_KNOTS('',1,(#1064,#1065,#1066),.UNSPECIFIED.,.F.,
 .F.,(2,1,2),(0.,3.,49.9),.UNSPECIFIED.);
#503=B_SPLINE_CURVE_WITH_KNOTS('',1,(#1067,#1068,#1069),.UNSPECIFIED.,.F.,
 .F.,(2,1,2),(0.,3.,49.9),.UNSPECIFIED.);
#504=B_SPLINE_CURVE_WITH_KNOTS('',1,(#1070,#1071),.UNSPECIFIED.,.F.,.F.,
(2,2),(-180.807440476315,-178.807440476315),.UNSPECIFIED.);
#505=B_SPLINE_CURVE_WITH_KNOTS('',1,(#1072,#1073),.UNSPECIFIED.,.F.,.F.,
(2,2),(40.05,49.95),.UNSPECIFIED.);
#506=B_SPLINE_CURVE_WITH_KNOTS('',1,(#1074,#1075),.UNSPECIFIED.,.F.,.F.,
(2,2),(-192.807440476315,-190.807440476315),.UNSPECIFIED.);
#507=B_SPLINE_CURVE_WITH_KNOTS('',1,(#1076,#1077),.UNSPECIFIED.,.F.,.F.,
(2,2),(-12.,-10.),.UNSPECIFIED.);
#508=B_SPLINE_CURVE_WITH_KNOTS('',1,(#1078,#1079),.UNSPECIFIED.,.F.,.F.,
(2,2),(10.05,19.95),.UNSPECIFIED.);
#509=B_SPLINE_CURVE_WITH_KNOTS('',1,(#1080,#1081),.UNSPECIFIED.,.F.,.F.,
(2,2),(-24.,-22.),.UNSPECIFIED.);
#510=B_SPLINE_CURVE_WITH_KNOTS('',1,(#1082,#1083),.UNSPECIFIED.,.F.,.F.,
(2,2),(-41.1,-18.9),.UNSPECIFIED.);
#511=B_SPLINE_CURVE_WITH_KNOTS('',1,(#1084,#1085),.UNSPECIFIED.,.F.,.F.,
(2,2),(49.9,55.),.UNSPECIFIED.);
#512=B_SPLINE_CURVE_WITH_KNOTS('',1,(#1086,#1087),.UNSPECIFIED.,.F.,.F.,
(2,2),(49.9,55.),.UNSPECIFIED.);
#513=B_SPLINE_CURVE_WITH_KNOTS('',1,(#1088,#1089),.UNSPECIFIED.,.F.,.F.,
(2,2),(-18.9,-11.1),.UNSPECIFIED.);
#514=B_SPLINE_CURVE_WITH_KNOTS('',1,(#1090,#1091),.UNSPECIFIED.,.F.,.F.,
(2,2),(-48.9,-41.1),.UNSPECIFIED.);
#515=B_SPLINE_CURVE_WITH_KNOTS('',1,(#1092,#1093,#1094,#1095),
 .UNSPECIFIED.,.F.,.F.,(2,1,1,2),(-48.9,-41.1,-19.1,-11.3),
 .UNSPECIFIED.);
#516=B_SPLINE_CURVE_WITH_KNOTS('',1,(#1096,#1097,#1098,#1099),
 .UNSPECIFIED.,.F.,.F.,(2,1,1,2),(0.,3.,49.9,55.),.UNSPECIFIED.);
#517=B_SPLINE_CURVE_WITH_KNOTS('',1,(#1100,#1101,#1102,#1103),
 .UNSPECIFIED.,.F.,.F.,(2,1,1,2),(0.,3.,49.9,55.),.UNSPECIFIED.);
#518=B_SPLINE_CURVE_WITH_KNOTS('',1,(#1104,#1105),.UNSPECIFIED.,.F.,.F.,
(2,2),(88.7018601190788,90.5714253364702),.UNSPECIFIED.);
#519=B_SPLINE_CURVE_WITH_KNOTS('',1,(#1106,#1107),.UNSPECIFIED.,.F.,.F.,
(2,2),(124.105580357237,125.975145574628),.UNSPECIFIED.);
#520=B_SPLINE_CURVE_WITH_KNOTS('',1,(#1108,#1109),.UNSPECIFIED.,.F.,.F.,
(2,2),(76.8322949016875,78.7018601190788),.UNSPECIFIED.);
#521=B_SPLINE_CURVE_WITH_KNOTS('',1,(#1110,#1111),.UNSPECIFIED.,.F.,.F.,
(2,2),(9.75729490168749,20.2427050983125),.UNSPECIFIED.);
#522=B_SPLINE_CURVE_WITH_KNOTS('',1,(#1112,#1113),.UNSPECIFIED.,.F.,.F.,
(2,2),(112.236015139845,114.105580357236),.UNSPECIFIED.);
#523=B_SPLINE_CURVE_WITH_KNOTS('',1,(#1114,#1115),.UNSPECIFIED.,.F.,.F.,
(2,2),(39.7572949016875,50.2427050983125),.UNSPECIFIED.);
#524=B_SPLINE_CURVE_WITH_KNOTS('',1,(#1116,#1117),.UNSPECIFIED.,.F.,.F.,
(2,2),(-120.,-66.),.UNSPECIFIED.);
#525=B_SPLINE_CURVE_WITH_KNOTS('',1,(#1118,#1119),.UNSPECIFIED.,.F.,.F.,
(2,2),(-19.1677050983125,-10.8322949016875),.UNSPECIFIED.);
#526=B_SPLINE_CURVE_WITH_KNOTS('',1,(#1120,#1121),.UNSPECIFIED.,.F.,.F.,
(2,2),(-49.1677050983125,-40.8322949016875),.UNSPECIFIED.);
#527=B_SPLINE_CURVE_WITH_KNOTS('',1,(#1122,#1123,#1124,#1125,#1126,#1127),
 .UNSPECIFIED.,.F.,.F.,(2,1,1,1,1,2),(0.,10.8322949016875,19.1677050983125,
40.8322949016875,49.1677050983125,60.),.UNSPECIFIED.);
#528=B_SPLINE_CURVE_WITH_KNOTS('',1,(#1128,#1129),.UNSPECIFIED.,.F.,.F.,
(2,2),(0.,30.8),.UNSPECIFIED.);
#529=B_SPLINE_CURVE_WITH_KNOTS('',1,(#1130,#1131),.UNSPECIFIED.,.F.,.F.,
(2,2),(0.,30.8),.UNSPECIFIED.);
#530=B_SPLINE_CURVE_WITH_KNOTS('',1,(#1132,#1133),.UNSPECIFIED.,.F.,.F.,
(2,2),(0.,55.),.UNSPECIFIED.);
#531=B_SPLINE_CURVE_WITH_KNOTS('',1,(#1134,#1135),.UNSPECIFIED.,.F.,.F.,
(2,2),(0.,52.),.UNSPECIFIED.);
#532=B_SPLINE_CURVE_WITH_KNOTS('',1,(#1136,#1137),.UNSPECIFIED.,.F.,.F.,
(2,2),(0.,52.),.UNSPECIFIED.);
#533=B_SPLINE_CURVE_WITH_KNOTS('',1,(#1138,#1139),.UNSPECIFIED.,.F.,.F.,
(2,2),(0.,55.),.UNSPECIFIED.);
#534=VERTEX_POINT('',#846);
#535=VERTEX_POINT('',#847);
#536=VERTEX_POINT('',#848);
#537=VERTEX_POINT('',#849);
#538=VERTEX_POINT('',#850);
#539=VERTEX_POINT('',#851);
#540=VERTEX_POINT('',#852);
#541=VERTEX_POINT('',#853);
#542=VERTEX_POINT('',#854);
#543=VERTEX_POINT('',#855);
#544=VERTEX_POINT('',#856);
#545=VERTEX_POINT('',#857);
#546=VERTEX_POINT('',#858);
#547=VERTEX_POINT('',#859);
#548=VERTEX_POINT('',#860);
#549=VERTEX_POINT('',#861);
#550=VERTEX_POINT('',#862);
#551=VERTEX_POINT('',#863);
#552=VERTEX_POINT('',#864);
#553=VERTEX_POINT('',#865);
#554=VERTEX_POINT('',#866);
#555=VERTEX_POINT('',#867);
#556=VERTEX_POINT('',#868);
#557=VERTEX_POINT('',#869);
#558=VERTEX_POINT('',#870);
#559=VERTEX_POINT('',#871);
#560=VERTEX_POINT('',#872);
#561=VERTEX_POINT('',#873);
#562=VERTEX_POINT('',#874);
#563=VERTEX_POINT('',#875);
#564=VERTEX_POINT('',#876);
#565=VERTEX_POINT('',#877);
#566=VERTEX_POINT('',#878);
#567=VERTEX_POINT('',#879);
#568=VERTEX_POINT('',#880);
#569=VERTEX_POINT('',#881);
#570=VERTEX_POINT('',#882);
#571=VERTEX_POINT('',#883);
#572=VERTEX_POINT('',#884);
#573=VERTEX_POINT('',#885);
#574=VERTEX_POINT('',#886);
#575=VERTEX_POINT('',#887);
#576=VERTEX_POINT('',#888);
#577=VERTEX_POINT('',#889);
#578=VERTEX_POINT('',#890);
#579=VERTEX_POINT('',#891);
#580=VERTEX_POINT('',#892);
#581=VERTEX_POINT('',#893);
#582=VERTEX_POINT('',#894);
#583=VERTEX_POINT('',#895);
#584=VERTEX_POINT('',#896);
#585=VERTEX_POINT('',#897);
#586=VERTEX_POINT('',#898);
#587=VERTEX_POINT('',#899);
#588=VERTEX_POINT('',#900);
#589=VERTEX_POINT('',#901);
#590=VERTEX_POINT('',#902);
#591=VERTEX_POINT('',#903);
#592=VERTEX_POINT('',#904);
#593=VERTEX_POINT('',#905);
#594=VERTEX_POINT('',#906);
#595=VERTEX_POINT('',#907);
#596=VERTEX_POINT('',#908);
#597=VERTEX_POINT('',#909);
#598=VERTEX_POINT('',#910);
#599=VERTEX_POINT('',#911);
#600=PLANE('',#726);
#601=PLANE('',#727);
#602=PLANE('',#728);
#603=PLANE('',#729);
#604=PLANE('',#730);
#605=PLANE('',#731);
#606=PLANE('',#732);
#607=PLANE('',#733);
#608=PLANE('',#734);
#609=PLANE('',#735);
#610=PLANE('',#736);
#611=PLANE('',#737);
#612=PLANE('',#738);
#613=PLANE('',#739);
#614=PLANE('',#740);
#615=PLANE('',#741);
#616=PLANE('',#742);
#617=PLANE('',#743);
#618=PLANE('',#744);
#619=PLANE('',#745);
#620=PLANE('',#746);
#621=PLANE('',#747);
#622=PLANE('',#748);
#623=PLANE('',#749);
#624=PLANE('',#750);
#625=PLANE('',#751);
#626=PLANE('',#752);
#627=PLANE('',#753);
#628=PLANE('',#754);
#629=PLANE('',#755);
#630=PLANE('',#756);
#631=PLANE('',#757);
#632=PLANE('',#758);
#633=PLANE('',#759);
#634=PLANE('',#760);
#635=PLANE('',#761);
#636=PLANE('',#762);
#637=PLANE('',#763);
#638=SHAPE_DEFINITION_REPRESENTATION(#639,#724);
#639=PRODUCT_DEFINITION_SHAPE($,$,#641);
#640=PRODUCT_DEFINITION_CONTEXT('3D Mechanical Parts',#713,'design');
#641=PRODUCT_DEFINITION('A','First version',#683,#640);
#642=DATE_TIME_ROLE('classification_date');
#643=DATE_TIME_ROLE('creation_date');
#644=APPLIED_DATE_AND_TIME_ASSIGNMENT(#668,#642,(#647));
#645=APPLIED_DATE_AND_TIME_ASSIGNMENT(#670,#643,(#641));
#646=SECURITY_CLASSIFICATION_LEVEL('unclassified');
#647=SECURITY_CLASSIFICATION('A','Security for version',#646);
#648=APPLIED_SECURITY_CLASSIFICATION_ASSIGNMENT(#647,(#683));
#649=APPROVAL_ROLE('Version approval');
#650=APPROVAL_ROLE('Version Security approval');
#651=APPROVAL_ROLE('Definition approval');
#652=APPROVAL_PERSON_ORGANIZATION(#701,#677,#649);
#653=APPROVAL_PERSON_ORGANIZATION(#702,#678,#650);
#654=APPROVAL_PERSON_ORGANIZATION(#705,#679,#651);
#655=COORDINATED_UNIVERSAL_TIME_OFFSET(5,0,.BEHIND.);
#656=LOCAL_TIME(0,0,0.,#655);
#657=LOCAL_TIME(0,0,0.,#655);
#658=LOCAL_TIME(0,0,0.,#655);
#659=LOCAL_TIME(0,0,0.,#655);
#660=LOCAL_TIME(0,0,0.,#655);
#661=CALENDAR_DATE(1999,1,1);
#662=CALENDAR_DATE(1999,1,1);
#663=CALENDAR_DATE(1999,1,1);
#664=CALENDAR_DATE(1999,1,1);
#665=CALENDAR_DATE(1999,1,1);
#666=DATE_AND_TIME(#661,#656);
#667=DATE_AND_TIME(#662,#657);
#668=DATE_AND_TIME(#663,#658);
#669=DATE_AND_TIME(#664,#659);
#670=DATE_AND_TIME(#665,#660);
#671=APPROVAL_DATE_TIME(#666,#677);
#672=APPROVAL_DATE_TIME(#667,#678);
#673=APPROVAL_DATE_TIME(#669,#679);
#674=APPROVAL_STATUS('not_yet_approved');
#675=APPROVAL_STATUS('not_yet_approved');
#676=APPROVAL_STATUS('approved');
#677=APPROVAL(#674,'Version approval');
#678=APPROVAL(#675,'Version Security approval');
#679=APPROVAL(#676,'Definition approval');
#680=APPLIED_APPROVAL_ASSIGNMENT(#677,(#683));
#681=APPLIED_APPROVAL_ASSIGNMENT(#678,(#647));
#682=APPLIED_APPROVAL_ASSIGNMENT(#679,(#641));
#683=PRODUCT_DEFINITION_FORMATION_WITH_SPECIFIED_SOURCE('A',
'First version',#715,.MADE.);
#684=PERSON_AND_ORGANIZATION_ROLE('design_owner');
#685=PERSON_AND_ORGANIZATION_ROLE('creator');
#686=PERSON_AND_ORGANIZATION_ROLE('design_supplier');
#687=PERSON_AND_ORGANIZATION_ROLE('classification_officer');
#688=PERSON_AND_ORGANIZATION_ROLE('creator');
#689=ORGANIZATION('STI','lab','lab');
#690=ORGANIZATION('STI','unknown','unknown');
#691=ORGANIZATION('STI','unknown','unknown');
#692=ORGANIZATION('STI','unknown','unknown');
#693=ORGANIZATION('STI','unknown','unknown');
#694=ORGANIZATION('STI','unknown','unknown');
#695=ORGANIZATION('STI','unknown','unknown');
#696=PERSON('1','Box','vc60',$,$,$);
#697=PERSON('2','last','first',$,$,$);
#698=PERSON('3','President','Mr.',$,$,$);
#699=PERSON_AND_ORGANIZATION(#696,#689);
#700=PERSON_AND_ORGANIZATION(#697,#690);
#701=PERSON_AND_ORGANIZATION(#698,#691);
#702=PERSON_AND_ORGANIZATION(#698,#692);
#703=PERSON_AND_ORGANIZATION(#698,#693);
#704=PERSON_AND_ORGANIZATION(#697,#694);
#705=PERSON_AND_ORGANIZATION(#698,#695);
#706=APPLIED_PERSON_AND_ORGANIZATION_ASSIGNMENT(#699,#684,(#715));
#707=APPLIED_PERSON_AND_ORGANIZATION_ASSIGNMENT(#700,#685,(#683));
#708=APPLIED_PERSON_AND_ORGANIZATION_ASSIGNMENT(#700,#686,(#683));
#709=APPLIED_PERSON_AND_ORGANIZATION_ASSIGNMENT(#703,#687,(#647));
#710=APPLIED_PERSON_AND_ORGANIZATION_ASSIGNMENT(#704,#688,(#641));
#711=PRODUCT_RELATED_PRODUCT_CATEGORY('detail','detail',(#715));
#712=APPLICATION_PROTOCOL_DEFINITION('International Standard',
'config_control_design',1994,#713);
#713=APPLICATION_CONTEXT(
'configuration controlled 3d designs of mechanical parts and assemblie
s');
#714=PRODUCT_CONTEXT('3D Mechanical Parts',#713,'mechanical');
#715=PRODUCT('Document','Document','',(#714));
#716=(
LENGTH_UNIT()
NAMED_UNIT(*)
SI_UNIT(.MILLI.,.METRE.)
);
#717=(
NAMED_UNIT(*)
PLANE_ANGLE_UNIT()
SI_UNIT($,.RADIAN.)
);
#718=DIMENSIONAL_EXPONENTS(0.,0.,0.,0.,0.,0.,0.);
#719=PLANE_ANGLE_MEASURE_WITH_UNIT(PLANE_ANGLE_MEASURE(0.01745329252),#717);
#720=(
CONVERSION_BASED_UNIT('DEGREES',#719)
NAMED_UNIT(#718)
PLANE_ANGLE_UNIT()
);
#721=(
NAMED_UNIT(*)
SI_UNIT($,.STERADIAN.)
SOLID_ANGLE_UNIT()
);
#722=UNCERTAINTY_MEASURE_WITH_UNIT(LENGTH_MEASURE(0.001),#716,
'DISTANCE_ACCURACY_VALUE',
'Maximum model space distance between geometric entities at asserted c
onnectivities');
#723=(
GEOMETRIC_REPRESENTATION_CONTEXT(3)
GLOBAL_UNCERTAINTY_ASSIGNED_CONTEXT((#722))
GLOBAL_UNIT_ASSIGNED_CONTEXT((#721,#720,#716))
REPRESENTATION_CONTEXT('ID1','3D')
);
#724=SHAPE_REPRESENTATION('Document',(#725,#764),#723);
#725=AXIS2_PLACEMENT_3D($,#807,#765,#766);
#726=AXIS2_PLACEMENT_3D('',#808,#767,$);
#727=AXIS2_PLACEMENT_3D('',#809,#768,$);
#728=AXIS2_PLACEMENT_3D('',#810,#769,$);
#729=AXIS2_PLACEMENT_3D('',#811,#770,$);
#730=AXIS2_PLACEMENT_3D('',#812,#771,$);
#731=AXIS2_PLACEMENT_3D('',#813,#772,$);
#732=AXIS2_PLACEMENT_3D('',#814,#773,$);
#733=AXIS2_PLACEMENT_3D('',#815,#774,$);
#734=AXIS2_PLACEMENT_3D('',#816,#775,$);
#735=AXIS2_PLACEMENT_3D('',#817,#776,$);
#736=AXIS2_PLACEMENT_3D('',#818,#777,$);
#737=AXIS2_PLACEMENT_3D('',#819,#778,$);
#738=AXIS2_PLACEMENT_3D('',#820,#779,$);
#739=AXIS2_PLACEMENT_3D('',#821,#780,$);
#740=AXIS2_PLACEMENT_3D('',#822,#781,$);
#741=AXIS2_PLACEMENT_3D('',#823,#782,$);
#742=AXIS2_PLACEMENT_3D('',#824,#783,$);
#743=AXIS2_PLACEMENT_3D('',#825,#784,$);
#744=AXIS2_PLACEMENT_3D('',#826,#785,$);
#745=AXIS2_PLACEMENT_3D('',#827,#786,$);
#746=AXIS2_PLACEMENT_3D('',#828,#787,$);
#747=AXIS2_PLACEMENT_3D('',#829,#788,$);
#748=AXIS2_PLACEMENT_3D('',#830,#789,$);
#749=AXIS2_PLACEMENT_3D('',#831,#790,$);
#750=AXIS2_PLACEMENT_3D('',#832,#791,$);
#751=AXIS2_PLACEMENT_3D('',#833,#792,$);
#752=AXIS2_PLACEMENT_3D('',#834,#793,$);
#753=AXIS2_PLACEMENT_3D('',#835,#794,$);
#754=AXIS2_PLACEMENT_3D('',#836,#795,$);
#755=AXIS2_PLACEMENT_3D('',#837,#796,$);
#756=AXIS2_PLACEMENT_3D('',#838,#797,$);
#757=AXIS2_PLACEMENT_3D('',#839,#798,$);
#758=AXIS2_PLACEMENT_3D('',#840,#799,$);
#759=AXIS2_PLACEMENT_3D('',#841,#800,$);
#760=AXIS2_PLACEMENT_3D('',#842,#801,$);
#761=AXIS2_PLACEMENT_3D('',#843,#802,$);
#762=AXIS2_PLACEMENT_3D('',#844,#803,$);
#763=AXIS2_PLACEMENT_3D('',#845,#804,$);
#764=AXIS2_PLACEMENT_3D($,#1140,#805,#806);
#765=DIRECTION('',(0.,0.,1.));
#766=DIRECTION('',(1.,0.,0.));
#767=DIRECTION('',(0.,0.,-1.));
#768=DIRECTION('',(0.,0.,-1.));
#769=DIRECTION('',(0.90248103778368,-0.430729586214938,-7.50384764364847E-17));
#770=DIRECTION('',(0.,1.,0.));
#771=DIRECTION('',(-0.90248103778368,-0.430729586214938,-1.95104386061261E-17));
#772=DIRECTION('',(0.,0.,1.));
#773=DIRECTION('',(0.90248103778368,-0.430729586214938,-1.00394775203506E-17));
#774=DIRECTION('',(0.,1.,0.));
#775=DIRECTION('',(-0.90248103778368,-0.430729586214938,-2.57726587775951E-17));
#776=DIRECTION('',(1.,0.,0.));
#777=DIRECTION('',(-1.,0.,0.));
#778=DIRECTION('',(0.,-1.,0.));
#779=DIRECTION('',(-1.,0.,0.));
#780=DIRECTION('',(0.,1.,0.));
#781=DIRECTION('',(-1.,0.,0.));
#782=DIRECTION('',(0.,-1.,0.));
#783=DIRECTION('',(1.,0.,0.));
#784=DIRECTION('',(0.,1.,0.));
#785=DIRECTION('',(1.,0.,0.));
#786=DIRECTION('',(0.,-1.,0.));
#787=DIRECTION('',(0.,0.,1.));
#788=DIRECTION('',(0.,1.,0.));
#789=DIRECTION('',(0.,1.,0.));
#790=DIRECTION('',(0.,1.,0.));
#791=DIRECTION('',(0.,1.,0.));
#792=DIRECTION('',(0.,0.,1.));
#793=DIRECTION('',(0.,0.,-1.));
#794=DIRECTION('',(-1.,0.,0.));
#795=DIRECTION('',(-0.898473867352771,0.439027003365574,3.34413710753113E-18));
#796=DIRECTION('',(-0.89847386735277,0.439027003365576,-1.93365440728618E-17));
#797=DIRECTION('',(0.89847386735277,0.439027003365576,1.13777041285981E-17));
#798=DIRECTION('',(0.,-1.,0.));
#799=DIRECTION('',(0.898473867352769,0.439027003365578,-6.43448628302125E-17));
#800=DIRECTION('',(0.,-1.,0.));
#801=DIRECTION('',(1.,0.,0.));
#802=DIRECTION('',(0.,0.,1.));
#803=DIRECTION('',(0.,1.,0.));
#804=DIRECTION('',(0.,-1.,0.));
#805=DIRECTION('',(0.,0.,1.));
#806=DIRECTION('',(1.,0.,0.));
#807=CARTESIAN_POINT('',(0.,0.,0.));
#808=CARTESIAN_POINT('',(87.,3.,50.1));
#809=CARTESIAN_POINT('',(19.5,-1.12500000000001,0.));
#810=CARTESIAN_POINT('',(75.9,33.8,0.));
#811=CARTESIAN_POINT('',(76.95,36.,0.));
#812=CARTESIAN_POINT('',(67.05,36.,0.));
#813=CARTESIAN_POINT('',(19.5,-1.12500000000001,3.));
#814=CARTESIAN_POINT('',(45.9,33.8,0.));
#815=CARTESIAN_POINT('',(46.95,36.,0.));
#816=CARTESIAN_POINT('',(37.05,36.,0.));
#817=CARTESIAN_POINT('',(30.,17.,0.));
#818=CARTESIAN_POINT('',(84.,6.,0.));
#819=CARTESIAN_POINT('',(84.,17.,0.));
#820=CARTESIAN_POINT('',(83.,17.,0.));
#821=CARTESIAN_POINT('',(83.,20.,0.));
#822=CARTESIAN_POINT('',(84.,20.,0.));
#823=CARTESIAN_POINT('',(84.,31.,0.));
#824=CARTESIAN_POINT('',(30.,31.,0.));
#825=CARTESIAN_POINT('',(30.,20.,0.));
#826=CARTESIAN_POINT('',(31.,20.,0.));
#827=CARTESIAN_POINT('',(31.,17.,0.));
#828=CARTESIAN_POINT('',(87.,33.8,49.9));
#829=CARTESIAN_POINT('',(38.1,33.8,0.));
#830=CARTESIAN_POINT('',(87.,33.8,0.));
#831=CARTESIAN_POINT('',(68.1,33.8,0.));
#832=CARTESIAN_POINT('',(87.,33.8,55.));
#833=CARTESIAN_POINT('',(87.,33.8,49.9));
#834=CARTESIAN_POINT('',(87.,3.,50.1));
#835=CARTESIAN_POINT('',(27.,33.8,0.));
#836=CARTESIAN_POINT('',(47.2427050983125,5.20000000000001,0.));
#837=CARTESIAN_POINT('',(77.2427050983125,5.20000000000001,0.));
#838=CARTESIAN_POINT('',(37.8322949016875,3.,0.));
#839=CARTESIAN_POINT('',(36.7572949016875,5.20000000000001,0.));
#840=CARTESIAN_POINT('',(67.8322949016875,3.,0.));
#841=CARTESIAN_POINT('',(66.7572949016875,5.20000000000001,0.));
#842=CARTESIAN_POINT('',(87.,3.,0.));
#843=CARTESIAN_POINT('',(93.,3.,55.));
#844=CARTESIAN_POINT('',(27.,6.,55.));
#845=CARTESIAN_POINT('',(27.,2.99999999999999,-3.5527136788005E-15));
#846=CARTESIAN_POINT('',(27.,3.,55.));
#847=CARTESIAN_POINT('',(87.,3.,55.));
#848=CARTESIAN_POINT('',(45.9,33.8,0.));
#849=CARTESIAN_POINT('',(46.95,36.,0.));
#850=CARTESIAN_POINT('',(37.05,36.,0.));
#851=CARTESIAN_POINT('',(38.1,33.8,0.));
#852=CARTESIAN_POINT('',(27.,33.8,0.));
#853=CARTESIAN_POINT('',(27.,3.,0.));
#854=CARTESIAN_POINT('',(37.8322949016875,3.,0.));
#855=CARTESIAN_POINT('',(36.7572949016875,5.20000000000001,0.));
#856=CARTESIAN_POINT('',(47.2427050983125,5.20000000000001,0.));
#857=CARTESIAN_POINT('',(46.1677050983125,2.99999999999999,0.));
#858=CARTESIAN_POINT('',(67.8322949016875,3.,0.));
#859=CARTESIAN_POINT('',(66.7572949016875,5.20000000000001,0.));
#860=CARTESIAN_POINT('',(77.2427050983125,5.20000000000001,0.));
#861=CARTESIAN_POINT('',(76.1677050983125,3.,0.));
#862=CARTESIAN_POINT('',(87.,3.,0.));
#863=CARTESIAN_POINT('',(87.,33.8,0.));
#864=CARTESIAN_POINT('',(75.9,33.8,0.));
#865=CARTESIAN_POINT('',(76.95,36.,0.));
#866=CARTESIAN_POINT('',(67.05,36.,0.));
#867=CARTESIAN_POINT('',(68.1,33.8,0.));
#868=CARTESIAN_POINT('',(38.1,33.8,55.));
#869=CARTESIAN_POINT('',(27.,33.8,55.));
#870=CARTESIAN_POINT('',(87.,33.8,55.));
#871=CARTESIAN_POINT('',(75.9,33.8,55.));
#872=CARTESIAN_POINT('',(30.,17.,55.));
#873=CARTESIAN_POINT('',(84.,17.,55.));
#874=CARTESIAN_POINT('',(83.,17.,55.));
#875=CARTESIAN_POINT('',(83.,20.,55.));
#876=CARTESIAN_POINT('',(84.,20.,55.));
#877=CARTESIAN_POINT('',(84.,31.,55.));
#878=CARTESIAN_POINT('',(30.,31.,55.));
#879=CARTESIAN_POINT('',(30.,20.,55.));
#880=CARTESIAN_POINT('',(31.,20.,55.));
#881=CARTESIAN_POINT('',(31.,17.,55.));
#882=CARTESIAN_POINT('',(30.,6.,3.));
#883=CARTESIAN_POINT('',(30.,17.,3.));
#884=CARTESIAN_POINT('',(84.,6.,3.));
#885=CARTESIAN_POINT('',(84.,17.,3.));
#886=CARTESIAN_POINT('',(83.,17.,3.));
#887=CARTESIAN_POINT('',(83.,20.,3.));
#888=CARTESIAN_POINT('',(84.,20.,3.));
#889=CARTESIAN_POINT('',(84.,31.,3.));
#890=CARTESIAN_POINT('',(30.,31.,3.));
#891=CARTESIAN_POINT('',(30.,20.,3.));
#892=CARTESIAN_POINT('',(31.,20.,3.));
#893=CARTESIAN_POINT('',(31.,17.,3.));
#894=CARTESIAN_POINT('',(38.1,33.8,49.9));
#895=CARTESIAN_POINT('',(75.9,33.8,49.9));
#896=CARTESIAN_POINT('',(76.95,36.,49.9));
#897=CARTESIAN_POINT('',(67.05,36.,49.9));
#898=CARTESIAN_POINT('',(68.1,33.8,49.9));
#899=CARTESIAN_POINT('',(45.9,33.8,49.9));
#900=CARTESIAN_POINT('',(46.95,36.,49.9));
#901=CARTESIAN_POINT('',(37.05,36.,49.9));
#902=CARTESIAN_POINT('',(30.,6.,55.));
#903=CARTESIAN_POINT('',(84.,6.,55.));
#904=CARTESIAN_POINT('',(46.1677050983125,2.99999999999999,50.1));
#905=CARTESIAN_POINT('',(67.8322949016875,3.,50.1));
#906=CARTESIAN_POINT('',(76.1677050983125,3.,50.1));
#907=CARTESIAN_POINT('',(37.8322949016875,3.,50.1));
#908=CARTESIAN_POINT('',(47.2427050983125,5.20000000000001,50.1));
#909=CARTESIAN_POINT('',(77.2427050983125,5.20000000000001,50.1));
#910=CARTESIAN_POINT('',(36.7572949016875,5.20000000000001,50.1));
#911=CARTESIAN_POINT('',(66.7572949016875,5.20000000000001,50.1));
#912=CARTESIAN_POINT('',(45.9,33.8,0.));
#913=CARTESIAN_POINT('',(46.95,36.,0.));
#914=CARTESIAN_POINT('',(46.95,36.,0.));
#915=CARTESIAN_POINT('',(37.05,36.,0.));
#916=CARTESIAN_POINT('',(37.05,36.,0.));
#917=CARTESIAN_POINT('',(38.1,33.8,0.));
#918=CARTESIAN_POINT('',(38.1,33.8,0.));
#919=CARTESIAN_POINT('',(27.,33.8,0.));
#920=CARTESIAN_POINT('',(27.,33.8,0.));
#921=CARTESIAN_POINT('',(27.,3.,0.));
#922=CARTESIAN_POINT('',(27.,3.,0.));
#923=CARTESIAN_POINT('',(37.8322949016875,3.,0.));
#924=CARTESIAN_POINT('',(37.8322949016875,3.,0.));
#925=CARTESIAN_POINT('',(36.7572949016875,5.20000000000001,0.));
#926=CARTESIAN_POINT('',(36.7572949016875,5.20000000000001,0.));
#927=CARTESIAN_POINT('',(47.2427050983125,5.20000000000001,0.));
#928=CARTESIAN_POINT('',(47.2427050983125,5.20000000000001,0.));
#929=CARTESIAN_POINT('',(46.1677050983125,2.99999999999999,0.));
#930=CARTESIAN_POINT('',(46.1677050983125,2.99999999999999,0.));
#931=CARTESIAN_POINT('',(67.8322949016875,3.,0.));
#932=CARTESIAN_POINT('',(67.8322949016875,3.,0.));
#933=CARTESIAN_POINT('',(66.7572949016875,5.20000000000001,0.));
#934=CARTESIAN_POINT('',(66.7572949016875,5.20000000000001,0.));
#935=CARTESIAN_POINT('',(77.2427050983125,5.20000000000001,0.));
#936=CARTESIAN_POINT('',(77.2427050983125,5.20000000000001,0.));
#937=CARTESIAN_POINT('',(76.1677050983125,3.,0.));
#938=CARTESIAN_POINT('',(76.1677050983125,3.,0.));
#939=CARTESIAN_POINT('',(87.,3.,0.));
#940=CARTESIAN_POINT('',(87.,3.,0.));
#941=CARTESIAN_POINT('',(87.,33.8,0.));
#942=CARTESIAN_POINT('',(87.,33.8,0.));
#943=CARTESIAN_POINT('',(75.9,33.8,0.));
#944=CARTESIAN_POINT('',(75.9,33.8,0.));
#945=CARTESIAN_POINT('',(76.95,36.,0.));
#946=CARTESIAN_POINT('',(76.95,36.,0.));
#947=CARTESIAN_POINT('',(67.05,36.,0.));
#948=CARTESIAN_POINT('',(67.05,36.,0.));
#949=CARTESIAN_POINT('',(68.1,33.8,0.));
#950=CARTESIAN_POINT('',(68.1,33.8,0.));
#951=CARTESIAN_POINT('',(45.9,33.8,0.));
#952=CARTESIAN_POINT('',(38.1,33.8,55.));
#953=CARTESIAN_POINT('',(27.,33.8,55.));
#954=CARTESIAN_POINT('',(87.,33.8,55.));
#955=CARTESIAN_POINT('',(75.9,33.8,55.));
#956=CARTESIAN_POINT('',(30.,17.,55.));
#957=CARTESIAN_POINT('',(30.,6.,55.));
#958=CARTESIAN_POINT('',(84.,6.,55.));
#959=CARTESIAN_POINT('',(84.,17.,55.));
#960=CARTESIAN_POINT('',(84.,17.,55.));
#961=CARTESIAN_POINT('',(83.,17.,55.));
#962=CARTESIAN_POINT('',(83.,17.,55.));
#963=CARTESIAN_POINT('',(83.,20.,55.));
#964=CARTESIAN_POINT('',(83.,20.,55.));
#965=CARTESIAN_POINT('',(84.,20.,55.));
#966=CARTESIAN_POINT('',(84.,20.,55.));
#967=CARTESIAN_POINT('',(84.,31.,55.));
#968=CARTESIAN_POINT('',(84.,31.,55.));
#969=CARTESIAN_POINT('',(30.,31.,55.));
#970=CARTESIAN_POINT('',(30.,31.,55.));
#971=CARTESIAN_POINT('',(30.,20.,55.));
#972=CARTESIAN_POINT('',(30.,20.,55.));
#973=CARTESIAN_POINT('',(31.,20.,55.));
#974=CARTESIAN_POINT('',(31.,20.,55.));
#975=CARTESIAN_POINT('',(31.,17.,55.));
#976=CARTESIAN_POINT('',(31.,17.,55.));
#977=CARTESIAN_POINT('',(30.,17.,55.));
#978=CARTESIAN_POINT('',(30.,6.,3.));
#979=CARTESIAN_POINT('',(30.,17.,3.));
#980=CARTESIAN_POINT('',(84.,6.,3.));
#981=CARTESIAN_POINT('',(30.,6.,3.));
#982=CARTESIAN_POINT('',(84.,17.,3.));
#983=CARTESIAN_POINT('',(84.,6.,3.));
#984=CARTESIAN_POINT('',(83.,17.,3.));
#985=CARTESIAN_POINT('',(84.,17.,3.));
#986=CARTESIAN_POINT('',(83.,20.,3.));
#987=CARTESIAN_POINT('',(83.,17.,3.));
#988=CARTESIAN_POINT('',(84.,20.,3.));
#989=CARTESIAN_POINT('',(83.,20.,3.));
#990=CARTESIAN_POINT('',(84.,31.,3.));
#991=CARTESIAN_POINT('',(84.,20.,3.));
#992=CARTESIAN_POINT('',(30.,31.,3.));
#993=CARTESIAN_POINT('',(84.,31.,3.));
#994=CARTESIAN_POINT('',(30.,20.,3.));
#995=CARTESIAN_POINT('',(30.,31.,3.));
#996=CARTESIAN_POINT('',(31.,20.,3.));
#997=CARTESIAN_POINT('',(30.,20.,3.));
#998=CARTESIAN_POINT('',(31.,17.,3.));
#999=CARTESIAN_POINT('',(31.,20.,3.));
#1000=CARTESIAN_POINT('',(30.,17.,3.));
#1001=CARTESIAN_POINT('',(31.,17.,3.));
#1002=CARTESIAN_POINT('',(30.,17.,3.));
#1003=CARTESIAN_POINT('',(30.,17.,55.));
#1004=CARTESIAN_POINT('',(84.,17.,3.));
#1005=CARTESIAN_POINT('',(84.,17.,55.));
#1006=CARTESIAN_POINT('',(83.,17.,3.));
#1007=CARTESIAN_POINT('',(83.,17.,55.));
#1008=CARTESIAN_POINT('',(83.,20.,3.));
#1009=CARTESIAN_POINT('',(83.,20.,55.));
#1010=CARTESIAN_POINT('',(84.,20.,3.));
#1011=CARTESIAN_POINT('',(84.,20.,55.));
#1012=CARTESIAN_POINT('',(84.,31.,3.));
#1013=CARTESIAN_POINT('',(84.,31.,55.));
#1014=CARTESIAN_POINT('',(30.,31.,3.));
#1015=CARTESIAN_POINT('',(30.,31.,55.));
#1016=CARTESIAN_POINT('',(30.,20.,3.));
#1017=CARTESIAN_POINT('',(30.,20.,55.));
#1018=CARTESIAN_POINT('',(31.,20.,3.));
#1019=CARTESIAN_POINT('',(31.,20.,55.));
#1020=CARTESIAN_POINT('',(31.,17.,3.));
#1021=CARTESIAN_POINT('',(31.,17.,55.));
#1022=CARTESIAN_POINT('',(46.95,36.,0.));
#1023=CARTESIAN_POINT('',(46.95,36.,3.));
#1024=CARTESIAN_POINT('',(46.95,36.,49.9));
#1025=CARTESIAN_POINT('',(45.9,33.8,0.));
#1026=CARTESIAN_POINT('',(45.9,33.8,3.));
#1027=CARTESIAN_POINT('',(45.9,33.8,49.9));
#1028=CARTESIAN_POINT('',(37.05,36.,0.));
#1029=CARTESIAN_POINT('',(37.05,36.,3.));
#1030=CARTESIAN_POINT('',(37.05,36.,49.9));
#1031=CARTESIAN_POINT('',(38.1,33.8,0.));
#1032=CARTESIAN_POINT('',(38.1,33.8,3.));
#1033=CARTESIAN_POINT('',(38.1,33.8,49.9));
#1034=CARTESIAN_POINT('',(37.8322949016875,3.,0.));
#1035=CARTESIAN_POINT('',(37.8322949016875,3.,3.));
#1036=CARTESIAN_POINT('',(37.8322949016875,3.,50.1));
#1037=CARTESIAN_POINT('',(36.7572949016875,5.20000000000001,0.));
#1038=CARTESIAN_POINT('',(36.7572949016875,5.20000000000001,3.));
#1039=CARTESIAN_POINT('',(36.7572949016875,5.20000000000001,50.1));
#1040=CARTESIAN_POINT('',(47.2427050983125,5.20000000000001,0.));
#1041=CARTESIAN_POINT('',(47.2427050983125,5.20000000000001,3.));
#1042=CARTESIAN_POINT('',(47.2427050983125,5.20000000000001,50.1));
#1043=CARTESIAN_POINT('',(46.1677050983125,2.99999999999999,0.));
#1044=CARTESIAN_POINT('',(46.1677050983125,2.99999999999999,3.));
#1045=CARTESIAN_POINT('',(46.1677050983125,2.99999999999999,50.1));
#1046=CARTESIAN_POINT('',(67.8322949016875,3.,0.));
#1047=CARTESIAN_POINT('',(67.8322949016875,3.,3.));
#1048=CARTESIAN_POINT('',(67.8322949016875,3.,50.1));
#1049=CARTESIAN_POINT('',(66.7572949016875,5.20000000000001,0.));
#1050=CARTESIAN_POINT('',(66.7572949016875,5.20000000000001,3.));
#1051=CARTESIAN_POINT('',(66.7572949016875,5.20000000000001,50.1));
#1052=CARTESIAN_POINT('',(77.2427050983125,5.20000000000001,0.));
#1053=CARTESIAN_POINT('',(77.2427050983125,5.20000000000001,3.));
#1054=CARTESIAN_POINT('',(77.2427050983125,5.20000000000001,50.1));
#1055=CARTESIAN_POINT('',(76.1677050983125,3.,0.));
#1056=CARTESIAN_POINT('',(76.1677050983125,3.,3.));
#1057=CARTESIAN_POINT('',(76.1677050983125,3.,50.1));
#1058=CARTESIAN_POINT('',(75.9,33.8,0.));
#1059=CARTESIAN_POINT('',(75.9,33.8,3.));
#1060=CARTESIAN_POINT('',(75.9,33.8,49.9));
#1061=CARTESIAN_POINT('',(76.95,36.,0.));
#1062=CARTESIAN_POINT('',(76.95,36.,3.));
#1063=CARTESIAN_POINT('',(76.95,36.,49.9));
#1064=CARTESIAN_POINT('',(67.05,36.,0.));
#1065=CARTESIAN_POINT('',(67.05,36.,3.));
#1066=CARTESIAN_POINT('',(67.05,36.,49.9));
#1067=CARTESIAN_POINT('',(68.1,33.8,0.));
#1068=CARTESIAN_POINT('',(68.1,33.8,3.));
#1069=CARTESIAN_POINT('',(68.1,33.8,49.9));
#1070=CARTESIAN_POINT('',(76.95,36.,49.9));
#1071=CARTESIAN_POINT('',(75.9,33.8,49.9));
#1072=CARTESIAN_POINT('',(67.05,36.,49.9));
#1073=CARTESIAN_POINT('',(76.95,36.,49.9));
#1074=CARTESIAN_POINT('',(68.1,33.8,49.9));
#1075=CARTESIAN_POINT('',(67.05,36.,49.9));
#1076=CARTESIAN_POINT('',(46.95,36.,49.9));
#1077=CARTESIAN_POINT('',(45.9,33.8,49.9));
#1078=CARTESIAN_POINT('',(37.05,36.,49.9));
#1079=CARTESIAN_POINT('',(46.95,36.,49.9));
#1080=CARTESIAN_POINT('',(38.1,33.8,49.9));
#1081=CARTESIAN_POINT('',(37.05,36.,49.9));
#1082=CARTESIAN_POINT('',(68.1,33.8,49.9));
#1083=CARTESIAN_POINT('',(45.9,33.8,49.9));
#1084=CARTESIAN_POINT('',(38.1,33.8,49.9));
#1085=CARTESIAN_POINT('',(38.1,33.8,55.));
#1086=CARTESIAN_POINT('',(75.9,33.8,49.9));
#1087=CARTESIAN_POINT('',(75.9,33.8,55.));
#1088=CARTESIAN_POINT('',(45.9,33.8,49.9));
#1089=CARTESIAN_POINT('',(38.1,33.8,49.9));
#1090=CARTESIAN_POINT('',(75.9,33.8,49.9));
#1091=CARTESIAN_POINT('',(68.1,33.8,49.9));
#1092=CARTESIAN_POINT('',(75.9,33.8,55.));
#1093=CARTESIAN_POINT('',(68.1,33.8,55.));
#1094=CARTESIAN_POINT('',(45.9,33.8,55.));
#1095=CARTESIAN_POINT('',(38.1,33.8,55.));
#1096=CARTESIAN_POINT('',(27.,33.8,0.));
#1097=CARTESIAN_POINT('',(27.,33.8,3.));
#1098=CARTESIAN_POINT('',(27.,33.8,49.9));
#1099=CARTESIAN_POINT('',(27.,33.8,55.));
#1100=CARTESIAN_POINT('',(87.,33.8,0.));
#1101=CARTESIAN_POINT('',(87.,33.8,3.));
#1102=CARTESIAN_POINT('',(87.,33.8,49.9));
#1103=CARTESIAN_POINT('',(87.,33.8,55.));
#1104=CARTESIAN_POINT('',(47.2427050983125,5.20000000000001,50.1));
#1105=CARTESIAN_POINT('',(46.1677050983125,2.99999999999999,50.1));
#1106=CARTESIAN_POINT('',(77.2427050983125,5.20000000000001,50.1));
#1107=CARTESIAN_POINT('',(76.1677050983125,3.,50.1));
#1108=CARTESIAN_POINT('',(37.8322949016875,3.,50.1));
#1109=CARTESIAN_POINT('',(36.7572949016875,5.20000000000001,50.1));
#1110=CARTESIAN_POINT('',(36.7572949016875,5.20000000000001,50.1));
#1111=CARTESIAN_POINT('',(47.2427050983125,5.20000000000001,50.1));
#1112=CARTESIAN_POINT('',(67.8322949016875,3.,50.1));
#1113=CARTESIAN_POINT('',(66.7572949016875,5.20000000000001,50.1));
#1114=CARTESIAN_POINT('',(66.7572949016875,5.20000000000001,50.1));
#1115=CARTESIAN_POINT('',(77.2427050983125,5.20000000000001,50.1));
#1116=CARTESIAN_POINT('',(30.,6.,55.));
#1117=CARTESIAN_POINT('',(84.,6.,55.));
#1118=CARTESIAN_POINT('',(46.1677050983125,2.99999999999999,50.1));
#1119=CARTESIAN_POINT('',(37.8322949016875,3.,50.1));
#1120=CARTESIAN_POINT('',(76.1677050983125,3.,50.1));
#1121=CARTESIAN_POINT('',(67.8322949016875,3.,50.1));
#1122=CARTESIAN_POINT('',(27.,3.,55.));
#1123=CARTESIAN_POINT('',(37.8322949016875,3.,55.));
#1124=CARTESIAN_POINT('',(46.1677050983125,2.99999999999999,55.));
#1125=CARTESIAN_POINT('',(67.8322949016875,3.,55.));
#1126=CARTESIAN_POINT('',(76.1677050983125,3.,55.));
#1127=CARTESIAN_POINT('',(87.,3.,55.));
#1128=CARTESIAN_POINT('',(27.,33.8,55.));
#1129=CARTESIAN_POINT('',(27.,3.,55.));
#1130=CARTESIAN_POINT('',(87.,3.,55.));
#1131=CARTESIAN_POINT('',(87.,33.8,55.));
#1132=CARTESIAN_POINT('',(87.,3.,0.));
#1133=CARTESIAN_POINT('',(87.,3.,55.));
#1134=CARTESIAN_POINT('',(30.,6.,3.));
#1135=CARTESIAN_POINT('',(30.,6.,55.));
#1136=CARTESIAN_POINT('',(84.,6.,3.));
#1137=CARTESIAN_POINT('',(84.,6.,55.));
#1138=CARTESIAN_POINT('',(27.,3.,0.));
#1139=CARTESIAN_POINT('',(27.,3.,55.));
#1140=CARTESIAN_POINT('',(0.,0.,0.));
ENDSEC;
END-ISO-10303-21;
