ISO-10303-21;
HEADER;
/* Generated by software containing ST-Developer
 * from STEP Tools, Inc. (www.steptools.com) 
 */
/* OPTION: using custom schema-name function */

FILE_DESCRIPTION(
/* description */ (''),
/* implementation_level */ '2;1');

FILE_NAME(
/* name */ 'lego_charm_lamp_v3',
/* time_stamp */ '2026-09-05T15:23:47+03:00',
/* author */ (''),
/* organization */ (''),
/* preprocessor_version */ 'ST-DEVELOPER v19.2',
/* originating_system */ 'Rhino 8.34',
/* authorisation */ '');

FILE_SCHEMA (('CONFIG_CONTROL_DESIGN'));
ENDSEC;

DATA;
#10=SHAPE_REPRESENTATION_RELATIONSHIP('','',#598,#12);
#11=MANIFOLD_SOLID_BREP('brep_1',#13);
#12=ADVANCED_BREP_SHAPE_REPRESENTATION('brep_rep_0',(#11,#662),#597);
#13=CLOSED_SHELL('',(#14,#15,#16,#17,#18,#19,#20,#21,#22,#23,#24,#25,#26,
#27,#28,#29,#30,#31,#32,#33,#34,#35,#36,#37,#38,#39,#40,#41,#42,#43,#44,
#45));
#14=ADVANCED_FACE('',(#46),#508,.T.);
#15=ADVANCED_FACE('',(#47),#509,.T.);
#16=ADVANCED_FACE('',(#48),#496,.T.);
#17=ADVANCED_FACE('',(#49),#480,.T.);
#18=ADVANCED_FACE('',(#50),#481,.T.);
#19=ADVANCED_FACE('',(#51),#497,.T.);
#20=ADVANCED_FACE('',(#52),#482,.T.);
#21=ADVANCED_FACE('',(#53),#498,.T.);
#22=ADVANCED_FACE('',(#54),#483,.T.);
#23=ADVANCED_FACE('',(#55),#484,.T.);
#24=ADVANCED_FACE('',(#56),#485,.T.);
#25=ADVANCED_FACE('',(#57),#486,.T.);
#26=ADVANCED_FACE('',(#58),#487,.T.);
#27=ADVANCED_FACE('',(#59),#499,.F.);
#28=ADVANCED_FACE('',(#60),#500,.F.);
#29=ADVANCED_FACE('',(#61),#501,.F.);
#30=ADVANCED_FACE('',(#62),#510,.T.);
#31=ADVANCED_FACE('',(#63),#511,.T.);
#32=ADVANCED_FACE('',(#64),#502,.T.);
#33=ADVANCED_FACE('',(#65),#488,.T.);
#34=ADVANCED_FACE('',(#66),#489,.T.);
#35=ADVANCED_FACE('',(#67),#503,.T.);
#36=ADVANCED_FACE('',(#68),#490,.T.);
#37=ADVANCED_FACE('',(#69),#504,.T.);
#38=ADVANCED_FACE('',(#70),#491,.T.);
#39=ADVANCED_FACE('',(#71),#492,.T.);
#40=ADVANCED_FACE('',(#72),#493,.T.);
#41=ADVANCED_FACE('',(#73),#494,.T.);
#42=ADVANCED_FACE('',(#74),#495,.T.);
#43=ADVANCED_FACE('',(#75),#505,.F.);
#44=ADVANCED_FACE('',(#76),#506,.F.);
#45=ADVANCED_FACE('',(#77),#507,.F.);
#46=FACE_OUTER_BOUND('',#78,.T.);
#47=FACE_OUTER_BOUND('',#79,.T.);
#48=FACE_OUTER_BOUND('',#80,.T.);
#49=FACE_OUTER_BOUND('',#81,.T.);
#50=FACE_OUTER_BOUND('',#82,.T.);
#51=FACE_OUTER_BOUND('',#83,.T.);
#52=FACE_OUTER_BOUND('',#84,.T.);
#53=FACE_OUTER_BOUND('',#85,.T.);
#54=FACE_OUTER_BOUND('',#86,.T.);
#55=FACE_OUTER_BOUND('',#87,.T.);
#56=FACE_OUTER_BOUND('',#88,.T.);
#57=FACE_OUTER_BOUND('',#89,.T.);
#58=FACE_OUTER_BOUND('',#90,.T.);
#59=FACE_OUTER_BOUND('',#91,.T.);
#60=FACE_OUTER_BOUND('',#92,.T.);
#61=FACE_OUTER_BOUND('',#93,.T.);
#62=FACE_OUTER_BOUND('',#94,.T.);
#63=FACE_OUTER_BOUND('',#95,.T.);
#64=FACE_OUTER_BOUND('',#96,.T.);
#65=FACE_OUTER_BOUND('',#97,.T.);
#66=FACE_OUTER_BOUND('',#98,.T.);
#67=FACE_OUTER_BOUND('',#99,.T.);
#68=FACE_OUTER_BOUND('',#100,.T.);
#69=FACE_OUTER_BOUND('',#101,.T.);
#70=FACE_OUTER_BOUND('',#102,.T.);
#71=FACE_OUTER_BOUND('',#103,.T.);
#72=FACE_OUTER_BOUND('',#104,.T.);
#73=FACE_OUTER_BOUND('',#105,.T.);
#74=FACE_OUTER_BOUND('',#106,.T.);
#75=FACE_OUTER_BOUND('',#107,.T.);
#76=FACE_OUTER_BOUND('',#108,.T.);
#77=FACE_OUTER_BOUND('',#109,.T.);
#78=EDGE_LOOP('',(#110,#111,#112,#113,#114,#115,#116,#117));
#79=EDGE_LOOP('',(#118,#119,#120,#121,#122,#123,#124,#125));
#80=EDGE_LOOP('',(#126,#127,#128,#129));
#81=EDGE_LOOP('',(#130,#131,#132,#133));
#82=EDGE_LOOP('',(#134,#135,#136,#137));
#83=EDGE_LOOP('',(#138,#139,#140,#141));
#84=EDGE_LOOP('',(#142,#143,#144,#145));
#85=EDGE_LOOP('',(#146,#147,#148,#149));
#86=EDGE_LOOP('',(#150,#151,#152,#153));
#87=EDGE_LOOP('',(#154,#155,#156,#157));
#88=EDGE_LOOP('',(#158,#159,#160,#161));
#89=EDGE_LOOP('',(#162,#163,#164,#165));
#90=EDGE_LOOP('',(#166,#167,#168,#169));
#91=EDGE_LOOP('',(#170,#171,#172,#173));
#92=EDGE_LOOP('',(#174,#175,#176,#177));
#93=EDGE_LOOP('',(#178,#179,#180,#181));
#94=EDGE_LOOP('',(#182,#183,#184,#185,#186,#187,#188,#189));
#95=EDGE_LOOP('',(#190,#191,#192,#193,#194,#195,#196,#197));
#96=EDGE_LOOP('',(#198,#199,#200,#201));
#97=EDGE_LOOP('',(#202,#203,#204,#205));
#98=EDGE_LOOP('',(#206,#207,#208,#209));
#99=EDGE_LOOP('',(#210,#211,#212,#213));
#100=EDGE_LOOP('',(#214,#215,#216,#217));
#101=EDGE_LOOP('',(#218,#219,#220,#221));
#102=EDGE_LOOP('',(#222,#223,#224,#225));
#103=EDGE_LOOP('',(#226,#227,#228,#229));
#104=EDGE_LOOP('',(#230,#231,#232,#233));
#105=EDGE_LOOP('',(#234,#235,#236,#237));
#106=EDGE_LOOP('',(#238,#239,#240,#241));
#107=EDGE_LOOP('',(#242,#243,#244,#245));
#108=EDGE_LOOP('',(#246,#247,#248,#249));
#109=EDGE_LOOP('',(#250,#251,#252,#253));
#110=ORIENTED_EDGE('',*,*,#267,.F.);
#111=ORIENTED_EDGE('',*,*,#254,.T.);
#112=ORIENTED_EDGE('',*,*,#282,.F.);
#113=ORIENTED_EDGE('',*,*,#286,.T.);
#114=ORIENTED_EDGE('',*,*,#295,.F.);
#115=ORIENTED_EDGE('',*,*,#293,.F.);
#116=ORIENTED_EDGE('',*,*,#289,.F.);
#117=ORIENTED_EDGE('',*,*,#292,.F.);
#118=ORIENTED_EDGE('',*,*,#279,.F.);
#119=ORIENTED_EDGE('',*,*,#280,.T.);
#120=ORIENTED_EDGE('',*,*,#285,.F.);
#121=ORIENTED_EDGE('',*,*,#287,.T.);
#122=ORIENTED_EDGE('',*,*,#261,.T.);
#123=ORIENTED_EDGE('',*,*,#298,.F.);
#124=ORIENTED_EDGE('',*,*,#301,.F.);
#125=ORIENTED_EDGE('',*,*,#297,.F.);
#126=ORIENTED_EDGE('',*,*,#261,.F.);
#127=ORIENTED_EDGE('',*,*,#260,.T.);
#128=ORIENTED_EDGE('',*,*,#303,.F.);
#129=ORIENTED_EDGE('',*,*,#302,.F.);
#130=ORIENTED_EDGE('',*,*,#305,.T.);
#131=ORIENTED_EDGE('',*,*,#259,.T.);
#132=ORIENTED_EDGE('',*,*,#270,.T.);
#133=ORIENTED_EDGE('',*,*,#304,.F.);
#134=ORIENTED_EDGE('',*,*,#263,.F.);
#135=ORIENTED_EDGE('',*,*,#258,.T.);
#136=ORIENTED_EDGE('',*,*,#264,.T.);
#137=ORIENTED_EDGE('',*,*,#307,.F.);
#138=ORIENTED_EDGE('',*,*,#272,.F.);
#139=ORIENTED_EDGE('',*,*,#257,.T.);
#140=ORIENTED_EDGE('',*,*,#274,.T.);
#141=ORIENTED_EDGE('',*,*,#310,.F.);
#142=ORIENTED_EDGE('',*,*,#265,.F.);
#143=ORIENTED_EDGE('',*,*,#256,.T.);
#144=ORIENTED_EDGE('',*,*,#315,.F.);
#145=ORIENTED_EDGE('',*,*,#313,.F.);
#146=ORIENTED_EDGE('',*,*,#317,.T.);
#147=ORIENTED_EDGE('',*,*,#255,.T.);
#148=ORIENTED_EDGE('',*,*,#267,.T.);
#149=ORIENTED_EDGE('',*,*,#316,.F.);
#150=ORIENTED_EDGE('',*,*,#268,.F.);
#151=ORIENTED_EDGE('',*,*,#269,.T.);
#152=ORIENTED_EDGE('',*,*,#262,.T.);
#153=ORIENTED_EDGE('',*,*,#318,.F.);
#154=ORIENTED_EDGE('',*,*,#319,.T.);
#155=ORIENTED_EDGE('',*,*,#270,.F.);
#156=ORIENTED_EDGE('',*,*,#271,.F.);
#157=ORIENTED_EDGE('',*,*,#263,.T.);
#158=ORIENTED_EDGE('',*,*,#320,.T.);
#159=ORIENTED_EDGE('',*,*,#264,.F.);
#160=ORIENTED_EDGE('',*,*,#273,.F.);
#161=ORIENTED_EDGE('',*,*,#272,.T.);
#162=ORIENTED_EDGE('',*,*,#321,.T.);
#163=ORIENTED_EDGE('',*,*,#274,.F.);
#164=ORIENTED_EDGE('',*,*,#275,.F.);
#165=ORIENTED_EDGE('',*,*,#265,.T.);
#166=ORIENTED_EDGE('',*,*,#276,.F.);
#167=ORIENTED_EDGE('',*,*,#277,.T.);
#168=ORIENTED_EDGE('',*,*,#266,.T.);
#169=ORIENTED_EDGE('',*,*,#322,.F.);
#170=ORIENTED_EDGE('',*,*,#300,.T.);
#171=ORIENTED_EDGE('',*,*,#281,.T.);
#172=ORIENTED_EDGE('',*,*,#278,.T.);
#173=ORIENTED_EDGE('',*,*,#323,.F.);
#174=ORIENTED_EDGE('',*,*,#284,.T.);
#175=ORIENTED_EDGE('',*,*,#288,.T.);
#176=ORIENTED_EDGE('',*,*,#283,.T.);
#177=ORIENTED_EDGE('',*,*,#324,.F.);
#178=ORIENTED_EDGE('',*,*,#301,.T.);
#179=ORIENTED_EDGE('',*,*,#291,.T.);
#180=ORIENTED_EDGE('',*,*,#289,.T.);
#181=ORIENTED_EDGE('',*,*,#325,.F.);
#182=ORIENTED_EDGE('',*,*,#292,.T.);
#183=ORIENTED_EDGE('',*,*,#296,.F.);
#184=ORIENTED_EDGE('',*,*,#293,.T.);
#185=ORIENTED_EDGE('',*,*,#278,.F.);
#186=ORIENTED_EDGE('',*,*,#286,.F.);
#187=ORIENTED_EDGE('',*,*,#283,.F.);
#188=ORIENTED_EDGE('',*,*,#254,.F.);
#189=ORIENTED_EDGE('',*,*,#294,.F.);
#190=ORIENTED_EDGE('',*,*,#297,.T.);
#191=ORIENTED_EDGE('',*,*,#290,.F.);
#192=ORIENTED_EDGE('',*,*,#298,.T.);
#193=ORIENTED_EDGE('',*,*,#299,.T.);
#194=ORIENTED_EDGE('',*,*,#287,.F.);
#195=ORIENTED_EDGE('',*,*,#284,.F.);
#196=ORIENTED_EDGE('',*,*,#280,.F.);
#197=ORIENTED_EDGE('',*,*,#300,.F.);
#198=ORIENTED_EDGE('',*,*,#302,.T.);
#199=ORIENTED_EDGE('',*,*,#262,.F.);
#200=ORIENTED_EDGE('',*,*,#260,.F.);
#201=ORIENTED_EDGE('',*,*,#299,.F.);
#202=ORIENTED_EDGE('',*,*,#304,.T.);
#203=ORIENTED_EDGE('',*,*,#306,.T.);
#204=ORIENTED_EDGE('',*,*,#259,.F.);
#205=ORIENTED_EDGE('',*,*,#268,.T.);
#206=ORIENTED_EDGE('',*,*,#307,.T.);
#207=ORIENTED_EDGE('',*,*,#309,.T.);
#208=ORIENTED_EDGE('',*,*,#258,.F.);
#209=ORIENTED_EDGE('',*,*,#308,.F.);
#210=ORIENTED_EDGE('',*,*,#310,.T.);
#211=ORIENTED_EDGE('',*,*,#312,.T.);
#212=ORIENTED_EDGE('',*,*,#257,.F.);
#213=ORIENTED_EDGE('',*,*,#311,.F.);
#214=ORIENTED_EDGE('',*,*,#313,.T.);
#215=ORIENTED_EDGE('',*,*,#266,.F.);
#216=ORIENTED_EDGE('',*,*,#256,.F.);
#217=ORIENTED_EDGE('',*,*,#314,.F.);
#218=ORIENTED_EDGE('',*,*,#316,.T.);
#219=ORIENTED_EDGE('',*,*,#294,.T.);
#220=ORIENTED_EDGE('',*,*,#255,.F.);
#221=ORIENTED_EDGE('',*,*,#276,.T.);
#222=ORIENTED_EDGE('',*,*,#318,.T.);
#223=ORIENTED_EDGE('',*,*,#303,.T.);
#224=ORIENTED_EDGE('',*,*,#269,.F.);
#225=ORIENTED_EDGE('',*,*,#305,.F.);
#226=ORIENTED_EDGE('',*,*,#308,.T.);
#227=ORIENTED_EDGE('',*,*,#271,.T.);
#228=ORIENTED_EDGE('',*,*,#306,.F.);
#229=ORIENTED_EDGE('',*,*,#319,.F.);
#230=ORIENTED_EDGE('',*,*,#311,.T.);
#231=ORIENTED_EDGE('',*,*,#273,.T.);
#232=ORIENTED_EDGE('',*,*,#309,.F.);
#233=ORIENTED_EDGE('',*,*,#320,.F.);
#234=ORIENTED_EDGE('',*,*,#314,.T.);
#235=ORIENTED_EDGE('',*,*,#275,.T.);
#236=ORIENTED_EDGE('',*,*,#312,.F.);
#237=ORIENTED_EDGE('',*,*,#321,.F.);
#238=ORIENTED_EDGE('',*,*,#322,.T.);
#239=ORIENTED_EDGE('',*,*,#315,.T.);
#240=ORIENTED_EDGE('',*,*,#277,.F.);
#241=ORIENTED_EDGE('',*,*,#317,.F.);
#242=ORIENTED_EDGE('',*,*,#323,.T.);
#243=ORIENTED_EDGE('',*,*,#295,.T.);
#244=ORIENTED_EDGE('',*,*,#281,.F.);
#245=ORIENTED_EDGE('',*,*,#279,.T.);
#246=ORIENTED_EDGE('',*,*,#324,.T.);
#247=ORIENTED_EDGE('',*,*,#282,.T.);
#248=ORIENTED_EDGE('',*,*,#288,.F.);
#249=ORIENTED_EDGE('',*,*,#285,.T.);
#250=ORIENTED_EDGE('',*,*,#325,.T.);
#251=ORIENTED_EDGE('',*,*,#296,.T.);
#252=ORIENTED_EDGE('',*,*,#291,.F.);
#253=ORIENTED_EDGE('',*,*,#290,.T.);
#254=EDGE_CURVE('',#444,#459,#424,.T.);
#255=EDGE_CURVE('',#455,#444,#425,.T.);
#256=EDGE_CURVE('',#453,#454,#426,.T.);
#257=EDGE_CURVE('',#451,#452,#427,.T.);
#258=EDGE_CURVE('',#449,#450,#428,.T.);
#259=EDGE_CURVE('',#447,#448,#429,.T.);
#260=EDGE_CURVE('',#445,#446,#430,.T.);
#261=EDGE_CURVE('',#445,#469,#332,.T.);
#262=EDGE_CURVE('',#446,#470,#333,.T.);
#263=EDGE_CURVE('',#449,#473,#334,.T.);
#264=EDGE_CURVE('',#450,#474,#335,.T.);
#265=EDGE_CURVE('',#453,#477,#336,.T.);
#266=EDGE_CURVE('',#454,#478,#337,.T.);
#267=EDGE_CURVE('',#444,#464,#338,.T.);
#268=EDGE_CURVE('',#447,#471,#339,.T.);
#269=EDGE_CURVE('',#447,#446,#340,.T.);
#270=EDGE_CURVE('',#448,#472,#341,.T.);
#271=EDGE_CURVE('',#449,#448,#342,.T.);
#272=EDGE_CURVE('',#451,#475,#343,.T.);
#273=EDGE_CURVE('',#451,#450,#344,.T.);
#274=EDGE_CURVE('',#452,#476,#345,.T.);
#275=EDGE_CURVE('',#453,#452,#346,.T.);
#276=EDGE_CURVE('',#455,#479,#347,.T.);
#277=EDGE_CURVE('',#455,#454,#348,.T.);
#278=EDGE_CURVE('',#456,#466,#349,.T.);
#279=EDGE_CURVE('',#457,#467,#350,.T.);
#280=EDGE_CURVE('',#457,#460,#431,.T.);
#281=EDGE_CURVE('',#457,#456,#326,.T.);
#282=EDGE_CURVE('',#458,#459,#351,.T.);
#283=EDGE_CURVE('',#459,#458,#352,.T.);
#284=EDGE_CURVE('',#460,#461,#353,.T.);
#285=EDGE_CURVE('',#461,#460,#354,.T.);
#286=EDGE_CURVE('',#458,#456,#432,.T.);
#287=EDGE_CURVE('',#461,#445,#433,.T.);
#288=EDGE_CURVE('',#461,#459,#327,.T.);
#289=EDGE_CURVE('',#462,#465,#355,.T.);
#290=EDGE_CURVE('',#463,#468,#356,.T.);
#291=EDGE_CURVE('',#463,#462,#328,.T.);
#292=EDGE_CURVE('',#464,#462,#434,.T.);
#293=EDGE_CURVE('',#465,#466,#435,.T.);
#294=EDGE_CURVE('',#464,#444,#357,.T.);
#295=EDGE_CURVE('',#466,#456,#358,.T.);
#296=EDGE_CURVE('',#465,#462,#359,.T.);
#297=EDGE_CURVE('',#467,#468,#436,.T.);
#298=EDGE_CURVE('',#463,#469,#437,.T.);
#299=EDGE_CURVE('',#469,#445,#360,.T.);
#300=EDGE_CURVE('',#467,#457,#361,.T.);
#301=EDGE_CURVE('',#468,#463,#362,.T.);
#302=EDGE_CURVE('',#469,#470,#438,.T.);
#303=EDGE_CURVE('',#470,#446,#363,.T.);
#304=EDGE_CURVE('',#471,#472,#439,.T.);
#305=EDGE_CURVE('',#471,#447,#364,.T.);
#306=EDGE_CURVE('',#472,#448,#365,.T.);
#307=EDGE_CURVE('',#473,#474,#440,.T.);
#308=EDGE_CURVE('',#473,#449,#366,.T.);
#309=EDGE_CURVE('',#474,#450,#367,.T.);
#310=EDGE_CURVE('',#475,#476,#441,.T.);
#311=EDGE_CURVE('',#475,#451,#368,.T.);
#312=EDGE_CURVE('',#476,#452,#369,.T.);
#313=EDGE_CURVE('',#477,#478,#442,.T.);
#314=EDGE_CURVE('',#477,#453,#370,.T.);
#315=EDGE_CURVE('',#478,#454,#371,.T.);
#316=EDGE_CURVE('',#479,#464,#443,.T.);
#317=EDGE_CURVE('',#479,#455,#372,.T.);
#318=EDGE_CURVE('',#471,#470,#373,.T.);
#319=EDGE_CURVE('',#473,#472,#374,.T.);
#320=EDGE_CURVE('',#475,#474,#375,.T.);
#321=EDGE_CURVE('',#477,#476,#376,.T.);
#322=EDGE_CURVE('',#479,#478,#377,.T.);
#323=EDGE_CURVE('',#467,#466,#329,.T.);
#324=EDGE_CURVE('',#460,#458,#330,.T.);
#325=EDGE_CURVE('',#468,#465,#331,.T.);
#326=(
BOUNDED_CURVE()
B_SPLINE_CURVE(1,(#1111,#1112),.UNSPECIFIED.,.F.,.F.)
B_SPLINE_CURVE_WITH_KNOTS((2,2),(0.253113231771643,53.1468867682283),
 .UNSPECIFIED.)
CURVE()
GEOMETRIC_REPRESENTATION_ITEM()
RATIONAL_B_SPLINE_CURVE((1.,1.))
REPRESENTATION_ITEM('')
);
#327=(
BOUNDED_CURVE()
B_SPLINE_CURVE(1,(#1129,#1130),.UNSPECIFIED.,.F.,.F.)
B_SPLINE_CURVE_WITH_KNOTS((2,2),(0.253113231771643,53.1468867682283),
 .UNSPECIFIED.)
CURVE()
GEOMETRIC_REPRESENTATION_ITEM()
RATIONAL_B_SPLINE_CURVE((1.,1.))
REPRESENTATION_ITEM('')
);
#328=(
BOUNDED_CURVE()
B_SPLINE_CURVE(1,(#1137,#1138),.UNSPECIFIED.,.F.,.F.)
B_SPLINE_CURVE_WITH_KNOTS((2,2),(0.253113231771638,53.1468867682284),
 .UNSPECIFIED.)
CURVE()
GEOMETRIC_REPRESENTATION_ITEM()
RATIONAL_B_SPLINE_CURVE((1.,1.))
REPRESENTATION_ITEM('')
);
#329=(
BOUNDED_CURVE()
B_SPLINE_CURVE(1,(#1222,#1223),.UNSPECIFIED.,.F.,.F.)
B_SPLINE_CURVE_WITH_KNOTS((2,2),(0.253113231771639,53.1468867682283),
 .UNSPECIFIED.)
CURVE()
GEOMETRIC_REPRESENTATION_ITEM()
RATIONAL_B_SPLINE_CURVE((1.,1.))
REPRESENTATION_ITEM('')
);
#330=(
BOUNDED_CURVE()
B_SPLINE_CURVE(1,(#1224,#1225),.UNSPECIFIED.,.F.,.F.)
B_SPLINE_CURVE_WITH_KNOTS((2,2),(0.253113231771643,53.1468867682283),
 .UNSPECIFIED.)
CURVE()
GEOMETRIC_REPRESENTATION_ITEM()
RATIONAL_B_SPLINE_CURVE((1.,1.))
REPRESENTATION_ITEM('')
);
#331=(
BOUNDED_CURVE()
B_SPLINE_CURVE(1,(#1226,#1227),.UNSPECIFIED.,.F.,.F.)
B_SPLINE_CURVE_WITH_KNOTS((2,2),(0.253113231771636,53.1468867682284),
 .UNSPECIFIED.)
CURVE()
GEOMETRIC_REPRESENTATION_ITEM()
RATIONAL_B_SPLINE_CURVE((1.,1.))
REPRESENTATION_ITEM('')
);
#332=TRIMMED_CURVE($,#378,(#1053),(#1054),.T.,.CARTESIAN.);
#333=TRIMMED_CURVE($,#379,(#1056),(#1057),.T.,.CARTESIAN.);
#334=TRIMMED_CURVE($,#380,(#1059),(#1060),.T.,.CARTESIAN.);
#335=TRIMMED_CURVE($,#381,(#1062),(#1063),.T.,.CARTESIAN.);
#336=TRIMMED_CURVE($,#382,(#1065),(#1066),.T.,.CARTESIAN.);
#337=TRIMMED_CURVE($,#383,(#1068),(#1069),.T.,.CARTESIAN.);
#338=TRIMMED_CURVE($,#384,(#1071),(#1072),.T.,.CARTESIAN.);
#339=TRIMMED_CURVE($,#385,(#1074),(#1075),.T.,.CARTESIAN.);
#340=TRIMMED_CURVE($,#386,(#1077),(#1078),.T.,.CARTESIAN.);
#341=TRIMMED_CURVE($,#387,(#1080),(#1081),.T.,.CARTESIAN.);
#342=TRIMMED_CURVE($,#388,(#1083),(#1084),.T.,.CARTESIAN.);
#343=TRIMMED_CURVE($,#389,(#1086),(#1087),.T.,.CARTESIAN.);
#344=TRIMMED_CURVE($,#390,(#1089),(#1090),.T.,.CARTESIAN.);
#345=TRIMMED_CURVE($,#391,(#1092),(#1093),.T.,.CARTESIAN.);
#346=TRIMMED_CURVE($,#392,(#1095),(#1096),.T.,.CARTESIAN.);
#347=TRIMMED_CURVE($,#393,(#1098),(#1099),.T.,.CARTESIAN.);
#348=TRIMMED_CURVE($,#394,(#1101),(#1102),.T.,.CARTESIAN.);
#349=TRIMMED_CURVE($,#395,(#1104),(#1105),.T.,.CARTESIAN.);
#350=TRIMMED_CURVE($,#396,(#1107),(#1108),.T.,.CARTESIAN.);
#351=TRIMMED_CURVE($,#397,(#1114),(#1115),.T.,.CARTESIAN.);
#352=TRIMMED_CURVE($,#398,(#1117),(#1118),.T.,.CARTESIAN.);
#353=TRIMMED_CURVE($,#399,(#1120),(#1121),.T.,.CARTESIAN.);
#354=TRIMMED_CURVE($,#400,(#1123),(#1124),.T.,.CARTESIAN.);
#355=TRIMMED_CURVE($,#401,(#1132),(#1133),.T.,.CARTESIAN.);
#356=TRIMMED_CURVE($,#402,(#1135),(#1136),.T.,.CARTESIAN.);
#357=TRIMMED_CURVE($,#403,(#1144),(#1145),.T.,.CARTESIAN.);
#358=TRIMMED_CURVE($,#404,(#1147),(#1148),.T.,.CARTESIAN.);
#359=TRIMMED_CURVE($,#405,(#1150),(#1151),.T.,.CARTESIAN.);
#360=TRIMMED_CURVE($,#406,(#1157),(#1158),.T.,.CARTESIAN.);
#361=TRIMMED_CURVE($,#407,(#1160),(#1161),.T.,.CARTESIAN.);
#362=TRIMMED_CURVE($,#408,(#1163),(#1164),.T.,.CARTESIAN.);
#363=TRIMMED_CURVE($,#409,(#1168),(#1169),.T.,.CARTESIAN.);
#364=TRIMMED_CURVE($,#410,(#1173),(#1174),.T.,.CARTESIAN.);
#365=TRIMMED_CURVE($,#411,(#1176),(#1177),.T.,.CARTESIAN.);
#366=TRIMMED_CURVE($,#412,(#1181),(#1182),.T.,.CARTESIAN.);
#367=TRIMMED_CURVE($,#413,(#1184),(#1185),.T.,.CARTESIAN.);
#368=TRIMMED_CURVE($,#414,(#1189),(#1190),.T.,.CARTESIAN.);
#369=TRIMMED_CURVE($,#415,(#1192),(#1193),.T.,.CARTESIAN.);
#370=TRIMMED_CURVE($,#416,(#1197),(#1198),.T.,.CARTESIAN.);
#371=TRIMMED_CURVE($,#417,(#1200),(#1201),.T.,.CARTESIAN.);
#372=TRIMMED_CURVE($,#418,(#1205),(#1206),.T.,.CARTESIAN.);
#373=TRIMMED_CURVE($,#419,(#1208),(#1209),.T.,.CARTESIAN.);
#374=TRIMMED_CURVE($,#420,(#1211),(#1212),.T.,.CARTESIAN.);
#375=TRIMMED_CURVE($,#421,(#1214),(#1215),.T.,.CARTESIAN.);
#376=TRIMMED_CURVE($,#422,(#1217),(#1218),.T.,.CARTESIAN.);
#377=TRIMMED_CURVE($,#423,(#1220),(#1221),.T.,.CARTESIAN.);
#378=CIRCLE('',#616,19.74929856069);
#379=CIRCLE('',#617,19.74929856069);
#380=CIRCLE('',#618,23.8539881662361);
#381=CIRCLE('',#619,25.6236147475027);
#382=CIRCLE('',#620,25.3620068144205);
#383=CIRCLE('',#621,22.723241860196);
#384=CIRCLE('',#622,22.3252940251278);
#385=CIRCLE('',#623,20.3263853284474);
#386=CIRCLE('',#624,1.20213121502673);
#387=CIRCLE('',#625,23.4132413022885);
#388=CIRCLE('',#626,1.20213121670948);
#389=CIRCLE('',#627,25.7599546443783);
#390=CIRCLE('',#628,1.20213121673772);
#391=CIRCLE('',#629,25.7599546443783);
#392=CIRCLE('',#630,1.20213121673761);
#393=CIRCLE('',#631,22.3252940251278);
#394=CIRCLE('',#632,1.20213123253568);
#395=CIRCLE('',#633,5.);
#396=CIRCLE('',#634,5.);
#397=CIRCLE('',#635,0.999999999999991);
#398=CIRCLE('',#636,0.999999999999993);
#399=CIRCLE('',#637,1.);
#400=CIRCLE('',#638,1.);
#401=CIRCLE('',#639,0.999999999999998);
#402=CIRCLE('',#640,1.);
#403=CIRCLE('',#641,22.3252940251278);
#404=CIRCLE('',#642,5.);
#405=CIRCLE('',#643,0.999999999999998);
#406=CIRCLE('',#644,19.74929856069);
#407=CIRCLE('',#645,5.);
#408=CIRCLE('',#646,1.);
#409=CIRCLE('',#647,19.74929856069);
#410=CIRCLE('',#648,20.3263853284474);
#411=CIRCLE('',#649,23.4132413022885);
#412=CIRCLE('',#650,23.8539881662361);
#413=CIRCLE('',#651,25.6236147475027);
#414=CIRCLE('',#652,25.7599546443783);
#415=CIRCLE('',#653,25.7599546443783);
#416=CIRCLE('',#654,25.3620068144205);
#417=CIRCLE('',#655,22.723241860196);
#418=CIRCLE('',#656,22.3252940251278);
#419=CIRCLE('',#657,1.20213121502674);
#420=CIRCLE('',#658,1.2021312167095);
#421=CIRCLE('',#659,1.20213121673767);
#422=CIRCLE('',#660,1.20213121673765);
#423=CIRCLE('',#661,1.20213123253557);
#424=B_SPLINE_CURVE_WITH_KNOTS('',1,(#1038,#1039),.UNSPECIFIED.,.F.,.F.,
(2,2),(66.6775315671966,69.2470122243725),.UNSPECIFIED.);
#425=B_SPLINE_CURVE_WITH_KNOTS('',1,(#1040,#1041),.UNSPECIFIED.,.F.,.F.,
(2,2),(63.8334084075051,66.6775315671966),.UNSPECIFIED.);
#426=B_SPLINE_CURVE_WITH_KNOTS('',1,(#1042,#1043),.UNSPECIFIED.,.F.,.F.,
(2,2),(62.4880460041368,63.5216547235472),.UNSPECIFIED.);
#427=B_SPLINE_CURVE_WITH_KNOTS('',1,(#1044,#1045),.UNSPECIFIED.,.F.,.F.,
(2,2),(54.2179845991351,62.1762923208416),.UNSPECIFIED.);
#428=B_SPLINE_CURVE_WITH_KNOTS('',1,(#1046,#1047),.UNSPECIFIED.,.F.,.F.,
(2,2),(52.9325104470108,54.0463537258433),.UNSPECIFIED.);
#429=B_SPLINE_CURVE_WITH_KNOTS('',1,(#1048,#1049),.UNSPECIFIED.,.F.,.F.,
(2,2),(51.6854631082425,52.7376035237576),.UNSPECIFIED.);
#430=B_SPLINE_CURVE_WITH_KNOTS('',1,(#1050,#1051),.UNSPECIFIED.,.F.,.F.,
(2,2),(50.0387657835983,51.2920684625446),.UNSPECIFIED.);
#431=B_SPLINE_CURVE_WITH_KNOTS('',1,(#1109,#1110),.UNSPECIFIED.,.F.,.F.,
(2,2),(45.7445136883479,47.6369859645225),.UNSPECIFIED.);
#432=B_SPLINE_CURVE_WITH_KNOTS('',1,(#1125,#1126),.UNSPECIFIED.,.F.,.F.,
(2,2),(69.8293113862723,71.7217836624469),.UNSPECIFIED.);
#433=B_SPLINE_CURVE_WITH_KNOTS('',1,(#1127,#1128),.UNSPECIFIED.,.F.,.F.,
(2,2),(48.2192851264224,50.0387657835983),.UNSPECIFIED.);
#434=B_SPLINE_CURVE_WITH_KNOTS('',1,(#1139,#1140),.UNSPECIFIED.,.F.,.F.,
(2,2),(66.6775315671966,69.2470122243725),.UNSPECIFIED.);
#435=B_SPLINE_CURVE_WITH_KNOTS('',1,(#1141,#1142),.UNSPECIFIED.,.F.,.F.,
(2,2),(69.8293113862723,71.7217836624469),.UNSPECIFIED.);
#436=B_SPLINE_CURVE_WITH_KNOTS('',1,(#1152,#1153),.UNSPECIFIED.,.F.,.F.,
(2,2),(45.7445136883479,47.6369859645225),.UNSPECIFIED.);
#437=B_SPLINE_CURVE_WITH_KNOTS('',1,(#1154,#1155),.UNSPECIFIED.,.F.,.F.,
(2,2),(48.2192851264224,50.0387657835983),.UNSPECIFIED.);
#438=B_SPLINE_CURVE_WITH_KNOTS('',1,(#1165,#1166),.UNSPECIFIED.,.F.,.F.,
(2,2),(50.0387657835983,51.2920684625446),.UNSPECIFIED.);
#439=B_SPLINE_CURVE_WITH_KNOTS('',1,(#1170,#1171),.UNSPECIFIED.,.F.,.F.,
(2,2),(51.6854631082425,52.7376035237576),.UNSPECIFIED.);
#440=B_SPLINE_CURVE_WITH_KNOTS('',1,(#1178,#1179),.UNSPECIFIED.,.F.,.F.,
(2,2),(52.9325104470108,54.0463537258433),.UNSPECIFIED.);
#441=B_SPLINE_CURVE_WITH_KNOTS('',1,(#1186,#1187),.UNSPECIFIED.,.F.,.F.,
(2,2),(54.2179845991351,62.1762923208416),.UNSPECIFIED.);
#442=B_SPLINE_CURVE_WITH_KNOTS('',1,(#1194,#1195),.UNSPECIFIED.,.F.,.F.,
(2,2),(62.4880460041368,63.5216547235472),.UNSPECIFIED.);
#443=B_SPLINE_CURVE_WITH_KNOTS('',1,(#1202,#1203),.UNSPECIFIED.,.F.,.F.,
(2,2),(63.8334084075051,66.6775315671966),.UNSPECIFIED.);
#444=VERTEX_POINT('',#1002);
#445=VERTEX_POINT('',#1003);
#446=VERTEX_POINT('',#1004);
#447=VERTEX_POINT('',#1005);
#448=VERTEX_POINT('',#1006);
#449=VERTEX_POINT('',#1007);
#450=VERTEX_POINT('',#1008);
#451=VERTEX_POINT('',#1009);
#452=VERTEX_POINT('',#1010);
#453=VERTEX_POINT('',#1011);
#454=VERTEX_POINT('',#1012);
#455=VERTEX_POINT('',#1013);
#456=VERTEX_POINT('',#1014);
#457=VERTEX_POINT('',#1015);
#458=VERTEX_POINT('',#1016);
#459=VERTEX_POINT('',#1017);
#460=VERTEX_POINT('',#1018);
#461=VERTEX_POINT('',#1019);
#462=VERTEX_POINT('',#1020);
#463=VERTEX_POINT('',#1021);
#464=VERTEX_POINT('',#1022);
#465=VERTEX_POINT('',#1023);
#466=VERTEX_POINT('',#1024);
#467=VERTEX_POINT('',#1025);
#468=VERTEX_POINT('',#1026);
#469=VERTEX_POINT('',#1027);
#470=VERTEX_POINT('',#1028);
#471=VERTEX_POINT('',#1029);
#472=VERTEX_POINT('',#1030);
#473=VERTEX_POINT('',#1031);
#474=VERTEX_POINT('',#1032);
#475=VERTEX_POINT('',#1033);
#476=VERTEX_POINT('',#1034);
#477=VERTEX_POINT('',#1035);
#478=VERTEX_POINT('',#1036);
#479=VERTEX_POINT('',#1037);
#480=(
BOUNDED_SURFACE()
B_SPLINE_SURFACE(1,2,((#779,#780,#781,#782,#783),(#784,#785,#786,#787,#788)),
 .UNSPECIFIED.,.F.,.F.,.F.)
B_SPLINE_SURFACE_WITH_KNOTS((2,2),(3,2,3),(51.4887657835983,52.8350569853819),
(0.,11.7809724509617,23.5619449019234),.UNSPECIFIED.)
GEOMETRIC_REPRESENTATION_ITEM()
RATIONAL_B_SPLINE_SURFACE(((1.,0.707106781186548,1.,0.707106781186548,1.),
(1.,0.707106781186548,1.,0.707106781186548,1.)))
REPRESENTATION_ITEM('')
SURFACE()
);
#481=(
BOUNDED_SURFACE()
B_SPLINE_SURFACE(1,2,((#789,#790,#791,#792,#793),(#794,#795,#796,#797,#798)),
 .UNSPECIFIED.,.F.,.F.,.F.)
B_SPLINE_SURFACE_WITH_KNOTS((2,2),(3,2,3),(52.8350569853819,54.1321691624892),
(0.,11.7809724509617,23.5619449019234),.UNSPECIFIED.)
GEOMETRIC_REPRESENTATION_ITEM()
RATIONAL_B_SPLINE_SURFACE(((1.,0.707106781186548,1.,0.707106781186548,1.),
(1.,0.707106781186548,1.,0.707106781186548,1.)))
REPRESENTATION_ITEM('')
SURFACE()
);
#482=(
BOUNDED_SURFACE()
B_SPLINE_SURFACE(1,2,((#800,#801,#802,#803,#804),(#805,#806,#807,#808,#809)),
 .UNSPECIFIED.,.F.,.F.,.F.)
B_SPLINE_SURFACE_WITH_KNOTS((2,2),(3,2,3),(62.3321691624892,63.6775315671966),
(0.,11.7809724509617,23.5619449019234),.UNSPECIFIED.)
GEOMETRIC_REPRESENTATION_ITEM()
RATIONAL_B_SPLINE_SURFACE(((1.,0.707106781186548,1.,0.707106781186548,1.),
(1.,0.707106781186548,1.,0.707106781186548,1.)))
REPRESENTATION_ITEM('')
SURFACE()
);
#483=(
BOUNDED_SURFACE()
B_SPLINE_SURFACE(2,2,((#811,#812,#813,#814,#815),(#816,#817,#818,#819,#820),
(#821,#822,#823,#824,#825)),.UNSPECIFIED.,.F.,.F.,.F.)
B_SPLINE_SURFACE_WITH_KNOTS((3,3),(3,2,3),(0.,0.35840262621527),(0.,9.5816155114779,
19.1632310229558),.UNSPECIFIED.)
GEOMETRIC_REPRESENTATION_ITEM()
RATIONAL_B_SPLINE_SURFACE(((1.,0.707106781186548,1.,0.707106781186548,1.),
(0.871764572424673,0.616430640759677,0.871764572424673,0.616430640759677,
0.871764572424673),(1.,0.707106781186548,1.,0.707106781186548,1.)))
REPRESENTATION_ITEM('')
SURFACE()
);
#484=(
BOUNDED_SURFACE()
B_SPLINE_SURFACE(2,2,((#826,#827,#828),(#829,#830,#831),(#832,#833,#834),
(#835,#836,#837),(#838,#839,#840)),.UNSPECIFIED.,.F.,.F.,.F.)
B_SPLINE_SURFACE_WITH_KNOTS((3,2,3),(3,3),(0.,10.4216152645121,20.8432305290242),
(0.,0.190092072039925),.UNSPECIFIED.)
GEOMETRIC_REPRESENTATION_ITEM()
RATIONAL_B_SPLINE_SURFACE(((1.,0.963353595184533,1.),(0.707106781186548,
0.681193859835424,0.707106781186548),(1.,0.963353595184533,1.),(0.707106781186548,
0.681193859835424,0.707106781186548),(1.,0.963353595184533,1.)))
REPRESENTATION_ITEM('')
SURFACE()
);
#485=(
BOUNDED_SURFACE()
B_SPLINE_SURFACE(2,2,((#841,#842,#843),(#844,#845,#846),(#847,#848,#849),
(#850,#851,#852),(#853,#854,#855)),.UNSPECIFIED.,.F.,.F.,.F.)
B_SPLINE_SURFACE_WITH_KNOTS((3,2,3),(3,3),(0.,11.2309099847569,22.4618199695139),
(0.,0.16831054806851),.UNSPECIFIED.)
GEOMETRIC_REPRESENTATION_ITEM()
RATIONAL_B_SPLINE_SURFACE(((1.,0.971232424851392,1.),(0.707106781186548,
0.686765033720674,0.707106781186548),(1.,0.971232424851392,1.),(0.707106781186548,
0.686765033720674,0.707106781186548),(1.,0.971232424851392,1.)))
REPRESENTATION_ITEM('')
SURFACE()
);
#486=(
BOUNDED_SURFACE()
B_SPLINE_SURFACE(2,2,((#856,#857,#858),(#859,#860,#861),(#862,#863,#864),
(#865,#866,#867),(#868,#869,#870)),.UNSPECIFIED.,.F.,.F.,.F.)
B_SPLINE_SURFACE_WITH_KNOTS((3,2,3),(3,3),(0.,11.2309099847569,22.4618199695139),
(0.,0.293293428752932),.UNSPECIFIED.)
GEOMETRIC_REPRESENTATION_ITEM()
RATIONAL_B_SPLINE_SURFACE(((1.,0.913500063388741,1.),(0.707106781186548,
0.64594208943652,0.707106781186548),(1.,0.913500063388741,1.),(0.707106781186548,
0.64594208943652,0.707106781186548),(1.,0.913500063388741,1.)))
REPRESENTATION_ITEM('')
SURFACE()
);
#487=(
BOUNDED_SURFACE()
B_SPLINE_SURFACE(2,2,((#871,#872,#873,#874,#875),(#876,#877,#878,#879,#880),
(#881,#882,#883,#884,#885)),.UNSPECIFIED.,.F.,.F.,.F.)
B_SPLINE_SURFACE_WITH_KNOTS((3,3),(3,2,3),(0.,0.29329342875293),(0.,10.7596829923953,
21.5193659847905),.UNSPECIFIED.)
GEOMETRIC_REPRESENTATION_ITEM()
RATIONAL_B_SPLINE_SURFACE(((1.,0.707106781186548,1.,0.707106781186548,1.),
(0.913500064757008,0.645942090404031,0.913500064757008,0.645942090404031,
0.913500064757008),(1.,0.707106781186548,1.,0.707106781186548,1.)))
REPRESENTATION_ITEM('')
SURFACE()
);
#488=(
BOUNDED_SURFACE()
B_SPLINE_SURFACE(1,2,((#892,#893,#894,#895,#896),(#897,#898,#899,#900,#901)),
 .UNSPECIFIED.,.F.,.F.,.F.)
B_SPLINE_SURFACE_WITH_KNOTS((2,2),(3,2,3),(51.4887657835983,52.8350569853819),
(23.5619449019234,35.3429173528852,47.1238898038469),.UNSPECIFIED.)
GEOMETRIC_REPRESENTATION_ITEM()
RATIONAL_B_SPLINE_SURFACE(((1.,0.707106781186548,1.,0.707106781186548,1.),
(1.,0.707106781186548,1.,0.707106781186548,1.)))
REPRESENTATION_ITEM('')
SURFACE()
);
#489=(
BOUNDED_SURFACE()
B_SPLINE_SURFACE(1,2,((#902,#903,#904,#905,#906),(#907,#908,#909,#910,#911)),
 .UNSPECIFIED.,.F.,.F.,.F.)
B_SPLINE_SURFACE_WITH_KNOTS((2,2),(3,2,3),(52.8350569853819,54.1321691624892),
(23.5619449019234,35.3429173528852,47.1238898038469),.UNSPECIFIED.)
GEOMETRIC_REPRESENTATION_ITEM()
RATIONAL_B_SPLINE_SURFACE(((1.,0.707106781186548,1.,0.707106781186548,1.),
(1.,0.707106781186548,1.,0.707106781186548,1.)))
REPRESENTATION_ITEM('')
SURFACE()
);
#490=(
BOUNDED_SURFACE()
B_SPLINE_SURFACE(1,2,((#913,#914,#915,#916,#917),(#918,#919,#920,#921,#922)),
 .UNSPECIFIED.,.F.,.F.,.F.)
B_SPLINE_SURFACE_WITH_KNOTS((2,2),(3,2,3),(62.3321691624892,63.6775315671966),
(23.5619449019234,35.3429173528852,47.1238898038469),.UNSPECIFIED.)
GEOMETRIC_REPRESENTATION_ITEM()
RATIONAL_B_SPLINE_SURFACE(((1.,0.707106781186548,1.,0.707106781186548,1.),
(1.,0.707106781186548,1.,0.707106781186548,1.)))
REPRESENTATION_ITEM('')
SURFACE()
);
#491=(
BOUNDED_SURFACE()
B_SPLINE_SURFACE(2,2,((#924,#925,#926,#927,#928),(#929,#930,#931,#932,#933),
(#934,#935,#936,#937,#938)),.UNSPECIFIED.,.F.,.F.,.F.)
B_SPLINE_SURFACE_WITH_KNOTS((3,3),(3,2,3),(0.,0.35840262621527),(19.1632310229558,
28.7448465344337,38.3264620459116),.UNSPECIFIED.)
GEOMETRIC_REPRESENTATION_ITEM()
RATIONAL_B_SPLINE_SURFACE(((1.,0.707106781186548,1.,0.707106781186548,1.),
(0.871764572424673,0.616430640759677,0.871764572424673,0.616430640759677,
0.871764572424673),(1.,0.707106781186548,1.,0.707106781186548,1.)))
REPRESENTATION_ITEM('')
SURFACE()
);
#492=(
BOUNDED_SURFACE()
B_SPLINE_SURFACE(2,2,((#939,#940,#941),(#942,#943,#944),(#945,#946,#947),
(#948,#949,#950),(#951,#952,#953)),.UNSPECIFIED.,.F.,.F.,.F.)
B_SPLINE_SURFACE_WITH_KNOTS((3,2,3),(3,3),(20.8432305290242,31.2648457935363,
41.6864610580484),(0.,0.190092072039925),.UNSPECIFIED.)
GEOMETRIC_REPRESENTATION_ITEM()
RATIONAL_B_SPLINE_SURFACE(((1.,0.963353595184533,1.),(0.707106781186548,
0.681193859835424,0.707106781186548),(1.,0.963353595184533,1.),(0.707106781186548,
0.681193859835424,0.707106781186548),(1.,0.963353595184533,1.)))
REPRESENTATION_ITEM('')
SURFACE()
);
#493=(
BOUNDED_SURFACE()
B_SPLINE_SURFACE(2,2,((#954,#955,#956),(#957,#958,#959),(#960,#961,#962),
(#963,#964,#965),(#966,#967,#968)),.UNSPECIFIED.,.F.,.F.,.F.)
B_SPLINE_SURFACE_WITH_KNOTS((3,2,3),(3,3),(22.4618199695139,33.6927299542708,
44.9236399390277),(0.,0.16831054806851),.UNSPECIFIED.)
GEOMETRIC_REPRESENTATION_ITEM()
RATIONAL_B_SPLINE_SURFACE(((1.,0.971232424851392,1.),(0.707106781186548,
0.686765033720674,0.707106781186548),(1.,0.971232424851392,1.),(0.707106781186548,
0.686765033720674,0.707106781186548),(1.,0.971232424851392,1.)))
REPRESENTATION_ITEM('')
SURFACE()
);
#494=(
BOUNDED_SURFACE()
B_SPLINE_SURFACE(2,2,((#969,#970,#971),(#972,#973,#974),(#975,#976,#977),
(#978,#979,#980),(#981,#982,#983)),.UNSPECIFIED.,.F.,.F.,.F.)
B_SPLINE_SURFACE_WITH_KNOTS((3,2,3),(3,3),(22.4618199695139,33.6927299542708,
44.9236399390277),(0.,0.293293428752932),.UNSPECIFIED.)
GEOMETRIC_REPRESENTATION_ITEM()
RATIONAL_B_SPLINE_SURFACE(((1.,0.913500063388741,1.),(0.707106781186548,
0.64594208943652,0.707106781186548),(1.,0.913500063388741,1.),(0.707106781186548,
0.64594208943652,0.707106781186548),(1.,0.913500063388741,1.)))
REPRESENTATION_ITEM('')
SURFACE()
);
#495=(
BOUNDED_SURFACE()
B_SPLINE_SURFACE(2,2,((#984,#985,#986,#987,#988),(#989,#990,#991,#992,#993),
(#994,#995,#996,#997,#998)),.UNSPECIFIED.,.F.,.F.,.F.)
B_SPLINE_SURFACE_WITH_KNOTS((3,3),(3,2,3),(0.,0.29329342875293),(21.5193659847905,
32.2790489771858,43.038731969581),.UNSPECIFIED.)
GEOMETRIC_REPRESENTATION_ITEM()
RATIONAL_B_SPLINE_SURFACE(((1.,0.707106781186548,1.,0.707106781186548,1.),
(0.913500064757008,0.645942090404031,0.913500064757008,0.645942090404031,
0.913500064757008),(1.,0.707106781186548,1.,0.707106781186548,1.)))
REPRESENTATION_ITEM('')
SURFACE()
);
#496=CYLINDRICAL_SURFACE('',#602,19.74929856069);
#497=CYLINDRICAL_SURFACE('',#603,25.7599546443783);
#498=CYLINDRICAL_SURFACE('',#604,22.3252940251278);
#499=CYLINDRICAL_SURFACE('',#605,5.);
#500=CYLINDRICAL_SURFACE('',#606,1.);
#501=CYLINDRICAL_SURFACE('',#607,1.);
#502=CYLINDRICAL_SURFACE('',#610,19.74929856069);
#503=CYLINDRICAL_SURFACE('',#611,25.7599546443783);
#504=CYLINDRICAL_SURFACE('',#612,22.3252940251278);
#505=CYLINDRICAL_SURFACE('',#613,5.);
#506=CYLINDRICAL_SURFACE('',#614,0.999999999999998);
#507=CYLINDRICAL_SURFACE('',#615,1.);
#508=PLANE('',#600);
#509=PLANE('',#601);
#510=PLANE('',#608);
#511=PLANE('',#609);
#512=SHAPE_DEFINITION_REPRESENTATION(#513,#598);
#513=PRODUCT_DEFINITION_SHAPE($,$,#515);
#514=PRODUCT_DEFINITION_CONTEXT('3D Mechanical Parts',#587,'design');
#515=PRODUCT_DEFINITION('A','First version',#557,#514);
#516=DATE_TIME_ROLE('classification_date');
#517=DATE_TIME_ROLE('creation_date');
#518=APPLIED_DATE_AND_TIME_ASSIGNMENT(#542,#516,(#521));
#519=APPLIED_DATE_AND_TIME_ASSIGNMENT(#544,#517,(#515));
#520=SECURITY_CLASSIFICATION_LEVEL('unclassified');
#521=SECURITY_CLASSIFICATION('A','Security for version',#520);
#522=APPLIED_SECURITY_CLASSIFICATION_ASSIGNMENT(#521,(#557));
#523=APPROVAL_ROLE('Version approval');
#524=APPROVAL_ROLE('Version Security approval');
#525=APPROVAL_ROLE('Definition approval');
#526=APPROVAL_PERSON_ORGANIZATION(#575,#551,#523);
#527=APPROVAL_PERSON_ORGANIZATION(#576,#552,#524);
#528=APPROVAL_PERSON_ORGANIZATION(#579,#553,#525);
#529=COORDINATED_UNIVERSAL_TIME_OFFSET(5,0,.BEHIND.);
#530=LOCAL_TIME(0,0,0.,#529);
#531=LOCAL_TIME(0,0,0.,#529);
#532=LOCAL_TIME(0,0,0.,#529);
#533=LOCAL_TIME(0,0,0.,#529);
#534=LOCAL_TIME(0,0,0.,#529);
#535=CALENDAR_DATE(1999,1,1);
#536=CALENDAR_DATE(1999,1,1);
#537=CALENDAR_DATE(1999,1,1);
#538=CALENDAR_DATE(1999,1,1);
#539=CALENDAR_DATE(1999,1,1);
#540=DATE_AND_TIME(#535,#530);
#541=DATE_AND_TIME(#536,#531);
#542=DATE_AND_TIME(#537,#532);
#543=DATE_AND_TIME(#538,#533);
#544=DATE_AND_TIME(#539,#534);
#545=APPROVAL_DATE_TIME(#540,#551);
#546=APPROVAL_DATE_TIME(#541,#552);
#547=APPROVAL_DATE_TIME(#543,#553);
#548=APPROVAL_STATUS('not_yet_approved');
#549=APPROVAL_STATUS('not_yet_approved');
#550=APPROVAL_STATUS('approved');
#551=APPROVAL(#548,'Version approval');
#552=APPROVAL(#549,'Version Security approval');
#553=APPROVAL(#550,'Definition approval');
#554=APPLIED_APPROVAL_ASSIGNMENT(#551,(#557));
#555=APPLIED_APPROVAL_ASSIGNMENT(#552,(#521));
#556=APPLIED_APPROVAL_ASSIGNMENT(#553,(#515));
#557=PRODUCT_DEFINITION_FORMATION_WITH_SPECIFIED_SOURCE('A',
'First version',#589,.MADE.);
#558=PERSON_AND_ORGANIZATION_ROLE('design_owner');
#559=PERSON_AND_ORGANIZATION_ROLE('creator');
#560=PERSON_AND_ORGANIZATION_ROLE('design_supplier');
#561=PERSON_AND_ORGANIZATION_ROLE('classification_officer');
#562=PERSON_AND_ORGANIZATION_ROLE('creator');
#563=ORGANIZATION('STI','lab','lab');
#564=ORGANIZATION('STI','unknown','unknown');
#565=ORGANIZATION('STI','unknown','unknown');
#566=ORGANIZATION('STI','unknown','unknown');
#567=ORGANIZATION('STI','unknown','unknown');
#568=ORGANIZATION('STI','unknown','unknown');
#569=ORGANIZATION('STI','unknown','unknown');
#570=PERSON('1','Box','vc60',$,$,$);
#571=PERSON('2','last','first',$,$,$);
#572=PERSON('3','President','Mr.',$,$,$);
#573=PERSON_AND_ORGANIZATION(#570,#563);
#574=PERSON_AND_ORGANIZATION(#571,#564);
#575=PERSON_AND_ORGANIZATION(#572,#565);
#576=PERSON_AND_ORGANIZATION(#572,#566);
#577=PERSON_AND_ORGANIZATION(#572,#567);
#578=PERSON_AND_ORGANIZATION(#571,#568);
#579=PERSON_AND_ORGANIZATION(#572,#569);
#580=APPLIED_PERSON_AND_ORGANIZATION_ASSIGNMENT(#573,#558,(#589));
#581=APPLIED_PERSON_AND_ORGANIZATION_ASSIGNMENT(#574,#559,(#557));
#582=APPLIED_PERSON_AND_ORGANIZATION_ASSIGNMENT(#574,#560,(#557));
#583=APPLIED_PERSON_AND_ORGANIZATION_ASSIGNMENT(#577,#561,(#521));
#584=APPLIED_PERSON_AND_ORGANIZATION_ASSIGNMENT(#578,#562,(#515));
#585=PRODUCT_RELATED_PRODUCT_CATEGORY('detail','detail',(#589));
#586=APPLICATION_PROTOCOL_DEFINITION('International Standard',
'config_control_design',1994,#587);
#587=APPLICATION_CONTEXT(
'configuration controlled 3d designs of mechanical parts and assemblie
s');
#588=PRODUCT_CONTEXT('3D Mechanical Parts',#587,'mechanical');
#589=PRODUCT('Document','Document','',(#588));
#590=(
LENGTH_UNIT()
NAMED_UNIT(*)
SI_UNIT(.MILLI.,.METRE.)
);
#591=(
NAMED_UNIT(*)
PLANE_ANGLE_UNIT()
SI_UNIT($,.RADIAN.)
);
#592=DIMENSIONAL_EXPONENTS(0.,0.,0.,0.,0.,0.,0.);
#593=PLANE_ANGLE_MEASURE_WITH_UNIT(PLANE_ANGLE_MEASURE(0.01745329252),#591);
#594=(
CONVERSION_BASED_UNIT('DEGREES',#593)
NAMED_UNIT(#592)
PLANE_ANGLE_UNIT()
);
#595=(
NAMED_UNIT(*)
SI_UNIT($,.STERADIAN.)
SOLID_ANGLE_UNIT()
);
#596=UNCERTAINTY_MEASURE_WITH_UNIT(LENGTH_MEASURE(0.001),#590,
'DISTANCE_ACCURACY_VALUE',
'Maximum model space distance between geometric entities at asserted c
onnectivities');
#597=(
GEOMETRIC_REPRESENTATION_CONTEXT(3)
GLOBAL_UNCERTAINTY_ASSIGNED_CONTEXT((#596))
GLOBAL_UNIT_ASSIGNED_CONTEXT((#595,#594,#590))
REPRESENTATION_CONTEXT('ID1','3D')
);
#598=SHAPE_REPRESENTATION('Document',(#599,#662),#597);
#599=AXIS2_PLACEMENT_3D($,#775,#663,#664);
#600=AXIS2_PLACEMENT_3D('',#776,#665,$);
#601=AXIS2_PLACEMENT_3D('',#777,#666,$);
#602=AXIS2_PLACEMENT_3D('',#778,#667,$);
#603=AXIS2_PLACEMENT_3D('',#799,#668,$);
#604=AXIS2_PLACEMENT_3D('',#810,#669,$);
#605=AXIS2_PLACEMENT_3D('',#886,#670,$);
#606=AXIS2_PLACEMENT_3D('',#887,#671,$);
#607=AXIS2_PLACEMENT_3D('',#888,#672,$);
#608=AXIS2_PLACEMENT_3D('',#889,#673,$);
#609=AXIS2_PLACEMENT_3D('',#890,#674,$);
#610=AXIS2_PLACEMENT_3D('',#891,#675,$);
#611=AXIS2_PLACEMENT_3D('',#912,#676,$);
#612=AXIS2_PLACEMENT_3D('',#923,#677,$);
#613=AXIS2_PLACEMENT_3D('',#999,#678,$);
#614=AXIS2_PLACEMENT_3D('',#1000,#679,$);
#615=AXIS2_PLACEMENT_3D('',#1001,#680,$);
#616=AXIS2_PLACEMENT_3D($,#1052,#681,#682);
#617=AXIS2_PLACEMENT_3D($,#1055,#683,#684);
#618=AXIS2_PLACEMENT_3D($,#1058,#685,#686);
#619=AXIS2_PLACEMENT_3D($,#1061,#687,#688);
#620=AXIS2_PLACEMENT_3D($,#1064,#689,#690);
#621=AXIS2_PLACEMENT_3D($,#1067,#691,#692);
#622=AXIS2_PLACEMENT_3D($,#1070,#693,#694);
#623=AXIS2_PLACEMENT_3D($,#1073,#695,#696);
#624=AXIS2_PLACEMENT_3D($,#1076,#697,#698);
#625=AXIS2_PLACEMENT_3D($,#1079,#699,#700);
#626=AXIS2_PLACEMENT_3D($,#1082,#701,#702);
#627=AXIS2_PLACEMENT_3D($,#1085,#703,#704);
#628=AXIS2_PLACEMENT_3D($,#1088,#705,#706);
#629=AXIS2_PLACEMENT_3D($,#1091,#707,#708);
#630=AXIS2_PLACEMENT_3D($,#1094,#709,#710);
#631=AXIS2_PLACEMENT_3D($,#1097,#711,#712);
#632=AXIS2_PLACEMENT_3D($,#1100,#713,#714);
#633=AXIS2_PLACEMENT_3D($,#1103,#715,#716);
#634=AXIS2_PLACEMENT_3D($,#1106,#717,#718);
#635=AXIS2_PLACEMENT_3D($,#1113,#719,#720);
#636=AXIS2_PLACEMENT_3D($,#1116,#721,#722);
#637=AXIS2_PLACEMENT_3D($,#1119,#723,#724);
#638=AXIS2_PLACEMENT_3D($,#1122,#725,#726);
#639=AXIS2_PLACEMENT_3D($,#1131,#727,#728);
#640=AXIS2_PLACEMENT_3D($,#1134,#729,#730);
#641=AXIS2_PLACEMENT_3D($,#1143,#731,#732);
#642=AXIS2_PLACEMENT_3D($,#1146,#733,#734);
#643=AXIS2_PLACEMENT_3D($,#1149,#735,#736);
#644=AXIS2_PLACEMENT_3D($,#1156,#737,#738);
#645=AXIS2_PLACEMENT_3D($,#1159,#739,#740);
#646=AXIS2_PLACEMENT_3D($,#1162,#741,#742);
#647=AXIS2_PLACEMENT_3D($,#1167,#743,#744);
#648=AXIS2_PLACEMENT_3D($,#1172,#745,#746);
#649=AXIS2_PLACEMENT_3D($,#1175,#747,#748);
#650=AXIS2_PLACEMENT_3D($,#1180,#749,#750);
#651=AXIS2_PLACEMENT_3D($,#1183,#751,#752);
#652=AXIS2_PLACEMENT_3D($,#1188,#753,#754);
#653=AXIS2_PLACEMENT_3D($,#1191,#755,#756);
#654=AXIS2_PLACEMENT_3D($,#1196,#757,#758);
#655=AXIS2_PLACEMENT_3D($,#1199,#759,#760);
#656=AXIS2_PLACEMENT_3D($,#1204,#761,#762);
#657=AXIS2_PLACEMENT_3D($,#1207,#763,#764);
#658=AXIS2_PLACEMENT_3D($,#1210,#765,#766);
#659=AXIS2_PLACEMENT_3D($,#1213,#767,#768);
#660=AXIS2_PLACEMENT_3D($,#1216,#769,#770);
#661=AXIS2_PLACEMENT_3D($,#1219,#771,#772);
#662=AXIS2_PLACEMENT_3D($,#1228,#773,#774);
#663=DIRECTION('',(0.,0.,1.));
#664=DIRECTION('',(1.,0.,0.));
#665=DIRECTION('',(0.,0.,1.));
#666=DIRECTION('',(0.,0.,-1.));
#667=DIRECTION('',(0.,0.,-1.));
#668=DIRECTION('',(0.,0.,-1.));
#669=DIRECTION('',(0.,0.,-1.));
#670=DIRECTION('',(0.,0.,1.));
#671=DIRECTION('',(0.,0.,1.));
#672=DIRECTION('',(0.,0.,1.));
#673=DIRECTION('',(0.,0.,1.));
#674=DIRECTION('',(0.,0.,-1.));
#675=DIRECTION('',(0.,0.,-1.));
#676=DIRECTION('',(0.,0.,-1.));
#677=DIRECTION('',(0.,0.,-1.));
#678=DIRECTION('',(0.,0.,1.));
#679=DIRECTION('',(0.,0.,1.));
#680=DIRECTION('',(0.,0.,1.));
#681=DIRECTION('',(0.,0.,-1.));
#682=DIRECTION('',(1.,-2.01607120697039E-17,0.));
#683=DIRECTION('',(0.,0.,1.));
#684=DIRECTION('',(1.,-4.18791717950513E-18,0.));
#685=DIRECTION('',(0.,0.,-1.));
#686=DIRECTION('',(1.,4.22425048427267E-15,0.));
#687=DIRECTION('',(2.07974970382355E-16,5.76714510740555E-32,-1.));
#688=DIRECTION('',(1.,-4.34703336996028E-18,2.07974970382355E-16));
#689=DIRECTION('',(0.,0.,-1.));
#690=DIRECTION('',(1.,8.80317544862675E-17,0.));
#691=DIRECTION('',(0.,0.,1.));
#692=DIRECTION('',(1.,-2.23840533003634E-17,0.));
#693=DIRECTION('',(-3.18268030405495E-16,0.,-1.));
#694=DIRECTION('',(1.,2.26836179679803E-17,-3.18268030405495E-16));
#695=DIRECTION('',(0.,0.,1.));
#696=DIRECTION('',(1.,2.56854964566439E-12,0.));
#697=DIRECTION('',(-5.93400298253612E-11,-1.,5.87716677050033E-11));
#698=DIRECTION('',(-0.519946940447289,8.10563408491004E-11,0.854198559539586));
#699=DIRECTION('',(1.89674383019602E-16,0.,-1.));
#700=DIRECTION('',(1.,-7.86620490535942E-18,1.89674383019602E-16));
#701=DIRECTION('',(1.5340451504162E-12,1.,9.98162586247986E-13));
#702=DIRECTION('',(0.8865848461714,-8.98345102159998E-13,-0.462566006683624));
#703=DIRECTION('',(0.,0.,-1.));
#704=DIRECTION('',(1.,7.93569636652033E-17,0.));
#705=DIRECTION('',(5.269951465377E-15,1.,7.82112743609578E-15));
#706=DIRECTION('',(1.,-5.26995146537716E-15,2.21650949746671E-14));
#707=DIRECTION('',(0.,0.,-1.));
#708=DIRECTION('',(1.,-4.73331118724786E-17,0.));
#709=DIRECTION('',(-3.35104788297408E-16,1.,3.29216163376133E-15));
#710=DIRECTION('',(0.668964731622449,-2.22287118610554E-15,0.743294146247167));
#711=DIRECTION('',(0.,0.,1.));
#712=DIRECTION('',(1.,1.42668226451579E-12,0.));
#713=DIRECTION('',(-7.62902494920073E-11,-1.,-1.61527507284203E-11));
#714=DIRECTION('',(-1.,7.62902496483464E-11,-9.67878165451105E-9));
#715=DIRECTION('',(0.,0.,1.));
#716=DIRECTION('',(1.,7.85046229341888E-18,0.));
#717=DIRECTION('',(0.,0.,-1.));
#718=DIRECTION('',(1.,1.25062040727134E-32,0.));
#719=DIRECTION('',(-3.55271367880053E-15,3.55271367880052E-15,1.));
#720=DIRECTION('',(-1.,2.63687952079161E-15,-7.10542735760106E-15));
#721=DIRECTION('',(-3.55271367880053E-15,3.55271367880055E-15,1.));
#722=DIRECTION('',(1.,2.31588637655859E-15,7.10542735760105E-15));
#723=DIRECTION('',(0.,0.,-1.));
#724=DIRECTION('',(-1.,1.68422875688243E-15,0.));
#725=DIRECTION('',(0.,0.,-1.));
#726=DIRECTION('',(1.,1.55431223447522E-15,0.));
#727=DIRECTION('',(-3.55271365946577E-15,-3.5527136788005E-15,1.));
#728=DIRECTION('',(-1.,1.11022305362725E-15,-7.10542735760101E-15));
#729=DIRECTION('',(-2.77555756156295E-17,2.77555756156289E-17,-1.));
#730=DIRECTION('',(-1.,1.46233834766353E-15,5.55111512312577E-17));
#731=DIRECTION('',(-3.18268030405495E-16,-5.06472695890966E-32,-1.));
#732=DIRECTION('',(-1.,-1.15624918177124E-17,3.18268030405495E-16));
#733=DIRECTION('',(0.,0.,1.));
#734=DIRECTION('',(-1.,1.22464679914735E-16,0.));
#735=DIRECTION('',(-7.10542739627047E-15,7.10542735760102E-15,1.));
#736=DIRECTION('',(1.,1.08844831683731E-8,7.10542735760101E-15));
#737=DIRECTION('',(0.,0.,-1.));
#738=DIRECTION('',(-1.,-4.18791717950513E-18,0.));
#739=DIRECTION('',(0.,0.,-1.));
#740=DIRECTION('',(-1.,1.30315142208154E-16,0.));
#741=DIRECTION('',(1.24629167994425E-30,-5.55111512312566E-17,-1.));
#742=DIRECTION('',(1.,4.51244345680609E-14,0.));
#743=DIRECTION('',(0.,0.,1.));
#744=DIRECTION('',(-1.,-2.01607120697039E-17,0.));
#745=DIRECTION('',(-5.61341893792271E-29,4.36958369797286E-17,1.));
#746=DIRECTION('',(-1.,-5.06335401554666E-16,0.));
#747=DIRECTION('',(1.89674383019602E-16,2.5902987533184E-32,-1.));
#748=DIRECTION('',(-1.,-6.52950060776023E-18,-1.89674383019602E-16));
#749=DIRECTION('',(0.,0.,-1.));
#750=DIRECTION('',(-1.,-4.08335429127673E-16,0.));
#751=DIRECTION('',(2.07974970382355E-16,2.40297712808564E-32,-1.));
#752=DIRECTION('',(-1.,-5.5243899723712E-16,-2.07974970382355E-16));
#753=DIRECTION('',(0.,0.,-1.));
#754=DIRECTION('',(-1.,-7.14907066615452E-16,0.));
#755=DIRECTION('',(0.,0.,-1.));
#756=DIRECTION('',(-1.,-5.8821699107777E-16,0.));
#757=DIRECTION('',(0.,0.,-1.));
#758=DIRECTION('',(-1.,-7.22816767223545E-16,0.));
#759=DIRECTION('',(0.,0.,1.));
#760=DIRECTION('',(-1.,6.35930638490065E-18,0.));
#761=DIRECTION('',(0.,0.,1.));
#762=DIRECTION('',(-1.,-5.84123531018927E-16,0.));
#763=DIRECTION('',(4.84838862605159E-11,1.,7.80889118747879E-11));
#764=DIRECTION('',(0.519946940447289,-9.19124843616071E-11,0.854198559539586));
#765=DIRECTION('',(-3.9735088018542E-13,-1.,-2.16023059276262E-13));
#766=DIRECTION('',(-0.886584846171411,4.52210192866262E-13,-0.462566006683604));
#767=DIRECTION('',(-3.25633614095773E-15,-1.,-3.91443531227987E-16));
#768=DIRECTION('',(-1.,3.25633614095772E-15,1.47767299831121E-14));
#769=DIRECTION('',(-1.02318841242006E-15,-1.,2.4230114630084E-16));
#770=DIRECTION('',(-0.668964731622459,8.6457798538819E-16,0.743294146247158));
#771=DIRECTION('',(8.2912288039875E-11,1.,-1.28387452145326E-12));
#772=DIRECTION('',(1.,-8.29122880523015E-11,-9.67876392243616E-9));
#773=DIRECTION('',(0.,0.,1.));
#774=DIRECTION('',(1.,0.,0.));
#775=CARTESIAN_POINT('',(0.,0.,0.));
#776=CARTESIAN_POINT('',(22.3252940251278,0.,53.1468867682283));
#777=CARTESIAN_POINT('',(0.,0.,0.253113231771643));
#778=CARTESIAN_POINT('',(4.80868348586177E-16,-8.27084267254894E-17,2.7432421807282));
#779=CARTESIAN_POINT('',(19.74929856069,0.,5.23337112968477));
#780=CARTESIAN_POINT('',(19.74929856069,-19.74929856069,5.23337112968477));
#781=CARTESIAN_POINT('',(1.20929576338772E-15,-19.74929856069,5.23337112968477));
#782=CARTESIAN_POINT('',(-19.74929856069,-19.74929856069,5.23337112968477));
#783=CARTESIAN_POINT('',(-19.74929856069,-2.41859152677544E-15,5.23337112968477));
#784=CARTESIAN_POINT('',(23.699158272828,0.,7.63763356316008));
#785=CARTESIAN_POINT('',(23.699158272828,-23.699158272828,7.63763356316008));
#786=CARTESIAN_POINT('',(1.45115491606527E-15,-23.699158272828,7.63763356316008));
#787=CARTESIAN_POINT('',(-23.699158272828,-23.699158272828,7.63763356316008));
#788=CARTESIAN_POINT('',(-23.699158272828,-2.90230983213053E-15,7.63763356316008));
#789=CARTESIAN_POINT('',(23.699158272828,0.,7.63763356316008));
#790=CARTESIAN_POINT('',(23.699158272828,-23.699158272828,7.63763356316008));
#791=CARTESIAN_POINT('',(1.45115491606527E-15,-23.699158272828,7.63763356316008));
#792=CARTESIAN_POINT('',(-23.699158272828,-23.699158272828,7.63763356316008));
#793=CARTESIAN_POINT('',(-23.699158272828,-2.90230983213053E-15,7.63763356316008));
#794=CARTESIAN_POINT('',(25.7599546443783,0.,11.5874932752981));
#795=CARTESIAN_POINT('',(25.7599546443783,-25.7599546443783,11.5874932752981));
#796=CARTESIAN_POINT('',(1.57734230007094E-15,-25.7599546443783,11.5874932752981));
#797=CARTESIAN_POINT('',(-25.7599546443783,-25.7599546443783,11.5874932752981));
#798=CARTESIAN_POINT('',(-25.7599546443783,-3.15468460014188E-15,11.5874932752981));
#799=CARTESIAN_POINT('',(1.50101017081468E-15,-8.02976711146388E-16,25.6696018142249));
#800=CARTESIAN_POINT('',(25.7599546443783,0.,39.7517103531517));
#801=CARTESIAN_POINT('',(25.7599546443783,-25.7599546443783,39.7517103531517));
#802=CARTESIAN_POINT('',(1.57734230007094E-15,-25.7599546443783,39.7517103531517));
#803=CARTESIAN_POINT('',(-25.7599546443783,-25.7599546443783,39.7517103531517));
#804=CARTESIAN_POINT('',(-25.7599546443783,-3.15468460014188E-15,39.7517103531517));
#805=CARTESIAN_POINT('',(22.3252940251278,0.,42.842904910477));
#806=CARTESIAN_POINT('',(22.3252940251278,-22.3252940251278,42.842904910477));
#807=CARTESIAN_POINT('',(1.36702999339482E-15,-22.3252940251278,42.842904910477));
#808=CARTESIAN_POINT('',(-22.3252940251278,-22.3252940251278,42.842904910477));
#809=CARTESIAN_POINT('',(-22.3252940251278,-2.73405998678963E-15,42.842904910477));
#810=CARTESIAN_POINT('',(-2.48282411195269E-16,-2.58136029493563E-16,47.9948958393527));
#811=CARTESIAN_POINT('',(20.3263853284474,5.2209291739357E-11,5.5846413361458));
#812=CARTESIAN_POINT('',(20.3263853283952,20.3263853284996,5.5846413361458));
#813=CARTESIAN_POINT('',(-5.22080471072204E-11,20.3263853284474,5.5846413361458));
#814=CARTESIAN_POINT('',(-20.3263853284996,20.3263853283952,5.5846413361458));
#815=CARTESIAN_POINT('',(-20.3263853284474,-5.22068024750839E-11,5.5846413361458));
#816=CARTESIAN_POINT('',(19.7492985623535,5.27583932331012E-11,5.23337113686342));
#817=CARTESIAN_POINT('',(19.7492985623008,19.7492985624063,5.23337113686342));
#818=CARTESIAN_POINT('',(-5.27571839373377E-11,19.7492985623535,5.23337113686342));
#819=CARTESIAN_POINT('',(-19.7492985624063,19.7492985623008,5.23337113686342));
#820=CARTESIAN_POINT('',(-19.7492985623535,-5.27559746415742E-11,5.23337113686342));
#821=CARTESIAN_POINT('',(19.74929856069,2.41859152677544E-15,4.55778258714948));
#822=CARTESIAN_POINT('',(19.74929856069,19.74929856069,4.55778258714948));
#823=CARTESIAN_POINT('',(-1.20929576338772E-15,19.74929856069,4.55778258714948));
#824=CARTESIAN_POINT('',(-19.74929856069,19.74929856069,4.55778258714948));
#825=CARTESIAN_POINT('',(-19.74929856069,2.18988201008837E-31,4.55778258714948));
#826=CARTESIAN_POINT('',(23.8539881662361,1.01570847097605E-13,7.93439085885892));
#827=CARTESIAN_POINT('',(23.6991582728353,9.89862226409829E-14,7.63763356316461));
#828=CARTESIAN_POINT('',(23.4132413022885,1.74999703353294E-13,7.46359714630992));
#829=CARTESIAN_POINT('',(23.8539881662362,-23.853988166236,7.93439085885892));
#830=CARTESIAN_POINT('',(23.6991582728354,-23.6991582728352,7.6376335631646));
#831=CARTESIAN_POINT('',(23.4132413022886,-23.4132413022883,7.46359714630992));
#832=CARTESIAN_POINT('',(1.03031482610339E-13,-23.8539881662361,7.93439085885892));
#833=CARTESIAN_POINT('',(1.00437377557049E-13,-23.6991582728353,7.63763356316461));
#834=CARTESIAN_POINT('',(1.7643335090422E-13,-23.4132413022885,7.46359714630992));
#835=CARTESIAN_POINT('',(-23.853988166236,-23.8539881662362,7.93439085885892));
#836=CARTESIAN_POINT('',(-23.6991582728352,-23.6991582728354,7.6376335631646));
#837=CARTESIAN_POINT('',(-23.4132413022883,-23.4132413022886,7.46359714630992));
#838=CARTESIAN_POINT('',(-23.8539881662361,-1.04492118123073E-13,7.93439085885892));
#839=CARTESIAN_POINT('',(-23.6991582728353,-1.01888532473114E-13,7.63763356316461));
#840=CARTESIAN_POINT('',(-23.4132413022885,-1.77866998455145E-13,7.46359714630992));
#841=CARTESIAN_POINT('',(25.7599546443783,3.26353059974354E-15,11.8822401760696));
#842=CARTESIAN_POINT('',(25.7599546443783,3.14815383208702E-15,11.5874932752981));
#843=CARTESIAN_POINT('',(25.6236147475027,3.48983107193369E-15,11.3261751396198));
#844=CARTESIAN_POINT('',(25.7599546443783,-25.7599546443783,11.8822401760696));
#845=CARTESIAN_POINT('',(25.7599546443783,-25.7599546443783,11.5874932752981));
#846=CARTESIAN_POINT('',(25.6236147475027,-25.6236147475026,11.3261751396198));
#847=CARTESIAN_POINT('',(4.84087289981448E-15,-25.7599546443783,11.8822401760696));
#848=CARTESIAN_POINT('',(4.72549613215797E-15,-25.7599546443783,11.5874932752981));
#849=CARTESIAN_POINT('',(5.0588249610894E-15,-25.6236147475027,11.3261751396198));
#850=CARTESIAN_POINT('',(-25.7599546443783,-25.7599546443783,11.8822401760696));
#851=CARTESIAN_POINT('',(-25.7599546443783,-25.7599546443783,11.5874932752981));
#852=CARTESIAN_POINT('',(-25.6236147475026,-25.6236147475027,11.3261751396198));
#853=CARTESIAN_POINT('',(-25.7599546443783,-6.41821519988542E-15,11.8822401760696));
#854=CARTESIAN_POINT('',(-25.7599546443783,-6.30283843222891E-15,11.5874932752981));
#855=CARTESIAN_POINT('',(-25.6236147475027,-6.6278188502451E-15,11.3261751396198));
#856=CARTESIAN_POINT('',(25.3620068144205,3.454201190836E-15,40.1098634001136));
#857=CARTESIAN_POINT('',(25.7599546443783,3.13380647630552E-15,39.7517103531516));
#858=CARTESIAN_POINT('',(25.7599546443783,3.2635306452009E-15,39.2163263036916));
#859=CARTESIAN_POINT('',(25.3620068144205,-25.3620068144205,40.1098634001136));
#860=CARTESIAN_POINT('',(25.7599546443783,-25.7599546443783,39.7517103531516));
#861=CARTESIAN_POINT('',(25.7599546443783,-25.7599546443783,39.2163263036916));
#862=CARTESIAN_POINT('',(5.00717621409767E-15,-25.3620068144205,40.1098634001136));
#863=CARTESIAN_POINT('',(4.71114877637647E-15,-25.7599546443783,39.7517103531516));
#864=CARTESIAN_POINT('',(4.84087294527184E-15,-25.7599546443783,39.2163263036916));
#865=CARTESIAN_POINT('',(-25.3620068144205,-25.3620068144205,40.1098634001136));
#866=CARTESIAN_POINT('',(-25.7599546443783,-25.7599546443783,39.7517103531516));
#867=CARTESIAN_POINT('',(-25.7599546443783,-25.7599546443783,39.2163263036916));
#868=CARTESIAN_POINT('',(-25.3620068144205,-6.56015123735934E-15,40.1098634001136));
#869=CARTESIAN_POINT('',(-25.7599546443783,-6.28849107644741E-15,39.7517103531516));
#870=CARTESIAN_POINT('',(-25.7599546443783,-6.41821524534278E-15,39.2163263036916));
#871=CARTESIAN_POINT('',(22.3252940251278,3.1850358808488E-11,43.3782889553378));
#872=CARTESIAN_POINT('',(22.325294025096,22.3252940251597,43.3782889553378));
#873=CARTESIAN_POINT('',(-3.18489917784947E-11,22.3252940251278,43.3782889553378));
#874=CARTESIAN_POINT('',(-22.3252940251597,22.325294025096,43.3782889553378));
#875=CARTESIAN_POINT('',(-22.3252940251278,-3.18476247485013E-11,43.3782889553378));
#876=CARTESIAN_POINT('',(22.3252940302382,3.25377243250673E-11,42.8429049058777));
#877=CARTESIAN_POINT('',(22.3252940302057,22.3252940302708,42.8429049058777));
#878=CARTESIAN_POINT('',(-3.25363572950736E-11,22.3252940302382,42.8429049058777));
#879=CARTESIAN_POINT('',(-22.3252940302708,22.3252940302057,42.8429049058777));
#880=CARTESIAN_POINT('',(-22.3252940302382,-3.25349902650799E-11,42.8429049058777));
#881=CARTESIAN_POINT('',(22.723241860196,2.78279454064858E-15,42.4847518589157));
#882=CARTESIAN_POINT('',(22.723241860196,22.723241860196,42.4847518589157));
#883=CARTESIAN_POINT('',(-1.39139727013157E-15,22.723241860196,42.4847518589157));
#884=CARTESIAN_POINT('',(-22.723241860196,22.723241860196,42.4847518589157));
#885=CARTESIAN_POINT('',(-22.723241860196,3.85438435542584E-25,42.4847518589157));
#886=CARTESIAN_POINT('',(-3.92523114670944E-17,-3.92523114670944E-17,50.));
#887=CARTESIAN_POINT('',(12.5,4.71027737605133E-16,50.));
#888=CARTESIAN_POINT('',(-12.5,-6.10622663543836E-16,50.));
#889=CARTESIAN_POINT('',(-22.3252940251278,0.,53.1468867682283));
#890=CARTESIAN_POINT('',(0.,0.,0.253113231771643));
#891=CARTESIAN_POINT('',(-4.80868348586177E-16,8.27084267254894E-17,2.7432421807282));
#892=CARTESIAN_POINT('',(-19.74929856069,0.,5.23337112968477));
#893=CARTESIAN_POINT('',(-19.74929856069,19.74929856069,5.23337112968477));
#894=CARTESIAN_POINT('',(-1.20929576338772E-15,19.74929856069,5.23337112968477));
#895=CARTESIAN_POINT('',(19.74929856069,19.74929856069,5.23337112968477));
#896=CARTESIAN_POINT('',(19.74929856069,2.41859152677544E-15,5.23337112968477));
#897=CARTESIAN_POINT('',(-23.699158272828,0.,7.63763356316008));
#898=CARTESIAN_POINT('',(-23.699158272828,23.699158272828,7.63763356316008));
#899=CARTESIAN_POINT('',(-1.45115491606527E-15,23.699158272828,7.63763356316008));
#900=CARTESIAN_POINT('',(23.699158272828,23.699158272828,7.63763356316008));
#901=CARTESIAN_POINT('',(23.699158272828,2.90230983213053E-15,7.63763356316008));
#902=CARTESIAN_POINT('',(-23.699158272828,0.,7.63763356316008));
#903=CARTESIAN_POINT('',(-23.699158272828,23.699158272828,7.63763356316008));
#904=CARTESIAN_POINT('',(-1.45115491606527E-15,23.699158272828,7.63763356316008));
#905=CARTESIAN_POINT('',(23.699158272828,23.699158272828,7.63763356316008));
#906=CARTESIAN_POINT('',(23.699158272828,2.90230983213053E-15,7.63763356316008));
#907=CARTESIAN_POINT('',(-25.7599546443783,0.,11.5874932752981));
#908=CARTESIAN_POINT('',(-25.7599546443783,25.7599546443783,11.5874932752981));
#909=CARTESIAN_POINT('',(-1.57734230007094E-15,25.7599546443783,11.5874932752981));
#910=CARTESIAN_POINT('',(25.7599546443783,25.7599546443783,11.5874932752981));
#911=CARTESIAN_POINT('',(25.7599546443783,3.15468460014188E-15,11.5874932752981));
#912=CARTESIAN_POINT('',(-1.50101017081468E-15,8.02976711146388E-16,25.6696018142249));
#913=CARTESIAN_POINT('',(-25.7599546443783,0.,39.7517103531517));
#914=CARTESIAN_POINT('',(-25.7599546443783,25.7599546443783,39.7517103531517));
#915=CARTESIAN_POINT('',(-1.57734230007094E-15,25.7599546443783,39.7517103531517));
#916=CARTESIAN_POINT('',(25.7599546443783,25.7599546443783,39.7517103531517));
#917=CARTESIAN_POINT('',(25.7599546443783,3.15468460014188E-15,39.7517103531517));
#918=CARTESIAN_POINT('',(-22.3252940251278,0.,42.842904910477));
#919=CARTESIAN_POINT('',(-22.3252940251278,22.3252940251278,42.842904910477));
#920=CARTESIAN_POINT('',(-1.36702999339482E-15,22.3252940251278,42.842904910477));
#921=CARTESIAN_POINT('',(22.3252940251278,22.3252940251278,42.842904910477));
#922=CARTESIAN_POINT('',(22.3252940251278,2.73405998678963E-15,42.842904910477));
#923=CARTESIAN_POINT('',(2.48282411195269E-16,2.58136029493563E-16,47.9948958393527));
#924=CARTESIAN_POINT('',(-20.3263853284474,-5.2209291739357E-11,5.5846413361458));
#925=CARTESIAN_POINT('',(-20.3263853283952,-20.3263853284996,5.5846413361458));
#926=CARTESIAN_POINT('',(5.22080471072204E-11,-20.3263853284474,5.5846413361458));
#927=CARTESIAN_POINT('',(20.3263853284996,-20.3263853283952,5.5846413361458));
#928=CARTESIAN_POINT('',(20.3263853284474,5.22068024750839E-11,5.5846413361458));
#929=CARTESIAN_POINT('',(-19.7492985623535,-5.27583932331012E-11,5.23337113686342));
#930=CARTESIAN_POINT('',(-19.7492985623008,-19.7492985624063,5.23337113686342));
#931=CARTESIAN_POINT('',(5.27571839373377E-11,-19.7492985623535,5.23337113686342));
#932=CARTESIAN_POINT('',(19.7492985624063,-19.7492985623008,5.23337113686342));
#933=CARTESIAN_POINT('',(19.7492985623535,5.27559746415742E-11,5.23337113686342));
#934=CARTESIAN_POINT('',(-19.74929856069,-2.41859152677544E-15,4.55778258714948));
#935=CARTESIAN_POINT('',(-19.74929856069,-19.74929856069,4.55778258714948));
#936=CARTESIAN_POINT('',(1.20929576338772E-15,-19.74929856069,4.55778258714948));
#937=CARTESIAN_POINT('',(19.74929856069,-19.74929856069,4.55778258714948));
#938=CARTESIAN_POINT('',(19.74929856069,-2.18988201008837E-31,4.55778258714948));
#939=CARTESIAN_POINT('',(-23.8539881662361,-1.01570847097605E-13,7.93439085885892));
#940=CARTESIAN_POINT('',(-23.6991582728353,-9.89862226409829E-14,7.63763356316461));
#941=CARTESIAN_POINT('',(-23.4132413022885,-1.74999703353294E-13,7.46359714630992));
#942=CARTESIAN_POINT('',(-23.8539881662362,23.853988166236,7.93439085885892));
#943=CARTESIAN_POINT('',(-23.6991582728354,23.6991582728352,7.6376335631646));
#944=CARTESIAN_POINT('',(-23.4132413022886,23.4132413022883,7.46359714630992));
#945=CARTESIAN_POINT('',(-1.03031482610339E-13,23.8539881662361,7.93439085885892));
#946=CARTESIAN_POINT('',(-1.00437377557049E-13,23.6991582728353,7.63763356316461));
#947=CARTESIAN_POINT('',(-1.7643335090422E-13,23.4132413022885,7.46359714630992));
#948=CARTESIAN_POINT('',(23.853988166236,23.8539881662362,7.93439085885892));
#949=CARTESIAN_POINT('',(23.6991582728352,23.6991582728354,7.6376335631646));
#950=CARTESIAN_POINT('',(23.4132413022883,23.4132413022886,7.46359714630992));
#951=CARTESIAN_POINT('',(23.8539881662361,1.04492118123073E-13,7.93439085885892));
#952=CARTESIAN_POINT('',(23.6991582728353,1.01888532473114E-13,7.63763356316461));
#953=CARTESIAN_POINT('',(23.4132413022885,1.77866998455145E-13,7.46359714630992));
#954=CARTESIAN_POINT('',(-25.7599546443783,-3.26353059974354E-15,11.8822401760696));
#955=CARTESIAN_POINT('',(-25.7599546443783,-3.14815383208702E-15,11.5874932752981));
#956=CARTESIAN_POINT('',(-25.6236147475027,-3.48983107193369E-15,11.3261751396198));
#957=CARTESIAN_POINT('',(-25.7599546443783,25.7599546443783,11.8822401760696));
#958=CARTESIAN_POINT('',(-25.7599546443783,25.7599546443783,11.5874932752981));
#959=CARTESIAN_POINT('',(-25.6236147475027,25.6236147475026,11.3261751396198));
#960=CARTESIAN_POINT('',(-4.84087289981448E-15,25.7599546443783,11.8822401760696));
#961=CARTESIAN_POINT('',(-4.72549613215797E-15,25.7599546443783,11.5874932752981));
#962=CARTESIAN_POINT('',(-5.0588249610894E-15,25.6236147475027,11.3261751396198));
#963=CARTESIAN_POINT('',(25.7599546443783,25.7599546443783,11.8822401760696));
#964=CARTESIAN_POINT('',(25.7599546443783,25.7599546443783,11.5874932752981));
#965=CARTESIAN_POINT('',(25.6236147475026,25.6236147475027,11.3261751396198));
#966=CARTESIAN_POINT('',(25.7599546443783,6.41821519988542E-15,11.8822401760696));
#967=CARTESIAN_POINT('',(25.7599546443783,6.30283843222891E-15,11.5874932752981));
#968=CARTESIAN_POINT('',(25.6236147475027,6.6278188502451E-15,11.3261751396198));
#969=CARTESIAN_POINT('',(-25.3620068144205,-3.454201190836E-15,40.1098634001136));
#970=CARTESIAN_POINT('',(-25.7599546443783,-3.13380647630552E-15,39.7517103531516));
#971=CARTESIAN_POINT('',(-25.7599546443783,-3.2635306452009E-15,39.2163263036916));
#972=CARTESIAN_POINT('',(-25.3620068144205,25.3620068144205,40.1098634001136));
#973=CARTESIAN_POINT('',(-25.7599546443783,25.7599546443783,39.7517103531516));
#974=CARTESIAN_POINT('',(-25.7599546443783,25.7599546443783,39.2163263036916));
#975=CARTESIAN_POINT('',(-5.00717621409767E-15,25.3620068144205,40.1098634001136));
#976=CARTESIAN_POINT('',(-4.71114877637647E-15,25.7599546443783,39.7517103531516));
#977=CARTESIAN_POINT('',(-4.84087294527184E-15,25.7599546443783,39.2163263036916));
#978=CARTESIAN_POINT('',(25.3620068144205,25.3620068144205,40.1098634001136));
#979=CARTESIAN_POINT('',(25.7599546443783,25.7599546443783,39.7517103531516));
#980=CARTESIAN_POINT('',(25.7599546443783,25.7599546443783,39.2163263036916));
#981=CARTESIAN_POINT('',(25.3620068144205,6.56015123735934E-15,40.1098634001136));
#982=CARTESIAN_POINT('',(25.7599546443783,6.28849107644741E-15,39.7517103531516));
#983=CARTESIAN_POINT('',(25.7599546443783,6.41821524534278E-15,39.2163263036916));
#984=CARTESIAN_POINT('',(-22.3252940251278,-3.1850358808488E-11,43.3782889553378));
#985=CARTESIAN_POINT('',(-22.325294025096,-22.3252940251597,43.3782889553378));
#986=CARTESIAN_POINT('',(3.18489917784947E-11,-22.3252940251278,43.3782889553378));
#987=CARTESIAN_POINT('',(22.3252940251597,-22.325294025096,43.3782889553378));
#988=CARTESIAN_POINT('',(22.3252940251278,3.18476247485013E-11,43.3782889553378));
#989=CARTESIAN_POINT('',(-22.3252940302382,-3.25377243250673E-11,42.8429049058777));
#990=CARTESIAN_POINT('',(-22.3252940302057,-22.3252940302708,42.8429049058777));
#991=CARTESIAN_POINT('',(3.25363572950736E-11,-22.3252940302382,42.8429049058777));
#992=CARTESIAN_POINT('',(22.3252940302708,-22.3252940302057,42.8429049058777));
#993=CARTESIAN_POINT('',(22.3252940302382,3.25349902650799E-11,42.8429049058777));
#994=CARTESIAN_POINT('',(-22.723241860196,-2.78279454064858E-15,42.4847518589157));
#995=CARTESIAN_POINT('',(-22.723241860196,-22.723241860196,42.4847518589157));
#996=CARTESIAN_POINT('',(1.39139727013157E-15,-22.723241860196,42.4847518589157));
#997=CARTESIAN_POINT('',(22.723241860196,-22.723241860196,42.4847518589157));
#998=CARTESIAN_POINT('',(22.723241860196,-3.85438435542584E-25,42.4847518589157));
#999=CARTESIAN_POINT('',(-5.15660951791188E-17,-6.91067016611872E-32,50.));
#1000=CARTESIAN_POINT('',(12.5,-6.10622663543836E-16,50.));
#1001=CARTESIAN_POINT('',(-12.5,4.71027737605133E-16,50.));
#1002=CARTESIAN_POINT('',(22.3252940251278,0.,53.1468867682283));
#1003=CARTESIAN_POINT('',(19.74929856069,0.,0.253113231771643));
#1004=CARTESIAN_POINT('',(19.74929856069,-1.20929576338772E-15,4.55778258714948));
#1005=CARTESIAN_POINT('',(20.3263853284474,2.61046458696785E-11,5.5846413361458));
#1006=CARTESIAN_POINT('',(23.4132413022885,1.19683968245598E-12,7.46359714630992));
#1007=CARTESIAN_POINT('',(23.8539881662361,5.07854235488024E-14,7.9343908588589));
#1008=CARTESIAN_POINT('',(25.6236147475027,6.6993254520315E-15,11.3261751396199));
#1009=CARTESIAN_POINT('',(25.7599546443783,1.63176529987177E-15,11.8822401760696));
#1010=CARTESIAN_POINT('',(25.7599546443783,4.80212336591263E-15,39.2163263036916));
#1011=CARTESIAN_POINT('',(25.3620068144205,1.727100595418E-15,40.1098634001136));
#1012=CARTESIAN_POINT('',(22.723241860196,-1.2782328079204E-15,42.4847518589157));
#1013=CARTESIAN_POINT('',(22.3252940251278,1.5925179404244E-11,43.3782889553378));
#1014=CARTESIAN_POINT('',(4.99999999999999,0.,53.1468867682284));
#1015=CARTESIAN_POINT('',(5.,0.,0.253113231771643));
#1016=CARTESIAN_POINT('',(11.5,-1.38678040771297E-16,53.1468867682283));
#1017=CARTESIAN_POINT('',(13.5,0.,53.1468867682284));
#1018=CARTESIAN_POINT('',(11.5,2.61142720686032E-16,0.253113231771643));
#1019=CARTESIAN_POINT('',(13.5,0.,0.253113231771643));
#1020=CARTESIAN_POINT('',(-13.5,-8.26636589424462E-16,53.1468867682284));
#1021=CARTESIAN_POINT('',(-13.5,-8.26636589424462E-16,0.253113231771637));
#1022=CARTESIAN_POINT('',(-22.3252940251278,0.,53.1468867682284));
#1023=CARTESIAN_POINT('',(-11.5,1.08844850624868E-8,53.1468867682284));
#1024=CARTESIAN_POINT('',(-5.,6.12323399573677E-16,53.1468867682284));
#1025=CARTESIAN_POINT('',(-5.,6.12323399573677E-16,0.253113231771641));
#1026=CARTESIAN_POINT('',(-11.5,4.49023899631359E-14,0.253113231771637));
#1027=CARTESIAN_POINT('',(-19.74929856069,0.,0.253113231771643));
#1028=CARTESIAN_POINT('',(-19.74929856069,0.,4.55778258714948));
#1029=CARTESIAN_POINT('',(-20.3263853284474,-1.42588684919487E-14,5.5846413361458));
#1030=CARTESIAN_POINT('',(-23.4132413022885,0.,7.46359714630992));
#1031=CARTESIAN_POINT('',(-23.8539881662361,-9.15242931442398E-15,7.93439085885892));
#1032=CARTESIAN_POINT('',(-25.6236147475027,-1.45171586050323E-14,11.3261751396198));
#1033=CARTESIAN_POINT('',(-25.7599546443783,-1.78579331036808E-14,11.8822401760696));
#1034=CARTESIAN_POINT('',(-25.7599546443783,-1.45944025039373E-14,39.2163263036915));
#1035=CARTESIAN_POINT('',(-25.3620068144205,-1.78231448037872E-14,40.1098634001136));
#1036=CARTESIAN_POINT('',(-22.723241860196,0.,42.4847518589157));
#1037=CARTESIAN_POINT('',(-22.3252940251278,-1.24151179591801E-14,43.3782889553378));
#1038=CARTESIAN_POINT('',(22.3252940251278,0.,53.1468867682283));
#1039=CARTESIAN_POINT('',(13.5,0.,53.1468867682284));
#1040=CARTESIAN_POINT('',(22.3252940251278,1.5925179404244E-11,43.3782889553378));
#1041=CARTESIAN_POINT('',(22.3252940251278,0.,53.1468867682283));
#1042=CARTESIAN_POINT('',(25.3620068144205,1.727100595418E-15,40.1098634001136));
#1043=CARTESIAN_POINT('',(22.723241860196,-1.2782328079204E-15,42.4847518589157));
#1044=CARTESIAN_POINT('',(25.7599546443783,1.63176529987177E-15,11.8822401760696));
#1045=CARTESIAN_POINT('',(25.7599546443783,4.80212336591263E-15,39.2163263036916));
#1046=CARTESIAN_POINT('',(23.8539881662361,5.07854235488024E-14,7.9343908588589));
#1047=CARTESIAN_POINT('',(25.6236147475027,6.6993254520315E-15,11.3261751396199));
#1048=CARTESIAN_POINT('',(20.3263853284474,2.61046458696785E-11,5.5846413361458));
#1049=CARTESIAN_POINT('',(23.4132413022885,1.19683968245598E-12,7.46359714630992));
#1050=CARTESIAN_POINT('',(19.74929856069,0.,0.253113231771643));
#1051=CARTESIAN_POINT('',(19.74929856069,-1.20929576338772E-15,4.55778258714948));
#1052=CARTESIAN_POINT('',(-6.57669111470556E-33,3.98159921860688E-16,0.253113231771643));
#1053=CARTESIAN_POINT('',(19.74929856069,0.,0.253113231771643));
#1054=CARTESIAN_POINT('',(-19.74929856069,-1.62227168305407E-15,0.253113231771643));
#1055=CARTESIAN_POINT('',(2.54922745907612E-16,8.27084267254896E-17,4.55778258714948));
#1056=CARTESIAN_POINT('',(19.74929856069,0.,4.55778258714948));
#1057=CARTESIAN_POINT('',(-19.74929856069,2.58400838022642E-15,4.55778258714948));
#1058=CARTESIAN_POINT('',(1.26830840663298E-15,8.05626034547353E-16,7.93439085885892));
#1059=CARTESIAN_POINT('',(23.8539881662361,1.01570847097605E-13,7.93439085885892));
#1060=CARTESIAN_POINT('',(-23.8539881662361,-1.81344760018458E-14,7.93439085885892));
#1061=CARTESIAN_POINT('',(-1.72650471607375E-15,1.11386708366401E-16,11.3261751396198));
#1062=CARTESIAN_POINT('',(25.6236147475027,0.,11.3261751396198));
#1063=CARTESIAN_POINT('',(-25.6236147475027,-1.42943851882995E-14,11.3261751396198));
#1064=CARTESIAN_POINT('',(3.51483563649735E-16,1.22153923366989E-15,40.1098634001136));
#1065=CARTESIAN_POINT('',(25.3620068144205,3.454201190836E-15,40.1098634001136));
#1066=CARTESIAN_POINT('',(-25.3620068144205,-1.53800663364475E-14,40.1098634001136));
#1067=CARTESIAN_POINT('',(3.716568945853E-16,5.08638256955676E-16,42.4847518589157));
#1068=CARTESIAN_POINT('',(22.723241860196,0.,42.4847518589157));
#1069=CARTESIAN_POINT('',(-22.723241860196,3.80007105494537E-15,42.4847518589157));
#1070=CARTESIAN_POINT('',(-8.22963629322158E-31,-5.06418440688832E-16,53.1468867682284));
#1071=CARTESIAN_POINT('',(22.3252940251278,0.,53.1468867682283));
#1072=CARTESIAN_POINT('',(-22.3252940251278,-3.7468968681673E-15,53.1468867682284));
#1073=CARTESIAN_POINT('',(5.47163261684474E-16,-3.80936644268667E-17,5.5846413361458));
#1074=CARTESIAN_POINT('',(20.3263853284474,5.2209291739357E-11,5.5846413361458));
#1075=CARTESIAN_POINT('',(-20.3263853284474,-1.43350558208071E-14,5.5846413361458));
#1076=CARTESIAN_POINT('',(20.9514297757167,-7.1335711640871E-11,4.5577825838924));
#1077=CARTESIAN_POINT('',(20.3263853284474,2.61046458696785E-11,5.5846413361458));
#1078=CARTESIAN_POINT('',(19.74929856069,-1.20929576332969E-15,4.55778258714948));
#1079=CARTESIAN_POINT('',(3.05068623704385E-32,1.84173353582425E-16,7.46359714630992));
#1080=CARTESIAN_POINT('',(23.4132413022885,0.,7.46359714630993));
#1081=CARTESIAN_POINT('',(-23.4132413022885,-2.49894839468637E-15,7.46359714630992));
#1082=CARTESIAN_POINT('',(22.7881968463919,1.13071411423341E-12,8.49045589528193));
#1083=CARTESIAN_POINT('',(23.8539881662361,5.07854235488023E-14,7.9343908588589));
#1084=CARTESIAN_POINT('',(23.4132413022885,1.19683968245598E-12,7.46359714630992));
#1085=CARTESIAN_POINT('',(2.73381702803952E-16,1.21929881501233E-15,11.8822401760696));
#1086=CARTESIAN_POINT('',(25.7599546443783,3.26353059974354E-15,11.8822401760696));
#1087=CARTESIAN_POINT('',(-25.7599546443783,-1.54193354736562E-14,11.8822401760696));
#1088=CARTESIAN_POINT('',(24.5578234276405,7.96693846709436E-15,11.8822401760696));
#1089=CARTESIAN_POINT('',(25.7599546443783,1.63176529987177E-15,11.8822401760696));
#1090=CARTESIAN_POINT('',(25.6236147475027,6.6993254520315E-15,11.3261751396199));
#1091=CARTESIAN_POINT('',(5.19300389562421E-16,1.21929881501233E-15,39.2163263036915));
#1092=CARTESIAN_POINT('',(25.7599546443783,0.,39.2163263036915));
#1093=CARTESIAN_POINT('',(-25.7599546443783,-1.21558048739126E-14,39.2163263036915));
#1094=CARTESIAN_POINT('',(24.5578234276407,4.39928343902203E-15,39.2163263036916));
#1095=CARTESIAN_POINT('',(25.3620068144205,1.727100595418E-15,40.1098634001136));
#1096=CARTESIAN_POINT('',(25.7599546443783,4.80212336591263E-15,39.2163263036916));
#1097=CARTESIAN_POINT('',(-9.45126712505621E-16,-7.4222726225761E-16,43.3782889553378));
#1098=CARTESIAN_POINT('',(22.3252940251278,3.1850358808488E-11,43.3782889553378));
#1099=CARTESIAN_POINT('',(-22.3252940251278,-1.38995724836987E-14,43.3782889553378));
#1100=CARTESIAN_POINT('',(23.5274252576635,-7.57857124359772E-11,43.378288966973));
#1101=CARTESIAN_POINT('',(22.3252940251278,1.5925179404244E-11,43.3782889553378));
#1102=CARTESIAN_POINT('',(22.723241860196,-1.2782328081039E-15,42.4847518589157));
#1103=CARTESIAN_POINT('',(-3.92523114670944E-17,-3.92523114670944E-17,53.1468867682284));
#1104=CARTESIAN_POINT('',(5.,-6.16297582203915E-33,53.1468867682284));
#1105=CARTESIAN_POINT('',(-5.,5.33818776639488E-16,53.1468867682284));
#1106=CARTESIAN_POINT('',(-5.15660951791188E-17,-6.25310203635671E-32,0.253113231771641));
#1107=CARTESIAN_POINT('',(5.,0.,0.253113231771641));
#1108=CARTESIAN_POINT('',(-5.,-6.12323399573677E-16,0.253113231771641));
#1109=CARTESIAN_POINT('',(5.,0.,0.253113231771643));
#1110=CARTESIAN_POINT('',(11.5,2.61142720686032E-16,0.253113231771643));
#1111=CARTESIAN_POINT('',(5.,0.,0.253113231771643));
#1112=CARTESIAN_POINT('',(4.99999999999999,0.,53.1468867682284));
#1113=CARTESIAN_POINT('',(12.5,-2.77555756156288E-15,53.1468867682284));
#1114=CARTESIAN_POINT('',(11.5,-1.38678040771297E-16,53.1468867682283));
#1115=CARTESIAN_POINT('',(13.5,-2.05831244068493E-16,53.1468867682284));
#1116=CARTESIAN_POINT('',(12.5,-2.31588637655857E-15,53.1468867682283));
#1117=CARTESIAN_POINT('',(13.5,0.,53.1468867682284));
#1118=CARTESIAN_POINT('',(11.5,-6.84159747018157E-17,53.1468867682283));
#1119=CARTESIAN_POINT('',(12.5,-1.4230860361964E-15,0.253113231771643));
#1120=CARTESIAN_POINT('',(11.5,2.61142720686032E-16,0.253113231771643));
#1121=CARTESIAN_POINT('',(13.5,1.23774355786346E-16,0.253113231771643));
#1122=CARTESIAN_POINT('',(12.5,-1.55431223447522E-15,0.253113231771643));
#1123=CARTESIAN_POINT('',(13.5,0.,0.253113231771643));
#1124=CARTESIAN_POINT('',(11.5,-1.22464679914741E-16,0.253113231771643));
#1125=CARTESIAN_POINT('',(11.5,-1.38678040771297E-16,53.1468867682283));
#1126=CARTESIAN_POINT('',(4.99999999999999,0.,53.1468867682284));
#1127=CARTESIAN_POINT('',(13.5,0.,0.253113231771643));
#1128=CARTESIAN_POINT('',(19.74929856069,0.,0.253113231771643));
#1129=CARTESIAN_POINT('',(13.5,0.,0.253113231771643));
#1130=CARTESIAN_POINT('',(13.5,0.,53.1468867682284));
#1131=CARTESIAN_POINT('',(-12.5,-1.11022305362725E-15,53.1468867682284));
#1132=CARTESIAN_POINT('',(-13.5,0.,53.1468867682283));
#1133=CARTESIAN_POINT('',(-11.5,1.08844847465023E-8,53.1468867682284));
#1134=CARTESIAN_POINT('',(-12.5,-1.46233834766353E-15,0.253113231771637));
#1135=CARTESIAN_POINT('',(-13.5,0.,0.253113231771637));
#1136=CARTESIAN_POINT('',(-11.5,4.47153334385445E-14,0.253113231771637));
#1137=CARTESIAN_POINT('',(-13.5,-8.26636589424462E-16,0.253113231771637));
#1138=CARTESIAN_POINT('',(-13.5,-8.26636589424462E-16,53.1468867682284));
#1139=CARTESIAN_POINT('',(-22.3252940251278,0.,53.1468867682283));
#1140=CARTESIAN_POINT('',(-13.5,0.,53.1468867682284));
#1141=CARTESIAN_POINT('',(-11.5,0.,53.1468867682284));
#1142=CARTESIAN_POINT('',(-4.99999999999998,0.,53.1468867682284));
#1143=CARTESIAN_POINT('',(-2.72000461257962E-16,2.58136029493564E-16,53.1468867682284));
#1144=CARTESIAN_POINT('',(-22.3252940251278,0.,53.1468867682284));
#1145=CARTESIAN_POINT('',(22.3252940251278,3.25033204577676E-15,53.1468867682283));
#1146=CARTESIAN_POINT('',(-5.15660951791188E-17,-6.91067016611872E-32,53.1468867682284));
#1147=CARTESIAN_POINT('',(-5.,6.12323399573677E-16,53.1468867682284));
#1148=CARTESIAN_POINT('',(5.,-1.22464679914735E-15,53.1468867682284));
#1149=CARTESIAN_POINT('',(-12.5,1.89411378443019E-15,53.1468867682284));
#1150=CARTESIAN_POINT('',(-11.5,1.08844850624868E-8,53.1468867682284));
#1151=CARTESIAN_POINT('',(-13.5,1.64458797036346E-16,53.1468867682283));
#1152=CARTESIAN_POINT('',(-5.00000000000001,0.,0.253113231771643));
#1153=CARTESIAN_POINT('',(-11.5,0.,0.253113231771643));
#1154=CARTESIAN_POINT('',(-13.5,0.,0.253113231771643));
#1155=CARTESIAN_POINT('',(-19.74929856069,0.,0.253113231771643));
#1156=CARTESIAN_POINT('',(2.54922745907612E-16,8.27084267254897E-17,0.253113231771643));
#1157=CARTESIAN_POINT('',(-19.74929856069,0.,0.253113231771643));
#1158=CARTESIAN_POINT('',(19.74929856069,2.58400838022642E-15,0.253113231771643));
#1159=CARTESIAN_POINT('',(-3.92523114670944E-17,-3.92523114670944E-17,0.253113231771641));
#1160=CARTESIAN_POINT('',(-5.,6.12323399573677E-16,0.253113231771641));
#1161=CARTESIAN_POINT('',(5.,-7.85046229341888E-17,0.253113231771641));
#1162=CARTESIAN_POINT('',(-12.5,-2.22044604925031E-16,0.253113231771637));
#1163=CARTESIAN_POINT('',(-11.5,4.49023899631359E-14,0.253113231771637));
#1164=CARTESIAN_POINT('',(-13.5,-1.71844448194261E-16,0.253113231771637));
#1165=CARTESIAN_POINT('',(-19.74929856069,0.,0.253113231771643));
#1166=CARTESIAN_POINT('',(-19.74929856069,0.,4.55778258714948));
#1167=CARTESIAN_POINT('',(6.57669111470556E-33,3.98159921860688E-16,4.55778258714948));
#1168=CARTESIAN_POINT('',(-19.74929856069,0.,4.55778258714948));
#1169=CARTESIAN_POINT('',(19.74929856069,-1.62227168305407E-15,4.55778258714948));
#1170=CARTESIAN_POINT('',(-20.3263853284474,0.,5.5846413361458));
#1171=CARTESIAN_POINT('',(-23.4132413022884,0.,7.4635971463099));
#1172=CARTESIAN_POINT('',(-3.77342654004485E-16,-3.96690001451437E-15,5.5846413361458));
#1173=CARTESIAN_POINT('',(-20.3263853284474,-1.42588684919487E-14,5.5846413361458));
#1174=CARTESIAN_POINT('',(20.3263853284474,5.22054061391814E-11,5.5846413361458));
#1175=CARTESIAN_POINT('',(3.98740967598435E-16,1.5287677331293E-16,7.46359714630992));
#1176=CARTESIAN_POINT('',(-23.4132413022885,0.,7.46359714630992));
#1177=CARTESIAN_POINT('',(23.4132413022885,3.17304864847708E-15,7.46359714630993));
#1178=CARTESIAN_POINT('',(-23.8539881662361,0.,7.93439085885887));
#1179=CARTESIAN_POINT('',(-25.6236147475026,0.,11.3261751396198));
#1180=CARTESIAN_POINT('',(1.80348574447409E-16,5.87999179842466E-16,7.93439085885892));
#1181=CARTESIAN_POINT('',(-23.8539881662361,-9.15242931442398E-15,7.93439085885892));
#1182=CARTESIAN_POINT('',(23.8539881662361,9.79960887517092E-14,7.93439085885892));
#1183=CARTESIAN_POINT('',(-1.27114645234887E-15,-3.61674568331615E-16,11.3261751396198));
#1184=CARTESIAN_POINT('',(-25.6236147475027,-1.45171586050323E-14,11.3261751396198));
#1185=CARTESIAN_POINT('',(25.6236147475027,5.55262641995958E-15,11.3261751396198));
#1186=CARTESIAN_POINT('',(-25.7599546443783,0.,11.8822401760696));
#1187=CARTESIAN_POINT('',(-25.7599546443783,0.,39.2163263036916));
#1188=CARTESIAN_POINT('',(1.74791134046396E-15,5.5804050727873E-16,11.8822401760696));
#1189=CARTESIAN_POINT('',(-25.7599546443783,-1.78579331036808E-14,11.8822401760696));
#1190=CARTESIAN_POINT('',(25.7599546443783,1.06889808145848E-14,11.8822401760696));
#1191=CARTESIAN_POINT('',(1.50199265370549E-15,5.58040507278729E-16,39.2163263036915));
#1192=CARTESIAN_POINT('',(-25.7599546443783,-1.45944025039373E-14,39.2163263036915));
#1193=CARTESIAN_POINT('',(25.7599546443783,7.42545021484123E-15,39.2163263036915));
#1194=CARTESIAN_POINT('',(-25.3620068144205,0.,40.1098634001136));
#1195=CARTESIAN_POINT('',(-22.723241860196,0.,42.4847518589157));
#1196=CARTESIAN_POINT('',(1.68542985178733E-15,5.08938972113699E-16,40.1098634001136));
#1197=CARTESIAN_POINT('',(-25.3620068144205,-1.78231448037872E-14,40.1098634001136));
#1198=CARTESIAN_POINT('',(25.3620068144205,1.06839792281101E-14,40.1098634001136));
#1199=CARTESIAN_POINT('',(-6.85353319251595E-33,-1.44504057047186E-16,42.4847518589157));
#1200=CARTESIAN_POINT('',(-22.723241860196,0.,42.4847518589157));
#1201=CARTESIAN_POINT('',(22.723241860196,-3.07180265512839E-15,42.4847518589157));
#1202=CARTESIAN_POINT('',(-22.3252940251278,0.,43.3782889553378));
#1203=CARTESIAN_POINT('',(-22.3252940251278,0.,53.1468867682283));
#1204=CARTESIAN_POINT('',(-2.26911199162466E-16,6.25611617813361E-16,43.3782889553378));
#1205=CARTESIAN_POINT('',(-22.3252940251278,-1.24151179591801E-14,43.3782889553378));
#1206=CARTESIAN_POINT('',(22.3252940251278,3.18461419117501E-11,43.3782889553378));
#1207=CARTESIAN_POINT('',(-20.9514297757167,5.8281574762388E-11,4.55778258389239));
#1208=CARTESIAN_POINT('',(-20.3263853284474,-5.2209291739357E-11,5.5846413361458));
#1209=CARTESIAN_POINT('',(-19.74929856069,-2.41859152673541E-15,4.55778258714948));
#1210=CARTESIAN_POINT('',(-22.7881968463919,-6.45186836456361E-13,8.49045589528194));
#1211=CARTESIAN_POINT('',(-23.8539881662361,-1.01570847097605E-13,7.93439085885892));
#1212=CARTESIAN_POINT('',(-23.4132413022885,-1.74999703353295E-13,7.46359714630992));
#1213=CARTESIAN_POINT('',(-24.5578234276406,-7.1780739269799E-15,11.8822401760696));
#1214=CARTESIAN_POINT('',(-25.7599546443783,-3.26353059974354E-15,11.8822401760696));
#1215=CARTESIAN_POINT('',(-25.6236147475027,-3.48983107193369E-15,11.3261751396198));
#1216=CARTESIAN_POINT('',(-24.5578234276406,-4.49353737637529E-15,39.2163263036916));
#1217=CARTESIAN_POINT('',(-25.3620068144205,-3.454201190836E-15,40.1098634001136));
#1218=CARTESIAN_POINT('',(-25.7599546443783,-3.2635306452009E-15,39.2163263036916));
#1219=CARTESIAN_POINT('',(-23.5274252576634,6.78210922201694E-11,43.3782889669729));
#1220=CARTESIAN_POINT('',(-22.3252940251278,-3.1850358808488E-11,43.3782889553378));
#1221=CARTESIAN_POINT('',(-22.723241860196,-2.78279454069229E-15,42.4847518589157));
#1222=CARTESIAN_POINT('',(-5.,6.12323399573677E-16,0.253113231771639));
#1223=CARTESIAN_POINT('',(-5.,6.12323399573677E-16,53.1468867682283));
#1224=CARTESIAN_POINT('',(11.5,1.22464679914735E-16,0.253113231771643));
#1225=CARTESIAN_POINT('',(11.5,1.22464679914735E-16,53.1468867682283));
#1226=CARTESIAN_POINT('',(-11.5,1.22464679914735E-16,0.253113231771636));
#1227=CARTESIAN_POINT('',(-11.5,1.22464679914735E-16,53.1468867682284));
#1228=CARTESIAN_POINT('',(0.,0.,0.));
ENDSEC;
END-ISO-10303-21;
