ISO-10303-21;
HEADER;
/* Generated by software containing ST-Developer
 * from STEP Tools, Inc. (www.steptools.com) 
 */
/* OPTION: using custom schema-name function */

FILE_DESCRIPTION(
/* description */ (''),
/* implementation_level */ '2;1');

FILE_NAME(
/* name */ 'table_red_bot_4',
/* time_stamp */ '2026-09-04T19:57:16+03:00',
/* author */ (''),
/* organization */ (''),
/* preprocessor_version */ 'ST-DEVELOPER v19.2',
/* originating_system */ 'Rhino 8.34',
/* authorisation */ '');

FILE_SCHEMA (('CONFIG_CONTROL_DESIGN'));
ENDSEC;

DATA;
#10=SHAPE_REPRESENTATION_RELATIONSHIP('','',#892,#74);
#11=TRIMMED_CURVE($,#31,(#1296),(#1297),.T.,.CARTESIAN.);
#12=TRIMMED_CURVE($,#32,(#1301),(#1302),.T.,.CARTESIAN.);
#13=TRIMMED_CURVE($,#33,(#1310),(#1311),.T.,.CARTESIAN.);
#14=TRIMMED_CURVE($,#34,(#1315),(#1316),.T.,.CARTESIAN.);
#15=TRIMMED_CURVE($,#35,(#1336),(#1337),.T.,.CARTESIAN.);
#16=TRIMMED_CURVE($,#36,(#1339),(#1340),.T.,.CARTESIAN.);
#17=TRIMMED_CURVE($,#37,(#1348),(#1349),.T.,.CARTESIAN.);
#18=TRIMMED_CURVE($,#38,(#1353),(#1354),.T.,.CARTESIAN.);
#19=TRIMMED_CURVE($,#39,(#1358),(#1359),.T.,.CARTESIAN.);
#20=TRIMMED_CURVE($,#40,(#1361),(#1362),.T.,.CARTESIAN.);
#21=TRIMMED_CURVE($,#41,(#1403),(#1404),.T.,.CARTESIAN.);
#22=TRIMMED_CURVE($,#42,(#1408),(#1409),.T.,.CARTESIAN.);
#23=TRIMMED_CURVE($,#43,(#1417),(#1418),.T.,.CARTESIAN.);
#24=TRIMMED_CURVE($,#44,(#1422),(#1423),.T.,.CARTESIAN.);
#25=TRIMMED_CURVE($,#45,(#1443),(#1444),.T.,.CARTESIAN.);
#26=TRIMMED_CURVE($,#46,(#1446),(#1447),.T.,.CARTESIAN.);
#27=TRIMMED_CURVE($,#47,(#1455),(#1456),.T.,.CARTESIAN.);
#28=TRIMMED_CURVE($,#48,(#1460),(#1461),.T.,.CARTESIAN.);
#29=TRIMMED_CURVE($,#49,(#1465),(#1466),.T.,.CARTESIAN.);
#30=TRIMMED_CURVE($,#50,(#1468),(#1469),.T.,.CARTESIAN.);
#31=CIRCLE('',#931,2.50077720800881);
#32=CIRCLE('',#932,2.50077720800883);
#33=CIRCLE('',#933,2.5007776354889);
#34=CIRCLE('',#934,2.5007776354889);
#35=CIRCLE('',#935,2.50077763552818);
#36=CIRCLE('',#936,2.50077763552828);
#37=CIRCLE('',#937,1.09999999999998);
#38=CIRCLE('',#938,1.09999999999998);
#39=CIRCLE('',#939,1.10000000000001);
#40=CIRCLE('',#940,1.10000000000001);
#41=CIRCLE('',#954,2.50077720800881);
#42=CIRCLE('',#955,2.50077720800881);
#43=CIRCLE('',#956,2.5007776354889);
#44=CIRCLE('',#957,2.5007776354889);
#45=CIRCLE('',#958,2.50077763552818);
#46=CIRCLE('',#959,2.50077763552828);
#47=CIRCLE('',#960,1.09999999999998);
#48=CIRCLE('',#961,1.10000000000001);
#49=CIRCLE('',#962,1.10000000000001);
#50=CIRCLE('',#963,1.10000000000001);
#51=(
BOUNDED_CURVE()
B_SPLINE_CURVE(1,(#1289,#1290),.UNSPECIFIED.,.F.,.F.)
B_SPLINE_CURVE_WITH_KNOTS((2,2),(0.,10.),.UNSPECIFIED.)
CURVE()
GEOMETRIC_REPRESENTATION_ITEM()
RATIONAL_B_SPLINE_CURVE((1.,1.))
REPRESENTATION_ITEM('')
);
#52=(
BOUNDED_CURVE()
B_SPLINE_CURVE(1,(#1298,#1299),.UNSPECIFIED.,.F.,.F.)
B_SPLINE_CURVE_WITH_KNOTS((2,2),(0.,10.),.UNSPECIFIED.)
CURVE()
GEOMETRIC_REPRESENTATION_ITEM()
RATIONAL_B_SPLINE_CURVE((1.,1.))
REPRESENTATION_ITEM('')
);
#53=(
BOUNDED_CURVE()
B_SPLINE_CURVE(1,(#1312,#1313),.UNSPECIFIED.,.F.,.F.)
B_SPLINE_CURVE_WITH_KNOTS((2,2),(0.,10.),.UNSPECIFIED.)
CURVE()
GEOMETRIC_REPRESENTATION_ITEM()
RATIONAL_B_SPLINE_CURVE((1.,1.))
REPRESENTATION_ITEM('')
);
#54=(
BOUNDED_CURVE()
B_SPLINE_CURVE(1,(#1350,#1351),.UNSPECIFIED.,.F.,.F.)
B_SPLINE_CURVE_WITH_KNOTS((2,2),(0.,4.99941753368514),.UNSPECIFIED.)
CURVE()
GEOMETRIC_REPRESENTATION_ITEM()
RATIONAL_B_SPLINE_CURVE((1.,1.))
REPRESENTATION_ITEM('')
);
#55=(
BOUNDED_CURVE()
B_SPLINE_CURVE(1,(#1355,#1356),.UNSPECIFIED.,.F.,.F.)
B_SPLINE_CURVE_WITH_KNOTS((2,2),(0.,4.99941753368514),.UNSPECIFIED.)
CURVE()
GEOMETRIC_REPRESENTATION_ITEM()
RATIONAL_B_SPLINE_CURVE((1.,1.))
REPRESENTATION_ITEM('')
);
#56=(
BOUNDED_CURVE()
B_SPLINE_CURVE(1,(#1396,#1397),.UNSPECIFIED.,.F.,.F.)
B_SPLINE_CURVE_WITH_KNOTS((2,2),(0.,10.),.UNSPECIFIED.)
CURVE()
GEOMETRIC_REPRESENTATION_ITEM()
RATIONAL_B_SPLINE_CURVE((1.,1.))
REPRESENTATION_ITEM('')
);
#57=(
BOUNDED_CURVE()
B_SPLINE_CURVE(1,(#1405,#1406),.UNSPECIFIED.,.F.,.F.)
B_SPLINE_CURVE_WITH_KNOTS((2,2),(0.,10.),.UNSPECIFIED.)
CURVE()
GEOMETRIC_REPRESENTATION_ITEM()
RATIONAL_B_SPLINE_CURVE((1.,1.))
REPRESENTATION_ITEM('')
);
#58=(
BOUNDED_CURVE()
B_SPLINE_CURVE(1,(#1419,#1420),.UNSPECIFIED.,.F.,.F.)
B_SPLINE_CURVE_WITH_KNOTS((2,2),(0.,10.),.UNSPECIFIED.)
CURVE()
GEOMETRIC_REPRESENTATION_ITEM()
RATIONAL_B_SPLINE_CURVE((1.,1.))
REPRESENTATION_ITEM('')
);
#59=(
BOUNDED_CURVE()
B_SPLINE_CURVE(1,(#1457,#1458),.UNSPECIFIED.,.F.,.F.)
B_SPLINE_CURVE_WITH_KNOTS((2,2),(0.,4.99941753368514),.UNSPECIFIED.)
CURVE()
GEOMETRIC_REPRESENTATION_ITEM()
RATIONAL_B_SPLINE_CURVE((1.,1.))
REPRESENTATION_ITEM('')
);
#60=(
BOUNDED_CURVE()
B_SPLINE_CURVE(1,(#1462,#1463),.UNSPECIFIED.,.F.,.F.)
B_SPLINE_CURVE_WITH_KNOTS((2,2),(0.,4.99941753368514),.UNSPECIFIED.)
CURVE()
GEOMETRIC_REPRESENTATION_ITEM()
RATIONAL_B_SPLINE_CURVE((1.,1.))
REPRESENTATION_ITEM('')
);
#61=CYLINDRICAL_SURFACE('',#918,2.50077720800881);
#62=CYLINDRICAL_SURFACE('',#920,2.5007776354889);
#63=CYLINDRICAL_SURFACE('',#923,2.50077763548898);
#64=CYLINDRICAL_SURFACE('',#929,1.09999999999998);
#65=CYLINDRICAL_SURFACE('',#930,1.10000000000001);
#66=CYLINDRICAL_SURFACE('',#941,2.50077720800881);
#67=CYLINDRICAL_SURFACE('',#943,2.5007776354889);
#68=CYLINDRICAL_SURFACE('',#946,2.50077763548898);
#69=CYLINDRICAL_SURFACE('',#952,1.09999999999998);
#70=CYLINDRICAL_SURFACE('',#953,1.10000000000001);
#71=MANIFOLD_SOLID_BREP('brep_1',#75);
#72=MANIFOLD_SOLID_BREP('brep_2',#76);
#73=MANIFOLD_SOLID_BREP('brep_3',#77);
#74=ADVANCED_BREP_SHAPE_REPRESENTATION('brep_rep_0',(#71,#72,#73,#964),
#891);
#75=CLOSED_SHELL('',(#82,#83,#84,#85,#86,#87,#88,#89,#90,#91,#92,#93,#94,
#95,#96,#97,#98,#99,#100,#101,#102,#103,#104,#105));
#76=CLOSED_SHELL('',(#106,#107,#108,#109,#110,#111,#112,#113,#114,#115,
#116,#117,#118));
#77=CLOSED_SHELL('',(#119,#120,#121,#122,#123,#124,#125,#126,#127,#128,
#129,#130,#131));
#78=FACE_BOUND('',#191,.T.);
#79=FACE_BOUND('',#192,.T.);
#80=FACE_BOUND('',#217,.T.);
#81=FACE_BOUND('',#231,.T.);
#82=ADVANCED_FACE('',(#132),#766,.T.);
#83=ADVANCED_FACE('',(#133),#767,.T.);
#84=ADVANCED_FACE('',(#134),#768,.T.);
#85=ADVANCED_FACE('',(#135),#769,.T.);
#86=ADVANCED_FACE('',(#136),#770,.T.);
#87=ADVANCED_FACE('',(#137),#771,.T.);
#88=ADVANCED_FACE('',(#138),#772,.T.);
#89=ADVANCED_FACE('',(#139),#773,.T.);
#90=ADVANCED_FACE('',(#140,#78,#79),#774,.T.);
#91=ADVANCED_FACE('',(#141),#775,.T.);
#92=ADVANCED_FACE('',(#142),#776,.T.);
#93=ADVANCED_FACE('',(#143),#777,.T.);
#94=ADVANCED_FACE('',(#144),#778,.T.);
#95=ADVANCED_FACE('',(#145),#779,.T.);
#96=ADVANCED_FACE('',(#146),#780,.T.);
#97=ADVANCED_FACE('',(#147),#781,.T.);
#98=ADVANCED_FACE('',(#148),#782,.T.);
#99=ADVANCED_FACE('',(#149),#783,.T.);
#100=ADVANCED_FACE('',(#150),#784,.T.);
#101=ADVANCED_FACE('',(#151),#785,.T.);
#102=ADVANCED_FACE('',(#152),#786,.T.);
#103=ADVANCED_FACE('',(#153),#787,.T.);
#104=ADVANCED_FACE('',(#154),#788,.T.);
#105=ADVANCED_FACE('',(#155),#789,.T.);
#106=ADVANCED_FACE('',(#156),#61,.T.);
#107=ADVANCED_FACE('',(#157),#790,.T.);
#108=ADVANCED_FACE('',(#158),#62,.T.);
#109=ADVANCED_FACE('',(#159),#791,.T.);
#110=ADVANCED_FACE('',(#160),#792,.T.);
#111=ADVANCED_FACE('',(#161),#63,.T.);
#112=ADVANCED_FACE('',(#162),#793,.T.);
#113=ADVANCED_FACE('',(#163),#794,.T.);
#114=ADVANCED_FACE('',(#164,#80),#795,.T.);
#115=ADVANCED_FACE('',(#165),#796,.T.);
#116=ADVANCED_FACE('',(#166),#797,.T.);
#117=ADVANCED_FACE('',(#167),#64,.F.);
#118=ADVANCED_FACE('',(#168),#65,.F.);
#119=ADVANCED_FACE('',(#169),#66,.T.);
#120=ADVANCED_FACE('',(#170),#798,.T.);
#121=ADVANCED_FACE('',(#171),#67,.T.);
#122=ADVANCED_FACE('',(#172),#799,.T.);
#123=ADVANCED_FACE('',(#173),#800,.T.);
#124=ADVANCED_FACE('',(#174),#68,.T.);
#125=ADVANCED_FACE('',(#175),#801,.T.);
#126=ADVANCED_FACE('',(#176),#802,.T.);
#127=ADVANCED_FACE('',(#177,#81),#803,.T.);
#128=ADVANCED_FACE('',(#178),#804,.T.);
#129=ADVANCED_FACE('',(#179),#805,.T.);
#130=ADVANCED_FACE('',(#180),#69,.F.);
#131=ADVANCED_FACE('',(#181),#70,.F.);
#132=FACE_OUTER_BOUND('',#182,.T.);
#133=FACE_OUTER_BOUND('',#183,.T.);
#134=FACE_OUTER_BOUND('',#184,.T.);
#135=FACE_OUTER_BOUND('',#185,.T.);
#136=FACE_OUTER_BOUND('',#186,.T.);
#137=FACE_OUTER_BOUND('',#187,.T.);
#138=FACE_OUTER_BOUND('',#188,.T.);
#139=FACE_OUTER_BOUND('',#189,.T.);
#140=FACE_OUTER_BOUND('',#190,.T.);
#141=FACE_OUTER_BOUND('',#193,.T.);
#142=FACE_OUTER_BOUND('',#194,.T.);
#143=FACE_OUTER_BOUND('',#195,.T.);
#144=FACE_OUTER_BOUND('',#196,.T.);
#145=FACE_OUTER_BOUND('',#197,.T.);
#146=FACE_OUTER_BOUND('',#198,.T.);
#147=FACE_OUTER_BOUND('',#199,.T.);
#148=FACE_OUTER_BOUND('',#200,.T.);
#149=FACE_OUTER_BOUND('',#201,.T.);
#150=FACE_OUTER_BOUND('',#202,.T.);
#151=FACE_OUTER_BOUND('',#203,.T.);
#152=FACE_OUTER_BOUND('',#204,.T.);
#153=FACE_OUTER_BOUND('',#205,.T.);
#154=FACE_OUTER_BOUND('',#206,.T.);
#155=FACE_OUTER_BOUND('',#207,.T.);
#156=FACE_OUTER_BOUND('',#208,.T.);
#157=FACE_OUTER_BOUND('',#209,.T.);
#158=FACE_OUTER_BOUND('',#210,.T.);
#159=FACE_OUTER_BOUND('',#211,.T.);
#160=FACE_OUTER_BOUND('',#212,.T.);
#161=FACE_OUTER_BOUND('',#213,.T.);
#162=FACE_OUTER_BOUND('',#214,.T.);
#163=FACE_OUTER_BOUND('',#215,.T.);
#164=FACE_OUTER_BOUND('',#216,.T.);
#165=FACE_OUTER_BOUND('',#218,.T.);
#166=FACE_OUTER_BOUND('',#219,.T.);
#167=FACE_OUTER_BOUND('',#220,.T.);
#168=FACE_OUTER_BOUND('',#221,.T.);
#169=FACE_OUTER_BOUND('',#222,.T.);
#170=FACE_OUTER_BOUND('',#223,.T.);
#171=FACE_OUTER_BOUND('',#224,.T.);
#172=FACE_OUTER_BOUND('',#225,.T.);
#173=FACE_OUTER_BOUND('',#226,.T.);
#174=FACE_OUTER_BOUND('',#227,.T.);
#175=FACE_OUTER_BOUND('',#228,.T.);
#176=FACE_OUTER_BOUND('',#229,.T.);
#177=FACE_OUTER_BOUND('',#230,.T.);
#178=FACE_OUTER_BOUND('',#232,.T.);
#179=FACE_OUTER_BOUND('',#233,.T.);
#180=FACE_OUTER_BOUND('',#234,.T.);
#181=FACE_OUTER_BOUND('',#235,.T.);
#182=EDGE_LOOP('',(#236,#237,#238,#239,#240,#241,#242,#243,#244,#245,#246,
#247));
#183=EDGE_LOOP('',(#248,#249,#250,#251));
#184=EDGE_LOOP('',(#252,#253,#254,#255));
#185=EDGE_LOOP('',(#256,#257,#258,#259));
#186=EDGE_LOOP('',(#260,#261,#262,#263));
#187=EDGE_LOOP('',(#264,#265,#266,#267));
#188=EDGE_LOOP('',(#268,#269,#270,#271));
#189=EDGE_LOOP('',(#272,#273,#274,#275));
#190=EDGE_LOOP('',(#276,#277,#278,#279,#280,#281,#282,#283,#284,#285,#286,
#287));
#191=EDGE_LOOP('',(#288,#289,#290,#291));
#192=EDGE_LOOP('',(#292,#293,#294,#295));
#193=EDGE_LOOP('',(#296,#297,#298,#299));
#194=EDGE_LOOP('',(#300,#301,#302,#303));
#195=EDGE_LOOP('',(#304,#305,#306,#307));
#196=EDGE_LOOP('',(#308,#309,#310,#311));
#197=EDGE_LOOP('',(#312,#313,#314,#315));
#198=EDGE_LOOP('',(#316,#317,#318,#319));
#199=EDGE_LOOP('',(#320,#321,#322,#323));
#200=EDGE_LOOP('',(#324,#325,#326,#327));
#201=EDGE_LOOP('',(#328,#329,#330,#331));
#202=EDGE_LOOP('',(#332,#333,#334,#335));
#203=EDGE_LOOP('',(#336,#337,#338,#339));
#204=EDGE_LOOP('',(#340,#341,#342,#343));
#205=EDGE_LOOP('',(#344,#345,#346,#347));
#206=EDGE_LOOP('',(#348,#349,#350,#351));
#207=EDGE_LOOP('',(#352,#353,#354,#355));
#208=EDGE_LOOP('',(#356,#357,#358,#359));
#209=EDGE_LOOP('',(#360,#361,#362,#363));
#210=EDGE_LOOP('',(#364,#365,#366,#367));
#211=EDGE_LOOP('',(#368,#369,#370,#371));
#212=EDGE_LOOP('',(#372,#373,#374,#375));
#213=EDGE_LOOP('',(#376,#377,#378,#379));
#214=EDGE_LOOP('',(#380,#381,#382,#383));
#215=EDGE_LOOP('',(#384,#385,#386,#387));
#216=EDGE_LOOP('',(#388,#389,#390,#391,#392,#393,#394,#395));
#217=EDGE_LOOP('',(#396,#397));
#218=EDGE_LOOP('',(#398,#399,#400,#401,#402,#403,#404,#405));
#219=EDGE_LOOP('',(#406,#407));
#220=EDGE_LOOP('',(#408,#409,#410,#411));
#221=EDGE_LOOP('',(#412,#413,#414,#415));
#222=EDGE_LOOP('',(#416,#417,#418,#419));
#223=EDGE_LOOP('',(#420,#421,#422,#423));
#224=EDGE_LOOP('',(#424,#425,#426,#427));
#225=EDGE_LOOP('',(#428,#429,#430,#431));
#226=EDGE_LOOP('',(#432,#433,#434,#435));
#227=EDGE_LOOP('',(#436,#437,#438,#439));
#228=EDGE_LOOP('',(#440,#441,#442,#443));
#229=EDGE_LOOP('',(#444,#445,#446,#447));
#230=EDGE_LOOP('',(#448,#449,#450,#451,#452,#453,#454,#455));
#231=EDGE_LOOP('',(#456,#457));
#232=EDGE_LOOP('',(#458,#459,#460,#461,#462,#463,#464,#465));
#233=EDGE_LOOP('',(#466,#467));
#234=EDGE_LOOP('',(#468,#469,#470,#471));
#235=EDGE_LOOP('',(#472,#473,#474,#475));
#236=ORIENTED_EDGE('',*,*,#487,.F.);
#237=ORIENTED_EDGE('',*,*,#486,.F.);
#238=ORIENTED_EDGE('',*,*,#485,.F.);
#239=ORIENTED_EDGE('',*,*,#484,.F.);
#240=ORIENTED_EDGE('',*,*,#483,.F.);
#241=ORIENTED_EDGE('',*,*,#482,.F.);
#242=ORIENTED_EDGE('',*,*,#481,.F.);
#243=ORIENTED_EDGE('',*,*,#480,.F.);
#244=ORIENTED_EDGE('',*,*,#479,.F.);
#245=ORIENTED_EDGE('',*,*,#478,.F.);
#246=ORIENTED_EDGE('',*,*,#477,.F.);
#247=ORIENTED_EDGE('',*,*,#476,.F.);
#248=ORIENTED_EDGE('',*,*,#488,.F.);
#249=ORIENTED_EDGE('',*,*,#525,.F.);
#250=ORIENTED_EDGE('',*,*,#476,.T.);
#251=ORIENTED_EDGE('',*,*,#524,.T.);
#252=ORIENTED_EDGE('',*,*,#490,.F.);
#253=ORIENTED_EDGE('',*,*,#526,.F.);
#254=ORIENTED_EDGE('',*,*,#478,.T.);
#255=ORIENTED_EDGE('',*,*,#527,.T.);
#256=ORIENTED_EDGE('',*,*,#493,.F.);
#257=ORIENTED_EDGE('',*,*,#529,.F.);
#258=ORIENTED_EDGE('',*,*,#481,.T.);
#259=ORIENTED_EDGE('',*,*,#530,.T.);
#260=ORIENTED_EDGE('',*,*,#494,.F.);
#261=ORIENTED_EDGE('',*,*,#530,.F.);
#262=ORIENTED_EDGE('',*,*,#482,.T.);
#263=ORIENTED_EDGE('',*,*,#531,.T.);
#264=ORIENTED_EDGE('',*,*,#496,.F.);
#265=ORIENTED_EDGE('',*,*,#532,.F.);
#266=ORIENTED_EDGE('',*,*,#484,.T.);
#267=ORIENTED_EDGE('',*,*,#533,.T.);
#268=ORIENTED_EDGE('',*,*,#497,.F.);
#269=ORIENTED_EDGE('',*,*,#533,.F.);
#270=ORIENTED_EDGE('',*,*,#485,.T.);
#271=ORIENTED_EDGE('',*,*,#534,.T.);
#272=ORIENTED_EDGE('',*,*,#498,.F.);
#273=ORIENTED_EDGE('',*,*,#534,.F.);
#274=ORIENTED_EDGE('',*,*,#486,.T.);
#275=ORIENTED_EDGE('',*,*,#535,.T.);
#276=ORIENTED_EDGE('',*,*,#488,.T.);
#277=ORIENTED_EDGE('',*,*,#489,.T.);
#278=ORIENTED_EDGE('',*,*,#490,.T.);
#279=ORIENTED_EDGE('',*,*,#491,.T.);
#280=ORIENTED_EDGE('',*,*,#492,.T.);
#281=ORIENTED_EDGE('',*,*,#493,.T.);
#282=ORIENTED_EDGE('',*,*,#494,.T.);
#283=ORIENTED_EDGE('',*,*,#495,.T.);
#284=ORIENTED_EDGE('',*,*,#496,.T.);
#285=ORIENTED_EDGE('',*,*,#497,.T.);
#286=ORIENTED_EDGE('',*,*,#498,.T.);
#287=ORIENTED_EDGE('',*,*,#499,.T.);
#288=ORIENTED_EDGE('',*,*,#502,.F.);
#289=ORIENTED_EDGE('',*,*,#501,.F.);
#290=ORIENTED_EDGE('',*,*,#500,.F.);
#291=ORIENTED_EDGE('',*,*,#503,.F.);
#292=ORIENTED_EDGE('',*,*,#506,.F.);
#293=ORIENTED_EDGE('',*,*,#505,.F.);
#294=ORIENTED_EDGE('',*,*,#504,.F.);
#295=ORIENTED_EDGE('',*,*,#507,.F.);
#296=ORIENTED_EDGE('',*,*,#509,.F.);
#297=ORIENTED_EDGE('',*,*,#510,.F.);
#298=ORIENTED_EDGE('',*,*,#511,.F.);
#299=ORIENTED_EDGE('',*,*,#508,.F.);
#300=ORIENTED_EDGE('',*,*,#512,.F.);
#301=ORIENTED_EDGE('',*,*,#513,.F.);
#302=ORIENTED_EDGE('',*,*,#514,.F.);
#303=ORIENTED_EDGE('',*,*,#515,.F.);
#304=ORIENTED_EDGE('',*,*,#524,.F.);
#305=ORIENTED_EDGE('',*,*,#477,.T.);
#306=ORIENTED_EDGE('',*,*,#526,.T.);
#307=ORIENTED_EDGE('',*,*,#489,.F.);
#308=ORIENTED_EDGE('',*,*,#527,.F.);
#309=ORIENTED_EDGE('',*,*,#479,.T.);
#310=ORIENTED_EDGE('',*,*,#528,.T.);
#311=ORIENTED_EDGE('',*,*,#491,.F.);
#312=ORIENTED_EDGE('',*,*,#528,.F.);
#313=ORIENTED_EDGE('',*,*,#480,.T.);
#314=ORIENTED_EDGE('',*,*,#529,.T.);
#315=ORIENTED_EDGE('',*,*,#492,.F.);
#316=ORIENTED_EDGE('',*,*,#531,.F.);
#317=ORIENTED_EDGE('',*,*,#483,.T.);
#318=ORIENTED_EDGE('',*,*,#532,.T.);
#319=ORIENTED_EDGE('',*,*,#495,.F.);
#320=ORIENTED_EDGE('',*,*,#535,.F.);
#321=ORIENTED_EDGE('',*,*,#487,.T.);
#322=ORIENTED_EDGE('',*,*,#525,.T.);
#323=ORIENTED_EDGE('',*,*,#499,.F.);
#324=ORIENTED_EDGE('',*,*,#508,.T.);
#325=ORIENTED_EDGE('',*,*,#517,.T.);
#326=ORIENTED_EDGE('',*,*,#500,.T.);
#327=ORIENTED_EDGE('',*,*,#516,.F.);
#328=ORIENTED_EDGE('',*,*,#509,.T.);
#329=ORIENTED_EDGE('',*,*,#516,.T.);
#330=ORIENTED_EDGE('',*,*,#501,.T.);
#331=ORIENTED_EDGE('',*,*,#518,.F.);
#332=ORIENTED_EDGE('',*,*,#510,.T.);
#333=ORIENTED_EDGE('',*,*,#518,.T.);
#334=ORIENTED_EDGE('',*,*,#502,.T.);
#335=ORIENTED_EDGE('',*,*,#519,.F.);
#336=ORIENTED_EDGE('',*,*,#511,.T.);
#337=ORIENTED_EDGE('',*,*,#519,.T.);
#338=ORIENTED_EDGE('',*,*,#503,.T.);
#339=ORIENTED_EDGE('',*,*,#517,.F.);
#340=ORIENTED_EDGE('',*,*,#512,.T.);
#341=ORIENTED_EDGE('',*,*,#521,.T.);
#342=ORIENTED_EDGE('',*,*,#504,.T.);
#343=ORIENTED_EDGE('',*,*,#520,.F.);
#344=ORIENTED_EDGE('',*,*,#513,.T.);
#345=ORIENTED_EDGE('',*,*,#520,.T.);
#346=ORIENTED_EDGE('',*,*,#505,.T.);
#347=ORIENTED_EDGE('',*,*,#522,.F.);
#348=ORIENTED_EDGE('',*,*,#514,.T.);
#349=ORIENTED_EDGE('',*,*,#522,.T.);
#350=ORIENTED_EDGE('',*,*,#506,.T.);
#351=ORIENTED_EDGE('',*,*,#523,.F.);
#352=ORIENTED_EDGE('',*,*,#515,.T.);
#353=ORIENTED_EDGE('',*,*,#523,.T.);
#354=ORIENTED_EDGE('',*,*,#507,.T.);
#355=ORIENTED_EDGE('',*,*,#521,.F.);
#356=ORIENTED_EDGE('',*,*,#539,.T.);
#357=ORIENTED_EDGE('',*,*,#540,.T.);
#358=ORIENTED_EDGE('',*,*,#541,.F.);
#359=ORIENTED_EDGE('',*,*,#538,.F.);
#360=ORIENTED_EDGE('',*,*,#542,.T.);
#361=ORIENTED_EDGE('',*,*,#543,.T.);
#362=ORIENTED_EDGE('',*,*,#544,.F.);
#363=ORIENTED_EDGE('',*,*,#540,.F.);
#364=ORIENTED_EDGE('',*,*,#545,.T.);
#365=ORIENTED_EDGE('',*,*,#546,.T.);
#366=ORIENTED_EDGE('',*,*,#547,.F.);
#367=ORIENTED_EDGE('',*,*,#543,.F.);
#368=ORIENTED_EDGE('',*,*,#548,.T.);
#369=ORIENTED_EDGE('',*,*,#536,.T.);
#370=ORIENTED_EDGE('',*,*,#549,.F.);
#371=ORIENTED_EDGE('',*,*,#546,.F.);
#372=ORIENTED_EDGE('',*,*,#537,.T.);
#373=ORIENTED_EDGE('',*,*,#554,.T.);
#374=ORIENTED_EDGE('',*,*,#552,.T.);
#375=ORIENTED_EDGE('',*,*,#555,.F.);
#376=ORIENTED_EDGE('',*,*,#557,.F.);
#377=ORIENTED_EDGE('',*,*,#536,.F.);
#378=ORIENTED_EDGE('',*,*,#556,.T.);
#379=ORIENTED_EDGE('',*,*,#553,.T.);
#380=ORIENTED_EDGE('',*,*,#559,.T.);
#381=ORIENTED_EDGE('',*,*,#537,.F.);
#382=ORIENTED_EDGE('',*,*,#558,.F.);
#383=ORIENTED_EDGE('',*,*,#538,.T.);
#384=ORIENTED_EDGE('',*,*,#551,.F.);
#385=ORIENTED_EDGE('',*,*,#552,.F.);
#386=ORIENTED_EDGE('',*,*,#550,.T.);
#387=ORIENTED_EDGE('',*,*,#553,.F.);
#388=ORIENTED_EDGE('',*,*,#555,.T.);
#389=ORIENTED_EDGE('',*,*,#551,.T.);
#390=ORIENTED_EDGE('',*,*,#556,.F.);
#391=ORIENTED_EDGE('',*,*,#548,.F.);
#392=ORIENTED_EDGE('',*,*,#545,.F.);
#393=ORIENTED_EDGE('',*,*,#542,.F.);
#394=ORIENTED_EDGE('',*,*,#539,.F.);
#395=ORIENTED_EDGE('',*,*,#558,.T.);
#396=ORIENTED_EDGE('',*,*,#565,.F.);
#397=ORIENTED_EDGE('',*,*,#562,.F.);
#398=ORIENTED_EDGE('',*,*,#559,.F.);
#399=ORIENTED_EDGE('',*,*,#541,.T.);
#400=ORIENTED_EDGE('',*,*,#544,.T.);
#401=ORIENTED_EDGE('',*,*,#547,.T.);
#402=ORIENTED_EDGE('',*,*,#549,.T.);
#403=ORIENTED_EDGE('',*,*,#557,.T.);
#404=ORIENTED_EDGE('',*,*,#550,.F.);
#405=ORIENTED_EDGE('',*,*,#554,.F.);
#406=ORIENTED_EDGE('',*,*,#560,.T.);
#407=ORIENTED_EDGE('',*,*,#564,.T.);
#408=ORIENTED_EDGE('',*,*,#560,.F.);
#409=ORIENTED_EDGE('',*,*,#561,.T.);
#410=ORIENTED_EDGE('',*,*,#562,.T.);
#411=ORIENTED_EDGE('',*,*,#563,.F.);
#412=ORIENTED_EDGE('',*,*,#563,.T.);
#413=ORIENTED_EDGE('',*,*,#565,.T.);
#414=ORIENTED_EDGE('',*,*,#561,.F.);
#415=ORIENTED_EDGE('',*,*,#564,.F.);
#416=ORIENTED_EDGE('',*,*,#569,.T.);
#417=ORIENTED_EDGE('',*,*,#570,.T.);
#418=ORIENTED_EDGE('',*,*,#571,.F.);
#419=ORIENTED_EDGE('',*,*,#568,.F.);
#420=ORIENTED_EDGE('',*,*,#572,.T.);
#421=ORIENTED_EDGE('',*,*,#573,.T.);
#422=ORIENTED_EDGE('',*,*,#574,.F.);
#423=ORIENTED_EDGE('',*,*,#570,.F.);
#424=ORIENTED_EDGE('',*,*,#575,.T.);
#425=ORIENTED_EDGE('',*,*,#576,.T.);
#426=ORIENTED_EDGE('',*,*,#577,.F.);
#427=ORIENTED_EDGE('',*,*,#573,.F.);
#428=ORIENTED_EDGE('',*,*,#578,.T.);
#429=ORIENTED_EDGE('',*,*,#566,.T.);
#430=ORIENTED_EDGE('',*,*,#579,.F.);
#431=ORIENTED_EDGE('',*,*,#576,.F.);
#432=ORIENTED_EDGE('',*,*,#567,.T.);
#433=ORIENTED_EDGE('',*,*,#584,.T.);
#434=ORIENTED_EDGE('',*,*,#582,.T.);
#435=ORIENTED_EDGE('',*,*,#585,.F.);
#436=ORIENTED_EDGE('',*,*,#587,.F.);
#437=ORIENTED_EDGE('',*,*,#566,.F.);
#438=ORIENTED_EDGE('',*,*,#586,.T.);
#439=ORIENTED_EDGE('',*,*,#583,.T.);
#440=ORIENTED_EDGE('',*,*,#589,.T.);
#441=ORIENTED_EDGE('',*,*,#567,.F.);
#442=ORIENTED_EDGE('',*,*,#588,.F.);
#443=ORIENTED_EDGE('',*,*,#568,.T.);
#444=ORIENTED_EDGE('',*,*,#581,.F.);
#445=ORIENTED_EDGE('',*,*,#582,.F.);
#446=ORIENTED_EDGE('',*,*,#580,.T.);
#447=ORIENTED_EDGE('',*,*,#583,.F.);
#448=ORIENTED_EDGE('',*,*,#585,.T.);
#449=ORIENTED_EDGE('',*,*,#581,.T.);
#450=ORIENTED_EDGE('',*,*,#586,.F.);
#451=ORIENTED_EDGE('',*,*,#578,.F.);
#452=ORIENTED_EDGE('',*,*,#575,.F.);
#453=ORIENTED_EDGE('',*,*,#572,.F.);
#454=ORIENTED_EDGE('',*,*,#569,.F.);
#455=ORIENTED_EDGE('',*,*,#588,.T.);
#456=ORIENTED_EDGE('',*,*,#595,.F.);
#457=ORIENTED_EDGE('',*,*,#592,.F.);
#458=ORIENTED_EDGE('',*,*,#589,.F.);
#459=ORIENTED_EDGE('',*,*,#571,.T.);
#460=ORIENTED_EDGE('',*,*,#574,.T.);
#461=ORIENTED_EDGE('',*,*,#577,.T.);
#462=ORIENTED_EDGE('',*,*,#579,.T.);
#463=ORIENTED_EDGE('',*,*,#587,.T.);
#464=ORIENTED_EDGE('',*,*,#580,.F.);
#465=ORIENTED_EDGE('',*,*,#584,.F.);
#466=ORIENTED_EDGE('',*,*,#590,.T.);
#467=ORIENTED_EDGE('',*,*,#594,.T.);
#468=ORIENTED_EDGE('',*,*,#590,.F.);
#469=ORIENTED_EDGE('',*,*,#591,.T.);
#470=ORIENTED_EDGE('',*,*,#592,.T.);
#471=ORIENTED_EDGE('',*,*,#593,.F.);
#472=ORIENTED_EDGE('',*,*,#593,.T.);
#473=ORIENTED_EDGE('',*,*,#595,.T.);
#474=ORIENTED_EDGE('',*,*,#591,.F.);
#475=ORIENTED_EDGE('',*,*,#594,.F.);
#476=EDGE_CURVE('',#686,#687,#596,.T.);
#477=EDGE_CURVE('',#687,#688,#597,.T.);
#478=EDGE_CURVE('',#688,#689,#598,.T.);
#479=EDGE_CURVE('',#689,#690,#599,.T.);
#480=EDGE_CURVE('',#690,#691,#600,.T.);
#481=EDGE_CURVE('',#691,#692,#601,.T.);
#482=EDGE_CURVE('',#692,#693,#602,.T.);
#483=EDGE_CURVE('',#693,#694,#603,.T.);
#484=EDGE_CURVE('',#694,#695,#604,.T.);
#485=EDGE_CURVE('',#695,#696,#605,.T.);
#486=EDGE_CURVE('',#696,#697,#606,.T.);
#487=EDGE_CURVE('',#697,#686,#607,.T.);
#488=EDGE_CURVE('',#699,#698,#608,.T.);
#489=EDGE_CURVE('',#698,#700,#609,.T.);
#490=EDGE_CURVE('',#700,#701,#610,.T.);
#491=EDGE_CURVE('',#701,#702,#611,.T.);
#492=EDGE_CURVE('',#702,#703,#612,.T.);
#493=EDGE_CURVE('',#703,#704,#613,.T.);
#494=EDGE_CURVE('',#704,#705,#614,.T.);
#495=EDGE_CURVE('',#705,#706,#615,.T.);
#496=EDGE_CURVE('',#706,#707,#616,.T.);
#497=EDGE_CURVE('',#707,#708,#617,.T.);
#498=EDGE_CURVE('',#708,#709,#618,.T.);
#499=EDGE_CURVE('',#709,#699,#619,.T.);
#500=EDGE_CURVE('',#710,#711,#620,.T.);
#501=EDGE_CURVE('',#711,#712,#621,.T.);
#502=EDGE_CURVE('',#712,#713,#622,.T.);
#503=EDGE_CURVE('',#713,#710,#623,.T.);
#504=EDGE_CURVE('',#714,#715,#624,.T.);
#505=EDGE_CURVE('',#715,#716,#625,.T.);
#506=EDGE_CURVE('',#716,#717,#626,.T.);
#507=EDGE_CURVE('',#717,#714,#627,.T.);
#508=EDGE_CURVE('',#718,#719,#628,.T.);
#509=EDGE_CURVE('',#720,#718,#629,.T.);
#510=EDGE_CURVE('',#721,#720,#630,.T.);
#511=EDGE_CURVE('',#719,#721,#631,.T.);
#512=EDGE_CURVE('',#722,#723,#632,.T.);
#513=EDGE_CURVE('',#724,#722,#633,.T.);
#514=EDGE_CURVE('',#725,#724,#634,.T.);
#515=EDGE_CURVE('',#723,#725,#635,.T.);
#516=EDGE_CURVE('',#718,#711,#636,.T.);
#517=EDGE_CURVE('',#719,#710,#637,.T.);
#518=EDGE_CURVE('',#720,#712,#638,.T.);
#519=EDGE_CURVE('',#721,#713,#639,.T.);
#520=EDGE_CURVE('',#722,#715,#640,.T.);
#521=EDGE_CURVE('',#723,#714,#641,.T.);
#522=EDGE_CURVE('',#724,#716,#642,.T.);
#523=EDGE_CURVE('',#725,#717,#643,.T.);
#524=EDGE_CURVE('',#687,#698,#644,.T.);
#525=EDGE_CURVE('',#686,#699,#645,.T.);
#526=EDGE_CURVE('',#688,#700,#646,.T.);
#527=EDGE_CURVE('',#689,#701,#647,.T.);
#528=EDGE_CURVE('',#690,#702,#648,.T.);
#529=EDGE_CURVE('',#691,#703,#649,.T.);
#530=EDGE_CURVE('',#692,#704,#650,.T.);
#531=EDGE_CURVE('',#693,#705,#651,.T.);
#532=EDGE_CURVE('',#694,#706,#652,.T.);
#533=EDGE_CURVE('',#695,#707,#653,.T.);
#534=EDGE_CURVE('',#696,#708,#654,.T.);
#535=EDGE_CURVE('',#697,#709,#655,.T.);
#536=EDGE_CURVE('',#726,#727,#51,.T.);
#537=EDGE_CURVE('',#728,#729,#656,.T.);
#538=EDGE_CURVE('',#730,#731,#657,.T.);
#539=EDGE_CURVE('',#730,#732,#11,.T.);
#540=EDGE_CURVE('',#732,#733,#52,.T.);
#541=EDGE_CURVE('',#731,#733,#12,.T.);
#542=EDGE_CURVE('',#732,#734,#658,.T.);
#543=EDGE_CURVE('',#734,#735,#659,.T.);
#544=EDGE_CURVE('',#733,#735,#660,.T.);
#545=EDGE_CURVE('',#734,#736,#13,.T.);
#546=EDGE_CURVE('',#736,#737,#53,.T.);
#547=EDGE_CURVE('',#735,#737,#14,.T.);
#548=EDGE_CURVE('',#736,#726,#661,.T.);
#549=EDGE_CURVE('',#737,#727,#662,.T.);
#550=EDGE_CURVE('',#738,#741,#663,.T.);
#551=EDGE_CURVE('',#739,#740,#664,.T.);
#552=EDGE_CURVE('',#738,#739,#665,.T.);
#553=EDGE_CURVE('',#740,#741,#666,.T.);
#554=EDGE_CURVE('',#729,#738,#667,.T.);
#555=EDGE_CURVE('',#728,#739,#668,.T.);
#556=EDGE_CURVE('',#726,#740,#15,.T.);
#557=EDGE_CURVE('',#727,#741,#16,.T.);
#558=EDGE_CURVE('',#730,#728,#669,.T.);
#559=EDGE_CURVE('',#731,#729,#670,.T.);
#560=EDGE_CURVE('',#742,#744,#17,.T.);
#561=EDGE_CURVE('',#742,#743,#54,.T.);
#562=EDGE_CURVE('',#743,#745,#18,.T.);
#563=EDGE_CURVE('',#744,#745,#55,.T.);
#564=EDGE_CURVE('',#744,#742,#19,.T.);
#565=EDGE_CURVE('',#745,#743,#20,.T.);
#566=EDGE_CURVE('',#746,#747,#56,.T.);
#567=EDGE_CURVE('',#748,#749,#671,.T.);
#568=EDGE_CURVE('',#750,#751,#672,.T.);
#569=EDGE_CURVE('',#750,#752,#21,.T.);
#570=EDGE_CURVE('',#752,#753,#57,.T.);
#571=EDGE_CURVE('',#751,#753,#22,.T.);
#572=EDGE_CURVE('',#752,#754,#673,.T.);
#573=EDGE_CURVE('',#754,#755,#674,.T.);
#574=EDGE_CURVE('',#753,#755,#675,.T.);
#575=EDGE_CURVE('',#754,#756,#23,.T.);
#576=EDGE_CURVE('',#756,#757,#58,.T.);
#577=EDGE_CURVE('',#755,#757,#24,.T.);
#578=EDGE_CURVE('',#756,#746,#676,.T.);
#579=EDGE_CURVE('',#757,#747,#677,.T.);
#580=EDGE_CURVE('',#758,#761,#678,.T.);
#581=EDGE_CURVE('',#759,#760,#679,.T.);
#582=EDGE_CURVE('',#758,#759,#680,.T.);
#583=EDGE_CURVE('',#760,#761,#681,.T.);
#584=EDGE_CURVE('',#749,#758,#682,.T.);
#585=EDGE_CURVE('',#748,#759,#683,.T.);
#586=EDGE_CURVE('',#746,#760,#25,.T.);
#587=EDGE_CURVE('',#747,#761,#26,.T.);
#588=EDGE_CURVE('',#750,#748,#684,.T.);
#589=EDGE_CURVE('',#751,#749,#685,.T.);
#590=EDGE_CURVE('',#762,#764,#27,.T.);
#591=EDGE_CURVE('',#762,#763,#59,.T.);
#592=EDGE_CURVE('',#763,#765,#28,.T.);
#593=EDGE_CURVE('',#764,#765,#60,.T.);
#594=EDGE_CURVE('',#764,#762,#29,.T.);
#595=EDGE_CURVE('',#765,#763,#30,.T.);
#596=B_SPLINE_CURVE_WITH_KNOTS('',1,(#1124,#1125),.UNSPECIFIED.,.F.,.F.,
(2,2),(10.,12.),.UNSPECIFIED.);
#597=B_SPLINE_CURVE_WITH_KNOTS('',1,(#1126,#1127),.UNSPECIFIED.,.F.,.F.,
(2,2),(12.,22.),.UNSPECIFIED.);
#598=B_SPLINE_CURVE_WITH_KNOTS('',1,(#1128,#1129),.UNSPECIFIED.,.F.,.F.,
(2,2),(22.,24.),.UNSPECIFIED.);
#599=B_SPLINE_CURVE_WITH_KNOTS('',1,(#1130,#1131),.UNSPECIFIED.,.F.,.F.,
(2,2),(24.,46.),.UNSPECIFIED.);
#600=B_SPLINE_CURVE_WITH_KNOTS('',1,(#1132,#1133),.UNSPECIFIED.,.F.,.F.,
(2,2),(46.,48.),.UNSPECIFIED.);
#601=B_SPLINE_CURVE_WITH_KNOTS('',1,(#1134,#1135),.UNSPECIFIED.,.F.,.F.,
(2,2),(48.,58.),.UNSPECIFIED.);
#602=B_SPLINE_CURVE_WITH_KNOTS('',1,(#1136,#1137),.UNSPECIFIED.,.F.,.F.,
(2,2),(58.,60.),.UNSPECIFIED.);
#603=B_SPLINE_CURVE_WITH_KNOTS('',1,(#1138,#1139),.UNSPECIFIED.,.F.,.F.,
(2,2),(60.,71.),.UNSPECIFIED.);
#604=B_SPLINE_CURVE_WITH_KNOTS('',1,(#1140,#1141),.UNSPECIFIED.,.F.,.F.,
(2,2),(71.,194.),.UNSPECIFIED.);
#605=B_SPLINE_CURVE_WITH_KNOTS('',1,(#1142,#1143),.UNSPECIFIED.,.F.,.F.,
(2,2),(194.,254.),.UNSPECIFIED.);
#606=B_SPLINE_CURVE_WITH_KNOTS('',1,(#1144,#1145),.UNSPECIFIED.,.F.,.F.,
(2,2),(254.,377.),.UNSPECIFIED.);
#607=B_SPLINE_CURVE_WITH_KNOTS('',1,(#1146,#1147),.UNSPECIFIED.,.F.,.F.,
(2,2),(377.,388.),.UNSPECIFIED.);
#608=B_SPLINE_CURVE_WITH_KNOTS('',1,(#1148,#1149),.UNSPECIFIED.,.F.,.F.,
(2,2),(10.,12.),.UNSPECIFIED.);
#609=B_SPLINE_CURVE_WITH_KNOTS('',1,(#1150,#1151),.UNSPECIFIED.,.F.,.F.,
(2,2),(12.,22.),.UNSPECIFIED.);
#610=B_SPLINE_CURVE_WITH_KNOTS('',1,(#1152,#1153),.UNSPECIFIED.,.F.,.F.,
(2,2),(22.,24.),.UNSPECIFIED.);
#611=B_SPLINE_CURVE_WITH_KNOTS('',1,(#1154,#1155),.UNSPECIFIED.,.F.,.F.,
(2,2),(24.,46.),.UNSPECIFIED.);
#612=B_SPLINE_CURVE_WITH_KNOTS('',1,(#1156,#1157),.UNSPECIFIED.,.F.,.F.,
(2,2),(46.,48.),.UNSPECIFIED.);
#613=B_SPLINE_CURVE_WITH_KNOTS('',1,(#1158,#1159),.UNSPECIFIED.,.F.,.F.,
(2,2),(48.,58.),.UNSPECIFIED.);
#614=B_SPLINE_CURVE_WITH_KNOTS('',1,(#1160,#1161),.UNSPECIFIED.,.F.,.F.,
(2,2),(58.,60.),.UNSPECIFIED.);
#615=B_SPLINE_CURVE_WITH_KNOTS('',1,(#1162,#1163),.UNSPECIFIED.,.F.,.F.,
(2,2),(60.,71.),.UNSPECIFIED.);
#616=B_SPLINE_CURVE_WITH_KNOTS('',1,(#1164,#1165),.UNSPECIFIED.,.F.,.F.,
(2,2),(71.,194.),.UNSPECIFIED.);
#617=B_SPLINE_CURVE_WITH_KNOTS('',1,(#1166,#1167),.UNSPECIFIED.,.F.,.F.,
(2,2),(194.,254.),.UNSPECIFIED.);
#618=B_SPLINE_CURVE_WITH_KNOTS('',1,(#1168,#1169),.UNSPECIFIED.,.F.,.F.,
(2,2),(254.,377.),.UNSPECIFIED.);
#619=B_SPLINE_CURVE_WITH_KNOTS('',1,(#1170,#1171),.UNSPECIFIED.,.F.,.F.,
(2,2),(377.,388.),.UNSPECIFIED.);
#620=B_SPLINE_CURVE_WITH_KNOTS('',1,(#1172,#1173),.UNSPECIFIED.,.F.,.F.,
(2,2),(-108.,-54.),.UNSPECIFIED.);
#621=B_SPLINE_CURVE_WITH_KNOTS('',1,(#1174,#1175),.UNSPECIFIED.,.F.,.F.,
(2,2),(-54.,2.99999999999999),.UNSPECIFIED.);
#622=B_SPLINE_CURVE_WITH_KNOTS('',1,(#1176,#1177),.UNSPECIFIED.,.F.,.F.,
(2,2),(2.99999999999999,57.),.UNSPECIFIED.);
#623=B_SPLINE_CURVE_WITH_KNOTS('',1,(#1178,#1179),.UNSPECIFIED.,.F.,.F.,
(2,2),(57.,114.),.UNSPECIFIED.);
#624=B_SPLINE_CURVE_WITH_KNOTS('',1,(#1180,#1181),.UNSPECIFIED.,.F.,.F.,
(2,2),(63.,117.),.UNSPECIFIED.);
#625=B_SPLINE_CURVE_WITH_KNOTS('',1,(#1182,#1183),.UNSPECIFIED.,.F.,.F.,
(2,2),(117.,174.),.UNSPECIFIED.);
#626=B_SPLINE_CURVE_WITH_KNOTS('',1,(#1184,#1185),.UNSPECIFIED.,.F.,.F.,
(2,2),(174.,228.),.UNSPECIFIED.);
#627=B_SPLINE_CURVE_WITH_KNOTS('',1,(#1186,#1187),.UNSPECIFIED.,.F.,.F.,
(2,2),(228.,285.),.UNSPECIFIED.);
#628=B_SPLINE_CURVE_WITH_KNOTS('',1,(#1188,#1189),.UNSPECIFIED.,.F.,.F.,
(2,2),(54.,108.),.UNSPECIFIED.);
#629=B_SPLINE_CURVE_WITH_KNOTS('',1,(#1190,#1191),.UNSPECIFIED.,.F.,.F.,
(2,2),(-2.99999999999999,54.),.UNSPECIFIED.);
#630=B_SPLINE_CURVE_WITH_KNOTS('',1,(#1192,#1193),.UNSPECIFIED.,.F.,.F.,
(2,2),(-57.,-2.99999999999999),.UNSPECIFIED.);
#631=B_SPLINE_CURVE_WITH_KNOTS('',1,(#1194,#1195),.UNSPECIFIED.,.F.,.F.,
(2,2),(-114.,-57.),.UNSPECIFIED.);
#632=B_SPLINE_CURVE_WITH_KNOTS('',1,(#1196,#1197),.UNSPECIFIED.,.F.,.F.,
(2,2),(-117.,-63.),.UNSPECIFIED.);
#633=B_SPLINE_CURVE_WITH_KNOTS('',1,(#1198,#1199),.UNSPECIFIED.,.F.,.F.,
(2,2),(-174.,-117.),.UNSPECIFIED.);
#634=B_SPLINE_CURVE_WITH_KNOTS('',1,(#1200,#1201),.UNSPECIFIED.,.F.,.F.,
(2,2),(-45.9,8.09999999999999),.UNSPECIFIED.);
#635=B_SPLINE_CURVE_WITH_KNOTS('',1,(#1202,#1203),.UNSPECIFIED.,.F.,.F.,
(2,2),(-285.,-228.),.UNSPECIFIED.);
#636=B_SPLINE_CURVE_WITH_KNOTS('',1,(#1204,#1205),.UNSPECIFIED.,.F.,.F.,
(2,2),(3.,55.),.UNSPECIFIED.);
#637=B_SPLINE_CURVE_WITH_KNOTS('',1,(#1206,#1207),.UNSPECIFIED.,.F.,.F.,
(2,2),(3.,55.),.UNSPECIFIED.);
#638=B_SPLINE_CURVE_WITH_KNOTS('',1,(#1208,#1209),.UNSPECIFIED.,.F.,.F.,
(2,2),(3.,55.),.UNSPECIFIED.);
#639=B_SPLINE_CURVE_WITH_KNOTS('',1,(#1210,#1211),.UNSPECIFIED.,.F.,.F.,
(2,2),(3.,55.),.UNSPECIFIED.);
#640=B_SPLINE_CURVE_WITH_KNOTS('',1,(#1212,#1213),.UNSPECIFIED.,.F.,.F.,
(2,2),(3.,55.),.UNSPECIFIED.);
#641=B_SPLINE_CURVE_WITH_KNOTS('',1,(#1214,#1215),.UNSPECIFIED.,.F.,.F.,
(2,2),(3.,55.),.UNSPECIFIED.);
#642=B_SPLINE_CURVE_WITH_KNOTS('',1,(#1216,#1217),.UNSPECIFIED.,.F.,.F.,
(2,2),(3.,55.),.UNSPECIFIED.);
#643=B_SPLINE_CURVE_WITH_KNOTS('',1,(#1218,#1219),.UNSPECIFIED.,.F.,.F.,
(2,2),(3.,55.),.UNSPECIFIED.);
#644=B_SPLINE_CURVE_WITH_KNOTS('',1,(#1220,#1221,#1222),.UNSPECIFIED.,.F.,
 .F.,(2,1,2),(0.,3.,55.),.UNSPECIFIED.);
#645=B_SPLINE_CURVE_WITH_KNOTS('',1,(#1223,#1224,#1225),.UNSPECIFIED.,.F.,
 .F.,(2,1,2),(0.,3.,55.),.UNSPECIFIED.);
#646=B_SPLINE_CURVE_WITH_KNOTS('',1,(#1226,#1227,#1228),.UNSPECIFIED.,.F.,
 .F.,(2,1,2),(0.,3.,55.),.UNSPECIFIED.);
#647=B_SPLINE_CURVE_WITH_KNOTS('',1,(#1229,#1230,#1231),.UNSPECIFIED.,.F.,
 .F.,(2,1,2),(0.,3.,55.),.UNSPECIFIED.);
#648=B_SPLINE_CURVE_WITH_KNOTS('',1,(#1232,#1233,#1234),.UNSPECIFIED.,.F.,
 .F.,(2,1,2),(0.,3.,55.),.UNSPECIFIED.);
#649=B_SPLINE_CURVE_WITH_KNOTS('',1,(#1235,#1236,#1237),.UNSPECIFIED.,.F.,
 .F.,(2,1,2),(0.,3.,55.),.UNSPECIFIED.);
#650=B_SPLINE_CURVE_WITH_KNOTS('',1,(#1238,#1239,#1240),.UNSPECIFIED.,.F.,
 .F.,(2,1,2),(0.,3.,55.),.UNSPECIFIED.);
#651=B_SPLINE_CURVE_WITH_KNOTS('',1,(#1241,#1242,#1243),.UNSPECIFIED.,.F.,
 .F.,(2,1,2),(0.,3.,55.),.UNSPECIFIED.);
#652=B_SPLINE_CURVE_WITH_KNOTS('',1,(#1244,#1245,#1246),.UNSPECIFIED.,.F.,
 .F.,(2,1,2),(0.,3.,55.),.UNSPECIFIED.);
#653=B_SPLINE_CURVE_WITH_KNOTS('',1,(#1247,#1248,#1249),.UNSPECIFIED.,.F.,
 .F.,(2,1,2),(0.,3.,55.),.UNSPECIFIED.);
#654=B_SPLINE_CURVE_WITH_KNOTS('',1,(#1250,#1251,#1252),.UNSPECIFIED.,.F.,
 .F.,(2,1,2),(0.,3.,55.),.UNSPECIFIED.);
#655=B_SPLINE_CURVE_WITH_KNOTS('',1,(#1253,#1254,#1255),.UNSPECIFIED.,.F.,
 .F.,(2,1,2),(0.,3.,55.),.UNSPECIFIED.);
#656=B_SPLINE_CURVE_WITH_KNOTS('',1,(#1291,#1292),.UNSPECIFIED.,.F.,.F.,
(2,2),(0.,10.),.UNSPECIFIED.);
#657=B_SPLINE_CURVE_WITH_KNOTS('',1,(#1293,#1294),.UNSPECIFIED.,.F.,.F.,
(2,2),(0.,10.),.UNSPECIFIED.);
#658=B_SPLINE_CURVE_WITH_KNOTS('',1,(#1303,#1304),.UNSPECIFIED.,.F.,.F.,
(2,2),(20.6348878603926,20.7458675650831),.UNSPECIFIED.);
#659=B_SPLINE_CURVE_WITH_KNOTS('',1,(#1305,#1306),.UNSPECIFIED.,.F.,.F.,
(2,2),(0.,10.),.UNSPECIFIED.);
#660=B_SPLINE_CURVE_WITH_KNOTS('',1,(#1307,#1308),.UNSPECIFIED.,.F.,.F.,
(2,2),(20.6348878603926,20.7458675650831),.UNSPECIFIED.);
#661=B_SPLINE_CURVE_WITH_KNOTS('',1,(#1317,#1318),.UNSPECIFIED.,.F.,.F.,
(2,2),(24.5501531811884,24.6611328858789),.UNSPECIFIED.);
#662=B_SPLINE_CURVE_WITH_KNOTS('',1,(#1319,#1320),.UNSPECIFIED.,.F.,.F.,
(2,2),(24.5501531811884,24.6611328858789),.UNSPECIFIED.);
#663=B_SPLINE_CURVE_WITH_KNOTS('',1,(#1321,#1322),.UNSPECIFIED.,.F.,.F.,
(2,2),(0.,6.33710265585459),.UNSPECIFIED.);
#664=B_SPLINE_CURVE_WITH_KNOTS('',1,(#1323,#1324),.UNSPECIFIED.,.F.,.F.,
(2,2),(0.,6.33710265585459),.UNSPECIFIED.);
#665=B_SPLINE_CURVE_WITH_KNOTS('',1,(#1325,#1326),.UNSPECIFIED.,.F.,.F.,
(2,2),(0.,10.),.UNSPECIFIED.);
#666=B_SPLINE_CURVE_WITH_KNOTS('',1,(#1327,#1328),.UNSPECIFIED.,.F.,.F.,
(2,2),(-10.,0.),.UNSPECIFIED.);
#667=B_SPLINE_CURVE_WITH_KNOTS('',1,(#1329,#1330,#1331),.UNSPECIFIED.,.F.,
 .F.,(2,1,2),(12.0834283483676,14.5834283469858,16.0834283469858),
 .UNSPECIFIED.);
#668=B_SPLINE_CURVE_WITH_KNOTS('',1,(#1332,#1333,#1334),.UNSPECIFIED.,.F.,
 .F.,(2,1,2),(12.0834283483676,14.5834283469858,16.0834283469858),
 .UNSPECIFIED.);
#669=B_SPLINE_CURVE_WITH_KNOTS('',1,(#1341,#1342,#1343),.UNSPECIFIED.,.F.,
 .F.,(2,1,2),(-16.8306004609817,-15.2280424360384,-14.2751106015776),
 .UNSPECIFIED.);
#670=B_SPLINE_CURVE_WITH_KNOTS('',1,(#1344,#1345,#1346),.UNSPECIFIED.,.F.,
 .F.,(2,1,2),(-16.8306004609817,-15.2280424360384,-14.2751106015776),
 .UNSPECIFIED.);
#671=B_SPLINE_CURVE_WITH_KNOTS('',1,(#1398,#1399),.UNSPECIFIED.,.F.,.F.,
(2,2),(0.,10.),.UNSPECIFIED.);
#672=B_SPLINE_CURVE_WITH_KNOTS('',1,(#1400,#1401),.UNSPECIFIED.,.F.,.F.,
(2,2),(0.,10.),.UNSPECIFIED.);
#673=B_SPLINE_CURVE_WITH_KNOTS('',1,(#1410,#1411),.UNSPECIFIED.,.F.,.F.,
(2,2),(20.6348878603926,20.7458675650831),.UNSPECIFIED.);
#674=B_SPLINE_CURVE_WITH_KNOTS('',1,(#1412,#1413),.UNSPECIFIED.,.F.,.F.,
(2,2),(0.,10.),.UNSPECIFIED.);
#675=B_SPLINE_CURVE_WITH_KNOTS('',1,(#1414,#1415),.UNSPECIFIED.,.F.,.F.,
(2,2),(20.6348878603926,20.7458675650831),.UNSPECIFIED.);
#676=B_SPLINE_CURVE_WITH_KNOTS('',1,(#1424,#1425),.UNSPECIFIED.,.F.,.F.,
(2,2),(24.5501531811884,24.6611328858789),.UNSPECIFIED.);
#677=B_SPLINE_CURVE_WITH_KNOTS('',1,(#1426,#1427),.UNSPECIFIED.,.F.,.F.,
(2,2),(24.5501531811884,24.6611328858789),.UNSPECIFIED.);
#678=B_SPLINE_CURVE_WITH_KNOTS('',1,(#1428,#1429),.UNSPECIFIED.,.F.,.F.,
(2,2),(0.,6.33710265585459),.UNSPECIFIED.);
#679=B_SPLINE_CURVE_WITH_KNOTS('',1,(#1430,#1431),.UNSPECIFIED.,.F.,.F.,
(2,2),(0.,6.33710265585459),.UNSPECIFIED.);
#680=B_SPLINE_CURVE_WITH_KNOTS('',1,(#1432,#1433),.UNSPECIFIED.,.F.,.F.,
(2,2),(0.,10.),.UNSPECIFIED.);
#681=B_SPLINE_CURVE_WITH_KNOTS('',1,(#1434,#1435),.UNSPECIFIED.,.F.,.F.,
(2,2),(-10.,0.),.UNSPECIFIED.);
#682=B_SPLINE_CURVE_WITH_KNOTS('',1,(#1436,#1437,#1438),.UNSPECIFIED.,.F.,
 .F.,(2,1,2),(12.0834283483676,14.5834283469858,16.0834283469858),
 .UNSPECIFIED.);
#683=B_SPLINE_CURVE_WITH_KNOTS('',1,(#1439,#1440,#1441),.UNSPECIFIED.,.F.,
 .F.,(2,1,2),(12.0834283483676,14.5834283469858,16.0834283469858),
 .UNSPECIFIED.);
#684=B_SPLINE_CURVE_WITH_KNOTS('',1,(#1448,#1449,#1450),.UNSPECIFIED.,.F.,
 .F.,(2,1,2),(-16.8306004609817,-15.2280424360384,-14.2751106015776),
 .UNSPECIFIED.);
#685=B_SPLINE_CURVE_WITH_KNOTS('',1,(#1451,#1452,#1453),.UNSPECIFIED.,.F.,
 .F.,(2,1,2),(-16.8306004609817,-15.2280424360384,-14.2751106015776),
 .UNSPECIFIED.);
#686=VERTEX_POINT('',#1084);
#687=VERTEX_POINT('',#1085);
#688=VERTEX_POINT('',#1086);
#689=VERTEX_POINT('',#1087);
#690=VERTEX_POINT('',#1088);
#691=VERTEX_POINT('',#1089);
#692=VERTEX_POINT('',#1090);
#693=VERTEX_POINT('',#1091);
#694=VERTEX_POINT('',#1092);
#695=VERTEX_POINT('',#1093);
#696=VERTEX_POINT('',#1094);
#697=VERTEX_POINT('',#1095);
#698=VERTEX_POINT('',#1096);
#699=VERTEX_POINT('',#1097);
#700=VERTEX_POINT('',#1098);
#701=VERTEX_POINT('',#1099);
#702=VERTEX_POINT('',#1100);
#703=VERTEX_POINT('',#1101);
#704=VERTEX_POINT('',#1102);
#705=VERTEX_POINT('',#1103);
#706=VERTEX_POINT('',#1104);
#707=VERTEX_POINT('',#1105);
#708=VERTEX_POINT('',#1106);
#709=VERTEX_POINT('',#1107);
#710=VERTEX_POINT('',#1108);
#711=VERTEX_POINT('',#1109);
#712=VERTEX_POINT('',#1110);
#713=VERTEX_POINT('',#1111);
#714=VERTEX_POINT('',#1112);
#715=VERTEX_POINT('',#1113);
#716=VERTEX_POINT('',#1114);
#717=VERTEX_POINT('',#1115);
#718=VERTEX_POINT('',#1116);
#719=VERTEX_POINT('',#1117);
#720=VERTEX_POINT('',#1118);
#721=VERTEX_POINT('',#1119);
#722=VERTEX_POINT('',#1120);
#723=VERTEX_POINT('',#1121);
#724=VERTEX_POINT('',#1122);
#725=VERTEX_POINT('',#1123);
#726=VERTEX_POINT('',#1269);
#727=VERTEX_POINT('',#1270);
#728=VERTEX_POINT('',#1271);
#729=VERTEX_POINT('',#1272);
#730=VERTEX_POINT('',#1273);
#731=VERTEX_POINT('',#1274);
#732=VERTEX_POINT('',#1275);
#733=VERTEX_POINT('',#1276);
#734=VERTEX_POINT('',#1277);
#735=VERTEX_POINT('',#1278);
#736=VERTEX_POINT('',#1279);
#737=VERTEX_POINT('',#1280);
#738=VERTEX_POINT('',#1281);
#739=VERTEX_POINT('',#1282);
#740=VERTEX_POINT('',#1283);
#741=VERTEX_POINT('',#1284);
#742=VERTEX_POINT('',#1285);
#743=VERTEX_POINT('',#1286);
#744=VERTEX_POINT('',#1287);
#745=VERTEX_POINT('',#1288);
#746=VERTEX_POINT('',#1376);
#747=VERTEX_POINT('',#1377);
#748=VERTEX_POINT('',#1378);
#749=VERTEX_POINT('',#1379);
#750=VERTEX_POINT('',#1380);
#751=VERTEX_POINT('',#1381);
#752=VERTEX_POINT('',#1382);
#753=VERTEX_POINT('',#1383);
#754=VERTEX_POINT('',#1384);
#755=VERTEX_POINT('',#1385);
#756=VERTEX_POINT('',#1386);
#757=VERTEX_POINT('',#1387);
#758=VERTEX_POINT('',#1388);
#759=VERTEX_POINT('',#1389);
#760=VERTEX_POINT('',#1390);
#761=VERTEX_POINT('',#1391);
#762=VERTEX_POINT('',#1392);
#763=VERTEX_POINT('',#1393);
#764=VERTEX_POINT('',#1394);
#765=VERTEX_POINT('',#1395);
#766=PLANE('',#894);
#767=PLANE('',#895);
#768=PLANE('',#896);
#769=PLANE('',#897);
#770=PLANE('',#898);
#771=PLANE('',#899);
#772=PLANE('',#900);
#773=PLANE('',#901);
#774=PLANE('',#902);
#775=PLANE('',#903);
#776=PLANE('',#904);
#777=PLANE('',#905);
#778=PLANE('',#906);
#779=PLANE('',#907);
#780=PLANE('',#908);
#781=PLANE('',#909);
#782=PLANE('',#910);
#783=PLANE('',#911);
#784=PLANE('',#912);
#785=PLANE('',#913);
#786=PLANE('',#914);
#787=PLANE('',#915);
#788=PLANE('',#916);
#789=PLANE('',#917);
#790=PLANE('',#919);
#791=PLANE('',#921);
#792=PLANE('',#922);
#793=PLANE('',#924);
#794=PLANE('',#925);
#795=PLANE('',#926);
#796=PLANE('',#927);
#797=PLANE('',#928);
#798=PLANE('',#942);
#799=PLANE('',#944);
#800=PLANE('',#945);
#801=PLANE('',#947);
#802=PLANE('',#948);
#803=PLANE('',#949);
#804=PLANE('',#950);
#805=PLANE('',#951);
#806=SHAPE_DEFINITION_REPRESENTATION(#807,#892);
#807=PRODUCT_DEFINITION_SHAPE($,$,#809);
#808=PRODUCT_DEFINITION_CONTEXT('3D Mechanical Parts',#881,'design');
#809=PRODUCT_DEFINITION('A','First version',#851,#808);
#810=DATE_TIME_ROLE('classification_date');
#811=DATE_TIME_ROLE('creation_date');
#812=APPLIED_DATE_AND_TIME_ASSIGNMENT(#836,#810,(#815));
#813=APPLIED_DATE_AND_TIME_ASSIGNMENT(#838,#811,(#809));
#814=SECURITY_CLASSIFICATION_LEVEL('unclassified');
#815=SECURITY_CLASSIFICATION('A','Security for version',#814);
#816=APPLIED_SECURITY_CLASSIFICATION_ASSIGNMENT(#815,(#851));
#817=APPROVAL_ROLE('Version approval');
#818=APPROVAL_ROLE('Version Security approval');
#819=APPROVAL_ROLE('Definition approval');
#820=APPROVAL_PERSON_ORGANIZATION(#869,#845,#817);
#821=APPROVAL_PERSON_ORGANIZATION(#870,#846,#818);
#822=APPROVAL_PERSON_ORGANIZATION(#873,#847,#819);
#823=COORDINATED_UNIVERSAL_TIME_OFFSET(5,0,.BEHIND.);
#824=LOCAL_TIME(0,0,0.,#823);
#825=LOCAL_TIME(0,0,0.,#823);
#826=LOCAL_TIME(0,0,0.,#823);
#827=LOCAL_TIME(0,0,0.,#823);
#828=LOCAL_TIME(0,0,0.,#823);
#829=CALENDAR_DATE(1999,1,1);
#830=CALENDAR_DATE(1999,1,1);
#831=CALENDAR_DATE(1999,1,1);
#832=CALENDAR_DATE(1999,1,1);
#833=CALENDAR_DATE(1999,1,1);
#834=DATE_AND_TIME(#829,#824);
#835=DATE_AND_TIME(#830,#825);
#836=DATE_AND_TIME(#831,#826);
#837=DATE_AND_TIME(#832,#827);
#838=DATE_AND_TIME(#833,#828);
#839=APPROVAL_DATE_TIME(#834,#845);
#840=APPROVAL_DATE_TIME(#835,#846);
#841=APPROVAL_DATE_TIME(#837,#847);
#842=APPROVAL_STATUS('not_yet_approved');
#843=APPROVAL_STATUS('not_yet_approved');
#844=APPROVAL_STATUS('approved');
#845=APPROVAL(#842,'Version approval');
#846=APPROVAL(#843,'Version Security approval');
#847=APPROVAL(#844,'Definition approval');
#848=APPLIED_APPROVAL_ASSIGNMENT(#845,(#851));
#849=APPLIED_APPROVAL_ASSIGNMENT(#846,(#815));
#850=APPLIED_APPROVAL_ASSIGNMENT(#847,(#809));
#851=PRODUCT_DEFINITION_FORMATION_WITH_SPECIFIED_SOURCE('A',
'First version',#883,.MADE.);
#852=PERSON_AND_ORGANIZATION_ROLE('design_owner');
#853=PERSON_AND_ORGANIZATION_ROLE('creator');
#854=PERSON_AND_ORGANIZATION_ROLE('design_supplier');
#855=PERSON_AND_ORGANIZATION_ROLE('classification_officer');
#856=PERSON_AND_ORGANIZATION_ROLE('creator');
#857=ORGANIZATION('STI','lab','lab');
#858=ORGANIZATION('STI','unknown','unknown');
#859=ORGANIZATION('STI','unknown','unknown');
#860=ORGANIZATION('STI','unknown','unknown');
#861=ORGANIZATION('STI','unknown','unknown');
#862=ORGANIZATION('STI','unknown','unknown');
#863=ORGANIZATION('STI','unknown','unknown');
#864=PERSON('1','Box','vc60',$,$,$);
#865=PERSON('2','last','first',$,$,$);
#866=PERSON('3','President','Mr.',$,$,$);
#867=PERSON_AND_ORGANIZATION(#864,#857);
#868=PERSON_AND_ORGANIZATION(#865,#858);
#869=PERSON_AND_ORGANIZATION(#866,#859);
#870=PERSON_AND_ORGANIZATION(#866,#860);
#871=PERSON_AND_ORGANIZATION(#866,#861);
#872=PERSON_AND_ORGANIZATION(#865,#862);
#873=PERSON_AND_ORGANIZATION(#866,#863);
#874=APPLIED_PERSON_AND_ORGANIZATION_ASSIGNMENT(#867,#852,(#883));
#875=APPLIED_PERSON_AND_ORGANIZATION_ASSIGNMENT(#868,#853,(#851));
#876=APPLIED_PERSON_AND_ORGANIZATION_ASSIGNMENT(#868,#854,(#851));
#877=APPLIED_PERSON_AND_ORGANIZATION_ASSIGNMENT(#871,#855,(#815));
#878=APPLIED_PERSON_AND_ORGANIZATION_ASSIGNMENT(#872,#856,(#809));
#879=PRODUCT_RELATED_PRODUCT_CATEGORY('detail','detail',(#883));
#880=APPLICATION_PROTOCOL_DEFINITION('International Standard',
'config_control_design',1994,#881);
#881=APPLICATION_CONTEXT(
'configuration controlled 3d designs of mechanical parts and assemblie
s');
#882=PRODUCT_CONTEXT('3D Mechanical Parts',#881,'mechanical');
#883=PRODUCT('Document','Document','',(#882));
#884=(
LENGTH_UNIT()
NAMED_UNIT(*)
SI_UNIT(.MILLI.,.METRE.)
);
#885=(
NAMED_UNIT(*)
PLANE_ANGLE_UNIT()
SI_UNIT($,.RADIAN.)
);
#886=DIMENSIONAL_EXPONENTS(0.,0.,0.,0.,0.,0.,0.);
#887=PLANE_ANGLE_MEASURE_WITH_UNIT(PLANE_ANGLE_MEASURE(0.01745329252),#885);
#888=(
CONVERSION_BASED_UNIT('DEGREES',#887)
NAMED_UNIT(#886)
PLANE_ANGLE_UNIT()
);
#889=(
NAMED_UNIT(*)
SI_UNIT($,.STERADIAN.)
SOLID_ANGLE_UNIT()
);
#890=UNCERTAINTY_MEASURE_WITH_UNIT(LENGTH_MEASURE(0.001),#884,
'DISTANCE_ACCURACY_VALUE',
'Maximum model space distance between geometric entities at asserted c
onnectivities');
#891=(
GEOMETRIC_REPRESENTATION_CONTEXT(3)
GLOBAL_UNCERTAINTY_ASSIGNED_CONTEXT((#890))
GLOBAL_UNIT_ASSIGNED_CONTEXT((#889,#888,#884))
REPRESENTATION_CONTEXT('ID1','3D')
);
#892=SHAPE_REPRESENTATION('Document',(#893,#964),#891);
#893=AXIS2_PLACEMENT_3D($,#1059,#965,#966);
#894=AXIS2_PLACEMENT_3D('',#1060,#967,$);
#895=AXIS2_PLACEMENT_3D('',#1061,#968,$);
#896=AXIS2_PLACEMENT_3D('',#1062,#969,$);
#897=AXIS2_PLACEMENT_3D('',#1063,#970,$);
#898=AXIS2_PLACEMENT_3D('',#1064,#971,$);
#899=AXIS2_PLACEMENT_3D('',#1065,#972,$);
#900=AXIS2_PLACEMENT_3D('',#1066,#973,$);
#901=AXIS2_PLACEMENT_3D('',#1067,#974,$);
#902=AXIS2_PLACEMENT_3D('',#1068,#975,$);
#903=AXIS2_PLACEMENT_3D('',#1069,#976,$);
#904=AXIS2_PLACEMENT_3D('',#1070,#977,$);
#905=AXIS2_PLACEMENT_3D('',#1071,#978,$);
#906=AXIS2_PLACEMENT_3D('',#1072,#979,$);
#907=AXIS2_PLACEMENT_3D('',#1073,#980,$);
#908=AXIS2_PLACEMENT_3D('',#1074,#981,$);
#909=AXIS2_PLACEMENT_3D('',#1075,#982,$);
#910=AXIS2_PLACEMENT_3D('',#1076,#983,$);
#911=AXIS2_PLACEMENT_3D('',#1077,#984,$);
#912=AXIS2_PLACEMENT_3D('',#1078,#985,$);
#913=AXIS2_PLACEMENT_3D('',#1079,#986,$);
#914=AXIS2_PLACEMENT_3D('',#1080,#987,$);
#915=AXIS2_PLACEMENT_3D('',#1081,#988,$);
#916=AXIS2_PLACEMENT_3D('',#1082,#989,$);
#917=AXIS2_PLACEMENT_3D('',#1083,#990,$);
#918=AXIS2_PLACEMENT_3D('',#1256,#991,$);
#919=AXIS2_PLACEMENT_3D('',#1257,#992,$);
#920=AXIS2_PLACEMENT_3D('',#1258,#993,$);
#921=AXIS2_PLACEMENT_3D('',#1259,#994,$);
#922=AXIS2_PLACEMENT_3D('',#1260,#995,$);
#923=AXIS2_PLACEMENT_3D('',#1261,#996,$);
#924=AXIS2_PLACEMENT_3D('',#1262,#997,$);
#925=AXIS2_PLACEMENT_3D('',#1263,#998,$);
#926=AXIS2_PLACEMENT_3D('',#1264,#999,$);
#927=AXIS2_PLACEMENT_3D('',#1265,#1000,$);
#928=AXIS2_PLACEMENT_3D('',#1266,#1001,$);
#929=AXIS2_PLACEMENT_3D('',#1267,#1002,$);
#930=AXIS2_PLACEMENT_3D('',#1268,#1003,$);
#931=AXIS2_PLACEMENT_3D($,#1295,#1004,#1005);
#932=AXIS2_PLACEMENT_3D($,#1300,#1006,#1007);
#933=AXIS2_PLACEMENT_3D($,#1309,#1008,#1009);
#934=AXIS2_PLACEMENT_3D($,#1314,#1010,#1011);
#935=AXIS2_PLACEMENT_3D($,#1335,#1012,#1013);
#936=AXIS2_PLACEMENT_3D($,#1338,#1014,#1015);
#937=AXIS2_PLACEMENT_3D($,#1347,#1016,#1017);
#938=AXIS2_PLACEMENT_3D($,#1352,#1018,#1019);
#939=AXIS2_PLACEMENT_3D($,#1357,#1020,#1021);
#940=AXIS2_PLACEMENT_3D($,#1360,#1022,#1023);
#941=AXIS2_PLACEMENT_3D('',#1363,#1024,$);
#942=AXIS2_PLACEMENT_3D('',#1364,#1025,$);
#943=AXIS2_PLACEMENT_3D('',#1365,#1026,$);
#944=AXIS2_PLACEMENT_3D('',#1366,#1027,$);
#945=AXIS2_PLACEMENT_3D('',#1367,#1028,$);
#946=AXIS2_PLACEMENT_3D('',#1368,#1029,$);
#947=AXIS2_PLACEMENT_3D('',#1369,#1030,$);
#948=AXIS2_PLACEMENT_3D('',#1370,#1031,$);
#949=AXIS2_PLACEMENT_3D('',#1371,#1032,$);
#950=AXIS2_PLACEMENT_3D('',#1372,#1033,$);
#951=AXIS2_PLACEMENT_3D('',#1373,#1034,$);
#952=AXIS2_PLACEMENT_3D('',#1374,#1035,$);
#953=AXIS2_PLACEMENT_3D('',#1375,#1036,$);
#954=AXIS2_PLACEMENT_3D($,#1402,#1037,#1038);
#955=AXIS2_PLACEMENT_3D($,#1407,#1039,#1040);
#956=AXIS2_PLACEMENT_3D($,#1416,#1041,#1042);
#957=AXIS2_PLACEMENT_3D($,#1421,#1043,#1044);
#958=AXIS2_PLACEMENT_3D($,#1442,#1045,#1046);
#959=AXIS2_PLACEMENT_3D($,#1445,#1047,#1048);
#960=AXIS2_PLACEMENT_3D($,#1454,#1049,#1050);
#961=AXIS2_PLACEMENT_3D($,#1459,#1051,#1052);
#962=AXIS2_PLACEMENT_3D($,#1464,#1053,#1054);
#963=AXIS2_PLACEMENT_3D($,#1467,#1055,#1056);
#964=AXIS2_PLACEMENT_3D($,#1470,#1057,#1058);
#965=DIRECTION('',(0.,0.,1.));
#966=DIRECTION('',(1.,0.,0.));
#967=DIRECTION('',(0.,0.,-1.));
#968=DIRECTION('',(0.898567515986433,-0.438835298505,-1.42668956779709E-17));
#969=DIRECTION('',(-0.898567515986433,-0.438835298505,5.11999650452774E-17));
#970=DIRECTION('',(0.,1.,0.));
#971=DIRECTION('',(-0.906721111888508,-0.421730749715582,-7.05796819774764E-17));
#972=DIRECTION('',(-1.,0.,0.));
#973=DIRECTION('',(0.,-1.,0.));
#974=DIRECTION('',(1.,0.,0.));
#975=DIRECTION('',(0.,0.,1.));
#976=DIRECTION('',(0.,0.,1.));
#977=DIRECTION('',(0.,0.,1.));
#978=DIRECTION('',(0.,1.,0.));
#979=DIRECTION('',(0.,1.,0.));
#980=DIRECTION('',(0.906721111888508,-0.421730749715584,-5.70478307281003E-17));
#981=DIRECTION('',(0.,1.,0.));
#982=DIRECTION('',(0.,1.,0.));
#983=DIRECTION('',(0.,-1.,0.));
#984=DIRECTION('',(1.,0.,0.));
#985=DIRECTION('',(0.,1.,0.));
#986=DIRECTION('',(-1.,0.,0.));
#987=DIRECTION('',(0.,1.,0.));
#988=DIRECTION('',(-1.,0.,0.));
#989=DIRECTION('',(0.,-1.,0.));
#990=DIRECTION('',(1.,0.,0.));
#991=DIRECTION('',(-7.2464723722104E-15,-1.,-7.2464723722104E-15));
#992=DIRECTION('',(-1.6200468162068E-7,1.41616284074528E-16,0.999999999999987));
#993=DIRECTION('',(0.,-1.,0.));
#994=DIRECTION('',(-0.999999999999987,9.43680475971146E-17,-1.62004477223472E-7));
#995=DIRECTION('',(0.999999999447265,-1.52658936509591E-16,3.32486184572156E-5));
#996=DIRECTION('',(0.,-1.,0.));
#997=DIRECTION('',(0.999999992742778,-1.45680506567187E-16,0.000120475903231117));
#998=DIRECTION('',(-0.742816062977737,-1.2908509337629E-16,-0.669495553818138));
#999=DIRECTION('',(0.,1.,0.));
#1000=DIRECTION('',(0.,-1.,0.));
#1001=DIRECTION('',(0.,1.,0.));
#1002=DIRECTION('',(0.,1.,0.));
#1003=DIRECTION('',(0.,1.,0.));
#1004=DIRECTION('',(-7.2464723722104E-15,-1.,-7.2464723722104E-15));
#1005=DIRECTION('',(0.999749730960083,-5.68257526887694E-15,0.0223713085277271));
#1006=DIRECTION('',(-1.08697085583156E-14,-1.,-1.08697085583156E-14));
#1007=DIRECTION('',(0.999749730960082,-9.94450672053459E-15,0.0223713085277412));
#1008=DIRECTION('',(0.,-1.,0.));
#1009=DIRECTION('',(-0.0223717929666197,0.,0.99974972011972));
#1010=DIRECTION('',(-3.62323907484087E-15,-1.,3.62323791142405E-15));
#1011=DIRECTION('',(-0.0223717929666141,2.84128714875199E-15,0.99974972011972));
#1012=DIRECTION('',(0.,-1.,0.));
#1013=DIRECTION('',(-0.999749720119653,0.,-0.0223717929696041));
#1014=DIRECTION('',(3.49875728902977E-14,-1.,1.52466468285626E-14));
#1015=DIRECTION('',(-0.999749720119653,-3.4095445784487E-14,-0.0223717929696231));
#1016=DIRECTION('',(0.,1.,0.));
#1017=DIRECTION('',(1.,0.,0.));
#1018=DIRECTION('',(0.,1.,0.));
#1019=DIRECTION('',(1.,0.,6.45947941600103E-15));
#1020=DIRECTION('',(0.,1.,0.));
#1021=DIRECTION('',(-1.,0.,6.45947941600086E-15));
#1022=DIRECTION('',(3.22973970800045E-15,1.,3.22973970800047E-15));
#1023=DIRECTION('',(-1.,6.45947941600086E-15,6.45947941600086E-15));
#1024=DIRECTION('',(0.,-1.,0.));
#1025=DIRECTION('',(-1.6200468162068E-7,1.41616284074528E-16,0.999999999999987));
#1026=DIRECTION('',(0.,-1.,0.));
#1027=DIRECTION('',(-0.999999999999987,9.43680475971146E-17,-1.62004477223472E-7));
#1028=DIRECTION('',(0.999999999447265,-1.52658936509591E-16,3.32486184572156E-5));
#1029=DIRECTION('',(3.62323791142415E-15,-1.,3.62323907484101E-15));
#1030=DIRECTION('',(0.999999992742778,-1.45680506567187E-16,0.000120475903231117));
#1031=DIRECTION('',(-0.742816062977737,-1.2908509337629E-16,-0.669495553818138));
#1032=DIRECTION('',(0.,1.,0.));
#1033=DIRECTION('',(0.,-1.,0.));
#1034=DIRECTION('',(0.,1.,0.));
#1035=DIRECTION('',(0.,1.,0.));
#1036=DIRECTION('',(0.,1.,0.));
#1037=DIRECTION('',(0.,-1.,0.));
#1038=DIRECTION('',(0.999749730960083,0.,0.0223713085277271));
#1039=DIRECTION('',(7.2464723722104E-15,-1.,7.2464723722104E-15));
#1040=DIRECTION('',(0.999749730960083,5.68257526887694E-15,0.0223713085277271));
#1041=DIRECTION('',(3.62323907484087E-15,-1.,-3.62323791142405E-15));
#1042=DIRECTION('',(-0.0223717929666197,-2.84128714875199E-15,0.99974972011972));
#1043=DIRECTION('',(0.,-1.,0.));
#1044=DIRECTION('',(-0.0223717929666197,0.,0.99974972011972));
#1045=DIRECTION('',(1.66731917983914E-14,-1.,1.13558649082584E-14));
#1046=DIRECTION('',(-0.999749720119653,-1.70477228922442E-14,-0.0223717929696041));
#1047=DIRECTION('',(0.,-1.,0.));
#1048=DIRECTION('',(-0.999749720119653,0.,-0.0223717929696231));
#1049=DIRECTION('',(0.,1.,0.));
#1050=DIRECTION('',(1.,0.,0.));
#1051=DIRECTION('',(3.22973970800051E-15,1.,-3.22973970800053E-15));
#1052=DIRECTION('',(1.,-3.22973970800043E-15,6.45947941600086E-15));
#1053=DIRECTION('',(0.,1.,0.));
#1054=DIRECTION('',(-1.,0.,6.45947941600086E-15));
#1055=DIRECTION('',(0.,1.,0.));
#1056=DIRECTION('',(-1.,0.,6.45947941600086E-15));
#1057=DIRECTION('',(0.,0.,1.));
#1058=DIRECTION('',(1.,0.,0.));
#1059=CARTESIAN_POINT('',(0.,0.,0.));
#1060=CARTESIAN_POINT('',(-100.5,-73.625,0.));
#1061=CARTESIAN_POINT('',(-44.1,64.85,0.));
#1062=CARTESIAN_POINT('',(-52.95,67.,0.));
#1063=CARTESIAN_POINT('',(-73.05,67.,0.));
#1064=CARTESIAN_POINT('',(-82.95,67.,0.));
#1065=CARTESIAN_POINT('',(-93.,64.85,0.));
#1066=CARTESIAN_POINT('',(-93.,-58.,0.));
#1067=CARTESIAN_POINT('',(-33.,-58.,0.));
#1068=CARTESIAN_POINT('',(-100.5,-73.625,55.));
#1069=CARTESIAN_POINT('',(-100.5,-73.625,3.));
#1070=CARTESIAN_POINT('',(-100.5,-73.625,3.));
#1071=CARTESIAN_POINT('',(-43.05,67.,0.));
#1072=CARTESIAN_POINT('',(-51.9,64.85,0.));
#1073=CARTESIAN_POINT('',(-74.05,64.85,0.));
#1074=CARTESIAN_POINT('',(-81.95,64.85,0.));
#1075=CARTESIAN_POINT('',(-33.,64.85,0.));
#1076=CARTESIAN_POINT('',(-36.,2.00000000000001,0.));
#1077=CARTESIAN_POINT('',(-90.,2.00000000000001,0.));
#1078=CARTESIAN_POINT('',(-90.,-55.,0.));
#1079=CARTESIAN_POINT('',(-36.,-55.,0.));
#1080=CARTESIAN_POINT('',(-90.,5.00000000000001,0.));
#1081=CARTESIAN_POINT('',(-36.,5.00000000000003,0.));
#1082=CARTESIAN_POINT('',(-36.,62.,0.));
#1083=CARTESIAN_POINT('',(-90.,62.,0.));
#1084=CARTESIAN_POINT('',(-44.1,64.85,0.));
#1085=CARTESIAN_POINT('',(-43.05,67.,0.));
#1086=CARTESIAN_POINT('',(-52.95,67.,0.));
#1087=CARTESIAN_POINT('',(-51.9,64.85,0.));
#1088=CARTESIAN_POINT('',(-74.05,64.85,0.));
#1089=CARTESIAN_POINT('',(-73.05,67.,0.));
#1090=CARTESIAN_POINT('',(-82.95,67.,0.));
#1091=CARTESIAN_POINT('',(-81.95,64.85,0.));
#1092=CARTESIAN_POINT('',(-93.,64.85,0.));
#1093=CARTESIAN_POINT('',(-93.,-58.,0.));
#1094=CARTESIAN_POINT('',(-33.,-58.,0.));
#1095=CARTESIAN_POINT('',(-33.,64.85,0.));
#1096=CARTESIAN_POINT('',(-43.05,67.,55.));
#1097=CARTESIAN_POINT('',(-44.1,64.85,55.));
#1098=CARTESIAN_POINT('',(-52.95,67.,55.));
#1099=CARTESIAN_POINT('',(-51.9,64.85,55.));
#1100=CARTESIAN_POINT('',(-74.05,64.85,55.));
#1101=CARTESIAN_POINT('',(-73.05,67.,55.));
#1102=CARTESIAN_POINT('',(-82.95,67.,55.));
#1103=CARTESIAN_POINT('',(-81.95,64.85,55.));
#1104=CARTESIAN_POINT('',(-93.,64.85,55.));
#1105=CARTESIAN_POINT('',(-93.,-58.,55.));
#1106=CARTESIAN_POINT('',(-33.,-58.,55.));
#1107=CARTESIAN_POINT('',(-33.,64.85,55.));
#1108=CARTESIAN_POINT('',(-36.,2.00000000000001,55.));
#1109=CARTESIAN_POINT('',(-90.,2.00000000000001,55.));
#1110=CARTESIAN_POINT('',(-90.,-55.,55.));
#1111=CARTESIAN_POINT('',(-36.,-55.,55.));
#1112=CARTESIAN_POINT('',(-90.,5.00000000000001,55.));
#1113=CARTESIAN_POINT('',(-36.,5.00000000000003,55.));
#1114=CARTESIAN_POINT('',(-36.,62.,55.));
#1115=CARTESIAN_POINT('',(-90.,62.,55.));
#1116=CARTESIAN_POINT('',(-90.,2.,3.));
#1117=CARTESIAN_POINT('',(-36.,2.00000000000001,3.));
#1118=CARTESIAN_POINT('',(-90.,-55.,3.));
#1119=CARTESIAN_POINT('',(-36.,-55.,3.));
#1120=CARTESIAN_POINT('',(-36.,5.00000000000003,3.));
#1121=CARTESIAN_POINT('',(-90.,5.00000000000002,3.));
#1122=CARTESIAN_POINT('',(-36.,62.,3.));
#1123=CARTESIAN_POINT('',(-90.,62.,3.));
#1124=CARTESIAN_POINT('',(-44.1,64.85,0.));
#1125=CARTESIAN_POINT('',(-43.05,67.,0.));
#1126=CARTESIAN_POINT('',(-43.05,67.,0.));
#1127=CARTESIAN_POINT('',(-52.95,67.,0.));
#1128=CARTESIAN_POINT('',(-52.95,67.,0.));
#1129=CARTESIAN_POINT('',(-51.9,64.85,0.));
#1130=CARTESIAN_POINT('',(-51.9,64.85,0.));
#1131=CARTESIAN_POINT('',(-74.05,64.85,0.));
#1132=CARTESIAN_POINT('',(-74.05,64.85,0.));
#1133=CARTESIAN_POINT('',(-73.05,67.,0.));
#1134=CARTESIAN_POINT('',(-73.05,67.,0.));
#1135=CARTESIAN_POINT('',(-82.95,67.,0.));
#1136=CARTESIAN_POINT('',(-82.95,67.,0.));
#1137=CARTESIAN_POINT('',(-81.95,64.85,0.));
#1138=CARTESIAN_POINT('',(-81.95,64.85,0.));
#1139=CARTESIAN_POINT('',(-93.,64.85,0.));
#1140=CARTESIAN_POINT('',(-93.,64.85,0.));
#1141=CARTESIAN_POINT('',(-93.,-58.,0.));
#1142=CARTESIAN_POINT('',(-93.,-58.,0.));
#1143=CARTESIAN_POINT('',(-33.,-58.,0.));
#1144=CARTESIAN_POINT('',(-33.,-58.,0.));
#1145=CARTESIAN_POINT('',(-33.,64.85,0.));
#1146=CARTESIAN_POINT('',(-33.,64.85,0.));
#1147=CARTESIAN_POINT('',(-44.1,64.85,0.));
#1148=CARTESIAN_POINT('',(-44.1,64.85,55.));
#1149=CARTESIAN_POINT('',(-43.05,67.,55.));
#1150=CARTESIAN_POINT('',(-43.05,67.,55.));
#1151=CARTESIAN_POINT('',(-52.95,67.,55.));
#1152=CARTESIAN_POINT('',(-52.95,67.,55.));
#1153=CARTESIAN_POINT('',(-51.9,64.85,55.));
#1154=CARTESIAN_POINT('',(-51.9,64.85,55.));
#1155=CARTESIAN_POINT('',(-74.05,64.85,55.));
#1156=CARTESIAN_POINT('',(-74.05,64.85,55.));
#1157=CARTESIAN_POINT('',(-73.05,67.,55.));
#1158=CARTESIAN_POINT('',(-73.05,67.,55.));
#1159=CARTESIAN_POINT('',(-82.95,67.,55.));
#1160=CARTESIAN_POINT('',(-82.95,67.,55.));
#1161=CARTESIAN_POINT('',(-81.95,64.85,55.));
#1162=CARTESIAN_POINT('',(-81.95,64.85,55.));
#1163=CARTESIAN_POINT('',(-93.,64.85,55.));
#1164=CARTESIAN_POINT('',(-93.,64.85,55.));
#1165=CARTESIAN_POINT('',(-93.,-58.,55.));
#1166=CARTESIAN_POINT('',(-93.,-58.,55.));
#1167=CARTESIAN_POINT('',(-33.,-58.,55.));
#1168=CARTESIAN_POINT('',(-33.,-58.,55.));
#1169=CARTESIAN_POINT('',(-33.,64.85,55.));
#1170=CARTESIAN_POINT('',(-33.,64.85,55.));
#1171=CARTESIAN_POINT('',(-44.1,64.85,55.));
#1172=CARTESIAN_POINT('',(-36.,2.00000000000001,55.));
#1173=CARTESIAN_POINT('',(-90.,2.00000000000001,55.));
#1174=CARTESIAN_POINT('',(-90.,2.00000000000001,55.));
#1175=CARTESIAN_POINT('',(-90.,-55.,55.));
#1176=CARTESIAN_POINT('',(-90.,-55.,55.));
#1177=CARTESIAN_POINT('',(-36.,-55.,55.));
#1178=CARTESIAN_POINT('',(-36.,-55.,55.));
#1179=CARTESIAN_POINT('',(-36.,2.00000000000001,55.));
#1180=CARTESIAN_POINT('',(-90.,5.00000000000001,55.));
#1181=CARTESIAN_POINT('',(-36.,5.00000000000003,55.));
#1182=CARTESIAN_POINT('',(-36.,5.00000000000003,55.));
#1183=CARTESIAN_POINT('',(-36.,62.,55.));
#1184=CARTESIAN_POINT('',(-36.,62.,55.));
#1185=CARTESIAN_POINT('',(-90.,62.,55.));
#1186=CARTESIAN_POINT('',(-90.,62.,55.));
#1187=CARTESIAN_POINT('',(-90.,5.00000000000001,55.));
#1188=CARTESIAN_POINT('',(-90.,2.,3.));
#1189=CARTESIAN_POINT('',(-36.,2.00000000000001,3.));
#1190=CARTESIAN_POINT('',(-90.,-55.,3.));
#1191=CARTESIAN_POINT('',(-90.,2.,3.));
#1192=CARTESIAN_POINT('',(-36.,-55.,3.));
#1193=CARTESIAN_POINT('',(-90.,-55.,3.));
#1194=CARTESIAN_POINT('',(-36.,2.00000000000001,3.));
#1195=CARTESIAN_POINT('',(-36.,-55.,3.));
#1196=CARTESIAN_POINT('',(-36.,5.00000000000003,3.));
#1197=CARTESIAN_POINT('',(-90.,5.00000000000002,3.));
#1198=CARTESIAN_POINT('',(-36.,62.,3.));
#1199=CARTESIAN_POINT('',(-36.,5.00000000000003,3.));
#1200=CARTESIAN_POINT('',(-90.,62.,3.));
#1201=CARTESIAN_POINT('',(-36.,62.,3.));
#1202=CARTESIAN_POINT('',(-90.,5.00000000000002,3.));
#1203=CARTESIAN_POINT('',(-90.,62.,3.));
#1204=CARTESIAN_POINT('',(-90.,2.,3.));
#1205=CARTESIAN_POINT('',(-90.,2.00000000000001,55.));
#1206=CARTESIAN_POINT('',(-36.,2.00000000000001,3.));
#1207=CARTESIAN_POINT('',(-36.,2.00000000000001,55.));
#1208=CARTESIAN_POINT('',(-90.,-55.,3.));
#1209=CARTESIAN_POINT('',(-90.,-55.,55.));
#1210=CARTESIAN_POINT('',(-36.,-55.,3.));
#1211=CARTESIAN_POINT('',(-36.,-55.,55.));
#1212=CARTESIAN_POINT('',(-36.,5.00000000000003,3.));
#1213=CARTESIAN_POINT('',(-36.,5.00000000000003,55.));
#1214=CARTESIAN_POINT('',(-90.,5.00000000000002,3.));
#1215=CARTESIAN_POINT('',(-90.,5.00000000000001,55.));
#1216=CARTESIAN_POINT('',(-36.,62.,3.));
#1217=CARTESIAN_POINT('',(-36.,62.,55.));
#1218=CARTESIAN_POINT('',(-90.,62.,3.));
#1219=CARTESIAN_POINT('',(-90.,62.,55.));
#1220=CARTESIAN_POINT('',(-43.05,67.,0.));
#1221=CARTESIAN_POINT('',(-43.05,67.,3.));
#1222=CARTESIAN_POINT('',(-43.05,67.,55.));
#1223=CARTESIAN_POINT('',(-44.1,64.85,0.));
#1224=CARTESIAN_POINT('',(-44.1,64.85,3.));
#1225=CARTESIAN_POINT('',(-44.1,64.85,55.));
#1226=CARTESIAN_POINT('',(-52.95,67.,0.));
#1227=CARTESIAN_POINT('',(-52.95,67.,3.));
#1228=CARTESIAN_POINT('',(-52.95,67.,55.));
#1229=CARTESIAN_POINT('',(-51.9,64.85,0.));
#1230=CARTESIAN_POINT('',(-51.9,64.85,3.));
#1231=CARTESIAN_POINT('',(-51.9,64.85,55.));
#1232=CARTESIAN_POINT('',(-74.05,64.85,0.));
#1233=CARTESIAN_POINT('',(-74.05,64.85,3.));
#1234=CARTESIAN_POINT('',(-74.05,64.85,55.));
#1235=CARTESIAN_POINT('',(-73.05,67.,0.));
#1236=CARTESIAN_POINT('',(-73.05,67.,3.));
#1237=CARTESIAN_POINT('',(-73.05,67.,55.));
#1238=CARTESIAN_POINT('',(-82.95,67.,0.));
#1239=CARTESIAN_POINT('',(-82.95,67.,3.));
#1240=CARTESIAN_POINT('',(-82.95,67.,55.));
#1241=CARTESIAN_POINT('',(-81.95,64.85,0.));
#1242=CARTESIAN_POINT('',(-81.95,64.85,3.));
#1243=CARTESIAN_POINT('',(-81.95,64.85,55.));
#1244=CARTESIAN_POINT('',(-93.,64.85,0.));
#1245=CARTESIAN_POINT('',(-93.,64.85,3.));
#1246=CARTESIAN_POINT('',(-93.,64.85,55.));
#1247=CARTESIAN_POINT('',(-93.,-58.,0.));
#1248=CARTESIAN_POINT('',(-93.,-58.,3.));
#1249=CARTESIAN_POINT('',(-93.,-58.,55.));
#1250=CARTESIAN_POINT('',(-33.,-58.,0.));
#1251=CARTESIAN_POINT('',(-33.,-58.,3.));
#1252=CARTESIAN_POINT('',(-33.,-58.,55.));
#1253=CARTESIAN_POINT('',(-33.,64.85,0.));
#1254=CARTESIAN_POINT('',(-33.,64.85,3.));
#1255=CARTESIAN_POINT('',(-33.,64.85,55.));
#1256=CARTESIAN_POINT('',(-95.5004592154376,28.4508704172289,58.1995407845624));
#1257=CARTESIAN_POINT('',(-95.4445135569581,33.4508704172289,60.6996921254604));
#1258=CARTESIAN_POINT('',(-95.4995403663343,28.4508704172289,58.1995403663204));
#1259=CARTESIAN_POINT('',(-97.9996921254603,33.4508704172289,58.2554864430419));
#1260=CARTESIAN_POINT('',(-93.0001148051708,23.4508704172289,56.6529305605131));
#1261=CARTESIAN_POINT('',(-95.4995403663203,28.4508704172289,58.2004596336657));
#1262=CARTESIAN_POINT('',(-93.,33.4508704172289,55.7));
#1263=CARTESIAN_POINT('',(-93.,23.4508704172289,51.7));
#1264=CARTESIAN_POINT('',(-98.4996613380064,33.4508704172289,51.2292698354492));
#1265=CARTESIAN_POINT('',(-98.4996613380064,23.4508704172289,51.2292698354492));
#1266=CARTESIAN_POINT('',(-94.1251729368607,28.4514528835437,56.8247229876628));
#1267=CARTESIAN_POINT('',(-95.5001729368607,38.4514528835437,58.1997229876628));
#1268=CARTESIAN_POINT('',(-95.5001729368607,38.4514528835437,58.1997229876628));
#1269=CARTESIAN_POINT('',(-97.9996921074821,33.4508704172289,58.1445127541489));
#1270=CARTESIAN_POINT('',(-97.9996921074821,23.4508704172289,58.1445127541489));
#1271=CARTESIAN_POINT('',(-93.,33.4508704172289,55.7));
#1272=CARTESIAN_POINT('',(-93.,23.4508704172289,55.7));
#1273=CARTESIAN_POINT('',(-93.0003078745397,33.4508704172289,58.2554864430419));
#1274=CARTESIAN_POINT('',(-93.0003078745397,23.4508704172289,58.2554864430419));
#1275=CARTESIAN_POINT('',(-95.4445135569581,33.4508704172289,60.6996921254604));
#1276=CARTESIAN_POINT('',(-95.4445135569581,23.4508704172289,60.6996921254604));
#1277=CARTESIAN_POINT('',(-95.555487245851,33.4508704172289,60.6996921074821));
#1278=CARTESIAN_POINT('',(-95.555487245851,23.4508704172289,60.6996921074821));
#1279=CARTESIAN_POINT('',(-97.9996921254603,33.4508704172289,58.2554864430419));
#1280=CARTESIAN_POINT('',(-97.9996921254603,23.4508704172289,58.2554864430419));
#1281=CARTESIAN_POINT('',(-93.,23.4508704172289,51.7));
#1282=CARTESIAN_POINT('',(-93.,33.4508704172289,51.7));
#1283=CARTESIAN_POINT('',(-97.2426620521796,33.4508704172289,56.407301645512));
#1284=CARTESIAN_POINT('',(-97.2426620521796,23.4508704172289,56.407301645512));
#1285=CARTESIAN_POINT('',(-94.4001729368607,28.4514528835437,58.1997229876628));
#1286=CARTESIAN_POINT('',(-94.4001729368607,33.4508704172289,58.1997229876628));
#1287=CARTESIAN_POINT('',(-96.6001729368607,28.4514528835437,58.1997229876628));
#1288=CARTESIAN_POINT('',(-96.6001729368607,33.4508704172289,58.1997229876628));
#1289=CARTESIAN_POINT('',(-97.9996921074821,33.4508704172289,58.1445127541489));
#1290=CARTESIAN_POINT('',(-97.9996921074821,23.4508704172289,58.1445127541489));
#1291=CARTESIAN_POINT('',(-93.,33.4508704172289,55.7));
#1292=CARTESIAN_POINT('',(-93.,23.4508704172289,55.7));
#1293=CARTESIAN_POINT('',(-93.0003078745397,33.4508704172289,58.2554864430419));
#1294=CARTESIAN_POINT('',(-93.0003078745397,23.4508704172289,58.2554864430419));
#1295=CARTESIAN_POINT('',(-95.5004592154376,33.4508704172289,58.1995407845624));
#1296=CARTESIAN_POINT('',(-93.0003078745397,33.4508704172289,58.2554864430419));
#1297=CARTESIAN_POINT('',(-95.4445135569581,33.4508704172289,60.6996921254604));
#1298=CARTESIAN_POINT('',(-95.4445135569581,33.4508704172289,60.6996921254604));
#1299=CARTESIAN_POINT('',(-95.4445135569581,23.4508704172289,60.6996921254604));
#1300=CARTESIAN_POINT('',(-95.5004592154376,23.4508704172289,58.1995407845624));
#1301=CARTESIAN_POINT('',(-93.0003078745397,23.4508704172289,58.2554864430419));
#1302=CARTESIAN_POINT('',(-95.4445135569581,23.4508704172289,60.6996921254603));
#1303=CARTESIAN_POINT('',(-95.4445135569581,33.4508704172289,60.6996921254604));
#1304=CARTESIAN_POINT('',(-95.555487245851,33.4508704172289,60.6996921074821));
#1305=CARTESIAN_POINT('',(-95.555487245851,33.4508704172289,60.6996921074821));
#1306=CARTESIAN_POINT('',(-95.555487245851,23.4508704172289,60.6996921074821));
#1307=CARTESIAN_POINT('',(-95.4445135569581,23.4508704172289,60.6996921254604));
#1308=CARTESIAN_POINT('',(-95.555487245851,23.4508704172289,60.6996921074821));
#1309=CARTESIAN_POINT('',(-95.4995403663343,33.4508704172289,58.1995403663204));
#1310=CARTESIAN_POINT('',(-95.555487245851,33.4508704172289,60.6996921074821));
#1311=CARTESIAN_POINT('',(-97.9996921254603,33.4508704172289,58.2554864430419));
#1312=CARTESIAN_POINT('',(-97.9996921254603,33.4508704172289,58.2554864430419));
#1313=CARTESIAN_POINT('',(-97.9996921254603,23.4508704172289,58.2554864430419));
#1314=CARTESIAN_POINT('',(-95.4995403663343,23.4508704172288,58.1995403663204));
#1315=CARTESIAN_POINT('',(-95.555487245851,23.4508704172289,60.6996921074821));
#1316=CARTESIAN_POINT('',(-97.9996921254603,23.4508704172289,58.2554864430419));
#1317=CARTESIAN_POINT('',(-97.9996921254603,33.4508704172289,58.2554864430419));
#1318=CARTESIAN_POINT('',(-97.9996921074821,33.4508704172289,58.1445127541489));
#1319=CARTESIAN_POINT('',(-97.9996921254603,23.4508704172289,58.2554864430419));
#1320=CARTESIAN_POINT('',(-97.9996921074821,23.4508704172289,58.1445127541489));
#1321=CARTESIAN_POINT('',(-93.,23.4508704172289,51.7));
#1322=CARTESIAN_POINT('',(-97.2426620521796,23.4508704172289,56.407301645512));
#1323=CARTESIAN_POINT('',(-93.,33.4508704172289,51.7));
#1324=CARTESIAN_POINT('',(-97.2426620521796,33.4508704172289,56.407301645512));
#1325=CARTESIAN_POINT('',(-93.,23.4508704172289,51.7));
#1326=CARTESIAN_POINT('',(-93.,33.4508704172289,51.7));
#1327=CARTESIAN_POINT('',(-97.2426620521796,33.4508704172289,56.407301645512));
#1328=CARTESIAN_POINT('',(-97.2426620521796,23.4508704172289,56.407301645512));
#1329=CARTESIAN_POINT('',(-93.,23.4508704172289,55.7));
#1330=CARTESIAN_POINT('',(-92.9999688294202,23.4508704172289,53.2000000010364));
#1331=CARTESIAN_POINT('',(-93.,23.4508704172289,51.7));
#1332=CARTESIAN_POINT('',(-93.,33.4508704172289,55.7));
#1333=CARTESIAN_POINT('',(-92.9999688294202,33.4508704172289,53.2000000010364));
#1334=CARTESIAN_POINT('',(-93.,33.4508704172289,51.7));
#1335=CARTESIAN_POINT('',(-95.4995403662813,33.4508704172289,58.200459633674));
#1336=CARTESIAN_POINT('',(-97.9996921074821,33.4508704172289,58.1445127541489));
#1337=CARTESIAN_POINT('',(-97.2426620521796,33.4508704172289,56.407301645512));
#1338=CARTESIAN_POINT('',(-95.4995403662812,23.4508704172289,58.2004596336741));
#1339=CARTESIAN_POINT('',(-97.9996921074821,23.4508704172289,58.1445127541489));
#1340=CARTESIAN_POINT('',(-97.2426620521796,23.4508704172289,56.407301645512));
#1341=CARTESIAN_POINT('',(-93.0003078745397,33.4508704172289,58.2554864430419));
#1342=CARTESIAN_POINT('',(-93.0001148051708,33.4508704172289,56.6529305605131));
#1343=CARTESIAN_POINT('',(-93.,33.4508704172289,55.7));
#1344=CARTESIAN_POINT('',(-93.0003078745397,23.4508704172289,58.2554864430419));
#1345=CARTESIAN_POINT('',(-93.0001148051708,23.4508704172289,56.6529305605131));
#1346=CARTESIAN_POINT('',(-93.,23.4508704172289,55.7));
#1347=CARTESIAN_POINT('',(-95.5001729368607,28.4514528835437,58.1997229876628));
#1348=CARTESIAN_POINT('',(-94.4001729368607,28.4514528835437,58.1997229876628));
#1349=CARTESIAN_POINT('',(-96.6001729368606,28.4514528835437,58.1997229876628));
#1350=CARTESIAN_POINT('',(-94.4001729368607,28.4514528835437,58.1997229876628));
#1351=CARTESIAN_POINT('',(-94.4001729368607,33.4508704172289,58.1997229876628));
#1352=CARTESIAN_POINT('',(-95.5001729368607,33.4508704172289,58.1997229876628));
#1353=CARTESIAN_POINT('',(-94.4001729368607,33.4508704172289,58.1997229876628));
#1354=CARTESIAN_POINT('',(-96.6001729368606,33.4508704172289,58.1997229876628));
#1355=CARTESIAN_POINT('',(-96.6001729368607,28.4514528835437,58.1997229876628));
#1356=CARTESIAN_POINT('',(-96.6001729368607,33.4508704172288,58.1997229876628));
#1357=CARTESIAN_POINT('',(-95.5001729368607,28.4514528835437,58.1997229876628));
#1358=CARTESIAN_POINT('',(-96.6001729368607,28.4514528835437,58.1997229876628));
#1359=CARTESIAN_POINT('',(-94.4001729368607,28.4514528835437,58.1997229876628));
#1360=CARTESIAN_POINT('',(-95.5001729368607,33.4508704172289,58.1997229876628));
#1361=CARTESIAN_POINT('',(-96.6001729368607,33.4508704172289,58.1997229876628));
#1362=CARTESIAN_POINT('',(-94.4001729368607,33.4508704172288,58.1997229876628));
#1363=CARTESIAN_POINT('',(-95.5004592154376,-31.5491295827712,58.1995407845624));
#1364=CARTESIAN_POINT('',(-95.4445135569581,-26.5491295827711,60.6996921254604));
#1365=CARTESIAN_POINT('',(-95.4995403663343,-31.5491295827712,58.1995403663204));
#1366=CARTESIAN_POINT('',(-97.9996921254603,-26.5491295827711,58.2554864430419));
#1367=CARTESIAN_POINT('',(-93.0001148051708,-36.5491295827712,56.6529305605131));
#1368=CARTESIAN_POINT('',(-95.4995403663203,-31.5491295827711,58.2004596336657));
#1369=CARTESIAN_POINT('',(-93.,-26.5491295827711,55.7));
#1370=CARTESIAN_POINT('',(-93.,-36.5491295827712,51.7));
#1371=CARTESIAN_POINT('',(-98.4996613380064,-26.5491295827711,51.2292698354492));
#1372=CARTESIAN_POINT('',(-98.4996613380064,-36.5491295827712,51.2292698354492));
#1373=CARTESIAN_POINT('',(-94.1251729368607,-31.5485471164563,56.8247229876628));
#1374=CARTESIAN_POINT('',(-95.5001729368607,-21.5485471164563,58.1997229876628));
#1375=CARTESIAN_POINT('',(-95.5001729368607,-21.5485471164563,58.1997229876628));
#1376=CARTESIAN_POINT('',(-97.9996921074821,-26.5491295827711,58.1445127541489));
#1377=CARTESIAN_POINT('',(-97.9996921074821,-36.5491295827712,58.1445127541489));
#1378=CARTESIAN_POINT('',(-93.,-26.5491295827711,55.7));
#1379=CARTESIAN_POINT('',(-93.,-36.5491295827712,55.7));
#1380=CARTESIAN_POINT('',(-93.0003078745397,-26.5491295827711,58.2554864430419));
#1381=CARTESIAN_POINT('',(-93.0003078745397,-36.5491295827712,58.2554864430419));
#1382=CARTESIAN_POINT('',(-95.4445135569581,-26.5491295827711,60.6996921254604));
#1383=CARTESIAN_POINT('',(-95.4445135569581,-36.5491295827712,60.6996921254604));
#1384=CARTESIAN_POINT('',(-95.555487245851,-26.5491295827711,60.6996921074821));
#1385=CARTESIAN_POINT('',(-95.555487245851,-36.5491295827712,60.6996921074821));
#1386=CARTESIAN_POINT('',(-97.9996921254603,-26.5491295827711,58.2554864430419));
#1387=CARTESIAN_POINT('',(-97.9996921254603,-36.5491295827712,58.2554864430419));
#1388=CARTESIAN_POINT('',(-93.,-36.5491295827712,51.7));
#1389=CARTESIAN_POINT('',(-93.,-26.5491295827711,51.7));
#1390=CARTESIAN_POINT('',(-97.2426620521796,-26.5491295827711,56.407301645512));
#1391=CARTESIAN_POINT('',(-97.2426620521796,-36.5491295827712,56.407301645512));
#1392=CARTESIAN_POINT('',(-94.4001729368607,-31.5485471164563,58.1997229876628));
#1393=CARTESIAN_POINT('',(-94.4001729368607,-26.5491295827711,58.1997229876628));
#1394=CARTESIAN_POINT('',(-96.6001729368607,-31.5485471164563,58.1997229876628));
#1395=CARTESIAN_POINT('',(-96.6001729368607,-26.5491295827711,58.1997229876628));
#1396=CARTESIAN_POINT('',(-97.9996921074821,-26.5491295827711,58.1445127541489));
#1397=CARTESIAN_POINT('',(-97.9996921074821,-36.5491295827712,58.1445127541489));
#1398=CARTESIAN_POINT('',(-93.,-26.5491295827711,55.7));
#1399=CARTESIAN_POINT('',(-93.,-36.5491295827712,55.7));
#1400=CARTESIAN_POINT('',(-93.0003078745397,-26.5491295827711,58.2554864430419));
#1401=CARTESIAN_POINT('',(-93.0003078745397,-36.5491295827712,58.2554864430419));
#1402=CARTESIAN_POINT('',(-95.5004592154376,-26.5491295827711,58.1995407845624));
#1403=CARTESIAN_POINT('',(-93.0003078745397,-26.5491295827711,58.2554864430419));
#1404=CARTESIAN_POINT('',(-95.4445135569581,-26.5491295827711,60.6996921254604));
#1405=CARTESIAN_POINT('',(-95.4445135569581,-26.5491295827711,60.6996921254604));
#1406=CARTESIAN_POINT('',(-95.4445135569581,-36.5491295827712,60.6996921254604));
#1407=CARTESIAN_POINT('',(-95.5004592154376,-36.5491295827712,58.1995407845624));
#1408=CARTESIAN_POINT('',(-93.0003078745397,-36.5491295827712,58.2554864430419));
#1409=CARTESIAN_POINT('',(-95.4445135569581,-36.5491295827712,60.6996921254604));
#1410=CARTESIAN_POINT('',(-95.4445135569581,-26.5491295827711,60.6996921254604));
#1411=CARTESIAN_POINT('',(-95.555487245851,-26.5491295827711,60.6996921074821));
#1412=CARTESIAN_POINT('',(-95.555487245851,-26.5491295827711,60.6996921074821));
#1413=CARTESIAN_POINT('',(-95.555487245851,-36.5491295827712,60.6996921074821));
#1414=CARTESIAN_POINT('',(-95.4445135569581,-36.5491295827712,60.6996921254604));
#1415=CARTESIAN_POINT('',(-95.555487245851,-36.5491295827712,60.6996921074821));
#1416=CARTESIAN_POINT('',(-95.4995403663343,-26.5491295827711,58.1995403663204));
#1417=CARTESIAN_POINT('',(-95.555487245851,-26.5491295827711,60.6996921074821));
#1418=CARTESIAN_POINT('',(-97.9996921254603,-26.5491295827711,58.2554864430419));
#1419=CARTESIAN_POINT('',(-97.9996921254603,-26.5491295827711,58.2554864430419));
#1420=CARTESIAN_POINT('',(-97.9996921254603,-36.5491295827712,58.2554864430419));
#1421=CARTESIAN_POINT('',(-95.4995403663343,-36.5491295827712,58.1995403663204));
#1422=CARTESIAN_POINT('',(-95.555487245851,-36.5491295827712,60.6996921074821));
#1423=CARTESIAN_POINT('',(-97.9996921254603,-36.5491295827712,58.2554864430419));
#1424=CARTESIAN_POINT('',(-97.9996921254603,-26.5491295827711,58.2554864430419));
#1425=CARTESIAN_POINT('',(-97.9996921074821,-26.5491295827711,58.1445127541489));
#1426=CARTESIAN_POINT('',(-97.9996921254603,-36.5491295827712,58.2554864430419));
#1427=CARTESIAN_POINT('',(-97.9996921074821,-36.5491295827712,58.1445127541489));
#1428=CARTESIAN_POINT('',(-93.,-36.5491295827712,51.7));
#1429=CARTESIAN_POINT('',(-97.2426620521796,-36.5491295827712,56.407301645512));
#1430=CARTESIAN_POINT('',(-93.,-26.5491295827711,51.7));
#1431=CARTESIAN_POINT('',(-97.2426620521796,-26.5491295827711,56.407301645512));
#1432=CARTESIAN_POINT('',(-93.,-36.5491295827712,51.7));
#1433=CARTESIAN_POINT('',(-93.,-26.5491295827711,51.7));
#1434=CARTESIAN_POINT('',(-97.2426620521796,-26.5491295827711,56.407301645512));
#1435=CARTESIAN_POINT('',(-97.2426620521796,-36.5491295827712,56.407301645512));
#1436=CARTESIAN_POINT('',(-93.,-36.5491295827712,55.7));
#1437=CARTESIAN_POINT('',(-92.9999688294202,-36.5491295827712,53.2000000010364));
#1438=CARTESIAN_POINT('',(-93.,-36.5491295827712,51.7));
#1439=CARTESIAN_POINT('',(-93.,-26.5491295827711,55.7));
#1440=CARTESIAN_POINT('',(-92.9999688294202,-26.5491295827711,53.2000000010364));
#1441=CARTESIAN_POINT('',(-93.,-26.5491295827711,51.7));
#1442=CARTESIAN_POINT('',(-95.4995403662813,-26.5491295827711,58.200459633674));
#1443=CARTESIAN_POINT('',(-97.9996921074821,-26.5491295827711,58.1445127541489));
#1444=CARTESIAN_POINT('',(-97.2426620521796,-26.5491295827712,56.407301645512));
#1445=CARTESIAN_POINT('',(-95.4995403662812,-36.5491295827712,58.2004596336741));
#1446=CARTESIAN_POINT('',(-97.9996921074821,-36.5491295827712,58.1445127541489));
#1447=CARTESIAN_POINT('',(-97.2426620521796,-36.5491295827712,56.407301645512));
#1448=CARTESIAN_POINT('',(-93.0003078745397,-26.5491295827711,58.2554864430419));
#1449=CARTESIAN_POINT('',(-93.0001148051708,-26.5491295827711,56.6529305605131));
#1450=CARTESIAN_POINT('',(-93.,-26.5491295827711,55.7));
#1451=CARTESIAN_POINT('',(-93.0003078745397,-36.5491295827712,58.2554864430419));
#1452=CARTESIAN_POINT('',(-93.0001148051708,-36.5491295827712,56.6529305605131));
#1453=CARTESIAN_POINT('',(-93.,-36.5491295827712,55.7));
#1454=CARTESIAN_POINT('',(-95.5001729368607,-31.5485471164563,58.1997229876628));
#1455=CARTESIAN_POINT('',(-94.4001729368607,-31.5485471164563,58.1997229876628));
#1456=CARTESIAN_POINT('',(-96.6001729368606,-31.5485471164563,58.1997229876628));
#1457=CARTESIAN_POINT('',(-94.4001729368607,-31.5485471164563,58.1997229876628));
#1458=CARTESIAN_POINT('',(-94.4001729368607,-26.5491295827711,58.1997229876628));
#1459=CARTESIAN_POINT('',(-95.5001729368607,-26.5491295827711,58.1997229876628));
#1460=CARTESIAN_POINT('',(-94.4001729368607,-26.5491295827711,58.1997229876628));
#1461=CARTESIAN_POINT('',(-96.6001729368607,-26.5491295827711,58.1997229876628));
#1462=CARTESIAN_POINT('',(-96.6001729368607,-31.5485471164563,58.1997229876628));
#1463=CARTESIAN_POINT('',(-96.6001729368607,-26.5491295827711,58.1997229876628));
#1464=CARTESIAN_POINT('',(-95.5001729368607,-31.5485471164563,58.1997229876628));
#1465=CARTESIAN_POINT('',(-96.6001729368607,-31.5485471164563,58.1997229876628));
#1466=CARTESIAN_POINT('',(-94.4001729368607,-31.5485471164563,58.1997229876628));
#1467=CARTESIAN_POINT('',(-95.5001729368607,-26.5491295827711,58.1997229876628));
#1468=CARTESIAN_POINT('',(-96.6001729368607,-26.5491295827711,58.1997229876628));
#1469=CARTESIAN_POINT('',(-94.4001729368607,-26.5491295827711,58.1997229876628));
#1470=CARTESIAN_POINT('',(0.,0.,0.));
ENDSEC;
END-ISO-10303-21;
