ISO-10303-21;
HEADER;
/* Generated by software containing ST-Developer
 * from STEP Tools, Inc. (www.steptools.com) 
 */
/* OPTION: using custom schema-name function */

FILE_DESCRIPTION(
/* description */ (''),
/* implementation_level */ '2;1');

FILE_NAME(
/* name */ 'table_yellow_bot_4',
/* time_stamp */ '2026-09-04T19:58:25+03:00',
/* author */ (''),
/* organization */ (''),
/* preprocessor_version */ 'ST-DEVELOPER v19.2',
/* originating_system */ 'Rhino 8.34',
/* authorisation */ '');

FILE_SCHEMA (('CONFIG_CONTROL_DESIGN'));
ENDSEC;

DATA;
#10=SHAPE_REPRESENTATION_RELATIONSHIP('','',#690,#12);
#11=MANIFOLD_SOLID_BREP('brep_1',#13);
#12=ADVANCED_BREP_SHAPE_REPRESENTATION('brep_rep_0',(#11,#727),#689);
#13=CLOSED_SHELL('',(#15,#16,#17,#18,#19,#20,#21,#22,#23,#24,#25,#26,#27,
#28,#29,#30,#31,#32,#33,#34,#35,#36,#37,#38,#39,#40,#41,#42,#43,#44,#45,
#46,#47,#48,#49));
#14=FACE_BOUND('',#118,.T.);
#15=ADVANCED_FACE('',(#50),#569,.T.);
#16=ADVANCED_FACE('',(#51),#570,.T.);
#17=ADVANCED_FACE('',(#52),#571,.T.);
#18=ADVANCED_FACE('',(#53),#572,.T.);
#19=ADVANCED_FACE('',(#54),#573,.T.);
#20=ADVANCED_FACE('',(#55),#574,.T.);
#21=ADVANCED_FACE('',(#56),#575,.T.);
#22=ADVANCED_FACE('',(#57),#576,.T.);
#23=ADVANCED_FACE('',(#58),#577,.T.);
#24=ADVANCED_FACE('',(#59),#578,.T.);
#25=ADVANCED_FACE('',(#60),#579,.T.);
#26=ADVANCED_FACE('',(#61),#580,.T.);
#27=ADVANCED_FACE('',(#62),#581,.T.);
#28=ADVANCED_FACE('',(#63),#582,.T.);
#29=ADVANCED_FACE('',(#64),#583,.T.);
#30=ADVANCED_FACE('',(#65),#584,.T.);
#31=ADVANCED_FACE('',(#66),#585,.T.);
#32=ADVANCED_FACE('',(#67),#586,.T.);
#33=ADVANCED_FACE('',(#68),#587,.T.);
#34=ADVANCED_FACE('',(#69),#588,.T.);
#35=ADVANCED_FACE('',(#70),#589,.T.);
#36=ADVANCED_FACE('',(#71),#590,.T.);
#37=ADVANCED_FACE('',(#72),#591,.T.);
#38=ADVANCED_FACE('',(#73),#592,.T.);
#39=ADVANCED_FACE('',(#74),#593,.T.);
#40=ADVANCED_FACE('',(#75),#594,.T.);
#41=ADVANCED_FACE('',(#76),#595,.T.);
#42=ADVANCED_FACE('',(#77),#596,.T.);
#43=ADVANCED_FACE('',(#78),#597,.T.);
#44=ADVANCED_FACE('',(#79),#598,.T.);
#45=ADVANCED_FACE('',(#80),#599,.T.);
#46=ADVANCED_FACE('',(#81),#600,.T.);
#47=ADVANCED_FACE('',(#82,#14),#601,.T.);
#48=ADVANCED_FACE('',(#83),#602,.T.);
#49=ADVANCED_FACE('',(#84),#603,.T.);
#50=FACE_OUTER_BOUND('',#85,.T.);
#51=FACE_OUTER_BOUND('',#86,.T.);
#52=FACE_OUTER_BOUND('',#87,.T.);
#53=FACE_OUTER_BOUND('',#88,.T.);
#54=FACE_OUTER_BOUND('',#89,.T.);
#55=FACE_OUTER_BOUND('',#90,.T.);
#56=FACE_OUTER_BOUND('',#91,.T.);
#57=FACE_OUTER_BOUND('',#92,.T.);
#58=FACE_OUTER_BOUND('',#93,.T.);
#59=FACE_OUTER_BOUND('',#94,.T.);
#60=FACE_OUTER_BOUND('',#95,.T.);
#61=FACE_OUTER_BOUND('',#96,.T.);
#62=FACE_OUTER_BOUND('',#97,.T.);
#63=FACE_OUTER_BOUND('',#98,.T.);
#64=FACE_OUTER_BOUND('',#99,.T.);
#65=FACE_OUTER_BOUND('',#100,.T.);
#66=FACE_OUTER_BOUND('',#101,.T.);
#67=FACE_OUTER_BOUND('',#102,.T.);
#68=FACE_OUTER_BOUND('',#103,.T.);
#69=FACE_OUTER_BOUND('',#104,.T.);
#70=FACE_OUTER_BOUND('',#105,.T.);
#71=FACE_OUTER_BOUND('',#106,.T.);
#72=FACE_OUTER_BOUND('',#107,.T.);
#73=FACE_OUTER_BOUND('',#108,.T.);
#74=FACE_OUTER_BOUND('',#109,.T.);
#75=FACE_OUTER_BOUND('',#110,.T.);
#76=FACE_OUTER_BOUND('',#111,.T.);
#77=FACE_OUTER_BOUND('',#112,.T.);
#78=FACE_OUTER_BOUND('',#113,.T.);
#79=FACE_OUTER_BOUND('',#114,.T.);
#80=FACE_OUTER_BOUND('',#115,.T.);
#81=FACE_OUTER_BOUND('',#116,.T.);
#82=FACE_OUTER_BOUND('',#117,.T.);
#83=FACE_OUTER_BOUND('',#119,.T.);
#84=FACE_OUTER_BOUND('',#120,.T.);
#85=EDGE_LOOP('',(#121,#122,#123,#124));
#86=EDGE_LOOP('',(#125,#126,#127,#128,#129,#130,#131,#132,#133,#134,#135,
#136,#137,#138,#139,#140,#141,#142,#143,#144));
#87=EDGE_LOOP('',(#145,#146,#147,#148));
#88=EDGE_LOOP('',(#149,#150,#151,#152));
#89=EDGE_LOOP('',(#153,#154,#155,#156));
#90=EDGE_LOOP('',(#157,#158,#159,#160));
#91=EDGE_LOOP('',(#161,#162,#163,#164));
#92=EDGE_LOOP('',(#165,#166,#167,#168));
#93=EDGE_LOOP('',(#169,#170,#171,#172,#173,#174,#175,#176,#177,#178,#179,
#180));
#94=EDGE_LOOP('',(#181,#182,#183,#184));
#95=EDGE_LOOP('',(#185,#186,#187,#188));
#96=EDGE_LOOP('',(#189,#190,#191,#192));
#97=EDGE_LOOP('',(#193,#194,#195,#196));
#98=EDGE_LOOP('',(#197,#198,#199,#200));
#99=EDGE_LOOP('',(#201,#202,#203,#204));
#100=EDGE_LOOP('',(#205,#206,#207,#208));
#101=EDGE_LOOP('',(#209,#210,#211,#212));
#102=EDGE_LOOP('',(#213,#214,#215,#216));
#103=EDGE_LOOP('',(#217,#218,#219,#220));
#104=EDGE_LOOP('',(#221,#222,#223,#224));
#105=EDGE_LOOP('',(#225,#226,#227,#228));
#106=EDGE_LOOP('',(#229,#230,#231,#232));
#107=EDGE_LOOP('',(#233,#234,#235,#236));
#108=EDGE_LOOP('',(#237,#238,#239,#240));
#109=EDGE_LOOP('',(#241,#242,#243,#244));
#110=EDGE_LOOP('',(#245,#246,#247,#248));
#111=EDGE_LOOP('',(#249,#250,#251,#252));
#112=EDGE_LOOP('',(#253,#254,#255,#256));
#113=EDGE_LOOP('',(#257,#258,#259,#260));
#114=EDGE_LOOP('',(#261,#262,#263,#264));
#115=EDGE_LOOP('',(#265,#266,#267,#268));
#116=EDGE_LOOP('',(#269,#270,#271,#272));
#117=EDGE_LOOP('',(#273,#274,#275,#276,#277,#278,#279,#280,#281,#282,#283,
#284));
#118=EDGE_LOOP('',(#285,#286,#287,#288,#289,#290,#291,#292,#293,#294,#295,
#296));
#119=EDGE_LOOP('',(#297,#298,#299,#300));
#120=EDGE_LOOP('',(#301,#302,#303,#304,#305,#306,#307,#308,#309,#310,#311,
#312));
#121=ORIENTED_EDGE('',*,*,#397,.T.);
#122=ORIENTED_EDGE('',*,*,#398,.T.);
#123=ORIENTED_EDGE('',*,*,#394,.T.);
#124=ORIENTED_EDGE('',*,*,#401,.T.);
#125=ORIENTED_EDGE('',*,*,#332,.F.);
#126=ORIENTED_EDGE('',*,*,#331,.F.);
#127=ORIENTED_EDGE('',*,*,#330,.F.);
#128=ORIENTED_EDGE('',*,*,#329,.F.);
#129=ORIENTED_EDGE('',*,*,#328,.F.);
#130=ORIENTED_EDGE('',*,*,#327,.F.);
#131=ORIENTED_EDGE('',*,*,#326,.F.);
#132=ORIENTED_EDGE('',*,*,#325,.F.);
#133=ORIENTED_EDGE('',*,*,#324,.F.);
#134=ORIENTED_EDGE('',*,*,#323,.F.);
#135=ORIENTED_EDGE('',*,*,#322,.F.);
#136=ORIENTED_EDGE('',*,*,#321,.F.);
#137=ORIENTED_EDGE('',*,*,#320,.F.);
#138=ORIENTED_EDGE('',*,*,#319,.F.);
#139=ORIENTED_EDGE('',*,*,#318,.F.);
#140=ORIENTED_EDGE('',*,*,#317,.F.);
#141=ORIENTED_EDGE('',*,*,#316,.F.);
#142=ORIENTED_EDGE('',*,*,#315,.F.);
#143=ORIENTED_EDGE('',*,*,#314,.F.);
#144=ORIENTED_EDGE('',*,*,#313,.F.);
#145=ORIENTED_EDGE('',*,*,#336,.F.);
#146=ORIENTED_EDGE('',*,*,#378,.F.);
#147=ORIENTED_EDGE('',*,*,#316,.T.);
#148=ORIENTED_EDGE('',*,*,#379,.T.);
#149=ORIENTED_EDGE('',*,*,#403,.F.);
#150=ORIENTED_EDGE('',*,*,#379,.F.);
#151=ORIENTED_EDGE('',*,*,#317,.T.);
#152=ORIENTED_EDGE('',*,*,#408,.T.);
#153=ORIENTED_EDGE('',*,*,#337,.F.);
#154=ORIENTED_EDGE('',*,*,#388,.F.);
#155=ORIENTED_EDGE('',*,*,#328,.T.);
#156=ORIENTED_EDGE('',*,*,#389,.T.);
#157=ORIENTED_EDGE('',*,*,#338,.F.);
#158=ORIENTED_EDGE('',*,*,#389,.F.);
#159=ORIENTED_EDGE('',*,*,#329,.T.);
#160=ORIENTED_EDGE('',*,*,#390,.T.);
#161=ORIENTED_EDGE('',*,*,#339,.F.);
#162=ORIENTED_EDGE('',*,*,#390,.F.);
#163=ORIENTED_EDGE('',*,*,#330,.T.);
#164=ORIENTED_EDGE('',*,*,#391,.T.);
#165=ORIENTED_EDGE('',*,*,#340,.F.);
#166=ORIENTED_EDGE('',*,*,#391,.F.);
#167=ORIENTED_EDGE('',*,*,#331,.T.);
#168=ORIENTED_EDGE('',*,*,#392,.T.);
#169=ORIENTED_EDGE('',*,*,#357,.F.);
#170=ORIENTED_EDGE('',*,*,#358,.F.);
#171=ORIENTED_EDGE('',*,*,#359,.F.);
#172=ORIENTED_EDGE('',*,*,#360,.F.);
#173=ORIENTED_EDGE('',*,*,#361,.F.);
#174=ORIENTED_EDGE('',*,*,#362,.F.);
#175=ORIENTED_EDGE('',*,*,#363,.F.);
#176=ORIENTED_EDGE('',*,*,#364,.F.);
#177=ORIENTED_EDGE('',*,*,#353,.F.);
#178=ORIENTED_EDGE('',*,*,#354,.F.);
#179=ORIENTED_EDGE('',*,*,#355,.F.);
#180=ORIENTED_EDGE('',*,*,#356,.F.);
#181=ORIENTED_EDGE('',*,*,#376,.F.);
#182=ORIENTED_EDGE('',*,*,#313,.T.);
#183=ORIENTED_EDGE('',*,*,#375,.T.);
#184=ORIENTED_EDGE('',*,*,#333,.F.);
#185=ORIENTED_EDGE('',*,*,#375,.F.);
#186=ORIENTED_EDGE('',*,*,#314,.T.);
#187=ORIENTED_EDGE('',*,*,#377,.T.);
#188=ORIENTED_EDGE('',*,*,#334,.F.);
#189=ORIENTED_EDGE('',*,*,#377,.F.);
#190=ORIENTED_EDGE('',*,*,#315,.T.);
#191=ORIENTED_EDGE('',*,*,#378,.T.);
#192=ORIENTED_EDGE('',*,*,#335,.F.);
#193=ORIENTED_EDGE('',*,*,#405,.F.);
#194=ORIENTED_EDGE('',*,*,#327,.T.);
#195=ORIENTED_EDGE('',*,*,#388,.T.);
#196=ORIENTED_EDGE('',*,*,#404,.F.);
#197=ORIENTED_EDGE('',*,*,#392,.F.);
#198=ORIENTED_EDGE('',*,*,#332,.T.);
#199=ORIENTED_EDGE('',*,*,#376,.T.);
#200=ORIENTED_EDGE('',*,*,#341,.F.);
#201=ORIENTED_EDGE('',*,*,#353,.T.);
#202=ORIENTED_EDGE('',*,*,#365,.T.);
#203=ORIENTED_EDGE('',*,*,#342,.T.);
#204=ORIENTED_EDGE('',*,*,#406,.F.);
#205=ORIENTED_EDGE('',*,*,#355,.T.);
#206=ORIENTED_EDGE('',*,*,#407,.T.);
#207=ORIENTED_EDGE('',*,*,#343,.T.);
#208=ORIENTED_EDGE('',*,*,#366,.F.);
#209=ORIENTED_EDGE('',*,*,#356,.T.);
#210=ORIENTED_EDGE('',*,*,#366,.T.);
#211=ORIENTED_EDGE('',*,*,#344,.T.);
#212=ORIENTED_EDGE('',*,*,#367,.F.);
#213=ORIENTED_EDGE('',*,*,#357,.T.);
#214=ORIENTED_EDGE('',*,*,#367,.T.);
#215=ORIENTED_EDGE('',*,*,#345,.T.);
#216=ORIENTED_EDGE('',*,*,#368,.F.);
#217=ORIENTED_EDGE('',*,*,#358,.T.);
#218=ORIENTED_EDGE('',*,*,#368,.T.);
#219=ORIENTED_EDGE('',*,*,#346,.T.);
#220=ORIENTED_EDGE('',*,*,#369,.F.);
#221=ORIENTED_EDGE('',*,*,#359,.T.);
#222=ORIENTED_EDGE('',*,*,#369,.T.);
#223=ORIENTED_EDGE('',*,*,#347,.T.);
#224=ORIENTED_EDGE('',*,*,#370,.F.);
#225=ORIENTED_EDGE('',*,*,#360,.T.);
#226=ORIENTED_EDGE('',*,*,#370,.T.);
#227=ORIENTED_EDGE('',*,*,#348,.T.);
#228=ORIENTED_EDGE('',*,*,#371,.F.);
#229=ORIENTED_EDGE('',*,*,#361,.T.);
#230=ORIENTED_EDGE('',*,*,#371,.T.);
#231=ORIENTED_EDGE('',*,*,#349,.T.);
#232=ORIENTED_EDGE('',*,*,#372,.F.);
#233=ORIENTED_EDGE('',*,*,#362,.T.);
#234=ORIENTED_EDGE('',*,*,#372,.T.);
#235=ORIENTED_EDGE('',*,*,#350,.T.);
#236=ORIENTED_EDGE('',*,*,#373,.F.);
#237=ORIENTED_EDGE('',*,*,#363,.T.);
#238=ORIENTED_EDGE('',*,*,#373,.T.);
#239=ORIENTED_EDGE('',*,*,#351,.T.);
#240=ORIENTED_EDGE('',*,*,#374,.F.);
#241=ORIENTED_EDGE('',*,*,#364,.T.);
#242=ORIENTED_EDGE('',*,*,#374,.T.);
#243=ORIENTED_EDGE('',*,*,#352,.T.);
#244=ORIENTED_EDGE('',*,*,#365,.F.);
#245=ORIENTED_EDGE('',*,*,#396,.T.);
#246=ORIENTED_EDGE('',*,*,#393,.T.);
#247=ORIENTED_EDGE('',*,*,#400,.T.);
#248=ORIENTED_EDGE('',*,*,#395,.T.);
#249=ORIENTED_EDGE('',*,*,#382,.F.);
#250=ORIENTED_EDGE('',*,*,#321,.T.);
#251=ORIENTED_EDGE('',*,*,#383,.T.);
#252=ORIENTED_EDGE('',*,*,#393,.F.);
#253=ORIENTED_EDGE('',*,*,#386,.F.);
#254=ORIENTED_EDGE('',*,*,#325,.T.);
#255=ORIENTED_EDGE('',*,*,#387,.T.);
#256=ORIENTED_EDGE('',*,*,#394,.F.);
#257=ORIENTED_EDGE('',*,*,#380,.F.);
#258=ORIENTED_EDGE('',*,*,#319,.T.);
#259=ORIENTED_EDGE('',*,*,#381,.T.);
#260=ORIENTED_EDGE('',*,*,#395,.F.);
#261=ORIENTED_EDGE('',*,*,#381,.F.);
#262=ORIENTED_EDGE('',*,*,#320,.T.);
#263=ORIENTED_EDGE('',*,*,#382,.T.);
#264=ORIENTED_EDGE('',*,*,#396,.F.);
#265=ORIENTED_EDGE('',*,*,#384,.F.);
#266=ORIENTED_EDGE('',*,*,#323,.T.);
#267=ORIENTED_EDGE('',*,*,#385,.T.);
#268=ORIENTED_EDGE('',*,*,#397,.F.);
#269=ORIENTED_EDGE('',*,*,#385,.F.);
#270=ORIENTED_EDGE('',*,*,#324,.T.);
#271=ORIENTED_EDGE('',*,*,#386,.T.);
#272=ORIENTED_EDGE('',*,*,#398,.F.);
#273=ORIENTED_EDGE('',*,*,#402,.T.);
#274=ORIENTED_EDGE('',*,*,#404,.T.);
#275=ORIENTED_EDGE('',*,*,#337,.T.);
#276=ORIENTED_EDGE('',*,*,#338,.T.);
#277=ORIENTED_EDGE('',*,*,#339,.T.);
#278=ORIENTED_EDGE('',*,*,#340,.T.);
#279=ORIENTED_EDGE('',*,*,#341,.T.);
#280=ORIENTED_EDGE('',*,*,#333,.T.);
#281=ORIENTED_EDGE('',*,*,#334,.T.);
#282=ORIENTED_EDGE('',*,*,#335,.T.);
#283=ORIENTED_EDGE('',*,*,#336,.T.);
#284=ORIENTED_EDGE('',*,*,#403,.T.);
#285=ORIENTED_EDGE('',*,*,#342,.F.);
#286=ORIENTED_EDGE('',*,*,#352,.F.);
#287=ORIENTED_EDGE('',*,*,#351,.F.);
#288=ORIENTED_EDGE('',*,*,#350,.F.);
#289=ORIENTED_EDGE('',*,*,#349,.F.);
#290=ORIENTED_EDGE('',*,*,#348,.F.);
#291=ORIENTED_EDGE('',*,*,#347,.F.);
#292=ORIENTED_EDGE('',*,*,#346,.F.);
#293=ORIENTED_EDGE('',*,*,#345,.F.);
#294=ORIENTED_EDGE('',*,*,#344,.F.);
#295=ORIENTED_EDGE('',*,*,#343,.F.);
#296=ORIENTED_EDGE('',*,*,#399,.F.);
#297=ORIENTED_EDGE('',*,*,#406,.T.);
#298=ORIENTED_EDGE('',*,*,#399,.T.);
#299=ORIENTED_EDGE('',*,*,#407,.F.);
#300=ORIENTED_EDGE('',*,*,#354,.T.);
#301=ORIENTED_EDGE('',*,*,#383,.F.);
#302=ORIENTED_EDGE('',*,*,#322,.T.);
#303=ORIENTED_EDGE('',*,*,#384,.T.);
#304=ORIENTED_EDGE('',*,*,#401,.F.);
#305=ORIENTED_EDGE('',*,*,#387,.F.);
#306=ORIENTED_EDGE('',*,*,#326,.T.);
#307=ORIENTED_EDGE('',*,*,#405,.T.);
#308=ORIENTED_EDGE('',*,*,#402,.F.);
#309=ORIENTED_EDGE('',*,*,#408,.F.);
#310=ORIENTED_EDGE('',*,*,#318,.T.);
#311=ORIENTED_EDGE('',*,*,#380,.T.);
#312=ORIENTED_EDGE('',*,*,#400,.F.);
#313=EDGE_CURVE('',#507,#508,#409,.T.);
#314=EDGE_CURVE('',#508,#509,#410,.T.);
#315=EDGE_CURVE('',#509,#510,#411,.T.);
#316=EDGE_CURVE('',#510,#511,#412,.T.);
#317=EDGE_CURVE('',#511,#512,#413,.T.);
#318=EDGE_CURVE('',#512,#513,#414,.T.);
#319=EDGE_CURVE('',#513,#514,#415,.T.);
#320=EDGE_CURVE('',#514,#515,#416,.T.);
#321=EDGE_CURVE('',#515,#516,#417,.T.);
#322=EDGE_CURVE('',#516,#517,#418,.T.);
#323=EDGE_CURVE('',#517,#518,#419,.T.);
#324=EDGE_CURVE('',#518,#519,#420,.T.);
#325=EDGE_CURVE('',#519,#520,#421,.T.);
#326=EDGE_CURVE('',#520,#521,#422,.T.);
#327=EDGE_CURVE('',#521,#522,#423,.T.);
#328=EDGE_CURVE('',#522,#523,#424,.T.);
#329=EDGE_CURVE('',#523,#524,#425,.T.);
#330=EDGE_CURVE('',#524,#525,#426,.T.);
#331=EDGE_CURVE('',#525,#526,#427,.T.);
#332=EDGE_CURVE('',#526,#507,#428,.T.);
#333=EDGE_CURVE('',#528,#527,#429,.T.);
#334=EDGE_CURVE('',#527,#529,#430,.T.);
#335=EDGE_CURVE('',#529,#530,#431,.T.);
#336=EDGE_CURVE('',#530,#531,#432,.T.);
#337=EDGE_CURVE('',#532,#533,#433,.T.);
#338=EDGE_CURVE('',#533,#534,#434,.T.);
#339=EDGE_CURVE('',#534,#535,#435,.T.);
#340=EDGE_CURVE('',#535,#536,#436,.T.);
#341=EDGE_CURVE('',#536,#528,#437,.T.);
#342=EDGE_CURVE('',#537,#559,#438,.T.);
#343=EDGE_CURVE('',#560,#538,#439,.T.);
#344=EDGE_CURVE('',#538,#539,#440,.T.);
#345=EDGE_CURVE('',#539,#540,#441,.T.);
#346=EDGE_CURVE('',#540,#541,#442,.T.);
#347=EDGE_CURVE('',#541,#542,#443,.T.);
#348=EDGE_CURVE('',#542,#543,#444,.T.);
#349=EDGE_CURVE('',#543,#544,#445,.T.);
#350=EDGE_CURVE('',#544,#545,#446,.T.);
#351=EDGE_CURVE('',#545,#546,#447,.T.);
#352=EDGE_CURVE('',#546,#537,#448,.T.);
#353=EDGE_CURVE('',#547,#548,#449,.T.);
#354=EDGE_CURVE('',#549,#547,#450,.T.);
#355=EDGE_CURVE('',#550,#549,#451,.T.);
#356=EDGE_CURVE('',#551,#550,#452,.T.);
#357=EDGE_CURVE('',#552,#551,#453,.T.);
#358=EDGE_CURVE('',#553,#552,#454,.T.);
#359=EDGE_CURVE('',#554,#553,#455,.T.);
#360=EDGE_CURVE('',#555,#554,#456,.T.);
#361=EDGE_CURVE('',#556,#555,#457,.T.);
#362=EDGE_CURVE('',#557,#556,#458,.T.);
#363=EDGE_CURVE('',#558,#557,#459,.T.);
#364=EDGE_CURVE('',#548,#558,#460,.T.);
#365=EDGE_CURVE('',#548,#537,#461,.T.);
#366=EDGE_CURVE('',#550,#538,#462,.T.);
#367=EDGE_CURVE('',#551,#539,#463,.T.);
#368=EDGE_CURVE('',#552,#540,#464,.T.);
#369=EDGE_CURVE('',#553,#541,#465,.T.);
#370=EDGE_CURVE('',#554,#542,#466,.T.);
#371=EDGE_CURVE('',#555,#543,#467,.T.);
#372=EDGE_CURVE('',#556,#544,#468,.T.);
#373=EDGE_CURVE('',#557,#545,#469,.T.);
#374=EDGE_CURVE('',#558,#546,#470,.T.);
#375=EDGE_CURVE('',#508,#527,#471,.T.);
#376=EDGE_CURVE('',#507,#528,#472,.T.);
#377=EDGE_CURVE('',#509,#529,#473,.T.);
#378=EDGE_CURVE('',#510,#530,#474,.T.);
#379=EDGE_CURVE('',#511,#531,#475,.T.);
#380=EDGE_CURVE('',#513,#564,#476,.T.);
#381=EDGE_CURVE('',#514,#567,#477,.T.);
#382=EDGE_CURVE('',#515,#565,#478,.T.);
#383=EDGE_CURVE('',#516,#561,#479,.T.);
#384=EDGE_CURVE('',#517,#562,#480,.T.);
#385=EDGE_CURVE('',#518,#568,#481,.T.);
#386=EDGE_CURVE('',#519,#566,#482,.T.);
#387=EDGE_CURVE('',#520,#563,#483,.T.);
#388=EDGE_CURVE('',#522,#532,#484,.T.);
#389=EDGE_CURVE('',#523,#533,#485,.T.);
#390=EDGE_CURVE('',#524,#534,#486,.T.);
#391=EDGE_CURVE('',#525,#535,#487,.T.);
#392=EDGE_CURVE('',#526,#536,#488,.T.);
#393=EDGE_CURVE('',#565,#561,#489,.T.);
#394=EDGE_CURVE('',#566,#563,#490,.T.);
#395=EDGE_CURVE('',#564,#567,#491,.T.);
#396=EDGE_CURVE('',#567,#565,#492,.T.);
#397=EDGE_CURVE('',#562,#568,#493,.T.);
#398=EDGE_CURVE('',#568,#566,#494,.T.);
#399=EDGE_CURVE('',#559,#560,#495,.T.);
#400=EDGE_CURVE('',#561,#564,#496,.T.);
#401=EDGE_CURVE('',#563,#562,#497,.T.);
#402=EDGE_CURVE('',#505,#506,#498,.T.);
#403=EDGE_CURVE('',#531,#505,#499,.T.);
#404=EDGE_CURVE('',#506,#532,#500,.T.);
#405=EDGE_CURVE('',#521,#506,#501,.T.);
#406=EDGE_CURVE('',#547,#559,#502,.T.);
#407=EDGE_CURVE('',#549,#560,#503,.T.);
#408=EDGE_CURVE('',#512,#505,#504,.T.);
#409=B_SPLINE_CURVE_WITH_KNOTS('',1,(#867,#868),.UNSPECIFIED.,.F.,.F.,(2,
2),(10.,12.),.UNSPECIFIED.);
#410=B_SPLINE_CURVE_WITH_KNOTS('',1,(#869,#870),.UNSPECIFIED.,.F.,.F.,(2,
2),(12.,22.),.UNSPECIFIED.);
#411=B_SPLINE_CURVE_WITH_KNOTS('',1,(#871,#872),.UNSPECIFIED.,.F.,.F.,(2,
2),(22.,24.),.UNSPECIFIED.);
#412=B_SPLINE_CURVE_WITH_KNOTS('',1,(#873,#874),.UNSPECIFIED.,.F.,.F.,(2,
2),(24.,35.),.UNSPECIFIED.);
#413=B_SPLINE_CURVE_WITH_KNOTS('',1,(#875,#876),.UNSPECIFIED.,.F.,.F.,(2,
2),(35.,66.),.UNSPECIFIED.);
#414=B_SPLINE_CURVE_WITH_KNOTS('',1,(#877,#878),.UNSPECIFIED.,.F.,.F.,(2,
2),(66.,76.8322949016875),.UNSPECIFIED.);
#415=B_SPLINE_CURVE_WITH_KNOTS('',1,(#879,#880),.UNSPECIFIED.,.F.,.F.,(2,
2),(76.8322949016875,78.7018601190788),.UNSPECIFIED.);
#416=B_SPLINE_CURVE_WITH_KNOTS('',1,(#881,#882),.UNSPECIFIED.,.F.,.F.,(2,
2),(78.7018601190788,88.7018601190788),.UNSPECIFIED.);
#417=B_SPLINE_CURVE_WITH_KNOTS('',1,(#883,#884),.UNSPECIFIED.,.F.,.F.,(2,
2),(88.7018601190788,90.5714253364702),.UNSPECIFIED.);
#418=B_SPLINE_CURVE_WITH_KNOTS('',1,(#885,#886),.UNSPECIFIED.,.F.,.F.,(2,
2),(90.5714253364702,112.236015139845),.UNSPECIFIED.);
#419=B_SPLINE_CURVE_WITH_KNOTS('',1,(#887,#888),.UNSPECIFIED.,.F.,.F.,(2,
2),(112.236015139845,114.105580357236),.UNSPECIFIED.);
#420=B_SPLINE_CURVE_WITH_KNOTS('',1,(#889,#890),.UNSPECIFIED.,.F.,.F.,(2,
2),(114.105580357236,124.105580357237),.UNSPECIFIED.);
#421=B_SPLINE_CURVE_WITH_KNOTS('',1,(#891,#892),.UNSPECIFIED.,.F.,.F.,(2,
2),(124.105580357237,125.975145574628),.UNSPECIFIED.);
#422=B_SPLINE_CURVE_WITH_KNOTS('',1,(#893,#894),.UNSPECIFIED.,.F.,.F.,(2,
2),(125.975145574628,136.807440476315),.UNSPECIFIED.);
#423=B_SPLINE_CURVE_WITH_KNOTS('',1,(#895,#896),.UNSPECIFIED.,.F.,.F.,(2,
2),(136.807440476315,167.807440476315),.UNSPECIFIED.);
#424=B_SPLINE_CURVE_WITH_KNOTS('',1,(#897,#898),.UNSPECIFIED.,.F.,.F.,(2,
2),(167.807440476315,178.807440476315),.UNSPECIFIED.);
#425=B_SPLINE_CURVE_WITH_KNOTS('',1,(#899,#900),.UNSPECIFIED.,.F.,.F.,(2,
2),(178.807440476315,180.807440476315),.UNSPECIFIED.);
#426=B_SPLINE_CURVE_WITH_KNOTS('',1,(#901,#902),.UNSPECIFIED.,.F.,.F.,(2,
2),(180.807440476315,190.807440476315),.UNSPECIFIED.);
#427=B_SPLINE_CURVE_WITH_KNOTS('',1,(#903,#904),.UNSPECIFIED.,.F.,.F.,(2,
2),(190.807440476315,192.807440476315),.UNSPECIFIED.);
#428=B_SPLINE_CURVE_WITH_KNOTS('',1,(#905,#906),.UNSPECIFIED.,.F.,.F.,(2,
2),(192.807440476315,214.807440476315),.UNSPECIFIED.);
#429=B_SPLINE_CURVE_WITH_KNOTS('',1,(#907,#908),.UNSPECIFIED.,.F.,.F.,(2,
2),(10.,12.),.UNSPECIFIED.);
#430=B_SPLINE_CURVE_WITH_KNOTS('',1,(#909,#910),.UNSPECIFIED.,.F.,.F.,(2,
2),(12.,22.),.UNSPECIFIED.);
#431=B_SPLINE_CURVE_WITH_KNOTS('',1,(#911,#912),.UNSPECIFIED.,.F.,.F.,(2,
2),(22.,24.),.UNSPECIFIED.);
#432=B_SPLINE_CURVE_WITH_KNOTS('',1,(#913,#914),.UNSPECIFIED.,.F.,.F.,(2,
2),(24.,35.),.UNSPECIFIED.);
#433=B_SPLINE_CURVE_WITH_KNOTS('',1,(#915,#916),.UNSPECIFIED.,.F.,.F.,(2,
2),(167.807440476315,178.807440476315),.UNSPECIFIED.);
#434=B_SPLINE_CURVE_WITH_KNOTS('',1,(#917,#918),.UNSPECIFIED.,.F.,.F.,(2,
2),(178.807440476315,180.807440476315),.UNSPECIFIED.);
#435=B_SPLINE_CURVE_WITH_KNOTS('',1,(#919,#920),.UNSPECIFIED.,.F.,.F.,(2,
2),(180.807440476315,190.807440476315),.UNSPECIFIED.);
#436=B_SPLINE_CURVE_WITH_KNOTS('',1,(#921,#922),.UNSPECIFIED.,.F.,.F.,(2,
2),(190.807440476315,192.807440476315),.UNSPECIFIED.);
#437=B_SPLINE_CURVE_WITH_KNOTS('',1,(#923,#924),.UNSPECIFIED.,.F.,.F.,(2,
2),(192.807440476315,214.807440476315),.UNSPECIFIED.);
#438=B_SPLINE_CURVE_WITH_KNOTS('',1,(#925,#926),.UNSPECIFIED.,.F.,.F.,(2,
2),(-163.,-152.),.UNSPECIFIED.);
#439=B_SPLINE_CURVE_WITH_KNOTS('',1,(#927,#928),.UNSPECIFIED.,.F.,.F.,(2,
2),(-98.,-87.),.UNSPECIFIED.);
#440=B_SPLINE_CURVE_WITH_KNOTS('',1,(#929,#930),.UNSPECIFIED.,.F.,.F.,(2,
2),(-87.,-86.),.UNSPECIFIED.);
#441=B_SPLINE_CURVE_WITH_KNOTS('',1,(#931,#932),.UNSPECIFIED.,.F.,.F.,(2,
2),(-86.,-82.5),.UNSPECIFIED.);
#442=B_SPLINE_CURVE_WITH_KNOTS('',1,(#933,#934),.UNSPECIFIED.,.F.,.F.,(2,
2),(-82.5,-81.5),.UNSPECIFIED.);
#443=B_SPLINE_CURVE_WITH_KNOTS('',1,(#935,#936),.UNSPECIFIED.,.F.,.F.,(2,
2),(-81.5,-70.5),.UNSPECIFIED.);
#444=B_SPLINE_CURVE_WITH_KNOTS('',1,(#937,#938),.UNSPECIFIED.,.F.,.F.,(2,
2),(-70.5,-16.5),.UNSPECIFIED.);
#445=B_SPLINE_CURVE_WITH_KNOTS('',1,(#939,#940),.UNSPECIFIED.,.F.,.F.,(2,
2),(-16.5,-5.5),.UNSPECIFIED.);
#446=B_SPLINE_CURVE_WITH_KNOTS('',1,(#941,#942),.UNSPECIFIED.,.F.,.F.,(2,
2),(-5.5,-4.49999999999999),.UNSPECIFIED.);
#447=B_SPLINE_CURVE_WITH_KNOTS('',1,(#943,#944),.UNSPECIFIED.,.F.,.F.,(2,
2),(-4.49999999999999,-0.999999999999994),.UNSPECIFIED.);
#448=B_SPLINE_CURVE_WITH_KNOTS('',1,(#945,#946),.UNSPECIFIED.,.F.,.F.,(2,
2),(-0.999999999999994,0.),.UNSPECIFIED.);
#449=B_SPLINE_CURVE_WITH_KNOTS('',1,(#947,#948),.UNSPECIFIED.,.F.,.F.,(2,
2),(152.,163.),.UNSPECIFIED.);
#450=B_SPLINE_CURVE_WITH_KNOTS('',1,(#949,#950),.UNSPECIFIED.,.F.,.F.,(2,
2),(98.,152.),.UNSPECIFIED.);
#451=B_SPLINE_CURVE_WITH_KNOTS('',1,(#951,#952),.UNSPECIFIED.,.F.,.F.,(2,
2),(87.,98.),.UNSPECIFIED.);
#452=B_SPLINE_CURVE_WITH_KNOTS('',1,(#953,#954),.UNSPECIFIED.,.F.,.F.,(2,
2),(86.,87.),.UNSPECIFIED.);
#453=B_SPLINE_CURVE_WITH_KNOTS('',1,(#955,#956),.UNSPECIFIED.,.F.,.F.,(2,
2),(82.5,86.),.UNSPECIFIED.);
#454=B_SPLINE_CURVE_WITH_KNOTS('',1,(#957,#958),.UNSPECIFIED.,.F.,.F.,(2,
2),(81.5,82.5),.UNSPECIFIED.);
#455=B_SPLINE_CURVE_WITH_KNOTS('',1,(#959,#960),.UNSPECIFIED.,.F.,.F.,(2,
2),(70.5,81.5),.UNSPECIFIED.);
#456=B_SPLINE_CURVE_WITH_KNOTS('',1,(#961,#962),.UNSPECIFIED.,.F.,.F.,(2,
2),(-16.,38.),.UNSPECIFIED.);
#457=B_SPLINE_CURVE_WITH_KNOTS('',1,(#963,#964),.UNSPECIFIED.,.F.,.F.,(2,
2),(5.5,16.5),.UNSPECIFIED.);
#458=B_SPLINE_CURVE_WITH_KNOTS('',1,(#965,#966),.UNSPECIFIED.,.F.,.F.,(2,
2),(4.49999999999999,5.5),.UNSPECIFIED.);
#459=B_SPLINE_CURVE_WITH_KNOTS('',1,(#967,#968),.UNSPECIFIED.,.F.,.F.,(2,
2),(0.999999999999994,4.49999999999999),.UNSPECIFIED.);
#460=B_SPLINE_CURVE_WITH_KNOTS('',1,(#969,#970),.UNSPECIFIED.,.F.,.F.,(2,
2),(0.,0.999999999999994),.UNSPECIFIED.);
#461=B_SPLINE_CURVE_WITH_KNOTS('',1,(#971,#972),.UNSPECIFIED.,.F.,.F.,(2,
2),(3.,55.),.UNSPECIFIED.);
#462=B_SPLINE_CURVE_WITH_KNOTS('',1,(#973,#974),.UNSPECIFIED.,.F.,.F.,(2,
2),(3.,55.),.UNSPECIFIED.);
#463=B_SPLINE_CURVE_WITH_KNOTS('',1,(#975,#976),.UNSPECIFIED.,.F.,.F.,(2,
2),(3.,55.),.UNSPECIFIED.);
#464=B_SPLINE_CURVE_WITH_KNOTS('',1,(#977,#978),.UNSPECIFIED.,.F.,.F.,(2,
2),(3.,55.),.UNSPECIFIED.);
#465=B_SPLINE_CURVE_WITH_KNOTS('',1,(#979,#980),.UNSPECIFIED.,.F.,.F.,(2,
2),(3.,55.),.UNSPECIFIED.);
#466=B_SPLINE_CURVE_WITH_KNOTS('',1,(#981,#982),.UNSPECIFIED.,.F.,.F.,(2,
2),(3.,55.),.UNSPECIFIED.);
#467=B_SPLINE_CURVE_WITH_KNOTS('',1,(#983,#984),.UNSPECIFIED.,.F.,.F.,(2,
2),(3.,55.),.UNSPECIFIED.);
#468=B_SPLINE_CURVE_WITH_KNOTS('',1,(#985,#986),.UNSPECIFIED.,.F.,.F.,(2,
2),(3.,55.),.UNSPECIFIED.);
#469=B_SPLINE_CURVE_WITH_KNOTS('',1,(#987,#988),.UNSPECIFIED.,.F.,.F.,(2,
2),(3.,55.),.UNSPECIFIED.);
#470=B_SPLINE_CURVE_WITH_KNOTS('',1,(#989,#990),.UNSPECIFIED.,.F.,.F.,(2,
2),(3.,55.),.UNSPECIFIED.);
#471=B_SPLINE_CURVE_WITH_KNOTS('',1,(#991,#992,#993),.UNSPECIFIED.,.F.,
 .F.,(2,1,2),(0.,3.,55.),.UNSPECIFIED.);
#472=B_SPLINE_CURVE_WITH_KNOTS('',1,(#994,#995,#996),.UNSPECIFIED.,.F.,
 .F.,(2,1,2),(0.,3.,55.),.UNSPECIFIED.);
#473=B_SPLINE_CURVE_WITH_KNOTS('',1,(#997,#998,#999),.UNSPECIFIED.,.F.,
 .F.,(2,1,2),(0.,3.,55.),.UNSPECIFIED.);
#474=B_SPLINE_CURVE_WITH_KNOTS('',1,(#1000,#1001,#1002),.UNSPECIFIED.,.F.,
 .F.,(2,1,2),(0.,3.,55.),.UNSPECIFIED.);
#475=B_SPLINE_CURVE_WITH_KNOTS('',1,(#1003,#1004,#1005),.UNSPECIFIED.,.F.,
 .F.,(2,1,2),(0.,3.,55.),.UNSPECIFIED.);
#476=B_SPLINE_CURVE_WITH_KNOTS('',1,(#1006,#1007,#1008),.UNSPECIFIED.,.F.,
 .F.,(2,1,2),(0.,3.,50.1),.UNSPECIFIED.);
#477=B_SPLINE_CURVE_WITH_KNOTS('',1,(#1009,#1010,#1011),.UNSPECIFIED.,.F.,
 .F.,(2,1,2),(0.,3.,50.1),.UNSPECIFIED.);
#478=B_SPLINE_CURVE_WITH_KNOTS('',1,(#1012,#1013,#1014),.UNSPECIFIED.,.F.,
 .F.,(2,1,2),(0.,3.,50.1),.UNSPECIFIED.);
#479=B_SPLINE_CURVE_WITH_KNOTS('',1,(#1015,#1016,#1017),.UNSPECIFIED.,.F.,
 .F.,(2,1,2),(0.,3.,50.1),.UNSPECIFIED.);
#480=B_SPLINE_CURVE_WITH_KNOTS('',1,(#1018,#1019,#1020),.UNSPECIFIED.,.F.,
 .F.,(2,1,2),(0.,3.,50.1),.UNSPECIFIED.);
#481=B_SPLINE_CURVE_WITH_KNOTS('',1,(#1021,#1022,#1023),.UNSPECIFIED.,.F.,
 .F.,(2,1,2),(0.,3.,50.1),.UNSPECIFIED.);
#482=B_SPLINE_CURVE_WITH_KNOTS('',1,(#1024,#1025,#1026),.UNSPECIFIED.,.F.,
 .F.,(2,1,2),(0.,3.,50.1),.UNSPECIFIED.);
#483=B_SPLINE_CURVE_WITH_KNOTS('',1,(#1027,#1028,#1029),.UNSPECIFIED.,.F.,
 .F.,(2,1,2),(0.,3.,50.1),.UNSPECIFIED.);
#484=B_SPLINE_CURVE_WITH_KNOTS('',1,(#1030,#1031,#1032),.UNSPECIFIED.,.F.,
 .F.,(2,1,2),(0.,3.,55.),.UNSPECIFIED.);
#485=B_SPLINE_CURVE_WITH_KNOTS('',1,(#1033,#1034,#1035),.UNSPECIFIED.,.F.,
 .F.,(2,1,2),(0.,3.,55.),.UNSPECIFIED.);
#486=B_SPLINE_CURVE_WITH_KNOTS('',1,(#1036,#1037,#1038),.UNSPECIFIED.,.F.,
 .F.,(2,1,2),(0.,3.,55.),.UNSPECIFIED.);
#487=B_SPLINE_CURVE_WITH_KNOTS('',1,(#1039,#1040,#1041),.UNSPECIFIED.,.F.,
 .F.,(2,1,2),(0.,3.,55.),.UNSPECIFIED.);
#488=B_SPLINE_CURVE_WITH_KNOTS('',1,(#1042,#1043,#1044),.UNSPECIFIED.,.F.,
 .F.,(2,1,2),(0.,3.,55.),.UNSPECIFIED.);
#489=B_SPLINE_CURVE_WITH_KNOTS('',1,(#1045,#1046),.UNSPECIFIED.,.F.,.F.,
(2,2),(88.7018601190788,90.5714253364702),.UNSPECIFIED.);
#490=B_SPLINE_CURVE_WITH_KNOTS('',1,(#1047,#1048),.UNSPECIFIED.,.F.,.F.,
(2,2),(124.105580357237,125.975145574628),.UNSPECIFIED.);
#491=B_SPLINE_CURVE_WITH_KNOTS('',1,(#1049,#1050),.UNSPECIFIED.,.F.,.F.,
(2,2),(76.8322949016875,78.7018601190788),.UNSPECIFIED.);
#492=B_SPLINE_CURVE_WITH_KNOTS('',1,(#1051,#1052),.UNSPECIFIED.,.F.,.F.,
(2,2),(9.75729490168749,20.2427050983125),.UNSPECIFIED.);
#493=B_SPLINE_CURVE_WITH_KNOTS('',1,(#1053,#1054),.UNSPECIFIED.,.F.,.F.,
(2,2),(112.236015139845,114.105580357236),.UNSPECIFIED.);
#494=B_SPLINE_CURVE_WITH_KNOTS('',1,(#1055,#1056),.UNSPECIFIED.,.F.,.F.,
(2,2),(39.7572949016875,50.2427050983125),.UNSPECIFIED.);
#495=B_SPLINE_CURVE_WITH_KNOTS('',1,(#1057,#1058),.UNSPECIFIED.,.F.,.F.,
(2,2),(-120.,-66.),.UNSPECIFIED.);
#496=B_SPLINE_CURVE_WITH_KNOTS('',1,(#1059,#1060),.UNSPECIFIED.,.F.,.F.,
(2,2),(-19.1677050983125,-10.8322949016875),.UNSPECIFIED.);
#497=B_SPLINE_CURVE_WITH_KNOTS('',1,(#1061,#1062),.UNSPECIFIED.,.F.,.F.,
(2,2),(-49.1677050983125,-40.8322949016875),.UNSPECIFIED.);
#498=B_SPLINE_CURVE_WITH_KNOTS('',1,(#1063,#1064,#1065,#1066,#1067,#1068),
 .UNSPECIFIED.,.F.,.F.,(2,1,1,1,1,2),(0.,10.8322949016875,19.1677050983125,
40.8322949016875,49.1677050983125,60.),.UNSPECIFIED.);
#499=B_SPLINE_CURVE_WITH_KNOTS('',1,(#1069,#1070),.UNSPECIFIED.,.F.,.F.,
(2,2),(0.,30.85),.UNSPECIFIED.);
#500=B_SPLINE_CURVE_WITH_KNOTS('',1,(#1071,#1072),.UNSPECIFIED.,.F.,.F.,
(2,2),(0.,30.85),.UNSPECIFIED.);
#501=B_SPLINE_CURVE_WITH_KNOTS('',1,(#1073,#1074),.UNSPECIFIED.,.F.,.F.,
(2,2),(0.,55.),.UNSPECIFIED.);
#502=B_SPLINE_CURVE_WITH_KNOTS('',1,(#1075,#1076),.UNSPECIFIED.,.F.,.F.,
(2,2),(0.,52.),.UNSPECIFIED.);
#503=B_SPLINE_CURVE_WITH_KNOTS('',1,(#1077,#1078),.UNSPECIFIED.,.F.,.F.,
(2,2),(0.,52.),.UNSPECIFIED.);
#504=B_SPLINE_CURVE_WITH_KNOTS('',1,(#1079,#1080),.UNSPECIFIED.,.F.,.F.,
(2,2),(0.,55.),.UNSPECIFIED.);
#505=VERTEX_POINT('',#803);
#506=VERTEX_POINT('',#804);
#507=VERTEX_POINT('',#805);
#508=VERTEX_POINT('',#806);
#509=VERTEX_POINT('',#807);
#510=VERTEX_POINT('',#808);
#511=VERTEX_POINT('',#809);
#512=VERTEX_POINT('',#810);
#513=VERTEX_POINT('',#811);
#514=VERTEX_POINT('',#812);
#515=VERTEX_POINT('',#813);
#516=VERTEX_POINT('',#814);
#517=VERTEX_POINT('',#815);
#518=VERTEX_POINT('',#816);
#519=VERTEX_POINT('',#817);
#520=VERTEX_POINT('',#818);
#521=VERTEX_POINT('',#819);
#522=VERTEX_POINT('',#820);
#523=VERTEX_POINT('',#821);
#524=VERTEX_POINT('',#822);
#525=VERTEX_POINT('',#823);
#526=VERTEX_POINT('',#824);
#527=VERTEX_POINT('',#825);
#528=VERTEX_POINT('',#826);
#529=VERTEX_POINT('',#827);
#530=VERTEX_POINT('',#828);
#531=VERTEX_POINT('',#829);
#532=VERTEX_POINT('',#830);
#533=VERTEX_POINT('',#831);
#534=VERTEX_POINT('',#832);
#535=VERTEX_POINT('',#833);
#536=VERTEX_POINT('',#834);
#537=VERTEX_POINT('',#835);
#538=VERTEX_POINT('',#836);
#539=VERTEX_POINT('',#837);
#540=VERTEX_POINT('',#838);
#541=VERTEX_POINT('',#839);
#542=VERTEX_POINT('',#840);
#543=VERTEX_POINT('',#841);
#544=VERTEX_POINT('',#842);
#545=VERTEX_POINT('',#843);
#546=VERTEX_POINT('',#844);
#547=VERTEX_POINT('',#845);
#548=VERTEX_POINT('',#846);
#549=VERTEX_POINT('',#847);
#550=VERTEX_POINT('',#848);
#551=VERTEX_POINT('',#849);
#552=VERTEX_POINT('',#850);
#553=VERTEX_POINT('',#851);
#554=VERTEX_POINT('',#852);
#555=VERTEX_POINT('',#853);
#556=VERTEX_POINT('',#854);
#557=VERTEX_POINT('',#855);
#558=VERTEX_POINT('',#856);
#559=VERTEX_POINT('',#857);
#560=VERTEX_POINT('',#858);
#561=VERTEX_POINT('',#859);
#562=VERTEX_POINT('',#860);
#563=VERTEX_POINT('',#861);
#564=VERTEX_POINT('',#862);
#565=VERTEX_POINT('',#863);
#566=VERTEX_POINT('',#864);
#567=VERTEX_POINT('',#865);
#568=VERTEX_POINT('',#866);
#569=PLANE('',#692);
#570=PLANE('',#693);
#571=PLANE('',#694);
#572=PLANE('',#695);
#573=PLANE('',#696);
#574=PLANE('',#697);
#575=PLANE('',#698);
#576=PLANE('',#699);
#577=PLANE('',#700);
#578=PLANE('',#701);
#579=PLANE('',#702);
#580=PLANE('',#703);
#581=PLANE('',#704);
#582=PLANE('',#705);
#583=PLANE('',#706);
#584=PLANE('',#707);
#585=PLANE('',#708);
#586=PLANE('',#709);
#587=PLANE('',#710);
#588=PLANE('',#711);
#589=PLANE('',#712);
#590=PLANE('',#713);
#591=PLANE('',#714);
#592=PLANE('',#715);
#593=PLANE('',#716);
#594=PLANE('',#717);
#595=PLANE('',#718);
#596=PLANE('',#719);
#597=PLANE('',#720);
#598=PLANE('',#721);
#599=PLANE('',#722);
#600=PLANE('',#723);
#601=PLANE('',#724);
#602=PLANE('',#725);
#603=PLANE('',#726);
#604=SHAPE_DEFINITION_REPRESENTATION(#605,#690);
#605=PRODUCT_DEFINITION_SHAPE($,$,#607);
#606=PRODUCT_DEFINITION_CONTEXT('3D Mechanical Parts',#679,'design');
#607=PRODUCT_DEFINITION('A','First version',#649,#606);
#608=DATE_TIME_ROLE('classification_date');
#609=DATE_TIME_ROLE('creation_date');
#610=APPLIED_DATE_AND_TIME_ASSIGNMENT(#634,#608,(#613));
#611=APPLIED_DATE_AND_TIME_ASSIGNMENT(#636,#609,(#607));
#612=SECURITY_CLASSIFICATION_LEVEL('unclassified');
#613=SECURITY_CLASSIFICATION('A','Security for version',#612);
#614=APPLIED_SECURITY_CLASSIFICATION_ASSIGNMENT(#613,(#649));
#615=APPROVAL_ROLE('Version approval');
#616=APPROVAL_ROLE('Version Security approval');
#617=APPROVAL_ROLE('Definition approval');
#618=APPROVAL_PERSON_ORGANIZATION(#667,#643,#615);
#619=APPROVAL_PERSON_ORGANIZATION(#668,#644,#616);
#620=APPROVAL_PERSON_ORGANIZATION(#671,#645,#617);
#621=COORDINATED_UNIVERSAL_TIME_OFFSET(5,0,.BEHIND.);
#622=LOCAL_TIME(0,0,0.,#621);
#623=LOCAL_TIME(0,0,0.,#621);
#624=LOCAL_TIME(0,0,0.,#621);
#625=LOCAL_TIME(0,0,0.,#621);
#626=LOCAL_TIME(0,0,0.,#621);
#627=CALENDAR_DATE(1999,1,1);
#628=CALENDAR_DATE(1999,1,1);
#629=CALENDAR_DATE(1999,1,1);
#630=CALENDAR_DATE(1999,1,1);
#631=CALENDAR_DATE(1999,1,1);
#632=DATE_AND_TIME(#627,#622);
#633=DATE_AND_TIME(#628,#623);
#634=DATE_AND_TIME(#629,#624);
#635=DATE_AND_TIME(#630,#625);
#636=DATE_AND_TIME(#631,#626);
#637=APPROVAL_DATE_TIME(#632,#643);
#638=APPROVAL_DATE_TIME(#633,#644);
#639=APPROVAL_DATE_TIME(#635,#645);
#640=APPROVAL_STATUS('not_yet_approved');
#641=APPROVAL_STATUS('not_yet_approved');
#642=APPROVAL_STATUS('approved');
#643=APPROVAL(#640,'Version approval');
#644=APPROVAL(#641,'Version Security approval');
#645=APPROVAL(#642,'Definition approval');
#646=APPLIED_APPROVAL_ASSIGNMENT(#643,(#649));
#647=APPLIED_APPROVAL_ASSIGNMENT(#644,(#613));
#648=APPLIED_APPROVAL_ASSIGNMENT(#645,(#607));
#649=PRODUCT_DEFINITION_FORMATION_WITH_SPECIFIED_SOURCE('A',
'First version',#681,.MADE.);
#650=PERSON_AND_ORGANIZATION_ROLE('design_owner');
#651=PERSON_AND_ORGANIZATION_ROLE('creator');
#652=PERSON_AND_ORGANIZATION_ROLE('design_supplier');
#653=PERSON_AND_ORGANIZATION_ROLE('classification_officer');
#654=PERSON_AND_ORGANIZATION_ROLE('creator');
#655=ORGANIZATION('STI','lab','lab');
#656=ORGANIZATION('STI','unknown','unknown');
#657=ORGANIZATION('STI','unknown','unknown');
#658=ORGANIZATION('STI','unknown','unknown');
#659=ORGANIZATION('STI','unknown','unknown');
#660=ORGANIZATION('STI','unknown','unknown');
#661=ORGANIZATION('STI','unknown','unknown');
#662=PERSON('1','Box','vc60',$,$,$);
#663=PERSON('2','last','first',$,$,$);
#664=PERSON('3','President','Mr.',$,$,$);
#665=PERSON_AND_ORGANIZATION(#662,#655);
#666=PERSON_AND_ORGANIZATION(#663,#656);
#667=PERSON_AND_ORGANIZATION(#664,#657);
#668=PERSON_AND_ORGANIZATION(#664,#658);
#669=PERSON_AND_ORGANIZATION(#664,#659);
#670=PERSON_AND_ORGANIZATION(#663,#660);
#671=PERSON_AND_ORGANIZATION(#664,#661);
#672=APPLIED_PERSON_AND_ORGANIZATION_ASSIGNMENT(#665,#650,(#681));
#673=APPLIED_PERSON_AND_ORGANIZATION_ASSIGNMENT(#666,#651,(#649));
#674=APPLIED_PERSON_AND_ORGANIZATION_ASSIGNMENT(#666,#652,(#649));
#675=APPLIED_PERSON_AND_ORGANIZATION_ASSIGNMENT(#669,#653,(#613));
#676=APPLIED_PERSON_AND_ORGANIZATION_ASSIGNMENT(#670,#654,(#607));
#677=PRODUCT_RELATED_PRODUCT_CATEGORY('detail','detail',(#681));
#678=APPLICATION_PROTOCOL_DEFINITION('International Standard',
'config_control_design',1994,#679);
#679=APPLICATION_CONTEXT(
'configuration controlled 3d designs of mechanical parts and assemblie
s');
#680=PRODUCT_CONTEXT('3D Mechanical Parts',#679,'mechanical');
#681=PRODUCT('Document','Document','',(#680));
#682=(
LENGTH_UNIT()
NAMED_UNIT(*)
SI_UNIT(.MILLI.,.METRE.)
);
#683=(
NAMED_UNIT(*)
PLANE_ANGLE_UNIT()
SI_UNIT($,.RADIAN.)
);
#684=DIMENSIONAL_EXPONENTS(0.,0.,0.,0.,0.,0.,0.);
#685=PLANE_ANGLE_MEASURE_WITH_UNIT(PLANE_ANGLE_MEASURE(0.01745329252),#683);
#686=(
CONVERSION_BASED_UNIT('DEGREES',#685)
NAMED_UNIT(#684)
PLANE_ANGLE_UNIT()
);
#687=(
NAMED_UNIT(*)
SI_UNIT($,.STERADIAN.)
SOLID_ANGLE_UNIT()
);
#688=UNCERTAINTY_MEASURE_WITH_UNIT(LENGTH_MEASURE(0.001),#682,
'DISTANCE_ACCURACY_VALUE',
'Maximum model space distance between geometric entities at asserted c
onnectivities');
#689=(
GEOMETRIC_REPRESENTATION_CONTEXT(3)
GLOBAL_UNCERTAINTY_ASSIGNED_CONTEXT((#688))
GLOBAL_UNIT_ASSIGNED_CONTEXT((#687,#686,#682))
REPRESENTATION_CONTEXT('ID1','3D')
);
#690=SHAPE_REPRESENTATION('Document',(#691,#727),#689);
#691=AXIS2_PLACEMENT_3D($,#767,#728,#729);
#692=AXIS2_PLACEMENT_3D('',#768,#730,$);
#693=AXIS2_PLACEMENT_3D('',#769,#731,$);
#694=AXIS2_PLACEMENT_3D('',#770,#732,$);
#695=AXIS2_PLACEMENT_3D('',#771,#733,$);
#696=AXIS2_PLACEMENT_3D('',#772,#734,$);
#697=AXIS2_PLACEMENT_3D('',#773,#735,$);
#698=AXIS2_PLACEMENT_3D('',#774,#736,$);
#699=AXIS2_PLACEMENT_3D('',#775,#737,$);
#700=AXIS2_PLACEMENT_3D('',#776,#738,$);
#701=AXIS2_PLACEMENT_3D('',#777,#739,$);
#702=AXIS2_PLACEMENT_3D('',#778,#740,$);
#703=AXIS2_PLACEMENT_3D('',#779,#741,$);
#704=AXIS2_PLACEMENT_3D('',#780,#742,$);
#705=AXIS2_PLACEMENT_3D('',#781,#743,$);
#706=AXIS2_PLACEMENT_3D('',#782,#744,$);
#707=AXIS2_PLACEMENT_3D('',#783,#745,$);
#708=AXIS2_PLACEMENT_3D('',#784,#746,$);
#709=AXIS2_PLACEMENT_3D('',#785,#747,$);
#710=AXIS2_PLACEMENT_3D('',#786,#748,$);
#711=AXIS2_PLACEMENT_3D('',#787,#749,$);
#712=AXIS2_PLACEMENT_3D('',#788,#750,$);
#713=AXIS2_PLACEMENT_3D('',#789,#751,$);
#714=AXIS2_PLACEMENT_3D('',#790,#752,$);
#715=AXIS2_PLACEMENT_3D('',#791,#753,$);
#716=AXIS2_PLACEMENT_3D('',#792,#754,$);
#717=AXIS2_PLACEMENT_3D('',#793,#755,$);
#718=AXIS2_PLACEMENT_3D('',#794,#756,$);
#719=AXIS2_PLACEMENT_3D('',#795,#757,$);
#720=AXIS2_PLACEMENT_3D('',#796,#758,$);
#721=AXIS2_PLACEMENT_3D('',#797,#759,$);
#722=AXIS2_PLACEMENT_3D('',#798,#760,$);
#723=AXIS2_PLACEMENT_3D('',#799,#761,$);
#724=AXIS2_PLACEMENT_3D('',#800,#762,$);
#725=AXIS2_PLACEMENT_3D('',#801,#763,$);
#726=AXIS2_PLACEMENT_3D('',#802,#764,$);
#727=AXIS2_PLACEMENT_3D($,#1081,#765,#766);
#728=DIRECTION('',(0.,0.,1.));
#729=DIRECTION('',(1.,0.,0.));
#730=DIRECTION('',(0.,0.,-1.));
#731=DIRECTION('',(0.,0.,-1.));
#732=DIRECTION('',(0.,1.,0.));
#733=DIRECTION('',(-1.,0.,0.));
#734=DIRECTION('',(0.,1.,0.));
#735=DIRECTION('',(0.898567515986433,-0.438835298505,-6.58548056554095E-17));
#736=DIRECTION('',(0.,1.,0.));
#737=DIRECTION('',(-0.898567515986433,-0.438835298504999,2.62597064095681E-17));
#738=DIRECTION('',(0.,0.,1.));
#739=DIRECTION('',(0.914686604094762,-0.404163848320941,-3.07591143652576E-17));
#740=DIRECTION('',(0.,1.,0.));
#741=DIRECTION('',(-0.914686604094762,-0.404163848320941,1.83362056901471E-17));
#742=DIRECTION('',(1.,0.,0.));
#743=DIRECTION('',(0.,1.,0.));
#744=DIRECTION('',(1.,0.,0.));
#745=DIRECTION('',(-1.,0.,0.));
#746=DIRECTION('',(0.,-1.,0.));
#747=DIRECTION('',(-1.,0.,0.));
#748=DIRECTION('',(0.,1.,0.));
#749=DIRECTION('',(-1.,0.,0.));
#750=DIRECTION('',(0.,-1.,0.));
#751=DIRECTION('',(1.,0.,0.));
#752=DIRECTION('',(0.,1.,0.));
#753=DIRECTION('',(1.,0.,0.));
#754=DIRECTION('',(0.,-1.,0.));
#755=DIRECTION('',(0.,0.,-1.));
#756=DIRECTION('',(-0.89847386735277,0.439027003365575,1.47679938474213E-17));
#757=DIRECTION('',(-0.898473867352769,0.439027003365577,-1.62901822755577E-17));
#758=DIRECTION('',(0.898473867352769,0.439027003365577,-6.42966528655209E-18));
#759=DIRECTION('',(0.,-1.,0.));
#760=DIRECTION('',(0.898473867352768,0.439027003365579,-6.99667850561462E-17));
#761=DIRECTION('',(0.,-1.,0.));
#762=DIRECTION('',(0.,0.,1.));
#763=DIRECTION('',(0.,1.,0.));
#764=DIRECTION('',(0.,-1.,0.));
#765=DIRECTION('',(0.,0.,1.));
#766=DIRECTION('',(1.,0.,0.));
#767=CARTESIAN_POINT('',(0.,0.,0.));
#768=CARTESIAN_POINT('',(87.,34.,50.1));
#769=CARTESIAN_POINT('',(19.5,29.875,0.));
#770=CARTESIAN_POINT('',(38.,64.85,0.));
#771=CARTESIAN_POINT('',(27.,64.85,0.));
#772=CARTESIAN_POINT('',(87.,64.85,0.));
#773=CARTESIAN_POINT('',(75.9,64.85,0.));
#774=CARTESIAN_POINT('',(76.95,67.,0.));
#775=CARTESIAN_POINT('',(67.05,67.,0.));
#776=CARTESIAN_POINT('',(19.5,29.875,3.));
#777=CARTESIAN_POINT('',(46.,64.85,0.));
#778=CARTESIAN_POINT('',(46.95,67.,0.));
#779=CARTESIAN_POINT('',(37.05,67.,0.));
#780=CARTESIAN_POINT('',(87.,34.,0.));
#781=CARTESIAN_POINT('',(68.1,64.85,0.));
#782=CARTESIAN_POINT('',(30.,48.,0.));
#783=CARTESIAN_POINT('',(84.,37.,0.));
#784=CARTESIAN_POINT('',(84.,48.,0.));
#785=CARTESIAN_POINT('',(83.,48.,0.));
#786=CARTESIAN_POINT('',(83.,51.,0.));
#787=CARTESIAN_POINT('',(84.,51.,0.));
#788=CARTESIAN_POINT('',(84.,62.,0.));
#789=CARTESIAN_POINT('',(30.,62.,0.));
#790=CARTESIAN_POINT('',(30.,51.,0.));
#791=CARTESIAN_POINT('',(31.,51.,0.));
#792=CARTESIAN_POINT('',(31.,48.,0.));
#793=CARTESIAN_POINT('',(87.,34.,50.1));
#794=CARTESIAN_POINT('',(47.2427050983125,36.2,0.));
#795=CARTESIAN_POINT('',(77.2427050983125,36.2,0.));
#796=CARTESIAN_POINT('',(37.8322949016875,34.,0.));
#797=CARTESIAN_POINT('',(36.7572949016875,36.2,0.));
#798=CARTESIAN_POINT('',(67.8322949016875,34.,0.));
#799=CARTESIAN_POINT('',(66.7572949016875,36.2,0.));
#800=CARTESIAN_POINT('',(93.,34.,55.));
#801=CARTESIAN_POINT('',(27.,37.,55.));
#802=CARTESIAN_POINT('',(27.,34.,-3.5527136788005E-15));
#803=CARTESIAN_POINT('',(27.,34.,55.));
#804=CARTESIAN_POINT('',(87.,34.,55.));
#805=CARTESIAN_POINT('',(46.,64.85,0.));
#806=CARTESIAN_POINT('',(46.95,67.,0.));
#807=CARTESIAN_POINT('',(37.05,67.,0.));
#808=CARTESIAN_POINT('',(38.,64.85,0.));
#809=CARTESIAN_POINT('',(27.,64.85,0.));
#810=CARTESIAN_POINT('',(27.,34.,0.));
#811=CARTESIAN_POINT('',(37.8322949016875,34.,0.));
#812=CARTESIAN_POINT('',(36.7572949016875,36.2,0.));
#813=CARTESIAN_POINT('',(47.2427050983125,36.2,0.));
#814=CARTESIAN_POINT('',(46.1677050983125,34.,0.));
#815=CARTESIAN_POINT('',(67.8322949016875,34.,0.));
#816=CARTESIAN_POINT('',(66.7572949016875,36.2,0.));
#817=CARTESIAN_POINT('',(77.2427050983125,36.2,0.));
#818=CARTESIAN_POINT('',(76.1677050983125,34.,0.));
#819=CARTESIAN_POINT('',(87.,34.,0.));
#820=CARTESIAN_POINT('',(87.,64.85,0.));
#821=CARTESIAN_POINT('',(75.9,64.85,0.));
#822=CARTESIAN_POINT('',(76.95,67.,0.));
#823=CARTESIAN_POINT('',(67.05,67.,0.));
#824=CARTESIAN_POINT('',(68.1,64.85,0.));
#825=CARTESIAN_POINT('',(46.95,67.,55.));
#826=CARTESIAN_POINT('',(46.,64.85,55.));
#827=CARTESIAN_POINT('',(37.05,67.,55.));
#828=CARTESIAN_POINT('',(38.,64.85,55.));
#829=CARTESIAN_POINT('',(27.,64.85,55.));
#830=CARTESIAN_POINT('',(87.,64.85,55.));
#831=CARTESIAN_POINT('',(75.9,64.85,55.));
#832=CARTESIAN_POINT('',(76.95,67.,55.));
#833=CARTESIAN_POINT('',(67.05,67.,55.));
#834=CARTESIAN_POINT('',(68.1,64.85,55.));
#835=CARTESIAN_POINT('',(30.,48.,55.));
#836=CARTESIAN_POINT('',(84.,48.,55.));
#837=CARTESIAN_POINT('',(83.,48.,55.));
#838=CARTESIAN_POINT('',(83.,51.,55.));
#839=CARTESIAN_POINT('',(84.,51.,55.));
#840=CARTESIAN_POINT('',(84.,62.,55.));
#841=CARTESIAN_POINT('',(30.,62.,55.));
#842=CARTESIAN_POINT('',(30.,51.,55.));
#843=CARTESIAN_POINT('',(31.,51.,55.));
#844=CARTESIAN_POINT('',(31.,48.,55.));
#845=CARTESIAN_POINT('',(30.,37.,3.));
#846=CARTESIAN_POINT('',(30.,48.,3.));
#847=CARTESIAN_POINT('',(84.,37.,3.));
#848=CARTESIAN_POINT('',(84.,48.,3.));
#849=CARTESIAN_POINT('',(83.,48.,3.));
#850=CARTESIAN_POINT('',(83.,51.,3.));
#851=CARTESIAN_POINT('',(84.,51.,3.));
#852=CARTESIAN_POINT('',(84.,62.,3.));
#853=CARTESIAN_POINT('',(30.,62.,3.));
#854=CARTESIAN_POINT('',(30.,51.,3.));
#855=CARTESIAN_POINT('',(31.,51.,3.));
#856=CARTESIAN_POINT('',(31.,48.,3.));
#857=CARTESIAN_POINT('',(30.,37.,55.));
#858=CARTESIAN_POINT('',(84.,37.,55.));
#859=CARTESIAN_POINT('',(46.1677050983125,34.,50.1));
#860=CARTESIAN_POINT('',(67.8322949016875,34.,50.1));
#861=CARTESIAN_POINT('',(76.1677050983125,34.,50.1));
#862=CARTESIAN_POINT('',(37.8322949016875,34.,50.1));
#863=CARTESIAN_POINT('',(47.2427050983125,36.2,50.1));
#864=CARTESIAN_POINT('',(77.2427050983125,36.2,50.1));
#865=CARTESIAN_POINT('',(36.7572949016875,36.2,50.1));
#866=CARTESIAN_POINT('',(66.7572949016875,36.2,50.1));
#867=CARTESIAN_POINT('',(46.,64.85,0.));
#868=CARTESIAN_POINT('',(46.95,67.,0.));
#869=CARTESIAN_POINT('',(46.95,67.,0.));
#870=CARTESIAN_POINT('',(37.05,67.,0.));
#871=CARTESIAN_POINT('',(37.05,67.,0.));
#872=CARTESIAN_POINT('',(38.,64.85,0.));
#873=CARTESIAN_POINT('',(38.,64.85,0.));
#874=CARTESIAN_POINT('',(27.,64.85,0.));
#875=CARTESIAN_POINT('',(27.,64.85,0.));
#876=CARTESIAN_POINT('',(27.,34.,0.));
#877=CARTESIAN_POINT('',(27.,34.,0.));
#878=CARTESIAN_POINT('',(37.8322949016875,34.,0.));
#879=CARTESIAN_POINT('',(37.8322949016875,34.,0.));
#880=CARTESIAN_POINT('',(36.7572949016875,36.2,0.));
#881=CARTESIAN_POINT('',(36.7572949016875,36.2,0.));
#882=CARTESIAN_POINT('',(47.2427050983125,36.2,0.));
#883=CARTESIAN_POINT('',(47.2427050983125,36.2,0.));
#884=CARTESIAN_POINT('',(46.1677050983125,34.,0.));
#885=CARTESIAN_POINT('',(46.1677050983125,34.,0.));
#886=CARTESIAN_POINT('',(67.8322949016875,34.,0.));
#887=CARTESIAN_POINT('',(67.8322949016875,34.,0.));
#888=CARTESIAN_POINT('',(66.7572949016875,36.2,0.));
#889=CARTESIAN_POINT('',(66.7572949016875,36.2,0.));
#890=CARTESIAN_POINT('',(77.2427050983125,36.2,0.));
#891=CARTESIAN_POINT('',(77.2427050983125,36.2,0.));
#892=CARTESIAN_POINT('',(76.1677050983125,34.,0.));
#893=CARTESIAN_POINT('',(76.1677050983125,34.,0.));
#894=CARTESIAN_POINT('',(87.,34.,0.));
#895=CARTESIAN_POINT('',(87.,34.,0.));
#896=CARTESIAN_POINT('',(87.,64.85,0.));
#897=CARTESIAN_POINT('',(87.,64.85,0.));
#898=CARTESIAN_POINT('',(75.9,64.85,0.));
#899=CARTESIAN_POINT('',(75.9,64.85,0.));
#900=CARTESIAN_POINT('',(76.95,67.,0.));
#901=CARTESIAN_POINT('',(76.95,67.,0.));
#902=CARTESIAN_POINT('',(67.05,67.,0.));
#903=CARTESIAN_POINT('',(67.05,67.,0.));
#904=CARTESIAN_POINT('',(68.1,64.85,0.));
#905=CARTESIAN_POINT('',(68.1,64.85,0.));
#906=CARTESIAN_POINT('',(46.,64.85,0.));
#907=CARTESIAN_POINT('',(46.,64.85,55.));
#908=CARTESIAN_POINT('',(46.95,67.,55.));
#909=CARTESIAN_POINT('',(46.95,67.,55.));
#910=CARTESIAN_POINT('',(37.05,67.,55.));
#911=CARTESIAN_POINT('',(37.05,67.,55.));
#912=CARTESIAN_POINT('',(38.,64.85,55.));
#913=CARTESIAN_POINT('',(38.,64.85,55.));
#914=CARTESIAN_POINT('',(27.,64.85,55.));
#915=CARTESIAN_POINT('',(87.,64.85,55.));
#916=CARTESIAN_POINT('',(75.9,64.85,55.));
#917=CARTESIAN_POINT('',(75.9,64.85,55.));
#918=CARTESIAN_POINT('',(76.95,67.,55.));
#919=CARTESIAN_POINT('',(76.95,67.,55.));
#920=CARTESIAN_POINT('',(67.05,67.,55.));
#921=CARTESIAN_POINT('',(67.05,67.,55.));
#922=CARTESIAN_POINT('',(68.1,64.85,55.));
#923=CARTESIAN_POINT('',(68.1,64.85,55.));
#924=CARTESIAN_POINT('',(46.,64.85,55.));
#925=CARTESIAN_POINT('',(30.,48.,55.));
#926=CARTESIAN_POINT('',(30.,37.,55.));
#927=CARTESIAN_POINT('',(84.,37.,55.));
#928=CARTESIAN_POINT('',(84.,48.,55.));
#929=CARTESIAN_POINT('',(84.,48.,55.));
#930=CARTESIAN_POINT('',(83.,48.,55.));
#931=CARTESIAN_POINT('',(83.,48.,55.));
#932=CARTESIAN_POINT('',(83.,51.,55.));
#933=CARTESIAN_POINT('',(83.,51.,55.));
#934=CARTESIAN_POINT('',(84.,51.,55.));
#935=CARTESIAN_POINT('',(84.,51.,55.));
#936=CARTESIAN_POINT('',(84.,62.,55.));
#937=CARTESIAN_POINT('',(84.,62.,55.));
#938=CARTESIAN_POINT('',(30.,62.,55.));
#939=CARTESIAN_POINT('',(30.,62.,55.));
#940=CARTESIAN_POINT('',(30.,51.,55.));
#941=CARTESIAN_POINT('',(30.,51.,55.));
#942=CARTESIAN_POINT('',(31.,51.,55.));
#943=CARTESIAN_POINT('',(31.,51.,55.));
#944=CARTESIAN_POINT('',(31.,48.,55.));
#945=CARTESIAN_POINT('',(31.,48.,55.));
#946=CARTESIAN_POINT('',(30.,48.,55.));
#947=CARTESIAN_POINT('',(30.,37.,3.));
#948=CARTESIAN_POINT('',(30.,48.,3.));
#949=CARTESIAN_POINT('',(84.,37.,3.));
#950=CARTESIAN_POINT('',(30.,37.,3.));
#951=CARTESIAN_POINT('',(84.,48.,3.));
#952=CARTESIAN_POINT('',(84.,37.,3.));
#953=CARTESIAN_POINT('',(83.,48.,3.));
#954=CARTESIAN_POINT('',(84.,48.,3.));
#955=CARTESIAN_POINT('',(83.,51.,3.));
#956=CARTESIAN_POINT('',(83.,48.,3.));
#957=CARTESIAN_POINT('',(84.,51.,3.));
#958=CARTESIAN_POINT('',(83.,51.,3.));
#959=CARTESIAN_POINT('',(84.,62.,3.));
#960=CARTESIAN_POINT('',(84.,51.,3.));
#961=CARTESIAN_POINT('',(30.,62.,3.));
#962=CARTESIAN_POINT('',(84.,62.,3.));
#963=CARTESIAN_POINT('',(30.,51.,3.));
#964=CARTESIAN_POINT('',(30.,62.,3.));
#965=CARTESIAN_POINT('',(31.,51.,3.));
#966=CARTESIAN_POINT('',(30.,51.,3.));
#967=CARTESIAN_POINT('',(31.,48.,3.));
#968=CARTESIAN_POINT('',(31.,51.,3.));
#969=CARTESIAN_POINT('',(30.,48.,3.));
#970=CARTESIAN_POINT('',(31.,48.,3.));
#971=CARTESIAN_POINT('',(30.,48.,3.));
#972=CARTESIAN_POINT('',(30.,48.,55.));
#973=CARTESIAN_POINT('',(84.,48.,3.));
#974=CARTESIAN_POINT('',(84.,48.,55.));
#975=CARTESIAN_POINT('',(83.,48.,3.));
#976=CARTESIAN_POINT('',(83.,48.,55.));
#977=CARTESIAN_POINT('',(83.,51.,3.));
#978=CARTESIAN_POINT('',(83.,51.,55.));
#979=CARTESIAN_POINT('',(84.,51.,3.));
#980=CARTESIAN_POINT('',(84.,51.,55.));
#981=CARTESIAN_POINT('',(84.,62.,3.));
#982=CARTESIAN_POINT('',(84.,62.,55.));
#983=CARTESIAN_POINT('',(30.,62.,3.));
#984=CARTESIAN_POINT('',(30.,62.,55.));
#985=CARTESIAN_POINT('',(30.,51.,3.));
#986=CARTESIAN_POINT('',(30.,51.,55.));
#987=CARTESIAN_POINT('',(31.,51.,3.));
#988=CARTESIAN_POINT('',(31.,51.,55.));
#989=CARTESIAN_POINT('',(31.,48.,3.));
#990=CARTESIAN_POINT('',(31.,48.,55.));
#991=CARTESIAN_POINT('',(46.95,67.,0.));
#992=CARTESIAN_POINT('',(46.95,67.,3.));
#993=CARTESIAN_POINT('',(46.95,67.,55.));
#994=CARTESIAN_POINT('',(46.,64.85,0.));
#995=CARTESIAN_POINT('',(46.,64.85,3.));
#996=CARTESIAN_POINT('',(46.,64.85,55.));
#997=CARTESIAN_POINT('',(37.05,67.,0.));
#998=CARTESIAN_POINT('',(37.05,67.,3.));
#999=CARTESIAN_POINT('',(37.05,67.,55.));
#1000=CARTESIAN_POINT('',(38.,64.85,0.));
#1001=CARTESIAN_POINT('',(38.,64.85,3.));
#1002=CARTESIAN_POINT('',(38.,64.85,55.));
#1003=CARTESIAN_POINT('',(27.,64.85,0.));
#1004=CARTESIAN_POINT('',(27.,64.85,3.));
#1005=CARTESIAN_POINT('',(27.,64.85,55.));
#1006=CARTESIAN_POINT('',(37.8322949016875,34.,0.));
#1007=CARTESIAN_POINT('',(37.8322949016875,34.,3.));
#1008=CARTESIAN_POINT('',(37.8322949016875,34.,50.1));
#1009=CARTESIAN_POINT('',(36.7572949016875,36.2,0.));
#1010=CARTESIAN_POINT('',(36.7572949016875,36.2,3.));
#1011=CARTESIAN_POINT('',(36.7572949016875,36.2,50.1));
#1012=CARTESIAN_POINT('',(47.2427050983125,36.2,0.));
#1013=CARTESIAN_POINT('',(47.2427050983125,36.2,3.));
#1014=CARTESIAN_POINT('',(47.2427050983125,36.2,50.1));
#1015=CARTESIAN_POINT('',(46.1677050983125,34.,0.));
#1016=CARTESIAN_POINT('',(46.1677050983125,34.,3.));
#1017=CARTESIAN_POINT('',(46.1677050983125,34.,50.1));
#1018=CARTESIAN_POINT('',(67.8322949016875,34.,0.));
#1019=CARTESIAN_POINT('',(67.8322949016875,34.,3.));
#1020=CARTESIAN_POINT('',(67.8322949016875,34.,50.1));
#1021=CARTESIAN_POINT('',(66.7572949016875,36.2,0.));
#1022=CARTESIAN_POINT('',(66.7572949016875,36.2,3.));
#1023=CARTESIAN_POINT('',(66.7572949016875,36.2,50.1));
#1024=CARTESIAN_POINT('',(77.2427050983125,36.2,0.));
#1025=CARTESIAN_POINT('',(77.2427050983125,36.2,3.));
#1026=CARTESIAN_POINT('',(77.2427050983125,36.2,50.1));
#1027=CARTESIAN_POINT('',(76.1677050983125,34.,0.));
#1028=CARTESIAN_POINT('',(76.1677050983125,34.,3.));
#1029=CARTESIAN_POINT('',(76.1677050983125,34.,50.1));
#1030=CARTESIAN_POINT('',(87.,64.85,0.));
#1031=CARTESIAN_POINT('',(87.,64.85,3.));
#1032=CARTESIAN_POINT('',(87.,64.85,55.));
#1033=CARTESIAN_POINT('',(75.9,64.85,0.));
#1034=CARTESIAN_POINT('',(75.9,64.85,3.));
#1035=CARTESIAN_POINT('',(75.9,64.85,55.));
#1036=CARTESIAN_POINT('',(76.95,67.,0.));
#1037=CARTESIAN_POINT('',(76.95,67.,3.));
#1038=CARTESIAN_POINT('',(76.95,67.,55.));
#1039=CARTESIAN_POINT('',(67.05,67.,0.));
#1040=CARTESIAN_POINT('',(67.05,67.,3.));
#1041=CARTESIAN_POINT('',(67.05,67.,55.));
#1042=CARTESIAN_POINT('',(68.1,64.85,0.));
#1043=CARTESIAN_POINT('',(68.1,64.85,3.));
#1044=CARTESIAN_POINT('',(68.1,64.85,55.));
#1045=CARTESIAN_POINT('',(47.2427050983125,36.2,50.1));
#1046=CARTESIAN_POINT('',(46.1677050983125,34.,50.1));
#1047=CARTESIAN_POINT('',(77.2427050983125,36.2,50.1));
#1048=CARTESIAN_POINT('',(76.1677050983125,34.,50.1));
#1049=CARTESIAN_POINT('',(37.8322949016875,34.,50.1));
#1050=CARTESIAN_POINT('',(36.7572949016875,36.2,50.1));
#1051=CARTESIAN_POINT('',(36.7572949016875,36.2,50.1));
#1052=CARTESIAN_POINT('',(47.2427050983125,36.2,50.1));
#1053=CARTESIAN_POINT('',(67.8322949016875,34.,50.1));
#1054=CARTESIAN_POINT('',(66.7572949016875,36.2,50.1));
#1055=CARTESIAN_POINT('',(66.7572949016875,36.2,50.1));
#1056=CARTESIAN_POINT('',(77.2427050983125,36.2,50.1));
#1057=CARTESIAN_POINT('',(30.,37.,55.));
#1058=CARTESIAN_POINT('',(84.,37.,55.));
#1059=CARTESIAN_POINT('',(46.1677050983125,34.,50.1));
#1060=CARTESIAN_POINT('',(37.8322949016875,34.,50.1));
#1061=CARTESIAN_POINT('',(76.1677050983125,34.,50.1));
#1062=CARTESIAN_POINT('',(67.8322949016875,34.,50.1));
#1063=CARTESIAN_POINT('',(27.,34.,55.));
#1064=CARTESIAN_POINT('',(37.8322949016875,34.,55.));
#1065=CARTESIAN_POINT('',(46.1677050983125,34.,55.));
#1066=CARTESIAN_POINT('',(67.8322949016875,34.,55.));
#1067=CARTESIAN_POINT('',(76.1677050983125,34.,55.));
#1068=CARTESIAN_POINT('',(87.,34.,55.));
#1069=CARTESIAN_POINT('',(27.,64.85,55.));
#1070=CARTESIAN_POINT('',(27.,34.,55.));
#1071=CARTESIAN_POINT('',(87.,34.,55.));
#1072=CARTESIAN_POINT('',(87.,64.85,55.));
#1073=CARTESIAN_POINT('',(87.,34.,0.));
#1074=CARTESIAN_POINT('',(87.,34.,55.));
#1075=CARTESIAN_POINT('',(30.,37.,3.));
#1076=CARTESIAN_POINT('',(30.,37.,55.));
#1077=CARTESIAN_POINT('',(84.,37.,3.));
#1078=CARTESIAN_POINT('',(84.,37.,55.));
#1079=CARTESIAN_POINT('',(27.,34.,0.));
#1080=CARTESIAN_POINT('',(27.,34.,55.));
#1081=CARTESIAN_POINT('',(0.,0.,0.));
ENDSEC;
END-ISO-10303-21;
