ISO-10303-21;
HEADER;
/* Generated by software containing ST-Developer
 * from STEP Tools, Inc. (www.steptools.com) 
 */
/* OPTION: using custom schema-name function */

FILE_DESCRIPTION(
/* description */ (''),
/* implementation_level */ '2;1');

FILE_NAME(
/* name */ 'table_top_white_4',
/* time_stamp */ '2026-09-04T19:56:36+03:00',
/* author */ (''),
/* organization */ (''),
/* preprocessor_version */ 'ST-DEVELOPER v19.2',
/* originating_system */ 'Rhino 8.34',
/* authorisation */ '');

FILE_SCHEMA (('CONFIG_CONTROL_DESIGN'));
ENDSEC;

DATA;
#10=SHAPE_REPRESENTATION_RELATIONSHIP('','',#468,#12);
#11=MANIFOLD_SOLID_BREP('brep_1',#13);
#12=ADVANCED_BREP_SHAPE_REPRESENTATION('brep_rep_0',(#11,#492),#467);
#13=CLOSED_SHELL('',(#14,#15,#16,#17,#18,#19,#20,#21,#22,#23,#24,#25,#26,
#27,#28,#29,#30,#31,#32,#33,#34,#35));
#14=ADVANCED_FACE('',(#36),#360,.T.);
#15=ADVANCED_FACE('',(#37),#361,.T.);
#16=ADVANCED_FACE('',(#38),#362,.T.);
#17=ADVANCED_FACE('',(#39),#363,.T.);
#18=ADVANCED_FACE('',(#40),#364,.T.);
#19=ADVANCED_FACE('',(#41),#365,.T.);
#20=ADVANCED_FACE('',(#42),#366,.T.);
#21=ADVANCED_FACE('',(#43),#367,.T.);
#22=ADVANCED_FACE('',(#44),#368,.T.);
#23=ADVANCED_FACE('',(#45),#369,.T.);
#24=ADVANCED_FACE('',(#46),#370,.T.);
#25=ADVANCED_FACE('',(#47),#371,.T.);
#26=ADVANCED_FACE('',(#48),#372,.T.);
#27=ADVANCED_FACE('',(#49),#373,.T.);
#28=ADVANCED_FACE('',(#50),#374,.T.);
#29=ADVANCED_FACE('',(#51),#375,.T.);
#30=ADVANCED_FACE('',(#52),#376,.T.);
#31=ADVANCED_FACE('',(#53),#377,.T.);
#32=ADVANCED_FACE('',(#54),#378,.T.);
#33=ADVANCED_FACE('',(#55),#379,.T.);
#34=ADVANCED_FACE('',(#56),#380,.T.);
#35=ADVANCED_FACE('',(#57),#381,.T.);
#36=FACE_OUTER_BOUND('',#58,.T.);
#37=FACE_OUTER_BOUND('',#59,.T.);
#38=FACE_OUTER_BOUND('',#60,.T.);
#39=FACE_OUTER_BOUND('',#61,.T.);
#40=FACE_OUTER_BOUND('',#62,.T.);
#41=FACE_OUTER_BOUND('',#63,.T.);
#42=FACE_OUTER_BOUND('',#64,.T.);
#43=FACE_OUTER_BOUND('',#65,.T.);
#44=FACE_OUTER_BOUND('',#66,.T.);
#45=FACE_OUTER_BOUND('',#67,.T.);
#46=FACE_OUTER_BOUND('',#68,.T.);
#47=FACE_OUTER_BOUND('',#69,.T.);
#48=FACE_OUTER_BOUND('',#70,.T.);
#49=FACE_OUTER_BOUND('',#71,.T.);
#50=FACE_OUTER_BOUND('',#72,.T.);
#51=FACE_OUTER_BOUND('',#73,.T.);
#52=FACE_OUTER_BOUND('',#74,.T.);
#53=FACE_OUTER_BOUND('',#75,.T.);
#54=FACE_OUTER_BOUND('',#76,.T.);
#55=FACE_OUTER_BOUND('',#77,.T.);
#56=FACE_OUTER_BOUND('',#78,.T.);
#57=FACE_OUTER_BOUND('',#79,.T.);
#58=EDGE_LOOP('',(#80,#81,#82,#83));
#59=EDGE_LOOP('',(#84,#85,#86,#87));
#60=EDGE_LOOP('',(#88,#89,#90,#91));
#61=EDGE_LOOP('',(#92,#93,#94,#95));
#62=EDGE_LOOP('',(#96,#97,#98,#99));
#63=EDGE_LOOP('',(#100,#101,#102,#103));
#64=EDGE_LOOP('',(#104,#105,#106,#107));
#65=EDGE_LOOP('',(#108,#109,#110,#111));
#66=EDGE_LOOP('',(#112,#113,#114,#115));
#67=EDGE_LOOP('',(#116,#117,#118,#119));
#68=EDGE_LOOP('',(#120,#121,#122,#123));
#69=EDGE_LOOP('',(#124,#125,#126,#127));
#70=EDGE_LOOP('',(#128,#129,#130,#131));
#71=EDGE_LOOP('',(#132,#133,#134,#135,#136,#137,#138,#139,#140,#141,#142,
#143,#144,#145,#146,#147,#148,#149,#150,#151));
#72=EDGE_LOOP('',(#152,#153,#154,#155));
#73=EDGE_LOOP('',(#156,#157,#158,#159));
#74=EDGE_LOOP('',(#160,#161,#162,#163));
#75=EDGE_LOOP('',(#164,#165,#166,#167));
#76=EDGE_LOOP('',(#168,#169,#170,#171));
#77=EDGE_LOOP('',(#172,#173,#174,#175));
#78=EDGE_LOOP('',(#176,#177,#178,#179));
#79=EDGE_LOOP('',(#180,#181,#182,#183,#184,#185,#186,#187,#188,#189,#190,
#191,#192,#193,#194,#195,#196,#197,#198,#199));
#80=ORIENTED_EDGE('',*,*,#253,.F.);
#81=ORIENTED_EDGE('',*,*,#242,.F.);
#82=ORIENTED_EDGE('',*,*,#243,.F.);
#83=ORIENTED_EDGE('',*,*,#244,.F.);
#84=ORIENTED_EDGE('',*,*,#239,.T.);
#85=ORIENTED_EDGE('',*,*,#209,.F.);
#86=ORIENTED_EDGE('',*,*,#210,.T.);
#87=ORIENTED_EDGE('',*,*,#211,.T.);
#88=ORIENTED_EDGE('',*,*,#240,.T.);
#89=ORIENTED_EDGE('',*,*,#211,.F.);
#90=ORIENTED_EDGE('',*,*,#212,.T.);
#91=ORIENTED_EDGE('',*,*,#213,.T.);
#92=ORIENTED_EDGE('',*,*,#241,.T.);
#93=ORIENTED_EDGE('',*,*,#213,.F.);
#94=ORIENTED_EDGE('',*,*,#214,.T.);
#95=ORIENTED_EDGE('',*,*,#215,.T.);
#96=ORIENTED_EDGE('',*,*,#242,.T.);
#97=ORIENTED_EDGE('',*,*,#217,.F.);
#98=ORIENTED_EDGE('',*,*,#218,.T.);
#99=ORIENTED_EDGE('',*,*,#219,.T.);
#100=ORIENTED_EDGE('',*,*,#243,.T.);
#101=ORIENTED_EDGE('',*,*,#219,.F.);
#102=ORIENTED_EDGE('',*,*,#220,.T.);
#103=ORIENTED_EDGE('',*,*,#221,.T.);
#104=ORIENTED_EDGE('',*,*,#244,.T.);
#105=ORIENTED_EDGE('',*,*,#221,.F.);
#106=ORIENTED_EDGE('',*,*,#222,.T.);
#107=ORIENTED_EDGE('',*,*,#223,.T.);
#108=ORIENTED_EDGE('',*,*,#245,.T.);
#109=ORIENTED_EDGE('',*,*,#225,.F.);
#110=ORIENTED_EDGE('',*,*,#226,.T.);
#111=ORIENTED_EDGE('',*,*,#227,.T.);
#112=ORIENTED_EDGE('',*,*,#246,.T.);
#113=ORIENTED_EDGE('',*,*,#227,.F.);
#114=ORIENTED_EDGE('',*,*,#228,.T.);
#115=ORIENTED_EDGE('',*,*,#229,.T.);
#116=ORIENTED_EDGE('',*,*,#247,.T.);
#117=ORIENTED_EDGE('',*,*,#229,.F.);
#118=ORIENTED_EDGE('',*,*,#230,.T.);
#119=ORIENTED_EDGE('',*,*,#231,.T.);
#120=ORIENTED_EDGE('',*,*,#248,.T.);
#121=ORIENTED_EDGE('',*,*,#233,.F.);
#122=ORIENTED_EDGE('',*,*,#234,.T.);
#123=ORIENTED_EDGE('',*,*,#235,.T.);
#124=ORIENTED_EDGE('',*,*,#249,.T.);
#125=ORIENTED_EDGE('',*,*,#235,.F.);
#126=ORIENTED_EDGE('',*,*,#236,.T.);
#127=ORIENTED_EDGE('',*,*,#237,.T.);
#128=ORIENTED_EDGE('',*,*,#250,.T.);
#129=ORIENTED_EDGE('',*,*,#237,.F.);
#130=ORIENTED_EDGE('',*,*,#238,.T.);
#131=ORIENTED_EDGE('',*,*,#204,.T.);
#132=ORIENTED_EDGE('',*,*,#238,.F.);
#133=ORIENTED_EDGE('',*,*,#236,.F.);
#134=ORIENTED_EDGE('',*,*,#234,.F.);
#135=ORIENTED_EDGE('',*,*,#232,.F.);
#136=ORIENTED_EDGE('',*,*,#230,.F.);
#137=ORIENTED_EDGE('',*,*,#228,.F.);
#138=ORIENTED_EDGE('',*,*,#226,.F.);
#139=ORIENTED_EDGE('',*,*,#224,.F.);
#140=ORIENTED_EDGE('',*,*,#222,.F.);
#141=ORIENTED_EDGE('',*,*,#220,.F.);
#142=ORIENTED_EDGE('',*,*,#218,.F.);
#143=ORIENTED_EDGE('',*,*,#216,.F.);
#144=ORIENTED_EDGE('',*,*,#214,.F.);
#145=ORIENTED_EDGE('',*,*,#212,.F.);
#146=ORIENTED_EDGE('',*,*,#210,.F.);
#147=ORIENTED_EDGE('',*,*,#208,.F.);
#148=ORIENTED_EDGE('',*,*,#207,.F.);
#149=ORIENTED_EDGE('',*,*,#206,.F.);
#150=ORIENTED_EDGE('',*,*,#205,.F.);
#151=ORIENTED_EDGE('',*,*,#203,.F.);
#152=ORIENTED_EDGE('',*,*,#250,.F.);
#153=ORIENTED_EDGE('',*,*,#251,.F.);
#154=ORIENTED_EDGE('',*,*,#248,.F.);
#155=ORIENTED_EDGE('',*,*,#249,.F.);
#156=ORIENTED_EDGE('',*,*,#247,.F.);
#157=ORIENTED_EDGE('',*,*,#252,.F.);
#158=ORIENTED_EDGE('',*,*,#245,.F.);
#159=ORIENTED_EDGE('',*,*,#246,.F.);
#160=ORIENTED_EDGE('',*,*,#241,.F.);
#161=ORIENTED_EDGE('',*,*,#254,.F.);
#162=ORIENTED_EDGE('',*,*,#239,.F.);
#163=ORIENTED_EDGE('',*,*,#240,.F.);
#164=ORIENTED_EDGE('',*,*,#200,.T.);
#165=ORIENTED_EDGE('',*,*,#201,.T.);
#166=ORIENTED_EDGE('',*,*,#202,.T.);
#167=ORIENTED_EDGE('',*,*,#255,.T.);
#168=ORIENTED_EDGE('',*,*,#259,.F.);
#169=ORIENTED_EDGE('',*,*,#205,.T.);
#170=ORIENTED_EDGE('',*,*,#256,.T.);
#171=ORIENTED_EDGE('',*,*,#200,.F.);
#172=ORIENTED_EDGE('',*,*,#206,.T.);
#173=ORIENTED_EDGE('',*,*,#257,.T.);
#174=ORIENTED_EDGE('',*,*,#201,.F.);
#175=ORIENTED_EDGE('',*,*,#256,.F.);
#176=ORIENTED_EDGE('',*,*,#207,.T.);
#177=ORIENTED_EDGE('',*,*,#258,.T.);
#178=ORIENTED_EDGE('',*,*,#202,.F.);
#179=ORIENTED_EDGE('',*,*,#257,.F.);
#180=ORIENTED_EDGE('',*,*,#215,.F.);
#181=ORIENTED_EDGE('',*,*,#216,.T.);
#182=ORIENTED_EDGE('',*,*,#217,.T.);
#183=ORIENTED_EDGE('',*,*,#253,.T.);
#184=ORIENTED_EDGE('',*,*,#223,.F.);
#185=ORIENTED_EDGE('',*,*,#224,.T.);
#186=ORIENTED_EDGE('',*,*,#225,.T.);
#187=ORIENTED_EDGE('',*,*,#252,.T.);
#188=ORIENTED_EDGE('',*,*,#231,.F.);
#189=ORIENTED_EDGE('',*,*,#232,.T.);
#190=ORIENTED_EDGE('',*,*,#233,.T.);
#191=ORIENTED_EDGE('',*,*,#251,.T.);
#192=ORIENTED_EDGE('',*,*,#204,.F.);
#193=ORIENTED_EDGE('',*,*,#203,.T.);
#194=ORIENTED_EDGE('',*,*,#259,.T.);
#195=ORIENTED_EDGE('',*,*,#255,.F.);
#196=ORIENTED_EDGE('',*,*,#258,.F.);
#197=ORIENTED_EDGE('',*,*,#208,.T.);
#198=ORIENTED_EDGE('',*,*,#209,.T.);
#199=ORIENTED_EDGE('',*,*,#254,.T.);
#200=EDGE_CURVE('',#320,#322,#260,.T.);
#201=EDGE_CURVE('',#322,#323,#261,.T.);
#202=EDGE_CURVE('',#323,#321,#262,.T.);
#203=EDGE_CURVE('',#324,#325,#263,.T.);
#204=EDGE_CURVE('',#324,#344,#264,.T.);
#205=EDGE_CURVE('',#325,#326,#265,.T.);
#206=EDGE_CURVE('',#326,#327,#266,.T.);
#207=EDGE_CURVE('',#327,#328,#267,.T.);
#208=EDGE_CURVE('',#328,#329,#268,.T.);
#209=EDGE_CURVE('',#329,#345,#269,.T.);
#210=EDGE_CURVE('',#329,#330,#270,.T.);
#211=EDGE_CURVE('',#330,#352,#271,.T.);
#212=EDGE_CURVE('',#330,#331,#272,.T.);
#213=EDGE_CURVE('',#331,#353,#273,.T.);
#214=EDGE_CURVE('',#331,#332,#274,.T.);
#215=EDGE_CURVE('',#332,#346,#275,.T.);
#216=EDGE_CURVE('',#332,#333,#276,.T.);
#217=EDGE_CURVE('',#333,#347,#277,.T.);
#218=EDGE_CURVE('',#333,#334,#278,.T.);
#219=EDGE_CURVE('',#334,#354,#279,.T.);
#220=EDGE_CURVE('',#334,#335,#280,.T.);
#221=EDGE_CURVE('',#335,#355,#281,.T.);
#222=EDGE_CURVE('',#335,#336,#282,.T.);
#223=EDGE_CURVE('',#336,#348,#283,.T.);
#224=EDGE_CURVE('',#336,#337,#284,.T.);
#225=EDGE_CURVE('',#337,#349,#285,.T.);
#226=EDGE_CURVE('',#337,#338,#286,.T.);
#227=EDGE_CURVE('',#338,#356,#287,.T.);
#228=EDGE_CURVE('',#338,#339,#288,.T.);
#229=EDGE_CURVE('',#339,#357,#289,.T.);
#230=EDGE_CURVE('',#339,#340,#290,.T.);
#231=EDGE_CURVE('',#340,#350,#291,.T.);
#232=EDGE_CURVE('',#340,#341,#292,.T.);
#233=EDGE_CURVE('',#341,#351,#293,.T.);
#234=EDGE_CURVE('',#341,#342,#294,.T.);
#235=EDGE_CURVE('',#342,#358,#295,.T.);
#236=EDGE_CURVE('',#342,#343,#296,.T.);
#237=EDGE_CURVE('',#343,#359,#297,.T.);
#238=EDGE_CURVE('',#343,#324,#298,.T.);
#239=EDGE_CURVE('',#352,#345,#299,.T.);
#240=EDGE_CURVE('',#353,#352,#300,.T.);
#241=EDGE_CURVE('',#346,#353,#301,.T.);
#242=EDGE_CURVE('',#354,#347,#302,.T.);
#243=EDGE_CURVE('',#355,#354,#303,.T.);
#244=EDGE_CURVE('',#348,#355,#304,.T.);
#245=EDGE_CURVE('',#356,#349,#305,.T.);
#246=EDGE_CURVE('',#357,#356,#306,.T.);
#247=EDGE_CURVE('',#350,#357,#307,.T.);
#248=EDGE_CURVE('',#358,#351,#308,.T.);
#249=EDGE_CURVE('',#359,#358,#309,.T.);
#250=EDGE_CURVE('',#344,#359,#310,.T.);
#251=EDGE_CURVE('',#351,#344,#311,.T.);
#252=EDGE_CURVE('',#349,#350,#312,.T.);
#253=EDGE_CURVE('',#347,#348,#313,.T.);
#254=EDGE_CURVE('',#345,#346,#314,.T.);
#255=EDGE_CURVE('',#321,#320,#315,.T.);
#256=EDGE_CURVE('',#326,#322,#316,.T.);
#257=EDGE_CURVE('',#327,#323,#317,.T.);
#258=EDGE_CURVE('',#328,#321,#318,.T.);
#259=EDGE_CURVE('',#325,#320,#319,.T.);
#260=B_SPLINE_CURVE_WITH_KNOTS('',1,(#582,#583),.UNSPECIFIED.,.F.,.F.,(2,
2),(190.,195.),.UNSPECIFIED.);
#261=B_SPLINE_CURVE_WITH_KNOTS('',1,(#584,#585),.UNSPECIFIED.,.F.,.F.,(2,
2),(195.,385.),.UNSPECIFIED.);
#262=B_SPLINE_CURVE_WITH_KNOTS('',1,(#586,#587),.UNSPECIFIED.,.F.,.F.,(2,
2),(385.,390.),.UNSPECIFIED.);
#263=B_SPLINE_CURVE_WITH_KNOTS('',1,(#588,#589),.UNSPECIFIED.,.F.,.F.,(2,
2),(174.167705098312,190.),.UNSPECIFIED.);
#264=B_SPLINE_CURVE_WITH_KNOTS('',1,(#590,#591),.UNSPECIFIED.,.F.,.F.,(2,
2),(0.,55.1),.UNSPECIFIED.);
#265=B_SPLINE_CURVE_WITH_KNOTS('',1,(#592,#593),.UNSPECIFIED.,.F.,.F.,(2,
2),(190.,195.),.UNSPECIFIED.);
#266=B_SPLINE_CURVE_WITH_KNOTS('',1,(#594,#595),.UNSPECIFIED.,.F.,.F.,(2,
2),(195.,385.),.UNSPECIFIED.);
#267=B_SPLINE_CURVE_WITH_KNOTS('',1,(#596,#597),.UNSPECIFIED.,.F.,.F.,(2,
2),(385.,390.),.UNSPECIFIED.);
#268=B_SPLINE_CURVE_WITH_KNOTS('',1,(#598,#599),.UNSPECIFIED.,.F.,.F.,(2,
2),(390.,405.832294901687),.UNSPECIFIED.);
#269=B_SPLINE_CURVE_WITH_KNOTS('',1,(#600,#601),.UNSPECIFIED.,.F.,.F.,(2,
2),(0.,55.1),.UNSPECIFIED.);
#270=B_SPLINE_CURVE_WITH_KNOTS('',1,(#602,#603),.UNSPECIFIED.,.F.,.F.,(2,
2),(405.832294901687,407.701860119079),.UNSPECIFIED.);
#271=B_SPLINE_CURVE_WITH_KNOTS('',1,(#604,#605),.UNSPECIFIED.,.F.,.F.,(2,
2),(0.,55.1),.UNSPECIFIED.);
#272=B_SPLINE_CURVE_WITH_KNOTS('',1,(#606,#607),.UNSPECIFIED.,.F.,.F.,(2,
2),(407.701860119079,417.701860119079),.UNSPECIFIED.);
#273=B_SPLINE_CURVE_WITH_KNOTS('',1,(#608,#609),.UNSPECIFIED.,.F.,.F.,(2,
2),(0.,55.1),.UNSPECIFIED.);
#274=B_SPLINE_CURVE_WITH_KNOTS('',1,(#610,#611),.UNSPECIFIED.,.F.,.F.,(2,
2),(417.701860119079,419.57142533647),.UNSPECIFIED.);
#275=B_SPLINE_CURVE_WITH_KNOTS('',1,(#612,#613),.UNSPECIFIED.,.F.,.F.,(2,
2),(0.,55.1),.UNSPECIFIED.);
#276=B_SPLINE_CURVE_WITH_KNOTS('',1,(#614,#615),.UNSPECIFIED.,.F.,.F.,(2,
2),(419.57142533647,441.236015139845),.UNSPECIFIED.);
#277=B_SPLINE_CURVE_WITH_KNOTS('',1,(#616,#617),.UNSPECIFIED.,.F.,.F.,(2,
2),(0.,55.1),.UNSPECIFIED.);
#278=B_SPLINE_CURVE_WITH_KNOTS('',1,(#618,#619),.UNSPECIFIED.,.F.,.F.,(2,
2),(441.236015139845,443.105580357236),.UNSPECIFIED.);
#279=B_SPLINE_CURVE_WITH_KNOTS('',1,(#620,#621),.UNSPECIFIED.,.F.,.F.,(2,
2),(0.,55.1),.UNSPECIFIED.);
#280=B_SPLINE_CURVE_WITH_KNOTS('',1,(#622,#623),.UNSPECIFIED.,.F.,.F.,(2,
2),(443.105580357236,453.105580357236),.UNSPECIFIED.);
#281=B_SPLINE_CURVE_WITH_KNOTS('',1,(#624,#625),.UNSPECIFIED.,.F.,.F.,(2,
2),(0.,55.1),.UNSPECIFIED.);
#282=B_SPLINE_CURVE_WITH_KNOTS('',1,(#626,#627),.UNSPECIFIED.,.F.,.F.,(2,
2),(453.105580357236,454.975145574628),.UNSPECIFIED.);
#283=B_SPLINE_CURVE_WITH_KNOTS('',1,(#628,#629),.UNSPECIFIED.,.F.,.F.,(2,
2),(0.,55.1),.UNSPECIFIED.);
#284=B_SPLINE_CURVE_WITH_KNOTS('',1,(#630,#631),.UNSPECIFIED.,.F.,.F.,(2,
2),(454.975145574628,536.639735378003),.UNSPECIFIED.);
#285=B_SPLINE_CURVE_WITH_KNOTS('',1,(#632,#633),.UNSPECIFIED.,.F.,.F.,(2,
2),(0.,55.1),.UNSPECIFIED.);
#286=B_SPLINE_CURVE_WITH_KNOTS('',1,(#634,#635),.UNSPECIFIED.,.F.,.F.,(2,
2),(536.639735378003,538.509300595394),.UNSPECIFIED.);
#287=B_SPLINE_CURVE_WITH_KNOTS('',1,(#636,#637),.UNSPECIFIED.,.F.,.F.,(2,
2),(0.,55.1),.UNSPECIFIED.);
#288=B_SPLINE_CURVE_WITH_KNOTS('',1,(#638,#639),.UNSPECIFIED.,.F.,.F.,(2,
2),(538.509300595394,548.509300595394),.UNSPECIFIED.);
#289=B_SPLINE_CURVE_WITH_KNOTS('',1,(#640,#641),.UNSPECIFIED.,.F.,.F.,(2,
2),(0.,55.1),.UNSPECIFIED.);
#290=B_SPLINE_CURVE_WITH_KNOTS('',1,(#642,#643),.UNSPECIFIED.,.F.,.F.,(2,
2),(548.509300595394,550.378865812785),.UNSPECIFIED.);
#291=B_SPLINE_CURVE_WITH_KNOTS('',1,(#644,#645),.UNSPECIFIED.,.F.,.F.,(2,
2),(0.,55.1),.UNSPECIFIED.);
#292=B_SPLINE_CURVE_WITH_KNOTS('',1,(#646,#647),.UNSPECIFIED.,.F.,.F.,(2,
2),(550.378865812785,572.04345561616),.UNSPECIFIED.);
#293=B_SPLINE_CURVE_WITH_KNOTS('',1,(#648,#649),.UNSPECIFIED.,.F.,.F.,(2,
2),(0.,55.1),.UNSPECIFIED.);
#294=B_SPLINE_CURVE_WITH_KNOTS('',1,(#650,#651),.UNSPECIFIED.,.F.,.F.,(2,
2),(572.04345561616,573.913020833552),.UNSPECIFIED.);
#295=B_SPLINE_CURVE_WITH_KNOTS('',1,(#652,#653),.UNSPECIFIED.,.F.,.F.,(2,
2),(0.,55.1),.UNSPECIFIED.);
#296=B_SPLINE_CURVE_WITH_KNOTS('',1,(#654,#655),.UNSPECIFIED.,.F.,.F.,(2,
2),(573.913020833552,583.913020833552),.UNSPECIFIED.);
#297=B_SPLINE_CURVE_WITH_KNOTS('',1,(#656,#657),.UNSPECIFIED.,.F.,.F.,(2,
2),(0.,55.1),.UNSPECIFIED.);
#298=B_SPLINE_CURVE_WITH_KNOTS('',1,(#658,#659),.UNSPECIFIED.,.F.,.F.,(2,
2),(583.913020833552,585.782586050943),.UNSPECIFIED.);
#299=B_SPLINE_CURVE_WITH_KNOTS('',1,(#660,#661),.UNSPECIFIED.,.F.,.F.,(2,
2),(-407.701860119079,-405.832294901687),.UNSPECIFIED.);
#300=B_SPLINE_CURVE_WITH_KNOTS('',1,(#662,#663),.UNSPECIFIED.,.F.,.F.,(2,
2),(-25.2427050983125,-14.7572949016875),.UNSPECIFIED.);
#301=B_SPLINE_CURVE_WITH_KNOTS('',1,(#664,#665),.UNSPECIFIED.,.F.,.F.,(2,
2),(-419.57142533647,-417.701860119079),.UNSPECIFIED.);
#302=B_SPLINE_CURVE_WITH_KNOTS('',1,(#666,#667),.UNSPECIFIED.,.F.,.F.,(2,
2),(-443.105580357236,-441.236015139845),.UNSPECIFIED.);
#303=B_SPLINE_CURVE_WITH_KNOTS('',1,(#668,#669),.UNSPECIFIED.,.F.,.F.,(2,
2),(-55.2427050983124,-44.7572949016875),.UNSPECIFIED.);
#304=B_SPLINE_CURVE_WITH_KNOTS('',1,(#670,#671),.UNSPECIFIED.,.F.,.F.,(2,
2),(-454.975145574628,-453.105580357236),.UNSPECIFIED.);
#305=B_SPLINE_CURVE_WITH_KNOTS('',1,(#672,#673),.UNSPECIFIED.,.F.,.F.,(2,
2),(-538.509300595394,-536.639735378003),.UNSPECIFIED.);
#306=B_SPLINE_CURVE_WITH_KNOTS('',1,(#674,#675),.UNSPECIFIED.,.F.,.F.,(2,
2),(-145.242705098312,-134.757294901687),.UNSPECIFIED.);
#307=B_SPLINE_CURVE_WITH_KNOTS('',1,(#676,#677),.UNSPECIFIED.,.F.,.F.,(2,
2),(-550.378865812785,-548.509300595394),.UNSPECIFIED.);
#308=B_SPLINE_CURVE_WITH_KNOTS('',1,(#678,#679),.UNSPECIFIED.,.F.,.F.,(2,
2),(-573.913020833552,-572.04345561616),.UNSPECIFIED.);
#309=B_SPLINE_CURVE_WITH_KNOTS('',1,(#680,#681),.UNSPECIFIED.,.F.,.F.,(2,
2),(-175.242705098312,-164.757294901687),.UNSPECIFIED.);
#310=B_SPLINE_CURVE_WITH_KNOTS('',1,(#682,#683),.UNSPECIFIED.,.F.,.F.,(2,
2),(-585.782586050943,-583.913020833552),.UNSPECIFIED.);
#311=B_SPLINE_CURVE_WITH_KNOTS('',1,(#684,#685),.UNSPECIFIED.,.F.,.F.,(2,
2),(187.986156662034,188.680728621821),.UNSPECIFIED.);
#312=B_SPLINE_CURVE_WITH_KNOTS('',1,(#686,#687),.UNSPECIFIED.,.F.,.F.,(2,
2),(185.477987838135,186.189225371503),.UNSPECIFIED.);
#313=B_SPLINE_CURVE_WITH_KNOTS('',1,(#688,#689),.UNSPECIFIED.,.F.,.F.,(2,
2),(177.9868125136,178.681384473387),.UNSPECIFIED.);
#314=B_SPLINE_CURVE_WITH_KNOTS('',1,(#690,#691),.UNSPECIFIED.,.F.,.F.,(2,
2),(175.482810083096,176.185714829673),.UNSPECIFIED.);
#315=B_SPLINE_CURVE_WITH_KNOTS('',1,(#692,#693,#694,#695,#696,#697,#698,
#699,#700,#701),.UNSPECIFIED.,.F.,.F.,(2,1,1,1,1,1,1,1,1,2),(174.167705098312,
175.482810083096,176.185714829673,177.9868125136,178.681384473387,185.477987838135,
186.189225371503,187.986156662034,188.680728621821,190.),.UNSPECIFIED.);
#316=B_SPLINE_CURVE_WITH_KNOTS('',1,(#702,#703,#704),.UNSPECIFIED.,.F.,
 .F.,(2,1,2),(0.,55.1,60.),.UNSPECIFIED.);
#317=B_SPLINE_CURVE_WITH_KNOTS('',1,(#705,#706,#707),.UNSPECIFIED.,.F.,
 .F.,(2,1,2),(0.,55.1,60.),.UNSPECIFIED.);
#318=B_SPLINE_CURVE_WITH_KNOTS('',1,(#708,#709),.UNSPECIFIED.,.F.,.F.,(2,
2),(0.,60.),.UNSPECIFIED.);
#319=B_SPLINE_CURVE_WITH_KNOTS('',1,(#710,#711),.UNSPECIFIED.,.F.,.F.,(2,
2),(0.,60.),.UNSPECIFIED.);
#320=VERTEX_POINT('',#542);
#321=VERTEX_POINT('',#543);
#322=VERTEX_POINT('',#544);
#323=VERTEX_POINT('',#545);
#324=VERTEX_POINT('',#546);
#325=VERTEX_POINT('',#547);
#326=VERTEX_POINT('',#548);
#327=VERTEX_POINT('',#549);
#328=VERTEX_POINT('',#550);
#329=VERTEX_POINT('',#551);
#330=VERTEX_POINT('',#552);
#331=VERTEX_POINT('',#553);
#332=VERTEX_POINT('',#554);
#333=VERTEX_POINT('',#555);
#334=VERTEX_POINT('',#556);
#335=VERTEX_POINT('',#557);
#336=VERTEX_POINT('',#558);
#337=VERTEX_POINT('',#559);
#338=VERTEX_POINT('',#560);
#339=VERTEX_POINT('',#561);
#340=VERTEX_POINT('',#562);
#341=VERTEX_POINT('',#563);
#342=VERTEX_POINT('',#564);
#343=VERTEX_POINT('',#565);
#344=VERTEX_POINT('',#566);
#345=VERTEX_POINT('',#567);
#346=VERTEX_POINT('',#568);
#347=VERTEX_POINT('',#569);
#348=VERTEX_POINT('',#570);
#349=VERTEX_POINT('',#571);
#350=VERTEX_POINT('',#572);
#351=VERTEX_POINT('',#573);
#352=VERTEX_POINT('',#574);
#353=VERTEX_POINT('',#575);
#354=VERTEX_POINT('',#576);
#355=VERTEX_POINT('',#577);
#356=VERTEX_POINT('',#578);
#357=VERTEX_POINT('',#579);
#358=VERTEX_POINT('',#580);
#359=VERTEX_POINT('',#581);
#360=PLANE('',#470);
#361=PLANE('',#471);
#362=PLANE('',#472);
#363=PLANE('',#473);
#364=PLANE('',#474);
#365=PLANE('',#475);
#366=PLANE('',#476);
#367=PLANE('',#477);
#368=PLANE('',#478);
#369=PLANE('',#479);
#370=PLANE('',#480);
#371=PLANE('',#481);
#372=PLANE('',#482);
#373=PLANE('',#483);
#374=PLANE('',#484);
#375=PLANE('',#485);
#376=PLANE('',#486);
#377=PLANE('',#487);
#378=PLANE('',#488);
#379=PLANE('',#489);
#380=PLANE('',#490);
#381=PLANE('',#491);
#382=SHAPE_DEFINITION_REPRESENTATION(#383,#468);
#383=PRODUCT_DEFINITION_SHAPE($,$,#385);
#384=PRODUCT_DEFINITION_CONTEXT('3D Mechanical Parts',#457,'design');
#385=PRODUCT_DEFINITION('A','First version',#427,#384);
#386=DATE_TIME_ROLE('classification_date');
#387=DATE_TIME_ROLE('creation_date');
#388=APPLIED_DATE_AND_TIME_ASSIGNMENT(#412,#386,(#391));
#389=APPLIED_DATE_AND_TIME_ASSIGNMENT(#414,#387,(#385));
#390=SECURITY_CLASSIFICATION_LEVEL('unclassified');
#391=SECURITY_CLASSIFICATION('A','Security for version',#390);
#392=APPLIED_SECURITY_CLASSIFICATION_ASSIGNMENT(#391,(#427));
#393=APPROVAL_ROLE('Version approval');
#394=APPROVAL_ROLE('Version Security approval');
#395=APPROVAL_ROLE('Definition approval');
#396=APPROVAL_PERSON_ORGANIZATION(#445,#421,#393);
#397=APPROVAL_PERSON_ORGANIZATION(#446,#422,#394);
#398=APPROVAL_PERSON_ORGANIZATION(#449,#423,#395);
#399=COORDINATED_UNIVERSAL_TIME_OFFSET(5,0,.BEHIND.);
#400=LOCAL_TIME(0,0,0.,#399);
#401=LOCAL_TIME(0,0,0.,#399);
#402=LOCAL_TIME(0,0,0.,#399);
#403=LOCAL_TIME(0,0,0.,#399);
#404=LOCAL_TIME(0,0,0.,#399);
#405=CALENDAR_DATE(1999,1,1);
#406=CALENDAR_DATE(1999,1,1);
#407=CALENDAR_DATE(1999,1,1);
#408=CALENDAR_DATE(1999,1,1);
#409=CALENDAR_DATE(1999,1,1);
#410=DATE_AND_TIME(#405,#400);
#411=DATE_AND_TIME(#406,#401);
#412=DATE_AND_TIME(#407,#402);
#413=DATE_AND_TIME(#408,#403);
#414=DATE_AND_TIME(#409,#404);
#415=APPROVAL_DATE_TIME(#410,#421);
#416=APPROVAL_DATE_TIME(#411,#422);
#417=APPROVAL_DATE_TIME(#413,#423);
#418=APPROVAL_STATUS('not_yet_approved');
#419=APPROVAL_STATUS('not_yet_approved');
#420=APPROVAL_STATUS('approved');
#421=APPROVAL(#418,'Version approval');
#422=APPROVAL(#419,'Version Security approval');
#423=APPROVAL(#420,'Definition approval');
#424=APPLIED_APPROVAL_ASSIGNMENT(#421,(#427));
#425=APPLIED_APPROVAL_ASSIGNMENT(#422,(#391));
#426=APPLIED_APPROVAL_ASSIGNMENT(#423,(#385));
#427=PRODUCT_DEFINITION_FORMATION_WITH_SPECIFIED_SOURCE('A',
'First version',#459,.MADE.);
#428=PERSON_AND_ORGANIZATION_ROLE('design_owner');
#429=PERSON_AND_ORGANIZATION_ROLE('creator');
#430=PERSON_AND_ORGANIZATION_ROLE('design_supplier');
#431=PERSON_AND_ORGANIZATION_ROLE('classification_officer');
#432=PERSON_AND_ORGANIZATION_ROLE('creator');
#433=ORGANIZATION('STI','lab','lab');
#434=ORGANIZATION('STI','unknown','unknown');
#435=ORGANIZATION('STI','unknown','unknown');
#436=ORGANIZATION('STI','unknown','unknown');
#437=ORGANIZATION('STI','unknown','unknown');
#438=ORGANIZATION('STI','unknown','unknown');
#439=ORGANIZATION('STI','unknown','unknown');
#440=PERSON('1','Box','vc60',$,$,$);
#441=PERSON('2','last','first',$,$,$);
#442=PERSON('3','President','Mr.',$,$,$);
#443=PERSON_AND_ORGANIZATION(#440,#433);
#444=PERSON_AND_ORGANIZATION(#441,#434);
#445=PERSON_AND_ORGANIZATION(#442,#435);
#446=PERSON_AND_ORGANIZATION(#442,#436);
#447=PERSON_AND_ORGANIZATION(#442,#437);
#448=PERSON_AND_ORGANIZATION(#441,#438);
#449=PERSON_AND_ORGANIZATION(#442,#439);
#450=APPLIED_PERSON_AND_ORGANIZATION_ASSIGNMENT(#443,#428,(#459));
#451=APPLIED_PERSON_AND_ORGANIZATION_ASSIGNMENT(#444,#429,(#427));
#452=APPLIED_PERSON_AND_ORGANIZATION_ASSIGNMENT(#444,#430,(#427));
#453=APPLIED_PERSON_AND_ORGANIZATION_ASSIGNMENT(#447,#431,(#391));
#454=APPLIED_PERSON_AND_ORGANIZATION_ASSIGNMENT(#448,#432,(#385));
#455=PRODUCT_RELATED_PRODUCT_CATEGORY('detail','detail',(#459));
#456=APPLICATION_PROTOCOL_DEFINITION('International Standard',
'config_control_design',1994,#457);
#457=APPLICATION_CONTEXT(
'configuration controlled 3d designs of mechanical parts and assemblie
s');
#458=PRODUCT_CONTEXT('3D Mechanical Parts',#457,'mechanical');
#459=PRODUCT('Document','Document','',(#458));
#460=(
LENGTH_UNIT()
NAMED_UNIT(*)
SI_UNIT(.MILLI.,.METRE.)
);
#461=(
NAMED_UNIT(*)
PLANE_ANGLE_UNIT()
SI_UNIT($,.RADIAN.)
);
#462=DIMENSIONAL_EXPONENTS(0.,0.,0.,0.,0.,0.,0.);
#463=PLANE_ANGLE_MEASURE_WITH_UNIT(PLANE_ANGLE_MEASURE(0.01745329252),#461);
#464=(
CONVERSION_BASED_UNIT('DEGREES',#463)
NAMED_UNIT(#462)
PLANE_ANGLE_UNIT()
);
#465=(
NAMED_UNIT(*)
SI_UNIT($,.STERADIAN.)
SOLID_ANGLE_UNIT()
);
#466=UNCERTAINTY_MEASURE_WITH_UNIT(LENGTH_MEASURE(0.001),#460,
'DISTANCE_ACCURACY_VALUE',
'Maximum model space distance between geometric entities at asserted c
onnectivities');
#467=(
GEOMETRIC_REPRESENTATION_CONTEXT(3)
GLOBAL_UNCERTAINTY_ASSIGNED_CONTEXT((#466))
GLOBAL_UNIT_ASSIGNED_CONTEXT((#465,#464,#460))
REPRESENTATION_CONTEXT('ID1','3D')
);
#468=SHAPE_REPRESENTATION('Document',(#469,#492),#467);
#469=AXIS2_PLACEMENT_3D($,#519,#493,#494);
#470=AXIS2_PLACEMENT_3D('',#520,#495,$);
#471=AXIS2_PLACEMENT_3D('',#521,#496,$);
#472=AXIS2_PLACEMENT_3D('',#522,#497,$);
#473=AXIS2_PLACEMENT_3D('',#523,#498,$);
#474=AXIS2_PLACEMENT_3D('',#524,#499,$);
#475=AXIS2_PLACEMENT_3D('',#525,#500,$);
#476=AXIS2_PLACEMENT_3D('',#526,#501,$);
#477=AXIS2_PLACEMENT_3D('',#527,#502,$);
#478=AXIS2_PLACEMENT_3D('',#528,#503,$);
#479=AXIS2_PLACEMENT_3D('',#529,#504,$);
#480=AXIS2_PLACEMENT_3D('',#530,#505,$);
#481=AXIS2_PLACEMENT_3D('',#531,#506,$);
#482=AXIS2_PLACEMENT_3D('',#532,#507,$);
#483=AXIS2_PLACEMENT_3D('',#533,#508,$);
#484=AXIS2_PLACEMENT_3D('',#534,#509,$);
#485=AXIS2_PLACEMENT_3D('',#535,#510,$);
#486=AXIS2_PLACEMENT_3D('',#536,#511,$);
#487=AXIS2_PLACEMENT_3D('',#537,#512,$);
#488=AXIS2_PLACEMENT_3D('',#538,#513,$);
#489=AXIS2_PLACEMENT_3D('',#539,#514,$);
#490=AXIS2_PLACEMENT_3D('',#540,#515,$);
#491=AXIS2_PLACEMENT_3D('',#541,#516,$);
#492=AXIS2_PLACEMENT_3D($,#712,#517,#518);
#493=DIRECTION('',(0.,0.,1.));
#494=DIRECTION('',(1.,0.,0.));
#495=DIRECTION('',(0.,0.,-1.));
#496=DIRECTION('',(0.902666413566439,0.430340964607256,-2.03390046614699E-17));
#497=DIRECTION('',(0.,-1.,0.));
#498=DIRECTION('',(-0.902666413566439,0.430340964607254,-4.69370577363017E-17));
#499=DIRECTION('',(0.894427190999919,0.447213595499953,2.54337134421635E-17));
#500=DIRECTION('',(0.,-1.,0.));
#501=DIRECTION('',(-0.894427190999918,0.447213595499954,-4.40772428487695E-17));
#502=DIRECTION('',(0.910728794598474,0.413004918480653,-4.0339247863702E-17));
#503=DIRECTION('',(0.,-1.,0.));
#504=DIRECTION('',(-0.910728794598458,0.413004918480689,3.55431458959434E-17));
#505=DIRECTION('',(0.894427190999918,0.447213595499953,-7.43406267406776E-17));
#506=DIRECTION('',(0.,-1.,0.));
#507=DIRECTION('',(-0.894427190999908,0.447213595499975,-4.9515285208109E-17));
#508=DIRECTION('',(0.,0.,-1.));
#509=DIRECTION('',(0.,0.,-1.));
#510=DIRECTION('',(0.,0.,-1.));
#511=DIRECTION('',(0.,0.,-1.));
#512=DIRECTION('',(0.,0.,1.));
#513=DIRECTION('',(1.,0.,0.));
#514=DIRECTION('',(0.,1.,0.));
#515=DIRECTION('',(-1.,0.,0.));
#516=DIRECTION('',(0.,-1.,0.));
#517=DIRECTION('',(0.,0.,1.));
#518=DIRECTION('',(1.,0.,0.));
#519=CARTESIAN_POINT('',(0.,0.,0.));
#520=CARTESIAN_POINT('',(-98.,65.05,55.1));
#521=CARTESIAN_POINT('',(-82.2177050983125,65.05,0.));
#522=CARTESIAN_POINT('',(-83.2427050983125,67.2,0.));
#523=CARTESIAN_POINT('',(-72.7572949016875,67.2,0.));
#524=CARTESIAN_POINT('',(-52.1677050983125,65.05,0.));
#525=CARTESIAN_POINT('',(-53.2427050983125,67.2,0.));
#526=CARTESIAN_POINT('',(-42.7572949016875,67.2,0.));
#527=CARTESIAN_POINT('',(37.7322949016874,65.05,0.));
#528=CARTESIAN_POINT('',(36.7572949016875,67.2,0.));
#529=CARTESIAN_POINT('',(47.2427050983124,67.2,0.));
#530=CARTESIAN_POINT('',(67.8322949016874,65.05,0.));
#531=CARTESIAN_POINT('',(66.7572949016874,67.2,0.));
#532=CARTESIAN_POINT('',(77.2427050983124,67.2,0.));
#533=CARTESIAN_POINT('',(-121.75,64.425,0.));
#534=CARTESIAN_POINT('',(-98.,65.05,55.1));
#535=CARTESIAN_POINT('',(-98.,65.05,55.1));
#536=CARTESIAN_POINT('',(-98.,65.05,55.1));
#537=CARTESIAN_POINT('',(-98.,65.05,60.));
#538=CARTESIAN_POINT('',(91.9999999999999,65.05,0.));
#539=CARTESIAN_POINT('',(91.9999999999999,70.05,0.));
#540=CARTESIAN_POINT('',(-98.,70.05,0.));
#541=CARTESIAN_POINT('',(-98.,65.05,-4.2632564145606E-14));
#542=CARTESIAN_POINT('',(91.9999999999999,65.05,60.));
#543=CARTESIAN_POINT('',(-98.,65.05,60.));
#544=CARTESIAN_POINT('',(91.9999999999999,70.05,60.));
#545=CARTESIAN_POINT('',(-98.,70.05,60.));
#546=CARTESIAN_POINT('',(76.1677050983124,65.05,0.));
#547=CARTESIAN_POINT('',(91.9999999999999,65.05,0.));
#548=CARTESIAN_POINT('',(91.9999999999999,70.05,0.));
#549=CARTESIAN_POINT('',(-98.,70.05,0.));
#550=CARTESIAN_POINT('',(-98.,65.05,0.));
#551=CARTESIAN_POINT('',(-82.2177050983125,65.05,0.));
#552=CARTESIAN_POINT('',(-83.2427050983125,67.2,0.));
#553=CARTESIAN_POINT('',(-72.7572949016875,67.2,0.));
#554=CARTESIAN_POINT('',(-73.7822949016875,65.05,0.));
#555=CARTESIAN_POINT('',(-52.1677050983125,65.05,0.));
#556=CARTESIAN_POINT('',(-53.2427050983125,67.2,0.));
#557=CARTESIAN_POINT('',(-42.7572949016875,67.2,0.));
#558=CARTESIAN_POINT('',(-43.8322949016875,65.05,0.));
#559=CARTESIAN_POINT('',(37.7322949016874,65.05,0.));
#560=CARTESIAN_POINT('',(36.7572949016875,67.2,0.));
#561=CARTESIAN_POINT('',(47.2427050983124,67.2,0.));
#562=CARTESIAN_POINT('',(46.2677050983124,65.05,0.));
#563=CARTESIAN_POINT('',(67.8322949016874,65.05,0.));
#564=CARTESIAN_POINT('',(66.7572949016874,67.2,0.));
#565=CARTESIAN_POINT('',(77.2427050983124,67.2,0.));
#566=CARTESIAN_POINT('',(76.1677050983122,65.05,55.1));
#567=CARTESIAN_POINT('',(-82.2177050983125,65.05,55.1));
#568=CARTESIAN_POINT('',(-73.7822949016875,65.05,55.1));
#569=CARTESIAN_POINT('',(-52.1677050983124,65.05,55.1));
#570=CARTESIAN_POINT('',(-43.8322949016875,65.05,55.1));
#571=CARTESIAN_POINT('',(37.7322949016875,65.05,55.1));
#572=CARTESIAN_POINT('',(46.2677050983124,65.05,55.1));
#573=CARTESIAN_POINT('',(67.8322949016875,65.05,55.1));
#574=CARTESIAN_POINT('',(-83.2427050983125,67.2,55.1));
#575=CARTESIAN_POINT('',(-72.7572949016875,67.2,55.1));
#576=CARTESIAN_POINT('',(-53.2427050983125,67.2,55.1));
#577=CARTESIAN_POINT('',(-42.7572949016875,67.2,55.1));
#578=CARTESIAN_POINT('',(36.7572949016875,67.2,55.1));
#579=CARTESIAN_POINT('',(47.2427050983124,67.2,55.1));
#580=CARTESIAN_POINT('',(66.7572949016874,67.2,55.1));
#581=CARTESIAN_POINT('',(77.2427050983124,67.2,55.1));
#582=CARTESIAN_POINT('',(91.9999999999999,65.05,60.));
#583=CARTESIAN_POINT('',(91.9999999999999,70.05,60.));
#584=CARTESIAN_POINT('',(91.9999999999999,70.05,60.));
#585=CARTESIAN_POINT('',(-98.,70.05,60.));
#586=CARTESIAN_POINT('',(-98.,70.05,60.));
#587=CARTESIAN_POINT('',(-98.,65.05,60.));
#588=CARTESIAN_POINT('',(76.1677050983124,65.05,0.));
#589=CARTESIAN_POINT('',(91.9999999999999,65.05,0.));
#590=CARTESIAN_POINT('',(76.1677050983124,65.05,0.));
#591=CARTESIAN_POINT('',(76.1677050983122,65.05,55.1));
#592=CARTESIAN_POINT('',(91.9999999999999,65.05,0.));
#593=CARTESIAN_POINT('',(91.9999999999999,70.05,0.));
#594=CARTESIAN_POINT('',(91.9999999999999,70.05,0.));
#595=CARTESIAN_POINT('',(-98.,70.05,0.));
#596=CARTESIAN_POINT('',(-98.,70.05,0.));
#597=CARTESIAN_POINT('',(-98.,65.05,0.));
#598=CARTESIAN_POINT('',(-98.,65.05,0.));
#599=CARTESIAN_POINT('',(-82.2177050983125,65.05,0.));
#600=CARTESIAN_POINT('',(-82.2177050983125,65.05,0.));
#601=CARTESIAN_POINT('',(-82.2177050983125,65.05,55.1));
#602=CARTESIAN_POINT('',(-82.2177050983125,65.05,0.));
#603=CARTESIAN_POINT('',(-83.2427050983125,67.2,0.));
#604=CARTESIAN_POINT('',(-83.2427050983125,67.2,0.));
#605=CARTESIAN_POINT('',(-83.2427050983125,67.2,55.1));
#606=CARTESIAN_POINT('',(-83.2427050983125,67.2,0.));
#607=CARTESIAN_POINT('',(-72.7572949016875,67.2,0.));
#608=CARTESIAN_POINT('',(-72.7572949016875,67.2,0.));
#609=CARTESIAN_POINT('',(-72.7572949016875,67.2,55.1));
#610=CARTESIAN_POINT('',(-72.7572949016875,67.2,0.));
#611=CARTESIAN_POINT('',(-73.7822949016875,65.05,0.));
#612=CARTESIAN_POINT('',(-73.7822949016875,65.05,0.));
#613=CARTESIAN_POINT('',(-73.7822949016875,65.05,55.1));
#614=CARTESIAN_POINT('',(-73.7822949016875,65.05,0.));
#615=CARTESIAN_POINT('',(-52.1677050983125,65.05,0.));
#616=CARTESIAN_POINT('',(-52.1677050983125,65.05,0.));
#617=CARTESIAN_POINT('',(-52.1677050983124,65.05,55.1));
#618=CARTESIAN_POINT('',(-52.1677050983125,65.05,0.));
#619=CARTESIAN_POINT('',(-53.2427050983125,67.2,0.));
#620=CARTESIAN_POINT('',(-53.2427050983125,67.2,0.));
#621=CARTESIAN_POINT('',(-53.2427050983125,67.2,55.1));
#622=CARTESIAN_POINT('',(-53.2427050983125,67.2,0.));
#623=CARTESIAN_POINT('',(-42.7572949016875,67.2,0.));
#624=CARTESIAN_POINT('',(-42.7572949016875,67.2,0.));
#625=CARTESIAN_POINT('',(-42.7572949016875,67.2,55.1));
#626=CARTESIAN_POINT('',(-42.7572949016875,67.2,0.));
#627=CARTESIAN_POINT('',(-43.8322949016875,65.05,0.));
#628=CARTESIAN_POINT('',(-43.8322949016875,65.05,0.));
#629=CARTESIAN_POINT('',(-43.8322949016875,65.05,55.1));
#630=CARTESIAN_POINT('',(-43.8322949016875,65.05,0.));
#631=CARTESIAN_POINT('',(37.7322949016874,65.05,0.));
#632=CARTESIAN_POINT('',(37.7322949016874,65.05,0.));
#633=CARTESIAN_POINT('',(37.7322949016875,65.05,55.1));
#634=CARTESIAN_POINT('',(37.7322949016874,65.05,0.));
#635=CARTESIAN_POINT('',(36.7572949016875,67.2,0.));
#636=CARTESIAN_POINT('',(36.7572949016875,67.2,0.));
#637=CARTESIAN_POINT('',(36.7572949016875,67.2,55.1));
#638=CARTESIAN_POINT('',(36.7572949016875,67.2,0.));
#639=CARTESIAN_POINT('',(47.2427050983124,67.2,0.));
#640=CARTESIAN_POINT('',(47.2427050983124,67.2,0.));
#641=CARTESIAN_POINT('',(47.2427050983124,67.2,55.1));
#642=CARTESIAN_POINT('',(47.2427050983124,67.2,0.));
#643=CARTESIAN_POINT('',(46.2677050983124,65.05,0.));
#644=CARTESIAN_POINT('',(46.2677050983124,65.05,0.));
#645=CARTESIAN_POINT('',(46.2677050983124,65.05,55.1));
#646=CARTESIAN_POINT('',(46.2677050983124,65.05,0.));
#647=CARTESIAN_POINT('',(67.8322949016874,65.05,0.));
#648=CARTESIAN_POINT('',(67.8322949016874,65.05,0.));
#649=CARTESIAN_POINT('',(67.8322949016875,65.05,55.1));
#650=CARTESIAN_POINT('',(67.8322949016874,65.05,0.));
#651=CARTESIAN_POINT('',(66.7572949016874,67.2,0.));
#652=CARTESIAN_POINT('',(66.7572949016874,67.2,0.));
#653=CARTESIAN_POINT('',(66.7572949016874,67.2,55.1));
#654=CARTESIAN_POINT('',(66.7572949016874,67.2,0.));
#655=CARTESIAN_POINT('',(77.2427050983124,67.2,0.));
#656=CARTESIAN_POINT('',(77.2427050983124,67.2,0.));
#657=CARTESIAN_POINT('',(77.2427050983124,67.2,55.1));
#658=CARTESIAN_POINT('',(77.2427050983124,67.2,0.));
#659=CARTESIAN_POINT('',(76.1677050983124,65.05,0.));
#660=CARTESIAN_POINT('',(-83.2427050983125,67.2,55.1));
#661=CARTESIAN_POINT('',(-82.2177050983125,65.05,55.1));
#662=CARTESIAN_POINT('',(-72.7572949016875,67.2,55.1));
#663=CARTESIAN_POINT('',(-83.2427050983125,67.2,55.1));
#664=CARTESIAN_POINT('',(-73.7822949016875,65.05,55.1));
#665=CARTESIAN_POINT('',(-72.7572949016875,67.2,55.1));
#666=CARTESIAN_POINT('',(-53.2427050983125,67.2,55.1));
#667=CARTESIAN_POINT('',(-52.1677050983124,65.05,55.1));
#668=CARTESIAN_POINT('',(-42.7572949016875,67.2,55.1));
#669=CARTESIAN_POINT('',(-53.2427050983125,67.2,55.1));
#670=CARTESIAN_POINT('',(-43.8322949016875,65.05,55.1));
#671=CARTESIAN_POINT('',(-42.7572949016875,67.2,55.1));
#672=CARTESIAN_POINT('',(36.7572949016875,67.2,55.1));
#673=CARTESIAN_POINT('',(37.7322949016875,65.05,55.1));
#674=CARTESIAN_POINT('',(47.2427050983124,67.2,55.1));
#675=CARTESIAN_POINT('',(36.7572949016875,67.2,55.1));
#676=CARTESIAN_POINT('',(46.2677050983124,65.05,55.1));
#677=CARTESIAN_POINT('',(47.2427050983124,67.2,55.1));
#678=CARTESIAN_POINT('',(66.7572949016874,67.2,55.1));
#679=CARTESIAN_POINT('',(67.8322949016875,65.05,55.1));
#680=CARTESIAN_POINT('',(77.2427050983124,67.2,55.1));
#681=CARTESIAN_POINT('',(66.7572949016874,67.2,55.1));
#682=CARTESIAN_POINT('',(76.1677050983122,65.05,55.1));
#683=CARTESIAN_POINT('',(77.2427050983124,67.2,55.1));
#684=CARTESIAN_POINT('',(67.8322949016875,65.05,55.1));
#685=CARTESIAN_POINT('',(76.1677050983122,65.05,55.1));
#686=CARTESIAN_POINT('',(37.7322949016875,65.05,55.1));
#687=CARTESIAN_POINT('',(46.2677050983124,65.05,55.1));
#688=CARTESIAN_POINT('',(-52.1677050983124,65.05,55.1));
#689=CARTESIAN_POINT('',(-43.8322949016875,65.05,55.1));
#690=CARTESIAN_POINT('',(-82.2177050983125,65.05,55.1));
#691=CARTESIAN_POINT('',(-73.7822949016875,65.05,55.1));
#692=CARTESIAN_POINT('',(-98.,65.05,60.));
#693=CARTESIAN_POINT('',(-82.2177050983125,65.05,60.));
#694=CARTESIAN_POINT('',(-73.7822949016875,65.05,60.));
#695=CARTESIAN_POINT('',(-52.1677050983127,65.05,60.));
#696=CARTESIAN_POINT('',(-43.8322949016875,65.05,60.));
#697=CARTESIAN_POINT('',(37.7322949016875,65.05,60.));
#698=CARTESIAN_POINT('',(46.2677050983124,65.05,60.));
#699=CARTESIAN_POINT('',(67.8322949016875,65.05,60.));
#700=CARTESIAN_POINT('',(76.1677050983122,65.05,60.));
#701=CARTESIAN_POINT('',(91.9999999999999,65.05,60.));
#702=CARTESIAN_POINT('',(91.9999999999999,70.05,0.));
#703=CARTESIAN_POINT('',(91.9999999999999,70.05,55.1));
#704=CARTESIAN_POINT('',(91.9999999999999,70.05,60.));
#705=CARTESIAN_POINT('',(-98.,70.05,0.));
#706=CARTESIAN_POINT('',(-98.,70.05,55.1));
#707=CARTESIAN_POINT('',(-98.,70.05,60.));
#708=CARTESIAN_POINT('',(-98.,65.05,0.));
#709=CARTESIAN_POINT('',(-98.,65.05,60.));
#710=CARTESIAN_POINT('',(91.9999999999999,65.05,0.));
#711=CARTESIAN_POINT('',(91.9999999999999,65.05,60.));
#712=CARTESIAN_POINT('',(0.,0.,0.));
ENDSEC;
END-ISO-10303-21;
