ISO-10303-21;
HEADER;
/* Generated by software containing ST-Developer
 * from STEP Tools, Inc. (www.steptools.com) 
 */
/* OPTION: using custom schema-name function */

FILE_DESCRIPTION(
/* description */ (''),
/* implementation_level */ '2;1');

FILE_NAME(
/* name */ 'table_blue_bot_4',
/* time_stamp */ '2026-09-04T19:57:39+03:00',
/* author */ (''),
/* organization */ (''),
/* preprocessor_version */ 'ST-DEVELOPER v19.2',
/* originating_system */ 'Rhino 8.34',
/* authorisation */ '');

FILE_SCHEMA (('CONFIG_CONTROL_DESIGN'));
ENDSEC;

DATA;
#10=SHAPE_REPRESENTATION_RELATIONSHIP('','',#848,#14);
#11=MANIFOLD_SOLID_BREP('brep_1',#15);
#12=MANIFOLD_SOLID_BREP('brep_2',#16);
#13=MANIFOLD_SOLID_BREP('brep_3',#17);
#14=ADVANCED_BREP_SHAPE_REPRESENTATION('brep_rep_0',(#11,#12,#13,#918),
#847);
#15=CLOSED_SHELL('',(#21,#22,#23,#24,#25,#26,#27,#28,#29,#30,#31,#32,#33));
#16=CLOSED_SHELL('',(#34,#35,#36,#37,#38,#39,#40,#41,#42,#43,#44,#45,#46,
#47,#48,#49,#50,#51,#52,#53,#54,#55));
#17=CLOSED_SHELL('',(#56,#57,#58,#59,#60,#61,#62,#63,#64,#65,#66,#67,#68));
#18=FACE_BOUND('',#126,.T.);
#19=FACE_BOUND('',#137,.T.);
#20=FACE_BOUND('',#163,.T.);
#21=ADVANCED_FACE('',(#69),#752,.T.);
#22=ADVANCED_FACE('',(#70),#714,.T.);
#23=ADVANCED_FACE('',(#71),#753,.T.);
#24=ADVANCED_FACE('',(#72),#715,.T.);
#25=ADVANCED_FACE('',(#73),#716,.T.);
#26=ADVANCED_FACE('',(#74),#754,.T.);
#27=ADVANCED_FACE('',(#75),#717,.T.);
#28=ADVANCED_FACE('',(#76),#718,.T.);
#29=ADVANCED_FACE('',(#77,#18),#719,.T.);
#30=ADVANCED_FACE('',(#78),#720,.T.);
#31=ADVANCED_FACE('',(#79),#721,.T.);
#32=ADVANCED_FACE('',(#80),#755,.F.);
#33=ADVANCED_FACE('',(#81),#756,.F.);
#34=ADVANCED_FACE('',(#82),#722,.T.);
#35=ADVANCED_FACE('',(#83),#723,.T.);
#36=ADVANCED_FACE('',(#84),#724,.T.);
#37=ADVANCED_FACE('',(#85),#725,.T.);
#38=ADVANCED_FACE('',(#86),#726,.T.);
#39=ADVANCED_FACE('',(#87,#19),#727,.T.);
#40=ADVANCED_FACE('',(#88),#728,.T.);
#41=ADVANCED_FACE('',(#89),#729,.T.);
#42=ADVANCED_FACE('',(#90),#730,.T.);
#43=ADVANCED_FACE('',(#91),#731,.T.);
#44=ADVANCED_FACE('',(#92),#732,.T.);
#45=ADVANCED_FACE('',(#93),#733,.T.);
#46=ADVANCED_FACE('',(#94),#734,.T.);
#47=ADVANCED_FACE('',(#95),#735,.T.);
#48=ADVANCED_FACE('',(#96),#736,.T.);
#49=ADVANCED_FACE('',(#97),#737,.T.);
#50=ADVANCED_FACE('',(#98),#738,.T.);
#51=ADVANCED_FACE('',(#99),#739,.T.);
#52=ADVANCED_FACE('',(#100),#740,.T.);
#53=ADVANCED_FACE('',(#101),#741,.T.);
#54=ADVANCED_FACE('',(#102),#742,.T.);
#55=ADVANCED_FACE('',(#103),#743,.T.);
#56=ADVANCED_FACE('',(#104),#757,.T.);
#57=ADVANCED_FACE('',(#105),#744,.T.);
#58=ADVANCED_FACE('',(#106),#758,.T.);
#59=ADVANCED_FACE('',(#107),#745,.T.);
#60=ADVANCED_FACE('',(#108),#746,.T.);
#61=ADVANCED_FACE('',(#109),#759,.T.);
#62=ADVANCED_FACE('',(#110),#747,.T.);
#63=ADVANCED_FACE('',(#111),#748,.T.);
#64=ADVANCED_FACE('',(#112,#20),#749,.T.);
#65=ADVANCED_FACE('',(#113),#750,.T.);
#66=ADVANCED_FACE('',(#114),#751,.T.);
#67=ADVANCED_FACE('',(#115),#760,.F.);
#68=ADVANCED_FACE('',(#116),#761,.F.);
#69=FACE_OUTER_BOUND('',#117,.T.);
#70=FACE_OUTER_BOUND('',#118,.T.);
#71=FACE_OUTER_BOUND('',#119,.T.);
#72=FACE_OUTER_BOUND('',#120,.T.);
#73=FACE_OUTER_BOUND('',#121,.T.);
#74=FACE_OUTER_BOUND('',#122,.T.);
#75=FACE_OUTER_BOUND('',#123,.T.);
#76=FACE_OUTER_BOUND('',#124,.T.);
#77=FACE_OUTER_BOUND('',#125,.T.);
#78=FACE_OUTER_BOUND('',#127,.T.);
#79=FACE_OUTER_BOUND('',#128,.T.);
#80=FACE_OUTER_BOUND('',#129,.T.);
#81=FACE_OUTER_BOUND('',#130,.T.);
#82=FACE_OUTER_BOUND('',#131,.T.);
#83=FACE_OUTER_BOUND('',#132,.T.);
#84=FACE_OUTER_BOUND('',#133,.T.);
#85=FACE_OUTER_BOUND('',#134,.T.);
#86=FACE_OUTER_BOUND('',#135,.T.);
#87=FACE_OUTER_BOUND('',#136,.T.);
#88=FACE_OUTER_BOUND('',#138,.T.);
#89=FACE_OUTER_BOUND('',#139,.T.);
#90=FACE_OUTER_BOUND('',#140,.T.);
#91=FACE_OUTER_BOUND('',#141,.T.);
#92=FACE_OUTER_BOUND('',#142,.T.);
#93=FACE_OUTER_BOUND('',#143,.T.);
#94=FACE_OUTER_BOUND('',#144,.T.);
#95=FACE_OUTER_BOUND('',#145,.T.);
#96=FACE_OUTER_BOUND('',#146,.T.);
#97=FACE_OUTER_BOUND('',#147,.T.);
#98=FACE_OUTER_BOUND('',#148,.T.);
#99=FACE_OUTER_BOUND('',#149,.T.);
#100=FACE_OUTER_BOUND('',#150,.T.);
#101=FACE_OUTER_BOUND('',#151,.T.);
#102=FACE_OUTER_BOUND('',#152,.T.);
#103=FACE_OUTER_BOUND('',#153,.T.);
#104=FACE_OUTER_BOUND('',#154,.T.);
#105=FACE_OUTER_BOUND('',#155,.T.);
#106=FACE_OUTER_BOUND('',#156,.T.);
#107=FACE_OUTER_BOUND('',#157,.T.);
#108=FACE_OUTER_BOUND('',#158,.T.);
#109=FACE_OUTER_BOUND('',#159,.T.);
#110=FACE_OUTER_BOUND('',#160,.T.);
#111=FACE_OUTER_BOUND('',#161,.T.);
#112=FACE_OUTER_BOUND('',#162,.T.);
#113=FACE_OUTER_BOUND('',#164,.T.);
#114=FACE_OUTER_BOUND('',#165,.T.);
#115=FACE_OUTER_BOUND('',#166,.T.);
#116=FACE_OUTER_BOUND('',#167,.T.);
#117=EDGE_LOOP('',(#168,#169,#170,#171));
#118=EDGE_LOOP('',(#172,#173,#174,#175));
#119=EDGE_LOOP('',(#176,#177,#178,#179));
#120=EDGE_LOOP('',(#180,#181,#182,#183));
#121=EDGE_LOOP('',(#184,#185,#186,#187));
#122=EDGE_LOOP('',(#188,#189,#190,#191));
#123=EDGE_LOOP('',(#192,#193,#194,#195));
#124=EDGE_LOOP('',(#196,#197,#198,#199));
#125=EDGE_LOOP('',(#200,#201,#202,#203,#204,#205,#206,#207));
#126=EDGE_LOOP('',(#208,#209));
#127=EDGE_LOOP('',(#210,#211,#212,#213,#214,#215,#216,#217));
#128=EDGE_LOOP('',(#218,#219));
#129=EDGE_LOOP('',(#220,#221,#222,#223));
#130=EDGE_LOOP('',(#224,#225,#226,#227));
#131=EDGE_LOOP('',(#228,#229,#230,#231,#232,#233,#234,#235,#236,#237,#238,
#239));
#132=EDGE_LOOP('',(#240,#241,#242,#243,#244));
#133=EDGE_LOOP('',(#245,#246,#247,#248));
#134=EDGE_LOOP('',(#249,#250,#251,#252));
#135=EDGE_LOOP('',(#253,#254,#255,#256));
#136=EDGE_LOOP('',(#257,#258,#259,#260,#261,#262));
#137=EDGE_LOOP('',(#263,#264,#265,#266));
#138=EDGE_LOOP('',(#267,#268,#269,#270));
#139=EDGE_LOOP('',(#271,#272,#273,#274));
#140=EDGE_LOOP('',(#275,#276,#277,#278));
#141=EDGE_LOOP('',(#279,#280,#281,#282));
#142=EDGE_LOOP('',(#283,#284,#285,#286));
#143=EDGE_LOOP('',(#287,#288,#289,#290,#291));
#144=EDGE_LOOP('',(#292,#293,#294,#295));
#145=EDGE_LOOP('',(#296,#297,#298,#299));
#146=EDGE_LOOP('',(#300,#301,#302,#303));
#147=EDGE_LOOP('',(#304,#305,#306,#307));
#148=EDGE_LOOP('',(#308,#309,#310,#311));
#149=EDGE_LOOP('',(#312,#313,#314,#315));
#150=EDGE_LOOP('',(#316,#317,#318,#319));
#151=EDGE_LOOP('',(#320,#321,#322,#323));
#152=EDGE_LOOP('',(#324,#325,#326,#327,#328,#329));
#153=EDGE_LOOP('',(#330,#331,#332,#333));
#154=EDGE_LOOP('',(#334,#335,#336,#337));
#155=EDGE_LOOP('',(#338,#339,#340,#341));
#156=EDGE_LOOP('',(#342,#343,#344,#345));
#157=EDGE_LOOP('',(#346,#347,#348,#349));
#158=EDGE_LOOP('',(#350,#351,#352,#353));
#159=EDGE_LOOP('',(#354,#355,#356,#357));
#160=EDGE_LOOP('',(#358,#359,#360,#361));
#161=EDGE_LOOP('',(#362,#363,#364,#365));
#162=EDGE_LOOP('',(#366,#367,#368,#369,#370,#371,#372,#373));
#163=EDGE_LOOP('',(#374,#375));
#164=EDGE_LOOP('',(#376,#377,#378,#379,#380,#381,#382,#383));
#165=EDGE_LOOP('',(#384,#385));
#166=EDGE_LOOP('',(#386,#387,#388,#389));
#167=EDGE_LOOP('',(#390,#391,#392,#393));
#168=ORIENTED_EDGE('',*,*,#396,.T.);
#169=ORIENTED_EDGE('',*,*,#399,.T.);
#170=ORIENTED_EDGE('',*,*,#398,.F.);
#171=ORIENTED_EDGE('',*,*,#397,.F.);
#172=ORIENTED_EDGE('',*,*,#398,.T.);
#173=ORIENTED_EDGE('',*,*,#402,.T.);
#174=ORIENTED_EDGE('',*,*,#401,.F.);
#175=ORIENTED_EDGE('',*,*,#400,.F.);
#176=ORIENTED_EDGE('',*,*,#401,.T.);
#177=ORIENTED_EDGE('',*,*,#405,.T.);
#178=ORIENTED_EDGE('',*,*,#404,.F.);
#179=ORIENTED_EDGE('',*,*,#403,.F.);
#180=ORIENTED_EDGE('',*,*,#404,.T.);
#181=ORIENTED_EDGE('',*,*,#407,.T.);
#182=ORIENTED_EDGE('',*,*,#394,.F.);
#183=ORIENTED_EDGE('',*,*,#406,.F.);
#184=ORIENTED_EDGE('',*,*,#413,.T.);
#185=ORIENTED_EDGE('',*,*,#410,.F.);
#186=ORIENTED_EDGE('',*,*,#412,.F.);
#187=ORIENTED_EDGE('',*,*,#395,.F.);
#188=ORIENTED_EDGE('',*,*,#411,.F.);
#189=ORIENTED_EDGE('',*,*,#414,.F.);
#190=ORIENTED_EDGE('',*,*,#394,.T.);
#191=ORIENTED_EDGE('',*,*,#415,.T.);
#192=ORIENTED_EDGE('',*,*,#396,.F.);
#193=ORIENTED_EDGE('',*,*,#416,.T.);
#194=ORIENTED_EDGE('',*,*,#395,.T.);
#195=ORIENTED_EDGE('',*,*,#417,.F.);
#196=ORIENTED_EDGE('',*,*,#411,.T.);
#197=ORIENTED_EDGE('',*,*,#408,.F.);
#198=ORIENTED_EDGE('',*,*,#410,.T.);
#199=ORIENTED_EDGE('',*,*,#409,.T.);
#200=ORIENTED_EDGE('',*,*,#416,.F.);
#201=ORIENTED_EDGE('',*,*,#397,.T.);
#202=ORIENTED_EDGE('',*,*,#400,.T.);
#203=ORIENTED_EDGE('',*,*,#403,.T.);
#204=ORIENTED_EDGE('',*,*,#406,.T.);
#205=ORIENTED_EDGE('',*,*,#414,.T.);
#206=ORIENTED_EDGE('',*,*,#409,.F.);
#207=ORIENTED_EDGE('',*,*,#413,.F.);
#208=ORIENTED_EDGE('',*,*,#420,.T.);
#209=ORIENTED_EDGE('',*,*,#423,.T.);
#210=ORIENTED_EDGE('',*,*,#412,.T.);
#211=ORIENTED_EDGE('',*,*,#408,.T.);
#212=ORIENTED_EDGE('',*,*,#415,.F.);
#213=ORIENTED_EDGE('',*,*,#407,.F.);
#214=ORIENTED_EDGE('',*,*,#405,.F.);
#215=ORIENTED_EDGE('',*,*,#402,.F.);
#216=ORIENTED_EDGE('',*,*,#399,.F.);
#217=ORIENTED_EDGE('',*,*,#417,.T.);
#218=ORIENTED_EDGE('',*,*,#422,.F.);
#219=ORIENTED_EDGE('',*,*,#418,.F.);
#220=ORIENTED_EDGE('',*,*,#421,.T.);
#221=ORIENTED_EDGE('',*,*,#420,.F.);
#222=ORIENTED_EDGE('',*,*,#419,.F.);
#223=ORIENTED_EDGE('',*,*,#418,.T.);
#224=ORIENTED_EDGE('',*,*,#422,.T.);
#225=ORIENTED_EDGE('',*,*,#419,.T.);
#226=ORIENTED_EDGE('',*,*,#423,.F.);
#227=ORIENTED_EDGE('',*,*,#421,.F.);
#228=ORIENTED_EDGE('',*,*,#435,.F.);
#229=ORIENTED_EDGE('',*,*,#434,.F.);
#230=ORIENTED_EDGE('',*,*,#433,.F.);
#231=ORIENTED_EDGE('',*,*,#432,.F.);
#232=ORIENTED_EDGE('',*,*,#431,.F.);
#233=ORIENTED_EDGE('',*,*,#430,.F.);
#234=ORIENTED_EDGE('',*,*,#429,.F.);
#235=ORIENTED_EDGE('',*,*,#428,.F.);
#236=ORIENTED_EDGE('',*,*,#427,.F.);
#237=ORIENTED_EDGE('',*,*,#426,.F.);
#238=ORIENTED_EDGE('',*,*,#425,.F.);
#239=ORIENTED_EDGE('',*,*,#424,.F.);
#240=ORIENTED_EDGE('',*,*,#436,.F.);
#241=ORIENTED_EDGE('',*,*,#470,.F.);
#242=ORIENTED_EDGE('',*,*,#456,.F.);
#243=ORIENTED_EDGE('',*,*,#427,.T.);
#244=ORIENTED_EDGE('',*,*,#475,.T.);
#245=ORIENTED_EDGE('',*,*,#437,.F.);
#246=ORIENTED_EDGE('',*,*,#475,.F.);
#247=ORIENTED_EDGE('',*,*,#428,.T.);
#248=ORIENTED_EDGE('',*,*,#457,.T.);
#249=ORIENTED_EDGE('',*,*,#438,.F.);
#250=ORIENTED_EDGE('',*,*,#457,.F.);
#251=ORIENTED_EDGE('',*,*,#429,.T.);
#252=ORIENTED_EDGE('',*,*,#458,.T.);
#253=ORIENTED_EDGE('',*,*,#463,.T.);
#254=ORIENTED_EDGE('',*,*,#460,.F.);
#255=ORIENTED_EDGE('',*,*,#433,.T.);
#256=ORIENTED_EDGE('',*,*,#461,.T.);
#257=ORIENTED_EDGE('',*,*,#474,.T.);
#258=ORIENTED_EDGE('',*,*,#436,.T.);
#259=ORIENTED_EDGE('',*,*,#437,.T.);
#260=ORIENTED_EDGE('',*,*,#438,.T.);
#261=ORIENTED_EDGE('',*,*,#439,.T.);
#262=ORIENTED_EDGE('',*,*,#440,.T.);
#263=ORIENTED_EDGE('',*,*,#443,.F.);
#264=ORIENTED_EDGE('',*,*,#442,.F.);
#265=ORIENTED_EDGE('',*,*,#441,.F.);
#266=ORIENTED_EDGE('',*,*,#444,.F.);
#267=ORIENTED_EDGE('',*,*,#445,.F.);
#268=ORIENTED_EDGE('',*,*,#446,.F.);
#269=ORIENTED_EDGE('',*,*,#447,.F.);
#270=ORIENTED_EDGE('',*,*,#448,.F.);
#271=ORIENTED_EDGE('',*,*,#465,.T.);
#272=ORIENTED_EDGE('',*,*,#454,.F.);
#273=ORIENTED_EDGE('',*,*,#424,.T.);
#274=ORIENTED_EDGE('',*,*,#453,.T.);
#275=ORIENTED_EDGE('',*,*,#466,.T.);
#276=ORIENTED_EDGE('',*,*,#453,.F.);
#277=ORIENTED_EDGE('',*,*,#425,.T.);
#278=ORIENTED_EDGE('',*,*,#455,.T.);
#279=ORIENTED_EDGE('',*,*,#467,.T.);
#280=ORIENTED_EDGE('',*,*,#455,.F.);
#281=ORIENTED_EDGE('',*,*,#426,.T.);
#282=ORIENTED_EDGE('',*,*,#456,.T.);
#283=ORIENTED_EDGE('',*,*,#458,.F.);
#284=ORIENTED_EDGE('',*,*,#430,.T.);
#285=ORIENTED_EDGE('',*,*,#476,.T.);
#286=ORIENTED_EDGE('',*,*,#439,.F.);
#287=ORIENTED_EDGE('',*,*,#471,.T.);
#288=ORIENTED_EDGE('',*,*,#440,.F.);
#289=ORIENTED_EDGE('',*,*,#476,.F.);
#290=ORIENTED_EDGE('',*,*,#431,.T.);
#291=ORIENTED_EDGE('',*,*,#459,.T.);
#292=ORIENTED_EDGE('',*,*,#468,.T.);
#293=ORIENTED_EDGE('',*,*,#459,.F.);
#294=ORIENTED_EDGE('',*,*,#432,.T.);
#295=ORIENTED_EDGE('',*,*,#460,.T.);
#296=ORIENTED_EDGE('',*,*,#469,.T.);
#297=ORIENTED_EDGE('',*,*,#461,.F.);
#298=ORIENTED_EDGE('',*,*,#434,.T.);
#299=ORIENTED_EDGE('',*,*,#462,.T.);
#300=ORIENTED_EDGE('',*,*,#445,.T.);
#301=ORIENTED_EDGE('',*,*,#450,.T.);
#302=ORIENTED_EDGE('',*,*,#441,.T.);
#303=ORIENTED_EDGE('',*,*,#449,.F.);
#304=ORIENTED_EDGE('',*,*,#446,.T.);
#305=ORIENTED_EDGE('',*,*,#449,.T.);
#306=ORIENTED_EDGE('',*,*,#442,.T.);
#307=ORIENTED_EDGE('',*,*,#451,.F.);
#308=ORIENTED_EDGE('',*,*,#447,.T.);
#309=ORIENTED_EDGE('',*,*,#451,.T.);
#310=ORIENTED_EDGE('',*,*,#443,.T.);
#311=ORIENTED_EDGE('',*,*,#452,.F.);
#312=ORIENTED_EDGE('',*,*,#448,.T.);
#313=ORIENTED_EDGE('',*,*,#452,.T.);
#314=ORIENTED_EDGE('',*,*,#444,.T.);
#315=ORIENTED_EDGE('',*,*,#450,.F.);
#316=ORIENTED_EDGE('',*,*,#466,.F.);
#317=ORIENTED_EDGE('',*,*,#467,.F.);
#318=ORIENTED_EDGE('',*,*,#472,.F.);
#319=ORIENTED_EDGE('',*,*,#465,.F.);
#320=ORIENTED_EDGE('',*,*,#462,.F.);
#321=ORIENTED_EDGE('',*,*,#435,.T.);
#322=ORIENTED_EDGE('',*,*,#454,.T.);
#323=ORIENTED_EDGE('',*,*,#464,.F.);
#324=ORIENTED_EDGE('',*,*,#471,.F.);
#325=ORIENTED_EDGE('',*,*,#473,.T.);
#326=ORIENTED_EDGE('',*,*,#464,.T.);
#327=ORIENTED_EDGE('',*,*,#472,.T.);
#328=ORIENTED_EDGE('',*,*,#470,.T.);
#329=ORIENTED_EDGE('',*,*,#474,.F.);
#330=ORIENTED_EDGE('',*,*,#473,.F.);
#331=ORIENTED_EDGE('',*,*,#468,.F.);
#332=ORIENTED_EDGE('',*,*,#463,.F.);
#333=ORIENTED_EDGE('',*,*,#469,.F.);
#334=ORIENTED_EDGE('',*,*,#479,.T.);
#335=ORIENTED_EDGE('',*,*,#482,.T.);
#336=ORIENTED_EDGE('',*,*,#481,.F.);
#337=ORIENTED_EDGE('',*,*,#480,.F.);
#338=ORIENTED_EDGE('',*,*,#481,.T.);
#339=ORIENTED_EDGE('',*,*,#485,.T.);
#340=ORIENTED_EDGE('',*,*,#484,.F.);
#341=ORIENTED_EDGE('',*,*,#483,.F.);
#342=ORIENTED_EDGE('',*,*,#484,.T.);
#343=ORIENTED_EDGE('',*,*,#488,.T.);
#344=ORIENTED_EDGE('',*,*,#487,.F.);
#345=ORIENTED_EDGE('',*,*,#486,.F.);
#346=ORIENTED_EDGE('',*,*,#487,.T.);
#347=ORIENTED_EDGE('',*,*,#490,.T.);
#348=ORIENTED_EDGE('',*,*,#477,.F.);
#349=ORIENTED_EDGE('',*,*,#489,.F.);
#350=ORIENTED_EDGE('',*,*,#496,.T.);
#351=ORIENTED_EDGE('',*,*,#493,.F.);
#352=ORIENTED_EDGE('',*,*,#495,.F.);
#353=ORIENTED_EDGE('',*,*,#478,.F.);
#354=ORIENTED_EDGE('',*,*,#494,.F.);
#355=ORIENTED_EDGE('',*,*,#497,.F.);
#356=ORIENTED_EDGE('',*,*,#477,.T.);
#357=ORIENTED_EDGE('',*,*,#498,.T.);
#358=ORIENTED_EDGE('',*,*,#479,.F.);
#359=ORIENTED_EDGE('',*,*,#499,.T.);
#360=ORIENTED_EDGE('',*,*,#478,.T.);
#361=ORIENTED_EDGE('',*,*,#500,.F.);
#362=ORIENTED_EDGE('',*,*,#494,.T.);
#363=ORIENTED_EDGE('',*,*,#491,.F.);
#364=ORIENTED_EDGE('',*,*,#493,.T.);
#365=ORIENTED_EDGE('',*,*,#492,.T.);
#366=ORIENTED_EDGE('',*,*,#499,.F.);
#367=ORIENTED_EDGE('',*,*,#480,.T.);
#368=ORIENTED_EDGE('',*,*,#483,.T.);
#369=ORIENTED_EDGE('',*,*,#486,.T.);
#370=ORIENTED_EDGE('',*,*,#489,.T.);
#371=ORIENTED_EDGE('',*,*,#497,.T.);
#372=ORIENTED_EDGE('',*,*,#492,.F.);
#373=ORIENTED_EDGE('',*,*,#496,.F.);
#374=ORIENTED_EDGE('',*,*,#503,.T.);
#375=ORIENTED_EDGE('',*,*,#506,.T.);
#376=ORIENTED_EDGE('',*,*,#495,.T.);
#377=ORIENTED_EDGE('',*,*,#491,.T.);
#378=ORIENTED_EDGE('',*,*,#498,.F.);
#379=ORIENTED_EDGE('',*,*,#490,.F.);
#380=ORIENTED_EDGE('',*,*,#488,.F.);
#381=ORIENTED_EDGE('',*,*,#485,.F.);
#382=ORIENTED_EDGE('',*,*,#482,.F.);
#383=ORIENTED_EDGE('',*,*,#500,.T.);
#384=ORIENTED_EDGE('',*,*,#505,.F.);
#385=ORIENTED_EDGE('',*,*,#501,.F.);
#386=ORIENTED_EDGE('',*,*,#504,.T.);
#387=ORIENTED_EDGE('',*,*,#503,.F.);
#388=ORIENTED_EDGE('',*,*,#502,.F.);
#389=ORIENTED_EDGE('',*,*,#501,.T.);
#390=ORIENTED_EDGE('',*,*,#505,.T.);
#391=ORIENTED_EDGE('',*,*,#502,.T.);
#392=ORIENTED_EDGE('',*,*,#506,.F.);
#393=ORIENTED_EDGE('',*,*,#504,.F.);
#394=EDGE_CURVE('',#640,#641,#630,.T.);
#395=EDGE_CURVE('',#642,#643,#547,.T.);
#396=EDGE_CURVE('',#644,#645,#548,.T.);
#397=EDGE_CURVE('',#644,#646,#507,.T.);
#398=EDGE_CURVE('',#646,#647,#631,.T.);
#399=EDGE_CURVE('',#645,#647,#508,.T.);
#400=EDGE_CURVE('',#646,#648,#549,.T.);
#401=EDGE_CURVE('',#648,#649,#550,.T.);
#402=EDGE_CURVE('',#647,#649,#551,.T.);
#403=EDGE_CURVE('',#648,#650,#509,.T.);
#404=EDGE_CURVE('',#650,#651,#632,.T.);
#405=EDGE_CURVE('',#649,#651,#510,.T.);
#406=EDGE_CURVE('',#650,#640,#552,.T.);
#407=EDGE_CURVE('',#651,#641,#553,.T.);
#408=EDGE_CURVE('',#652,#655,#554,.T.);
#409=EDGE_CURVE('',#653,#654,#555,.T.);
#410=EDGE_CURVE('',#652,#653,#556,.T.);
#411=EDGE_CURVE('',#654,#655,#557,.T.);
#412=EDGE_CURVE('',#643,#652,#558,.T.);
#413=EDGE_CURVE('',#642,#653,#559,.T.);
#414=EDGE_CURVE('',#640,#654,#511,.T.);
#415=EDGE_CURVE('',#641,#655,#512,.T.);
#416=EDGE_CURVE('',#644,#642,#560,.T.);
#417=EDGE_CURVE('',#645,#643,#561,.T.);
#418=EDGE_CURVE('',#656,#658,#513,.T.);
#419=EDGE_CURVE('',#656,#657,#633,.T.);
#420=EDGE_CURVE('',#657,#659,#514,.T.);
#421=EDGE_CURVE('',#658,#659,#634,.T.);
#422=EDGE_CURVE('',#658,#656,#515,.T.);
#423=EDGE_CURVE('',#659,#657,#516,.T.);
#424=EDGE_CURVE('',#660,#661,#562,.T.);
#425=EDGE_CURVE('',#661,#662,#563,.T.);
#426=EDGE_CURVE('',#662,#663,#564,.T.);
#427=EDGE_CURVE('',#663,#664,#565,.T.);
#428=EDGE_CURVE('',#664,#665,#566,.T.);
#429=EDGE_CURVE('',#665,#666,#567,.T.);
#430=EDGE_CURVE('',#666,#667,#568,.T.);
#431=EDGE_CURVE('',#667,#668,#569,.T.);
#432=EDGE_CURVE('',#668,#669,#570,.T.);
#433=EDGE_CURVE('',#669,#670,#571,.T.);
#434=EDGE_CURVE('',#670,#671,#572,.T.);
#435=EDGE_CURVE('',#671,#660,#573,.T.);
#436=EDGE_CURVE('',#672,#673,#574,.T.);
#437=EDGE_CURVE('',#673,#674,#575,.T.);
#438=EDGE_CURVE('',#674,#675,#576,.T.);
#439=EDGE_CURVE('',#675,#676,#577,.T.);
#440=EDGE_CURVE('',#676,#677,#578,.T.);
#441=EDGE_CURVE('',#678,#679,#579,.T.);
#442=EDGE_CURVE('',#679,#680,#580,.T.);
#443=EDGE_CURVE('',#680,#681,#581,.T.);
#444=EDGE_CURVE('',#681,#678,#582,.T.);
#445=EDGE_CURVE('',#682,#683,#583,.T.);
#446=EDGE_CURVE('',#684,#682,#584,.T.);
#447=EDGE_CURVE('',#685,#684,#585,.T.);
#448=EDGE_CURVE('',#683,#685,#586,.T.);
#449=EDGE_CURVE('',#682,#679,#587,.T.);
#450=EDGE_CURVE('',#683,#678,#588,.T.);
#451=EDGE_CURVE('',#684,#680,#589,.T.);
#452=EDGE_CURVE('',#685,#681,#590,.T.);
#453=EDGE_CURVE('',#661,#691,#591,.T.);
#454=EDGE_CURVE('',#660,#689,#592,.T.);
#455=EDGE_CURVE('',#662,#692,#593,.T.);
#456=EDGE_CURVE('',#663,#686,#594,.T.);
#457=EDGE_CURVE('',#665,#674,#595,.T.);
#458=EDGE_CURVE('',#666,#675,#596,.T.);
#459=EDGE_CURVE('',#668,#693,#597,.T.);
#460=EDGE_CURVE('',#669,#688,#598,.T.);
#461=EDGE_CURVE('',#670,#687,#599,.T.);
#462=EDGE_CURVE('',#671,#690,#600,.T.);
#463=EDGE_CURVE('',#687,#688,#601,.T.);
#464=EDGE_CURVE('',#690,#689,#602,.T.);
#465=EDGE_CURVE('',#691,#689,#603,.T.);
#466=EDGE_CURVE('',#692,#691,#604,.T.);
#467=EDGE_CURVE('',#686,#692,#605,.T.);
#468=EDGE_CURVE('',#688,#693,#606,.T.);
#469=EDGE_CURVE('',#690,#687,#607,.T.);
#470=EDGE_CURVE('',#686,#672,#608,.T.);
#471=EDGE_CURVE('',#693,#677,#609,.T.);
#472=EDGE_CURVE('',#689,#686,#610,.T.);
#473=EDGE_CURVE('',#693,#690,#611,.T.);
#474=EDGE_CURVE('',#677,#672,#612,.T.);
#475=EDGE_CURVE('',#664,#673,#613,.T.);
#476=EDGE_CURVE('',#667,#676,#614,.T.);
#477=EDGE_CURVE('',#694,#695,#635,.T.);
#478=EDGE_CURVE('',#696,#697,#615,.T.);
#479=EDGE_CURVE('',#698,#699,#616,.T.);
#480=EDGE_CURVE('',#698,#700,#517,.T.);
#481=EDGE_CURVE('',#700,#701,#636,.T.);
#482=EDGE_CURVE('',#699,#701,#518,.T.);
#483=EDGE_CURVE('',#700,#702,#617,.T.);
#484=EDGE_CURVE('',#702,#703,#618,.T.);
#485=EDGE_CURVE('',#701,#703,#619,.T.);
#486=EDGE_CURVE('',#702,#704,#519,.T.);
#487=EDGE_CURVE('',#704,#705,#637,.T.);
#488=EDGE_CURVE('',#703,#705,#520,.T.);
#489=EDGE_CURVE('',#704,#694,#620,.T.);
#490=EDGE_CURVE('',#705,#695,#621,.T.);
#491=EDGE_CURVE('',#706,#709,#622,.T.);
#492=EDGE_CURVE('',#707,#708,#623,.T.);
#493=EDGE_CURVE('',#706,#707,#624,.T.);
#494=EDGE_CURVE('',#708,#709,#625,.T.);
#495=EDGE_CURVE('',#697,#706,#626,.T.);
#496=EDGE_CURVE('',#696,#707,#627,.T.);
#497=EDGE_CURVE('',#694,#708,#521,.T.);
#498=EDGE_CURVE('',#695,#709,#522,.T.);
#499=EDGE_CURVE('',#698,#696,#628,.T.);
#500=EDGE_CURVE('',#699,#697,#629,.T.);
#501=EDGE_CURVE('',#710,#712,#523,.T.);
#502=EDGE_CURVE('',#710,#711,#638,.T.);
#503=EDGE_CURVE('',#711,#713,#524,.T.);
#504=EDGE_CURVE('',#712,#713,#639,.T.);
#505=EDGE_CURVE('',#712,#710,#525,.T.);
#506=EDGE_CURVE('',#713,#711,#526,.T.);
#507=TRIMMED_CURVE($,#527,(#1052),(#1053),.T.,.CARTESIAN.);
#508=TRIMMED_CURVE($,#528,(#1057),(#1058),.T.,.CARTESIAN.);
#509=TRIMMED_CURVE($,#529,(#1066),(#1067),.T.,.CARTESIAN.);
#510=TRIMMED_CURVE($,#530,(#1071),(#1072),.T.,.CARTESIAN.);
#511=TRIMMED_CURVE($,#531,(#1092),(#1093),.T.,.CARTESIAN.);
#512=TRIMMED_CURVE($,#532,(#1095),(#1096),.T.,.CARTESIAN.);
#513=TRIMMED_CURVE($,#533,(#1104),(#1105),.T.,.CARTESIAN.);
#514=TRIMMED_CURVE($,#534,(#1109),(#1110),.T.,.CARTESIAN.);
#515=TRIMMED_CURVE($,#535,(#1114),(#1115),.T.,.CARTESIAN.);
#516=TRIMMED_CURVE($,#536,(#1117),(#1118),.T.,.CARTESIAN.);
#517=TRIMMED_CURVE($,#537,(#1337),(#1338),.T.,.CARTESIAN.);
#518=TRIMMED_CURVE($,#538,(#1342),(#1343),.T.,.CARTESIAN.);
#519=TRIMMED_CURVE($,#539,(#1351),(#1352),.T.,.CARTESIAN.);
#520=TRIMMED_CURVE($,#540,(#1356),(#1357),.T.,.CARTESIAN.);
#521=TRIMMED_CURVE($,#541,(#1377),(#1378),.T.,.CARTESIAN.);
#522=TRIMMED_CURVE($,#542,(#1380),(#1381),.T.,.CARTESIAN.);
#523=TRIMMED_CURVE($,#543,(#1389),(#1390),.T.,.CARTESIAN.);
#524=TRIMMED_CURVE($,#544,(#1394),(#1395),.T.,.CARTESIAN.);
#525=TRIMMED_CURVE($,#545,(#1399),(#1400),.T.,.CARTESIAN.);
#526=TRIMMED_CURVE($,#546,(#1402),(#1403),.T.,.CARTESIAN.);
#527=CIRCLE('',#863,2.50077720800888);
#528=CIRCLE('',#864,2.50077720800884);
#529=CIRCLE('',#865,2.50077763548888);
#530=CIRCLE('',#866,2.50077763548887);
#531=CIRCLE('',#867,2.50077763552823);
#532=CIRCLE('',#868,2.50077763552815);
#533=CIRCLE('',#869,1.09999999999999);
#534=CIRCLE('',#870,1.09999999999998);
#535=CIRCLE('',#871,1.10000000000001);
#536=CIRCLE('',#872,1.10000000000001);
#537=CIRCLE('',#908,2.50077720800884);
#538=CIRCLE('',#909,2.50077720800884);
#539=CIRCLE('',#910,2.50077763548888);
#540=CIRCLE('',#911,2.50077763548887);
#541=CIRCLE('',#912,2.50077763552823);
#542=CIRCLE('',#913,2.50077763552815);
#543=CIRCLE('',#914,1.09999999999999);
#544=CIRCLE('',#915,1.09999999999998);
#545=CIRCLE('',#916,1.10000000000001);
#546=CIRCLE('',#917,1.10000000000001);
#547=B_SPLINE_CURVE_WITH_KNOTS('',1,(#1047,#1048),.UNSPECIFIED.,.F.,.F.,
(2,2),(0.,10.),.UNSPECIFIED.);
#548=B_SPLINE_CURVE_WITH_KNOTS('',1,(#1049,#1050),.UNSPECIFIED.,.F.,.F.,
(2,2),(0.,10.),.UNSPECIFIED.);
#549=B_SPLINE_CURVE_WITH_KNOTS('',1,(#1059,#1060),.UNSPECIFIED.,.F.,.F.,
(2,2),(20.6348878603926,20.7458675650831),.UNSPECIFIED.);
#550=B_SPLINE_CURVE_WITH_KNOTS('',1,(#1061,#1062),.UNSPECIFIED.,.F.,.F.,
(2,2),(0.,10.),.UNSPECIFIED.);
#551=B_SPLINE_CURVE_WITH_KNOTS('',1,(#1063,#1064),.UNSPECIFIED.,.F.,.F.,
(2,2),(20.6348878603926,20.7458675650831),.UNSPECIFIED.);
#552=B_SPLINE_CURVE_WITH_KNOTS('',1,(#1073,#1074),.UNSPECIFIED.,.F.,.F.,
(2,2),(24.5501531811884,24.6611328858789),.UNSPECIFIED.);
#553=B_SPLINE_CURVE_WITH_KNOTS('',1,(#1075,#1076),.UNSPECIFIED.,.F.,.F.,
(2,2),(24.5501531811884,24.6611328858789),.UNSPECIFIED.);
#554=B_SPLINE_CURVE_WITH_KNOTS('',1,(#1077,#1078),.UNSPECIFIED.,.F.,.F.,
(2,2),(0.,6.33710265585459),.UNSPECIFIED.);
#555=B_SPLINE_CURVE_WITH_KNOTS('',1,(#1079,#1080),.UNSPECIFIED.,.F.,.F.,
(2,2),(0.,6.33710265585459),.UNSPECIFIED.);
#556=B_SPLINE_CURVE_WITH_KNOTS('',1,(#1081,#1082),.UNSPECIFIED.,.F.,.F.,
(2,2),(0.,10.),.UNSPECIFIED.);
#557=B_SPLINE_CURVE_WITH_KNOTS('',1,(#1083,#1084),.UNSPECIFIED.,.F.,.F.,
(2,2),(-10.,0.),.UNSPECIFIED.);
#558=B_SPLINE_CURVE_WITH_KNOTS('',1,(#1085,#1086,#1087),.UNSPECIFIED.,.F.,
 .F.,(2,1,2),(12.0834283483676,14.5834283469858,16.0834283469858),
 .UNSPECIFIED.);
#559=B_SPLINE_CURVE_WITH_KNOTS('',1,(#1088,#1089,#1090),.UNSPECIFIED.,.F.,
 .F.,(2,1,2),(12.0834283483676,14.5834283469858,16.0834283469858),
 .UNSPECIFIED.);
#560=B_SPLINE_CURVE_WITH_KNOTS('',1,(#1097,#1098,#1099),.UNSPECIFIED.,.F.,
 .F.,(2,1,2),(-16.8306004609817,-15.2280424360384,-14.2751106015776),
 .UNSPECIFIED.);
#561=B_SPLINE_CURVE_WITH_KNOTS('',1,(#1100,#1101,#1102),.UNSPECIFIED.,.F.,
 .F.,(2,1,2),(-16.8306004609817,-15.2280424360384,-14.2751106015776),
 .UNSPECIFIED.);
#562=B_SPLINE_CURVE_WITH_KNOTS('',1,(#1175,#1176),.UNSPECIFIED.,.F.,.F.,
(2,2),(10.,12.),.UNSPECIFIED.);
#563=B_SPLINE_CURVE_WITH_KNOTS('',1,(#1177,#1178),.UNSPECIFIED.,.F.,.F.,
(2,2),(12.,22.),.UNSPECIFIED.);
#564=B_SPLINE_CURVE_WITH_KNOTS('',1,(#1179,#1180),.UNSPECIFIED.,.F.,.F.,
(2,2),(22.,24.),.UNSPECIFIED.);
#565=B_SPLINE_CURVE_WITH_KNOTS('',1,(#1181,#1182),.UNSPECIFIED.,.F.,.F.,
(2,2),(24.,35.),.UNSPECIFIED.);
#566=B_SPLINE_CURVE_WITH_KNOTS('',1,(#1183,#1184),.UNSPECIFIED.,.F.,.F.,
(2,2),(35.,96.),.UNSPECIFIED.);
#567=B_SPLINE_CURVE_WITH_KNOTS('',1,(#1185,#1186),.UNSPECIFIED.,.F.,.F.,
(2,2),(96.,156.),.UNSPECIFIED.);
#568=B_SPLINE_CURVE_WITH_KNOTS('',1,(#1187,#1188),.UNSPECIFIED.,.F.,.F.,
(2,2),(156.,217.),.UNSPECIFIED.);
#569=B_SPLINE_CURVE_WITH_KNOTS('',1,(#1189,#1190),.UNSPECIFIED.,.F.,.F.,
(2,2),(217.,228.),.UNSPECIFIED.);
#570=B_SPLINE_CURVE_WITH_KNOTS('',1,(#1191,#1192),.UNSPECIFIED.,.F.,.F.,
(2,2),(228.,230.),.UNSPECIFIED.);
#571=B_SPLINE_CURVE_WITH_KNOTS('',1,(#1193,#1194),.UNSPECIFIED.,.F.,.F.,
(2,2),(230.,240.),.UNSPECIFIED.);
#572=B_SPLINE_CURVE_WITH_KNOTS('',1,(#1195,#1196),.UNSPECIFIED.,.F.,.F.,
(2,2),(240.,242.),.UNSPECIFIED.);
#573=B_SPLINE_CURVE_WITH_KNOTS('',1,(#1197,#1198),.UNSPECIFIED.,.F.,.F.,
(2,2),(242.,264.),.UNSPECIFIED.);
#574=B_SPLINE_CURVE_WITH_KNOTS('',1,(#1199,#1200),.UNSPECIFIED.,.F.,.F.,
(2,2),(24.,35.),.UNSPECIFIED.);
#575=B_SPLINE_CURVE_WITH_KNOTS('',1,(#1201,#1202),.UNSPECIFIED.,.F.,.F.,
(2,2),(35.,96.),.UNSPECIFIED.);
#576=B_SPLINE_CURVE_WITH_KNOTS('',1,(#1203,#1204),.UNSPECIFIED.,.F.,.F.,
(2,2),(96.,156.),.UNSPECIFIED.);
#577=B_SPLINE_CURVE_WITH_KNOTS('',1,(#1205,#1206),.UNSPECIFIED.,.F.,.F.,
(2,2),(156.,217.),.UNSPECIFIED.);
#578=B_SPLINE_CURVE_WITH_KNOTS('',1,(#1207,#1208),.UNSPECIFIED.,.F.,.F.,
(2,2),(217.,228.),.UNSPECIFIED.);
#579=B_SPLINE_CURVE_WITH_KNOTS('',1,(#1209,#1210),.UNSPECIFIED.,.F.,.F.,
(2,2),(3.,57.),.UNSPECIFIED.);
#580=B_SPLINE_CURVE_WITH_KNOTS('',1,(#1211,#1212),.UNSPECIFIED.,.F.,.F.,
(2,2),(57.,112.),.UNSPECIFIED.);
#581=B_SPLINE_CURVE_WITH_KNOTS('',1,(#1213,#1214),.UNSPECIFIED.,.F.,.F.,
(2,2),(112.,166.),.UNSPECIFIED.);
#582=B_SPLINE_CURVE_WITH_KNOTS('',1,(#1215,#1216),.UNSPECIFIED.,.F.,.F.,
(2,2),(166.,221.),.UNSPECIFIED.);
#583=B_SPLINE_CURVE_WITH_KNOTS('',1,(#1217,#1218),.UNSPECIFIED.,.F.,.F.,
(2,2),(-57.,-3.),.UNSPECIFIED.);
#584=B_SPLINE_CURVE_WITH_KNOTS('',1,(#1219,#1220),.UNSPECIFIED.,.F.,.F.,
(2,2),(-112.,-57.),.UNSPECIFIED.);
#585=B_SPLINE_CURVE_WITH_KNOTS('',1,(#1221,#1222),.UNSPECIFIED.,.F.,.F.,
(2,2),(-15.9,38.1),.UNSPECIFIED.);
#586=B_SPLINE_CURVE_WITH_KNOTS('',1,(#1223,#1224),.UNSPECIFIED.,.F.,.F.,
(2,2),(-221.,-166.),.UNSPECIFIED.);
#587=B_SPLINE_CURVE_WITH_KNOTS('',1,(#1225,#1226),.UNSPECIFIED.,.F.,.F.,
(2,2),(3.,55.),.UNSPECIFIED.);
#588=B_SPLINE_CURVE_WITH_KNOTS('',1,(#1227,#1228),.UNSPECIFIED.,.F.,.F.,
(2,2),(3.,55.),.UNSPECIFIED.);
#589=B_SPLINE_CURVE_WITH_KNOTS('',1,(#1229,#1230),.UNSPECIFIED.,.F.,.F.,
(2,2),(3.,55.),.UNSPECIFIED.);
#590=B_SPLINE_CURVE_WITH_KNOTS('',1,(#1231,#1232),.UNSPECIFIED.,.F.,.F.,
(2,2),(3.,55.),.UNSPECIFIED.);
#591=B_SPLINE_CURVE_WITH_KNOTS('',1,(#1233,#1234,#1235),.UNSPECIFIED.,.F.,
 .F.,(2,1,2),(0.,3.,49.9),.UNSPECIFIED.);
#592=B_SPLINE_CURVE_WITH_KNOTS('',1,(#1236,#1237,#1238),.UNSPECIFIED.,.F.,
 .F.,(2,1,2),(0.,3.,49.9),.UNSPECIFIED.);
#593=B_SPLINE_CURVE_WITH_KNOTS('',1,(#1239,#1240,#1241),.UNSPECIFIED.,.F.,
 .F.,(2,1,2),(0.,3.,49.9),.UNSPECIFIED.);
#594=B_SPLINE_CURVE_WITH_KNOTS('',1,(#1242,#1243,#1244),.UNSPECIFIED.,.F.,
 .F.,(2,1,2),(0.,3.,49.9),.UNSPECIFIED.);
#595=B_SPLINE_CURVE_WITH_KNOTS('',1,(#1245,#1246,#1247),.UNSPECIFIED.,.F.,
 .F.,(2,1,2),(0.,3.,55.),.UNSPECIFIED.);
#596=B_SPLINE_CURVE_WITH_KNOTS('',1,(#1248,#1249,#1250),.UNSPECIFIED.,.F.,
 .F.,(2,1,2),(0.,3.,55.),.UNSPECIFIED.);
#597=B_SPLINE_CURVE_WITH_KNOTS('',1,(#1251,#1252,#1253),.UNSPECIFIED.,.F.,
 .F.,(2,1,2),(0.,3.,49.9),.UNSPECIFIED.);
#598=B_SPLINE_CURVE_WITH_KNOTS('',1,(#1254,#1255,#1256),.UNSPECIFIED.,.F.,
 .F.,(2,1,2),(0.,3.,49.9),.UNSPECIFIED.);
#599=B_SPLINE_CURVE_WITH_KNOTS('',1,(#1257,#1258,#1259),.UNSPECIFIED.,.F.,
 .F.,(2,1,2),(0.,3.,49.9),.UNSPECIFIED.);
#600=B_SPLINE_CURVE_WITH_KNOTS('',1,(#1260,#1261,#1262),.UNSPECIFIED.,.F.,
 .F.,(2,1,2),(0.,3.,49.9),.UNSPECIFIED.);
#601=B_SPLINE_CURVE_WITH_KNOTS('',1,(#1263,#1264),.UNSPECIFIED.,.F.,.F.,
(2,2),(40.05,49.95),.UNSPECIFIED.);
#602=B_SPLINE_CURVE_WITH_KNOTS('',1,(#1265,#1266),.UNSPECIFIED.,.F.,.F.,
(2,2),(-41.1,-18.9),.UNSPECIFIED.);
#603=B_SPLINE_CURVE_WITH_KNOTS('',1,(#1267,#1268),.UNSPECIFIED.,.F.,.F.,
(2,2),(-12.,-10.),.UNSPECIFIED.);
#604=B_SPLINE_CURVE_WITH_KNOTS('',1,(#1269,#1270),.UNSPECIFIED.,.F.,.F.,
(2,2),(10.05,19.95),.UNSPECIFIED.);
#605=B_SPLINE_CURVE_WITH_KNOTS('',1,(#1271,#1272),.UNSPECIFIED.,.F.,.F.,
(2,2),(-24.,-22.),.UNSPECIFIED.);
#606=B_SPLINE_CURVE_WITH_KNOTS('',1,(#1273,#1274),.UNSPECIFIED.,.F.,.F.,
(2,2),(-230.,-228.),.UNSPECIFIED.);
#607=B_SPLINE_CURVE_WITH_KNOTS('',1,(#1275,#1276),.UNSPECIFIED.,.F.,.F.,
(2,2),(-242.,-240.),.UNSPECIFIED.);
#608=B_SPLINE_CURVE_WITH_KNOTS('',1,(#1277,#1278),.UNSPECIFIED.,.F.,.F.,
(2,2),(49.9,55.),.UNSPECIFIED.);
#609=B_SPLINE_CURVE_WITH_KNOTS('',1,(#1279,#1280),.UNSPECIFIED.,.F.,.F.,
(2,2),(49.9,55.),.UNSPECIFIED.);
#610=B_SPLINE_CURVE_WITH_KNOTS('',1,(#1281,#1282),.UNSPECIFIED.,.F.,.F.,
(2,2),(-18.9,-11.1),.UNSPECIFIED.);
#611=B_SPLINE_CURVE_WITH_KNOTS('',1,(#1283,#1284),.UNSPECIFIED.,.F.,.F.,
(2,2),(-48.9000000000001,-41.1),.UNSPECIFIED.);
#612=B_SPLINE_CURVE_WITH_KNOTS('',1,(#1285,#1286,#1287,#1288),
 .UNSPECIFIED.,.F.,.F.,(2,1,1,2),(-48.9000000000001,-41.1,-19.0999999999999,
-11.2999999999999),.UNSPECIFIED.);
#613=B_SPLINE_CURVE_WITH_KNOTS('',1,(#1289,#1290,#1291,#1292),
 .UNSPECIFIED.,.F.,.F.,(2,1,1,2),(0.,3.,49.9,55.),.UNSPECIFIED.);
#614=B_SPLINE_CURVE_WITH_KNOTS('',1,(#1293,#1294,#1295,#1296),
 .UNSPECIFIED.,.F.,.F.,(2,1,1,2),(0.,3.,49.9,55.),.UNSPECIFIED.);
#615=B_SPLINE_CURVE_WITH_KNOTS('',1,(#1332,#1333),.UNSPECIFIED.,.F.,.F.,
(2,2),(0.,10.),.UNSPECIFIED.);
#616=B_SPLINE_CURVE_WITH_KNOTS('',1,(#1334,#1335),.UNSPECIFIED.,.F.,.F.,
(2,2),(0.,10.),.UNSPECIFIED.);
#617=B_SPLINE_CURVE_WITH_KNOTS('',1,(#1344,#1345),.UNSPECIFIED.,.F.,.F.,
(2,2),(20.6348878603926,20.7458675650831),.UNSPECIFIED.);
#618=B_SPLINE_CURVE_WITH_KNOTS('',1,(#1346,#1347),.UNSPECIFIED.,.F.,.F.,
(2,2),(0.,10.),.UNSPECIFIED.);
#619=B_SPLINE_CURVE_WITH_KNOTS('',1,(#1348,#1349),.UNSPECIFIED.,.F.,.F.,
(2,2),(20.6348878603926,20.7458675650831),.UNSPECIFIED.);
#620=B_SPLINE_CURVE_WITH_KNOTS('',1,(#1358,#1359),.UNSPECIFIED.,.F.,.F.,
(2,2),(24.5501531811884,24.6611328858789),.UNSPECIFIED.);
#621=B_SPLINE_CURVE_WITH_KNOTS('',1,(#1360,#1361),.UNSPECIFIED.,.F.,.F.,
(2,2),(24.5501531811884,24.6611328858789),.UNSPECIFIED.);
#622=B_SPLINE_CURVE_WITH_KNOTS('',1,(#1362,#1363),.UNSPECIFIED.,.F.,.F.,
(2,2),(0.,6.33710265585459),.UNSPECIFIED.);
#623=B_SPLINE_CURVE_WITH_KNOTS('',1,(#1364,#1365),.UNSPECIFIED.,.F.,.F.,
(2,2),(0.,6.33710265585459),.UNSPECIFIED.);
#624=B_SPLINE_CURVE_WITH_KNOTS('',1,(#1366,#1367),.UNSPECIFIED.,.F.,.F.,
(2,2),(0.,10.),.UNSPECIFIED.);
#625=B_SPLINE_CURVE_WITH_KNOTS('',1,(#1368,#1369),.UNSPECIFIED.,.F.,.F.,
(2,2),(-10.,0.),.UNSPECIFIED.);
#626=B_SPLINE_CURVE_WITH_KNOTS('',1,(#1370,#1371,#1372),.UNSPECIFIED.,.F.,
 .F.,(2,1,2),(12.0834283483676,14.5834283469858,16.0834283469858),
 .UNSPECIFIED.);
#627=B_SPLINE_CURVE_WITH_KNOTS('',1,(#1373,#1374,#1375),.UNSPECIFIED.,.F.,
 .F.,(2,1,2),(12.0834283483676,14.5834283469858,16.0834283469858),
 .UNSPECIFIED.);
#628=B_SPLINE_CURVE_WITH_KNOTS('',1,(#1382,#1383,#1384),.UNSPECIFIED.,.F.,
 .F.,(2,1,2),(-16.8306004609817,-15.2280424360384,-14.2751106015776),
 .UNSPECIFIED.);
#629=B_SPLINE_CURVE_WITH_KNOTS('',1,(#1385,#1386,#1387),.UNSPECIFIED.,.F.,
 .F.,(2,1,2),(-16.8306004609817,-15.2280424360384,-14.2751106015776),
 .UNSPECIFIED.);
#630=(
BOUNDED_CURVE()
B_SPLINE_CURVE(1,(#1045,#1046),.UNSPECIFIED.,.F.,.F.)
B_SPLINE_CURVE_WITH_KNOTS((2,2),(0.,10.),.UNSPECIFIED.)
CURVE()
GEOMETRIC_REPRESENTATION_ITEM()
RATIONAL_B_SPLINE_CURVE((1.,1.))
REPRESENTATION_ITEM('')
);
#631=(
BOUNDED_CURVE()
B_SPLINE_CURVE(1,(#1054,#1055),.UNSPECIFIED.,.F.,.F.)
B_SPLINE_CURVE_WITH_KNOTS((2,2),(0.,10.),.UNSPECIFIED.)
CURVE()
GEOMETRIC_REPRESENTATION_ITEM()
RATIONAL_B_SPLINE_CURVE((1.,1.))
REPRESENTATION_ITEM('')
);
#632=(
BOUNDED_CURVE()
B_SPLINE_CURVE(1,(#1068,#1069),.UNSPECIFIED.,.F.,.F.)
B_SPLINE_CURVE_WITH_KNOTS((2,2),(0.,10.),.UNSPECIFIED.)
CURVE()
GEOMETRIC_REPRESENTATION_ITEM()
RATIONAL_B_SPLINE_CURVE((1.,1.))
REPRESENTATION_ITEM('')
);
#633=(
BOUNDED_CURVE()
B_SPLINE_CURVE(1,(#1106,#1107),.UNSPECIFIED.,.F.,.F.)
B_SPLINE_CURVE_WITH_KNOTS((2,2),(0.,4.99941753368514),.UNSPECIFIED.)
CURVE()
GEOMETRIC_REPRESENTATION_ITEM()
RATIONAL_B_SPLINE_CURVE((1.,1.))
REPRESENTATION_ITEM('')
);
#634=(
BOUNDED_CURVE()
B_SPLINE_CURVE(1,(#1111,#1112),.UNSPECIFIED.,.F.,.F.)
B_SPLINE_CURVE_WITH_KNOTS((2,2),(0.,4.99941753368514),.UNSPECIFIED.)
CURVE()
GEOMETRIC_REPRESENTATION_ITEM()
RATIONAL_B_SPLINE_CURVE((1.,1.))
REPRESENTATION_ITEM('')
);
#635=(
BOUNDED_CURVE()
B_SPLINE_CURVE(1,(#1330,#1331),.UNSPECIFIED.,.F.,.F.)
B_SPLINE_CURVE_WITH_KNOTS((2,2),(0.,10.),.UNSPECIFIED.)
CURVE()
GEOMETRIC_REPRESENTATION_ITEM()
RATIONAL_B_SPLINE_CURVE((1.,1.))
REPRESENTATION_ITEM('')
);
#636=(
BOUNDED_CURVE()
B_SPLINE_CURVE(1,(#1339,#1340),.UNSPECIFIED.,.F.,.F.)
B_SPLINE_CURVE_WITH_KNOTS((2,2),(0.,10.),.UNSPECIFIED.)
CURVE()
GEOMETRIC_REPRESENTATION_ITEM()
RATIONAL_B_SPLINE_CURVE((1.,1.))
REPRESENTATION_ITEM('')
);
#637=(
BOUNDED_CURVE()
B_SPLINE_CURVE(1,(#1353,#1354),.UNSPECIFIED.,.F.,.F.)
B_SPLINE_CURVE_WITH_KNOTS((2,2),(0.,10.),.UNSPECIFIED.)
CURVE()
GEOMETRIC_REPRESENTATION_ITEM()
RATIONAL_B_SPLINE_CURVE((1.,1.))
REPRESENTATION_ITEM('')
);
#638=(
BOUNDED_CURVE()
B_SPLINE_CURVE(1,(#1391,#1392),.UNSPECIFIED.,.F.,.F.)
B_SPLINE_CURVE_WITH_KNOTS((2,2),(0.,4.99941753368514),.UNSPECIFIED.)
CURVE()
GEOMETRIC_REPRESENTATION_ITEM()
RATIONAL_B_SPLINE_CURVE((1.,1.))
REPRESENTATION_ITEM('')
);
#639=(
BOUNDED_CURVE()
B_SPLINE_CURVE(1,(#1396,#1397),.UNSPECIFIED.,.F.,.F.)
B_SPLINE_CURVE_WITH_KNOTS((2,2),(0.,4.99941753368514),.UNSPECIFIED.)
CURVE()
GEOMETRIC_REPRESENTATION_ITEM()
RATIONAL_B_SPLINE_CURVE((1.,1.))
REPRESENTATION_ITEM('')
);
#640=VERTEX_POINT('',#1025);
#641=VERTEX_POINT('',#1026);
#642=VERTEX_POINT('',#1027);
#643=VERTEX_POINT('',#1028);
#644=VERTEX_POINT('',#1029);
#645=VERTEX_POINT('',#1030);
#646=VERTEX_POINT('',#1031);
#647=VERTEX_POINT('',#1032);
#648=VERTEX_POINT('',#1033);
#649=VERTEX_POINT('',#1034);
#650=VERTEX_POINT('',#1035);
#651=VERTEX_POINT('',#1036);
#652=VERTEX_POINT('',#1037);
#653=VERTEX_POINT('',#1038);
#654=VERTEX_POINT('',#1039);
#655=VERTEX_POINT('',#1040);
#656=VERTEX_POINT('',#1041);
#657=VERTEX_POINT('',#1042);
#658=VERTEX_POINT('',#1043);
#659=VERTEX_POINT('',#1044);
#660=VERTEX_POINT('',#1141);
#661=VERTEX_POINT('',#1142);
#662=VERTEX_POINT('',#1143);
#663=VERTEX_POINT('',#1144);
#664=VERTEX_POINT('',#1145);
#665=VERTEX_POINT('',#1146);
#666=VERTEX_POINT('',#1147);
#667=VERTEX_POINT('',#1148);
#668=VERTEX_POINT('',#1149);
#669=VERTEX_POINT('',#1150);
#670=VERTEX_POINT('',#1151);
#671=VERTEX_POINT('',#1152);
#672=VERTEX_POINT('',#1153);
#673=VERTEX_POINT('',#1154);
#674=VERTEX_POINT('',#1155);
#675=VERTEX_POINT('',#1156);
#676=VERTEX_POINT('',#1157);
#677=VERTEX_POINT('',#1158);
#678=VERTEX_POINT('',#1159);
#679=VERTEX_POINT('',#1160);
#680=VERTEX_POINT('',#1161);
#681=VERTEX_POINT('',#1162);
#682=VERTEX_POINT('',#1163);
#683=VERTEX_POINT('',#1164);
#684=VERTEX_POINT('',#1165);
#685=VERTEX_POINT('',#1166);
#686=VERTEX_POINT('',#1167);
#687=VERTEX_POINT('',#1168);
#688=VERTEX_POINT('',#1169);
#689=VERTEX_POINT('',#1170);
#690=VERTEX_POINT('',#1171);
#691=VERTEX_POINT('',#1172);
#692=VERTEX_POINT('',#1173);
#693=VERTEX_POINT('',#1174);
#694=VERTEX_POINT('',#1310);
#695=VERTEX_POINT('',#1311);
#696=VERTEX_POINT('',#1312);
#697=VERTEX_POINT('',#1313);
#698=VERTEX_POINT('',#1314);
#699=VERTEX_POINT('',#1315);
#700=VERTEX_POINT('',#1316);
#701=VERTEX_POINT('',#1317);
#702=VERTEX_POINT('',#1318);
#703=VERTEX_POINT('',#1319);
#704=VERTEX_POINT('',#1320);
#705=VERTEX_POINT('',#1321);
#706=VERTEX_POINT('',#1322);
#707=VERTEX_POINT('',#1323);
#708=VERTEX_POINT('',#1324);
#709=VERTEX_POINT('',#1325);
#710=VERTEX_POINT('',#1326);
#711=VERTEX_POINT('',#1327);
#712=VERTEX_POINT('',#1328);
#713=VERTEX_POINT('',#1329);
#714=PLANE('',#851);
#715=PLANE('',#853);
#716=PLANE('',#854);
#717=PLANE('',#856);
#718=PLANE('',#857);
#719=PLANE('',#858);
#720=PLANE('',#859);
#721=PLANE('',#860);
#722=PLANE('',#873);
#723=PLANE('',#874);
#724=PLANE('',#875);
#725=PLANE('',#876);
#726=PLANE('',#877);
#727=PLANE('',#878);
#728=PLANE('',#879);
#729=PLANE('',#880);
#730=PLANE('',#881);
#731=PLANE('',#882);
#732=PLANE('',#883);
#733=PLANE('',#884);
#734=PLANE('',#885);
#735=PLANE('',#886);
#736=PLANE('',#887);
#737=PLANE('',#888);
#738=PLANE('',#889);
#739=PLANE('',#890);
#740=PLANE('',#891);
#741=PLANE('',#892);
#742=PLANE('',#893);
#743=PLANE('',#894);
#744=PLANE('',#896);
#745=PLANE('',#898);
#746=PLANE('',#899);
#747=PLANE('',#901);
#748=PLANE('',#902);
#749=PLANE('',#903);
#750=PLANE('',#904);
#751=PLANE('',#905);
#752=CYLINDRICAL_SURFACE('',#850,2.50077720800884);
#753=CYLINDRICAL_SURFACE('',#852,2.50077763548888);
#754=CYLINDRICAL_SURFACE('',#855,2.50077763548895);
#755=CYLINDRICAL_SURFACE('',#861,1.09999999999999);
#756=CYLINDRICAL_SURFACE('',#862,1.10000000000001);
#757=CYLINDRICAL_SURFACE('',#895,2.50077720800884);
#758=CYLINDRICAL_SURFACE('',#897,2.50077763548888);
#759=CYLINDRICAL_SURFACE('',#900,2.50077763548895);
#760=CYLINDRICAL_SURFACE('',#906,1.09999999999999);
#761=CYLINDRICAL_SURFACE('',#907,1.10000000000001);
#762=SHAPE_DEFINITION_REPRESENTATION(#763,#848);
#763=PRODUCT_DEFINITION_SHAPE($,$,#765);
#764=PRODUCT_DEFINITION_CONTEXT('3D Mechanical Parts',#837,'design');
#765=PRODUCT_DEFINITION('A','First version',#807,#764);
#766=DATE_TIME_ROLE('classification_date');
#767=DATE_TIME_ROLE('creation_date');
#768=APPLIED_DATE_AND_TIME_ASSIGNMENT(#792,#766,(#771));
#769=APPLIED_DATE_AND_TIME_ASSIGNMENT(#794,#767,(#765));
#770=SECURITY_CLASSIFICATION_LEVEL('unclassified');
#771=SECURITY_CLASSIFICATION('A','Security for version',#770);
#772=APPLIED_SECURITY_CLASSIFICATION_ASSIGNMENT(#771,(#807));
#773=APPROVAL_ROLE('Version approval');
#774=APPROVAL_ROLE('Version Security approval');
#775=APPROVAL_ROLE('Definition approval');
#776=APPROVAL_PERSON_ORGANIZATION(#825,#801,#773);
#777=APPROVAL_PERSON_ORGANIZATION(#826,#802,#774);
#778=APPROVAL_PERSON_ORGANIZATION(#829,#803,#775);
#779=COORDINATED_UNIVERSAL_TIME_OFFSET(5,0,.BEHIND.);
#780=LOCAL_TIME(0,0,0.,#779);
#781=LOCAL_TIME(0,0,0.,#779);
#782=LOCAL_TIME(0,0,0.,#779);
#783=LOCAL_TIME(0,0,0.,#779);
#784=LOCAL_TIME(0,0,0.,#779);
#785=CALENDAR_DATE(1999,1,1);
#786=CALENDAR_DATE(1999,1,1);
#787=CALENDAR_DATE(1999,1,1);
#788=CALENDAR_DATE(1999,1,1);
#789=CALENDAR_DATE(1999,1,1);
#790=DATE_AND_TIME(#785,#780);
#791=DATE_AND_TIME(#786,#781);
#792=DATE_AND_TIME(#787,#782);
#793=DATE_AND_TIME(#788,#783);
#794=DATE_AND_TIME(#789,#784);
#795=APPROVAL_DATE_TIME(#790,#801);
#796=APPROVAL_DATE_TIME(#791,#802);
#797=APPROVAL_DATE_TIME(#793,#803);
#798=APPROVAL_STATUS('not_yet_approved');
#799=APPROVAL_STATUS('not_yet_approved');
#800=APPROVAL_STATUS('approved');
#801=APPROVAL(#798,'Version approval');
#802=APPROVAL(#799,'Version Security approval');
#803=APPROVAL(#800,'Definition approval');
#804=APPLIED_APPROVAL_ASSIGNMENT(#801,(#807));
#805=APPLIED_APPROVAL_ASSIGNMENT(#802,(#771));
#806=APPLIED_APPROVAL_ASSIGNMENT(#803,(#765));
#807=PRODUCT_DEFINITION_FORMATION_WITH_SPECIFIED_SOURCE('A',
'First version',#839,.MADE.);
#808=PERSON_AND_ORGANIZATION_ROLE('design_owner');
#809=PERSON_AND_ORGANIZATION_ROLE('creator');
#810=PERSON_AND_ORGANIZATION_ROLE('design_supplier');
#811=PERSON_AND_ORGANIZATION_ROLE('classification_officer');
#812=PERSON_AND_ORGANIZATION_ROLE('creator');
#813=ORGANIZATION('STI','lab','lab');
#814=ORGANIZATION('STI','unknown','unknown');
#815=ORGANIZATION('STI','unknown','unknown');
#816=ORGANIZATION('STI','unknown','unknown');
#817=ORGANIZATION('STI','unknown','unknown');
#818=ORGANIZATION('STI','unknown','unknown');
#819=ORGANIZATION('STI','unknown','unknown');
#820=PERSON('1','Box','vc60',$,$,$);
#821=PERSON('2','last','first',$,$,$);
#822=PERSON('3','President','Mr.',$,$,$);
#823=PERSON_AND_ORGANIZATION(#820,#813);
#824=PERSON_AND_ORGANIZATION(#821,#814);
#825=PERSON_AND_ORGANIZATION(#822,#815);
#826=PERSON_AND_ORGANIZATION(#822,#816);
#827=PERSON_AND_ORGANIZATION(#822,#817);
#828=PERSON_AND_ORGANIZATION(#821,#818);
#829=PERSON_AND_ORGANIZATION(#822,#819);
#830=APPLIED_PERSON_AND_ORGANIZATION_ASSIGNMENT(#823,#808,(#839));
#831=APPLIED_PERSON_AND_ORGANIZATION_ASSIGNMENT(#824,#809,(#807));
#832=APPLIED_PERSON_AND_ORGANIZATION_ASSIGNMENT(#824,#810,(#807));
#833=APPLIED_PERSON_AND_ORGANIZATION_ASSIGNMENT(#827,#811,(#771));
#834=APPLIED_PERSON_AND_ORGANIZATION_ASSIGNMENT(#828,#812,(#765));
#835=PRODUCT_RELATED_PRODUCT_CATEGORY('detail','detail',(#839));
#836=APPLICATION_PROTOCOL_DEFINITION('International Standard',
'config_control_design',1994,#837);
#837=APPLICATION_CONTEXT(
'configuration controlled 3d designs of mechanical parts and assemblie
s');
#838=PRODUCT_CONTEXT('3D Mechanical Parts',#837,'mechanical');
#839=PRODUCT('Document','Document','',(#838));
#840=(
LENGTH_UNIT()
NAMED_UNIT(*)
SI_UNIT(.MILLI.,.METRE.)
);
#841=(
NAMED_UNIT(*)
PLANE_ANGLE_UNIT()
SI_UNIT($,.RADIAN.)
);
#842=DIMENSIONAL_EXPONENTS(0.,0.,0.,0.,0.,0.,0.);
#843=PLANE_ANGLE_MEASURE_WITH_UNIT(PLANE_ANGLE_MEASURE(0.01745329252),#841);
#844=(
CONVERSION_BASED_UNIT('DEGREES',#843)
NAMED_UNIT(#842)
PLANE_ANGLE_UNIT()
);
#845=(
NAMED_UNIT(*)
SI_UNIT($,.STERADIAN.)
SOLID_ANGLE_UNIT()
);
#846=UNCERTAINTY_MEASURE_WITH_UNIT(LENGTH_MEASURE(0.001),#840,
'DISTANCE_ACCURACY_VALUE',
'Maximum model space distance between geometric entities at asserted c
onnectivities');
#847=(
GEOMETRIC_REPRESENTATION_CONTEXT(3)
GLOBAL_UNCERTAINTY_ASSIGNED_CONTEXT((#846))
GLOBAL_UNIT_ASSIGNED_CONTEXT((#845,#844,#840))
REPRESENTATION_CONTEXT('ID1','3D')
);
#848=SHAPE_REPRESENTATION('Document',(#849,#918),#847);
#849=AXIS2_PLACEMENT_3D($,#1011,#919,#920);
#850=AXIS2_PLACEMENT_3D('',#1012,#921,$);
#851=AXIS2_PLACEMENT_3D('',#1013,#922,$);
#852=AXIS2_PLACEMENT_3D('',#1014,#923,$);
#853=AXIS2_PLACEMENT_3D('',#1015,#924,$);
#854=AXIS2_PLACEMENT_3D('',#1016,#925,$);
#855=AXIS2_PLACEMENT_3D('',#1017,#926,$);
#856=AXIS2_PLACEMENT_3D('',#1018,#927,$);
#857=AXIS2_PLACEMENT_3D('',#1019,#928,$);
#858=AXIS2_PLACEMENT_3D('',#1020,#929,$);
#859=AXIS2_PLACEMENT_3D('',#1021,#930,$);
#860=AXIS2_PLACEMENT_3D('',#1022,#931,$);
#861=AXIS2_PLACEMENT_3D('',#1023,#932,$);
#862=AXIS2_PLACEMENT_3D('',#1024,#933,$);
#863=AXIS2_PLACEMENT_3D($,#1051,#934,#935);
#864=AXIS2_PLACEMENT_3D($,#1056,#936,#937);
#865=AXIS2_PLACEMENT_3D($,#1065,#938,#939);
#866=AXIS2_PLACEMENT_3D($,#1070,#940,#941);
#867=AXIS2_PLACEMENT_3D($,#1091,#942,#943);
#868=AXIS2_PLACEMENT_3D($,#1094,#944,#945);
#869=AXIS2_PLACEMENT_3D($,#1103,#946,#947);
#870=AXIS2_PLACEMENT_3D($,#1108,#948,#949);
#871=AXIS2_PLACEMENT_3D($,#1113,#950,#951);
#872=AXIS2_PLACEMENT_3D($,#1116,#952,#953);
#873=AXIS2_PLACEMENT_3D('',#1119,#954,$);
#874=AXIS2_PLACEMENT_3D('',#1120,#955,$);
#875=AXIS2_PLACEMENT_3D('',#1121,#956,$);
#876=AXIS2_PLACEMENT_3D('',#1122,#957,$);
#877=AXIS2_PLACEMENT_3D('',#1123,#958,$);
#878=AXIS2_PLACEMENT_3D('',#1124,#959,$);
#879=AXIS2_PLACEMENT_3D('',#1125,#960,$);
#880=AXIS2_PLACEMENT_3D('',#1126,#961,$);
#881=AXIS2_PLACEMENT_3D('',#1127,#962,$);
#882=AXIS2_PLACEMENT_3D('',#1128,#963,$);
#883=AXIS2_PLACEMENT_3D('',#1129,#964,$);
#884=AXIS2_PLACEMENT_3D('',#1130,#965,$);
#885=AXIS2_PLACEMENT_3D('',#1131,#966,$);
#886=AXIS2_PLACEMENT_3D('',#1132,#967,$);
#887=AXIS2_PLACEMENT_3D('',#1133,#968,$);
#888=AXIS2_PLACEMENT_3D('',#1134,#969,$);
#889=AXIS2_PLACEMENT_3D('',#1135,#970,$);
#890=AXIS2_PLACEMENT_3D('',#1136,#971,$);
#891=AXIS2_PLACEMENT_3D('',#1137,#972,$);
#892=AXIS2_PLACEMENT_3D('',#1138,#973,$);
#893=AXIS2_PLACEMENT_3D('',#1139,#974,$);
#894=AXIS2_PLACEMENT_3D('',#1140,#975,$);
#895=AXIS2_PLACEMENT_3D('',#1297,#976,$);
#896=AXIS2_PLACEMENT_3D('',#1298,#977,$);
#897=AXIS2_PLACEMENT_3D('',#1299,#978,$);
#898=AXIS2_PLACEMENT_3D('',#1300,#979,$);
#899=AXIS2_PLACEMENT_3D('',#1301,#980,$);
#900=AXIS2_PLACEMENT_3D('',#1302,#981,$);
#901=AXIS2_PLACEMENT_3D('',#1303,#982,$);
#902=AXIS2_PLACEMENT_3D('',#1304,#983,$);
#903=AXIS2_PLACEMENT_3D('',#1305,#984,$);
#904=AXIS2_PLACEMENT_3D('',#1306,#985,$);
#905=AXIS2_PLACEMENT_3D('',#1307,#986,$);
#906=AXIS2_PLACEMENT_3D('',#1308,#987,$);
#907=AXIS2_PLACEMENT_3D('',#1309,#988,$);
#908=AXIS2_PLACEMENT_3D($,#1336,#989,#990);
#909=AXIS2_PLACEMENT_3D($,#1341,#991,#992);
#910=AXIS2_PLACEMENT_3D($,#1350,#993,#994);
#911=AXIS2_PLACEMENT_3D($,#1355,#995,#996);
#912=AXIS2_PLACEMENT_3D($,#1376,#997,#998);
#913=AXIS2_PLACEMENT_3D($,#1379,#999,#1000);
#914=AXIS2_PLACEMENT_3D($,#1388,#1001,#1002);
#915=AXIS2_PLACEMENT_3D($,#1393,#1003,#1004);
#916=AXIS2_PLACEMENT_3D($,#1398,#1005,#1006);
#917=AXIS2_PLACEMENT_3D($,#1401,#1007,#1008);
#918=AXIS2_PLACEMENT_3D($,#1404,#1009,#1010);
#919=DIRECTION('',(0.,0.,1.));
#920=DIRECTION('',(1.,0.,0.));
#921=DIRECTION('',(7.2464723722105E-15,1.,-7.2464723722105E-15));
#922=DIRECTION('',(1.62004681620691E-7,1.41616284074528E-16,0.999999999999987));
#923=DIRECTION('',(7.24647814968163E-15,1.,7.246475822848E-15));
#924=DIRECTION('',(0.999999999999987,7.88257437987822E-16,-1.62004493211551E-7));
#925=DIRECTION('',(-0.999999999447265,4.30208151096446E-16,3.32486184547731E-5));
#926=DIRECTION('',(0.,1.,0.));
#927=DIRECTION('',(-0.999999992742778,6.92165616224323E-18,0.000120475903234059));
#928=DIRECTION('',(0.742816062977737,1.52359184550866E-17,-0.669495553818138));
#929=DIRECTION('',(0.,1.,0.));
#930=DIRECTION('',(0.,-1.,0.));
#931=DIRECTION('',(0.,1.,0.));
#932=DIRECTION('',(0.,-1.,0.));
#933=DIRECTION('',(0.,-1.,0.));
#934=DIRECTION('',(7.2464723722105E-15,1.,-7.2464723722105E-15));
#935=DIRECTION('',(-0.999749730960082,5.68257526887678E-15,0.022371308527752));
#936=DIRECTION('',(7.2464723722105E-15,1.,-7.2464723722105E-15));
#937=DIRECTION('',(-0.999749730960082,5.68257526887688E-15,0.0223713085277382));
#938=DIRECTION('',(7.24647814968163E-15,1.,7.246475822848E-15));
#939=DIRECTION('',(0.0223717929666143,-8.52386144625603E-15,0.99974972011972));
#940=DIRECTION('',(0.,1.,0.));
#941=DIRECTION('',(0.022371792966603,0.,0.999749720119721));
#942=DIRECTION('',(-1.83143810919056E-14,1.,3.89078192030369E-15));
#943=DIRECTION('',(0.999749720119653,1.70477228922438E-14,-0.0223717929696064));
#944=DIRECTION('',(3.49875728902965E-14,1.,-1.52466468285618E-14));
#945=DIRECTION('',(0.999749720119653,-3.40954457844888E-14,-0.022371792969593));
#946=DIRECTION('',(0.,-1.,0.));
#947=DIRECTION('',(-1.,0.,-1.29189588320019E-14));
#948=DIRECTION('',(0.,-1.,0.));
#949=DIRECTION('',(-1.,0.,1.29189588320021E-14));
#950=DIRECTION('',(0.,-1.,0.));
#951=DIRECTION('',(1.,0.,1.29189588320017E-14));
#952=DIRECTION('',(-3.22973970800047E-15,-1.,3.22973970800049E-15));
#953=DIRECTION('',(1.,-6.45947941600086E-15,6.45947941600086E-15));
#954=DIRECTION('',(0.,0.,-1.));
#955=DIRECTION('',(0.,1.,0.));
#956=DIRECTION('',(-1.,0.,0.));
#957=DIRECTION('',(0.,-1.,0.));
#958=DIRECTION('',(0.,1.,0.));
#959=DIRECTION('',(0.,0.,1.));
#960=DIRECTION('',(0.,0.,1.));
#961=DIRECTION('',(0.90248103778368,-0.430729586214937,-2.56751027030231E-18));
#962=DIRECTION('',(0.,1.,0.));
#963=DIRECTION('',(-0.90248103778368,-0.430729586214937,-2.19959189675707E-17));
#964=DIRECTION('',(1.,0.,0.));
#965=DIRECTION('',(0.,1.,0.));
#966=DIRECTION('',(0.90248103778369,-0.430729586214918,-5.89274918135244E-17));
#967=DIRECTION('',(-0.90248103778368,-0.430729586214937,-1.57336987961017E-17));
#968=DIRECTION('',(0.,1.,0.));
#969=DIRECTION('',(-1.,0.,0.));
#970=DIRECTION('',(0.,-1.,0.));
#971=DIRECTION('',(1.,0.,0.));
#972=DIRECTION('',(0.,0.,1.));
#973=DIRECTION('',(0.,1.,0.));
#974=DIRECTION('',(0.,1.,0.));
#975=DIRECTION('',(0.,0.,1.));
#976=DIRECTION('',(0.,1.,0.));
#977=DIRECTION('',(1.62004681620691E-7,1.41616284074528E-16,0.999999999999987));
#978=DIRECTION('',(3.62323907484082E-15,1.,3.623237911424E-15));
#979=DIRECTION('',(0.999999999999987,7.88257437987823E-16,-1.62004493211551E-7));
#980=DIRECTION('',(-0.999999999447265,4.30208151096446E-16,3.32486184547731E-5));
#981=DIRECTION('',(3.62323791142409E-15,1.,-3.62323907484096E-15));
#982=DIRECTION('',(-0.999999992742778,6.92165616224323E-18,0.000120475903234059));
#983=DIRECTION('',(0.742816062977737,1.52359184550866E-17,-0.669495553818138));
#984=DIRECTION('',(0.,1.,0.));
#985=DIRECTION('',(0.,-1.,0.));
#986=DIRECTION('',(0.,1.,0.));
#987=DIRECTION('',(0.,-1.,0.));
#988=DIRECTION('',(0.,-1.,0.));
#989=DIRECTION('',(1.81161809305263E-15,1.,-1.81161809305263E-15));
#990=DIRECTION('',(-0.999749730960082,1.42064381721922E-15,0.0223713085277382));
#991=DIRECTION('',(0.,1.,0.));
#992=DIRECTION('',(-0.999749730960082,0.,0.0223713085277382));
#993=DIRECTION('',(3.62323907484082E-15,1.,3.623237911424E-15));
#994=DIRECTION('',(0.0223717929666143,-3.55160893594001E-15,0.99974972011972));
#995=DIRECTION('',(3.62323907484082E-15,1.,3.623237911424E-15));
#996=DIRECTION('',(0.022371792966603,-4.26193072312803E-15,0.999749720119721));
#997=DIRECTION('',(0.,1.,0.));
#998=DIRECTION('',(0.999749720119653,0.,-0.0223717929696064));
#999=DIRECTION('',(1.66731917983913E-14,1.,-1.13558649082582E-14));
#1000=DIRECTION('',(0.999749720119653,-1.70477228922444E-14,-0.022371792969593));
#1001=DIRECTION('',(0.,-1.,0.));
#1002=DIRECTION('',(-1.,0.,-1.29189588320019E-14));
#1003=DIRECTION('',(1.61486985400026E-15,-1.,1.61486985400027E-15));
#1004=DIRECTION('',(-1.,-1.61486985400026E-15,1.29189588320021E-14));
#1005=DIRECTION('',(0.,-1.,0.));
#1006=DIRECTION('',(1.,0.,1.29189588320017E-14));
#1007=DIRECTION('',(0.,-1.,0.));
#1008=DIRECTION('',(1.,0.,0.));
#1009=DIRECTION('',(0.,0.,1.));
#1010=DIRECTION('',(1.,0.,0.));
#1011=CARTESIAN_POINT('',(0.,0.,0.));
#1012=CARTESIAN_POINT('',(89.5004592154376,-47.5233833956973,58.1995407845624));
#1013=CARTESIAN_POINT('',(89.4445135569581,-42.5233833956973,60.6996921254604));
#1014=CARTESIAN_POINT('',(89.4995403663343,-47.5233833956973,58.1995403663204));
#1015=CARTESIAN_POINT('',(91.9996921254603,-42.5233833956973,58.2554864430419));
#1016=CARTESIAN_POINT('',(87.0001148051708,-52.5233833956973,56.6529305605131));
#1017=CARTESIAN_POINT('',(89.4995403663204,-47.5233833956973,58.2004596336657));
#1018=CARTESIAN_POINT('',(87.,-42.5233833956973,55.7));
#1019=CARTESIAN_POINT('',(87.,-52.5233833956973,51.7));
#1020=CARTESIAN_POINT('',(92.4996613380064,-42.5233833956973,51.2292698354492));
#1021=CARTESIAN_POINT('',(92.4996613380064,-52.5233833956973,51.2292698354492));
#1022=CARTESIAN_POINT('',(88.1251729368607,-47.5228009293824,56.8247229876628));
#1023=CARTESIAN_POINT('',(89.5001729368607,-37.5228009293824,58.1997229876628));
#1024=CARTESIAN_POINT('',(89.5001729368607,-37.5228009293824,58.1997229876628));
#1025=CARTESIAN_POINT('',(91.9996921074821,-42.5233833956973,58.1445127541489));
#1026=CARTESIAN_POINT('',(91.9996921074821,-52.5233833956973,58.1445127541489));
#1027=CARTESIAN_POINT('',(87.,-42.5233833956973,55.7));
#1028=CARTESIAN_POINT('',(87.,-52.5233833956973,55.7));
#1029=CARTESIAN_POINT('',(87.0003078745397,-42.5233833956973,58.2554864430419));
#1030=CARTESIAN_POINT('',(87.0003078745397,-52.5233833956973,58.2554864430419));
#1031=CARTESIAN_POINT('',(89.4445135569581,-42.5233833956973,60.6996921254604));
#1032=CARTESIAN_POINT('',(89.4445135569581,-52.5233833956973,60.6996921254604));
#1033=CARTESIAN_POINT('',(89.555487245851,-42.5233833956973,60.6996921074821));
#1034=CARTESIAN_POINT('',(89.555487245851,-52.5233833956973,60.6996921074821));
#1035=CARTESIAN_POINT('',(91.9996921254603,-42.5233833956973,58.2554864430419));
#1036=CARTESIAN_POINT('',(91.9996921254603,-52.5233833956973,58.2554864430419));
#1037=CARTESIAN_POINT('',(87.,-52.5233833956973,51.7));
#1038=CARTESIAN_POINT('',(87.,-42.5233833956973,51.7));
#1039=CARTESIAN_POINT('',(91.2426620521796,-42.5233833956973,56.407301645512));
#1040=CARTESIAN_POINT('',(91.2426620521796,-52.5233833956973,56.407301645512));
#1041=CARTESIAN_POINT('',(88.4001729368607,-47.5228009293824,58.1997229876628));
#1042=CARTESIAN_POINT('',(88.4001729368607,-42.5233833956973,58.1997229876628));
#1043=CARTESIAN_POINT('',(90.6001729368607,-47.5228009293824,58.1997229876628));
#1044=CARTESIAN_POINT('',(90.6001729368607,-42.5233833956973,58.1997229876628));
#1045=CARTESIAN_POINT('',(91.9996921074821,-42.5233833956973,58.1445127541489));
#1046=CARTESIAN_POINT('',(91.9996921074821,-52.5233833956973,58.1445127541489));
#1047=CARTESIAN_POINT('',(87.,-42.5233833956973,55.7));
#1048=CARTESIAN_POINT('',(87.,-52.5233833956973,55.7));
#1049=CARTESIAN_POINT('',(87.0003078745397,-42.5233833956973,58.2554864430419));
#1050=CARTESIAN_POINT('',(87.0003078745397,-52.5233833956973,58.2554864430419));
#1051=CARTESIAN_POINT('',(89.5004592154376,-42.5233833956973,58.1995407845624));
#1052=CARTESIAN_POINT('',(87.0003078745397,-42.5233833956973,58.2554864430419));
#1053=CARTESIAN_POINT('',(89.4445135569581,-42.5233833956973,60.6996921254604));
#1054=CARTESIAN_POINT('',(89.4445135569581,-42.5233833956973,60.6996921254604));
#1055=CARTESIAN_POINT('',(89.4445135569581,-52.5233833956973,60.6996921254604));
#1056=CARTESIAN_POINT('',(89.5004592154376,-52.5233833956973,58.1995407845624));
#1057=CARTESIAN_POINT('',(87.0003078745397,-52.5233833956973,58.2554864430419));
#1058=CARTESIAN_POINT('',(89.4445135569581,-52.5233833956973,60.6996921254603));
#1059=CARTESIAN_POINT('',(89.4445135569581,-42.5233833956973,60.6996921254604));
#1060=CARTESIAN_POINT('',(89.555487245851,-42.5233833956973,60.6996921074821));
#1061=CARTESIAN_POINT('',(89.555487245851,-42.5233833956973,60.6996921074821));
#1062=CARTESIAN_POINT('',(89.555487245851,-52.5233833956973,60.6996921074821));
#1063=CARTESIAN_POINT('',(89.4445135569581,-52.5233833956973,60.6996921254604));
#1064=CARTESIAN_POINT('',(89.555487245851,-52.5233833956973,60.6996921074821));
#1065=CARTESIAN_POINT('',(89.4995403663343,-42.5233833956973,58.1995403663204));
#1066=CARTESIAN_POINT('',(89.555487245851,-42.5233833956973,60.6996921074821));
#1067=CARTESIAN_POINT('',(91.9996921254603,-42.5233833956973,58.2554864430419));
#1068=CARTESIAN_POINT('',(91.9996921254603,-42.5233833956973,58.2554864430419));
#1069=CARTESIAN_POINT('',(91.9996921254603,-52.5233833956973,58.2554864430419));
#1070=CARTESIAN_POINT('',(89.4995403663344,-52.5233833956973,58.1995403663204));
#1071=CARTESIAN_POINT('',(89.555487245851,-52.5233833956973,60.6996921074821));
#1072=CARTESIAN_POINT('',(91.9996921254604,-52.5233833956973,58.2554864430419));
#1073=CARTESIAN_POINT('',(91.9996921254603,-42.5233833956973,58.2554864430419));
#1074=CARTESIAN_POINT('',(91.9996921074821,-42.5233833956973,58.1445127541489));
#1075=CARTESIAN_POINT('',(91.9996921254603,-52.5233833956973,58.2554864430419));
#1076=CARTESIAN_POINT('',(91.9996921074821,-52.5233833956973,58.1445127541489));
#1077=CARTESIAN_POINT('',(87.,-52.5233833956973,51.7));
#1078=CARTESIAN_POINT('',(91.2426620521796,-52.5233833956973,56.407301645512));
#1079=CARTESIAN_POINT('',(87.,-42.5233833956973,51.7));
#1080=CARTESIAN_POINT('',(91.2426620521796,-42.5233833956973,56.407301645512));
#1081=CARTESIAN_POINT('',(87.,-52.5233833956973,51.7));
#1082=CARTESIAN_POINT('',(87.,-42.5233833956973,51.7));
#1083=CARTESIAN_POINT('',(91.2426620521796,-42.5233833956973,56.407301645512));
#1084=CARTESIAN_POINT('',(91.2426620521796,-52.5233833956973,56.407301645512));
#1085=CARTESIAN_POINT('',(87.,-52.5233833956973,55.7));
#1086=CARTESIAN_POINT('',(86.9999688294202,-52.5233833956973,53.2000000010364));
#1087=CARTESIAN_POINT('',(87.,-52.5233833956973,51.7));
#1088=CARTESIAN_POINT('',(87.,-42.5233833956973,55.7));
#1089=CARTESIAN_POINT('',(86.9999688294202,-42.5233833956973,53.2000000010364));
#1090=CARTESIAN_POINT('',(87.,-42.5233833956973,51.7));
#1091=CARTESIAN_POINT('',(89.4995403662813,-42.5233833956973,58.200459633674));
#1092=CARTESIAN_POINT('',(91.9996921074821,-42.5233833956973,58.1445127541489));
#1093=CARTESIAN_POINT('',(91.2426620521796,-42.5233833956973,56.407301645512));
#1094=CARTESIAN_POINT('',(89.4995403662814,-52.5233833956972,58.200459633674));
#1095=CARTESIAN_POINT('',(91.9996921074821,-52.5233833956973,58.1445127541489));
#1096=CARTESIAN_POINT('',(91.2426620521796,-52.5233833956973,56.407301645512));
#1097=CARTESIAN_POINT('',(87.0003078745397,-42.5233833956973,58.2554864430419));
#1098=CARTESIAN_POINT('',(87.0001148051708,-42.5233833956973,56.6529305605131));
#1099=CARTESIAN_POINT('',(87.,-42.5233833956973,55.7));
#1100=CARTESIAN_POINT('',(87.0003078745397,-52.5233833956973,58.2554864430419));
#1101=CARTESIAN_POINT('',(87.0001148051708,-52.5233833956973,56.6529305605131));
#1102=CARTESIAN_POINT('',(87.,-52.5233833956973,55.7));
#1103=CARTESIAN_POINT('',(89.5001729368607,-47.5228009293824,58.1997229876628));
#1104=CARTESIAN_POINT('',(88.4001729368607,-47.5228009293824,58.1997229876628));
#1105=CARTESIAN_POINT('',(90.6001729368607,-47.5228009293824,58.1997229876628));
#1106=CARTESIAN_POINT('',(88.4001729368607,-47.5228009293824,58.1997229876628));
#1107=CARTESIAN_POINT('',(88.4001729368607,-42.5233833956973,58.1997229876628));
#1108=CARTESIAN_POINT('',(89.5001729368607,-42.5233833956973,58.1997229876628));
#1109=CARTESIAN_POINT('',(88.4001729368607,-42.5233833956973,58.1997229876628));
#1110=CARTESIAN_POINT('',(90.6001729368606,-42.5233833956973,58.1997229876628));
#1111=CARTESIAN_POINT('',(90.6001729368607,-47.5228009293824,58.1997229876628));
#1112=CARTESIAN_POINT('',(90.6001729368607,-42.5233833956973,58.1997229876628));
#1113=CARTESIAN_POINT('',(89.5001729368607,-47.5228009293824,58.1997229876628));
#1114=CARTESIAN_POINT('',(90.6001729368607,-47.5228009293824,58.1997229876628));
#1115=CARTESIAN_POINT('',(88.4001729368607,-47.5228009293824,58.1997229876628));
#1116=CARTESIAN_POINT('',(89.5001729368607,-42.5233833956973,58.1997229876628));
#1117=CARTESIAN_POINT('',(90.6001729368607,-42.5233833956973,58.1997229876628));
#1118=CARTESIAN_POINT('',(88.4001729368606,-42.5233833956973,58.1997229876628));
#1119=CARTESIAN_POINT('',(19.5,-65.875,0.));
#1120=CARTESIAN_POINT('',(38.1,2.8,0.));
#1121=CARTESIAN_POINT('',(27.,2.8,0.));
#1122=CARTESIAN_POINT('',(27.,-58.,0.));
#1123=CARTESIAN_POINT('',(76.95,5.,0.));
#1124=CARTESIAN_POINT('',(19.5,-65.875,55.));
#1125=CARTESIAN_POINT('',(19.5,-65.875,3.));
#1126=CARTESIAN_POINT('',(45.9,2.8,0.));
#1127=CARTESIAN_POINT('',(46.95,5.,0.));
#1128=CARTESIAN_POINT('',(37.05,5.,0.));
#1129=CARTESIAN_POINT('',(87.,-58.,0.));
#1130=CARTESIAN_POINT('',(87.,2.8,0.));
#1131=CARTESIAN_POINT('',(75.9000000000001,2.8,0.));
#1132=CARTESIAN_POINT('',(67.05,5.,0.));
#1133=CARTESIAN_POINT('',(30.,-55.,0.));
#1134=CARTESIAN_POINT('',(84.,-55.,0.));
#1135=CARTESIAN_POINT('',(84.,-7.105427357601E-15,0.));
#1136=CARTESIAN_POINT('',(30.,0.,0.));
#1137=CARTESIAN_POINT('',(87.,2.8,49.9));
#1138=CARTESIAN_POINT('',(68.1,2.8,0.));
#1139=CARTESIAN_POINT('',(87.,2.8,55.));
#1140=CARTESIAN_POINT('',(87.,2.8,49.9));
#1141=CARTESIAN_POINT('',(45.9,2.8,0.));
#1142=CARTESIAN_POINT('',(46.95,5.,0.));
#1143=CARTESIAN_POINT('',(37.05,5.,0.));
#1144=CARTESIAN_POINT('',(38.1,2.8,0.));
#1145=CARTESIAN_POINT('',(27.,2.8,0.));
#1146=CARTESIAN_POINT('',(27.,-58.,0.));
#1147=CARTESIAN_POINT('',(87.,-58.,0.));
#1148=CARTESIAN_POINT('',(87.,2.8,0.));
#1149=CARTESIAN_POINT('',(75.9000000000001,2.8,0.));
#1150=CARTESIAN_POINT('',(76.95,5.,0.));
#1151=CARTESIAN_POINT('',(67.05,5.,0.));
#1152=CARTESIAN_POINT('',(68.1,2.8,0.));
#1153=CARTESIAN_POINT('',(38.1,2.8,55.));
#1154=CARTESIAN_POINT('',(27.,2.8,55.));
#1155=CARTESIAN_POINT('',(27.,-58.,55.));
#1156=CARTESIAN_POINT('',(87.,-58.,55.));
#1157=CARTESIAN_POINT('',(87.,2.8,55.));
#1158=CARTESIAN_POINT('',(75.9000000000001,2.8,55.));
#1159=CARTESIAN_POINT('',(30.,-55.,55.));
#1160=CARTESIAN_POINT('',(84.,-55.,55.));
#1161=CARTESIAN_POINT('',(84.,-7.105427357601E-15,55.));
#1162=CARTESIAN_POINT('',(30.,0.,55.));
#1163=CARTESIAN_POINT('',(84.,-55.,3.));
#1164=CARTESIAN_POINT('',(30.,-55.,3.));
#1165=CARTESIAN_POINT('',(84.,-1.11022302462516E-14,3.));
#1166=CARTESIAN_POINT('',(30.,1.11022302462516E-15,3.));
#1167=CARTESIAN_POINT('',(38.1,2.8,49.9));
#1168=CARTESIAN_POINT('',(67.05,5.,49.9));
#1169=CARTESIAN_POINT('',(76.95,5.,49.9));
#1170=CARTESIAN_POINT('',(45.9,2.8,49.9));
#1171=CARTESIAN_POINT('',(68.1,2.8,49.9));
#1172=CARTESIAN_POINT('',(46.95,5.,49.9));
#1173=CARTESIAN_POINT('',(37.05,5.,49.9));
#1174=CARTESIAN_POINT('',(75.9000000000001,2.8,49.9));
#1175=CARTESIAN_POINT('',(45.9,2.8,0.));
#1176=CARTESIAN_POINT('',(46.95,5.,0.));
#1177=CARTESIAN_POINT('',(46.95,5.,0.));
#1178=CARTESIAN_POINT('',(37.05,5.,0.));
#1179=CARTESIAN_POINT('',(37.05,5.,0.));
#1180=CARTESIAN_POINT('',(38.1,2.8,0.));
#1181=CARTESIAN_POINT('',(38.1,2.8,0.));
#1182=CARTESIAN_POINT('',(27.,2.8,0.));
#1183=CARTESIAN_POINT('',(27.,2.8,0.));
#1184=CARTESIAN_POINT('',(27.,-58.,0.));
#1185=CARTESIAN_POINT('',(27.,-58.,0.));
#1186=CARTESIAN_POINT('',(87.,-58.,0.));
#1187=CARTESIAN_POINT('',(87.,-58.,0.));
#1188=CARTESIAN_POINT('',(87.,2.8,0.));
#1189=CARTESIAN_POINT('',(87.,2.8,0.));
#1190=CARTESIAN_POINT('',(75.9000000000001,2.8,0.));
#1191=CARTESIAN_POINT('',(75.9000000000001,2.8,0.));
#1192=CARTESIAN_POINT('',(76.95,5.,0.));
#1193=CARTESIAN_POINT('',(76.95,5.,0.));
#1194=CARTESIAN_POINT('',(67.05,5.,0.));
#1195=CARTESIAN_POINT('',(67.05,5.,0.));
#1196=CARTESIAN_POINT('',(68.1,2.8,0.));
#1197=CARTESIAN_POINT('',(68.1,2.8,0.));
#1198=CARTESIAN_POINT('',(45.9,2.8,0.));
#1199=CARTESIAN_POINT('',(38.1,2.8,55.));
#1200=CARTESIAN_POINT('',(27.,2.8,55.));
#1201=CARTESIAN_POINT('',(27.,2.8,55.));
#1202=CARTESIAN_POINT('',(27.,-58.,55.));
#1203=CARTESIAN_POINT('',(27.,-58.,55.));
#1204=CARTESIAN_POINT('',(87.,-58.,55.));
#1205=CARTESIAN_POINT('',(87.,-58.,55.));
#1206=CARTESIAN_POINT('',(87.,2.8,55.));
#1207=CARTESIAN_POINT('',(87.,2.8,55.));
#1208=CARTESIAN_POINT('',(75.9000000000001,2.8,55.));
#1209=CARTESIAN_POINT('',(30.,-55.,55.));
#1210=CARTESIAN_POINT('',(84.,-55.,55.));
#1211=CARTESIAN_POINT('',(84.,-55.,55.));
#1212=CARTESIAN_POINT('',(84.,-7.105427357601E-15,55.));
#1213=CARTESIAN_POINT('',(84.,-7.105427357601E-15,55.));
#1214=CARTESIAN_POINT('',(30.,0.,55.));
#1215=CARTESIAN_POINT('',(30.,0.,55.));
#1216=CARTESIAN_POINT('',(30.,-55.,55.));
#1217=CARTESIAN_POINT('',(84.,-55.,3.));
#1218=CARTESIAN_POINT('',(30.,-55.,3.));
#1219=CARTESIAN_POINT('',(84.,-1.11022302462516E-14,3.));
#1220=CARTESIAN_POINT('',(84.,-55.,3.));
#1221=CARTESIAN_POINT('',(30.,1.11022302462516E-15,3.));
#1222=CARTESIAN_POINT('',(84.,-1.11022302462516E-14,3.));
#1223=CARTESIAN_POINT('',(30.,-55.,3.));
#1224=CARTESIAN_POINT('',(30.,1.11022302462516E-15,3.));
#1225=CARTESIAN_POINT('',(84.,-55.,3.));
#1226=CARTESIAN_POINT('',(84.,-55.,55.));
#1227=CARTESIAN_POINT('',(30.,-55.,3.));
#1228=CARTESIAN_POINT('',(30.,-55.,55.));
#1229=CARTESIAN_POINT('',(84.,-1.11022302462516E-14,3.));
#1230=CARTESIAN_POINT('',(84.,-7.105427357601E-15,55.));
#1231=CARTESIAN_POINT('',(30.,1.11022302462516E-15,3.));
#1232=CARTESIAN_POINT('',(30.,0.,55.));
#1233=CARTESIAN_POINT('',(46.95,5.,0.));
#1234=CARTESIAN_POINT('',(46.95,5.,3.));
#1235=CARTESIAN_POINT('',(46.95,5.,49.9));
#1236=CARTESIAN_POINT('',(45.9,2.8,0.));
#1237=CARTESIAN_POINT('',(45.9,2.8,3.));
#1238=CARTESIAN_POINT('',(45.9,2.8,49.9));
#1239=CARTESIAN_POINT('',(37.05,5.,0.));
#1240=CARTESIAN_POINT('',(37.05,5.,3.));
#1241=CARTESIAN_POINT('',(37.05,5.,49.9));
#1242=CARTESIAN_POINT('',(38.1,2.8,0.));
#1243=CARTESIAN_POINT('',(38.1,2.8,3.));
#1244=CARTESIAN_POINT('',(38.1,2.8,49.9));
#1245=CARTESIAN_POINT('',(27.,-58.,0.));
#1246=CARTESIAN_POINT('',(27.,-58.,3.));
#1247=CARTESIAN_POINT('',(27.,-58.,55.));
#1248=CARTESIAN_POINT('',(87.,-58.,0.));
#1249=CARTESIAN_POINT('',(87.,-58.,3.));
#1250=CARTESIAN_POINT('',(87.,-58.,55.));
#1251=CARTESIAN_POINT('',(75.9000000000001,2.8,0.));
#1252=CARTESIAN_POINT('',(75.9000000000001,2.8,3.));
#1253=CARTESIAN_POINT('',(75.9000000000001,2.8,49.9));
#1254=CARTESIAN_POINT('',(76.95,5.,0.));
#1255=CARTESIAN_POINT('',(76.95,5.,3.));
#1256=CARTESIAN_POINT('',(76.95,5.,49.9));
#1257=CARTESIAN_POINT('',(67.05,5.,0.));
#1258=CARTESIAN_POINT('',(67.05,5.,3.));
#1259=CARTESIAN_POINT('',(67.05,5.,49.9));
#1260=CARTESIAN_POINT('',(68.1,2.8,0.));
#1261=CARTESIAN_POINT('',(68.1,2.8,3.));
#1262=CARTESIAN_POINT('',(68.1,2.8,49.9));
#1263=CARTESIAN_POINT('',(67.05,5.,49.9));
#1264=CARTESIAN_POINT('',(76.95,5.,49.9));
#1265=CARTESIAN_POINT('',(68.1,2.8,49.9));
#1266=CARTESIAN_POINT('',(45.9,2.8,49.9));
#1267=CARTESIAN_POINT('',(46.95,5.,49.9));
#1268=CARTESIAN_POINT('',(45.9,2.8,49.9));
#1269=CARTESIAN_POINT('',(37.05,5.,49.9));
#1270=CARTESIAN_POINT('',(46.95,5.,49.9));
#1271=CARTESIAN_POINT('',(38.1,2.8,49.9));
#1272=CARTESIAN_POINT('',(37.05,5.,49.9));
#1273=CARTESIAN_POINT('',(76.95,5.,49.9));
#1274=CARTESIAN_POINT('',(75.9000000000001,2.8,49.9));
#1275=CARTESIAN_POINT('',(68.1,2.8,49.9));
#1276=CARTESIAN_POINT('',(67.05,5.,49.9));
#1277=CARTESIAN_POINT('',(38.1,2.8,49.9));
#1278=CARTESIAN_POINT('',(38.1,2.8,55.));
#1279=CARTESIAN_POINT('',(75.9000000000001,2.8,49.9));
#1280=CARTESIAN_POINT('',(75.9000000000001,2.8,55.));
#1281=CARTESIAN_POINT('',(45.9,2.8,49.9));
#1282=CARTESIAN_POINT('',(38.1,2.8,49.9));
#1283=CARTESIAN_POINT('',(75.9000000000001,2.8,49.9));
#1284=CARTESIAN_POINT('',(68.1,2.8,49.9));
#1285=CARTESIAN_POINT('',(75.9000000000001,2.8,55.));
#1286=CARTESIAN_POINT('',(68.1,2.8,55.));
#1287=CARTESIAN_POINT('',(45.9,2.8,55.));
#1288=CARTESIAN_POINT('',(38.1,2.8,55.));
#1289=CARTESIAN_POINT('',(27.,2.8,0.));
#1290=CARTESIAN_POINT('',(27.,2.8,3.));
#1291=CARTESIAN_POINT('',(27.,2.8,49.9));
#1292=CARTESIAN_POINT('',(27.,2.8,55.));
#1293=CARTESIAN_POINT('',(87.,2.8,0.));
#1294=CARTESIAN_POINT('',(87.,2.8,3.));
#1295=CARTESIAN_POINT('',(87.,2.8,49.9));
#1296=CARTESIAN_POINT('',(87.,2.8,55.));
#1297=CARTESIAN_POINT('',(89.5004592154376,-17.4245119492378,58.1995407845624));
#1298=CARTESIAN_POINT('',(89.4445135569581,-12.4245119492378,60.6996921254604));
#1299=CARTESIAN_POINT('',(89.4995403663343,-17.4245119492378,58.1995403663204));
#1300=CARTESIAN_POINT('',(91.9996921254603,-12.4245119492378,58.2554864430419));
#1301=CARTESIAN_POINT('',(87.0001148051708,-22.4245119492378,56.6529305605131));
#1302=CARTESIAN_POINT('',(89.4995403663204,-17.4245119492378,58.2004596336657));
#1303=CARTESIAN_POINT('',(87.,-12.4245119492378,55.7));
#1304=CARTESIAN_POINT('',(87.,-22.4245119492378,51.7));
#1305=CARTESIAN_POINT('',(92.4996613380064,-12.4245119492378,51.2292698354492));
#1306=CARTESIAN_POINT('',(92.4996613380064,-22.4245119492378,51.2292698354492));
#1307=CARTESIAN_POINT('',(88.1251729368607,-17.423929482923,56.8247229876628));
#1308=CARTESIAN_POINT('',(89.5001729368607,-7.42392948292299,58.1997229876628));
#1309=CARTESIAN_POINT('',(89.5001729368607,-7.42392948292299,58.1997229876628));
#1310=CARTESIAN_POINT('',(91.9996921074821,-12.4245119492378,58.1445127541489));
#1311=CARTESIAN_POINT('',(91.9996921074821,-22.4245119492378,58.1445127541489));
#1312=CARTESIAN_POINT('',(87.,-12.4245119492378,55.7));
#1313=CARTESIAN_POINT('',(87.,-22.4245119492378,55.7));
#1314=CARTESIAN_POINT('',(87.0003078745397,-12.4245119492378,58.2554864430419));
#1315=CARTESIAN_POINT('',(87.0003078745397,-22.4245119492378,58.2554864430419));
#1316=CARTESIAN_POINT('',(89.4445135569581,-12.4245119492378,60.6996921254604));
#1317=CARTESIAN_POINT('',(89.4445135569581,-22.4245119492378,60.6996921254604));
#1318=CARTESIAN_POINT('',(89.555487245851,-12.4245119492378,60.6996921074821));
#1319=CARTESIAN_POINT('',(89.555487245851,-22.4245119492378,60.6996921074821));
#1320=CARTESIAN_POINT('',(91.9996921254603,-12.4245119492378,58.2554864430419));
#1321=CARTESIAN_POINT('',(91.9996921254603,-22.4245119492378,58.2554864430419));
#1322=CARTESIAN_POINT('',(87.,-22.4245119492378,51.7));
#1323=CARTESIAN_POINT('',(87.,-12.4245119492378,51.7));
#1324=CARTESIAN_POINT('',(91.2426620521796,-12.4245119492378,56.407301645512));
#1325=CARTESIAN_POINT('',(91.2426620521796,-22.4245119492378,56.407301645512));
#1326=CARTESIAN_POINT('',(88.4001729368607,-17.423929482923,58.1997229876628));
#1327=CARTESIAN_POINT('',(88.4001729368607,-12.4245119492378,58.1997229876628));
#1328=CARTESIAN_POINT('',(90.6001729368607,-17.423929482923,58.1997229876628));
#1329=CARTESIAN_POINT('',(90.6001729368607,-12.4245119492378,58.1997229876628));
#1330=CARTESIAN_POINT('',(91.9996921074821,-12.4245119492378,58.1445127541489));
#1331=CARTESIAN_POINT('',(91.9996921074821,-22.4245119492378,58.1445127541489));
#1332=CARTESIAN_POINT('',(87.,-12.4245119492378,55.7));
#1333=CARTESIAN_POINT('',(87.,-22.4245119492378,55.7));
#1334=CARTESIAN_POINT('',(87.0003078745397,-12.4245119492378,58.2554864430419));
#1335=CARTESIAN_POINT('',(87.0003078745397,-22.4245119492378,58.2554864430419));
#1336=CARTESIAN_POINT('',(89.5004592154376,-12.4245119492379,58.1995407845624));
#1337=CARTESIAN_POINT('',(87.0003078745397,-12.4245119492378,58.2554864430419));
#1338=CARTESIAN_POINT('',(89.4445135569581,-12.4245119492378,60.6996921254603));
#1339=CARTESIAN_POINT('',(89.4445135569581,-12.4245119492378,60.6996921254604));
#1340=CARTESIAN_POINT('',(89.4445135569581,-22.4245119492378,60.6996921254604));
#1341=CARTESIAN_POINT('',(89.5004592154376,-22.4245119492378,58.1995407845624));
#1342=CARTESIAN_POINT('',(87.0003078745397,-22.4245119492378,58.2554864430419));
#1343=CARTESIAN_POINT('',(89.4445135569581,-22.4245119492378,60.6996921254603));
#1344=CARTESIAN_POINT('',(89.4445135569581,-12.4245119492378,60.6996921254604));
#1345=CARTESIAN_POINT('',(89.555487245851,-12.4245119492378,60.6996921074821));
#1346=CARTESIAN_POINT('',(89.555487245851,-12.4245119492378,60.6996921074821));
#1347=CARTESIAN_POINT('',(89.555487245851,-22.4245119492378,60.6996921074821));
#1348=CARTESIAN_POINT('',(89.4445135569581,-22.4245119492378,60.6996921254604));
#1349=CARTESIAN_POINT('',(89.555487245851,-22.4245119492378,60.6996921074821));
#1350=CARTESIAN_POINT('',(89.4995403663343,-12.4245119492378,58.1995403663204));
#1351=CARTESIAN_POINT('',(89.555487245851,-12.4245119492378,60.6996921074821));
#1352=CARTESIAN_POINT('',(91.9996921254603,-12.4245119492378,58.2554864430419));
#1353=CARTESIAN_POINT('',(91.9996921254603,-12.4245119492378,58.2554864430419));
#1354=CARTESIAN_POINT('',(91.9996921254603,-22.4245119492378,58.2554864430419));
#1355=CARTESIAN_POINT('',(89.4995403663344,-22.4245119492378,58.1995403663204));
#1356=CARTESIAN_POINT('',(89.555487245851,-22.4245119492378,60.6996921074821));
#1357=CARTESIAN_POINT('',(91.9996921254604,-22.4245119492378,58.2554864430419));
#1358=CARTESIAN_POINT('',(91.9996921254603,-12.4245119492378,58.2554864430419));
#1359=CARTESIAN_POINT('',(91.9996921074821,-12.4245119492378,58.1445127541489));
#1360=CARTESIAN_POINT('',(91.9996921254603,-22.4245119492378,58.2554864430419));
#1361=CARTESIAN_POINT('',(91.9996921074821,-22.4245119492378,58.1445127541489));
#1362=CARTESIAN_POINT('',(87.,-22.4245119492378,51.7));
#1363=CARTESIAN_POINT('',(91.2426620521796,-22.4245119492378,56.407301645512));
#1364=CARTESIAN_POINT('',(87.,-12.4245119492378,51.7));
#1365=CARTESIAN_POINT('',(91.2426620521796,-12.4245119492378,56.407301645512));
#1366=CARTESIAN_POINT('',(87.,-22.4245119492378,51.7));
#1367=CARTESIAN_POINT('',(87.,-12.4245119492378,51.7));
#1368=CARTESIAN_POINT('',(91.2426620521796,-12.4245119492378,56.407301645512));
#1369=CARTESIAN_POINT('',(91.2426620521796,-22.4245119492378,56.407301645512));
#1370=CARTESIAN_POINT('',(87.,-22.4245119492378,55.7));
#1371=CARTESIAN_POINT('',(86.9999688294202,-22.4245119492378,53.2000000010364));
#1372=CARTESIAN_POINT('',(87.,-22.4245119492378,51.7));
#1373=CARTESIAN_POINT('',(87.,-12.4245119492378,55.7));
#1374=CARTESIAN_POINT('',(86.9999688294202,-12.4245119492378,53.2000000010364));
#1375=CARTESIAN_POINT('',(87.,-12.4245119492378,51.7));
#1376=CARTESIAN_POINT('',(89.4995403662813,-12.4245119492378,58.200459633674));
#1377=CARTESIAN_POINT('',(91.9996921074821,-12.4245119492378,58.1445127541489));
#1378=CARTESIAN_POINT('',(91.2426620521796,-12.4245119492378,56.407301645512));
#1379=CARTESIAN_POINT('',(89.4995403662814,-22.4245119492378,58.200459633674));
#1380=CARTESIAN_POINT('',(91.9996921074821,-22.4245119492378,58.1445127541489));
#1381=CARTESIAN_POINT('',(91.2426620521796,-22.4245119492379,56.407301645512));
#1382=CARTESIAN_POINT('',(87.0003078745397,-12.4245119492378,58.2554864430419));
#1383=CARTESIAN_POINT('',(87.0001148051708,-12.4245119492378,56.6529305605131));
#1384=CARTESIAN_POINT('',(87.,-12.4245119492378,55.7));
#1385=CARTESIAN_POINT('',(87.0003078745397,-22.4245119492378,58.2554864430419));
#1386=CARTESIAN_POINT('',(87.0001148051708,-22.4245119492378,56.6529305605131));
#1387=CARTESIAN_POINT('',(87.,-22.4245119492378,55.7));
#1388=CARTESIAN_POINT('',(89.5001729368607,-17.423929482923,58.1997229876628));
#1389=CARTESIAN_POINT('',(88.4001729368607,-17.423929482923,58.1997229876628));
#1390=CARTESIAN_POINT('',(90.6001729368607,-17.423929482923,58.1997229876628));
#1391=CARTESIAN_POINT('',(88.4001729368607,-17.423929482923,58.1997229876628));
#1392=CARTESIAN_POINT('',(88.4001729368607,-12.4245119492378,58.1997229876628));
#1393=CARTESIAN_POINT('',(89.5001729368607,-12.4245119492378,58.1997229876628));
#1394=CARTESIAN_POINT('',(88.4001729368607,-12.4245119492378,58.1997229876628));
#1395=CARTESIAN_POINT('',(90.6001729368606,-12.4245119492378,58.1997229876628));
#1396=CARTESIAN_POINT('',(90.6001729368607,-17.423929482923,58.1997229876628));
#1397=CARTESIAN_POINT('',(90.6001729368607,-12.4245119492378,58.1997229876628));
#1398=CARTESIAN_POINT('',(89.5001729368607,-17.423929482923,58.1997229876628));
#1399=CARTESIAN_POINT('',(90.6001729368607,-17.423929482923,58.1997229876628));
#1400=CARTESIAN_POINT('',(88.4001729368607,-17.423929482923,58.1997229876628));
#1401=CARTESIAN_POINT('',(89.5001729368607,-12.4245119492378,58.1997229876628));
#1402=CARTESIAN_POINT('',(90.6001729368607,-12.4245119492378,58.1997229876628));
#1403=CARTESIAN_POINT('',(88.4001729368606,-12.4245119492378,58.1997229876628));
#1404=CARTESIAN_POINT('',(0.,0.,0.));
ENDSEC;
END-ISO-10303-21;
