ISO-10303-21;
HEADER;
/* Generated by software containing ST-Developer
 * from STEP Tools, Inc. (www.steptools.com) 
 */
/* OPTION: using custom schema-name function */

FILE_DESCRIPTION(
/* description */ (''),
/* implementation_level */ '2;1');

FILE_NAME(
/* name */ 'holder',
/* time_stamp */ '2026-07-19T19:35:56+03:00',
/* author */ (''),
/* organization */ (''),
/* preprocessor_version */ 'ST-DEVELOPER v19.2',
/* originating_system */ 'Rhino 8.33',
/* authorisation */ '');

FILE_SCHEMA (('CONFIG_CONTROL_DESIGN'));
ENDSEC;

DATA;
#10=SHAPE_REPRESENTATION_RELATIONSHIP('','',#1034,#12);
#11=MANIFOLD_SOLID_BREP('brep_1',#13);
#12=ADVANCED_BREP_SHAPE_REPRESENTATION('brep_rep_0',(#11,#1139),#1033);
#13=CLOSED_SHELL('',(#14,#15,#16,#17,#18,#19,#20,#21,#22,#23,#24,#25,#26,
#27,#28,#29,#30,#31,#32,#33,#34,#35,#36,#37,#38,#39,#40,#41,#42,#43,#44,
#45,#46,#47,#48,#49,#50,#51,#52,#53,#54,#55,#56,#57,#58,#59,#60,#61,#62,
#63,#64,#65,#66,#67,#68,#69,#70));
#14=ADVANCED_FACE('',(#71),#916,.T.);
#15=ADVANCED_FACE('',(#72),#891,.F.);
#16=ADVANCED_FACE('',(#73),#917,.T.);
#17=ADVANCED_FACE('',(#74),#892,.F.);
#18=ADVANCED_FACE('',(#75),#918,.T.);
#19=ADVANCED_FACE('',(#76),#893,.F.);
#20=ADVANCED_FACE('',(#77),#919,.T.);
#21=ADVANCED_FACE('',(#78),#894,.F.);
#22=ADVANCED_FACE('',(#79),#920,.T.);
#23=ADVANCED_FACE('',(#80),#895,.T.);
#24=ADVANCED_FACE('',(#81),#921,.T.);
#25=ADVANCED_FACE('',(#82),#896,.T.);
#26=ADVANCED_FACE('',(#83),#897,.T.);
#27=ADVANCED_FACE('',(#84),#898,.T.);
#28=ADVANCED_FACE('',(#85),#899,.T.);
#29=ADVANCED_FACE('',(#86),#900,.T.);
#30=ADVANCED_FACE('',(#87),#901,.T.);
#31=ADVANCED_FACE('',(#88),#922,.T.);
#32=ADVANCED_FACE('',(#89),#902,.T.);
#33=ADVANCED_FACE('',(#90),#923,.T.);
#34=ADVANCED_FACE('',(#91),#903,.T.);
#35=ADVANCED_FACE('',(#92),#904,.T.);
#36=ADVANCED_FACE('',(#93),#905,.T.);
#37=ADVANCED_FACE('',(#94),#906,.T.);
#38=ADVANCED_FACE('',(#95),#907,.T.);
#39=ADVANCED_FACE('',(#96),#924,.T.);
#40=ADVANCED_FACE('',(#97),#908,.F.);
#41=ADVANCED_FACE('',(#98),#925,.T.);
#42=ADVANCED_FACE('',(#99),#909,.F.);
#43=ADVANCED_FACE('',(#100),#926,.T.);
#44=ADVANCED_FACE('',(#101),#910,.T.);
#45=ADVANCED_FACE('',(#102),#927,.T.);
#46=ADVANCED_FACE('',(#103),#928,.T.);
#47=ADVANCED_FACE('',(#104),#929,.T.);
#48=ADVANCED_FACE('',(#105),#930,.T.);
#49=ADVANCED_FACE('',(#106),#931,.T.);
#50=ADVANCED_FACE('',(#107),#932,.T.);
#51=ADVANCED_FACE('',(#108),#933,.T.);
#52=ADVANCED_FACE('',(#109),#911,.F.);
#53=ADVANCED_FACE('',(#110),#934,.T.);
#54=ADVANCED_FACE('',(#111),#935,.T.);
#55=ADVANCED_FACE('',(#112),#936,.T.);
#56=ADVANCED_FACE('',(#113),#912,.F.);
#57=ADVANCED_FACE('',(#114),#937,.T.);
#58=ADVANCED_FACE('',(#115),#938,.T.);
#59=ADVANCED_FACE('',(#116),#939,.T.);
#60=ADVANCED_FACE('',(#117),#913,.F.);
#61=ADVANCED_FACE('',(#118),#940,.T.);
#62=ADVANCED_FACE('',(#119),#941,.T.);
#63=ADVANCED_FACE('',(#120),#942,.T.);
#64=ADVANCED_FACE('',(#121),#914,.F.);
#65=ADVANCED_FACE('',(#122),#943,.T.);
#66=ADVANCED_FACE('',(#123),#944,.T.);
#67=ADVANCED_FACE('',(#124),#945,.T.);
#68=ADVANCED_FACE('',(#125),#915,.F.);
#69=ADVANCED_FACE('',(#126),#946,.T.);
#70=ADVANCED_FACE('',(#127),#947,.T.);
#71=FACE_OUTER_BOUND('',#128,.T.);
#72=FACE_OUTER_BOUND('',#129,.T.);
#73=FACE_OUTER_BOUND('',#130,.T.);
#74=FACE_OUTER_BOUND('',#131,.T.);
#75=FACE_OUTER_BOUND('',#132,.T.);
#76=FACE_OUTER_BOUND('',#133,.T.);
#77=FACE_OUTER_BOUND('',#134,.T.);
#78=FACE_OUTER_BOUND('',#135,.T.);
#79=FACE_OUTER_BOUND('',#136,.T.);
#80=FACE_OUTER_BOUND('',#137,.T.);
#81=FACE_OUTER_BOUND('',#138,.T.);
#82=FACE_OUTER_BOUND('',#139,.T.);
#83=FACE_OUTER_BOUND('',#140,.T.);
#84=FACE_OUTER_BOUND('',#141,.T.);
#85=FACE_OUTER_BOUND('',#142,.T.);
#86=FACE_OUTER_BOUND('',#143,.T.);
#87=FACE_OUTER_BOUND('',#144,.T.);
#88=FACE_OUTER_BOUND('',#145,.T.);
#89=FACE_OUTER_BOUND('',#146,.T.);
#90=FACE_OUTER_BOUND('',#147,.T.);
#91=FACE_OUTER_BOUND('',#148,.T.);
#92=FACE_OUTER_BOUND('',#149,.T.);
#93=FACE_OUTER_BOUND('',#150,.T.);
#94=FACE_OUTER_BOUND('',#151,.T.);
#95=FACE_OUTER_BOUND('',#152,.T.);
#96=FACE_OUTER_BOUND('',#153,.T.);
#97=FACE_OUTER_BOUND('',#154,.T.);
#98=FACE_OUTER_BOUND('',#155,.T.);
#99=FACE_OUTER_BOUND('',#156,.T.);
#100=FACE_OUTER_BOUND('',#157,.T.);
#101=FACE_OUTER_BOUND('',#158,.T.);
#102=FACE_OUTER_BOUND('',#159,.T.);
#103=FACE_OUTER_BOUND('',#160,.T.);
#104=FACE_OUTER_BOUND('',#161,.T.);
#105=FACE_OUTER_BOUND('',#162,.T.);
#106=FACE_OUTER_BOUND('',#163,.T.);
#107=FACE_OUTER_BOUND('',#164,.T.);
#108=FACE_OUTER_BOUND('',#165,.T.);
#109=FACE_OUTER_BOUND('',#166,.T.);
#110=FACE_OUTER_BOUND('',#167,.T.);
#111=FACE_OUTER_BOUND('',#168,.T.);
#112=FACE_OUTER_BOUND('',#169,.T.);
#113=FACE_OUTER_BOUND('',#170,.T.);
#114=FACE_OUTER_BOUND('',#171,.T.);
#115=FACE_OUTER_BOUND('',#172,.T.);
#116=FACE_OUTER_BOUND('',#173,.T.);
#117=FACE_OUTER_BOUND('',#174,.T.);
#118=FACE_OUTER_BOUND('',#175,.T.);
#119=FACE_OUTER_BOUND('',#176,.T.);
#120=FACE_OUTER_BOUND('',#177,.T.);
#121=FACE_OUTER_BOUND('',#178,.T.);
#122=FACE_OUTER_BOUND('',#179,.T.);
#123=FACE_OUTER_BOUND('',#180,.T.);
#124=FACE_OUTER_BOUND('',#181,.T.);
#125=FACE_OUTER_BOUND('',#182,.T.);
#126=FACE_OUTER_BOUND('',#183,.T.);
#127=FACE_OUTER_BOUND('',#184,.T.);
#128=EDGE_LOOP('',(#185,#186,#187,#188));
#129=EDGE_LOOP('',(#189,#190,#191,#192,#193,#194));
#130=EDGE_LOOP('',(#195,#196,#197,#198));
#131=EDGE_LOOP('',(#199,#200,#201,#202,#203,#204));
#132=EDGE_LOOP('',(#205,#206,#207,#208));
#133=EDGE_LOOP('',(#209,#210,#211,#212,#213,#214));
#134=EDGE_LOOP('',(#215,#216,#217,#218));
#135=EDGE_LOOP('',(#219,#220,#221,#222,#223,#224));
#136=EDGE_LOOP('',(#225,#226,#227,#228));
#137=EDGE_LOOP('',(#229,#230,#231,#232,#233));
#138=EDGE_LOOP('',(#234,#235,#236,#237));
#139=EDGE_LOOP('',(#238,#239,#240,#241));
#140=EDGE_LOOP('',(#242,#243,#244,#245));
#141=EDGE_LOOP('',(#246,#247,#248,#249));
#142=EDGE_LOOP('',(#250,#251,#252,#253));
#143=EDGE_LOOP('',(#254,#255,#256,#257));
#144=EDGE_LOOP('',(#258,#259,#260,#261));
#145=EDGE_LOOP('',(#262,#263,#264,#265));
#146=EDGE_LOOP('',(#266,#267,#268,#269,#270));
#147=EDGE_LOOP('',(#271,#272,#273,#274,#275,#276,#277,#278,#279,#280,#281,
#282,#283,#284,#285,#286,#287,#288,#289,#290,#291,#292,#293,#294));
#148=EDGE_LOOP('',(#295,#296,#297,#298));
#149=EDGE_LOOP('',(#299,#300,#301,#302));
#150=EDGE_LOOP('',(#303,#304,#305,#306));
#151=EDGE_LOOP('',(#307,#308,#309,#310));
#152=EDGE_LOOP('',(#311,#312,#313,#314));
#153=EDGE_LOOP('',(#315,#316,#317,#318));
#154=EDGE_LOOP('',(#319,#320,#321,#322));
#155=EDGE_LOOP('',(#323,#324,#325,#326));
#156=EDGE_LOOP('',(#327,#328,#329,#330));
#157=EDGE_LOOP('',(#331,#332,#333,#334));
#158=EDGE_LOOP('',(#335,#336,#337,#338));
#159=EDGE_LOOP('',(#339,#340,#341,#342,#343,#344,#345,#346,#347,#348,#349,
#350,#351,#352,#353,#354));
#160=EDGE_LOOP('',(#355,#356,#357));
#161=EDGE_LOOP('',(#358,#359,#360,#361,#362,#363));
#162=EDGE_LOOP('',(#364,#365,#366,#367,#368,#369));
#163=EDGE_LOOP('',(#370,#371,#372,#373,#374,#375));
#164=EDGE_LOOP('',(#376,#377,#378,#379,#380,#381,#382));
#165=EDGE_LOOP('',(#383,#384,#385,#386,#387,#388,#389));
#166=EDGE_LOOP('',(#390,#391,#392,#393));
#167=EDGE_LOOP('',(#394,#395,#396));
#168=EDGE_LOOP('',(#397,#398,#399));
#169=EDGE_LOOP('',(#400,#401,#402,#403,#404,#405,#406,#407,#408,#409,#410,
#411,#412,#413,#414,#415,#416,#417,#418,#419,#420,#421));
#170=EDGE_LOOP('',(#422,#423,#424,#425));
#171=EDGE_LOOP('',(#426,#427,#428));
#172=EDGE_LOOP('',(#429,#430,#431));
#173=EDGE_LOOP('',(#432,#433,#434));
#174=EDGE_LOOP('',(#435,#436,#437,#438));
#175=EDGE_LOOP('',(#439,#440,#441));
#176=EDGE_LOOP('',(#442,#443,#444));
#177=EDGE_LOOP('',(#445,#446,#447));
#178=EDGE_LOOP('',(#448,#449,#450,#451));
#179=EDGE_LOOP('',(#452,#453,#454));
#180=EDGE_LOOP('',(#455,#456,#457));
#181=EDGE_LOOP('',(#458,#459,#460));
#182=EDGE_LOOP('',(#461,#462,#463,#464));
#183=EDGE_LOOP('',(#465,#466,#467));
#184=EDGE_LOOP('',(#468,#469,#470));
#185=ORIENTED_EDGE('',*,*,#473,.F.);
#186=ORIENTED_EDGE('',*,*,#471,.T.);
#187=ORIENTED_EDGE('',*,*,#593,.T.);
#188=ORIENTED_EDGE('',*,*,#594,.F.);
#189=ORIENTED_EDGE('',*,*,#475,.T.);
#190=ORIENTED_EDGE('',*,*,#579,.T.);
#191=ORIENTED_EDGE('',*,*,#476,.T.);
#192=ORIENTED_EDGE('',*,*,#477,.F.);
#193=ORIENTED_EDGE('',*,*,#472,.F.);
#194=ORIENTED_EDGE('',*,*,#593,.F.);
#195=ORIENTED_EDGE('',*,*,#579,.F.);
#196=ORIENTED_EDGE('',*,*,#478,.T.);
#197=ORIENTED_EDGE('',*,*,#580,.T.);
#198=ORIENTED_EDGE('',*,*,#480,.F.);
#199=ORIENTED_EDGE('',*,*,#481,.T.);
#200=ORIENTED_EDGE('',*,*,#586,.T.);
#201=ORIENTED_EDGE('',*,*,#482,.T.);
#202=ORIENTED_EDGE('',*,*,#483,.F.);
#203=ORIENTED_EDGE('',*,*,#479,.F.);
#204=ORIENTED_EDGE('',*,*,#580,.F.);
#205=ORIENTED_EDGE('',*,*,#586,.F.);
#206=ORIENTED_EDGE('',*,*,#484,.T.);
#207=ORIENTED_EDGE('',*,*,#587,.T.);
#208=ORIENTED_EDGE('',*,*,#486,.F.);
#209=ORIENTED_EDGE('',*,*,#487,.T.);
#210=ORIENTED_EDGE('',*,*,#600,.T.);
#211=ORIENTED_EDGE('',*,*,#488,.T.);
#212=ORIENTED_EDGE('',*,*,#489,.F.);
#213=ORIENTED_EDGE('',*,*,#485,.F.);
#214=ORIENTED_EDGE('',*,*,#587,.F.);
#215=ORIENTED_EDGE('',*,*,#600,.F.);
#216=ORIENTED_EDGE('',*,*,#490,.T.);
#217=ORIENTED_EDGE('',*,*,#601,.T.);
#218=ORIENTED_EDGE('',*,*,#492,.F.);
#219=ORIENTED_EDGE('',*,*,#493,.T.);
#220=ORIENTED_EDGE('',*,*,#607,.T.);
#221=ORIENTED_EDGE('',*,*,#494,.T.);
#222=ORIENTED_EDGE('',*,*,#495,.F.);
#223=ORIENTED_EDGE('',*,*,#491,.F.);
#224=ORIENTED_EDGE('',*,*,#601,.F.);
#225=ORIENTED_EDGE('',*,*,#607,.F.);
#226=ORIENTED_EDGE('',*,*,#496,.T.);
#227=ORIENTED_EDGE('',*,*,#608,.T.);
#228=ORIENTED_EDGE('',*,*,#498,.F.);
#229=ORIENTED_EDGE('',*,*,#499,.T.);
#230=ORIENTED_EDGE('',*,*,#500,.T.);
#231=ORIENTED_EDGE('',*,*,#501,.F.);
#232=ORIENTED_EDGE('',*,*,#497,.F.);
#233=ORIENTED_EDGE('',*,*,#608,.F.);
#234=ORIENTED_EDGE('',*,*,#502,.T.);
#235=ORIENTED_EDGE('',*,*,#503,.T.);
#236=ORIENTED_EDGE('',*,*,#504,.F.);
#237=ORIENTED_EDGE('',*,*,#500,.F.);
#238=ORIENTED_EDGE('',*,*,#505,.T.);
#239=ORIENTED_EDGE('',*,*,#506,.T.);
#240=ORIENTED_EDGE('',*,*,#507,.F.);
#241=ORIENTED_EDGE('',*,*,#503,.F.);
#242=ORIENTED_EDGE('',*,*,#510,.T.);
#243=ORIENTED_EDGE('',*,*,#511,.T.);
#244=ORIENTED_EDGE('',*,*,#512,.F.);
#245=ORIENTED_EDGE('',*,*,#509,.F.);
#246=ORIENTED_EDGE('',*,*,#515,.T.);
#247=ORIENTED_EDGE('',*,*,#516,.T.);
#248=ORIENTED_EDGE('',*,*,#517,.F.);
#249=ORIENTED_EDGE('',*,*,#514,.F.);
#250=ORIENTED_EDGE('',*,*,#520,.T.);
#251=ORIENTED_EDGE('',*,*,#521,.T.);
#252=ORIENTED_EDGE('',*,*,#522,.F.);
#253=ORIENTED_EDGE('',*,*,#519,.F.);
#254=ORIENTED_EDGE('',*,*,#525,.T.);
#255=ORIENTED_EDGE('',*,*,#526,.T.);
#256=ORIENTED_EDGE('',*,*,#527,.F.);
#257=ORIENTED_EDGE('',*,*,#524,.F.);
#258=ORIENTED_EDGE('',*,*,#530,.T.);
#259=ORIENTED_EDGE('',*,*,#531,.T.);
#260=ORIENTED_EDGE('',*,*,#532,.F.);
#261=ORIENTED_EDGE('',*,*,#529,.F.);
#262=ORIENTED_EDGE('',*,*,#533,.T.);
#263=ORIENTED_EDGE('',*,*,#534,.T.);
#264=ORIENTED_EDGE('',*,*,#535,.F.);
#265=ORIENTED_EDGE('',*,*,#531,.F.);
#266=ORIENTED_EDGE('',*,*,#536,.T.);
#267=ORIENTED_EDGE('',*,*,#473,.T.);
#268=ORIENTED_EDGE('',*,*,#474,.T.);
#269=ORIENTED_EDGE('',*,*,#537,.F.);
#270=ORIENTED_EDGE('',*,*,#534,.F.);
#271=ORIENTED_EDGE('',*,*,#536,.F.);
#272=ORIENTED_EDGE('',*,*,#533,.F.);
#273=ORIENTED_EDGE('',*,*,#530,.F.);
#274=ORIENTED_EDGE('',*,*,#528,.F.);
#275=ORIENTED_EDGE('',*,*,#525,.F.);
#276=ORIENTED_EDGE('',*,*,#523,.F.);
#277=ORIENTED_EDGE('',*,*,#520,.F.);
#278=ORIENTED_EDGE('',*,*,#518,.F.);
#279=ORIENTED_EDGE('',*,*,#515,.F.);
#280=ORIENTED_EDGE('',*,*,#513,.F.);
#281=ORIENTED_EDGE('',*,*,#510,.F.);
#282=ORIENTED_EDGE('',*,*,#508,.F.);
#283=ORIENTED_EDGE('',*,*,#505,.F.);
#284=ORIENTED_EDGE('',*,*,#502,.F.);
#285=ORIENTED_EDGE('',*,*,#499,.F.);
#286=ORIENTED_EDGE('',*,*,#496,.F.);
#287=ORIENTED_EDGE('',*,*,#493,.F.);
#288=ORIENTED_EDGE('',*,*,#490,.F.);
#289=ORIENTED_EDGE('',*,*,#487,.F.);
#290=ORIENTED_EDGE('',*,*,#484,.F.);
#291=ORIENTED_EDGE('',*,*,#481,.F.);
#292=ORIENTED_EDGE('',*,*,#478,.F.);
#293=ORIENTED_EDGE('',*,*,#475,.F.);
#294=ORIENTED_EDGE('',*,*,#471,.F.);
#295=ORIENTED_EDGE('',*,*,#512,.T.);
#296=ORIENTED_EDGE('',*,*,#542,.T.);
#297=ORIENTED_EDGE('',*,*,#543,.F.);
#298=ORIENTED_EDGE('',*,*,#539,.F.);
#299=ORIENTED_EDGE('',*,*,#517,.T.);
#300=ORIENTED_EDGE('',*,*,#546,.T.);
#301=ORIENTED_EDGE('',*,*,#547,.F.);
#302=ORIENTED_EDGE('',*,*,#544,.F.);
#303=ORIENTED_EDGE('',*,*,#522,.T.);
#304=ORIENTED_EDGE('',*,*,#550,.T.);
#305=ORIENTED_EDGE('',*,*,#551,.F.);
#306=ORIENTED_EDGE('',*,*,#548,.F.);
#307=ORIENTED_EDGE('',*,*,#527,.T.);
#308=ORIENTED_EDGE('',*,*,#554,.T.);
#309=ORIENTED_EDGE('',*,*,#555,.F.);
#310=ORIENTED_EDGE('',*,*,#552,.F.);
#311=ORIENTED_EDGE('',*,*,#558,.T.);
#312=ORIENTED_EDGE('',*,*,#559,.T.);
#313=ORIENTED_EDGE('',*,*,#560,.F.);
#314=ORIENTED_EDGE('',*,*,#556,.F.);
#315=ORIENTED_EDGE('',*,*,#561,.T.);
#316=ORIENTED_EDGE('',*,*,#562,.T.);
#317=ORIENTED_EDGE('',*,*,#563,.F.);
#318=ORIENTED_EDGE('',*,*,#559,.F.);
#319=ORIENTED_EDGE('',*,*,#564,.T.);
#320=ORIENTED_EDGE('',*,*,#565,.T.);
#321=ORIENTED_EDGE('',*,*,#566,.F.);
#322=ORIENTED_EDGE('',*,*,#562,.F.);
#323=ORIENTED_EDGE('',*,*,#567,.T.);
#324=ORIENTED_EDGE('',*,*,#568,.T.);
#325=ORIENTED_EDGE('',*,*,#569,.F.);
#326=ORIENTED_EDGE('',*,*,#565,.F.);
#327=ORIENTED_EDGE('',*,*,#570,.T.);
#328=ORIENTED_EDGE('',*,*,#571,.T.);
#329=ORIENTED_EDGE('',*,*,#572,.F.);
#330=ORIENTED_EDGE('',*,*,#568,.F.);
#331=ORIENTED_EDGE('',*,*,#573,.T.);
#332=ORIENTED_EDGE('',*,*,#574,.T.);
#333=ORIENTED_EDGE('',*,*,#575,.F.);
#334=ORIENTED_EDGE('',*,*,#571,.F.);
#335=ORIENTED_EDGE('',*,*,#576,.T.);
#336=ORIENTED_EDGE('',*,*,#541,.T.);
#337=ORIENTED_EDGE('',*,*,#577,.F.);
#338=ORIENTED_EDGE('',*,*,#574,.F.);
#339=ORIENTED_EDGE('',*,*,#540,.T.);
#340=ORIENTED_EDGE('',*,*,#543,.T.);
#341=ORIENTED_EDGE('',*,*,#545,.T.);
#342=ORIENTED_EDGE('',*,*,#547,.T.);
#343=ORIENTED_EDGE('',*,*,#549,.T.);
#344=ORIENTED_EDGE('',*,*,#551,.T.);
#345=ORIENTED_EDGE('',*,*,#553,.T.);
#346=ORIENTED_EDGE('',*,*,#555,.T.);
#347=ORIENTED_EDGE('',*,*,#557,.T.);
#348=ORIENTED_EDGE('',*,*,#560,.T.);
#349=ORIENTED_EDGE('',*,*,#563,.T.);
#350=ORIENTED_EDGE('',*,*,#566,.T.);
#351=ORIENTED_EDGE('',*,*,#569,.T.);
#352=ORIENTED_EDGE('',*,*,#572,.T.);
#353=ORIENTED_EDGE('',*,*,#575,.T.);
#354=ORIENTED_EDGE('',*,*,#577,.T.);
#355=ORIENTED_EDGE('',*,*,#595,.T.);
#356=ORIENTED_EDGE('',*,*,#477,.T.);
#357=ORIENTED_EDGE('',*,*,#582,.F.);
#358=ORIENTED_EDGE('',*,*,#523,.T.);
#359=ORIENTED_EDGE('',*,*,#524,.T.);
#360=ORIENTED_EDGE('',*,*,#552,.T.);
#361=ORIENTED_EDGE('',*,*,#553,.F.);
#362=ORIENTED_EDGE('',*,*,#550,.F.);
#363=ORIENTED_EDGE('',*,*,#521,.F.);
#364=ORIENTED_EDGE('',*,*,#544,.T.);
#365=ORIENTED_EDGE('',*,*,#545,.F.);
#366=ORIENTED_EDGE('',*,*,#542,.F.);
#367=ORIENTED_EDGE('',*,*,#511,.F.);
#368=ORIENTED_EDGE('',*,*,#513,.T.);
#369=ORIENTED_EDGE('',*,*,#514,.T.);
#370=ORIENTED_EDGE('',*,*,#548,.T.);
#371=ORIENTED_EDGE('',*,*,#549,.F.);
#372=ORIENTED_EDGE('',*,*,#546,.F.);
#373=ORIENTED_EDGE('',*,*,#516,.F.);
#374=ORIENTED_EDGE('',*,*,#518,.T.);
#375=ORIENTED_EDGE('',*,*,#519,.T.);
#376=ORIENTED_EDGE('',*,*,#578,.T.);
#377=ORIENTED_EDGE('',*,*,#556,.T.);
#378=ORIENTED_EDGE('',*,*,#557,.F.);
#379=ORIENTED_EDGE('',*,*,#554,.F.);
#380=ORIENTED_EDGE('',*,*,#526,.F.);
#381=ORIENTED_EDGE('',*,*,#528,.T.);
#382=ORIENTED_EDGE('',*,*,#529,.T.);
#383=ORIENTED_EDGE('',*,*,#538,.T.);
#384=ORIENTED_EDGE('',*,*,#506,.F.);
#385=ORIENTED_EDGE('',*,*,#508,.T.);
#386=ORIENTED_EDGE('',*,*,#509,.T.);
#387=ORIENTED_EDGE('',*,*,#539,.T.);
#388=ORIENTED_EDGE('',*,*,#540,.F.);
#389=ORIENTED_EDGE('',*,*,#541,.F.);
#390=ORIENTED_EDGE('',*,*,#480,.T.);
#391=ORIENTED_EDGE('',*,*,#585,.T.);
#392=ORIENTED_EDGE('',*,*,#583,.F.);
#393=ORIENTED_EDGE('',*,*,#584,.F.);
#394=ORIENTED_EDGE('',*,*,#476,.F.);
#395=ORIENTED_EDGE('',*,*,#584,.T.);
#396=ORIENTED_EDGE('',*,*,#582,.T.);
#397=ORIENTED_EDGE('',*,*,#581,.F.);
#398=ORIENTED_EDGE('',*,*,#585,.F.);
#399=ORIENTED_EDGE('',*,*,#479,.T.);
#400=ORIENTED_EDGE('',*,*,#609,.T.);
#401=ORIENTED_EDGE('',*,*,#501,.T.);
#402=ORIENTED_EDGE('',*,*,#504,.T.);
#403=ORIENTED_EDGE('',*,*,#507,.T.);
#404=ORIENTED_EDGE('',*,*,#538,.F.);
#405=ORIENTED_EDGE('',*,*,#576,.F.);
#406=ORIENTED_EDGE('',*,*,#573,.F.);
#407=ORIENTED_EDGE('',*,*,#570,.F.);
#408=ORIENTED_EDGE('',*,*,#567,.F.);
#409=ORIENTED_EDGE('',*,*,#564,.F.);
#410=ORIENTED_EDGE('',*,*,#561,.F.);
#411=ORIENTED_EDGE('',*,*,#558,.F.);
#412=ORIENTED_EDGE('',*,*,#578,.F.);
#413=ORIENTED_EDGE('',*,*,#532,.T.);
#414=ORIENTED_EDGE('',*,*,#535,.T.);
#415=ORIENTED_EDGE('',*,*,#537,.T.);
#416=ORIENTED_EDGE('',*,*,#596,.F.);
#417=ORIENTED_EDGE('',*,*,#597,.T.);
#418=ORIENTED_EDGE('',*,*,#583,.T.);
#419=ORIENTED_EDGE('',*,*,#590,.T.);
#420=ORIENTED_EDGE('',*,*,#604,.T.);
#421=ORIENTED_EDGE('',*,*,#611,.T.);
#422=ORIENTED_EDGE('',*,*,#486,.T.);
#423=ORIENTED_EDGE('',*,*,#592,.T.);
#424=ORIENTED_EDGE('',*,*,#590,.F.);
#425=ORIENTED_EDGE('',*,*,#591,.F.);
#426=ORIENTED_EDGE('',*,*,#482,.F.);
#427=ORIENTED_EDGE('',*,*,#591,.T.);
#428=ORIENTED_EDGE('',*,*,#589,.T.);
#429=ORIENTED_EDGE('',*,*,#588,.F.);
#430=ORIENTED_EDGE('',*,*,#592,.F.);
#431=ORIENTED_EDGE('',*,*,#485,.T.);
#432=ORIENTED_EDGE('',*,*,#588,.T.);
#433=ORIENTED_EDGE('',*,*,#489,.T.);
#434=ORIENTED_EDGE('',*,*,#603,.F.);
#435=ORIENTED_EDGE('',*,*,#594,.T.);
#436=ORIENTED_EDGE('',*,*,#598,.T.);
#437=ORIENTED_EDGE('',*,*,#597,.F.);
#438=ORIENTED_EDGE('',*,*,#599,.F.);
#439=ORIENTED_EDGE('',*,*,#595,.F.);
#440=ORIENTED_EDGE('',*,*,#598,.F.);
#441=ORIENTED_EDGE('',*,*,#472,.T.);
#442=ORIENTED_EDGE('',*,*,#474,.F.);
#443=ORIENTED_EDGE('',*,*,#599,.T.);
#444=ORIENTED_EDGE('',*,*,#596,.T.);
#445=ORIENTED_EDGE('',*,*,#602,.T.);
#446=ORIENTED_EDGE('',*,*,#495,.T.);
#447=ORIENTED_EDGE('',*,*,#610,.F.);
#448=ORIENTED_EDGE('',*,*,#492,.T.);
#449=ORIENTED_EDGE('',*,*,#606,.T.);
#450=ORIENTED_EDGE('',*,*,#604,.F.);
#451=ORIENTED_EDGE('',*,*,#605,.T.);
#452=ORIENTED_EDGE('',*,*,#488,.F.);
#453=ORIENTED_EDGE('',*,*,#605,.F.);
#454=ORIENTED_EDGE('',*,*,#603,.T.);
#455=ORIENTED_EDGE('',*,*,#602,.F.);
#456=ORIENTED_EDGE('',*,*,#606,.F.);
#457=ORIENTED_EDGE('',*,*,#491,.T.);
#458=ORIENTED_EDGE('',*,*,#581,.T.);
#459=ORIENTED_EDGE('',*,*,#483,.T.);
#460=ORIENTED_EDGE('',*,*,#589,.F.);
#461=ORIENTED_EDGE('',*,*,#498,.T.);
#462=ORIENTED_EDGE('',*,*,#613,.T.);
#463=ORIENTED_EDGE('',*,*,#611,.F.);
#464=ORIENTED_EDGE('',*,*,#612,.T.);
#465=ORIENTED_EDGE('',*,*,#494,.F.);
#466=ORIENTED_EDGE('',*,*,#612,.F.);
#467=ORIENTED_EDGE('',*,*,#610,.T.);
#468=ORIENTED_EDGE('',*,*,#609,.F.);
#469=ORIENTED_EDGE('',*,*,#613,.F.);
#470=ORIENTED_EDGE('',*,*,#497,.T.);
#471=EDGE_CURVE('',#803,#804,#728,.T.);
#472=EDGE_CURVE('',#883,#805,#729,.T.);
#473=EDGE_CURVE('',#803,#882,#730,.T.);
#474=EDGE_CURVE('',#882,#806,#731,.T.);
#475=EDGE_CURVE('',#804,#807,#636,.T.);
#476=EDGE_CURVE('',#875,#808,#614,.T.);
#477=EDGE_CURVE('',#805,#808,#637,.T.);
#478=EDGE_CURVE('',#807,#809,#732,.T.);
#479=EDGE_CURVE('',#876,#810,#733,.T.);
#480=EDGE_CURVE('',#875,#876,#734,.T.);
#481=EDGE_CURVE('',#809,#811,#638,.T.);
#482=EDGE_CURVE('',#879,#812,#615,.T.);
#483=EDGE_CURVE('',#810,#812,#639,.T.);
#484=EDGE_CURVE('',#811,#813,#735,.T.);
#485=EDGE_CURVE('',#880,#814,#736,.T.);
#486=EDGE_CURVE('',#879,#880,#737,.T.);
#487=EDGE_CURVE('',#813,#815,#640,.T.);
#488=EDGE_CURVE('',#885,#816,#616,.T.);
#489=EDGE_CURVE('',#814,#816,#641,.T.);
#490=EDGE_CURVE('',#815,#817,#738,.T.);
#491=EDGE_CURVE('',#886,#818,#739,.T.);
#492=EDGE_CURVE('',#885,#886,#740,.T.);
#493=EDGE_CURVE('',#817,#819,#642,.T.);
#494=EDGE_CURVE('',#888,#820,#617,.T.);
#495=EDGE_CURVE('',#818,#820,#643,.T.);
#496=EDGE_CURVE('',#819,#821,#741,.T.);
#497=EDGE_CURVE('',#889,#822,#742,.T.);
#498=EDGE_CURVE('',#888,#889,#743,.T.);
#499=EDGE_CURVE('',#821,#823,#644,.T.);
#500=EDGE_CURVE('',#823,#824,#618,.T.);
#501=EDGE_CURVE('',#822,#824,#645,.T.);
#502=EDGE_CURVE('',#823,#825,#744,.T.);
#503=EDGE_CURVE('',#825,#826,#745,.T.);
#504=EDGE_CURVE('',#824,#826,#746,.T.);
#505=EDGE_CURVE('',#825,#827,#646,.T.);
#506=EDGE_CURVE('',#827,#828,#619,.T.);
#507=EDGE_CURVE('',#826,#828,#647,.T.);
#508=EDGE_CURVE('',#827,#829,#747,.T.);
#509=EDGE_CURVE('',#829,#830,#748,.T.);
#510=EDGE_CURVE('',#829,#831,#648,.T.);
#511=EDGE_CURVE('',#831,#832,#620,.T.);
#512=EDGE_CURVE('',#830,#832,#649,.T.);
#513=EDGE_CURVE('',#831,#833,#749,.T.);
#514=EDGE_CURVE('',#833,#834,#750,.T.);
#515=EDGE_CURVE('',#833,#835,#650,.T.);
#516=EDGE_CURVE('',#835,#836,#621,.T.);
#517=EDGE_CURVE('',#834,#836,#651,.T.);
#518=EDGE_CURVE('',#835,#837,#751,.T.);
#519=EDGE_CURVE('',#837,#838,#752,.T.);
#520=EDGE_CURVE('',#837,#839,#652,.T.);
#521=EDGE_CURVE('',#839,#840,#622,.T.);
#522=EDGE_CURVE('',#838,#840,#653,.T.);
#523=EDGE_CURVE('',#839,#841,#753,.T.);
#524=EDGE_CURVE('',#841,#842,#754,.T.);
#525=EDGE_CURVE('',#841,#843,#654,.T.);
#526=EDGE_CURVE('',#843,#844,#623,.T.);
#527=EDGE_CURVE('',#842,#844,#655,.T.);
#528=EDGE_CURVE('',#843,#845,#755,.T.);
#529=EDGE_CURVE('',#845,#846,#756,.T.);
#530=EDGE_CURVE('',#845,#847,#656,.T.);
#531=EDGE_CURVE('',#847,#848,#624,.T.);
#532=EDGE_CURVE('',#846,#848,#657,.T.);
#533=EDGE_CURVE('',#847,#849,#757,.T.);
#534=EDGE_CURVE('',#849,#850,#758,.T.);
#535=EDGE_CURVE('',#848,#850,#759,.T.);
#536=EDGE_CURVE('',#849,#803,#658,.T.);
#537=EDGE_CURVE('',#850,#806,#659,.T.);
#538=EDGE_CURVE('',#851,#828,#760,.T.);
#539=EDGE_CURVE('',#830,#852,#761,.T.);
#540=EDGE_CURVE('',#853,#852,#762,.T.);
#541=EDGE_CURVE('',#851,#853,#763,.T.);
#542=EDGE_CURVE('',#832,#854,#625,.T.);
#543=EDGE_CURVE('',#852,#854,#660,.T.);
#544=EDGE_CURVE('',#834,#855,#764,.T.);
#545=EDGE_CURVE('',#854,#855,#765,.T.);
#546=EDGE_CURVE('',#836,#856,#626,.T.);
#547=EDGE_CURVE('',#855,#856,#661,.T.);
#548=EDGE_CURVE('',#838,#857,#766,.T.);
#549=EDGE_CURVE('',#856,#857,#767,.T.);
#550=EDGE_CURVE('',#840,#858,#627,.T.);
#551=EDGE_CURVE('',#857,#858,#662,.T.);
#552=EDGE_CURVE('',#842,#859,#768,.T.);
#553=EDGE_CURVE('',#858,#859,#769,.T.);
#554=EDGE_CURVE('',#844,#860,#628,.T.);
#555=EDGE_CURVE('',#859,#860,#663,.T.);
#556=EDGE_CURVE('',#861,#862,#770,.T.);
#557=EDGE_CURVE('',#860,#862,#771,.T.);
#558=EDGE_CURVE('',#861,#863,#664,.T.);
#559=EDGE_CURVE('',#863,#864,#629,.T.);
#560=EDGE_CURVE('',#862,#864,#665,.T.);
#561=EDGE_CURVE('',#863,#865,#772,.T.);
#562=EDGE_CURVE('',#865,#866,#773,.T.);
#563=EDGE_CURVE('',#864,#866,#774,.T.);
#564=EDGE_CURVE('',#865,#867,#666,.T.);
#565=EDGE_CURVE('',#867,#868,#630,.T.);
#566=EDGE_CURVE('',#866,#868,#667,.T.);
#567=EDGE_CURVE('',#867,#869,#775,.T.);
#568=EDGE_CURVE('',#869,#870,#776,.T.);
#569=EDGE_CURVE('',#868,#870,#777,.T.);
#570=EDGE_CURVE('',#869,#871,#668,.T.);
#571=EDGE_CURVE('',#871,#872,#631,.T.);
#572=EDGE_CURVE('',#870,#872,#669,.T.);
#573=EDGE_CURVE('',#871,#873,#778,.T.);
#574=EDGE_CURVE('',#873,#874,#779,.T.);
#575=EDGE_CURVE('',#872,#874,#780,.T.);
#576=EDGE_CURVE('',#873,#851,#670,.T.);
#577=EDGE_CURVE('',#874,#853,#671,.T.);
#578=EDGE_CURVE('',#846,#861,#781,.T.);
#579=EDGE_CURVE('',#807,#875,#632,.T.);
#580=EDGE_CURVE('',#809,#876,#782,.T.);
#581=EDGE_CURVE('',#877,#810,#783,.T.);
#582=EDGE_CURVE('',#878,#808,#784,.T.);
#583=EDGE_CURVE('',#878,#877,#785,.T.);
#584=EDGE_CURVE('',#875,#878,#672,.T.);
#585=EDGE_CURVE('',#876,#877,#673,.T.);
#586=EDGE_CURVE('',#811,#879,#633,.T.);
#587=EDGE_CURVE('',#813,#880,#786,.T.);
#588=EDGE_CURVE('',#881,#814,#787,.T.);
#589=EDGE_CURVE('',#877,#812,#788,.T.);
#590=EDGE_CURVE('',#877,#881,#789,.T.);
#591=EDGE_CURVE('',#879,#877,#674,.T.);
#592=EDGE_CURVE('',#880,#881,#675,.T.);
#593=EDGE_CURVE('',#804,#883,#790,.T.);
#594=EDGE_CURVE('',#882,#883,#791,.T.);
#595=EDGE_CURVE('',#878,#805,#792,.T.);
#596=EDGE_CURVE('',#884,#806,#793,.T.);
#597=EDGE_CURVE('',#884,#878,#794,.T.);
#598=EDGE_CURVE('',#883,#878,#676,.T.);
#599=EDGE_CURVE('',#882,#884,#677,.T.);
#600=EDGE_CURVE('',#815,#885,#634,.T.);
#601=EDGE_CURVE('',#817,#886,#795,.T.);
#602=EDGE_CURVE('',#887,#818,#796,.T.);
#603=EDGE_CURVE('',#881,#816,#797,.T.);
#604=EDGE_CURVE('',#881,#887,#798,.T.);
#605=EDGE_CURVE('',#881,#885,#678,.T.);
#606=EDGE_CURVE('',#886,#887,#679,.T.);
#607=EDGE_CURVE('',#819,#888,#635,.T.);
#608=EDGE_CURVE('',#821,#889,#799,.T.);
#609=EDGE_CURVE('',#890,#822,#800,.T.);
#610=EDGE_CURVE('',#887,#820,#801,.T.);
#611=EDGE_CURVE('',#887,#890,#802,.T.);
#612=EDGE_CURVE('',#887,#888,#680,.T.);
#613=EDGE_CURVE('',#889,#890,#681,.T.);
#614=(
BOUNDED_CURVE()
B_SPLINE_CURVE(1,(#1450,#1451),.UNSPECIFIED.,.F.,.F.)
B_SPLINE_CURVE_WITH_KNOTS((2,2),(169.,170.),.UNSPECIFIED.)
CURVE()
GEOMETRIC_REPRESENTATION_ITEM()
RATIONAL_B_SPLINE_CURVE((1.,1.))
REPRESENTATION_ITEM('')
);
#615=(
BOUNDED_CURVE()
B_SPLINE_CURVE(1,(#1464,#1465),.UNSPECIFIED.,.F.,.F.)
B_SPLINE_CURVE_WITH_KNOTS((2,2),(169.,170.),.UNSPECIFIED.)
CURVE()
GEOMETRIC_REPRESENTATION_ITEM()
RATIONAL_B_SPLINE_CURVE((1.,1.))
REPRESENTATION_ITEM('')
);
#616=(
BOUNDED_CURVE()
B_SPLINE_CURVE(1,(#1478,#1479),.UNSPECIFIED.,.F.,.F.)
B_SPLINE_CURVE_WITH_KNOTS((2,2),(169.,170.),.UNSPECIFIED.)
CURVE()
GEOMETRIC_REPRESENTATION_ITEM()
RATIONAL_B_SPLINE_CURVE((1.,1.))
REPRESENTATION_ITEM('')
);
#617=(
BOUNDED_CURVE()
B_SPLINE_CURVE(1,(#1492,#1493),.UNSPECIFIED.,.F.,.F.)
B_SPLINE_CURVE_WITH_KNOTS((2,2),(169.,170.),.UNSPECIFIED.)
CURVE()
GEOMETRIC_REPRESENTATION_ITEM()
RATIONAL_B_SPLINE_CURVE((1.,1.))
REPRESENTATION_ITEM('')
);
#618=(
BOUNDED_CURVE()
B_SPLINE_CURVE(1,(#1506,#1507),.UNSPECIFIED.,.F.,.F.)
B_SPLINE_CURVE_WITH_KNOTS((2,2),(0.,170.),.UNSPECIFIED.)
CURVE()
GEOMETRIC_REPRESENTATION_ITEM()
RATIONAL_B_SPLINE_CURVE((1.,1.))
REPRESENTATION_ITEM('')
);
#619=(
BOUNDED_CURVE()
B_SPLINE_CURVE(1,(#1520,#1521),.UNSPECIFIED.,.F.,.F.)
B_SPLINE_CURVE_WITH_KNOTS((2,2),(0.,170.),.UNSPECIFIED.)
CURVE()
GEOMETRIC_REPRESENTATION_ITEM()
RATIONAL_B_SPLINE_CURVE((1.,1.))
REPRESENTATION_ITEM('')
);
#620=(
BOUNDED_CURVE()
B_SPLINE_CURVE(1,(#1533,#1534),.UNSPECIFIED.,.F.,.F.)
B_SPLINE_CURVE_WITH_KNOTS((2,2),(0.,170.),.UNSPECIFIED.)
CURVE()
GEOMETRIC_REPRESENTATION_ITEM()
RATIONAL_B_SPLINE_CURVE((1.,1.))
REPRESENTATION_ITEM('')
);
#621=(
BOUNDED_CURVE()
B_SPLINE_CURVE(1,(#1546,#1547),.UNSPECIFIED.,.F.,.F.)
B_SPLINE_CURVE_WITH_KNOTS((2,2),(0.,170.),.UNSPECIFIED.)
CURVE()
GEOMETRIC_REPRESENTATION_ITEM()
RATIONAL_B_SPLINE_CURVE((1.,1.))
REPRESENTATION_ITEM('')
);
#622=(
BOUNDED_CURVE()
B_SPLINE_CURVE(1,(#1559,#1560),.UNSPECIFIED.,.F.,.F.)
B_SPLINE_CURVE_WITH_KNOTS((2,2),(0.,170.),.UNSPECIFIED.)
CURVE()
GEOMETRIC_REPRESENTATION_ITEM()
RATIONAL_B_SPLINE_CURVE((1.,1.))
REPRESENTATION_ITEM('')
);
#623=(
BOUNDED_CURVE()
B_SPLINE_CURVE(1,(#1571,#1572),.UNSPECIFIED.,.F.,.F.)
B_SPLINE_CURVE_WITH_KNOTS((2,2),(0.,170.),.UNSPECIFIED.)
CURVE()
GEOMETRIC_REPRESENTATION_ITEM()
RATIONAL_B_SPLINE_CURVE((1.,1.))
REPRESENTATION_ITEM('')
);
#624=(
BOUNDED_CURVE()
B_SPLINE_CURVE(1,(#1584,#1585),.UNSPECIFIED.,.F.,.F.)
B_SPLINE_CURVE_WITH_KNOTS((2,2),(0.,170.),.UNSPECIFIED.)
CURVE()
GEOMETRIC_REPRESENTATION_ITEM()
RATIONAL_B_SPLINE_CURVE((1.,1.))
REPRESENTATION_ITEM('')
);
#625=(
BOUNDED_CURVE()
B_SPLINE_CURVE(1,(#1609,#1610),.UNSPECIFIED.,.F.,.F.)
B_SPLINE_CURVE_WITH_KNOTS((2,2),(0.,3.),.UNSPECIFIED.)
CURVE()
GEOMETRIC_REPRESENTATION_ITEM()
RATIONAL_B_SPLINE_CURVE((1.,1.))
REPRESENTATION_ITEM('')
);
#626=(
BOUNDED_CURVE()
B_SPLINE_CURVE(1,(#1618,#1619),.UNSPECIFIED.,.F.,.F.)
B_SPLINE_CURVE_WITH_KNOTS((2,2),(0.,3.),.UNSPECIFIED.)
CURVE()
GEOMETRIC_REPRESENTATION_ITEM()
RATIONAL_B_SPLINE_CURVE((1.,1.))
REPRESENTATION_ITEM('')
);
#627=(
BOUNDED_CURVE()
B_SPLINE_CURVE(1,(#1627,#1628),.UNSPECIFIED.,.F.,.F.)
B_SPLINE_CURVE_WITH_KNOTS((2,2),(0.,3.),.UNSPECIFIED.)
CURVE()
GEOMETRIC_REPRESENTATION_ITEM()
RATIONAL_B_SPLINE_CURVE((1.,1.))
REPRESENTATION_ITEM('')
);
#628=(
BOUNDED_CURVE()
B_SPLINE_CURVE(1,(#1636,#1637),.UNSPECIFIED.,.F.,.F.)
B_SPLINE_CURVE_WITH_KNOTS((2,2),(0.,3.),.UNSPECIFIED.)
CURVE()
GEOMETRIC_REPRESENTATION_ITEM()
RATIONAL_B_SPLINE_CURVE((1.,1.))
REPRESENTATION_ITEM('')
);
#629=(
BOUNDED_CURVE()
B_SPLINE_CURVE(1,(#1648,#1649),.UNSPECIFIED.,.F.,.F.)
B_SPLINE_CURVE_WITH_KNOTS((2,2),(0.,3.),.UNSPECIFIED.)
CURVE()
GEOMETRIC_REPRESENTATION_ITEM()
RATIONAL_B_SPLINE_CURVE((1.,1.))
REPRESENTATION_ITEM('')
);
#630=(
BOUNDED_CURVE()
B_SPLINE_CURVE(1,(#1662,#1663),.UNSPECIFIED.,.F.,.F.)
B_SPLINE_CURVE_WITH_KNOTS((2,2),(0.,3.),.UNSPECIFIED.)
CURVE()
GEOMETRIC_REPRESENTATION_ITEM()
RATIONAL_B_SPLINE_CURVE((1.,1.))
REPRESENTATION_ITEM('')
);
#631=(
BOUNDED_CURVE()
B_SPLINE_CURVE(1,(#1676,#1677),.UNSPECIFIED.,.F.,.F.)
B_SPLINE_CURVE_WITH_KNOTS((2,2),(0.,3.),.UNSPECIFIED.)
CURVE()
GEOMETRIC_REPRESENTATION_ITEM()
RATIONAL_B_SPLINE_CURVE((1.,1.))
REPRESENTATION_ITEM('')
);
#632=(
BOUNDED_CURVE()
B_SPLINE_CURVE(1,(#1695,#1696),.UNSPECIFIED.,.F.,.F.)
B_SPLINE_CURVE_WITH_KNOTS((2,2),(0.,169.),.UNSPECIFIED.)
CURVE()
GEOMETRIC_REPRESENTATION_ITEM()
RATIONAL_B_SPLINE_CURVE((1.,1.))
REPRESENTATION_ITEM('')
);
#633=(
BOUNDED_CURVE()
B_SPLINE_CURVE(1,(#1711,#1712),.UNSPECIFIED.,.F.,.F.)
B_SPLINE_CURVE_WITH_KNOTS((2,2),(0.,169.),.UNSPECIFIED.)
CURVE()
GEOMETRIC_REPRESENTATION_ITEM()
RATIONAL_B_SPLINE_CURVE((1.,1.))
REPRESENTATION_ITEM('')
);
#634=(
BOUNDED_CURVE()
B_SPLINE_CURVE(1,(#1743,#1744),.UNSPECIFIED.,.F.,.F.)
B_SPLINE_CURVE_WITH_KNOTS((2,2),(0.,169.),.UNSPECIFIED.)
CURVE()
GEOMETRIC_REPRESENTATION_ITEM()
RATIONAL_B_SPLINE_CURVE((1.,1.))
REPRESENTATION_ITEM('')
);
#635=(
BOUNDED_CURVE()
B_SPLINE_CURVE(1,(#1759,#1760),.UNSPECIFIED.,.F.,.F.)
B_SPLINE_CURVE_WITH_KNOTS((2,2),(0.,169.),.UNSPECIFIED.)
CURVE()
GEOMETRIC_REPRESENTATION_ITEM()
RATIONAL_B_SPLINE_CURVE((1.,1.))
REPRESENTATION_ITEM('')
);
#636=TRIMMED_CURVE($,#682,(#1448),(#1449),.T.,.CARTESIAN.);
#637=TRIMMED_CURVE($,#683,(#1453),(#1454),.T.,.CARTESIAN.);
#638=TRIMMED_CURVE($,#684,(#1462),(#1463),.T.,.CARTESIAN.);
#639=TRIMMED_CURVE($,#685,(#1467),(#1468),.T.,.CARTESIAN.);
#640=TRIMMED_CURVE($,#686,(#1476),(#1477),.T.,.CARTESIAN.);
#641=TRIMMED_CURVE($,#687,(#1481),(#1482),.T.,.CARTESIAN.);
#642=TRIMMED_CURVE($,#688,(#1490),(#1491),.T.,.CARTESIAN.);
#643=TRIMMED_CURVE($,#689,(#1495),(#1496),.T.,.CARTESIAN.);
#644=TRIMMED_CURVE($,#690,(#1504),(#1505),.T.,.CARTESIAN.);
#645=TRIMMED_CURVE($,#691,(#1509),(#1510),.T.,.CARTESIAN.);
#646=TRIMMED_CURVE($,#692,(#1518),(#1519),.T.,.CARTESIAN.);
#647=TRIMMED_CURVE($,#693,(#1523),(#1524),.T.,.CARTESIAN.);
#648=TRIMMED_CURVE($,#694,(#1531),(#1532),.T.,.CARTESIAN.);
#649=TRIMMED_CURVE($,#695,(#1536),(#1537),.T.,.CARTESIAN.);
#650=TRIMMED_CURVE($,#696,(#1544),(#1545),.T.,.CARTESIAN.);
#651=TRIMMED_CURVE($,#697,(#1549),(#1550),.T.,.CARTESIAN.);
#652=TRIMMED_CURVE($,#698,(#1557),(#1558),.T.,.CARTESIAN.);
#653=TRIMMED_CURVE($,#699,(#1562),(#1563),.T.,.CARTESIAN.);
#654=TRIMMED_CURVE($,#700,(#1569),(#1570),.T.,.CARTESIAN.);
#655=TRIMMED_CURVE($,#701,(#1574),(#1575),.T.,.CARTESIAN.);
#656=TRIMMED_CURVE($,#702,(#1582),(#1583),.T.,.CARTESIAN.);
#657=TRIMMED_CURVE($,#703,(#1587),(#1588),.T.,.CARTESIAN.);
#658=TRIMMED_CURVE($,#704,(#1596),(#1597),.T.,.CARTESIAN.);
#659=TRIMMED_CURVE($,#705,(#1599),(#1600),.T.,.CARTESIAN.);
#660=TRIMMED_CURVE($,#706,(#1612),(#1613),.T.,.CARTESIAN.);
#661=TRIMMED_CURVE($,#707,(#1621),(#1622),.T.,.CARTESIAN.);
#662=TRIMMED_CURVE($,#708,(#1630),(#1631),.T.,.CARTESIAN.);
#663=TRIMMED_CURVE($,#709,(#1639),(#1640),.T.,.CARTESIAN.);
#664=TRIMMED_CURVE($,#710,(#1646),(#1647),.T.,.CARTESIAN.);
#665=TRIMMED_CURVE($,#711,(#1651),(#1652),.T.,.CARTESIAN.);
#666=TRIMMED_CURVE($,#712,(#1660),(#1661),.T.,.CARTESIAN.);
#667=TRIMMED_CURVE($,#713,(#1665),(#1666),.T.,.CARTESIAN.);
#668=TRIMMED_CURVE($,#714,(#1674),(#1675),.T.,.CARTESIAN.);
#669=TRIMMED_CURVE($,#715,(#1679),(#1680),.T.,.CARTESIAN.);
#670=TRIMMED_CURVE($,#716,(#1688),(#1689),.T.,.CARTESIAN.);
#671=TRIMMED_CURVE($,#717,(#1691),(#1692),.T.,.CARTESIAN.);
#672=TRIMMED_CURVE($,#718,(#1706),(#1707),.T.,.CARTESIAN.);
#673=TRIMMED_CURVE($,#719,(#1709),(#1710),.T.,.CARTESIAN.);
#674=TRIMMED_CURVE($,#720,(#1722),(#1723),.T.,.CARTESIAN.);
#675=TRIMMED_CURVE($,#721,(#1725),(#1726),.T.,.CARTESIAN.);
#676=TRIMMED_CURVE($,#722,(#1738),(#1739),.T.,.CARTESIAN.);
#677=TRIMMED_CURVE($,#723,(#1741),(#1742),.T.,.CARTESIAN.);
#678=TRIMMED_CURVE($,#724,(#1754),(#1755),.T.,.CARTESIAN.);
#679=TRIMMED_CURVE($,#725,(#1757),(#1758),.T.,.CARTESIAN.);
#680=TRIMMED_CURVE($,#726,(#1770),(#1771),.T.,.CARTESIAN.);
#681=TRIMMED_CURVE($,#727,(#1773),(#1774),.T.,.CARTESIAN.);
#682=CIRCLE('',#1093,1.00000000000001);
#683=CIRCLE('',#1094,1.);
#684=CIRCLE('',#1095,1.00000000000001);
#685=CIRCLE('',#1096,1.00000000000001);
#686=CIRCLE('',#1097,1.00000000000004);
#687=CIRCLE('',#1098,1.00000000000004);
#688=CIRCLE('',#1099,1.);
#689=CIRCLE('',#1100,1.);
#690=CIRCLE('',#1101,1.00000000000001);
#691=CIRCLE('',#1102,1.00000000000002);
#692=CIRCLE('',#1103,1.00000000000001);
#693=CIRCLE('',#1104,1.00000000000001);
#694=CIRCLE('',#1105,0.999999999999975);
#695=CIRCLE('',#1106,0.999999999999975);
#696=CIRCLE('',#1107,1.);
#697=CIRCLE('',#1108,1.);
#698=CIRCLE('',#1109,0.999999999999993);
#699=CIRCLE('',#1110,0.999999999999993);
#700=CIRCLE('',#1111,0.999999999999986);
#701=CIRCLE('',#1112,0.999999999999986);
#702=CIRCLE('',#1113,0.999999999999979);
#703=CIRCLE('',#1114,0.999999999999979);
#704=CIRCLE('',#1115,1.);
#705=CIRCLE('',#1116,1.);
#706=CIRCLE('',#1117,1.00000000000002);
#707=CIRCLE('',#1118,0.999999999999986);
#708=CIRCLE('',#1119,0.999999999999993);
#709=CIRCLE('',#1120,0.999999999999996);
#710=CIRCLE('',#1121,0.999999999999982);
#711=CIRCLE('',#1122,0.999999999999982);
#712=CIRCLE('',#1123,0.999999999999993);
#713=CIRCLE('',#1124,0.999999999999993);
#714=CIRCLE('',#1125,0.999999999999972);
#715=CIRCLE('',#1126,0.999999999999972);
#716=CIRCLE('',#1127,0.999999999999972);
#717=CIRCLE('',#1128,0.999999999999972);
#718=CIRCLE('',#1129,1.);
#719=CIRCLE('',#1130,0.999999999999979);
#720=CIRCLE('',#1131,1.);
#721=CIRCLE('',#1132,0.999999999999996);
#722=CIRCLE('',#1133,1.00000000000001);
#723=CIRCLE('',#1134,1.);
#724=CIRCLE('',#1135,1.);
#725=CIRCLE('',#1136,0.999999999999844);
#726=CIRCLE('',#1137,1.);
#727=CIRCLE('',#1138,0.999999999999986);
#728=B_SPLINE_CURVE_WITH_KNOTS('',1,(#1439,#1440),.UNSPECIFIED.,.F.,.F.,
(2,2),(2847.41150082346,2855.41150082346),.UNSPECIFIED.);
#729=B_SPLINE_CURVE_WITH_KNOTS('',1,(#1441,#1442),.UNSPECIFIED.,.F.,.F.,
(2,2),(169.,170.),.UNSPECIFIED.);
#730=B_SPLINE_CURVE_WITH_KNOTS('',1,(#1443,#1444),.UNSPECIFIED.,.F.,.F.,
(2,2),(0.,169.),.UNSPECIFIED.);
#731=B_SPLINE_CURVE_WITH_KNOTS('',1,(#1445,#1446),.UNSPECIFIED.,.F.,.F.,
(2,2),(169.,170.),.UNSPECIFIED.);
#732=B_SPLINE_CURVE_WITH_KNOTS('',1,(#1455,#1456),.UNSPECIFIED.,.F.,.F.,
(2,2),(2856.98229715026,2898.98229715026),.UNSPECIFIED.);
#733=B_SPLINE_CURVE_WITH_KNOTS('',1,(#1457,#1458),.UNSPECIFIED.,.F.,.F.,
(2,2),(169.,170.),.UNSPECIFIED.);
#734=B_SPLINE_CURVE_WITH_KNOTS('',1,(#1459,#1460),.UNSPECIFIED.,.F.,.F.,
(2,2),(0.,42.),.UNSPECIFIED.);
#735=B_SPLINE_CURVE_WITH_KNOTS('',1,(#1469,#1470),.UNSPECIFIED.,.F.,.F.,
(2,2),(2900.55309347705,2988.55309347705),.UNSPECIFIED.);
#736=B_SPLINE_CURVE_WITH_KNOTS('',1,(#1471,#1472),.UNSPECIFIED.,.F.,.F.,
(2,2),(169.,170.),.UNSPECIFIED.);
#737=B_SPLINE_CURVE_WITH_KNOTS('',1,(#1473,#1474),.UNSPECIFIED.,.F.,.F.,
(2,2),(7.105427357601E-15,88.),.UNSPECIFIED.);
#738=B_SPLINE_CURVE_WITH_KNOTS('',1,(#1483,#1484),.UNSPECIFIED.,.F.,.F.,
(2,2),(2990.12388980385,3032.12388980385),.UNSPECIFIED.);
#739=B_SPLINE_CURVE_WITH_KNOTS('',1,(#1485,#1486),.UNSPECIFIED.,.F.,.F.,
(2,2),(169.,170.),.UNSPECIFIED.);
#740=B_SPLINE_CURVE_WITH_KNOTS('',1,(#1487,#1488),.UNSPECIFIED.,.F.,.F.,
(2,2),(0.,42.),.UNSPECIFIED.);
#741=B_SPLINE_CURVE_WITH_KNOTS('',1,(#1497,#1498),.UNSPECIFIED.,.F.,.F.,
(2,2),(3033.69468613064,3036.69468613064),.UNSPECIFIED.);
#742=B_SPLINE_CURVE_WITH_KNOTS('',1,(#1499,#1500),.UNSPECIFIED.,.F.,.F.,
(2,2),(169.,170.),.UNSPECIFIED.);
#743=B_SPLINE_CURVE_WITH_KNOTS('',1,(#1501,#1502),.UNSPECIFIED.,.F.,.F.,
(2,2),(1.4210854715202E-14,3.00000000000045),.UNSPECIFIED.);
#744=B_SPLINE_CURVE_WITH_KNOTS('',1,(#1511,#1512),.UNSPECIFIED.,.F.,.F.,
(2,2),(3038.26548245744,3039.26548245744),.UNSPECIFIED.);
#745=B_SPLINE_CURVE_WITH_KNOTS('',1,(#1513,#1514),.UNSPECIFIED.,.F.,.F.,
(2,2),(0.,170.),.UNSPECIFIED.);
#746=B_SPLINE_CURVE_WITH_KNOTS('',1,(#1515,#1516),.UNSPECIFIED.,.F.,.F.,
(2,2),(3038.26548245744,3039.26548245744),.UNSPECIFIED.);
#747=B_SPLINE_CURVE_WITH_KNOTS('',1,(#1525,#1526,#1527),.UNSPECIFIED.,.F.,
 .F.,(2,1,2),(3040.83627878423,3044.83627878423,3046.83627878423),
 .UNSPECIFIED.);
#748=B_SPLINE_CURVE_WITH_KNOTS('',1,(#1528,#1529),.UNSPECIFIED.,.F.,.F.,
(2,2),(0.,170.),.UNSPECIFIED.);
#749=B_SPLINE_CURVE_WITH_KNOTS('',1,(#1538,#1539,#1540),.UNSPECIFIED.,.F.,
 .F.,(2,1,2),(3048.40707511103,3094.40707511103,3096.40707511103),
 .UNSPECIFIED.);
#750=B_SPLINE_CURVE_WITH_KNOTS('',1,(#1541,#1542),.UNSPECIFIED.,.F.,.F.,
(2,2),(0.,170.),.UNSPECIFIED.);
#751=B_SPLINE_CURVE_WITH_KNOTS('',1,(#1551,#1552,#1553),.UNSPECIFIED.,.F.,
 .F.,(2,1,2),(3097.97787143782,3189.97787143782,3191.97787143782),
 .UNSPECIFIED.);
#752=B_SPLINE_CURVE_WITH_KNOTS('',1,(#1554,#1555),.UNSPECIFIED.,.F.,.F.,
(2,2),(0.,170.),.UNSPECIFIED.);
#753=B_SPLINE_CURVE_WITH_KNOTS('',1,(#1564,#1565),.UNSPECIFIED.,.F.,.F.,
(2,2),(3193.54866776462,3241.54866776462),.UNSPECIFIED.);
#754=B_SPLINE_CURVE_WITH_KNOTS('',1,(#1566,#1567),.UNSPECIFIED.,.F.,.F.,
(2,2),(0.,170.),.UNSPECIFIED.);
#755=B_SPLINE_CURVE_WITH_KNOTS('',1,(#1576,#1577,#1578),.UNSPECIFIED.,.F.,
 .F.,(2,1,2),(3243.11946409141,3245.11946409141,3254.11946409141),
 .UNSPECIFIED.);
#756=B_SPLINE_CURVE_WITH_KNOTS('',1,(#1579,#1580),.UNSPECIFIED.,.F.,.F.,
(2,2),(0.,170.),.UNSPECIFIED.);
#757=B_SPLINE_CURVE_WITH_KNOTS('',1,(#1589,#1590),.UNSPECIFIED.,.F.,.F.,
(2,2),(3255.69026041821,3256.69026041821),.UNSPECIFIED.);
#758=B_SPLINE_CURVE_WITH_KNOTS('',1,(#1591,#1592),.UNSPECIFIED.,.F.,.F.,
(2,2),(0.,170.),.UNSPECIFIED.);
#759=B_SPLINE_CURVE_WITH_KNOTS('',1,(#1593,#1594),.UNSPECIFIED.,.F.,.F.,
(2,2),(3255.69026041821,3256.69026041821),.UNSPECIFIED.);
#760=B_SPLINE_CURVE_WITH_KNOTS('',1,(#1601,#1602),.UNSPECIFIED.,.F.,.F.,
(2,2),(369.78318530718,375.78318530718),.UNSPECIFIED.);
#761=B_SPLINE_CURVE_WITH_KNOTS('',1,(#1603,#1604),.UNSPECIFIED.,.F.,.F.,
(2,2),(0.,3.),.UNSPECIFIED.);
#762=B_SPLINE_CURVE_WITH_KNOTS('',1,(#1605,#1606),.UNSPECIFIED.,.F.,.F.,
(2,2),(369.78318530718,381.78318530718),.UNSPECIFIED.);
#763=B_SPLINE_CURVE_WITH_KNOTS('',1,(#1607,#1608),.UNSPECIFIED.,.F.,.F.,
(2,2),(0.,3.),.UNSPECIFIED.);
#764=B_SPLINE_CURVE_WITH_KNOTS('',1,(#1614,#1615),.UNSPECIFIED.,.F.,.F.,
(2,2),(0.,3.),.UNSPECIFIED.);
#765=B_SPLINE_CURVE_WITH_KNOTS('',1,(#1616,#1617),.UNSPECIFIED.,.F.,.F.,
(2,2),(383.353981633975,431.353981633975),.UNSPECIFIED.);
#766=B_SPLINE_CURVE_WITH_KNOTS('',1,(#1623,#1624),.UNSPECIFIED.,.F.,.F.,
(2,2),(0.,3.),.UNSPECIFIED.);
#767=B_SPLINE_CURVE_WITH_KNOTS('',1,(#1625,#1626),.UNSPECIFIED.,.F.,.F.,
(2,2),(432.924777960769,526.924777960769),.UNSPECIFIED.);
#768=B_SPLINE_CURVE_WITH_KNOTS('',1,(#1632,#1633),.UNSPECIFIED.,.F.,.F.,
(2,2),(0.,3.),.UNSPECIFIED.);
#769=B_SPLINE_CURVE_WITH_KNOTS('',1,(#1634,#1635),.UNSPECIFIED.,.F.,.F.,
(2,2),(528.495574287564,576.495574287564),.UNSPECIFIED.);
#770=B_SPLINE_CURVE_WITH_KNOTS('',1,(#1641,#1642),.UNSPECIFIED.,.F.,.F.,
(2,2),(0.,3.),.UNSPECIFIED.);
#771=B_SPLINE_CURVE_WITH_KNOTS('',1,(#1643,#1644),.UNSPECIFIED.,.F.,.F.,
(2,2),(578.066370614359,608.066370614359),.UNSPECIFIED.);
#772=B_SPLINE_CURVE_WITH_KNOTS('',1,(#1653,#1654),.UNSPECIFIED.,.F.,.F.,
(2,2),(609.637166941154,647.137166941154),.UNSPECIFIED.);
#773=B_SPLINE_CURVE_WITH_KNOTS('',1,(#1655,#1656),.UNSPECIFIED.,.F.,.F.,
(2,2),(0.,3.),.UNSPECIFIED.);
#774=B_SPLINE_CURVE_WITH_KNOTS('',1,(#1657,#1658),.UNSPECIFIED.,.F.,.F.,
(2,2),(609.637166941154,647.137166941154),.UNSPECIFIED.);
#775=B_SPLINE_CURVE_WITH_KNOTS('',1,(#1667,#1668),.UNSPECIFIED.,.F.,.F.,
(2,2),(648.707963267949,696.707963267949),.UNSPECIFIED.);
#776=B_SPLINE_CURVE_WITH_KNOTS('',1,(#1669,#1670),.UNSPECIFIED.,.F.,.F.,
(2,2),(0.,3.),.UNSPECIFIED.);
#777=B_SPLINE_CURVE_WITH_KNOTS('',1,(#1671,#1672),.UNSPECIFIED.,.F.,.F.,
(2,2),(648.707963267949,696.707963267949),.UNSPECIFIED.);
#778=B_SPLINE_CURVE_WITH_KNOTS('',1,(#1681,#1682),.UNSPECIFIED.,.F.,.F.,
(2,2),(698.278759594744,735.778759594744),.UNSPECIFIED.);
#779=B_SPLINE_CURVE_WITH_KNOTS('',1,(#1683,#1684),.UNSPECIFIED.,.F.,.F.,
(2,2),(0.,3.),.UNSPECIFIED.);
#780=B_SPLINE_CURVE_WITH_KNOTS('',1,(#1685,#1686),.UNSPECIFIED.,.F.,.F.,
(2,2),(698.278759594744,735.778759594744),.UNSPECIFIED.);
#781=B_SPLINE_CURVE_WITH_KNOTS('',1,(#1693,#1694),.UNSPECIFIED.,.F.,.F.,
(2,2),(589.066370614359,608.066370614359),.UNSPECIFIED.);
#782=B_SPLINE_CURVE_WITH_KNOTS('',1,(#1697,#1698),.UNSPECIFIED.,.F.,.F.,
(2,2),(0.,169.),.UNSPECIFIED.);
#783=B_SPLINE_CURVE_WITH_KNOTS('',1,(#1699,#1700),.UNSPECIFIED.,.F.,.F.,
(2,2),(79.,80.),.UNSPECIFIED.);
#784=B_SPLINE_CURVE_WITH_KNOTS('',1,(#1701,#1702),.UNSPECIFIED.,.F.,.F.,
(2,2),(79.,80.),.UNSPECIFIED.);
#785=B_SPLINE_CURVE_WITH_KNOTS('',1,(#1703,#1704),.UNSPECIFIED.,.F.,.F.,
(2,2),(0.,42.),.UNSPECIFIED.);
#786=B_SPLINE_CURVE_WITH_KNOTS('',1,(#1713,#1714),.UNSPECIFIED.,.F.,.F.,
(2,2),(0.,169.),.UNSPECIFIED.);
#787=B_SPLINE_CURVE_WITH_KNOTS('',1,(#1715,#1716),.UNSPECIFIED.,.F.,.F.,
(2,2),(-0.999999999999993,0.),.UNSPECIFIED.);
#788=B_SPLINE_CURVE_WITH_KNOTS('',1,(#1717,#1718),.UNSPECIFIED.,.F.,.F.,
(2,2),(46.,47.),.UNSPECIFIED.);
#789=B_SPLINE_CURVE_WITH_KNOTS('',1,(#1719,#1720),.UNSPECIFIED.,.F.,.F.,
(2,2),(0.,88.),.UNSPECIFIED.);
#790=B_SPLINE_CURVE_WITH_KNOTS('',1,(#1727,#1728),.UNSPECIFIED.,.F.,.F.,
(2,2),(0.,169.),.UNSPECIFIED.);
#791=B_SPLINE_CURVE_WITH_KNOTS('',1,(#1729,#1730),.UNSPECIFIED.,.F.,.F.,
(2,2),(-3.72165839812612E-15,8.),.UNSPECIFIED.);
#792=B_SPLINE_CURVE_WITH_KNOTS('',1,(#1731,#1732),.UNSPECIFIED.,.F.,.F.,
(2,2),(-4.,-3.),.UNSPECIFIED.);
#793=B_SPLINE_CURVE_WITH_KNOTS('',1,(#1733,#1734),.UNSPECIFIED.,.F.,.F.,
(2,2),(-3.99999999999998,-2.99999999999998),.UNSPECIFIED.);
#794=B_SPLINE_CURVE_WITH_KNOTS('',1,(#1735,#1736),.UNSPECIFIED.,.F.,.F.,
(2,2),(-1.3322676295502E-14,7.99999999999999),.UNSPECIFIED.);
#795=B_SPLINE_CURVE_WITH_KNOTS('',1,(#1745,#1746),.UNSPECIFIED.,.F.,.F.,
(2,2),(0.,169.),.UNSPECIFIED.);
#796=B_SPLINE_CURVE_WITH_KNOTS('',1,(#1747,#1748),.UNSPECIFIED.,.F.,.F.,
(2,2),(9.00000000000001,10.),.UNSPECIFIED.);
#797=B_SPLINE_CURVE_WITH_KNOTS('',1,(#1749,#1750),.UNSPECIFIED.,.F.,.F.,
(2,2),(9.,10.),.UNSPECIFIED.);
#798=B_SPLINE_CURVE_WITH_KNOTS('',1,(#1751,#1752),.UNSPECIFIED.,.F.,.F.,
(2,2),(0.,42.),.UNSPECIFIED.);
#799=B_SPLINE_CURVE_WITH_KNOTS('',1,(#1761,#1762),.UNSPECIFIED.,.F.,.F.,
(2,2),(0.,169.),.UNSPECIFIED.);
#800=B_SPLINE_CURVE_WITH_KNOTS('',1,(#1763,#1764),.UNSPECIFIED.,.F.,.F.,
(2,2),(-0.999999999999993,0.),.UNSPECIFIED.);
#801=B_SPLINE_CURVE_WITH_KNOTS('',1,(#1765,#1766),.UNSPECIFIED.,.F.,.F.,
(2,2),(-0.999999999999993,0.),.UNSPECIFIED.);
#802=B_SPLINE_CURVE_WITH_KNOTS('',1,(#1767,#1768),.UNSPECIFIED.,.F.,.F.,
(2,2),(1.4210854715202E-14,3.00000000000047),.UNSPECIFIED.);
#803=VERTEX_POINT('',#1351);
#804=VERTEX_POINT('',#1352);
#805=VERTEX_POINT('',#1353);
#806=VERTEX_POINT('',#1354);
#807=VERTEX_POINT('',#1355);
#808=VERTEX_POINT('',#1356);
#809=VERTEX_POINT('',#1357);
#810=VERTEX_POINT('',#1358);
#811=VERTEX_POINT('',#1359);
#812=VERTEX_POINT('',#1360);
#813=VERTEX_POINT('',#1361);
#814=VERTEX_POINT('',#1362);
#815=VERTEX_POINT('',#1363);
#816=VERTEX_POINT('',#1364);
#817=VERTEX_POINT('',#1365);
#818=VERTEX_POINT('',#1366);
#819=VERTEX_POINT('',#1367);
#820=VERTEX_POINT('',#1368);
#821=VERTEX_POINT('',#1369);
#822=VERTEX_POINT('',#1370);
#823=VERTEX_POINT('',#1371);
#824=VERTEX_POINT('',#1372);
#825=VERTEX_POINT('',#1373);
#826=VERTEX_POINT('',#1374);
#827=VERTEX_POINT('',#1375);
#828=VERTEX_POINT('',#1376);
#829=VERTEX_POINT('',#1377);
#830=VERTEX_POINT('',#1378);
#831=VERTEX_POINT('',#1379);
#832=VERTEX_POINT('',#1380);
#833=VERTEX_POINT('',#1381);
#834=VERTEX_POINT('',#1382);
#835=VERTEX_POINT('',#1383);
#836=VERTEX_POINT('',#1384);
#837=VERTEX_POINT('',#1385);
#838=VERTEX_POINT('',#1386);
#839=VERTEX_POINT('',#1387);
#840=VERTEX_POINT('',#1388);
#841=VERTEX_POINT('',#1389);
#842=VERTEX_POINT('',#1390);
#843=VERTEX_POINT('',#1391);
#844=VERTEX_POINT('',#1392);
#845=VERTEX_POINT('',#1393);
#846=VERTEX_POINT('',#1394);
#847=VERTEX_POINT('',#1395);
#848=VERTEX_POINT('',#1396);
#849=VERTEX_POINT('',#1397);
#850=VERTEX_POINT('',#1398);
#851=VERTEX_POINT('',#1399);
#852=VERTEX_POINT('',#1400);
#853=VERTEX_POINT('',#1401);
#854=VERTEX_POINT('',#1402);
#855=VERTEX_POINT('',#1403);
#856=VERTEX_POINT('',#1404);
#857=VERTEX_POINT('',#1405);
#858=VERTEX_POINT('',#1406);
#859=VERTEX_POINT('',#1407);
#860=VERTEX_POINT('',#1408);
#861=VERTEX_POINT('',#1409);
#862=VERTEX_POINT('',#1410);
#863=VERTEX_POINT('',#1411);
#864=VERTEX_POINT('',#1412);
#865=VERTEX_POINT('',#1413);
#866=VERTEX_POINT('',#1414);
#867=VERTEX_POINT('',#1415);
#868=VERTEX_POINT('',#1416);
#869=VERTEX_POINT('',#1417);
#870=VERTEX_POINT('',#1418);
#871=VERTEX_POINT('',#1419);
#872=VERTEX_POINT('',#1420);
#873=VERTEX_POINT('',#1421);
#874=VERTEX_POINT('',#1422);
#875=VERTEX_POINT('',#1423);
#876=VERTEX_POINT('',#1424);
#877=VERTEX_POINT('',#1425);
#878=VERTEX_POINT('',#1426);
#879=VERTEX_POINT('',#1427);
#880=VERTEX_POINT('',#1428);
#881=VERTEX_POINT('',#1429);
#882=VERTEX_POINT('',#1430);
#883=VERTEX_POINT('',#1431);
#884=VERTEX_POINT('',#1432);
#885=VERTEX_POINT('',#1433);
#886=VERTEX_POINT('',#1434);
#887=VERTEX_POINT('',#1435);
#888=VERTEX_POINT('',#1436);
#889=VERTEX_POINT('',#1437);
#890=VERTEX_POINT('',#1438);
#891=CYLINDRICAL_SURFACE('',#1037,1.00000000000001);
#892=CYLINDRICAL_SURFACE('',#1039,1.00000000000001);
#893=CYLINDRICAL_SURFACE('',#1041,1.00000000000004);
#894=CYLINDRICAL_SURFACE('',#1043,1.);
#895=CYLINDRICAL_SURFACE('',#1045,1.00000000000001);
#896=CYLINDRICAL_SURFACE('',#1047,1.00000000000001);
#897=CYLINDRICAL_SURFACE('',#1048,0.999999999999975);
#898=CYLINDRICAL_SURFACE('',#1049,1.);
#899=CYLINDRICAL_SURFACE('',#1050,0.999999999999993);
#900=CYLINDRICAL_SURFACE('',#1051,0.999999999999986);
#901=CYLINDRICAL_SURFACE('',#1052,0.999999999999979);
#902=CYLINDRICAL_SURFACE('',#1054,1.);
#903=CYLINDRICAL_SURFACE('',#1056,1.00000000000002);
#904=CYLINDRICAL_SURFACE('',#1057,0.999999999999986);
#905=CYLINDRICAL_SURFACE('',#1058,0.999999999999993);
#906=CYLINDRICAL_SURFACE('',#1059,0.999999999999996);
#907=CYLINDRICAL_SURFACE('',#1060,0.999999999999982);
#908=CYLINDRICAL_SURFACE('',#1062,0.999999999999993);
#909=CYLINDRICAL_SURFACE('',#1064,0.999999999999972);
#910=CYLINDRICAL_SURFACE('',#1066,0.999999999999972);
#911=CYLINDRICAL_SURFACE('',#1074,0.999999999999979);
#912=CYLINDRICAL_SURFACE('',#1078,0.999999999999996);
#913=CYLINDRICAL_SURFACE('',#1082,0.999999999999996);
#914=CYLINDRICAL_SURFACE('',#1086,1.00000000000003);
#915=CYLINDRICAL_SURFACE('',#1090,0.999999999999989);
#916=PLANE('',#1036);
#917=PLANE('',#1038);
#918=PLANE('',#1040);
#919=PLANE('',#1042);
#920=PLANE('',#1044);
#921=PLANE('',#1046);
#922=PLANE('',#1053);
#923=PLANE('',#1055);
#924=PLANE('',#1061);
#925=PLANE('',#1063);
#926=PLANE('',#1065);
#927=PLANE('',#1067);
#928=PLANE('',#1068);
#929=PLANE('',#1069);
#930=PLANE('',#1070);
#931=PLANE('',#1071);
#932=PLANE('',#1072);
#933=PLANE('',#1073);
#934=PLANE('',#1075);
#935=PLANE('',#1076);
#936=PLANE('',#1077);
#937=PLANE('',#1079);
#938=PLANE('',#1080);
#939=PLANE('',#1081);
#940=PLANE('',#1083);
#941=PLANE('',#1084);
#942=PLANE('',#1085);
#943=PLANE('',#1087);
#944=PLANE('',#1088);
#945=PLANE('',#1089);
#946=PLANE('',#1091);
#947=PLANE('',#1092);
#948=SHAPE_DEFINITION_REPRESENTATION(#949,#1034);
#949=PRODUCT_DEFINITION_SHAPE($,$,#951);
#950=PRODUCT_DEFINITION_CONTEXT('3D Mechanical Parts',#1023,'design');
#951=PRODUCT_DEFINITION('A','First version',#993,#950);
#952=DATE_TIME_ROLE('classification_date');
#953=DATE_TIME_ROLE('creation_date');
#954=APPLIED_DATE_AND_TIME_ASSIGNMENT(#978,#952,(#957));
#955=APPLIED_DATE_AND_TIME_ASSIGNMENT(#980,#953,(#951));
#956=SECURITY_CLASSIFICATION_LEVEL('unclassified');
#957=SECURITY_CLASSIFICATION('A','Security for version',#956);
#958=APPLIED_SECURITY_CLASSIFICATION_ASSIGNMENT(#957,(#993));
#959=APPROVAL_ROLE('Version approval');
#960=APPROVAL_ROLE('Version Security approval');
#961=APPROVAL_ROLE('Definition approval');
#962=APPROVAL_PERSON_ORGANIZATION(#1011,#987,#959);
#963=APPROVAL_PERSON_ORGANIZATION(#1012,#988,#960);
#964=APPROVAL_PERSON_ORGANIZATION(#1015,#989,#961);
#965=COORDINATED_UNIVERSAL_TIME_OFFSET(5,0,.BEHIND.);
#966=LOCAL_TIME(0,0,0.,#965);
#967=LOCAL_TIME(0,0,0.,#965);
#968=LOCAL_TIME(0,0,0.,#965);
#969=LOCAL_TIME(0,0,0.,#965);
#970=LOCAL_TIME(0,0,0.,#965);
#971=CALENDAR_DATE(1999,1,1);
#972=CALENDAR_DATE(1999,1,1);
#973=CALENDAR_DATE(1999,1,1);
#974=CALENDAR_DATE(1999,1,1);
#975=CALENDAR_DATE(1999,1,1);
#976=DATE_AND_TIME(#971,#966);
#977=DATE_AND_TIME(#972,#967);
#978=DATE_AND_TIME(#973,#968);
#979=DATE_AND_TIME(#974,#969);
#980=DATE_AND_TIME(#975,#970);
#981=APPROVAL_DATE_TIME(#976,#987);
#982=APPROVAL_DATE_TIME(#977,#988);
#983=APPROVAL_DATE_TIME(#979,#989);
#984=APPROVAL_STATUS('not_yet_approved');
#985=APPROVAL_STATUS('not_yet_approved');
#986=APPROVAL_STATUS('approved');
#987=APPROVAL(#984,'Version approval');
#988=APPROVAL(#985,'Version Security approval');
#989=APPROVAL(#986,'Definition approval');
#990=APPLIED_APPROVAL_ASSIGNMENT(#987,(#993));
#991=APPLIED_APPROVAL_ASSIGNMENT(#988,(#957));
#992=APPLIED_APPROVAL_ASSIGNMENT(#989,(#951));
#993=PRODUCT_DEFINITION_FORMATION_WITH_SPECIFIED_SOURCE('A',
'First version',#1025,.MADE.);
#994=PERSON_AND_ORGANIZATION_ROLE('design_owner');
#995=PERSON_AND_ORGANIZATION_ROLE('creator');
#996=PERSON_AND_ORGANIZATION_ROLE('design_supplier');
#997=PERSON_AND_ORGANIZATION_ROLE('classification_officer');
#998=PERSON_AND_ORGANIZATION_ROLE('creator');
#999=ORGANIZATION('STI','lab','lab');
#1000=ORGANIZATION('STI','unknown','unknown');
#1001=ORGANIZATION('STI','unknown','unknown');
#1002=ORGANIZATION('STI','unknown','unknown');
#1003=ORGANIZATION('STI','unknown','unknown');
#1004=ORGANIZATION('STI','unknown','unknown');
#1005=ORGANIZATION('STI','unknown','unknown');
#1006=PERSON('1','Box','vc60',$,$,$);
#1007=PERSON('2','last','first',$,$,$);
#1008=PERSON('3','President','Mr.',$,$,$);
#1009=PERSON_AND_ORGANIZATION(#1006,#999);
#1010=PERSON_AND_ORGANIZATION(#1007,#1000);
#1011=PERSON_AND_ORGANIZATION(#1008,#1001);
#1012=PERSON_AND_ORGANIZATION(#1008,#1002);
#1013=PERSON_AND_ORGANIZATION(#1008,#1003);
#1014=PERSON_AND_ORGANIZATION(#1007,#1004);
#1015=PERSON_AND_ORGANIZATION(#1008,#1005);
#1016=APPLIED_PERSON_AND_ORGANIZATION_ASSIGNMENT(#1009,#994,(#1025));
#1017=APPLIED_PERSON_AND_ORGANIZATION_ASSIGNMENT(#1010,#995,(#993));
#1018=APPLIED_PERSON_AND_ORGANIZATION_ASSIGNMENT(#1010,#996,(#993));
#1019=APPLIED_PERSON_AND_ORGANIZATION_ASSIGNMENT(#1013,#997,(#957));
#1020=APPLIED_PERSON_AND_ORGANIZATION_ASSIGNMENT(#1014,#998,(#951));
#1021=PRODUCT_RELATED_PRODUCT_CATEGORY('detail','detail',(#1025));
#1022=APPLICATION_PROTOCOL_DEFINITION('International Standard',
'config_control_design',1994,#1023);
#1023=APPLICATION_CONTEXT(
'configuration controlled 3d designs of mechanical parts and assemblie
s');
#1024=PRODUCT_CONTEXT('3D Mechanical Parts',#1023,'mechanical');
#1025=PRODUCT('Document','Document','',(#1024));
#1026=(
LENGTH_UNIT()
NAMED_UNIT(*)
SI_UNIT(.MILLI.,.METRE.)
);
#1027=(
NAMED_UNIT(*)
PLANE_ANGLE_UNIT()
SI_UNIT($,.RADIAN.)
);
#1028=DIMENSIONAL_EXPONENTS(0.,0.,0.,0.,0.,0.,0.);
#1029=PLANE_ANGLE_MEASURE_WITH_UNIT(PLANE_ANGLE_MEASURE(0.01745329252),
#1027);
#1030=(
CONVERSION_BASED_UNIT('DEGREES',#1029)
NAMED_UNIT(#1028)
PLANE_ANGLE_UNIT()
);
#1031=(
NAMED_UNIT(*)
SI_UNIT($,.STERADIAN.)
SOLID_ANGLE_UNIT()
);
#1032=UNCERTAINTY_MEASURE_WITH_UNIT(LENGTH_MEASURE(0.001),#1026,
'DISTANCE_ACCURACY_VALUE',
'Maximum model space distance between geometric entities at asserted c
onnectivities');
#1033=(
GEOMETRIC_REPRESENTATION_CONTEXT(3)
GLOBAL_UNCERTAINTY_ASSIGNED_CONTEXT((#1032))
GLOBAL_UNIT_ASSIGNED_CONTEXT((#1031,#1030,#1026))
REPRESENTATION_CONTEXT('ID1','3D')
);
#1034=SHAPE_REPRESENTATION('Document',(#1035,#1139),#1033);
#1035=AXIS2_PLACEMENT_3D($,#1293,#1140,#1141);
#1036=AXIS2_PLACEMENT_3D('',#1294,#1142,$);
#1037=AXIS2_PLACEMENT_3D('',#1295,#1143,$);
#1038=AXIS2_PLACEMENT_3D('',#1296,#1144,$);
#1039=AXIS2_PLACEMENT_3D('',#1297,#1145,$);
#1040=AXIS2_PLACEMENT_3D('',#1298,#1146,$);
#1041=AXIS2_PLACEMENT_3D('',#1299,#1147,$);
#1042=AXIS2_PLACEMENT_3D('',#1300,#1148,$);
#1043=AXIS2_PLACEMENT_3D('',#1301,#1149,$);
#1044=AXIS2_PLACEMENT_3D('',#1302,#1150,$);
#1045=AXIS2_PLACEMENT_3D('',#1303,#1151,$);
#1046=AXIS2_PLACEMENT_3D('',#1304,#1152,$);
#1047=AXIS2_PLACEMENT_3D('',#1305,#1153,$);
#1048=AXIS2_PLACEMENT_3D('',#1306,#1154,$);
#1049=AXIS2_PLACEMENT_3D('',#1307,#1155,$);
#1050=AXIS2_PLACEMENT_3D('',#1308,#1156,$);
#1051=AXIS2_PLACEMENT_3D('',#1309,#1157,$);
#1052=AXIS2_PLACEMENT_3D('',#1310,#1158,$);
#1053=AXIS2_PLACEMENT_3D('',#1311,#1159,$);
#1054=AXIS2_PLACEMENT_3D('',#1312,#1160,$);
#1055=AXIS2_PLACEMENT_3D('',#1313,#1161,$);
#1056=AXIS2_PLACEMENT_3D('',#1314,#1162,$);
#1057=AXIS2_PLACEMENT_3D('',#1315,#1163,$);
#1058=AXIS2_PLACEMENT_3D('',#1316,#1164,$);
#1059=AXIS2_PLACEMENT_3D('',#1317,#1165,$);
#1060=AXIS2_PLACEMENT_3D('',#1318,#1166,$);
#1061=AXIS2_PLACEMENT_3D('',#1319,#1167,$);
#1062=AXIS2_PLACEMENT_3D('',#1320,#1168,$);
#1063=AXIS2_PLACEMENT_3D('',#1321,#1169,$);
#1064=AXIS2_PLACEMENT_3D('',#1322,#1170,$);
#1065=AXIS2_PLACEMENT_3D('',#1323,#1171,$);
#1066=AXIS2_PLACEMENT_3D('',#1324,#1172,$);
#1067=AXIS2_PLACEMENT_3D('',#1325,#1173,$);
#1068=AXIS2_PLACEMENT_3D('',#1326,#1174,$);
#1069=AXIS2_PLACEMENT_3D('',#1327,#1175,$);
#1070=AXIS2_PLACEMENT_3D('',#1328,#1176,$);
#1071=AXIS2_PLACEMENT_3D('',#1329,#1177,$);
#1072=AXIS2_PLACEMENT_3D('',#1330,#1178,$);
#1073=AXIS2_PLACEMENT_3D('',#1331,#1179,$);
#1074=AXIS2_PLACEMENT_3D('',#1332,#1180,$);
#1075=AXIS2_PLACEMENT_3D('',#1333,#1181,$);
#1076=AXIS2_PLACEMENT_3D('',#1334,#1182,$);
#1077=AXIS2_PLACEMENT_3D('',#1335,#1183,$);
#1078=AXIS2_PLACEMENT_3D('',#1336,#1184,$);
#1079=AXIS2_PLACEMENT_3D('',#1337,#1185,$);
#1080=AXIS2_PLACEMENT_3D('',#1338,#1186,$);
#1081=AXIS2_PLACEMENT_3D('',#1339,#1187,$);
#1082=AXIS2_PLACEMENT_3D('',#1340,#1188,$);
#1083=AXIS2_PLACEMENT_3D('',#1341,#1189,$);
#1084=AXIS2_PLACEMENT_3D('',#1342,#1190,$);
#1085=AXIS2_PLACEMENT_3D('',#1343,#1191,$);
#1086=AXIS2_PLACEMENT_3D('',#1344,#1192,$);
#1087=AXIS2_PLACEMENT_3D('',#1345,#1193,$);
#1088=AXIS2_PLACEMENT_3D('',#1346,#1194,$);
#1089=AXIS2_PLACEMENT_3D('',#1347,#1195,$);
#1090=AXIS2_PLACEMENT_3D('',#1348,#1196,$);
#1091=AXIS2_PLACEMENT_3D('',#1349,#1197,$);
#1092=AXIS2_PLACEMENT_3D('',#1350,#1198,$);
#1093=AXIS2_PLACEMENT_3D($,#1447,#1199,#1200);
#1094=AXIS2_PLACEMENT_3D($,#1452,#1201,#1202);
#1095=AXIS2_PLACEMENT_3D($,#1461,#1203,#1204);
#1096=AXIS2_PLACEMENT_3D($,#1466,#1205,#1206);
#1097=AXIS2_PLACEMENT_3D($,#1475,#1207,#1208);
#1098=AXIS2_PLACEMENT_3D($,#1480,#1209,#1210);
#1099=AXIS2_PLACEMENT_3D($,#1489,#1211,#1212);
#1100=AXIS2_PLACEMENT_3D($,#1494,#1213,#1214);
#1101=AXIS2_PLACEMENT_3D($,#1503,#1215,#1216);
#1102=AXIS2_PLACEMENT_3D($,#1508,#1217,#1218);
#1103=AXIS2_PLACEMENT_3D($,#1517,#1219,#1220);
#1104=AXIS2_PLACEMENT_3D($,#1522,#1221,#1222);
#1105=AXIS2_PLACEMENT_3D($,#1530,#1223,#1224);
#1106=AXIS2_PLACEMENT_3D($,#1535,#1225,#1226);
#1107=AXIS2_PLACEMENT_3D($,#1543,#1227,#1228);
#1108=AXIS2_PLACEMENT_3D($,#1548,#1229,#1230);
#1109=AXIS2_PLACEMENT_3D($,#1556,#1231,#1232);
#1110=AXIS2_PLACEMENT_3D($,#1561,#1233,#1234);
#1111=AXIS2_PLACEMENT_3D($,#1568,#1235,#1236);
#1112=AXIS2_PLACEMENT_3D($,#1573,#1237,#1238);
#1113=AXIS2_PLACEMENT_3D($,#1581,#1239,#1240);
#1114=AXIS2_PLACEMENT_3D($,#1586,#1241,#1242);
#1115=AXIS2_PLACEMENT_3D($,#1595,#1243,#1244);
#1116=AXIS2_PLACEMENT_3D($,#1598,#1245,#1246);
#1117=AXIS2_PLACEMENT_3D($,#1611,#1247,#1248);
#1118=AXIS2_PLACEMENT_3D($,#1620,#1249,#1250);
#1119=AXIS2_PLACEMENT_3D($,#1629,#1251,#1252);
#1120=AXIS2_PLACEMENT_3D($,#1638,#1253,#1254);
#1121=AXIS2_PLACEMENT_3D($,#1645,#1255,#1256);
#1122=AXIS2_PLACEMENT_3D($,#1650,#1257,#1258);
#1123=AXIS2_PLACEMENT_3D($,#1659,#1259,#1260);
#1124=AXIS2_PLACEMENT_3D($,#1664,#1261,#1262);
#1125=AXIS2_PLACEMENT_3D($,#1673,#1263,#1264);
#1126=AXIS2_PLACEMENT_3D($,#1678,#1265,#1266);
#1127=AXIS2_PLACEMENT_3D($,#1687,#1267,#1268);
#1128=AXIS2_PLACEMENT_3D($,#1690,#1269,#1270);
#1129=AXIS2_PLACEMENT_3D($,#1705,#1271,#1272);
#1130=AXIS2_PLACEMENT_3D($,#1708,#1273,#1274);
#1131=AXIS2_PLACEMENT_3D($,#1721,#1275,#1276);
#1132=AXIS2_PLACEMENT_3D($,#1724,#1277,#1278);
#1133=AXIS2_PLACEMENT_3D($,#1737,#1279,#1280);
#1134=AXIS2_PLACEMENT_3D($,#1740,#1281,#1282);
#1135=AXIS2_PLACEMENT_3D($,#1753,#1283,#1284);
#1136=AXIS2_PLACEMENT_3D($,#1756,#1285,#1286);
#1137=AXIS2_PLACEMENT_3D($,#1769,#1287,#1288);
#1138=AXIS2_PLACEMENT_3D($,#1772,#1289,#1290);
#1139=AXIS2_PLACEMENT_3D($,#1775,#1291,#1292);
#1140=DIRECTION('',(0.,0.,1.));
#1141=DIRECTION('',(1.,0.,0.));
#1142=DIRECTION('',(-1.,0.,0.));
#1143=DIRECTION('',(0.,0.,1.));
#1144=DIRECTION('',(0.,-1.,0.));
#1145=DIRECTION('',(0.,0.,1.));
#1146=DIRECTION('',(1.,0.,0.));
#1147=DIRECTION('',(-3.43080381863566E-14,-3.43080381863566E-14,1.));
#1148=DIRECTION('',(0.,1.,0.));
#1149=DIRECTION('',(0.,0.,1.));
#1150=DIRECTION('',(-1.,0.,0.));
#1151=DIRECTION('',(-3.43080381863482E-14,3.43080381863521E-14,-1.));
#1152=DIRECTION('',(0.,1.,0.));
#1153=DIRECTION('',(-3.43080381863607E-14,-3.43080381863437E-14,-1.));
#1154=DIRECTION('',(0.,0.,-1.));
#1155=DIRECTION('',(0.,0.,-1.));
#1156=DIRECTION('',(0.,0.,-1.));
#1157=DIRECTION('',(0.,0.,-1.));
#1158=DIRECTION('',(0.,0.,-1.));
#1159=DIRECTION('',(0.,-1.,0.));
#1160=DIRECTION('',(0.,0.,-1.));
#1161=DIRECTION('',(0.,0.,1.));
#1162=DIRECTION('',(8.57700954658854E-15,-8.5770095465883E-15,-1.));
#1163=DIRECTION('',(0.,0.,-1.));
#1164=DIRECTION('',(8.57700954658856E-15,-8.57700954658856E-15,-1.));
#1165=DIRECTION('',(-8.57700954658864E-15,-8.57700954658864E-15,-1.));
#1166=DIRECTION('',(0.,0.,-1.));
#1167=DIRECTION('',(0.,-1.,0.));
#1168=DIRECTION('',(8.57700954658842E-15,-8.57700954658842E-15,1.));
#1169=DIRECTION('',(1.,0.,0.));
#1170=DIRECTION('',(0.,0.,1.));
#1171=DIRECTION('',(0.,1.,0.));
#1172=DIRECTION('',(0.,0.,-1.));
#1173=DIRECTION('',(0.,0.,-1.));
#1174=DIRECTION('',(0.,0.,1.));
#1175=DIRECTION('',(0.,1.,0.));
#1176=DIRECTION('',(0.,-1.,0.));
#1177=DIRECTION('',(-1.,0.,0.));
#1178=DIRECTION('',(1.,0.,0.));
#1179=DIRECTION('',(1.,0.,0.));
#1180=DIRECTION('',(-1.,4.23757877911141E-13,-4.23757877911135E-13));
#1181=DIRECTION('',(1.,0.,0.));
#1182=DIRECTION('',(-1.,0.,0.));
#1183=DIRECTION('',(0.,0.,1.));
#1184=DIRECTION('',(-2.64415713755258E-13,-1.,-2.50204859040056E-13));
#1185=DIRECTION('',(0.,1.,0.));
#1186=DIRECTION('',(0.,-1.,0.));
#1187=DIRECTION('',(0.,0.,1.));
#1188=DIRECTION('',(1.02924114559061E-13,1.,-1.02924114559062E-13));
#1189=DIRECTION('',(0.,1.,0.));
#1190=DIRECTION('',(0.,-1.,0.));
#1191=DIRECTION('',(0.,0.,1.));
#1192=DIRECTION('',(1.,-9.28797618517043E-13,-9.21692191159455E-13));
#1193=DIRECTION('',(-1.,0.,0.));
#1194=DIRECTION('',(1.,0.,0.));
#1195=DIRECTION('',(0.,0.,1.));
#1196=DIRECTION('',(-2.34269938548532E-13,1.,1.77426519687721E-13));
#1197=DIRECTION('',(0.,-1.,0.));
#1198=DIRECTION('',(0.,1.,0.));
#1199=DIRECTION('',(0.,0.,1.));
#1200=DIRECTION('',(1.,0.,0.));
#1201=DIRECTION('',(0.,0.,1.));
#1202=DIRECTION('',(1.,0.,0.));
#1203=DIRECTION('',(0.,0.,1.));
#1204=DIRECTION('',(-3.55271367880048E-15,1.,0.));
#1205=DIRECTION('',(0.,0.,1.));
#1206=DIRECTION('',(-7.1054273576009E-15,1.,0.));
#1207=DIRECTION('',(-6.86160763727132E-14,-6.86160763727132E-14,1.));
#1208=DIRECTION('',(-1.,-5.68434188608056E-14,-8.52651282912084E-14));
#1209=DIRECTION('',(1.71540190931783E-14,1.71540190931783E-14,1.));
#1210=DIRECTION('',(-1.,-5.68434188608056E-14,1.77635683940017E-14));
#1211=DIRECTION('',(6.86160763727306E-14,-6.86160763727618E-14,1.));
#1212=DIRECTION('',(0.,-1.,-5.6843418860808E-14));
#1213=DIRECTION('',(-8.57700954659137E-15,8.57700954659524E-15,1.));
#1214=DIRECTION('',(3.5527136788005E-15,-1.,7.105427357601E-15));
#1215=DIRECTION('',(-6.86160763726964E-14,6.86160763727042E-14,-1.));
#1216=DIRECTION('',(-1.,1.42108547152019E-14,5.68434188608074E-14));
#1217=DIRECTION('',(8.5770095465871E-15,-8.57700954658804E-15,-1.));
#1218=DIRECTION('',(-1.,1.42108547152017E-14,-7.10542735760085E-15));
#1219=DIRECTION('',(-6.86160763727215E-14,-6.86160763726873E-14,-1.));
#1220=DIRECTION('',(2.3447910280083E-13,1.,-8.52651282912108E-14));
#1221=DIRECTION('',(8.57700954659018E-15,8.57700954658592E-15,-1.));
#1222=DIRECTION('',(2.3447910280083E-13,1.,1.06581410364014E-14));
#1223=DIRECTION('',(0.,0.,-1.));
#1224=DIRECTION('',(1.,4.26325641456071E-14,0.));
#1225=DIRECTION('',(0.,0.,-1.));
#1226=DIRECTION('',(1.,4.26325641456071E-14,0.));
#1227=DIRECTION('',(0.,0.,-1.));
#1228=DIRECTION('',(3.5527136788005E-15,-1.,0.));
#1229=DIRECTION('',(0.,0.,-1.));
#1230=DIRECTION('',(3.5527136788005E-15,-1.,0.));
#1231=DIRECTION('',(0.,0.,-1.));
#1232=DIRECTION('',(-1.,-7.10542735760105E-15,0.));
#1233=DIRECTION('',(0.,0.,-1.));
#1234=DIRECTION('',(-1.,-7.10542735760105E-15,0.));
#1235=DIRECTION('',(0.,0.,-1.));
#1236=DIRECTION('',(-7.1054273576011E-15,1.,0.));
#1237=DIRECTION('',(0.,0.,-1.));
#1238=DIRECTION('',(-7.1054273576011E-15,1.,0.));
#1239=DIRECTION('',(0.,0.,-1.));
#1240=DIRECTION('',(1.,2.84217094304046E-14,0.));
#1241=DIRECTION('',(0.,0.,-1.));
#1242=DIRECTION('',(1.,2.84217094304046E-14,0.));
#1243=DIRECTION('',(0.,0.,-1.));
#1244=DIRECTION('',(-2.48689957516035E-14,-1.,0.));
#1245=DIRECTION('',(0.,0.,-1.));
#1246=DIRECTION('',(-2.48689957516035E-14,-1.,0.));
#1247=DIRECTION('',(8.57700954658854E-15,-8.5770095465883E-15,-1.));
#1248=DIRECTION('',(1.,1.42108547152017E-14,1.06581410364013E-14));
#1249=DIRECTION('',(0.,0.,-1.));
#1250=DIRECTION('',(2.13162820728033E-14,-1.,0.));
#1251=DIRECTION('',(0.,0.,-1.));
#1252=DIRECTION('',(-1.,-3.55271367880053E-15,0.));
#1253=DIRECTION('',(0.,0.,-1.));
#1254=DIRECTION('',(-3.55271367880051E-15,1.,0.));
#1255=DIRECTION('',(0.,0.,-1.));
#1256=DIRECTION('',(1.,2.13162820728034E-14,0.));
#1257=DIRECTION('',(0.,0.,-1.));
#1258=DIRECTION('',(1.,2.13162820728034E-14,0.));
#1259=DIRECTION('',(8.57700954658842E-15,-8.57700954658842E-15,1.));
#1260=DIRECTION('',(1.24344978758018E-14,1.,7.10542735760105E-15));
#1261=DIRECTION('',(8.57700954658842E-15,-8.57700954658842E-15,1.));
#1262=DIRECTION('',(1.24344978758018E-14,1.,7.10542735760105E-15));
#1263=DIRECTION('',(0.,0.,1.));
#1264=DIRECTION('',(-1.,2.84217094304048E-14,0.));
#1265=DIRECTION('',(0.,0.,1.));
#1266=DIRECTION('',(-1.,2.84217094304048E-14,0.));
#1267=DIRECTION('',(0.,0.,-1.));
#1268=DIRECTION('',(-1.42108547152024E-14,1.,0.));
#1269=DIRECTION('',(-8.57700954658848E-15,-8.57700954658857E-15,-1.));
#1270=DIRECTION('',(-1.42108547152024E-14,1.,-7.1054273576012E-15));
#1271=DIRECTION('',(-1.,3.14837205289886E-13,-3.11284491611085E-13));
#1272=DIRECTION('',(3.16191517413245E-13,1.,-3.5527136788005E-15));
#1273=DIRECTION('',(-1.,3.23414214836466E-13,-3.19861501157665E-13));
#1274=DIRECTION('',(3.23296944770853E-13,1.,2.13162820728035E-14));
#1275=DIRECTION('',(-1.20078133652239E-13,-1.,-1.2007813365224E-13));
#1276=DIRECTION('',(-1.,1.20792265079217E-13,3.5527136788005E-15));
#1277=DIRECTION('',(-1.37232152745416E-13,-1.,-1.37232152745416E-13));
#1278=DIRECTION('',(-1.,1.27897692436818E-13,3.55271367880051E-15));
#1279=DIRECTION('',(6.86160763727089E-14,1.,-6.86160763727094E-14));
#1280=DIRECTION('',(1.,-7.10542735760095E-14,-7.10542735760095E-15));
#1281=DIRECTION('',(8.07457995980968E-14,1.,-7.36403722404967E-14));
#1282=DIRECTION('',(1.,-8.52651282912117E-14,-3.55271367880049E-15));
#1283=DIRECTION('',(-1.,6.83648615793209E-13,6.80095902114408E-13));
#1284=DIRECTION('',(-6.78568312650893E-13,1.4210854715202E-14,-1.));
#1285=DIRECTION('',(1.,-6.92225625339849E-13,-6.8867291166091E-13));
#1286=DIRECTION('',(-6.92779167366206E-13,-1.,1.63424829224849E-13));
#1287=DIRECTION('',(4.78047614745801E-14,-1.,-2.6096758220261E-13));
#1288=DIRECTION('',(3.55271367880049E-15,2.55795384873635E-13,-1.));
#1289=DIRECTION('',(-1.75702453911396E-13,1.,1.33069889765789E-13));
#1290=DIRECTION('',(1.,1.84741111297629E-13,1.42108547152022E-14));
#1291=DIRECTION('',(0.,0.,1.));
#1292=DIRECTION('',(1.,0.,0.));
#1293=CARTESIAN_POINT('',(0.,0.,0.));
#1294=CARTESIAN_POINT('',(21.5,-42.,151.));
#1295=CARTESIAN_POINT('',(20.5,-34.,66.));
#1296=CARTESIAN_POINT('',(20.5,-33.,151.));
#1297=CARTESIAN_POINT('',(-21.5,-34.,66.));
#1298=CARTESIAN_POINT('',(-22.5,-34.,151.));
#1299=CARTESIAN_POINT('',(-21.5,-122.,66.));
#1300=CARTESIAN_POINT('',(-21.5,-123.,151.));
#1301=CARTESIAN_POINT('',(20.5,-122.,66.));
#1302=CARTESIAN_POINT('',(21.5,-122.,151.));
#1303=CARTESIAN_POINT('',(22.5,-119.,66.));
#1304=CARTESIAN_POINT('',(22.5000000000001,-118.,151.));
#1305=CARTESIAN_POINT('',(23.5,-119.,66.));
#1306=CARTESIAN_POINT('',(23.5,-125.,66.));
#1307=CARTESIAN_POINT('',(-24.5,-125.,66.));
#1308=CARTESIAN_POINT('',(-24.5,-31.,66.));
#1309=CARTESIAN_POINT('',(23.5,-31.,66.));
#1310=CARTESIAN_POINT('',(23.5,-42.0000000000001,66.));
#1311=CARTESIAN_POINT('',(23.5,-43.,151.));
#1312=CARTESIAN_POINT('',(22.5,-42.,66.));
#1313=CARTESIAN_POINT('',(30.75,-138.,151.));
#1314=CARTESIAN_POINT('',(23.5,-125.,-20.5));
#1315=CARTESIAN_POINT('',(-24.5,-125.,-20.5));
#1316=CARTESIAN_POINT('',(-24.5,-31.,-20.5));
#1317=CARTESIAN_POINT('',(23.5,-31.,-20.5));
#1318=CARTESIAN_POINT('',(23.5,-61.,-20.5));
#1319=CARTESIAN_POINT('',(23.5,-62.,-19.));
#1320=CARTESIAN_POINT('',(-14.,-63.,-20.5));
#1321=CARTESIAN_POINT('',(-15.,-63.,-19.));
#1322=CARTESIAN_POINT('',(-14.,-111.,-20.5));
#1323=CARTESIAN_POINT('',(-14.,-112.,-19.));
#1324=CARTESIAN_POINT('',(23.5,-113.,-20.5));
#1325=CARTESIAN_POINT('',(30.75,-138.,-22.));
#1326=CARTESIAN_POINT('',(30.75,-138.,-19.));
#1327=CARTESIAN_POINT('',(-24.5,-30.,151.));
#1328=CARTESIAN_POINT('',(23.5,-126.,151.));
#1329=CARTESIAN_POINT('',(-25.5,-125.,151.));
#1330=CARTESIAN_POINT('',(24.5,-31.,151.));
#1331=CARTESIAN_POINT('',(24.5,-113.,151.));
#1332=CARTESIAN_POINT('',(-0.500000000000424,-34.,-18.));
#1333=CARTESIAN_POINT('',(20.5,-34.,-19.));
#1334=CARTESIAN_POINT('',(-21.5,-33.,-19.));
#1335=CARTESIAN_POINT('',(30.75,-138.,-19.));
#1336=CARTESIAN_POINT('',(-21.5,-78.0000000000003,-18.));
#1337=CARTESIAN_POINT('',(-22.5,-34.,-18.));
#1338=CARTESIAN_POINT('',(-21.5,-122.,-18.));
#1339=CARTESIAN_POINT('',(30.75,-138.,-19.));
#1340=CARTESIAN_POINT('',(20.5,-37.9999999999999,-18.));
#1341=CARTESIAN_POINT('',(20.5,-34.,-18.));
#1342=CARTESIAN_POINT('',(21.5,-42.,-18.));
#1343=CARTESIAN_POINT('',(30.75,-138.,-19.));
#1344=CARTESIAN_POINT('',(-0.499999999999077,-122.,-18.));
#1345=CARTESIAN_POINT('',(-21.5,-122.,-19.));
#1346=CARTESIAN_POINT('',(20.5,-123.,-19.));
#1347=CARTESIAN_POINT('',(30.75,-138.,-19.));
#1348=CARTESIAN_POINT('',(20.5,-120.5,-18.));
#1349=CARTESIAN_POINT('',(20.5,-122.,-18.));
#1350=CARTESIAN_POINT('',(20.5,-119.,-19.));
#1351=CARTESIAN_POINT('',(21.5,-42.,151.));
#1352=CARTESIAN_POINT('',(21.5,-34.,151.));
#1353=CARTESIAN_POINT('',(21.5,-34.,-19.));
#1354=CARTESIAN_POINT('',(21.5,-42.,-19.));
#1355=CARTESIAN_POINT('',(20.5,-33.,151.));
#1356=CARTESIAN_POINT('',(20.5,-33.,-19.));
#1357=CARTESIAN_POINT('',(-21.5,-33.,151.));
#1358=CARTESIAN_POINT('',(-21.5,-33.,-19.));
#1359=CARTESIAN_POINT('',(-22.5,-34.,151.));
#1360=CARTESIAN_POINT('',(-22.5,-34.,-19.));
#1361=CARTESIAN_POINT('',(-22.5,-122.,151.));
#1362=CARTESIAN_POINT('',(-22.5,-122.,-19.));
#1363=CARTESIAN_POINT('',(-21.5,-123.,151.));
#1364=CARTESIAN_POINT('',(-21.5,-123.,-19.));
#1365=CARTESIAN_POINT('',(20.5,-123.,151.));
#1366=CARTESIAN_POINT('',(20.5,-123.,-19.));
#1367=CARTESIAN_POINT('',(21.5,-122.,151.));
#1368=CARTESIAN_POINT('',(21.5,-122.,-19.));
#1369=CARTESIAN_POINT('',(21.5,-119.,151.));
#1370=CARTESIAN_POINT('',(21.5,-119.,-19.));
#1371=CARTESIAN_POINT('',(22.5000000000001,-118.,151.));
#1372=CARTESIAN_POINT('',(22.5000000000001,-118.,-19.));
#1373=CARTESIAN_POINT('',(23.5000000000002,-118.,151.));
#1374=CARTESIAN_POINT('',(23.5000000000002,-118.,-19.));
#1375=CARTESIAN_POINT('',(24.5,-119.,151.));
#1376=CARTESIAN_POINT('',(24.5,-119.,-19.));
#1377=CARTESIAN_POINT('',(24.5,-125.,151.));
#1378=CARTESIAN_POINT('',(24.5,-125.,-19.));
#1379=CARTESIAN_POINT('',(23.5,-126.,151.));
#1380=CARTESIAN_POINT('',(23.5,-126.,-19.));
#1381=CARTESIAN_POINT('',(-24.5,-126.,151.));
#1382=CARTESIAN_POINT('',(-24.5,-126.,-19.));
#1383=CARTESIAN_POINT('',(-25.5,-125.,151.));
#1384=CARTESIAN_POINT('',(-25.5,-125.,-19.));
#1385=CARTESIAN_POINT('',(-25.5,-31.,151.));
#1386=CARTESIAN_POINT('',(-25.5,-31.,-19.));
#1387=CARTESIAN_POINT('',(-24.5,-30.,151.));
#1388=CARTESIAN_POINT('',(-24.5,-30.,-19.));
#1389=CARTESIAN_POINT('',(23.5,-30.,151.));
#1390=CARTESIAN_POINT('',(23.5,-30.,-19.));
#1391=CARTESIAN_POINT('',(24.5,-31.,151.));
#1392=CARTESIAN_POINT('',(24.5,-31.,-19.));
#1393=CARTESIAN_POINT('',(24.5,-42.,151.));
#1394=CARTESIAN_POINT('',(24.5,-42.,-19.));
#1395=CARTESIAN_POINT('',(23.5,-43.,151.));
#1396=CARTESIAN_POINT('',(23.5,-43.,-19.));
#1397=CARTESIAN_POINT('',(22.5,-43.,151.));
#1398=CARTESIAN_POINT('',(22.5,-43.,-19.));
#1399=CARTESIAN_POINT('',(24.5,-113.,-19.));
#1400=CARTESIAN_POINT('',(24.5,-125.,-22.));
#1401=CARTESIAN_POINT('',(24.5,-113.,-22.));
#1402=CARTESIAN_POINT('',(23.5,-126.,-22.));
#1403=CARTESIAN_POINT('',(-24.5,-126.,-22.));
#1404=CARTESIAN_POINT('',(-25.5,-125.,-22.));
#1405=CARTESIAN_POINT('',(-25.5,-31.,-22.));
#1406=CARTESIAN_POINT('',(-24.5,-30.,-22.));
#1407=CARTESIAN_POINT('',(23.5,-30.,-22.));
#1408=CARTESIAN_POINT('',(24.5,-31.,-22.));
#1409=CARTESIAN_POINT('',(24.5,-61.,-19.));
#1410=CARTESIAN_POINT('',(24.5,-61.,-22.));
#1411=CARTESIAN_POINT('',(23.5,-62.,-19.));
#1412=CARTESIAN_POINT('',(23.5,-62.,-22.));
#1413=CARTESIAN_POINT('',(-14.,-62.,-19.));
#1414=CARTESIAN_POINT('',(-14.,-62.,-22.));
#1415=CARTESIAN_POINT('',(-15.,-63.,-19.));
#1416=CARTESIAN_POINT('',(-15.,-63.,-22.));
#1417=CARTESIAN_POINT('',(-15.,-111.,-19.));
#1418=CARTESIAN_POINT('',(-15.,-111.,-22.));
#1419=CARTESIAN_POINT('',(-14.,-112.,-19.));
#1420=CARTESIAN_POINT('',(-14.,-112.,-22.));
#1421=CARTESIAN_POINT('',(23.5,-112.,-19.));
#1422=CARTESIAN_POINT('',(23.5,-112.,-22.));
#1423=CARTESIAN_POINT('',(20.5,-33.,-18.));
#1424=CARTESIAN_POINT('',(-21.5,-33.,-18.));
#1425=CARTESIAN_POINT('',(-21.5,-34.,-19.));
#1426=CARTESIAN_POINT('',(20.5,-34.,-19.));
#1427=CARTESIAN_POINT('',(-22.5,-34.,-18.));
#1428=CARTESIAN_POINT('',(-22.5,-122.,-18.));
#1429=CARTESIAN_POINT('',(-21.5,-122.,-19.));
#1430=CARTESIAN_POINT('',(21.5,-42.,-18.));
#1431=CARTESIAN_POINT('',(21.5,-34.,-18.));
#1432=CARTESIAN_POINT('',(20.5,-42.,-19.));
#1433=CARTESIAN_POINT('',(-21.5,-123.,-18.));
#1434=CARTESIAN_POINT('',(20.5,-123.,-18.));
#1435=CARTESIAN_POINT('',(20.5,-122.,-19.));
#1436=CARTESIAN_POINT('',(21.5,-122.,-18.));
#1437=CARTESIAN_POINT('',(21.5,-119.,-18.));
#1438=CARTESIAN_POINT('',(20.5,-119.,-19.));
#1439=CARTESIAN_POINT('',(21.5,-42.,151.));
#1440=CARTESIAN_POINT('',(21.5,-34.,151.));
#1441=CARTESIAN_POINT('',(21.5,-34.,-18.));
#1442=CARTESIAN_POINT('',(21.5,-34.,-19.));
#1443=CARTESIAN_POINT('',(21.5,-42.,151.));
#1444=CARTESIAN_POINT('',(21.5,-42.,-18.));
#1445=CARTESIAN_POINT('',(21.5,-42.,-18.));
#1446=CARTESIAN_POINT('',(21.5,-42.,-19.));
#1447=CARTESIAN_POINT('',(20.5,-34.,151.));
#1448=CARTESIAN_POINT('',(21.5,-34.,151.));
#1449=CARTESIAN_POINT('',(20.5,-33.,151.));
#1450=CARTESIAN_POINT('',(20.5,-33.,-18.));
#1451=CARTESIAN_POINT('',(20.5,-33.,-19.));
#1452=CARTESIAN_POINT('',(20.5,-34.,-19.));
#1453=CARTESIAN_POINT('',(21.5,-34.,-19.));
#1454=CARTESIAN_POINT('',(20.5,-33.,-19.));
#1455=CARTESIAN_POINT('',(20.5,-33.,151.));
#1456=CARTESIAN_POINT('',(-21.5,-33.,151.));
#1457=CARTESIAN_POINT('',(-21.5,-33.,-18.));
#1458=CARTESIAN_POINT('',(-21.5,-33.,-19.));
#1459=CARTESIAN_POINT('',(20.5,-33.,-18.));
#1460=CARTESIAN_POINT('',(-21.5,-33.,-18.));
#1461=CARTESIAN_POINT('',(-21.5,-34.,151.));
#1462=CARTESIAN_POINT('',(-21.5,-33.,151.));
#1463=CARTESIAN_POINT('',(-22.5,-34.,151.));
#1464=CARTESIAN_POINT('',(-22.5,-34.,-18.));
#1465=CARTESIAN_POINT('',(-22.5,-34.,-19.));
#1466=CARTESIAN_POINT('',(-21.5,-34.,-19.));
#1467=CARTESIAN_POINT('',(-21.5,-33.,-19.));
#1468=CARTESIAN_POINT('',(-22.5,-34.,-19.));
#1469=CARTESIAN_POINT('',(-22.5,-34.,151.));
#1470=CARTESIAN_POINT('',(-22.5,-122.,151.));
#1471=CARTESIAN_POINT('',(-22.5,-122.,-18.));
#1472=CARTESIAN_POINT('',(-22.5,-122.,-19.));
#1473=CARTESIAN_POINT('',(-22.5,-34.,-18.));
#1474=CARTESIAN_POINT('',(-22.5,-122.,-18.));
#1475=CARTESIAN_POINT('',(-21.5,-122.,151.));
#1476=CARTESIAN_POINT('',(-22.5,-122.,151.));
#1477=CARTESIAN_POINT('',(-21.5,-123.,151.));
#1478=CARTESIAN_POINT('',(-21.5,-123.,-18.));
#1479=CARTESIAN_POINT('',(-21.5,-123.,-19.));
#1480=CARTESIAN_POINT('',(-21.5,-122.,-19.));
#1481=CARTESIAN_POINT('',(-22.5,-122.,-19.));
#1482=CARTESIAN_POINT('',(-21.5,-123.,-19.));
#1483=CARTESIAN_POINT('',(-21.5,-123.,151.));
#1484=CARTESIAN_POINT('',(20.5,-123.,151.));
#1485=CARTESIAN_POINT('',(20.5,-123.,-18.));
#1486=CARTESIAN_POINT('',(20.5,-123.,-19.));
#1487=CARTESIAN_POINT('',(-21.5,-123.,-18.));
#1488=CARTESIAN_POINT('',(20.5,-123.,-18.));
#1489=CARTESIAN_POINT('',(20.5,-122.,151.));
#1490=CARTESIAN_POINT('',(20.5,-123.,151.));
#1491=CARTESIAN_POINT('',(21.5,-122.,151.));
#1492=CARTESIAN_POINT('',(21.5,-122.,-18.));
#1493=CARTESIAN_POINT('',(21.5,-122.,-19.));
#1494=CARTESIAN_POINT('',(20.5,-122.,-19.));
#1495=CARTESIAN_POINT('',(20.5,-123.,-19.));
#1496=CARTESIAN_POINT('',(21.5,-122.,-19.));
#1497=CARTESIAN_POINT('',(21.5,-122.,151.));
#1498=CARTESIAN_POINT('',(21.5,-119.,151.));
#1499=CARTESIAN_POINT('',(21.5,-119.,-18.));
#1500=CARTESIAN_POINT('',(21.5,-119.,-19.));
#1501=CARTESIAN_POINT('',(21.5,-122.,-18.));
#1502=CARTESIAN_POINT('',(21.5,-119.,-18.));
#1503=CARTESIAN_POINT('',(22.5,-119.,151.));
#1504=CARTESIAN_POINT('',(21.5,-119.,151.));
#1505=CARTESIAN_POINT('',(22.5000000000001,-118.,151.));
#1506=CARTESIAN_POINT('',(22.5000000000001,-118.,151.));
#1507=CARTESIAN_POINT('',(22.5000000000001,-118.,-19.));
#1508=CARTESIAN_POINT('',(22.5,-119.,-19.));
#1509=CARTESIAN_POINT('',(21.5,-119.,-19.));
#1510=CARTESIAN_POINT('',(22.5000000000001,-118.,-19.));
#1511=CARTESIAN_POINT('',(22.5000000000001,-118.,151.));
#1512=CARTESIAN_POINT('',(23.5000000000002,-118.,151.));
#1513=CARTESIAN_POINT('',(23.5000000000002,-118.,151.));
#1514=CARTESIAN_POINT('',(23.5000000000002,-118.,-19.));
#1515=CARTESIAN_POINT('',(22.5000000000001,-118.,-19.));
#1516=CARTESIAN_POINT('',(23.5000000000002,-118.,-19.));
#1517=CARTESIAN_POINT('',(23.5,-119.,151.));
#1518=CARTESIAN_POINT('',(23.5000000000002,-118.,151.));
#1519=CARTESIAN_POINT('',(24.5,-119.,151.));
#1520=CARTESIAN_POINT('',(24.5,-119.,151.));
#1521=CARTESIAN_POINT('',(24.5,-119.,-19.));
#1522=CARTESIAN_POINT('',(23.5,-119.,-19.));
#1523=CARTESIAN_POINT('',(23.5000000000002,-118.,-19.));
#1524=CARTESIAN_POINT('',(24.5,-119.,-19.));
#1525=CARTESIAN_POINT('',(24.5,-119.,151.));
#1526=CARTESIAN_POINT('',(24.5,-123.,151.));
#1527=CARTESIAN_POINT('',(24.5,-125.,151.));
#1528=CARTESIAN_POINT('',(24.5,-125.,151.));
#1529=CARTESIAN_POINT('',(24.5,-125.,-19.));
#1530=CARTESIAN_POINT('',(23.5,-125.,151.));
#1531=CARTESIAN_POINT('',(24.5,-125.,151.));
#1532=CARTESIAN_POINT('',(23.5,-126.,151.));
#1533=CARTESIAN_POINT('',(23.5,-126.,151.));
#1534=CARTESIAN_POINT('',(23.5,-126.,-19.));
#1535=CARTESIAN_POINT('',(23.5,-125.,-19.));
#1536=CARTESIAN_POINT('',(24.5,-125.,-19.));
#1537=CARTESIAN_POINT('',(23.5,-126.,-19.));
#1538=CARTESIAN_POINT('',(23.5,-126.,151.));
#1539=CARTESIAN_POINT('',(-22.5,-126.,151.));
#1540=CARTESIAN_POINT('',(-24.5,-126.,151.));
#1541=CARTESIAN_POINT('',(-24.5,-126.,151.));
#1542=CARTESIAN_POINT('',(-24.5,-126.,-19.));
#1543=CARTESIAN_POINT('',(-24.5,-125.,151.));
#1544=CARTESIAN_POINT('',(-24.5,-126.,151.));
#1545=CARTESIAN_POINT('',(-25.5,-125.,151.));
#1546=CARTESIAN_POINT('',(-25.5,-125.,151.));
#1547=CARTESIAN_POINT('',(-25.5,-125.,-19.));
#1548=CARTESIAN_POINT('',(-24.5,-125.,-19.));
#1549=CARTESIAN_POINT('',(-24.5,-126.,-19.));
#1550=CARTESIAN_POINT('',(-25.5,-125.,-19.));
#1551=CARTESIAN_POINT('',(-25.5,-125.,151.));
#1552=CARTESIAN_POINT('',(-25.5,-33.,151.));
#1553=CARTESIAN_POINT('',(-25.5,-31.,151.));
#1554=CARTESIAN_POINT('',(-25.5,-31.,151.));
#1555=CARTESIAN_POINT('',(-25.5,-31.,-19.));
#1556=CARTESIAN_POINT('',(-24.5,-31.,151.));
#1557=CARTESIAN_POINT('',(-25.5,-31.,151.));
#1558=CARTESIAN_POINT('',(-24.5,-30.,151.));
#1559=CARTESIAN_POINT('',(-24.5,-30.,151.));
#1560=CARTESIAN_POINT('',(-24.5,-30.,-19.));
#1561=CARTESIAN_POINT('',(-24.5,-31.,-19.));
#1562=CARTESIAN_POINT('',(-25.5,-31.,-19.));
#1563=CARTESIAN_POINT('',(-24.5,-30.,-19.));
#1564=CARTESIAN_POINT('',(-24.5,-30.,151.));
#1565=CARTESIAN_POINT('',(23.5,-30.,151.));
#1566=CARTESIAN_POINT('',(23.5,-30.,151.));
#1567=CARTESIAN_POINT('',(23.5,-30.,-19.));
#1568=CARTESIAN_POINT('',(23.5,-31.,151.));
#1569=CARTESIAN_POINT('',(23.5,-30.,151.));
#1570=CARTESIAN_POINT('',(24.5,-31.,151.));
#1571=CARTESIAN_POINT('',(24.5,-31.,151.));
#1572=CARTESIAN_POINT('',(24.5,-31.,-19.));
#1573=CARTESIAN_POINT('',(23.5,-31.,-19.));
#1574=CARTESIAN_POINT('',(23.5,-30.,-19.));
#1575=CARTESIAN_POINT('',(24.5,-31.,-19.));
#1576=CARTESIAN_POINT('',(24.5,-31.,151.));
#1577=CARTESIAN_POINT('',(24.5,-33.,151.));
#1578=CARTESIAN_POINT('',(24.5,-42.,151.));
#1579=CARTESIAN_POINT('',(24.5,-42.,151.));
#1580=CARTESIAN_POINT('',(24.5,-42.,-19.));
#1581=CARTESIAN_POINT('',(23.5,-42.0000000000001,151.));
#1582=CARTESIAN_POINT('',(24.5,-42.,151.));
#1583=CARTESIAN_POINT('',(23.5,-43.,151.));
#1584=CARTESIAN_POINT('',(23.5,-43.,151.));
#1585=CARTESIAN_POINT('',(23.5,-43.,-19.));
#1586=CARTESIAN_POINT('',(23.5,-42.0000000000001,-19.));
#1587=CARTESIAN_POINT('',(24.5,-42.,-19.));
#1588=CARTESIAN_POINT('',(23.5,-43.,-19.));
#1589=CARTESIAN_POINT('',(23.5,-43.,151.));
#1590=CARTESIAN_POINT('',(22.5,-43.,151.));
#1591=CARTESIAN_POINT('',(22.5,-43.,151.));
#1592=CARTESIAN_POINT('',(22.5,-43.,-19.));
#1593=CARTESIAN_POINT('',(23.5,-43.,-19.));
#1594=CARTESIAN_POINT('',(22.5,-43.,-19.));
#1595=CARTESIAN_POINT('',(22.5,-42.,151.));
#1596=CARTESIAN_POINT('',(22.5,-43.,151.));
#1597=CARTESIAN_POINT('',(21.5,-42.,151.));
#1598=CARTESIAN_POINT('',(22.5,-42.,-19.));
#1599=CARTESIAN_POINT('',(22.5,-43.,-19.));
#1600=CARTESIAN_POINT('',(21.5,-42.,-19.));
#1601=CARTESIAN_POINT('',(24.5,-113.,-19.));
#1602=CARTESIAN_POINT('',(24.5,-119.,-19.));
#1603=CARTESIAN_POINT('',(24.5,-125.,-19.));
#1604=CARTESIAN_POINT('',(24.5,-125.,-22.));
#1605=CARTESIAN_POINT('',(24.5,-113.,-22.));
#1606=CARTESIAN_POINT('',(24.5,-125.,-22.));
#1607=CARTESIAN_POINT('',(24.5,-113.,-19.));
#1608=CARTESIAN_POINT('',(24.5,-113.,-22.));
#1609=CARTESIAN_POINT('',(23.5,-126.,-19.));
#1610=CARTESIAN_POINT('',(23.5,-126.,-22.));
#1611=CARTESIAN_POINT('',(23.5,-125.,-22.));
#1612=CARTESIAN_POINT('',(24.5,-125.,-22.));
#1613=CARTESIAN_POINT('',(23.5,-126.,-22.));
#1614=CARTESIAN_POINT('',(-24.5,-126.,-19.));
#1615=CARTESIAN_POINT('',(-24.5,-126.,-22.));
#1616=CARTESIAN_POINT('',(23.5,-126.,-22.));
#1617=CARTESIAN_POINT('',(-24.5,-126.,-22.));
#1618=CARTESIAN_POINT('',(-25.5,-125.,-19.));
#1619=CARTESIAN_POINT('',(-25.5,-125.,-22.));
#1620=CARTESIAN_POINT('',(-24.5,-125.,-22.));
#1621=CARTESIAN_POINT('',(-24.5,-126.,-22.));
#1622=CARTESIAN_POINT('',(-25.5,-125.,-22.));
#1623=CARTESIAN_POINT('',(-25.5,-31.,-19.));
#1624=CARTESIAN_POINT('',(-25.5,-31.,-22.));
#1625=CARTESIAN_POINT('',(-25.5,-125.,-22.));
#1626=CARTESIAN_POINT('',(-25.5,-31.,-22.));
#1627=CARTESIAN_POINT('',(-24.5,-30.,-19.));
#1628=CARTESIAN_POINT('',(-24.5,-30.,-22.));
#1629=CARTESIAN_POINT('',(-24.5,-31.,-22.));
#1630=CARTESIAN_POINT('',(-25.5,-31.,-22.));
#1631=CARTESIAN_POINT('',(-24.5,-30.,-22.));
#1632=CARTESIAN_POINT('',(23.5,-30.,-19.));
#1633=CARTESIAN_POINT('',(23.5,-30.,-22.));
#1634=CARTESIAN_POINT('',(-24.5,-30.,-22.));
#1635=CARTESIAN_POINT('',(23.5,-30.,-22.));
#1636=CARTESIAN_POINT('',(24.5,-31.,-19.));
#1637=CARTESIAN_POINT('',(24.5,-31.,-22.));
#1638=CARTESIAN_POINT('',(23.5,-31.,-22.));
#1639=CARTESIAN_POINT('',(23.5,-30.,-22.));
#1640=CARTESIAN_POINT('',(24.5,-31.,-22.));
#1641=CARTESIAN_POINT('',(24.5,-61.,-19.));
#1642=CARTESIAN_POINT('',(24.5,-61.,-22.));
#1643=CARTESIAN_POINT('',(24.5,-31.,-22.));
#1644=CARTESIAN_POINT('',(24.5,-61.,-22.));
#1645=CARTESIAN_POINT('',(23.5,-61.,-19.));
#1646=CARTESIAN_POINT('',(24.5,-61.,-19.));
#1647=CARTESIAN_POINT('',(23.5,-62.,-19.));
#1648=CARTESIAN_POINT('',(23.5,-62.,-19.));
#1649=CARTESIAN_POINT('',(23.5,-62.,-22.));
#1650=CARTESIAN_POINT('',(23.5,-61.,-22.));
#1651=CARTESIAN_POINT('',(24.5,-61.,-22.));
#1652=CARTESIAN_POINT('',(23.5,-62.,-22.));
#1653=CARTESIAN_POINT('',(23.5,-62.,-19.));
#1654=CARTESIAN_POINT('',(-14.,-62.,-19.));
#1655=CARTESIAN_POINT('',(-14.,-62.,-19.));
#1656=CARTESIAN_POINT('',(-14.,-62.,-22.));
#1657=CARTESIAN_POINT('',(23.5,-62.,-22.));
#1658=CARTESIAN_POINT('',(-14.,-62.,-22.));
#1659=CARTESIAN_POINT('',(-14.,-63.,-19.));
#1660=CARTESIAN_POINT('',(-14.,-62.,-19.));
#1661=CARTESIAN_POINT('',(-15.,-63.,-19.));
#1662=CARTESIAN_POINT('',(-15.,-63.,-19.));
#1663=CARTESIAN_POINT('',(-15.,-63.,-22.));
#1664=CARTESIAN_POINT('',(-14.,-63.,-22.));
#1665=CARTESIAN_POINT('',(-14.,-62.,-22.));
#1666=CARTESIAN_POINT('',(-15.,-63.,-22.));
#1667=CARTESIAN_POINT('',(-15.,-63.,-19.));
#1668=CARTESIAN_POINT('',(-15.,-111.,-19.));
#1669=CARTESIAN_POINT('',(-15.,-111.,-19.));
#1670=CARTESIAN_POINT('',(-15.,-111.,-22.));
#1671=CARTESIAN_POINT('',(-15.,-63.,-22.));
#1672=CARTESIAN_POINT('',(-15.,-111.,-22.));
#1673=CARTESIAN_POINT('',(-14.,-111.,-19.));
#1674=CARTESIAN_POINT('',(-15.,-111.,-19.));
#1675=CARTESIAN_POINT('',(-14.,-112.,-19.));
#1676=CARTESIAN_POINT('',(-14.,-112.,-19.));
#1677=CARTESIAN_POINT('',(-14.,-112.,-22.));
#1678=CARTESIAN_POINT('',(-14.,-111.,-22.));
#1679=CARTESIAN_POINT('',(-15.,-111.,-22.));
#1680=CARTESIAN_POINT('',(-14.,-112.,-22.));
#1681=CARTESIAN_POINT('',(-14.,-112.,-19.));
#1682=CARTESIAN_POINT('',(23.5,-112.,-19.));
#1683=CARTESIAN_POINT('',(23.5,-112.,-19.));
#1684=CARTESIAN_POINT('',(23.5,-112.,-22.));
#1685=CARTESIAN_POINT('',(-14.,-112.,-22.));
#1686=CARTESIAN_POINT('',(23.5,-112.,-22.));
#1687=CARTESIAN_POINT('',(23.5,-113.,-19.));
#1688=CARTESIAN_POINT('',(23.5,-112.,-19.));
#1689=CARTESIAN_POINT('',(24.5,-113.,-19.));
#1690=CARTESIAN_POINT('',(23.5,-113.,-22.));
#1691=CARTESIAN_POINT('',(23.5,-112.,-22.));
#1692=CARTESIAN_POINT('',(24.5,-113.,-22.));
#1693=CARTESIAN_POINT('',(24.5,-42.,-19.));
#1694=CARTESIAN_POINT('',(24.5,-61.,-19.));
#1695=CARTESIAN_POINT('',(20.5,-33.,151.));
#1696=CARTESIAN_POINT('',(20.5,-33.,-18.));
#1697=CARTESIAN_POINT('',(-21.5,-33.,151.));
#1698=CARTESIAN_POINT('',(-21.5,-33.,-18.));
#1699=CARTESIAN_POINT('',(-21.5,-34.,-19.));
#1700=CARTESIAN_POINT('',(-21.5,-33.,-19.));
#1701=CARTESIAN_POINT('',(20.5,-34.,-19.));
#1702=CARTESIAN_POINT('',(20.5,-33.,-19.));
#1703=CARTESIAN_POINT('',(20.5,-34.,-19.));
#1704=CARTESIAN_POINT('',(-21.5,-34.,-19.));
#1705=CARTESIAN_POINT('',(20.4999999999997,-34.,-18.));
#1706=CARTESIAN_POINT('',(20.5,-33.,-18.));
#1707=CARTESIAN_POINT('',(20.5,-34.,-19.));
#1708=CARTESIAN_POINT('',(-21.5000000000003,-34.,-18.));
#1709=CARTESIAN_POINT('',(-21.5,-33.,-18.));
#1710=CARTESIAN_POINT('',(-21.5,-34.,-19.));
#1711=CARTESIAN_POINT('',(-22.5,-34.,151.));
#1712=CARTESIAN_POINT('',(-22.5,-34.,-18.));
#1713=CARTESIAN_POINT('',(-22.5,-122.,151.));
#1714=CARTESIAN_POINT('',(-22.5,-122.,-18.));
#1715=CARTESIAN_POINT('',(-21.5,-122.,-19.));
#1716=CARTESIAN_POINT('',(-22.5,-122.,-19.));
#1717=CARTESIAN_POINT('',(-21.5,-34.,-19.));
#1718=CARTESIAN_POINT('',(-22.5,-34.,-19.));
#1719=CARTESIAN_POINT('',(-21.5,-34.,-19.));
#1720=CARTESIAN_POINT('',(-21.5,-122.,-19.));
#1721=CARTESIAN_POINT('',(-21.5,-34.0000000000001,-18.));
#1722=CARTESIAN_POINT('',(-22.5,-34.,-18.));
#1723=CARTESIAN_POINT('',(-21.5,-34.,-19.));
#1724=CARTESIAN_POINT('',(-21.5,-122.,-18.));
#1725=CARTESIAN_POINT('',(-22.5,-122.,-18.));
#1726=CARTESIAN_POINT('',(-21.5,-122.,-19.));
#1727=CARTESIAN_POINT('',(21.5,-34.,151.));
#1728=CARTESIAN_POINT('',(21.5,-34.,-18.));
#1729=CARTESIAN_POINT('',(21.5,-42.,-18.));
#1730=CARTESIAN_POINT('',(21.5,-34.,-18.));
#1731=CARTESIAN_POINT('',(20.5,-34.,-19.));
#1732=CARTESIAN_POINT('',(21.5,-34.,-19.));
#1733=CARTESIAN_POINT('',(20.5,-42.,-19.));
#1734=CARTESIAN_POINT('',(21.5,-42.,-19.));
#1735=CARTESIAN_POINT('',(20.5,-42.,-19.));
#1736=CARTESIAN_POINT('',(20.5,-34.,-19.));
#1737=CARTESIAN_POINT('',(20.5,-33.9999999999999,-18.));
#1738=CARTESIAN_POINT('',(21.5,-34.,-18.));
#1739=CARTESIAN_POINT('',(20.5,-34.,-19.));
#1740=CARTESIAN_POINT('',(20.5,-41.9999999999999,-18.));
#1741=CARTESIAN_POINT('',(21.5,-42.,-18.));
#1742=CARTESIAN_POINT('',(20.5,-42.,-19.));
#1743=CARTESIAN_POINT('',(-21.5,-123.,151.));
#1744=CARTESIAN_POINT('',(-21.5,-123.,-18.));
#1745=CARTESIAN_POINT('',(20.5,-123.,151.));
#1746=CARTESIAN_POINT('',(20.5,-123.,-18.));
#1747=CARTESIAN_POINT('',(20.5,-122.,-19.));
#1748=CARTESIAN_POINT('',(20.5,-123.,-19.));
#1749=CARTESIAN_POINT('',(-21.5,-122.,-19.));
#1750=CARTESIAN_POINT('',(-21.5,-123.,-19.));
#1751=CARTESIAN_POINT('',(-21.5,-122.,-19.));
#1752=CARTESIAN_POINT('',(20.5,-122.,-19.));
#1753=CARTESIAN_POINT('',(-21.4999999999993,-122.,-18.));
#1754=CARTESIAN_POINT('',(-21.5,-122.,-19.));
#1755=CARTESIAN_POINT('',(-21.5,-123.,-18.));
#1756=CARTESIAN_POINT('',(20.5000000000007,-122.,-18.0000000000002));
#1757=CARTESIAN_POINT('',(20.5,-123.,-18.));
#1758=CARTESIAN_POINT('',(20.5,-122.,-19.));
#1759=CARTESIAN_POINT('',(21.5,-122.,151.));
#1760=CARTESIAN_POINT('',(21.5,-122.,-18.));
#1761=CARTESIAN_POINT('',(21.5,-119.,151.));
#1762=CARTESIAN_POINT('',(21.5,-119.,-18.));
#1763=CARTESIAN_POINT('',(20.5,-119.,-19.));
#1764=CARTESIAN_POINT('',(21.5,-119.,-19.));
#1765=CARTESIAN_POINT('',(20.5,-122.,-19.));
#1766=CARTESIAN_POINT('',(21.5,-122.,-19.));
#1767=CARTESIAN_POINT('',(20.5,-122.,-19.));
#1768=CARTESIAN_POINT('',(20.5,-119.,-19.));
#1769=CARTESIAN_POINT('',(20.5,-122.,-18.));
#1770=CARTESIAN_POINT('',(20.5,-122.,-19.));
#1771=CARTESIAN_POINT('',(21.5,-122.,-18.));
#1772=CARTESIAN_POINT('',(20.5,-119.,-18.));
#1773=CARTESIAN_POINT('',(21.5,-119.,-18.));
#1774=CARTESIAN_POINT('',(20.5,-119.,-19.));
#1775=CARTESIAN_POINT('',(0.,0.,0.));
ENDSEC;
END-ISO-10303-21;
