ISO-10303-21;
HEADER;
/* Generated by software containing ST-Developer
 * from STEP Tools, Inc. (www.steptools.com) 
 */
/* OPTION: using custom schema-name function */

FILE_DESCRIPTION(
/* description */ (''),
/* implementation_level */ '2;1');

FILE_NAME(
/* name */ 'remote_holder_discoball',
/* time_stamp */ '2026-08-19T19:14:27+03:00',
/* author */ (''),
/* organization */ (''),
/* preprocessor_version */ 'ST-DEVELOPER v19.2',
/* originating_system */ 'Rhino 8.34',
/* authorisation */ '');

FILE_SCHEMA (('CONFIG_CONTROL_DESIGN'));
ENDSEC;

DATA;
#10=SHAPE_REPRESENTATION_RELATIONSHIP('','',#750,#12);
#11=MANIFOLD_SOLID_BREP('brep_1',#13);
#12=ADVANCED_BREP_SHAPE_REPRESENTATION('brep_rep_0',(#11,#805),#749);
#13=CLOSED_SHELL('',(#18,#19,#20,#21,#22,#23,#24,#25,#26,#27,#28,#29,#30,
#31,#32,#33,#34,#35,#36,#37,#38,#39,#40,#41,#42,#43,#44,#45,#46,#47,#48,
#49,#50,#51,#52,#53,#54,#55,#56));
#14=FACE_BOUND('',#99,.T.);
#15=FACE_BOUND('',#100,.T.);
#16=FACE_BOUND('',#106,.T.);
#17=FACE_BOUND('',#107,.T.);
#18=ADVANCED_FACE('',(#57),#650,.T.);
#19=ADVANCED_FACE('',(#58),#651,.T.);
#20=ADVANCED_FACE('',(#59,#14,#15),#652,.T.);
#21=ADVANCED_FACE('',(#60),#653,.T.);
#22=ADVANCED_FACE('',(#61),#654,.T.);
#23=ADVANCED_FACE('',(#62),#655,.T.);
#24=ADVANCED_FACE('',(#63),#656,.T.);
#25=ADVANCED_FACE('',(#64,#16,#17),#657,.T.);
#26=ADVANCED_FACE('',(#65),#658,.T.);
#27=ADVANCED_FACE('',(#66),#659,.T.);
#28=ADVANCED_FACE('',(#67),#660,.T.);
#29=ADVANCED_FACE('',(#68),#661,.T.);
#30=ADVANCED_FACE('',(#69),#662,.T.);
#31=ADVANCED_FACE('',(#70),#663,.T.);
#32=ADVANCED_FACE('',(#71),#629,.T.);
#33=ADVANCED_FACE('',(#72),#630,.T.);
#34=ADVANCED_FACE('',(#73),#631,.T.);
#35=ADVANCED_FACE('',(#74),#632,.T.);
#36=ADVANCED_FACE('',(#75),#633,.T.);
#37=ADVANCED_FACE('',(#76),#634,.T.);
#38=ADVANCED_FACE('',(#77),#635,.T.);
#39=ADVANCED_FACE('',(#78),#636,.T.);
#40=ADVANCED_FACE('',(#79),#637,.T.);
#41=ADVANCED_FACE('',(#80),#638,.T.);
#42=ADVANCED_FACE('',(#81),#639,.T.);
#43=ADVANCED_FACE('',(#82),#640,.T.);
#44=ADVANCED_FACE('',(#83),#641,.T.);
#45=ADVANCED_FACE('',(#84),#642,.T.);
#46=ADVANCED_FACE('',(#85),#643,.T.);
#47=ADVANCED_FACE('',(#86),#644,.T.);
#48=ADVANCED_FACE('',(#87),#645,.T.);
#49=ADVANCED_FACE('',(#88),#646,.F.);
#50=ADVANCED_FACE('',(#89),#625,.T.);
#51=ADVANCED_FACE('',(#90),#647,.F.);
#52=ADVANCED_FACE('',(#91),#626,.T.);
#53=ADVANCED_FACE('',(#92),#648,.F.);
#54=ADVANCED_FACE('',(#93),#627,.T.);
#55=ADVANCED_FACE('',(#94),#649,.F.);
#56=ADVANCED_FACE('',(#95),#628,.T.);
#57=FACE_OUTER_BOUND('',#96,.T.);
#58=FACE_OUTER_BOUND('',#97,.T.);
#59=FACE_OUTER_BOUND('',#98,.T.);
#60=FACE_OUTER_BOUND('',#101,.T.);
#61=FACE_OUTER_BOUND('',#102,.T.);
#62=FACE_OUTER_BOUND('',#103,.T.);
#63=FACE_OUTER_BOUND('',#104,.T.);
#64=FACE_OUTER_BOUND('',#105,.T.);
#65=FACE_OUTER_BOUND('',#108,.T.);
#66=FACE_OUTER_BOUND('',#109,.T.);
#67=FACE_OUTER_BOUND('',#110,.T.);
#68=FACE_OUTER_BOUND('',#111,.T.);
#69=FACE_OUTER_BOUND('',#112,.T.);
#70=FACE_OUTER_BOUND('',#113,.T.);
#71=FACE_OUTER_BOUND('',#114,.T.);
#72=FACE_OUTER_BOUND('',#115,.T.);
#73=FACE_OUTER_BOUND('',#116,.T.);
#74=FACE_OUTER_BOUND('',#117,.T.);
#75=FACE_OUTER_BOUND('',#118,.T.);
#76=FACE_OUTER_BOUND('',#119,.T.);
#77=FACE_OUTER_BOUND('',#120,.T.);
#78=FACE_OUTER_BOUND('',#121,.T.);
#79=FACE_OUTER_BOUND('',#122,.T.);
#80=FACE_OUTER_BOUND('',#123,.T.);
#81=FACE_OUTER_BOUND('',#124,.T.);
#82=FACE_OUTER_BOUND('',#125,.T.);
#83=FACE_OUTER_BOUND('',#126,.T.);
#84=FACE_OUTER_BOUND('',#127,.T.);
#85=FACE_OUTER_BOUND('',#128,.T.);
#86=FACE_OUTER_BOUND('',#129,.T.);
#87=FACE_OUTER_BOUND('',#130,.T.);
#88=FACE_OUTER_BOUND('',#131,.T.);
#89=FACE_OUTER_BOUND('',#132,.T.);
#90=FACE_OUTER_BOUND('',#133,.T.);
#91=FACE_OUTER_BOUND('',#134,.T.);
#92=FACE_OUTER_BOUND('',#135,.T.);
#93=FACE_OUTER_BOUND('',#136,.T.);
#94=FACE_OUTER_BOUND('',#137,.T.);
#95=FACE_OUTER_BOUND('',#138,.T.);
#96=EDGE_LOOP('',(#139,#140,#141,#142));
#97=EDGE_LOOP('',(#143,#144,#145,#146));
#98=EDGE_LOOP('',(#147,#148,#149,#150));
#99=EDGE_LOOP('',(#151,#152));
#100=EDGE_LOOP('',(#153,#154));
#101=EDGE_LOOP('',(#155,#156,#157,#158));
#102=EDGE_LOOP('',(#159,#160,#161,#162));
#103=EDGE_LOOP('',(#163,#164,#165,#166));
#104=EDGE_LOOP('',(#167,#168,#169,#170,#171,#172,#173,#174,#175,#176,#177,
#178));
#105=EDGE_LOOP('',(#179,#180,#181,#182,#183,#184));
#106=EDGE_LOOP('',(#185,#186));
#107=EDGE_LOOP('',(#187,#188));
#108=EDGE_LOOP('',(#189,#190,#191,#192));
#109=EDGE_LOOP('',(#193,#194,#195,#196));
#110=EDGE_LOOP('',(#197,#198,#199,#200));
#111=EDGE_LOOP('',(#201,#202,#203,#204));
#112=EDGE_LOOP('',(#205,#206,#207,#208,#209,#210,#211,#212));
#113=EDGE_LOOP('',(#213,#214,#215,#216,#217,#218,#219,#220));
#114=EDGE_LOOP('',(#221,#222,#223,#224,#225));
#115=EDGE_LOOP('',(#226,#227,#228,#229));
#116=EDGE_LOOP('',(#230,#231,#232,#233));
#117=EDGE_LOOP('',(#234,#235,#236,#237));
#118=EDGE_LOOP('',(#238,#239,#240,#241,#242));
#119=EDGE_LOOP('',(#243,#244,#245,#246,#247));
#120=EDGE_LOOP('',(#248,#249,#250,#251));
#121=EDGE_LOOP('',(#252,#253,#254,#255,#256));
#122=EDGE_LOOP('',(#257,#258,#259,#260));
#123=EDGE_LOOP('',(#261,#262,#263,#264));
#124=EDGE_LOOP('',(#265,#266,#267,#268,#269));
#125=EDGE_LOOP('',(#270,#271,#272,#273,#274));
#126=EDGE_LOOP('',(#275,#276,#277,#278,#279));
#127=EDGE_LOOP('',(#280,#281,#282,#283));
#128=EDGE_LOOP('',(#284,#285,#286,#287,#288));
#129=EDGE_LOOP('',(#289,#290,#291,#292,#293,#294));
#130=EDGE_LOOP('',(#295,#296,#297,#298,#299,#300));
#131=EDGE_LOOP('',(#301,#302,#303,#304,#305));
#132=EDGE_LOOP('',(#306,#307,#308,#309,#310));
#133=EDGE_LOOP('',(#311,#312,#313,#314,#315));
#134=EDGE_LOOP('',(#316,#317,#318,#319,#320));
#135=EDGE_LOOP('',(#321,#322,#323,#324,#325));
#136=EDGE_LOOP('',(#326,#327,#328,#329,#330));
#137=EDGE_LOOP('',(#331,#332,#333,#334,#335));
#138=EDGE_LOOP('',(#336,#337,#338,#339,#340));
#139=ORIENTED_EDGE('',*,*,#393,.T.);
#140=ORIENTED_EDGE('',*,*,#344,.F.);
#141=ORIENTED_EDGE('',*,*,#343,.F.);
#142=ORIENTED_EDGE('',*,*,#346,.F.);
#143=ORIENTED_EDGE('',*,*,#352,.T.);
#144=ORIENTED_EDGE('',*,*,#350,.T.);
#145=ORIENTED_EDGE('',*,*,#351,.F.);
#146=ORIENTED_EDGE('',*,*,#349,.F.);
#147=ORIENTED_EDGE('',*,*,#369,.T.);
#148=ORIENTED_EDGE('',*,*,#354,.F.);
#149=ORIENTED_EDGE('',*,*,#349,.T.);
#150=ORIENTED_EDGE('',*,*,#355,.T.);
#151=ORIENTED_EDGE('',*,*,#434,.F.);
#152=ORIENTED_EDGE('',*,*,#419,.F.);
#153=ORIENTED_EDGE('',*,*,#440,.F.);
#154=ORIENTED_EDGE('',*,*,#425,.F.);
#155=ORIENTED_EDGE('',*,*,#353,.F.);
#156=ORIENTED_EDGE('',*,*,#352,.F.);
#157=ORIENTED_EDGE('',*,*,#354,.T.);
#158=ORIENTED_EDGE('',*,*,#347,.F.);
#159=ORIENTED_EDGE('',*,*,#348,.T.);
#160=ORIENTED_EDGE('',*,*,#355,.F.);
#161=ORIENTED_EDGE('',*,*,#351,.T.);
#162=ORIENTED_EDGE('',*,*,#356,.T.);
#163=ORIENTED_EDGE('',*,*,#357,.T.);
#164=ORIENTED_EDGE('',*,*,#358,.T.);
#165=ORIENTED_EDGE('',*,*,#359,.T.);
#166=ORIENTED_EDGE('',*,*,#360,.F.);
#167=ORIENTED_EDGE('',*,*,#416,.T.);
#168=ORIENTED_EDGE('',*,*,#361,.T.);
#169=ORIENTED_EDGE('',*,*,#372,.T.);
#170=ORIENTED_EDGE('',*,*,#362,.F.);
#171=ORIENTED_EDGE('',*,*,#373,.F.);
#172=ORIENTED_EDGE('',*,*,#374,.T.);
#173=ORIENTED_EDGE('',*,*,#411,.T.);
#174=ORIENTED_EDGE('',*,*,#375,.T.);
#175=ORIENTED_EDGE('',*,*,#341,.T.);
#176=ORIENTED_EDGE('',*,*,#368,.F.);
#177=ORIENTED_EDGE('',*,*,#367,.F.);
#178=ORIENTED_EDGE('',*,*,#342,.T.);
#179=ORIENTED_EDGE('',*,*,#362,.T.);
#180=ORIENTED_EDGE('',*,*,#402,.T.);
#181=ORIENTED_EDGE('',*,*,#359,.F.);
#182=ORIENTED_EDGE('',*,*,#364,.F.);
#183=ORIENTED_EDGE('',*,*,#344,.T.);
#184=ORIENTED_EDGE('',*,*,#400,.T.);
#185=ORIENTED_EDGE('',*,*,#422,.T.);
#186=ORIENTED_EDGE('',*,*,#432,.T.);
#187=ORIENTED_EDGE('',*,*,#428,.T.);
#188=ORIENTED_EDGE('',*,*,#438,.T.);
#189=ORIENTED_EDGE('',*,*,#343,.T.);
#190=ORIENTED_EDGE('',*,*,#364,.T.);
#191=ORIENTED_EDGE('',*,*,#358,.F.);
#192=ORIENTED_EDGE('',*,*,#363,.F.);
#193=ORIENTED_EDGE('',*,*,#376,.T.);
#194=ORIENTED_EDGE('',*,*,#365,.T.);
#195=ORIENTED_EDGE('',*,*,#377,.F.);
#196=ORIENTED_EDGE('',*,*,#412,.F.);
#197=ORIENTED_EDGE('',*,*,#378,.F.);
#198=ORIENTED_EDGE('',*,*,#366,.F.);
#199=ORIENTED_EDGE('',*,*,#345,.T.);
#200=ORIENTED_EDGE('',*,*,#417,.F.);
#201=ORIENTED_EDGE('',*,*,#394,.T.);
#202=ORIENTED_EDGE('',*,*,#366,.T.);
#203=ORIENTED_EDGE('',*,*,#379,.F.);
#204=ORIENTED_EDGE('',*,*,#365,.F.);
#205=ORIENTED_EDGE('',*,*,#356,.F.);
#206=ORIENTED_EDGE('',*,*,#350,.F.);
#207=ORIENTED_EDGE('',*,*,#353,.T.);
#208=ORIENTED_EDGE('',*,*,#384,.F.);
#209=ORIENTED_EDGE('',*,*,#383,.T.);
#210=ORIENTED_EDGE('',*,*,#381,.T.);
#211=ORIENTED_EDGE('',*,*,#382,.T.);
#212=ORIENTED_EDGE('',*,*,#380,.F.);
#213=ORIENTED_EDGE('',*,*,#396,.F.);
#214=ORIENTED_EDGE('',*,*,#346,.T.);
#215=ORIENTED_EDGE('',*,*,#363,.T.);
#216=ORIENTED_EDGE('',*,*,#357,.F.);
#217=ORIENTED_EDGE('',*,*,#398,.F.);
#218=ORIENTED_EDGE('',*,*,#399,.F.);
#219=ORIENTED_EDGE('',*,*,#397,.F.);
#220=ORIENTED_EDGE('',*,*,#395,.F.);
#221=ORIENTED_EDGE('',*,*,#386,.T.);
#222=ORIENTED_EDGE('',*,*,#384,.T.);
#223=ORIENTED_EDGE('',*,*,#385,.F.);
#224=ORIENTED_EDGE('',*,*,#375,.F.);
#225=ORIENTED_EDGE('',*,*,#370,.T.);
#226=ORIENTED_EDGE('',*,*,#388,.F.);
#227=ORIENTED_EDGE('',*,*,#368,.T.);
#228=ORIENTED_EDGE('',*,*,#387,.F.);
#229=ORIENTED_EDGE('',*,*,#369,.F.);
#230=ORIENTED_EDGE('',*,*,#347,.T.);
#231=ORIENTED_EDGE('',*,*,#387,.T.);
#232=ORIENTED_EDGE('',*,*,#341,.F.);
#233=ORIENTED_EDGE('',*,*,#385,.T.);
#234=ORIENTED_EDGE('',*,*,#389,.F.);
#235=ORIENTED_EDGE('',*,*,#367,.T.);
#236=ORIENTED_EDGE('',*,*,#388,.T.);
#237=ORIENTED_EDGE('',*,*,#348,.F.);
#238=ORIENTED_EDGE('',*,*,#408,.F.);
#239=ORIENTED_EDGE('',*,*,#377,.T.);
#240=ORIENTED_EDGE('',*,*,#390,.F.);
#241=ORIENTED_EDGE('',*,*,#383,.F.);
#242=ORIENTED_EDGE('',*,*,#386,.F.);
#243=ORIENTED_EDGE('',*,*,#413,.F.);
#244=ORIENTED_EDGE('',*,*,#392,.F.);
#245=ORIENTED_EDGE('',*,*,#382,.F.);
#246=ORIENTED_EDGE('',*,*,#391,.F.);
#247=ORIENTED_EDGE('',*,*,#378,.T.);
#248=ORIENTED_EDGE('',*,*,#390,.T.);
#249=ORIENTED_EDGE('',*,*,#379,.T.);
#250=ORIENTED_EDGE('',*,*,#391,.T.);
#251=ORIENTED_EDGE('',*,*,#381,.F.);
#252=ORIENTED_EDGE('',*,*,#342,.F.);
#253=ORIENTED_EDGE('',*,*,#389,.T.);
#254=ORIENTED_EDGE('',*,*,#380,.T.);
#255=ORIENTED_EDGE('',*,*,#392,.T.);
#256=ORIENTED_EDGE('',*,*,#371,.T.);
#257=ORIENTED_EDGE('',*,*,#403,.T.);
#258=ORIENTED_EDGE('',*,*,#373,.T.);
#259=ORIENTED_EDGE('',*,*,#400,.F.);
#260=ORIENTED_EDGE('',*,*,#393,.F.);
#261=ORIENTED_EDGE('',*,*,#360,.T.);
#262=ORIENTED_EDGE('',*,*,#402,.F.);
#263=ORIENTED_EDGE('',*,*,#372,.F.);
#264=ORIENTED_EDGE('',*,*,#401,.T.);
#265=ORIENTED_EDGE('',*,*,#409,.F.);
#266=ORIENTED_EDGE('',*,*,#374,.F.);
#267=ORIENTED_EDGE('',*,*,#403,.F.);
#268=ORIENTED_EDGE('',*,*,#396,.T.);
#269=ORIENTED_EDGE('',*,*,#404,.F.);
#270=ORIENTED_EDGE('',*,*,#404,.T.);
#271=ORIENTED_EDGE('',*,*,#395,.T.);
#272=ORIENTED_EDGE('',*,*,#406,.T.);
#273=ORIENTED_EDGE('',*,*,#376,.F.);
#274=ORIENTED_EDGE('',*,*,#410,.T.);
#275=ORIENTED_EDGE('',*,*,#345,.F.);
#276=ORIENTED_EDGE('',*,*,#407,.F.);
#277=ORIENTED_EDGE('',*,*,#399,.T.);
#278=ORIENTED_EDGE('',*,*,#405,.T.);
#279=ORIENTED_EDGE('',*,*,#415,.T.);
#280=ORIENTED_EDGE('',*,*,#397,.T.);
#281=ORIENTED_EDGE('',*,*,#407,.T.);
#282=ORIENTED_EDGE('',*,*,#394,.F.);
#283=ORIENTED_EDGE('',*,*,#406,.F.);
#284=ORIENTED_EDGE('',*,*,#414,.F.);
#285=ORIENTED_EDGE('',*,*,#405,.F.);
#286=ORIENTED_EDGE('',*,*,#398,.T.);
#287=ORIENTED_EDGE('',*,*,#401,.F.);
#288=ORIENTED_EDGE('',*,*,#361,.F.);
#289=ORIENTED_EDGE('',*,*,#409,.T.);
#290=ORIENTED_EDGE('',*,*,#410,.F.);
#291=ORIENTED_EDGE('',*,*,#412,.T.);
#292=ORIENTED_EDGE('',*,*,#408,.T.);
#293=ORIENTED_EDGE('',*,*,#370,.F.);
#294=ORIENTED_EDGE('',*,*,#411,.F.);
#295=ORIENTED_EDGE('',*,*,#371,.F.);
#296=ORIENTED_EDGE('',*,*,#413,.T.);
#297=ORIENTED_EDGE('',*,*,#417,.T.);
#298=ORIENTED_EDGE('',*,*,#415,.F.);
#299=ORIENTED_EDGE('',*,*,#414,.T.);
#300=ORIENTED_EDGE('',*,*,#416,.F.);
#301=ORIENTED_EDGE('',*,*,#422,.F.);
#302=ORIENTED_EDGE('',*,*,#423,.T.);
#303=ORIENTED_EDGE('',*,*,#421,.T.);
#304=ORIENTED_EDGE('',*,*,#435,.T.);
#305=ORIENTED_EDGE('',*,*,#430,.F.);
#306=ORIENTED_EDGE('',*,*,#421,.F.);
#307=ORIENTED_EDGE('',*,*,#420,.F.);
#308=ORIENTED_EDGE('',*,*,#418,.T.);
#309=ORIENTED_EDGE('',*,*,#419,.T.);
#310=ORIENTED_EDGE('',*,*,#433,.F.);
#311=ORIENTED_EDGE('',*,*,#428,.F.);
#312=ORIENTED_EDGE('',*,*,#429,.T.);
#313=ORIENTED_EDGE('',*,*,#427,.T.);
#314=ORIENTED_EDGE('',*,*,#441,.T.);
#315=ORIENTED_EDGE('',*,*,#436,.F.);
#316=ORIENTED_EDGE('',*,*,#427,.F.);
#317=ORIENTED_EDGE('',*,*,#426,.F.);
#318=ORIENTED_EDGE('',*,*,#424,.T.);
#319=ORIENTED_EDGE('',*,*,#425,.T.);
#320=ORIENTED_EDGE('',*,*,#439,.F.);
#321=ORIENTED_EDGE('',*,*,#430,.T.);
#322=ORIENTED_EDGE('',*,*,#431,.T.);
#323=ORIENTED_EDGE('',*,*,#420,.T.);
#324=ORIENTED_EDGE('',*,*,#423,.F.);
#325=ORIENTED_EDGE('',*,*,#432,.F.);
#326=ORIENTED_EDGE('',*,*,#433,.T.);
#327=ORIENTED_EDGE('',*,*,#434,.T.);
#328=ORIENTED_EDGE('',*,*,#418,.F.);
#329=ORIENTED_EDGE('',*,*,#431,.F.);
#330=ORIENTED_EDGE('',*,*,#435,.F.);
#331=ORIENTED_EDGE('',*,*,#436,.T.);
#332=ORIENTED_EDGE('',*,*,#437,.T.);
#333=ORIENTED_EDGE('',*,*,#426,.T.);
#334=ORIENTED_EDGE('',*,*,#429,.F.);
#335=ORIENTED_EDGE('',*,*,#438,.F.);
#336=ORIENTED_EDGE('',*,*,#439,.T.);
#337=ORIENTED_EDGE('',*,*,#440,.T.);
#338=ORIENTED_EDGE('',*,*,#424,.F.);
#339=ORIENTED_EDGE('',*,*,#437,.F.);
#340=ORIENTED_EDGE('',*,*,#441,.F.);
#341=EDGE_CURVE('',#573,#574,#482,.T.);
#342=EDGE_CURVE('',#575,#603,#483,.T.);
#343=EDGE_CURVE('',#563,#564,#484,.T.);
#344=EDGE_CURVE('',#564,#583,#485,.T.);
#345=EDGE_CURVE('',#592,#604,#486,.T.);
#346=EDGE_CURVE('',#587,#563,#487,.T.);
#347=EDGE_CURVE('',#571,#570,#488,.T.);
#348=EDGE_CURVE('',#572,#569,#489,.T.);
#349=EDGE_CURVE('',#565,#567,#490,.T.);
#350=EDGE_CURVE('',#566,#568,#491,.T.);
#351=EDGE_CURVE('',#567,#568,#492,.T.);
#352=EDGE_CURVE('',#565,#566,#493,.T.);
#353=EDGE_CURVE('',#566,#571,#494,.T.);
#354=EDGE_CURVE('',#565,#570,#495,.T.);
#355=EDGE_CURVE('',#567,#569,#496,.T.);
#356=EDGE_CURVE('',#568,#572,#497,.T.);
#357=EDGE_CURVE('',#588,#561,#498,.T.);
#358=EDGE_CURVE('',#561,#562,#499,.T.);
#359=EDGE_CURVE('',#562,#584,#500,.T.);
#360=EDGE_CURVE('',#588,#584,#501,.T.);
#361=EDGE_CURVE('',#605,#590,#502,.T.);
#362=EDGE_CURVE('',#586,#585,#503,.T.);
#363=EDGE_CURVE('',#563,#561,#504,.T.);
#364=EDGE_CURVE('',#564,#562,#505,.T.);
#365=EDGE_CURVE('',#591,#577,#506,.T.);
#366=EDGE_CURVE('',#592,#578,#507,.T.);
#367=EDGE_CURVE('',#575,#576,#508,.T.);
#368=EDGE_CURVE('',#576,#574,#509,.T.);
#369=EDGE_CURVE('',#569,#570,#510,.T.);
#370=EDGE_CURVE('',#598,#601,#511,.T.);
#371=EDGE_CURVE('',#607,#603,#512,.T.);
#372=EDGE_CURVE('',#590,#585,#513,.T.);
#373=EDGE_CURVE('',#589,#586,#514,.T.);
#374=EDGE_CURVE('',#589,#597,#515,.T.);
#375=EDGE_CURVE('',#598,#573,#516,.T.);
#376=EDGE_CURVE('',#599,#591,#517,.T.);
#377=EDGE_CURVE('',#600,#577,#518,.T.);
#378=EDGE_CURVE('',#578,#606,#519,.T.);
#379=EDGE_CURVE('',#577,#578,#520,.T.);
#380=EDGE_CURVE('',#572,#579,#521,.T.);
#381=EDGE_CURVE('',#580,#581,#522,.T.);
#382=EDGE_CURVE('',#581,#579,#523,.T.);
#383=EDGE_CURVE('',#582,#580,#524,.T.);
#384=EDGE_CURVE('',#582,#571,#525,.T.);
#385=EDGE_CURVE('',#573,#571,#526,.T.);
#386=EDGE_CURVE('',#601,#582,#527,.T.);
#387=EDGE_CURVE('',#570,#574,#528,.T.);
#388=EDGE_CURVE('',#576,#569,#529,.T.);
#389=EDGE_CURVE('',#575,#572,#530,.T.);
#390=EDGE_CURVE('',#580,#577,#531,.T.);
#391=EDGE_CURVE('',#578,#581,#532,.T.);
#392=EDGE_CURVE('',#579,#607,#533,.T.);
#393=EDGE_CURVE('',#587,#583,#534,.T.);
#394=EDGE_CURVE('',#591,#592,#535,.T.);
#395=EDGE_CURVE('',#593,#594,#536,.T.);
#396=EDGE_CURVE('',#587,#593,#537,.T.);
#397=EDGE_CURVE('',#594,#595,#538,.T.);
#398=EDGE_CURVE('',#596,#588,#539,.T.);
#399=EDGE_CURVE('',#595,#596,#540,.T.);
#400=EDGE_CURVE('',#583,#586,#446,.T.);
#401=EDGE_CURVE('',#590,#588,#541,.T.);
#402=EDGE_CURVE('',#585,#584,#447,.T.);
#403=EDGE_CURVE('',#587,#589,#542,.T.);
#404=EDGE_CURVE('',#602,#593,#543,.T.);
#405=EDGE_CURVE('',#596,#608,#544,.T.);
#406=EDGE_CURVE('',#594,#591,#545,.T.);
#407=EDGE_CURVE('',#595,#592,#546,.T.);
#408=EDGE_CURVE('',#600,#601,#547,.T.);
#409=EDGE_CURVE('',#597,#602,#548,.T.);
#410=EDGE_CURVE('',#599,#602,#549,.T.);
#411=EDGE_CURVE('',#597,#598,#550,.T.);
#412=EDGE_CURVE('',#599,#600,#551,.T.);
#413=EDGE_CURVE('',#607,#606,#552,.T.);
#414=EDGE_CURVE('',#608,#605,#553,.T.);
#415=EDGE_CURVE('',#608,#604,#554,.T.);
#416=EDGE_CURVE('',#603,#605,#555,.T.);
#417=EDGE_CURVE('',#606,#604,#556,.T.);
#418=EDGE_CURVE('',#610,#611,#557,.T.);
#419=EDGE_CURVE('',#611,#620,#448,.T.);
#420=EDGE_CURVE('',#610,#609,#449,.T.);
#421=EDGE_CURVE('',#609,#619,#450,.T.);
#422=EDGE_CURVE('',#612,#617,#451,.T.);
#423=EDGE_CURVE('',#612,#609,#442,.T.);
#424=EDGE_CURVE('',#614,#615,#558,.T.);
#425=EDGE_CURVE('',#615,#624,#452,.T.);
#426=EDGE_CURVE('',#614,#613,#453,.T.);
#427=EDGE_CURVE('',#613,#623,#454,.T.);
#428=EDGE_CURVE('',#616,#621,#455,.T.);
#429=EDGE_CURVE('',#616,#613,#443,.T.);
#430=EDGE_CURVE('',#617,#618,#444,.T.);
#431=EDGE_CURVE('',#618,#610,#456,.T.);
#432=EDGE_CURVE('',#617,#612,#457,.T.);
#433=EDGE_CURVE('',#619,#620,#559,.T.);
#434=EDGE_CURVE('',#620,#611,#458,.T.);
#435=EDGE_CURVE('',#619,#618,#459,.T.);
#436=EDGE_CURVE('',#621,#622,#445,.T.);
#437=EDGE_CURVE('',#622,#614,#460,.T.);
#438=EDGE_CURVE('',#621,#616,#461,.T.);
#439=EDGE_CURVE('',#623,#624,#560,.T.);
#440=EDGE_CURVE('',#624,#615,#462,.T.);
#441=EDGE_CURVE('',#623,#622,#463,.T.);
#442=(
BOUNDED_CURVE()
B_SPLINE_CURVE(1,(#1463,#1464),.UNSPECIFIED.,.F.,.F.)
B_SPLINE_CURVE_WITH_KNOTS((2,2),(3.2,4.),.UNSPECIFIED.)
CURVE()
GEOMETRIC_REPRESENTATION_ITEM()
RATIONAL_B_SPLINE_CURVE((1.,1.))
REPRESENTATION_ITEM('')
);
#443=(
BOUNDED_CURVE()
B_SPLINE_CURVE(1,(#1479,#1480),.UNSPECIFIED.,.F.,.F.)
B_SPLINE_CURVE_WITH_KNOTS((2,2),(3.19999999999999,4.),.UNSPECIFIED.)
CURVE()
GEOMETRIC_REPRESENTATION_ITEM()
RATIONAL_B_SPLINE_CURVE((1.,1.))
REPRESENTATION_ITEM('')
);
#444=(
BOUNDED_CURVE()
B_SPLINE_CURVE(1,(#1481,#1482),.UNSPECIFIED.,.F.,.F.)
B_SPLINE_CURVE_WITH_KNOTS((2,2),(3.19999999999999,4.),.UNSPECIFIED.)
CURVE()
GEOMETRIC_REPRESENTATION_ITEM()
RATIONAL_B_SPLINE_CURVE((1.,1.))
REPRESENTATION_ITEM('')
);
#445=(
BOUNDED_CURVE()
B_SPLINE_CURVE(1,(#1497,#1498),.UNSPECIFIED.,.F.,.F.)
B_SPLINE_CURVE_WITH_KNOTS((2,2),(3.19999999999999,4.),.UNSPECIFIED.)
CURVE()
GEOMETRIC_REPRESENTATION_ITEM()
RATIONAL_B_SPLINE_CURVE((1.,1.))
REPRESENTATION_ITEM('')
);
#446=TRIMMED_CURVE($,#464,(#1252),(#1253),.T.,.CARTESIAN.);
#447=TRIMMED_CURVE($,#465,(#1267),(#1268),.T.,.CARTESIAN.);
#448=TRIMMED_CURVE($,#466,(#1452),(#1453),.T.,.CARTESIAN.);
#449=TRIMMED_CURVE($,#467,(#1455),(#1456),.T.,.CARTESIAN.);
#450=TRIMMED_CURVE($,#468,(#1458),(#1459),.T.,.CARTESIAN.);
#451=TRIMMED_CURVE($,#469,(#1461),(#1462),.T.,.CARTESIAN.);
#452=TRIMMED_CURVE($,#470,(#1468),(#1469),.T.,.CARTESIAN.);
#453=TRIMMED_CURVE($,#471,(#1471),(#1472),.T.,.CARTESIAN.);
#454=TRIMMED_CURVE($,#472,(#1474),(#1475),.T.,.CARTESIAN.);
#455=TRIMMED_CURVE($,#473,(#1477),(#1478),.T.,.CARTESIAN.);
#456=TRIMMED_CURVE($,#474,(#1484),(#1485),.T.,.CARTESIAN.);
#457=TRIMMED_CURVE($,#475,(#1487),(#1488),.T.,.CARTESIAN.);
#458=TRIMMED_CURVE($,#476,(#1492),(#1493),.T.,.CARTESIAN.);
#459=TRIMMED_CURVE($,#477,(#1495),(#1496),.T.,.CARTESIAN.);
#460=TRIMMED_CURVE($,#478,(#1500),(#1501),.T.,.CARTESIAN.);
#461=TRIMMED_CURVE($,#479,(#1503),(#1504),.T.,.CARTESIAN.);
#462=TRIMMED_CURVE($,#480,(#1508),(#1509),.T.,.CARTESIAN.);
#463=TRIMMED_CURVE($,#481,(#1511),(#1512),.T.,.CARTESIAN.);
#464=CIRCLE('',#787,0.500000000000014);
#465=CIRCLE('',#788,0.499999999999986);
#466=CIRCLE('',#789,3.);
#467=CIRCLE('',#790,1.50000000000001);
#468=CIRCLE('',#791,1.5);
#469=CIRCLE('',#792,1.5);
#470=CIRCLE('',#793,3.);
#471=CIRCLE('',#794,1.50000000000001);
#472=CIRCLE('',#795,1.5);
#473=CIRCLE('',#796,1.5);
#474=CIRCLE('',#797,1.49999999999999);
#475=CIRCLE('',#798,1.5);
#476=CIRCLE('',#799,3.);
#477=CIRCLE('',#800,1.5);
#478=CIRCLE('',#801,1.50000000000001);
#479=CIRCLE('',#802,1.5);
#480=CIRCLE('',#803,3.);
#481=CIRCLE('',#804,1.49999999999999);
#482=B_SPLINE_CURVE_WITH_KNOTS('',1,(#1021,#1022),.UNSPECIFIED.,.F.,.F.,
(2,2),(-0.499999999999994,7.7),.UNSPECIFIED.);
#483=B_SPLINE_CURVE_WITH_KNOTS('',1,(#1023,#1024),.UNSPECIFIED.,.F.,.F.,
(2,2),(-0.500000000000003,2.25000000000001),.UNSPECIFIED.);
#484=B_SPLINE_CURVE_WITH_KNOTS('',1,(#1025,#1026),.UNSPECIFIED.,.F.,.F.,
(2,2),(0.,11.2),.UNSPECIFIED.);
#485=B_SPLINE_CURVE_WITH_KNOTS('',1,(#1027,#1028),.UNSPECIFIED.,.F.,.F.,
(2,2),(11.2,97.2),.UNSPECIFIED.);
#486=B_SPLINE_CURVE_WITH_KNOTS('',1,(#1029,#1030),.UNSPECIFIED.,.F.,.F.,
(2,2),(0.,77.5),.UNSPECIFIED.);
#487=B_SPLINE_CURVE_WITH_KNOTS('',1,(#1031,#1032),.UNSPECIFIED.,.F.,.F.,
(2,2),(109.4,195.4),.UNSPECIFIED.);
#488=B_SPLINE_CURVE_WITH_KNOTS('',1,(#1033,#1034),.UNSPECIFIED.,.F.,.F.,
(2,2),(2.14114440463423E-16,7.2),.UNSPECIFIED.);
#489=B_SPLINE_CURVE_WITH_KNOTS('',1,(#1035,#1036),.UNSPECIFIED.,.F.,.F.,
(2,2),(-2.31560802278961E-15,7.2),.UNSPECIFIED.);
#490=B_SPLINE_CURVE_WITH_KNOTS('',1,(#1037,#1038),.UNSPECIFIED.,.F.,.F.,
(2,2),(0.,41.5),.UNSPECIFIED.);
#491=B_SPLINE_CURVE_WITH_KNOTS('',1,(#1039,#1040),.UNSPECIFIED.,.F.,.F.,
(2,2),(0.,41.5),.UNSPECIFIED.);
#492=B_SPLINE_CURVE_WITH_KNOTS('',1,(#1041,#1042),.UNSPECIFIED.,.F.,.F.,
(2,2),(-8.7,-1.5),.UNSPECIFIED.);
#493=B_SPLINE_CURVE_WITH_KNOTS('',1,(#1043,#1044),.UNSPECIFIED.,.F.,.F.,
(2,2),(99.7,106.9),.UNSPECIFIED.);
#494=B_SPLINE_CURVE_WITH_KNOTS('',1,(#1045,#1046),.UNSPECIFIED.,.F.,.F.,
(2,2),(-257.5,-173.),.UNSPECIFIED.);
#495=B_SPLINE_CURVE_WITH_KNOTS('',1,(#1047,#1048),.UNSPECIFIED.,.F.,.F.,
(2,2),(-257.5,-173.),.UNSPECIFIED.);
#496=B_SPLINE_CURVE_WITH_KNOTS('',1,(#1049,#1050),.UNSPECIFIED.,.F.,.F.,
(2,2),(1.5,86.),.UNSPECIFIED.);
#497=B_SPLINE_CURVE_WITH_KNOTS('',1,(#1051,#1052),.UNSPECIFIED.,.F.,.F.,
(2,2),(1.5,86.),.UNSPECIFIED.);
#498=B_SPLINE_CURVE_WITH_KNOTS('',1,(#1053,#1054,#1055),.UNSPECIFIED.,.F.,
 .F.,(2,1,2),(-129.,-44.5,-43.),.UNSPECIFIED.);
#499=B_SPLINE_CURVE_WITH_KNOTS('',1,(#1056,#1057,#1058,#1059),
 .UNSPECIFIED.,.F.,.F.,(2,1,1,2),(43.,44.5,51.7,54.2),.UNSPECIFIED.);
#500=B_SPLINE_CURVE_WITH_KNOTS('',1,(#1060,#1061,#1062),.UNSPECIFIED.,.F.,
 .F.,(2,1,2),(0.,1.5,86.),.UNSPECIFIED.);
#501=B_SPLINE_CURVE_WITH_KNOTS('',1,(#1063,#1064),.UNSPECIFIED.,.F.,.F.,
(2,2),(0.,11.2),.UNSPECIFIED.);
#502=B_SPLINE_CURVE_WITH_KNOTS('',1,(#1065,#1066),.UNSPECIFIED.,.F.,.F.,
(2,2),(0.499999999999989,3.75),.UNSPECIFIED.);
#503=B_SPLINE_CURVE_WITH_KNOTS('',1,(#1067,#1068),.UNSPECIFIED.,.F.,.F.,
(2,2),(0.5,44.),.UNSPECIFIED.);
#504=B_SPLINE_CURVE_WITH_KNOTS('',1,(#1069,#1070),.UNSPECIFIED.,.F.,.F.,
(2,2),(0.,44.5),.UNSPECIFIED.);
#505=B_SPLINE_CURVE_WITH_KNOTS('',1,(#1071,#1072),.UNSPECIFIED.,.F.,.F.,
(2,2),(0.,44.5),.UNSPECIFIED.);
#506=B_SPLINE_CURVE_WITH_KNOTS('',1,(#1073,#1074),.UNSPECIFIED.,.F.,.F.,
(2,2),(0.499999999999999,1.),.UNSPECIFIED.);
#507=B_SPLINE_CURVE_WITH_KNOTS('',1,(#1075,#1076),.UNSPECIFIED.,.F.,.F.,
(2,2),(0.5,0.999999999999999),.UNSPECIFIED.);
#508=B_SPLINE_CURVE_WITH_KNOTS('',1,(#1077,#1078),.UNSPECIFIED.,.F.,.F.,
(2,2),(-0.499999999999994,7.69999999999999),.UNSPECIFIED.);
#509=B_SPLINE_CURVE_WITH_KNOTS('',1,(#1079,#1080),.UNSPECIFIED.,.F.,.F.,
(2,2),(-0.5,42.),.UNSPECIFIED.);
#510=B_SPLINE_CURVE_WITH_KNOTS('',1,(#1081,#1082),.UNSPECIFIED.,.F.,.F.,
(2,2),(-1.66533453693773E-16,41.5),.UNSPECIFIED.);
#511=B_SPLINE_CURVE_WITH_KNOTS('',3,(#1083,#1084,#1085,#1086,#1087,#1088,
#1089,#1090,#1091,#1092,#1093,#1094,#1095,#1096,#1097,#1098,#1099,#1100,
#1101,#1102),.UNSPECIFIED.,.F.,.F.,(4,1,1,1,1,1,1,1,1,1,1,1,1,1,1,1,1,4),
(0.,0.0296575523769965,0.0597811937669275,0.0903260256722373,0.12124258057174,
0.152477088636895,0.183971840782874,0.215665655945538,0.247494453072392,
0.279391923768057,0.311290297667062,0.343121188602805,0.37481650564541,
0.406309409297726,0.437535289771183,0.468432741518876,0.498944506273785,
0.529020612358689),.UNSPECIFIED.);
#512=B_SPLINE_CURVE_WITH_KNOTS('',3,(#1103,#1104,#1105,#1106,#1107,#1108,
#1109,#1110,#1111,#1112,#1113,#1114,#1115,#1116,#1117,#1118,#1119,#1120,
#1121,#1122),.UNSPECIFIED.,.F.,.F.,(4,1,1,1,1,1,1,1,1,1,1,1,1,1,1,1,1,4),
(-0.529020612358673,-0.498944506273743,-0.468432741518828,-0.437535289771176,
-0.406309409297716,-0.374816505645409,-0.343121188602772,-0.311290297667047,
-0.279391923768029,-0.247494453072375,-0.215665655945551,-0.183971840782877,
-0.15247708863692,-0.121242580571721,-0.0903260256721544,-0.0597811937670089,
-0.0296575523767805,0.),.UNSPECIFIED.);
#513=B_SPLINE_CURVE_WITH_KNOTS('',1,(#1123,#1124),.UNSPECIFIED.,.F.,.F.,
(2,2),(0.499999999999998,11.2),.UNSPECIFIED.);
#514=B_SPLINE_CURVE_WITH_KNOTS('',1,(#1125,#1126),.UNSPECIFIED.,.F.,.F.,
(2,2),(0.5,11.2),.UNSPECIFIED.);
#515=B_SPLINE_CURVE_WITH_KNOTS('',1,(#1127,#1128),.UNSPECIFIED.,.F.,.F.,
(2,2),(0.500000000000001,3.75),.UNSPECIFIED.);
#516=B_SPLINE_CURVE_WITH_KNOTS('',1,(#1129,#1130),.UNSPECIFIED.,.F.,.F.,
(2,2),(0.499999999999988,3.24999999999999),.UNSPECIFIED.);
#517=B_SPLINE_CURVE_WITH_KNOTS('',1,(#1131,#1132),.UNSPECIFIED.,.F.,.F.,
(2,2),(0.499999999999981,78.),.UNSPECIFIED.);
#518=B_SPLINE_CURVE_WITH_KNOTS('',1,(#1133,#1134),.UNSPECIFIED.,.F.,.F.,
(2,2),(0.499999999999998,78.),.UNSPECIFIED.);
#519=B_SPLINE_CURVE_WITH_KNOTS('',1,(#1135,#1136),.UNSPECIFIED.,.F.,.F.,
(2,2),(0.,77.5),.UNSPECIFIED.);
#520=B_SPLINE_CURVE_WITH_KNOTS('',1,(#1137,#1138),.UNSPECIFIED.,.F.,.F.,
(2,2),(0.,36.),.UNSPECIFIED.);
#521=B_SPLINE_CURVE_WITH_KNOTS('',1,(#1139,#1140),.UNSPECIFIED.,.F.,.F.,
(2,2),(2.22044604925031E-16,2.25000000000001),.UNSPECIFIED.);
#522=B_SPLINE_CURVE_WITH_KNOTS('',1,(#1141,#1142),.UNSPECIFIED.,.F.,.F.,
(2,2),(-0.5,36.5),.UNSPECIFIED.);
#523=B_SPLINE_CURVE_WITH_KNOTS('',1,(#1143,#1144),.UNSPECIFIED.,.F.,.F.,
(2,2),(-0.499999999999997,77.5),.UNSPECIFIED.);
#524=B_SPLINE_CURVE_WITH_KNOTS('',1,(#1145,#1146),.UNSPECIFIED.,.F.,.F.,
(2,2),(0.499999999999983,78.5),.UNSPECIFIED.);
#525=B_SPLINE_CURVE_WITH_KNOTS('',1,(#1147,#1148),.UNSPECIFIED.,.F.,.F.,
(2,2),(0.499999999999998,2.75),.UNSPECIFIED.);
#526=B_SPLINE_CURVE_WITH_KNOTS('',3,(#1149,#1150,#1151,#1152,#1153,#1154,
#1155,#1156,#1157,#1158,#1159,#1160),.UNSPECIFIED.,.F.,.F.,(4,1,1,1,1,1,
1,1,1,4),(-0.953838456918844,-0.839554257838383,-0.72063286570174,-0.600352080560439,
-0.482321915030766,-0.369825550506389,-0.265140961625708,-0.169115792310587,
-0.0812085600481097,0.),.UNSPECIFIED.);
#527=B_SPLINE_CURVE_WITH_KNOTS('',3,(#1161,#1162,#1163,#1164,#1165,#1166,
#1167,#1168),.UNSPECIFIED.,.F.,.F.,(4,1,1,1,1,4),(0.425215757901042,0.482321915030762,
0.600352080560425,0.72063286570173,0.839554257838346,0.953838456918848),
 .UNSPECIFIED.);
#528=B_SPLINE_CURVE_WITH_KNOTS('',3,(#1169,#1170,#1171,#1172,#1173,#1174,
#1175,#1176,#1177,#1178,#1179,#1180),.UNSPECIFIED.,.F.,.F.,(4,1,1,1,1,1,
1,1,1,4),(0.,0.0812085600480951,0.169115792310574,0.265140961625715,0.369825550506391,
0.482321915030781,0.600352080560456,0.720632865701757,0.839554257838455,
0.953838456918839),.UNSPECIFIED.);
#529=B_SPLINE_CURVE_WITH_KNOTS('',3,(#1181,#1182,#1183,#1184,#1185,#1186,
#1187,#1188,#1189,#1190,#1191,#1192),.UNSPECIFIED.,.F.,.F.,(4,1,1,1,1,1,
1,1,1,4),(-0.953838456918823,-0.839554257838377,-0.720632865701728,-0.60035208056039,
-0.482321915030733,-0.369825550506357,-0.265140961625676,-0.169115792310552,
-0.0812085600480739,0.),.UNSPECIFIED.);
#530=B_SPLINE_CURVE_WITH_KNOTS('',3,(#1193,#1194,#1195,#1196,#1197,#1198,
#1199,#1200,#1201,#1202,#1203,#1204),.UNSPECIFIED.,.F.,.F.,(4,1,1,1,1,1,
1,1,1,4),(-0.953838456918847,-0.839554257838382,-0.720632865701725,-0.600352080560407,
-0.482321915030752,-0.369825550506371,-0.265140961625699,-0.169115792310575,
-0.0812085600480803,0.),.UNSPECIFIED.);
#531=B_SPLINE_CURVE_WITH_KNOTS('',3,(#1205,#1206,#1207,#1208,#1209,#1210,
#1211,#1212,#1213,#1214,#1215,#1216),.UNSPECIFIED.,.F.,.F.,(4,1,1,1,1,1,
1,1,1,4),(-0.953838456918852,-0.839554257838345,-0.720632865701737,-0.600352080560432,
-0.482321915030759,-0.369825550506382,-0.265140961625711,-0.169115792310575,
-0.0812085600480939,0.),.UNSPECIFIED.);
#532=B_SPLINE_CURVE_WITH_KNOTS('',3,(#1217,#1218,#1219,#1220,#1221,#1222,
#1223,#1224,#1225,#1226,#1227,#1228),.UNSPECIFIED.,.F.,.F.,(4,1,1,1,1,1,
1,1,1,4),(0.,0.0812085600480934,0.16911579231058,0.265140961625717,0.369825550506384,
0.48232191503075,0.600352080560425,0.72063286570173,0.839554257838351,0.95383845691885),
 .UNSPECIFIED.);
#533=B_SPLINE_CURVE_WITH_KNOTS('',3,(#1229,#1230,#1231,#1232,#1233,#1234,
#1235,#1236),.UNSPECIFIED.,.F.,.F.,(4,1,1,1,1,4),(-0.953838456918846,-0.839554257838362,
-0.720632865701734,-0.60035208056044,-0.482321915030761,-0.425215757901067),
 .UNSPECIFIED.);
#534=B_SPLINE_CURVE_WITH_KNOTS('',1,(#1237,#1238),.UNSPECIFIED.,.F.,.F.,
(2,2),(0.,11.2),.UNSPECIFIED.);
#535=B_SPLINE_CURVE_WITH_KNOTS('',1,(#1239,#1240),.UNSPECIFIED.,.F.,.F.,
(2,2),(0.,36.),.UNSPECIFIED.);
#536=B_SPLINE_CURVE_WITH_KNOTS('',1,(#1241,#1242),.UNSPECIFIED.,.F.,.F.,
(2,2),(0.500000000000017,78.5),.UNSPECIFIED.);
#537=B_SPLINE_CURVE_WITH_KNOTS('',1,(#1243,#1244),.UNSPECIFIED.,.F.,.F.,
(2,2),(0.,3.75),.UNSPECIFIED.);
#538=B_SPLINE_CURVE_WITH_KNOTS('',1,(#1245,#1246),.UNSPECIFIED.,.F.,.F.,
(2,2),(-0.499999999999999,36.5),.UNSPECIFIED.);
#539=B_SPLINE_CURVE_WITH_KNOTS('',1,(#1247,#1248),.UNSPECIFIED.,.F.,.F.,
(2,2),(0.500000000000004,4.25),.UNSPECIFIED.);
#540=B_SPLINE_CURVE_WITH_KNOTS('',1,(#1249,#1250),.UNSPECIFIED.,.F.,.F.,
(2,2),(-0.499999999999983,77.5),.UNSPECIFIED.);
#541=B_SPLINE_CURVE_WITH_KNOTS('',3,(#1254,#1255,#1256,#1257,#1258,#1259,
#1260,#1261,#1262,#1263,#1264,#1265),.UNSPECIFIED.,.F.,.F.,(4,1,1,1,1,1,
1,1,1,4),(-0.953838456918845,-0.839554257838367,-0.720632865701763,-0.600352080560456,
-0.482321915030766,-0.369825550506384,-0.265140961625706,-0.169115792310576,
-0.0812085600480949,0.),.UNSPECIFIED.);
#542=B_SPLINE_CURVE_WITH_KNOTS('',3,(#1269,#1270,#1271,#1272,#1273,#1274,
#1275,#1276,#1277,#1278,#1279,#1280),.UNSPECIFIED.,.F.,.F.,(4,1,1,1,1,1,
1,1,1,4),(0.,0.0812085600480807,0.169115792310575,0.265140961625701,0.369825550506372,
0.48232191503075,0.60035208056041,0.720632865701775,0.839554257838366,0.953838456918839),
 .UNSPECIFIED.);
#543=B_SPLINE_CURVE_WITH_KNOTS('',3,(#1281,#1282,#1283,#1284,#1285,#1286,
#1287,#1288),.UNSPECIFIED.,.F.,.F.,(4,1,1,1,1,4),(0.425215757901048,0.48232191503076,
0.600352080560418,0.720632865701734,0.839554257838364,0.953838456918856),
 .UNSPECIFIED.);
#544=B_SPLINE_CURVE_WITH_KNOTS('',3,(#1289,#1290,#1291,#1292,#1293,#1294,
#1295,#1296),.UNSPECIFIED.,.F.,.F.,(4,1,1,1,1,4),(-0.953838456918854,-0.839554257838357,
-0.720632865701729,-0.600352080560428,-0.482321915030758,-0.425215757901063),
 .UNSPECIFIED.);
#545=B_SPLINE_CURVE_WITH_KNOTS('',3,(#1297,#1298,#1299,#1300,#1301,#1302,
#1303,#1304,#1305,#1306,#1307,#1308),.UNSPECIFIED.,.F.,.F.,(4,1,1,1,1,1,
1,1,1,4),(-0.953838456918848,-0.839554257838351,-0.720632865701726,-0.600352080560428,
-0.482321915030754,-0.369825550506386,-0.265140961625713,-0.169115792310577,
-0.0812085600480974,0.),.UNSPECIFIED.);
#546=B_SPLINE_CURVE_WITH_KNOTS('',3,(#1309,#1310,#1311,#1312,#1313,#1314,
#1315,#1316,#1317,#1318,#1319,#1320),.UNSPECIFIED.,.F.,.F.,(4,1,1,1,1,1,
1,1,1,4),(-0.953838456918838,-0.839554257838357,-0.720632865701729,-0.600352080560423,
-0.482321915030756,-0.369825550506391,-0.265140961625714,-0.169115792310584,
-0.0812085600480989,0.),.UNSPECIFIED.);
#547=B_SPLINE_CURVE_WITH_KNOTS('',3,(#1321,#1322,#1323,#1324,#1325,#1326,
#1327,#1328,#1329,#1330,#1331,#1332,#1333,#1334,#1335,#1336,#1337,#1338,
#1339,#1340),.UNSPECIFIED.,.F.,.F.,(4,1,1,1,1,1,1,1,1,1,1,1,1,1,1,1,1,4),
(0.,0.0296575523767785,0.0597811937668727,0.0903260256721476,0.121242580571761,
0.152477088636885,0.183971840782882,0.215665655945514,0.247494453072394,
0.279391923768038,0.311290297667029,0.343121188602788,0.374816505645406,
0.406309409297709,0.437535289771179,0.468432741518859,0.498944506273768,
0.529020612358682),.UNSPECIFIED.);
#548=B_SPLINE_CURVE_WITH_KNOTS('',3,(#1341,#1342,#1343,#1344,#1345,#1346,
#1347,#1348,#1349,#1350,#1351,#1352,#1353,#1354,#1355,#1356,#1357,#1358,
#1359,#1360),.UNSPECIFIED.,.F.,.F.,(4,1,1,1,1,1,1,1,1,1,1,1,1,1,1,1,1,4),
(0.,0.0296575523769984,0.0597811937669319,0.090326025672205,0.121242580571679,
0.152477088636932,0.18397184078289,0.21566565594555,0.247494453072346,0.279391923768055,
0.311290297667061,0.343121188602782,0.374816505645428,0.406309409297726,
0.437535289771198,0.46843274151888,0.498944506273795,0.529020612358698),
 .UNSPECIFIED.);
#549=B_SPLINE_CURVE_WITH_KNOTS('',3,(#1361,#1362,#1363,#1364,#1365,#1366,
#1367,#1368,#1369,#1370,#1371,#1372,#1373,#1374,#1375,#1376,#1377,#1378,
#1379,#1380),.UNSPECIFIED.,.F.,.F.,(4,1,1,1,1,1,1,1,1,1,1,1,1,1,1,1,1,4),
(0.,0.0296575523768269,0.059781193766881,0.0903260256721401,0.121242580571713,
0.152477088636927,0.183971840782872,0.215665655945532,0.247494453072354,
0.279391923768022,0.311290297667028,0.34312118860276,0.374816505645396,
0.406309409297693,0.437535289771155,0.468432741518839,0.49894450627374,
0.529020612358674),.UNSPECIFIED.);
#550=B_SPLINE_CURVE_WITH_KNOTS('',1,(#1381,#1382),.UNSPECIFIED.,.F.,.F.,
(2,2),(1.73934940524609E-15,0.499999999999997),.UNSPECIFIED.);
#551=B_SPLINE_CURVE_WITH_KNOTS('',1,(#1383,#1384),.UNSPECIFIED.,.F.,.F.,
(2,2),(-4.69994413757983E-15,0.499999999999996),.UNSPECIFIED.);
#552=B_SPLINE_CURVE_WITH_KNOTS('',3,(#1385,#1386,#1387,#1388,#1389,#1390,
#1391,#1392,#1393,#1394,#1395,#1396,#1397,#1398,#1399,#1400,#1401,#1402,
#1403,#1404),.UNSPECIFIED.,.F.,.F.,(4,1,1,1,1,1,1,1,1,1,1,1,1,1,1,1,1,4),
(-0.529020612358724,-0.498944506273816,-0.468432741518902,-0.437535289771226,
-0.406309409297753,-0.374816505645437,-0.34312118860282,-0.311290297667075,
-0.279391923768063,-0.247494453072387,-0.215665655945544,-0.183971840782898,
-0.152477088636921,-0.121242580571725,-0.0903260256721915,-0.0597811937669172,
-0.0296575523767647,0.),.UNSPECIFIED.);
#553=B_SPLINE_CURVE_WITH_KNOTS('',3,(#1405,#1406,#1407,#1408,#1409,#1410,
#1411,#1412,#1413,#1414,#1415,#1416,#1417,#1418,#1419,#1420,#1421,#1422,
#1423,#1424),.UNSPECIFIED.,.F.,.F.,(4,1,1,1,1,1,1,1,1,1,1,1,1,1,1,1,1,4),
(-0.529020612358692,-0.498944506273766,-0.468432741518867,-0.437535289771195,
-0.406309409297718,-0.374816505645432,-0.343121188602798,-0.311290297667042,
-0.279391923768088,-0.247494453072368,-0.215665655945539,-0.1839718407829,
-0.152477088636948,-0.121242580571768,-0.0903260256722354,-0.0597811937670142,
-0.0296575523767755,0.),.UNSPECIFIED.);
#554=B_SPLINE_CURVE_WITH_KNOTS('',3,(#1425,#1426,#1427,#1428,#1429,#1430,
#1431,#1432,#1433,#1434,#1435,#1436,#1437,#1438,#1439,#1440,#1441,#1442,
#1443,#1444),.UNSPECIFIED.,.F.,.F.,(4,1,1,1,1,1,1,1,1,1,1,1,1,1,1,1,1,4),
(-0.529020612358712,-0.49894450627378,-0.468432741518868,-0.437535289771203,
-0.40630940929771,-0.374816505645418,-0.3431211886028,-0.311290297667056,
-0.279391923768049,-0.247494453072398,-0.21566565594554,-0.183971840782891,
-0.15247708863692,-0.121242580571736,-0.0903260256722314,-0.0597811937669659,
-0.0296575523768816,0.),.UNSPECIFIED.);
#555=B_SPLINE_CURVE_WITH_KNOTS('',1,(#1445,#1446),.UNSPECIFIED.,.F.,.F.,
(2,2),(2.40548322002118E-16,0.499999999999998),.UNSPECIFIED.);
#556=B_SPLINE_CURVE_WITH_KNOTS('',1,(#1447,#1448),.UNSPECIFIED.,.F.,.F.,
(2,2),(2.96059473233375E-16,0.500000000000001),.UNSPECIFIED.);
#557=B_SPLINE_CURVE_WITH_KNOTS('',1,(#1449,#1450),.UNSPECIFIED.,.F.,.F.,
(2,2),(3.,5.26715680975093),.UNSPECIFIED.);
#558=B_SPLINE_CURVE_WITH_KNOTS('',1,(#1465,#1466),.UNSPECIFIED.,.F.,.F.,
(2,2),(3.,5.26715680975093),.UNSPECIFIED.);
#559=B_SPLINE_CURVE_WITH_KNOTS('',1,(#1489,#1490),.UNSPECIFIED.,.F.,.F.,
(2,2),(3.,5.26715680975093),.UNSPECIFIED.);
#560=B_SPLINE_CURVE_WITH_KNOTS('',1,(#1505,#1506),.UNSPECIFIED.,.F.,.F.,
(2,2),(3.,5.26715680975093),.UNSPECIFIED.);
#561=VERTEX_POINT('',#957);
#562=VERTEX_POINT('',#958);
#563=VERTEX_POINT('',#959);
#564=VERTEX_POINT('',#960);
#565=VERTEX_POINT('',#961);
#566=VERTEX_POINT('',#962);
#567=VERTEX_POINT('',#963);
#568=VERTEX_POINT('',#964);
#569=VERTEX_POINT('',#965);
#570=VERTEX_POINT('',#966);
#571=VERTEX_POINT('',#967);
#572=VERTEX_POINT('',#968);
#573=VERTEX_POINT('',#969);
#574=VERTEX_POINT('',#970);
#575=VERTEX_POINT('',#971);
#576=VERTEX_POINT('',#972);
#577=VERTEX_POINT('',#973);
#578=VERTEX_POINT('',#974);
#579=VERTEX_POINT('',#975);
#580=VERTEX_POINT('',#976);
#581=VERTEX_POINT('',#977);
#582=VERTEX_POINT('',#978);
#583=VERTEX_POINT('',#979);
#584=VERTEX_POINT('',#980);
#585=VERTEX_POINT('',#981);
#586=VERTEX_POINT('',#982);
#587=VERTEX_POINT('',#983);
#588=VERTEX_POINT('',#984);
#589=VERTEX_POINT('',#985);
#590=VERTEX_POINT('',#986);
#591=VERTEX_POINT('',#987);
#592=VERTEX_POINT('',#988);
#593=VERTEX_POINT('',#989);
#594=VERTEX_POINT('',#990);
#595=VERTEX_POINT('',#991);
#596=VERTEX_POINT('',#992);
#597=VERTEX_POINT('',#993);
#598=VERTEX_POINT('',#994);
#599=VERTEX_POINT('',#995);
#600=VERTEX_POINT('',#996);
#601=VERTEX_POINT('',#997);
#602=VERTEX_POINT('',#998);
#603=VERTEX_POINT('',#999);
#604=VERTEX_POINT('',#1000);
#605=VERTEX_POINT('',#1001);
#606=VERTEX_POINT('',#1002);
#607=VERTEX_POINT('',#1003);
#608=VERTEX_POINT('',#1004);
#609=VERTEX_POINT('',#1005);
#610=VERTEX_POINT('',#1006);
#611=VERTEX_POINT('',#1007);
#612=VERTEX_POINT('',#1008);
#613=VERTEX_POINT('',#1009);
#614=VERTEX_POINT('',#1010);
#615=VERTEX_POINT('',#1011);
#616=VERTEX_POINT('',#1012);
#617=VERTEX_POINT('',#1013);
#618=VERTEX_POINT('',#1014);
#619=VERTEX_POINT('',#1015);
#620=VERTEX_POINT('',#1016);
#621=VERTEX_POINT('',#1017);
#622=VERTEX_POINT('',#1018);
#623=VERTEX_POINT('',#1019);
#624=VERTEX_POINT('',#1020);
#625=(
BOUNDED_SURFACE()
B_SPLINE_SURFACE(1,2,((#914,#915,#916,#917,#918),(#919,#920,#921,#922,#923)),
 .UNSPECIFIED.,.F.,.F.,.F.)
B_SPLINE_SURFACE_WITH_KNOTS((2,2),(3,2,3),(3.,5.26715680975093),(0.,4.6505484635758,
9.3010969271516),.UNSPECIFIED.)
GEOMETRIC_REPRESENTATION_ITEM()
RATIONAL_B_SPLINE_SURFACE(((1.,0.707106781186548,1.,0.707106781186548,1.),
(1.,0.707106781186548,1.,0.707106781186548,1.)))
REPRESENTATION_ITEM('')
SURFACE()
);
#626=(
BOUNDED_SURFACE()
B_SPLINE_SURFACE(1,2,((#925,#926,#927,#928,#929),(#930,#931,#932,#933,#934)),
 .UNSPECIFIED.,.F.,.F.,.F.)
B_SPLINE_SURFACE_WITH_KNOTS((2,2),(3,2,3),(3.,5.26715680975093),(0.,4.6505484635758,
9.3010969271516),.UNSPECIFIED.)
GEOMETRIC_REPRESENTATION_ITEM()
RATIONAL_B_SPLINE_SURFACE(((1.,0.707106781186548,1.,0.707106781186548,1.),
(1.,0.707106781186548,1.,0.707106781186548,1.)))
REPRESENTATION_ITEM('')
SURFACE()
);
#627=(
BOUNDED_SURFACE()
B_SPLINE_SURFACE(1,2,((#936,#937,#938,#939,#940),(#941,#942,#943,#944,#945)),
 .UNSPECIFIED.,.F.,.F.,.F.)
B_SPLINE_SURFACE_WITH_KNOTS((2,2),(3,2,3),(3.,5.26715680975093),(9.3010969271516,
13.9516453907274,18.6021938543032),.UNSPECIFIED.)
GEOMETRIC_REPRESENTATION_ITEM()
RATIONAL_B_SPLINE_SURFACE(((1.,0.707106781186548,1.,0.707106781186548,1.),
(1.,0.707106781186548,1.,0.707106781186548,1.)))
REPRESENTATION_ITEM('')
SURFACE()
);
#628=(
BOUNDED_SURFACE()
B_SPLINE_SURFACE(1,2,((#947,#948,#949,#950,#951),(#952,#953,#954,#955,#956)),
 .UNSPECIFIED.,.F.,.F.,.F.)
B_SPLINE_SURFACE_WITH_KNOTS((2,2),(3,2,3),(3.,5.26715680975093),(9.3010969271516,
13.9516453907274,18.6021938543032),.UNSPECIFIED.)
GEOMETRIC_REPRESENTATION_ITEM()
RATIONAL_B_SPLINE_SURFACE(((1.,0.707106781186548,1.,0.707106781186548,1.),
(1.,0.707106781186548,1.,0.707106781186548,1.)))
REPRESENTATION_ITEM('')
SURFACE()
);
#629=CYLINDRICAL_SURFACE('',#766,0.499999999999991);
#630=CYLINDRICAL_SURFACE('',#767,0.500000000000011);
#631=CYLINDRICAL_SURFACE('',#768,0.500000000000004);
#632=CYLINDRICAL_SURFACE('',#769,0.500000000000007);
#633=CYLINDRICAL_SURFACE('',#770,0.500000000000008);
#634=CYLINDRICAL_SURFACE('',#771,0.499999999999999);
#635=CYLINDRICAL_SURFACE('',#772,0.50000000000002);
#636=CYLINDRICAL_SURFACE('',#773,0.499999999999986);
#637=CYLINDRICAL_SURFACE('',#774,0.500000000000011);
#638=CYLINDRICAL_SURFACE('',#775,0.500000000000014);
#639=CYLINDRICAL_SURFACE('',#776,0.499999999999993);
#640=CYLINDRICAL_SURFACE('',#777,0.500000000000001);
#641=CYLINDRICAL_SURFACE('',#778,0.499999999999996);
#642=CYLINDRICAL_SURFACE('',#779,0.5);
#643=CYLINDRICAL_SURFACE('',#780,0.500000000000014);
#644=CYLINDRICAL_SURFACE('',#781,0.499999999999979);
#645=CYLINDRICAL_SURFACE('',#782,0.500000000000021);
#646=CYLINDRICAL_SURFACE('',#783,1.5);
#647=CYLINDRICAL_SURFACE('',#784,1.5);
#648=CYLINDRICAL_SURFACE('',#785,1.5);
#649=CYLINDRICAL_SURFACE('',#786,1.5);
#650=PLANE('',#752);
#651=PLANE('',#753);
#652=PLANE('',#754);
#653=PLANE('',#755);
#654=PLANE('',#756);
#655=PLANE('',#757);
#656=PLANE('',#758);
#657=PLANE('',#759);
#658=PLANE('',#760);
#659=PLANE('',#761);
#660=PLANE('',#762);
#661=PLANE('',#763);
#662=PLANE('',#764);
#663=PLANE('',#765);
#664=SHAPE_DEFINITION_REPRESENTATION(#665,#750);
#665=PRODUCT_DEFINITION_SHAPE($,$,#667);
#666=PRODUCT_DEFINITION_CONTEXT('3D Mechanical Parts',#739,'design');
#667=PRODUCT_DEFINITION('A','First version',#709,#666);
#668=DATE_TIME_ROLE('classification_date');
#669=DATE_TIME_ROLE('creation_date');
#670=APPLIED_DATE_AND_TIME_ASSIGNMENT(#694,#668,(#673));
#671=APPLIED_DATE_AND_TIME_ASSIGNMENT(#696,#669,(#667));
#672=SECURITY_CLASSIFICATION_LEVEL('unclassified');
#673=SECURITY_CLASSIFICATION('A','Security for version',#672);
#674=APPLIED_SECURITY_CLASSIFICATION_ASSIGNMENT(#673,(#709));
#675=APPROVAL_ROLE('Version approval');
#676=APPROVAL_ROLE('Version Security approval');
#677=APPROVAL_ROLE('Definition approval');
#678=APPROVAL_PERSON_ORGANIZATION(#727,#703,#675);
#679=APPROVAL_PERSON_ORGANIZATION(#728,#704,#676);
#680=APPROVAL_PERSON_ORGANIZATION(#731,#705,#677);
#681=COORDINATED_UNIVERSAL_TIME_OFFSET(5,0,.BEHIND.);
#682=LOCAL_TIME(0,0,0.,#681);
#683=LOCAL_TIME(0,0,0.,#681);
#684=LOCAL_TIME(0,0,0.,#681);
#685=LOCAL_TIME(0,0,0.,#681);
#686=LOCAL_TIME(0,0,0.,#681);
#687=CALENDAR_DATE(1999,1,1);
#688=CALENDAR_DATE(1999,1,1);
#689=CALENDAR_DATE(1999,1,1);
#690=CALENDAR_DATE(1999,1,1);
#691=CALENDAR_DATE(1999,1,1);
#692=DATE_AND_TIME(#687,#682);
#693=DATE_AND_TIME(#688,#683);
#694=DATE_AND_TIME(#689,#684);
#695=DATE_AND_TIME(#690,#685);
#696=DATE_AND_TIME(#691,#686);
#697=APPROVAL_DATE_TIME(#692,#703);
#698=APPROVAL_DATE_TIME(#693,#704);
#699=APPROVAL_DATE_TIME(#695,#705);
#700=APPROVAL_STATUS('not_yet_approved');
#701=APPROVAL_STATUS('not_yet_approved');
#702=APPROVAL_STATUS('approved');
#703=APPROVAL(#700,'Version approval');
#704=APPROVAL(#701,'Version Security approval');
#705=APPROVAL(#702,'Definition approval');
#706=APPLIED_APPROVAL_ASSIGNMENT(#703,(#709));
#707=APPLIED_APPROVAL_ASSIGNMENT(#704,(#673));
#708=APPLIED_APPROVAL_ASSIGNMENT(#705,(#667));
#709=PRODUCT_DEFINITION_FORMATION_WITH_SPECIFIED_SOURCE('A',
'First version',#741,.MADE.);
#710=PERSON_AND_ORGANIZATION_ROLE('design_owner');
#711=PERSON_AND_ORGANIZATION_ROLE('creator');
#712=PERSON_AND_ORGANIZATION_ROLE('design_supplier');
#713=PERSON_AND_ORGANIZATION_ROLE('classification_officer');
#714=PERSON_AND_ORGANIZATION_ROLE('creator');
#715=ORGANIZATION('STI','lab','lab');
#716=ORGANIZATION('STI','unknown','unknown');
#717=ORGANIZATION('STI','unknown','unknown');
#718=ORGANIZATION('STI','unknown','unknown');
#719=ORGANIZATION('STI','unknown','unknown');
#720=ORGANIZATION('STI','unknown','unknown');
#721=ORGANIZATION('STI','unknown','unknown');
#722=PERSON('1','Box','vc60',$,$,$);
#723=PERSON('2','last','first',$,$,$);
#724=PERSON('3','President','Mr.',$,$,$);
#725=PERSON_AND_ORGANIZATION(#722,#715);
#726=PERSON_AND_ORGANIZATION(#723,#716);
#727=PERSON_AND_ORGANIZATION(#724,#717);
#728=PERSON_AND_ORGANIZATION(#724,#718);
#729=PERSON_AND_ORGANIZATION(#724,#719);
#730=PERSON_AND_ORGANIZATION(#723,#720);
#731=PERSON_AND_ORGANIZATION(#724,#721);
#732=APPLIED_PERSON_AND_ORGANIZATION_ASSIGNMENT(#725,#710,(#741));
#733=APPLIED_PERSON_AND_ORGANIZATION_ASSIGNMENT(#726,#711,(#709));
#734=APPLIED_PERSON_AND_ORGANIZATION_ASSIGNMENT(#726,#712,(#709));
#735=APPLIED_PERSON_AND_ORGANIZATION_ASSIGNMENT(#729,#713,(#673));
#736=APPLIED_PERSON_AND_ORGANIZATION_ASSIGNMENT(#730,#714,(#667));
#737=PRODUCT_RELATED_PRODUCT_CATEGORY('detail','detail',(#741));
#738=APPLICATION_PROTOCOL_DEFINITION('International Standard',
'config_control_design',1994,#739);
#739=APPLICATION_CONTEXT(
'configuration controlled 3d designs of mechanical parts and assemblie
s');
#740=PRODUCT_CONTEXT('3D Mechanical Parts',#739,'mechanical');
#741=PRODUCT('Document','Document','',(#740));
#742=(
LENGTH_UNIT()
NAMED_UNIT(*)
SI_UNIT(.MILLI.,.METRE.)
);
#743=(
NAMED_UNIT(*)
PLANE_ANGLE_UNIT()
SI_UNIT($,.RADIAN.)
);
#744=DIMENSIONAL_EXPONENTS(0.,0.,0.,0.,0.,0.,0.);
#745=PLANE_ANGLE_MEASURE_WITH_UNIT(PLANE_ANGLE_MEASURE(0.01745329252),#743);
#746=(
CONVERSION_BASED_UNIT('DEGREES',#745)
NAMED_UNIT(#744)
PLANE_ANGLE_UNIT()
);
#747=(
NAMED_UNIT(*)
SI_UNIT($,.STERADIAN.)
SOLID_ANGLE_UNIT()
);
#748=UNCERTAINTY_MEASURE_WITH_UNIT(LENGTH_MEASURE(0.001),#742,
'DISTANCE_ACCURACY_VALUE',
'Maximum model space distance between geometric entities at asserted c
onnectivities');
#749=(
GEOMETRIC_REPRESENTATION_CONTEXT(3)
GLOBAL_UNCERTAINTY_ASSIGNED_CONTEXT((#748))
GLOBAL_UNIT_ASSIGNED_CONTEXT((#747,#746,#742))
REPRESENTATION_CONTEXT('ID1','3D')
);
#750=SHAPE_REPRESENTATION('Document',(#751,#805),#749);
#751=AXIS2_PLACEMENT_3D($,#881,#806,#807);
#752=AXIS2_PLACEMENT_3D('',#882,#808,$);
#753=AXIS2_PLACEMENT_3D('',#883,#809,$);
#754=AXIS2_PLACEMENT_3D('',#884,#810,$);
#755=AXIS2_PLACEMENT_3D('',#885,#811,$);
#756=AXIS2_PLACEMENT_3D('',#886,#812,$);
#757=AXIS2_PLACEMENT_3D('',#887,#813,$);
#758=AXIS2_PLACEMENT_3D('',#888,#814,$);
#759=AXIS2_PLACEMENT_3D('',#889,#815,$);
#760=AXIS2_PLACEMENT_3D('',#890,#816,$);
#761=AXIS2_PLACEMENT_3D('',#891,#817,$);
#762=AXIS2_PLACEMENT_3D('',#892,#818,$);
#763=AXIS2_PLACEMENT_3D('',#893,#819,$);
#764=AXIS2_PLACEMENT_3D('',#894,#820,$);
#765=AXIS2_PLACEMENT_3D('',#895,#821,$);
#766=AXIS2_PLACEMENT_3D('',#896,#822,$);
#767=AXIS2_PLACEMENT_3D('',#897,#823,$);
#768=AXIS2_PLACEMENT_3D('',#898,#824,$);
#769=AXIS2_PLACEMENT_3D('',#899,#825,$);
#770=AXIS2_PLACEMENT_3D('',#900,#826,$);
#771=AXIS2_PLACEMENT_3D('',#901,#827,$);
#772=AXIS2_PLACEMENT_3D('',#902,#828,$);
#773=AXIS2_PLACEMENT_3D('',#903,#829,$);
#774=AXIS2_PLACEMENT_3D('',#904,#830,$);
#775=AXIS2_PLACEMENT_3D('',#905,#831,$);
#776=AXIS2_PLACEMENT_3D('',#906,#832,$);
#777=AXIS2_PLACEMENT_3D('',#907,#833,$);
#778=AXIS2_PLACEMENT_3D('',#908,#834,$);
#779=AXIS2_PLACEMENT_3D('',#909,#835,$);
#780=AXIS2_PLACEMENT_3D('',#910,#836,$);
#781=AXIS2_PLACEMENT_3D('',#911,#837,$);
#782=AXIS2_PLACEMENT_3D('',#912,#838,$);
#783=AXIS2_PLACEMENT_3D('',#913,#839,$);
#784=AXIS2_PLACEMENT_3D('',#924,#840,$);
#785=AXIS2_PLACEMENT_3D('',#935,#841,$);
#786=AXIS2_PLACEMENT_3D('',#946,#842,$);
#787=AXIS2_PLACEMENT_3D($,#1251,#843,#844);
#788=AXIS2_PLACEMENT_3D($,#1266,#845,#846);
#789=AXIS2_PLACEMENT_3D($,#1451,#847,#848);
#790=AXIS2_PLACEMENT_3D($,#1454,#849,#850);
#791=AXIS2_PLACEMENT_3D($,#1457,#851,#852);
#792=AXIS2_PLACEMENT_3D($,#1460,#853,#854);
#793=AXIS2_PLACEMENT_3D($,#1467,#855,#856);
#794=AXIS2_PLACEMENT_3D($,#1470,#857,#858);
#795=AXIS2_PLACEMENT_3D($,#1473,#859,#860);
#796=AXIS2_PLACEMENT_3D($,#1476,#861,#862);
#797=AXIS2_PLACEMENT_3D($,#1483,#863,#864);
#798=AXIS2_PLACEMENT_3D($,#1486,#865,#866);
#799=AXIS2_PLACEMENT_3D($,#1491,#867,#868);
#800=AXIS2_PLACEMENT_3D($,#1494,#869,#870);
#801=AXIS2_PLACEMENT_3D($,#1499,#871,#872);
#802=AXIS2_PLACEMENT_3D($,#1502,#873,#874);
#803=AXIS2_PLACEMENT_3D($,#1507,#875,#876);
#804=AXIS2_PLACEMENT_3D($,#1510,#877,#878);
#805=AXIS2_PLACEMENT_3D($,#1513,#879,#880);
#806=DIRECTION('',(0.,0.,1.));
#807=DIRECTION('',(1.,0.,0.));
#808=DIRECTION('',(-1.,0.,0.));
#809=DIRECTION('',(0.,0.,1.));
#810=DIRECTION('',(0.,-1.,0.));
#811=DIRECTION('',(1.,0.,0.));
#812=DIRECTION('',(-1.,0.,0.));
#813=DIRECTION('',(1.,0.,0.));
#814=DIRECTION('',(0.,0.,1.));
#815=DIRECTION('',(0.,1.,0.));
#816=DIRECTION('',(0.,0.,-1.));
#817=DIRECTION('',(1.,0.,0.));
#818=DIRECTION('',(-1.,0.,0.));
#819=DIRECTION('',(0.,0.,1.));
#820=DIRECTION('',(0.,1.,0.));
#821=DIRECTION('',(0.,-1.,0.));
#822=DIRECTION('',(1.,-1.71540190931771E-14,-1.71540190931773E-14));
#823=DIRECTION('',(-1.,2.22362067514918E-13,-2.15256640157311E-13));
#824=DIRECTION('',(-3.9206092260474E-15,-1.,-3.67895547246877E-16));
#825=DIRECTION('',(1.12757198072599E-13,1.,-1.14533554912E-13));
#826=DIRECTION('',(4.28850477329434E-15,4.28850477329437E-15,-1.));
#827=DIRECTION('',(-3.05892300196044E-13,2.98786872838446E-13,1.));
#828=DIRECTION('',(1.,2.02012400456436E-13,1.87801545741228E-13));
#829=DIRECTION('',(1.,-1.92351505829902E-14,2.08113148981287E-15));
#830=DIRECTION('',(3.40396045042642E-13,1.,-3.35066974524439E-13));
#831=DIRECTION('',(-7.05556503710751E-14,-1.,-6.52265798528725E-14));
#832=DIRECTION('',(1.,-6.0749609561879E-13,5.93285240903588E-13));
#833=DIRECTION('',(-1.64434763574166E-13,1.78645618289371E-13,1.));
#834=DIRECTION('',(-3.85965429596485E-13,-3.85965429596487E-13,-1.));
#835=DIRECTION('',(-1.,-6.4275280536339E-14,6.42752805363409E-14));
#836=DIRECTION('',(1.,8.57700954658856E-13,-8.57700954658828E-13));
#837=DIRECTION('',(4.2278561571672E-13,1.,4.26338329395548E-13));
#838=DIRECTION('',(1.72397891886434E-12,-1.,-1.72397891886426E-12));
#839=DIRECTION('',(0.,-1.,0.));
#840=DIRECTION('',(0.,-1.,0.));
#841=DIRECTION('',(0.,-1.,0.));
#842=DIRECTION('',(0.,-1.,0.));
#843=DIRECTION('',(2.97162903324257E-13,1.,-2.98939260163653E-13));
#844=DIRECTION('',(-1.,2.98427949019234E-13,1.42108547152016E-14));
#845=DIRECTION('',(5.75269188922259E-14,1.,5.39742052134246E-14));
#846=DIRECTION('',(-7.1054273576012E-15,-5.50670620214093E-14,1.));
#847=DIRECTION('',(0.,-1.,0.));
#848=DIRECTION('',(7.40148683083438E-17,0.,-1.));
#849=DIRECTION('',(0.,-1.,0.));
#850=DIRECTION('',(5.91673661246374E-15,0.,-1.));
#851=DIRECTION('',(-1.42950159109809E-15,-1.,-1.42950159109809E-15));
#852=DIRECTION('',(1.,-1.77635683940025E-15,0.));
#853=DIRECTION('',(0.,-1.,0.));
#854=DIRECTION('',(1.,0.,0.));
#855=DIRECTION('',(0.,-1.,0.));
#856=DIRECTION('',(1.25825276124184E-15,0.,-1.));
#857=DIRECTION('',(0.,-1.,0.));
#858=DIRECTION('',(3.39627135212383E-15,0.,-1.));
#859=DIRECTION('',(-1.42950159109809E-15,-1.,-1.42950159109809E-15));
#860=DIRECTION('',(1.,-1.1842378929335E-15,0.));
#861=DIRECTION('',(0.,-1.,0.));
#862=DIRECTION('',(1.,0.,0.));
#863=DIRECTION('',(0.,-1.,0.));
#864=DIRECTION('',(-1.,0.,4.73695157173402E-15));
#865=DIRECTION('',(-2.96059473233375E-16,-1.,-2.96059473233375E-16));
#866=DIRECTION('',(-1.,0.,-2.368475785867E-15));
#867=DIRECTION('',(-2.96059473233375E-16,-1.,0.));
#868=DIRECTION('',(1.46988479014628E-15,0.,1.));
#869=DIRECTION('',(0.,-1.,0.));
#870=DIRECTION('',(2.83648930014011E-15,0.,1.));
#871=DIRECTION('',(0.,-1.,0.));
#872=DIRECTION('',(-1.,0.,-7.10542735760097E-15));
#873=DIRECTION('',(0.,-1.,0.));
#874=DIRECTION('',(-1.,0.,0.));
#875=DIRECTION('',(-2.96059473233375E-16,-1.,0.));
#876=DIRECTION('',(1.13825395653472E-15,0.,1.));
#877=DIRECTION('',(0.,-1.,0.));
#878=DIRECTION('',(7.29186114452979E-15,0.,1.));
#879=DIRECTION('',(0.,0.,1.));
#880=DIRECTION('',(1.,0.,0.));
#881=CARTESIAN_POINT('',(0.,0.,0.));
#882=CARTESIAN_POINT('',(-22.25,-5.6,-43.25));
#883=CARTESIAN_POINT('',(-20.75,-5.6,-41.75));
#884=CARTESIAN_POINT('',(22.25,3.1,-43.25));
#885=CARTESIAN_POINT('',(-20.75,-5.6,-43.25));
#886=CARTESIAN_POINT('',(20.75,-5.6,-43.25));
#887=CARTESIAN_POINT('',(22.25,-5.6,-43.25));
#888=CARTESIAN_POINT('',(-22.25,5.6,43.25));
#889=CARTESIAN_POINT('',(22.25,5.6,-43.25));
#890=CARTESIAN_POINT('',(-22.25,-5.6,-43.25));
#891=CARTESIAN_POINT('',(-18.,-5.6,-34.75));
#892=CARTESIAN_POINT('',(18.,-5.6,43.25));
#893=CARTESIAN_POINT('',(18.,-5.6,-34.75));
#894=CARTESIAN_POINT('',(22.25,-4.1,-43.25));
#895=CARTESIAN_POINT('',(22.25,-5.6,-43.25));
#896=CARTESIAN_POINT('',(-19.625,-4.59999999999999,42.75));
#897=CARTESIAN_POINT('',(9.69701790422595E-14,3.60000000000001,42.75));
#898=CARTESIAN_POINT('',(-21.25,-0.500000000000001,42.75));
#899=CARTESIAN_POINT('',(21.25,-0.500000000000053,42.75));
#900=CARTESIAN_POINT('',(-18.5,-4.60000000000001,4.));
#901=CARTESIAN_POINT('',(18.5,-4.6,4.00000000000015));
#902=CARTESIAN_POINT('',(9.56771297100221E-14,-4.60000000000002,-35.25));
#903=CARTESIAN_POINT('',(19.625,-4.59999999999999,42.75));
#904=CARTESIAN_POINT('',(-21.75,-1.67533487262227E-13,42.75));
#905=CARTESIAN_POINT('',(21.75,3.08369330870379E-14,42.75));
#906=CARTESIAN_POINT('',(-20.1249999999997,-5.10000000000001,42.75));
#907=CARTESIAN_POINT('',(-18.5,-5.1,3.9999999999999));
#908=CARTESIAN_POINT('',(18.5,-5.1,3.9999999999998));
#909=CARTESIAN_POINT('',(-3.03612834287699E-14,-5.1,-35.25));
#910=CARTESIAN_POINT('',(20.1249999999996,-5.09999999999999,42.75));
#911=CARTESIAN_POINT('',(-18.5,-4.84999999999979,42.75));
#912=CARTESIAN_POINT('',(18.5,-4.84999999999914,42.75));
#913=CARTESIAN_POINT('',(1.33348546427214E-6,6.8,-18.6941881930989));
#914=CARTESIAN_POINT('',(1.33348546449419E-6,4.8,-20.1941881930989));
#915=CARTESIAN_POINT('',(1.50000133348546,4.8,-20.1941881930989));
#916=CARTESIAN_POINT('',(1.50000133348546,4.8,-18.6941881930989));
#917=CARTESIAN_POINT('',(1.50000133348546,4.8,-17.1941881930989));
#918=CARTESIAN_POINT('',(1.33348546467789E-6,4.8,-17.1941881930989));
#919=CARTESIAN_POINT('',(1.33348546449419E-6,3.1,-21.6941881930989));
#920=CARTESIAN_POINT('',(3.00000133348546,3.1,-21.6941881930989));
#921=CARTESIAN_POINT('',(3.00000133348546,3.1,-18.6941881930989));
#922=CARTESIAN_POINT('',(3.00000133348546,3.1,-15.6941881930989));
#923=CARTESIAN_POINT('',(1.33348546486158E-6,3.1,-15.6941881930989));
#924=CARTESIAN_POINT('',(1.33348546513032E-6,6.79999999999999,28.1351066303434));
#925=CARTESIAN_POINT('',(1.33348546449419E-6,4.79999999999999,26.6351066303434));
#926=CARTESIAN_POINT('',(1.50000133348546,4.79999999999999,26.6351066303434));
#927=CARTESIAN_POINT('',(1.50000133348546,4.79999999999999,28.1351066303434));
#928=CARTESIAN_POINT('',(1.50000133348546,4.79999999999999,29.6351066303434));
#929=CARTESIAN_POINT('',(1.33348546467789E-6,4.79999999999999,29.6351066303434));
#930=CARTESIAN_POINT('',(1.33348546449419E-6,3.1,25.1351066303434));
#931=CARTESIAN_POINT('',(3.00000133348546,3.1,25.1351066303434));
#932=CARTESIAN_POINT('',(3.00000133348546,3.1,28.1351066303434));
#933=CARTESIAN_POINT('',(3.00000133348546,3.1,31.1351066303434));
#934=CARTESIAN_POINT('',(1.33348546486158E-6,3.1,31.1351066303434));
#935=CARTESIAN_POINT('',(1.33348546427214E-6,6.8,-18.6941881930989));
#936=CARTESIAN_POINT('',(1.33348546449419E-6,4.8,-17.1941881930989));
#937=CARTESIAN_POINT('',(-1.49999866651453,4.8,-17.1941881930989));
#938=CARTESIAN_POINT('',(-1.49999866651454,4.8,-18.6941881930989));
#939=CARTESIAN_POINT('',(-1.49999866651454,4.8,-20.1941881930989));
#940=CARTESIAN_POINT('',(1.33348546431049E-6,4.8,-20.1941881930989));
#941=CARTESIAN_POINT('',(1.33348546449419E-6,3.1,-15.6941881930989));
#942=CARTESIAN_POINT('',(-2.99999866651453,3.1,-15.6941881930989));
#943=CARTESIAN_POINT('',(-2.99999866651454,3.1,-18.6941881930989));
#944=CARTESIAN_POINT('',(-2.99999866651454,3.1,-21.6941881930989));
#945=CARTESIAN_POINT('',(1.33348546412679E-6,3.1,-21.6941881930989));
#946=CARTESIAN_POINT('',(1.33348546341397E-6,6.79999999999999,28.1351066303434));
#947=CARTESIAN_POINT('',(1.33348546449419E-6,4.79999999999999,29.6351066303434));
#948=CARTESIAN_POINT('',(-1.49999866651453,4.79999999999999,29.6351066303434));
#949=CARTESIAN_POINT('',(-1.49999866651454,4.79999999999999,28.1351066303434));
#950=CARTESIAN_POINT('',(-1.49999866651454,4.79999999999999,26.6351066303434));
#951=CARTESIAN_POINT('',(1.33348546431049E-6,4.79999999999999,26.6351066303434));
#952=CARTESIAN_POINT('',(1.33348546449419E-6,3.1,31.1351066303434));
#953=CARTESIAN_POINT('',(-2.99999866651453,3.1,31.1351066303434));
#954=CARTESIAN_POINT('',(-2.99999866651454,3.1,28.1351066303434));
#955=CARTESIAN_POINT('',(-2.99999866651454,3.1,25.1351066303434));
#956=CARTESIAN_POINT('',(1.33348546412679E-6,3.1,25.1351066303434));
#957=CARTESIAN_POINT('',(22.25,-5.6,-43.25));
#958=CARTESIAN_POINT('',(22.25,5.6,-43.25));
#959=CARTESIAN_POINT('',(-22.25,-5.6,-43.25));
#960=CARTESIAN_POINT('',(-22.25,5.6,-43.25));
#961=CARTESIAN_POINT('',(-20.75,3.1,-41.75));
#962=CARTESIAN_POINT('',(-20.75,-4.1,-41.75));
#963=CARTESIAN_POINT('',(20.75,3.1,-41.75));
#964=CARTESIAN_POINT('',(20.75,-4.1,-41.75));
#965=CARTESIAN_POINT('',(20.75,3.1,42.75));
#966=CARTESIAN_POINT('',(-20.75,3.1,42.75));
#967=CARTESIAN_POINT('',(-20.75,-4.1,42.75));
#968=CARTESIAN_POINT('',(20.75,-4.1,42.75));
#969=CARTESIAN_POINT('',(-21.25,-4.6,43.25));
#970=CARTESIAN_POINT('',(-21.25,3.6,43.25));
#971=CARTESIAN_POINT('',(21.25,-4.6,43.25));
#972=CARTESIAN_POINT('',(21.25,3.60000000000001,43.25));
#973=CARTESIAN_POINT('',(-18.,-4.6,-34.75));
#974=CARTESIAN_POINT('',(18.,-4.6,-34.75));
#975=CARTESIAN_POINT('',(18.5,-4.1,42.75));
#976=CARTESIAN_POINT('',(-18.5,-4.1,-35.25));
#977=CARTESIAN_POINT('',(18.5,-4.1,-35.25));
#978=CARTESIAN_POINT('',(-18.5,-4.1,42.75));
#979=CARTESIAN_POINT('',(-22.25,5.6,42.75));
#980=CARTESIAN_POINT('',(22.25,5.6,42.75));
#981=CARTESIAN_POINT('',(21.75,5.6,43.25));
#982=CARTESIAN_POINT('',(-21.75,5.6,43.25));
#983=CARTESIAN_POINT('',(-22.25,-5.6,42.75));
#984=CARTESIAN_POINT('',(22.25,-5.6,42.75));
#985=CARTESIAN_POINT('',(-21.75,-5.1,43.25));
#986=CARTESIAN_POINT('',(21.75,-5.1,43.25));
#987=CARTESIAN_POINT('',(-18.,-5.1,-34.75));
#988=CARTESIAN_POINT('',(18.,-5.1,-34.75));
#989=CARTESIAN_POINT('',(-18.5,-5.6,42.75));
#990=CARTESIAN_POINT('',(-18.5,-5.6,-35.25));
#991=CARTESIAN_POINT('',(18.5,-5.6,-35.25));
#992=CARTESIAN_POINT('',(18.5,-5.6,42.75));
#993=CARTESIAN_POINT('',(-18.5,-5.09999999999999,43.25));
#994=CARTESIAN_POINT('',(-18.5,-4.6,43.25));
#995=CARTESIAN_POINT('',(-18.,-5.1,42.75));
#996=CARTESIAN_POINT('',(-18.,-4.6,42.75));
#997=CARTESIAN_POINT('',(-18.1464466094067,-4.24644372375585,43.1035533905933));
#998=CARTESIAN_POINT('',(-18.1464466094067,-5.45355627624415,43.1035533905933));
#999=CARTESIAN_POINT('',(18.5,-4.6,43.25));
#1000=CARTESIAN_POINT('',(18.,-5.1,42.75));
#1001=CARTESIAN_POINT('',(18.5,-5.1,43.25));
#1002=CARTESIAN_POINT('',(18.,-4.6,42.75));
#1003=CARTESIAN_POINT('',(18.1464466094067,-4.24644372375583,43.1035533905933));
#1004=CARTESIAN_POINT('',(18.1464466094067,-5.45355627624416,43.1035533905933));
#1005=CARTESIAN_POINT('',(1.50000133348546,4.8,-18.6941881930989));
#1006=CARTESIAN_POINT('',(1.33348546449419E-6,4.8,-20.1941881930989));
#1007=CARTESIAN_POINT('',(1.33348546449419E-6,3.1,-21.6941881930989));
#1008=CARTESIAN_POINT('',(1.50000133348546,5.6,-18.6941881930989));
#1009=CARTESIAN_POINT('',(1.50000133348546,4.79999999999999,28.1351066303434));
#1010=CARTESIAN_POINT('',(1.33348546449419E-6,4.79999999999999,26.6351066303434));
#1011=CARTESIAN_POINT('',(1.33348546449419E-6,3.1,25.1351066303434));
#1012=CARTESIAN_POINT('',(1.50000133348547,5.6,28.1351066303434));
#1013=CARTESIAN_POINT('',(-1.49999866651454,5.6,-18.6941881930989));
#1014=CARTESIAN_POINT('',(-1.49999866651454,4.8,-18.6941881930989));
#1015=CARTESIAN_POINT('',(1.33348546534402E-6,4.8,-17.1941881930989));
#1016=CARTESIAN_POINT('',(1.33348546449419E-6,3.1,-15.6941881930989));
#1017=CARTESIAN_POINT('',(-1.49999866651454,5.6,28.1351066303434));
#1018=CARTESIAN_POINT('',(-1.49999866651454,4.79999999999999,28.1351066303434));
#1019=CARTESIAN_POINT('',(1.33348546471623E-6,4.79999999999999,29.6351066303434));
#1020=CARTESIAN_POINT('',(1.33348546449419E-6,3.1,31.1351066303434));
#1021=CARTESIAN_POINT('',(-21.25,-4.6,43.25));
#1022=CARTESIAN_POINT('',(-21.25,3.6,43.25));
#1023=CARTESIAN_POINT('',(21.25,-4.6,43.25));
#1024=CARTESIAN_POINT('',(18.5,-4.6,43.25));
#1025=CARTESIAN_POINT('',(-22.25,-5.6,-43.25));
#1026=CARTESIAN_POINT('',(-22.25,5.6,-43.25));
#1027=CARTESIAN_POINT('',(-22.25,5.6,-43.25));
#1028=CARTESIAN_POINT('',(-22.25,5.6,42.75));
#1029=CARTESIAN_POINT('',(18.,-5.1,-34.75));
#1030=CARTESIAN_POINT('',(18.,-5.1,42.75));
#1031=CARTESIAN_POINT('',(-22.25,-5.6,42.75));
#1032=CARTESIAN_POINT('',(-22.25,-5.6,-43.25));
#1033=CARTESIAN_POINT('',(-20.75,-4.1,42.75));
#1034=CARTESIAN_POINT('',(-20.75,3.1,42.75));
#1035=CARTESIAN_POINT('',(20.75,-4.1,42.75));
#1036=CARTESIAN_POINT('',(20.75,3.1,42.75));
#1037=CARTESIAN_POINT('',(-20.75,3.1,-41.75));
#1038=CARTESIAN_POINT('',(20.75,3.1,-41.75));
#1039=CARTESIAN_POINT('',(-20.75,-4.1,-41.75));
#1040=CARTESIAN_POINT('',(20.75,-4.1,-41.75));
#1041=CARTESIAN_POINT('',(20.75,3.1,-41.75));
#1042=CARTESIAN_POINT('',(20.75,-4.1,-41.75));
#1043=CARTESIAN_POINT('',(-20.75,3.1,-41.75));
#1044=CARTESIAN_POINT('',(-20.75,-4.1,-41.75));
#1045=CARTESIAN_POINT('',(-20.75,-4.1,-41.75));
#1046=CARTESIAN_POINT('',(-20.75,-4.1,42.75));
#1047=CARTESIAN_POINT('',(-20.75,3.1,-41.75));
#1048=CARTESIAN_POINT('',(-20.75,3.1,42.75));
#1049=CARTESIAN_POINT('',(20.75,3.1,-41.75));
#1050=CARTESIAN_POINT('',(20.75,3.1,42.75));
#1051=CARTESIAN_POINT('',(20.75,-4.1,-41.75));
#1052=CARTESIAN_POINT('',(20.75,-4.1,42.75));
#1053=CARTESIAN_POINT('',(22.25,-5.6,42.75));
#1054=CARTESIAN_POINT('',(22.25,-5.6,-41.75));
#1055=CARTESIAN_POINT('',(22.25,-5.6,-43.25));
#1056=CARTESIAN_POINT('',(22.25,-5.6,-43.25));
#1057=CARTESIAN_POINT('',(22.25,-4.1,-43.25));
#1058=CARTESIAN_POINT('',(22.25,3.1,-43.25));
#1059=CARTESIAN_POINT('',(22.25,5.6,-43.25));
#1060=CARTESIAN_POINT('',(22.25,5.6,-43.25));
#1061=CARTESIAN_POINT('',(22.25,5.6,-41.75));
#1062=CARTESIAN_POINT('',(22.25,5.6,42.75));
#1063=CARTESIAN_POINT('',(22.25,-5.6,42.75));
#1064=CARTESIAN_POINT('',(22.25,5.6,42.75));
#1065=CARTESIAN_POINT('',(18.5,-5.1,43.25));
#1066=CARTESIAN_POINT('',(21.75,-5.1,43.25));
#1067=CARTESIAN_POINT('',(-21.75,5.6,43.25));
#1068=CARTESIAN_POINT('',(21.75,5.6,43.25));
#1069=CARTESIAN_POINT('',(-22.25,-5.6,-43.25));
#1070=CARTESIAN_POINT('',(22.25,-5.6,-43.25));
#1071=CARTESIAN_POINT('',(-22.25,5.6,-43.25));
#1072=CARTESIAN_POINT('',(22.25,5.6,-43.25));
#1073=CARTESIAN_POINT('',(-18.,-5.1,-34.75));
#1074=CARTESIAN_POINT('',(-18.,-4.6,-34.75));
#1075=CARTESIAN_POINT('',(18.,-5.1,-34.75));
#1076=CARTESIAN_POINT('',(18.,-4.6,-34.75));
#1077=CARTESIAN_POINT('',(21.25,-4.6,43.25));
#1078=CARTESIAN_POINT('',(21.25,3.60000000000001,43.25));
#1079=CARTESIAN_POINT('',(21.25,3.60000000000001,43.25));
#1080=CARTESIAN_POINT('',(-21.25,3.6,43.25));
#1081=CARTESIAN_POINT('',(20.75,3.1,42.75));
#1082=CARTESIAN_POINT('',(-20.75,3.1,42.75));
#1083=CARTESIAN_POINT('',(-18.5,-4.6,43.25));
#1084=CARTESIAN_POINT('',(-18.4930096610695,-4.59300963611191,43.2500001479115));
#1085=CARTESIAN_POINT('',(-18.4789182353511,-4.57891816290164,43.2497045169751));
#1086=CARTESIAN_POINT('',(-18.4576464484769,-4.55764631983712,43.2483575130725));
#1087=CARTESIAN_POINT('',(-18.4361173160769,-4.53611712531973,43.2460623353478));
#1088=CARTESIAN_POINT('',(-18.4143885822688,-4.51438832813688,43.2427821213545));
#1089=CARTESIAN_POINT('',(-18.3925224962118,-4.49252217700555,43.2384840304767));
#1090=CARTESIAN_POINT('',(-18.3705858758613,-4.47058549054072,43.2331401227814));
#1091=CARTESIAN_POINT('',(-18.3486495667428,-4.44864911446493,43.2267279517243));
#1092=CARTESIAN_POINT('',(-18.3267879348376,-4.42678741508797,43.2192311880751));
#1093=CARTESIAN_POINT('',(-18.3050782221916,-4.40507763451022,43.2106401654296));
#1094=CARTESIAN_POINT('',(-18.2835998194832,-4.38359916435805,43.2009523541528));
#1095=CARTESIAN_POINT('',(-18.2624334541719,-4.36243272972909,43.1901727392043));
#1096=CARTESIAN_POINT('',(-18.2416603087444,-4.34165952304063,43.1783140899959));
#1097=CARTESIAN_POINT('',(-18.2213610973744,-4.32136022288303,43.1653971013907));
#1098=CARTESIAN_POINT('',(-18.2016150780034,-4.30161421959687,43.1514504228883));
#1099=CARTESIAN_POINT('',(-18.1824991826097,-4.2824979593922,43.1365104709877));
#1100=CARTESIAN_POINT('',(-18.1640862453759,-4.26408605839198,43.1206209947713));
#1101=CARTESIAN_POINT('',(-18.152234768083,-4.25223184205001,43.1093415432674));
#1102=CARTESIAN_POINT('',(-18.1464466094067,-4.24644372375585,43.1035533905933));
#1103=CARTESIAN_POINT('',(18.1464466094067,-4.24644372375583,43.1035533905933));
#1104=CARTESIAN_POINT('',(18.152234768083,-4.25223184205,43.1093415432674));
#1105=CARTESIAN_POINT('',(18.1640862453759,-4.26408605839199,43.1206209947714));
#1106=CARTESIAN_POINT('',(18.1824991826098,-4.28249795939222,43.1365104709877));
#1107=CARTESIAN_POINT('',(18.2016150780035,-4.30161421959686,43.1514504228884));
#1108=CARTESIAN_POINT('',(18.2213610973744,-4.32136022288301,43.1653971013907));
#1109=CARTESIAN_POINT('',(18.2416603087445,-4.34165952304061,43.1783140899959));
#1110=CARTESIAN_POINT('',(18.2624334541719,-4.36243272972911,43.1901727392043));
#1111=CARTESIAN_POINT('',(18.2835998194832,-4.38359916435805,43.2009523541528));
#1112=CARTESIAN_POINT('',(18.3050782221916,-4.40507763451025,43.2106401654296));
#1113=CARTESIAN_POINT('',(18.3267879348376,-4.42678741508798,43.2192311880751));
#1114=CARTESIAN_POINT('',(18.3486495667428,-4.4486491144649,43.2267279517243));
#1115=CARTESIAN_POINT('',(18.3705858758613,-4.47058549054071,43.2331401227813));
#1116=CARTESIAN_POINT('',(18.3925224962118,-4.49252217700552,43.2384840304767));
#1117=CARTESIAN_POINT('',(18.4143885822688,-4.5143883281369,43.2427821213545));
#1118=CARTESIAN_POINT('',(18.4361173160767,-4.53611712531988,43.2460623353478));
#1119=CARTESIAN_POINT('',(18.4576464484771,-4.557646319837,43.2483575130725));
#1120=CARTESIAN_POINT('',(18.4789182353509,-4.57891816290195,43.2497045169751));
#1121=CARTESIAN_POINT('',(18.4930096610694,-4.59300963611208,43.2500001479115));
#1122=CARTESIAN_POINT('',(18.5,-4.6,43.25));
#1123=CARTESIAN_POINT('',(21.75,-5.1,43.25));
#1124=CARTESIAN_POINT('',(21.75,5.6,43.25));
#1125=CARTESIAN_POINT('',(-21.75,-5.1,43.25));
#1126=CARTESIAN_POINT('',(-21.75,5.6,43.25));
#1127=CARTESIAN_POINT('',(-21.75,-5.1,43.25));
#1128=CARTESIAN_POINT('',(-18.5,-5.09999999999999,43.25));
#1129=CARTESIAN_POINT('',(-18.5,-4.6,43.25));
#1130=CARTESIAN_POINT('',(-21.25,-4.6,43.25));
#1131=CARTESIAN_POINT('',(-18.,-5.1,42.75));
#1132=CARTESIAN_POINT('',(-18.,-5.1,-34.75));
#1133=CARTESIAN_POINT('',(-18.,-4.6,42.75));
#1134=CARTESIAN_POINT('',(-18.,-4.6,-34.75));
#1135=CARTESIAN_POINT('',(18.,-4.6,-34.75));
#1136=CARTESIAN_POINT('',(18.,-4.6,42.75));
#1137=CARTESIAN_POINT('',(-18.,-4.6,-34.75));
#1138=CARTESIAN_POINT('',(18.,-4.6,-34.75));
#1139=CARTESIAN_POINT('',(20.75,-4.1,42.75));
#1140=CARTESIAN_POINT('',(18.5,-4.1,42.75));
#1141=CARTESIAN_POINT('',(-18.5,-4.1,-35.25));
#1142=CARTESIAN_POINT('',(18.5,-4.1,-35.25));
#1143=CARTESIAN_POINT('',(18.5,-4.1,-35.25));
#1144=CARTESIAN_POINT('',(18.5,-4.1,42.75));
#1145=CARTESIAN_POINT('',(-18.5,-4.1,42.75));
#1146=CARTESIAN_POINT('',(-18.5,-4.1,-35.25));
#1147=CARTESIAN_POINT('',(-18.5,-4.1,42.75));
#1148=CARTESIAN_POINT('',(-20.75,-4.1,42.75));
#1149=CARTESIAN_POINT('',(-21.25,-4.6,43.25));
#1150=CARTESIAN_POINT('',(-21.2230629642166,-4.57306296421659,43.2500298461596));
#1151=CARTESIAN_POINT('',(-21.1680444032462,-4.51804440324615,43.2455485624648));
#1152=CARTESIAN_POINT('',(-21.0858061033788,-4.43580610337882,43.2249362540442));
#1153=CARTESIAN_POINT('',(-21.0052386661471,-4.35523866614705,43.1890698866922));
#1154=CARTESIAN_POINT('',(-20.9304431283562,-4.28044312835619,43.1381672224049));
#1155=CARTESIAN_POINT('',(-20.8653676979737,-4.21536769797364,43.0738265270436));
#1156=CARTESIAN_POINT('',(-20.8132454929894,-4.16324549298935,42.9989645988853));
#1157=CARTESIAN_POINT('',(-20.77613269822,-4.12613269821996,42.9174310052598));
#1158=CARTESIAN_POINT('',(-20.7546478113485,-4.10464781134848,42.8336395516251));
#1159=CARTESIAN_POINT('',(-20.75,-4.1,42.777069520016));
#1160=CARTESIAN_POINT('',(-20.75,-4.1,42.75));
#1161=CARTESIAN_POINT('',(-18.1464466094067,-4.24644372375585,43.1035533905933));
#1162=CARTESIAN_POINT('',(-18.1574503915073,-4.23544032861062,43.0925496084926));
#1163=CARTESIAN_POINT('',(-18.192252860283,-4.20379557594716,43.057747139717));
#1164=CARTESIAN_POINT('',(-18.2552386661471,-4.16093011330778,42.994761333853));
#1165=CARTESIAN_POINT('',(-18.3358061033788,-4.12506374595584,42.9141938966212));
#1166=CARTESIAN_POINT('',(-18.4180444032462,-4.10445143753524,42.8319555967539));
#1167=CARTESIAN_POINT('',(-18.4730629642166,-4.09997015384039,42.7769370357834));
#1168=CARTESIAN_POINT('',(-18.5,-4.1,42.75));
#1169=CARTESIAN_POINT('',(-20.75,3.1,42.75));
#1170=CARTESIAN_POINT('',(-20.75,3.1,42.777069520016));
#1171=CARTESIAN_POINT('',(-20.7546478113485,3.10464781134847,42.8336395516251));
#1172=CARTESIAN_POINT('',(-20.77613269822,3.12613269821997,42.9174310052597));
#1173=CARTESIAN_POINT('',(-20.8132454929894,3.16324549298935,42.9989645988853));
#1174=CARTESIAN_POINT('',(-20.8653676979737,3.21536769797365,43.0738265270435));
#1175=CARTESIAN_POINT('',(-20.9304431283562,3.28044312835619,43.1381672224049));
#1176=CARTESIAN_POINT('',(-21.0052386661471,3.35523866614704,43.1890698866922));
#1177=CARTESIAN_POINT('',(-21.0858061033789,3.43580610337885,43.2249362540442));
#1178=CARTESIAN_POINT('',(-21.1680444032463,3.51804440324609,43.2455485624647));
#1179=CARTESIAN_POINT('',(-21.2230629642167,3.57306296421658,43.2500298461596));
#1180=CARTESIAN_POINT('',(-21.25,3.6,43.25));
#1181=CARTESIAN_POINT('',(21.25,3.60000000000001,43.25));
#1182=CARTESIAN_POINT('',(21.2230629642166,3.5730629642166,43.2500298461596));
#1183=CARTESIAN_POINT('',(21.1680444032462,3.51804440324614,43.2455485624648));
#1184=CARTESIAN_POINT('',(21.0858061033788,3.4358061033788,43.2249362540442));
#1185=CARTESIAN_POINT('',(21.005238666147,3.35523866614707,43.1890698866922));
#1186=CARTESIAN_POINT('',(20.9304431283562,3.28044312835618,43.1381672224048));
#1187=CARTESIAN_POINT('',(20.8653676979736,3.21536769797364,43.0738265270435));
#1188=CARTESIAN_POINT('',(20.8132454929893,3.16324549298935,42.9989645988853));
#1189=CARTESIAN_POINT('',(20.77613269822,3.12613269821996,42.9174310052597));
#1190=CARTESIAN_POINT('',(20.7546478113485,3.10464781134848,42.8336395516251));
#1191=CARTESIAN_POINT('',(20.75,3.1,42.777069520016));
#1192=CARTESIAN_POINT('',(20.75,3.1,42.75));
#1193=CARTESIAN_POINT('',(21.25,-4.6,43.25));
#1194=CARTESIAN_POINT('',(21.2230629642166,-4.57306296421662,43.2500298461596));
#1195=CARTESIAN_POINT('',(21.1680444032462,-4.51804440324621,43.2455485624648));
#1196=CARTESIAN_POINT('',(21.0858061033788,-4.43580610337881,43.2249362540442));
#1197=CARTESIAN_POINT('',(21.0052386661471,-4.35523866614703,43.1890698866922));
#1198=CARTESIAN_POINT('',(20.9304431283562,-4.2804431283562,43.1381672224048));
#1199=CARTESIAN_POINT('',(20.8653676979737,-4.21536769797364,43.0738265270436));
#1200=CARTESIAN_POINT('',(20.8132454929894,-4.16324549298935,42.9989645988853));
#1201=CARTESIAN_POINT('',(20.77613269822,-4.12613269821997,42.9174310052598));
#1202=CARTESIAN_POINT('',(20.7546478113485,-4.10464781134848,42.8336395516251));
#1203=CARTESIAN_POINT('',(20.75,-4.1,42.777069520016));
#1204=CARTESIAN_POINT('',(20.75,-4.1,42.75));
#1205=CARTESIAN_POINT('',(-18.5,-4.1,-35.25));
#1206=CARTESIAN_POINT('',(-18.4730629642166,-4.09997015384039,-35.2230629642166));
#1207=CARTESIAN_POINT('',(-18.4180444032462,-4.10445143753524,-35.1680444032462));
#1208=CARTESIAN_POINT('',(-18.3358061033788,-4.12506374595584,-35.0858061033788));
#1209=CARTESIAN_POINT('',(-18.255238666147,-4.16093011330779,-35.0052386661471));
#1210=CARTESIAN_POINT('',(-18.1804431283562,-4.21183277759516,-34.9304431283562));
#1211=CARTESIAN_POINT('',(-18.1153676979736,-4.27617347295646,-34.8653676979736));
#1212=CARTESIAN_POINT('',(-18.0632454929894,-4.3510354011147,-34.8132454929893));
#1213=CARTESIAN_POINT('',(-18.0261326982199,-4.43256899474025,-34.7761326982199));
#1214=CARTESIAN_POINT('',(-18.0046478113485,-4.5163604483749,-34.7546478113485));
#1215=CARTESIAN_POINT('',(-18.,-4.57293047998397,-34.75));
#1216=CARTESIAN_POINT('',(-18.,-4.6,-34.75));
#1217=CARTESIAN_POINT('',(18.,-4.6,-34.75));
#1218=CARTESIAN_POINT('',(18.,-4.57293047998397,-34.75));
#1219=CARTESIAN_POINT('',(18.0046478113485,-4.5163604483749,-34.7546478113485));
#1220=CARTESIAN_POINT('',(18.02613269822,-4.43256899474026,-34.77613269822));
#1221=CARTESIAN_POINT('',(18.0632454929894,-4.3510354011147,-34.8132454929894));
#1222=CARTESIAN_POINT('',(18.1153676979736,-4.27617347295646,-34.8653676979736));
#1223=CARTESIAN_POINT('',(18.1804431283562,-4.21183277759515,-34.9304431283562));
#1224=CARTESIAN_POINT('',(18.255238666147,-4.16093011330779,-35.0052386661471));
#1225=CARTESIAN_POINT('',(18.3358061033788,-4.12506374595585,-35.0858061033788));
#1226=CARTESIAN_POINT('',(18.4180444032462,-4.10445143753523,-35.1680444032462));
#1227=CARTESIAN_POINT('',(18.4730629642166,-4.09997015384039,-35.2230629642166));
#1228=CARTESIAN_POINT('',(18.5,-4.1,-35.25));
#1229=CARTESIAN_POINT('',(18.5,-4.1,42.75));
#1230=CARTESIAN_POINT('',(18.4730629642166,-4.09997015384039,42.7769370357834));
#1231=CARTESIAN_POINT('',(18.4180444032462,-4.10445143753524,42.8319555967538));
#1232=CARTESIAN_POINT('',(18.3358061033788,-4.12506374595584,42.9141938966212));
#1233=CARTESIAN_POINT('',(18.255238666147,-4.16093011330779,42.9947613338529));
#1234=CARTESIAN_POINT('',(18.192252860283,-4.20379557594715,43.057747139717));
#1235=CARTESIAN_POINT('',(18.1574503915074,-4.23544032861061,43.0925496084927));
#1236=CARTESIAN_POINT('',(18.1464466094067,-4.24644372375583,43.1035533905933));
#1237=CARTESIAN_POINT('',(-22.25,-5.6,42.75));
#1238=CARTESIAN_POINT('',(-22.25,5.6,42.75));
#1239=CARTESIAN_POINT('',(-18.,-5.1,-34.75));
#1240=CARTESIAN_POINT('',(18.,-5.1,-34.75));
#1241=CARTESIAN_POINT('',(-18.5,-5.6,42.75));
#1242=CARTESIAN_POINT('',(-18.5,-5.6,-35.25));
#1243=CARTESIAN_POINT('',(-22.25,-5.6,42.75));
#1244=CARTESIAN_POINT('',(-18.5,-5.6,42.75));
#1245=CARTESIAN_POINT('',(-18.5,-5.6,-35.25));
#1246=CARTESIAN_POINT('',(18.5,-5.6,-35.25));
#1247=CARTESIAN_POINT('',(18.5,-5.6,42.75));
#1248=CARTESIAN_POINT('',(22.25,-5.6,42.75));
#1249=CARTESIAN_POINT('',(18.5,-5.6,-35.25));
#1250=CARTESIAN_POINT('',(18.5,-5.6,42.75));
#1251=CARTESIAN_POINT('',(-21.75,5.59999999999985,42.75));
#1252=CARTESIAN_POINT('',(-22.25,5.6,42.75));
#1253=CARTESIAN_POINT('',(-21.75,5.6,43.25));
#1254=CARTESIAN_POINT('',(21.75,-5.1,43.25));
#1255=CARTESIAN_POINT('',(21.7769370357834,-5.12693703578339,43.2500298461596));
#1256=CARTESIAN_POINT('',(21.8319555967538,-5.1819555967538,43.2455485624647));
#1257=CARTESIAN_POINT('',(21.9141938966212,-5.26419389662115,43.2249362540442));
#1258=CARTESIAN_POINT('',(21.994761333853,-5.34476133385292,43.1890698866922));
#1259=CARTESIAN_POINT('',(22.0695568716438,-5.41955687164379,43.1381672224048));
#1260=CARTESIAN_POINT('',(22.1346323020264,-5.48463230202635,43.0738265270435));
#1261=CARTESIAN_POINT('',(22.1867545070106,-5.53675450701065,42.9989645988853));
#1262=CARTESIAN_POINT('',(22.22386730178,-5.57386730178002,42.9174310052597));
#1263=CARTESIAN_POINT('',(22.2453521886515,-5.59535218865152,42.8336395516251));
#1264=CARTESIAN_POINT('',(22.25,-5.6,42.777069520016));
#1265=CARTESIAN_POINT('',(22.25,-5.6,42.75));
#1266=CARTESIAN_POINT('',(21.75,5.60000000000003,42.75));
#1267=CARTESIAN_POINT('',(21.75,5.6,43.25));
#1268=CARTESIAN_POINT('',(22.25,5.6,42.75));
#1269=CARTESIAN_POINT('',(-22.25,-5.6,42.75));
#1270=CARTESIAN_POINT('',(-22.25,-5.6,42.777069520016));
#1271=CARTESIAN_POINT('',(-22.2453521886515,-5.59535218865152,42.8336395516251));
#1272=CARTESIAN_POINT('',(-22.22386730178,-5.57386730178002,42.9174310052597));
#1273=CARTESIAN_POINT('',(-22.1867545070106,-5.53675450701066,42.9989645988853));
#1274=CARTESIAN_POINT('',(-22.1346323020264,-5.48463230202635,43.0738265270435));
#1275=CARTESIAN_POINT('',(-22.0695568716438,-5.4195568716438,43.1381672224048));
#1276=CARTESIAN_POINT('',(-21.9947613338529,-5.34476133385297,43.1890698866922));
#1277=CARTESIAN_POINT('',(-21.9141938966212,-5.26419389662111,43.2249362540442));
#1278=CARTESIAN_POINT('',(-21.8319555967538,-5.18195559675379,43.2455485624648));
#1279=CARTESIAN_POINT('',(-21.7769370357834,-5.12693703578339,43.2500298461596));
#1280=CARTESIAN_POINT('',(-21.75,-5.1,43.25));
#1281=CARTESIAN_POINT('',(-18.1464466094067,-5.45355627624415,43.1035533905933));
#1282=CARTESIAN_POINT('',(-18.1574503915073,-5.46455967138938,43.0925496084927));
#1283=CARTESIAN_POINT('',(-18.192252860283,-5.49620442405284,43.057747139717));
#1284=CARTESIAN_POINT('',(-18.2552386661471,-5.53906988669222,42.994761333853));
#1285=CARTESIAN_POINT('',(-18.3358061033788,-5.57493625404416,42.9141938966212));
#1286=CARTESIAN_POINT('',(-18.4180444032462,-5.59554856246476,42.8319555967538));
#1287=CARTESIAN_POINT('',(-18.4730629642166,-5.60002984615961,42.7769370357834));
#1288=CARTESIAN_POINT('',(-18.5,-5.6,42.75));
#1289=CARTESIAN_POINT('',(18.5,-5.6,42.75));
#1290=CARTESIAN_POINT('',(18.4730629642166,-5.60002984615961,42.7769370357834));
#1291=CARTESIAN_POINT('',(18.4180444032462,-5.59554856246476,42.8319555967538));
#1292=CARTESIAN_POINT('',(18.3358061033788,-5.57493625404416,42.9141938966212));
#1293=CARTESIAN_POINT('',(18.2552386661471,-5.53906988669221,42.994761333853));
#1294=CARTESIAN_POINT('',(18.192252860283,-5.49620442405284,43.0577471397169));
#1295=CARTESIAN_POINT('',(18.1574503915073,-5.46455967138938,43.0925496084926));
#1296=CARTESIAN_POINT('',(18.1464466094067,-5.45355627624416,43.1035533905933));
#1297=CARTESIAN_POINT('',(-18.5,-5.6,-35.25));
#1298=CARTESIAN_POINT('',(-18.4730629642166,-5.60002984615961,-35.2230629642166));
#1299=CARTESIAN_POINT('',(-18.4180444032462,-5.59554856246476,-35.1680444032462));
#1300=CARTESIAN_POINT('',(-18.3358061033788,-5.57493625404416,-35.0858061033788));
#1301=CARTESIAN_POINT('',(-18.2552386661471,-5.53906988669221,-35.0052386661471));
#1302=CARTESIAN_POINT('',(-18.1804431283562,-5.48816722240485,-34.9304431283562));
#1303=CARTESIAN_POINT('',(-18.1153676979736,-5.42382652704354,-34.8653676979736));
#1304=CARTESIAN_POINT('',(-18.0632454929894,-5.34896459888531,-34.8132454929893));
#1305=CARTESIAN_POINT('',(-18.02613269822,-5.26743100525975,-34.7761326982199));
#1306=CARTESIAN_POINT('',(-18.0046478113485,-5.1836395516251,-34.7546478113485));
#1307=CARTESIAN_POINT('',(-18.,-5.12706952001603,-34.75));
#1308=CARTESIAN_POINT('',(-18.,-5.1,-34.75));
#1309=CARTESIAN_POINT('',(18.5,-5.6,-35.25));
#1310=CARTESIAN_POINT('',(18.4730629642166,-5.60002984615961,-35.2230629642166));
#1311=CARTESIAN_POINT('',(18.4180444032462,-5.59554856246476,-35.1680444032462));
#1312=CARTESIAN_POINT('',(18.3358061033788,-5.57493625404416,-35.0858061033788));
#1313=CARTESIAN_POINT('',(18.2552386661471,-5.53906988669222,-35.0052386661471));
#1314=CARTESIAN_POINT('',(18.1804431283562,-5.48816722240485,-34.9304431283562));
#1315=CARTESIAN_POINT('',(18.1153676979737,-5.42382652704354,-34.8653676979737));
#1316=CARTESIAN_POINT('',(18.0632454929894,-5.34896459888531,-34.8132454929894));
#1317=CARTESIAN_POINT('',(18.02613269822,-5.26743100525975,-34.77613269822));
#1318=CARTESIAN_POINT('',(18.0046478113485,-5.1836395516251,-34.7546478113485));
#1319=CARTESIAN_POINT('',(18.,-5.12706952001603,-34.75));
#1320=CARTESIAN_POINT('',(18.,-5.1,-34.75));
#1321=CARTESIAN_POINT('',(-18.,-4.6,42.75));
#1322=CARTESIAN_POINT('',(-17.9999998520885,-4.59300963611206,42.7569903389306));
#1323=CARTESIAN_POINT('',(-18.0002954830249,-4.57891816290193,42.7710817646491));
#1324=CARTESIAN_POINT('',(-18.0016424869275,-4.55764631983722,42.792353551523));
#1325=CARTESIAN_POINT('',(-18.0039376646522,-4.53611712531985,42.8138826839232));
#1326=CARTESIAN_POINT('',(-18.0072178786456,-4.51438832813688,42.8356114177312));
#1327=CARTESIAN_POINT('',(-18.0115159695233,-4.49252217700556,42.8574775037883));
#1328=CARTESIAN_POINT('',(-18.0168598772186,-4.47058549054069,42.8794141241386));
#1329=CARTESIAN_POINT('',(-18.0232720482757,-4.44864911446497,42.9013504332572));
#1330=CARTESIAN_POINT('',(-18.0307688119249,-4.42678741508798,42.9232120651624));
#1331=CARTESIAN_POINT('',(-18.0393598345704,-4.40507763451025,42.9449217778084));
#1332=CARTESIAN_POINT('',(-18.0490476458472,-4.38359916435805,42.9664001805168));
#1333=CARTESIAN_POINT('',(-18.0598272607957,-4.36243272972913,42.9875665458281));
#1334=CARTESIAN_POINT('',(-18.0716859100041,-4.34165952304063,43.0083396912556));
#1335=CARTESIAN_POINT('',(-18.0846028986092,-4.32136022288304,43.0286389026256));
#1336=CARTESIAN_POINT('',(-18.0985495771117,-4.30161421959687,43.0483849219966));
#1337=CARTESIAN_POINT('',(-18.1134895290123,-4.28249795939222,43.0675008173902));
#1338=CARTESIAN_POINT('',(-18.1293790052286,-4.26408605839198,43.0859137546241));
#1339=CARTESIAN_POINT('',(-18.1406584567326,-4.25223184205001,43.097765231917));
#1340=CARTESIAN_POINT('',(-18.1464466094067,-4.24644372375585,43.1035533905933));
#1341=CARTESIAN_POINT('',(-18.5,-5.09999999999999,43.25));
#1342=CARTESIAN_POINT('',(-18.4930096610695,-5.10699036388808,43.2500001479115));
#1343=CARTESIAN_POINT('',(-18.4789182353511,-5.12108183709837,43.2497045169751));
#1344=CARTESIAN_POINT('',(-18.4576464484769,-5.14235368016287,43.2483575130725));
#1345=CARTESIAN_POINT('',(-18.4361173160769,-5.16388287468021,43.2460623353478));
#1346=CARTESIAN_POINT('',(-18.4143885822687,-5.18561167186303,43.2427821213544));
#1347=CARTESIAN_POINT('',(-18.3925224962118,-5.2074778229945,43.2384840304767));
#1348=CARTESIAN_POINT('',(-18.3705858758613,-5.22941450945929,43.2331401227814));
#1349=CARTESIAN_POINT('',(-18.3486495667428,-5.25135088553508,43.2267279517243));
#1350=CARTESIAN_POINT('',(-18.3267879348375,-5.27321258491196,43.2192311880751));
#1351=CARTESIAN_POINT('',(-18.3050782221916,-5.29492236548977,43.2106401654296));
#1352=CARTESIAN_POINT('',(-18.2835998194832,-5.31640083564194,43.2009523541528));
#1353=CARTESIAN_POINT('',(-18.2624334541719,-5.33756727027088,43.1901727392043));
#1354=CARTESIAN_POINT('',(-18.2416603087445,-5.35834047695937,43.1783140899959));
#1355=CARTESIAN_POINT('',(-18.2213610973744,-5.37863977711696,43.1653971013908));
#1356=CARTESIAN_POINT('',(-18.2016150780034,-5.39838578040315,43.1514504228883));
#1357=CARTESIAN_POINT('',(-18.1824991826097,-5.41750204060778,43.1365104709877));
#1358=CARTESIAN_POINT('',(-18.1640862453759,-5.43591394160803,43.1206209947714));
#1359=CARTESIAN_POINT('',(-18.152234768083,-5.44776815794999,43.1093415432674));
#1360=CARTESIAN_POINT('',(-18.1464466094067,-5.45355627624415,43.1035533905933));
#1361=CARTESIAN_POINT('',(-18.,-5.1,42.75));
#1362=CARTESIAN_POINT('',(-17.9999998520885,-5.10699036388797,42.7569903389306));
#1363=CARTESIAN_POINT('',(-18.0002954830249,-5.12108183709814,42.771081764649));
#1364=CARTESIAN_POINT('',(-18.0016424869275,-5.14235368016282,42.792353551523));
#1365=CARTESIAN_POINT('',(-18.0039376646522,-5.16388287468015,42.8138826839232));
#1366=CARTESIAN_POINT('',(-18.0072178786455,-5.1856116718631,42.8356114177312));
#1367=CARTESIAN_POINT('',(-18.0115159695233,-5.20747782299447,42.8574775037882));
#1368=CARTESIAN_POINT('',(-18.0168598772186,-5.22941450945929,42.8794141241387));
#1369=CARTESIAN_POINT('',(-18.0232720482757,-5.25135088553507,42.9013504332572));
#1370=CARTESIAN_POINT('',(-18.0307688119249,-5.27321258491199,42.9232120651625));
#1371=CARTESIAN_POINT('',(-18.0393598345704,-5.29492236548975,42.9449217778084));
#1372=CARTESIAN_POINT('',(-18.0490476458472,-5.31640083564194,42.9664001805168));
#1373=CARTESIAN_POINT('',(-18.0598272607957,-5.33756727027088,42.9875665458281));
#1374=CARTESIAN_POINT('',(-18.0716859100041,-5.35834047695936,43.0083396912555));
#1375=CARTESIAN_POINT('',(-18.0846028986093,-5.37863977711695,43.0286389026256));
#1376=CARTESIAN_POINT('',(-18.0985495771116,-5.39838578040313,43.0483849219965));
#1377=CARTESIAN_POINT('',(-18.1134895290123,-5.41750204060777,43.0675008173902));
#1378=CARTESIAN_POINT('',(-18.1293790052286,-5.43591394160802,43.0859137546241));
#1379=CARTESIAN_POINT('',(-18.1406584567326,-5.44776815794998,43.097765231917));
#1380=CARTESIAN_POINT('',(-18.1464466094067,-5.45355627624415,43.1035533905933));
#1381=CARTESIAN_POINT('',(-18.5,-5.09999999999999,43.25));
#1382=CARTESIAN_POINT('',(-18.5,-4.6,43.25));
#1383=CARTESIAN_POINT('',(-18.,-5.1,42.75));
#1384=CARTESIAN_POINT('',(-18.,-4.6,42.75));
#1385=CARTESIAN_POINT('',(18.1464466094067,-4.24644372375583,43.1035533905933));
#1386=CARTESIAN_POINT('',(18.1406584567326,-4.25223184205,43.097765231917));
#1387=CARTESIAN_POINT('',(18.1293790052287,-4.26408605839196,43.0859137546241));
#1388=CARTESIAN_POINT('',(18.1134895290123,-4.28249795939219,43.0675008173903));
#1389=CARTESIAN_POINT('',(18.0985495771117,-4.30161421959684,43.0483849219966));
#1390=CARTESIAN_POINT('',(18.0846028986093,-4.32136022288301,43.0286389026256));
#1391=CARTESIAN_POINT('',(18.0716859100041,-4.3416595230406,43.0083396912555));
#1392=CARTESIAN_POINT('',(18.0598272607958,-4.3624327297291,42.9875665458281));
#1393=CARTESIAN_POINT('',(18.0490476458472,-4.38359916435803,42.9664001805168));
#1394=CARTESIAN_POINT('',(18.0393598345704,-4.40507763451024,42.9449217778084));
#1395=CARTESIAN_POINT('',(18.0307688119249,-4.42678741508798,42.9232120651624));
#1396=CARTESIAN_POINT('',(18.0232720482757,-4.44864911446493,42.9013504332572));
#1397=CARTESIAN_POINT('',(18.0168598772186,-4.47058549054069,42.8794141241387));
#1398=CARTESIAN_POINT('',(18.0115159695233,-4.49252217700553,42.8574775037882));
#1399=CARTESIAN_POINT('',(18.0072178786456,-4.51438832813689,42.8356114177312));
#1400=CARTESIAN_POINT('',(18.0039376646522,-4.53611712531982,42.8138826839232));
#1401=CARTESIAN_POINT('',(18.0016424869275,-4.55764631983713,42.7923535515229));
#1402=CARTESIAN_POINT('',(18.0002954830249,-4.57891816290193,42.7710817646491));
#1403=CARTESIAN_POINT('',(17.9999998520885,-4.59300963611207,42.7569903389306));
#1404=CARTESIAN_POINT('',(18.,-4.6,42.75));
#1405=CARTESIAN_POINT('',(18.1464466094067,-5.45355627624416,43.1035533905933));
#1406=CARTESIAN_POINT('',(18.152234768083,-5.44776815795,43.1093415432674));
#1407=CARTESIAN_POINT('',(18.1640862453759,-5.435913941608,43.1206209947714));
#1408=CARTESIAN_POINT('',(18.1824991826098,-5.41750204060779,43.1365104709877));
#1409=CARTESIAN_POINT('',(18.2016150780034,-5.39838578040314,43.1514504228883));
#1410=CARTESIAN_POINT('',(18.2213610973744,-5.37863977711697,43.1653971013907));
#1411=CARTESIAN_POINT('',(18.2416603087445,-5.35834047695938,43.1783140899959));
#1412=CARTESIAN_POINT('',(18.2624334541719,-5.33756727027091,43.1901727392042));
#1413=CARTESIAN_POINT('',(18.2835998194832,-5.31640083564193,43.2009523541529));
#1414=CARTESIAN_POINT('',(18.3050782221916,-5.29492236548982,43.2106401654295));
#1415=CARTESIAN_POINT('',(18.3267879348375,-5.27321258491199,43.2192311880751));
#1416=CARTESIAN_POINT('',(18.3486495667428,-5.25135088553508,43.2267279517243));
#1417=CARTESIAN_POINT('',(18.3705858758613,-5.22941450945932,43.2331401227813));
#1418=CARTESIAN_POINT('',(18.3925224962118,-5.2074778229945,43.2384840304767));
#1419=CARTESIAN_POINT('',(18.4143885822688,-5.18561167186316,43.2427821213544));
#1420=CARTESIAN_POINT('',(18.4361173160768,-5.16388287468023,43.2460623353478));
#1421=CARTESIAN_POINT('',(18.4576464484771,-5.142353680163,43.2483575130725));
#1422=CARTESIAN_POINT('',(18.4789182353509,-5.12108183709806,43.2497045169751));
#1423=CARTESIAN_POINT('',(18.4930096610694,-5.10699036388792,43.2500001479115));
#1424=CARTESIAN_POINT('',(18.5,-5.1,43.25));
#1425=CARTESIAN_POINT('',(18.1464466094067,-5.45355627624416,43.1035533905933));
#1426=CARTESIAN_POINT('',(18.1406584567326,-5.44776815795,43.097765231917));
#1427=CARTESIAN_POINT('',(18.1293790052286,-5.43591394160802,43.0859137546241));
#1428=CARTESIAN_POINT('',(18.1134895290123,-5.41750204060779,43.0675008173902));
#1429=CARTESIAN_POINT('',(18.0985495771116,-5.39838578040313,43.0483849219965));
#1430=CARTESIAN_POINT('',(18.0846028986093,-5.37863977711698,43.0286389026255));
#1431=CARTESIAN_POINT('',(18.0716859100041,-5.35834047695937,43.0083396912555));
#1432=CARTESIAN_POINT('',(18.0598272607957,-5.33756727027089,42.9875665458281));
#1433=CARTESIAN_POINT('',(18.0490476458472,-5.31640083564195,42.9664001805167));
#1434=CARTESIAN_POINT('',(18.0393598345704,-5.29492236548977,42.9449217778084));
#1435=CARTESIAN_POINT('',(18.0307688119249,-5.27321258491202,42.9232120651624));
#1436=CARTESIAN_POINT('',(18.0232720482757,-5.25135088553507,42.9013504332572));
#1437=CARTESIAN_POINT('',(18.0168598772186,-5.22941450945932,42.8794141241386));
#1438=CARTESIAN_POINT('',(18.0115159695233,-5.20747782299447,42.8574775037882));
#1439=CARTESIAN_POINT('',(18.0072178786456,-5.18561167186313,42.8356114177312));
#1440=CARTESIAN_POINT('',(18.0039376646522,-5.16388287468025,42.8138826839231));
#1441=CARTESIAN_POINT('',(18.0016424869275,-5.14235368016293,42.792353551523));
#1442=CARTESIAN_POINT('',(18.0002954830249,-5.12108183709822,42.771081764649));
#1443=CARTESIAN_POINT('',(17.9999998520885,-5.106990363888,42.7569903389305));
#1444=CARTESIAN_POINT('',(18.,-5.1,42.75));
#1445=CARTESIAN_POINT('',(18.5,-4.6,43.25));
#1446=CARTESIAN_POINT('',(18.5,-5.1,43.25));
#1447=CARTESIAN_POINT('',(18.,-4.6,42.75));
#1448=CARTESIAN_POINT('',(18.,-5.1,42.75));
#1449=CARTESIAN_POINT('',(1.33348546449419E-6,4.8,-20.1941881930989));
#1450=CARTESIAN_POINT('',(1.33348546449419E-6,3.1,-21.6941881930989));
#1451=CARTESIAN_POINT('',(1.33348546427214E-6,3.1,-18.6941881930989));
#1452=CARTESIAN_POINT('',(1.33348546449419E-6,3.1,-21.6941881930989));
#1453=CARTESIAN_POINT('',(1.33348546441749E-6,3.1,-15.6941881930989));
#1454=CARTESIAN_POINT('',(1.33348545561908E-6,4.8,-18.6941881930989));
#1455=CARTESIAN_POINT('',(1.33348546449419E-6,4.8,-20.1941881930989));
#1456=CARTESIAN_POINT('',(1.50000133348547,4.8,-18.6941881930989));
#1457=CARTESIAN_POINT('',(1.33348546566597E-6,4.8,-18.6941881930989));
#1458=CARTESIAN_POINT('',(1.50000133348546,4.8,-18.6941881930989));
#1459=CARTESIAN_POINT('',(1.33348546542475E-6,4.8,-17.1941881930989));
#1460=CARTESIAN_POINT('',(1.33348546515116E-6,5.6,-18.6941881930989));
#1461=CARTESIAN_POINT('',(1.50000133348546,5.6,-18.6941881930989));
#1462=CARTESIAN_POINT('',(-1.49999866651453,5.6,-18.6941881930989));
#1463=CARTESIAN_POINT('',(1.50000133348546,5.6,-18.6941881930989));
#1464=CARTESIAN_POINT('',(1.50000133348546,4.8,-18.6941881930989));
#1465=CARTESIAN_POINT('',(1.33348546449419E-6,4.79999999999999,26.6351066303434));
#1466=CARTESIAN_POINT('',(1.33348546449419E-6,3.1,25.1351066303434));
#1467=CARTESIAN_POINT('',(1.33348546071943E-6,3.1,28.1351066303434));
#1468=CARTESIAN_POINT('',(1.33348546449419E-6,3.1,25.1351066303434));
#1469=CARTESIAN_POINT('',(1.3334854639734E-6,3.1,31.1351066303434));
#1470=CARTESIAN_POINT('',(1.33348545939978E-6,4.79999999999999,28.1351066303435));
#1471=CARTESIAN_POINT('',(1.33348546449419E-6,4.79999999999999,26.6351066303434));
#1472=CARTESIAN_POINT('',(1.50000133348547,4.79999999999999,28.1351066303434));
#1473=CARTESIAN_POINT('',(1.33348546494862E-6,4.8,28.1351066303434));
#1474=CARTESIAN_POINT('',(1.50000133348546,4.79999999999999,28.1351066303434));
#1475=CARTESIAN_POINT('',(1.3334854647074E-6,4.79999999999999,29.6351066303434));
#1476=CARTESIAN_POINT('',(1.33348546513032E-6,5.6,28.1351066303434));
#1477=CARTESIAN_POINT('',(1.50000133348546,5.6,28.1351066303434));
#1478=CARTESIAN_POINT('',(-1.49999866651453,5.6,28.1351066303434));
#1479=CARTESIAN_POINT('',(1.50000133348547,5.6,28.1351066303434));
#1480=CARTESIAN_POINT('',(1.50000133348546,4.79999999999999,28.1351066303434));
#1481=CARTESIAN_POINT('',(-1.49999866651454,5.6,-18.6941881930989));
#1482=CARTESIAN_POINT('',(-1.49999866651454,4.8,-18.6941881930989));
#1483=CARTESIAN_POINT('',(1.33348545718629E-6,4.8,-18.694188193099));
#1484=CARTESIAN_POINT('',(-1.49999866651454,4.8,-18.6941881930989));
#1485=CARTESIAN_POINT('',(1.33348546464396E-6,4.8,-20.1941881930989));
#1486=CARTESIAN_POINT('',(1.333485465444E-6,5.6,-18.6941881930989));
#1487=CARTESIAN_POINT('',(-1.49999866651454,5.6,-18.6941881930989));
#1488=CARTESIAN_POINT('',(1.50000133348547,5.6,-18.6941881930989));
#1489=CARTESIAN_POINT('',(1.33348546449419E-6,4.8,-17.1941881930989));
#1490=CARTESIAN_POINT('',(1.33348546449419E-6,3.1,-15.6941881930989));
#1491=CARTESIAN_POINT('',(1.33348546008453E-6,3.1,-18.6941881930989));
#1492=CARTESIAN_POINT('',(1.33348546449419E-6,3.1,-15.6941881930989));
#1493=CARTESIAN_POINT('',(1.33348546330109E-6,3.1,-21.6941881930989));
#1494=CARTESIAN_POINT('',(1.33348546108929E-6,4.8,-18.6941881930989));
#1495=CARTESIAN_POINT('',(1.33348546534402E-6,4.8,-17.1941881930989));
#1496=CARTESIAN_POINT('',(-1.49999866651454,4.8,-18.6941881930989));
#1497=CARTESIAN_POINT('',(-1.49999866651454,5.6,28.1351066303434));
#1498=CARTESIAN_POINT('',(-1.49999866651454,4.79999999999999,28.1351066303434));
#1499=CARTESIAN_POINT('',(1.33348547172745E-6,4.79999999999999,28.1351066303435));
#1500=CARTESIAN_POINT('',(-1.49999866651454,4.79999999999999,28.1351066303434));
#1501=CARTESIAN_POINT('',(1.33348546464119E-6,4.79999999999999,26.6351066303434));
#1502=CARTESIAN_POINT('',(1.33348546341397E-6,5.6,28.1351066303434));
#1503=CARTESIAN_POINT('',(-1.49999866651454,5.6,28.1351066303434));
#1504=CARTESIAN_POINT('',(1.50000133348546,5.6,28.1351066303434));
#1505=CARTESIAN_POINT('',(1.33348546449419E-6,4.79999999999999,29.6351066303434));
#1506=CARTESIAN_POINT('',(1.33348546449419E-6,3.1,31.1351066303434));
#1507=CARTESIAN_POINT('',(1.33348546107943E-6,3.1,28.1351066303434));
#1508=CARTESIAN_POINT('',(1.33348546449419E-6,3.1,31.1351066303434));
#1509=CARTESIAN_POINT('',(1.33348546395861E-6,3.1,25.1351066303435));
#1510=CARTESIAN_POINT('',(1.33348545377844E-6,4.79999999999999,28.1351066303435));
#1511=CARTESIAN_POINT('',(1.33348546471623E-6,4.79999999999999,29.6351066303434));
#1512=CARTESIAN_POINT('',(-1.49999866651453,4.79999999999999,28.1351066303434));
#1513=CARTESIAN_POINT('',(0.,0.,0.));
ENDSEC;
END-ISO-10303-21;
