ISO-10303-21;
HEADER;
/* Generated by software containing ST-Developer
 * from STEP Tools, Inc. (www.steptools.com) 
 */
/* OPTION: using custom schema-name function */

FILE_DESCRIPTION(
/* description */ (''),
/* implementation_level */ '2;1');

FILE_NAME(
/* name */ 'remote_holder_hallway_v2',
/* time_stamp */ '2026-08-19T15:18:55+03:00',
/* author */ (''),
/* organization */ (''),
/* preprocessor_version */ 'ST-DEVELOPER v19.2',
/* originating_system */ 'Rhino 8.34',
/* authorisation */ '');

FILE_SCHEMA (('CONFIG_CONTROL_DESIGN'));
ENDSEC;

DATA;
#10=SHAPE_REPRESENTATION_RELATIONSHIP('','',#750,#12);
#11=MANIFOLD_SOLID_BREP('brep_1',#13);
#12=ADVANCED_BREP_SHAPE_REPRESENTATION('brep_rep_0',(#11,#805),#749);
#13=CLOSED_SHELL('',(#18,#19,#20,#21,#22,#23,#24,#25,#26,#27,#28,#29,#30,
#31,#32,#33,#34,#35,#36,#37,#38,#39,#40,#41,#42,#43,#44,#45,#46,#47,#48,
#49,#50,#51,#52,#53,#54,#55,#56));
#14=FACE_BOUND('',#101,.T.);
#15=FACE_BOUND('',#102,.T.);
#16=FACE_BOUND('',#105,.T.);
#17=FACE_BOUND('',#106,.T.);
#18=ADVANCED_FACE('',(#57),#650,.T.);
#19=ADVANCED_FACE('',(#58),#651,.T.);
#20=ADVANCED_FACE('',(#59),#652,.T.);
#21=ADVANCED_FACE('',(#60),#653,.T.);
#22=ADVANCED_FACE('',(#61,#14,#15),#654,.T.);
#23=ADVANCED_FACE('',(#62),#655,.T.);
#24=ADVANCED_FACE('',(#63,#16,#17),#656,.T.);
#25=ADVANCED_FACE('',(#64),#657,.T.);
#26=ADVANCED_FACE('',(#65),#658,.T.);
#27=ADVANCED_FACE('',(#66),#659,.T.);
#28=ADVANCED_FACE('',(#67),#660,.T.);
#29=ADVANCED_FACE('',(#68),#661,.T.);
#30=ADVANCED_FACE('',(#69),#662,.T.);
#31=ADVANCED_FACE('',(#70),#663,.T.);
#32=ADVANCED_FACE('',(#71),#629,.T.);
#33=ADVANCED_FACE('',(#72),#630,.T.);
#34=ADVANCED_FACE('',(#73),#631,.T.);
#35=ADVANCED_FACE('',(#74),#632,.T.);
#36=ADVANCED_FACE('',(#75),#633,.T.);
#37=ADVANCED_FACE('',(#76),#634,.T.);
#38=ADVANCED_FACE('',(#77),#635,.T.);
#39=ADVANCED_FACE('',(#78),#636,.T.);
#40=ADVANCED_FACE('',(#79),#637,.T.);
#41=ADVANCED_FACE('',(#80),#638,.T.);
#42=ADVANCED_FACE('',(#81),#639,.T.);
#43=ADVANCED_FACE('',(#82),#640,.T.);
#44=ADVANCED_FACE('',(#83),#641,.T.);
#45=ADVANCED_FACE('',(#84),#642,.T.);
#46=ADVANCED_FACE('',(#85),#643,.T.);
#47=ADVANCED_FACE('',(#86),#644,.T.);
#48=ADVANCED_FACE('',(#87),#645,.T.);
#49=ADVANCED_FACE('',(#88),#646,.F.);
#50=ADVANCED_FACE('',(#89),#625,.T.);
#51=ADVANCED_FACE('',(#90),#647,.F.);
#52=ADVANCED_FACE('',(#91),#626,.T.);
#53=ADVANCED_FACE('',(#92),#648,.F.);
#54=ADVANCED_FACE('',(#93),#627,.T.);
#55=ADVANCED_FACE('',(#94),#649,.F.);
#56=ADVANCED_FACE('',(#95),#628,.T.);
#57=FACE_OUTER_BOUND('',#96,.T.);
#58=FACE_OUTER_BOUND('',#97,.T.);
#59=FACE_OUTER_BOUND('',#98,.T.);
#60=FACE_OUTER_BOUND('',#99,.T.);
#61=FACE_OUTER_BOUND('',#100,.T.);
#62=FACE_OUTER_BOUND('',#103,.T.);
#63=FACE_OUTER_BOUND('',#104,.T.);
#64=FACE_OUTER_BOUND('',#107,.T.);
#65=FACE_OUTER_BOUND('',#108,.T.);
#66=FACE_OUTER_BOUND('',#109,.T.);
#67=FACE_OUTER_BOUND('',#110,.T.);
#68=FACE_OUTER_BOUND('',#111,.T.);
#69=FACE_OUTER_BOUND('',#112,.T.);
#70=FACE_OUTER_BOUND('',#113,.T.);
#71=FACE_OUTER_BOUND('',#114,.T.);
#72=FACE_OUTER_BOUND('',#115,.T.);
#73=FACE_OUTER_BOUND('',#116,.T.);
#74=FACE_OUTER_BOUND('',#117,.T.);
#75=FACE_OUTER_BOUND('',#118,.T.);
#76=FACE_OUTER_BOUND('',#119,.T.);
#77=FACE_OUTER_BOUND('',#120,.T.);
#78=FACE_OUTER_BOUND('',#121,.T.);
#79=FACE_OUTER_BOUND('',#122,.T.);
#80=FACE_OUTER_BOUND('',#123,.T.);
#81=FACE_OUTER_BOUND('',#124,.T.);
#82=FACE_OUTER_BOUND('',#125,.T.);
#83=FACE_OUTER_BOUND('',#126,.T.);
#84=FACE_OUTER_BOUND('',#127,.T.);
#85=FACE_OUTER_BOUND('',#128,.T.);
#86=FACE_OUTER_BOUND('',#129,.T.);
#87=FACE_OUTER_BOUND('',#130,.T.);
#88=FACE_OUTER_BOUND('',#131,.T.);
#89=FACE_OUTER_BOUND('',#132,.T.);
#90=FACE_OUTER_BOUND('',#133,.T.);
#91=FACE_OUTER_BOUND('',#134,.T.);
#92=FACE_OUTER_BOUND('',#135,.T.);
#93=FACE_OUTER_BOUND('',#136,.T.);
#94=FACE_OUTER_BOUND('',#137,.T.);
#95=FACE_OUTER_BOUND('',#138,.T.);
#96=EDGE_LOOP('',(#139,#140,#141,#142));
#97=EDGE_LOOP('',(#143,#144,#145,#146));
#98=EDGE_LOOP('',(#147,#148,#149,#150));
#99=EDGE_LOOP('',(#151,#152,#153,#154));
#100=EDGE_LOOP('',(#155,#156,#157,#158,#159,#160));
#101=EDGE_LOOP('',(#161,#162));
#102=EDGE_LOOP('',(#163,#164));
#103=EDGE_LOOP('',(#165,#166,#167,#168));
#104=EDGE_LOOP('',(#169,#170,#171,#172));
#105=EDGE_LOOP('',(#173,#174));
#106=EDGE_LOOP('',(#175,#176));
#107=EDGE_LOOP('',(#177,#178,#179,#180));
#108=EDGE_LOOP('',(#181,#182,#183,#184));
#109=EDGE_LOOP('',(#185,#186,#187,#188));
#110=EDGE_LOOP('',(#189,#190,#191,#192));
#111=EDGE_LOOP('',(#193,#194,#195,#196,#197,#198,#199,#200));
#112=EDGE_LOOP('',(#201,#202,#203,#204,#205,#206,#207,#208));
#113=EDGE_LOOP('',(#209,#210,#211,#212,#213,#214,#215,#216,#217,#218,#219,
#220));
#114=EDGE_LOOP('',(#221,#222,#223,#224));
#115=EDGE_LOOP('',(#225,#226,#227,#228));
#116=EDGE_LOOP('',(#229,#230,#231,#232,#233));
#117=EDGE_LOOP('',(#234,#235,#236,#237,#238));
#118=EDGE_LOOP('',(#239,#240,#241,#242,#243));
#119=EDGE_LOOP('',(#244,#245,#246,#247));
#120=EDGE_LOOP('',(#248,#249,#250,#251,#252));
#121=EDGE_LOOP('',(#253,#254,#255,#256));
#122=EDGE_LOOP('',(#257,#258,#259,#260));
#123=EDGE_LOOP('',(#261,#262,#263,#264,#265));
#124=EDGE_LOOP('',(#266,#267,#268,#269));
#125=EDGE_LOOP('',(#270,#271,#272,#273,#274));
#126=EDGE_LOOP('',(#275,#276,#277,#278,#279));
#127=EDGE_LOOP('',(#280,#281,#282,#283));
#128=EDGE_LOOP('',(#284,#285,#286,#287,#288));
#129=EDGE_LOOP('',(#289,#290,#291,#292,#293,#294));
#130=EDGE_LOOP('',(#295,#296,#297,#298,#299,#300));
#131=EDGE_LOOP('',(#301,#302,#303,#304,#305));
#132=EDGE_LOOP('',(#306,#307,#308,#309,#310));
#133=EDGE_LOOP('',(#311,#312,#313,#314,#315));
#134=EDGE_LOOP('',(#316,#317,#318,#319,#320));
#135=EDGE_LOOP('',(#321,#322,#323,#324,#325));
#136=EDGE_LOOP('',(#326,#327,#328,#329,#330));
#137=EDGE_LOOP('',(#331,#332,#333,#334,#335));
#138=EDGE_LOOP('',(#336,#337,#338,#339,#340));
#139=ORIENTED_EDGE('',*,*,#353,.T.);
#140=ORIENTED_EDGE('',*,*,#355,.T.);
#141=ORIENTED_EDGE('',*,*,#354,.F.);
#142=ORIENTED_EDGE('',*,*,#368,.F.);
#143=ORIENTED_EDGE('',*,*,#344,.T.);
#144=ORIENTED_EDGE('',*,*,#351,.T.);
#145=ORIENTED_EDGE('',*,*,#343,.F.);
#146=ORIENTED_EDGE('',*,*,#352,.F.);
#147=ORIENTED_EDGE('',*,*,#351,.F.);
#148=ORIENTED_EDGE('',*,*,#361,.F.);
#149=ORIENTED_EDGE('',*,*,#359,.F.);
#150=ORIENTED_EDGE('',*,*,#360,.F.);
#151=ORIENTED_EDGE('',*,*,#348,.T.);
#152=ORIENTED_EDGE('',*,*,#346,.T.);
#153=ORIENTED_EDGE('',*,*,#347,.F.);
#154=ORIENTED_EDGE('',*,*,#345,.F.);
#155=ORIENTED_EDGE('',*,*,#343,.T.);
#156=ORIENTED_EDGE('',*,*,#360,.T.);
#157=ORIENTED_EDGE('',*,*,#341,.T.);
#158=ORIENTED_EDGE('',*,*,#385,.T.);
#159=ORIENTED_EDGE('',*,*,#363,.T.);
#160=ORIENTED_EDGE('',*,*,#384,.T.);
#161=ORIENTED_EDGE('',*,*,#422,.T.);
#162=ORIENTED_EDGE('',*,*,#432,.T.);
#163=ORIENTED_EDGE('',*,*,#428,.T.);
#164=ORIENTED_EDGE('',*,*,#438,.T.);
#165=ORIENTED_EDGE('',*,*,#372,.T.);
#166=ORIENTED_EDGE('',*,*,#341,.F.);
#167=ORIENTED_EDGE('',*,*,#359,.T.);
#168=ORIENTED_EDGE('',*,*,#342,.T.);
#169=ORIENTED_EDGE('',*,*,#369,.T.);
#170=ORIENTED_EDGE('',*,*,#354,.T.);
#171=ORIENTED_EDGE('',*,*,#349,.F.);
#172=ORIENTED_EDGE('',*,*,#346,.F.);
#173=ORIENTED_EDGE('',*,*,#434,.F.);
#174=ORIENTED_EDGE('',*,*,#419,.F.);
#175=ORIENTED_EDGE('',*,*,#440,.F.);
#176=ORIENTED_EDGE('',*,*,#425,.F.);
#177=ORIENTED_EDGE('',*,*,#350,.F.);
#178=ORIENTED_EDGE('',*,*,#347,.T.);
#179=ORIENTED_EDGE('',*,*,#349,.T.);
#180=ORIENTED_EDGE('',*,*,#355,.F.);
#181=ORIENTED_EDGE('',*,*,#364,.T.);
#182=ORIENTED_EDGE('',*,*,#365,.T.);
#183=ORIENTED_EDGE('',*,*,#375,.F.);
#184=ORIENTED_EDGE('',*,*,#411,.F.);
#185=ORIENTED_EDGE('',*,*,#356,.F.);
#186=ORIENTED_EDGE('',*,*,#366,.F.);
#187=ORIENTED_EDGE('',*,*,#371,.T.);
#188=ORIENTED_EDGE('',*,*,#416,.F.);
#189=ORIENTED_EDGE('',*,*,#365,.F.);
#190=ORIENTED_EDGE('',*,*,#370,.T.);
#191=ORIENTED_EDGE('',*,*,#366,.T.);
#192=ORIENTED_EDGE('',*,*,#357,.F.);
#193=ORIENTED_EDGE('',*,*,#345,.T.);
#194=ORIENTED_EDGE('',*,*,#350,.T.);
#195=ORIENTED_EDGE('',*,*,#353,.F.);
#196=ORIENTED_EDGE('',*,*,#393,.F.);
#197=ORIENTED_EDGE('',*,*,#394,.T.);
#198=ORIENTED_EDGE('',*,*,#367,.T.);
#199=ORIENTED_EDGE('',*,*,#392,.T.);
#200=ORIENTED_EDGE('',*,*,#358,.F.);
#201=ORIENTED_EDGE('',*,*,#362,.T.);
#202=ORIENTED_EDGE('',*,*,#377,.F.);
#203=ORIENTED_EDGE('',*,*,#379,.F.);
#204=ORIENTED_EDGE('',*,*,#378,.F.);
#205=ORIENTED_EDGE('',*,*,#376,.T.);
#206=ORIENTED_EDGE('',*,*,#342,.F.);
#207=ORIENTED_EDGE('',*,*,#361,.T.);
#208=ORIENTED_EDGE('',*,*,#344,.F.);
#209=ORIENTED_EDGE('',*,*,#417,.T.);
#210=ORIENTED_EDGE('',*,*,#380,.F.);
#211=ORIENTED_EDGE('',*,*,#383,.T.);
#212=ORIENTED_EDGE('',*,*,#363,.F.);
#213=ORIENTED_EDGE('',*,*,#382,.F.);
#214=ORIENTED_EDGE('',*,*,#381,.F.);
#215=ORIENTED_EDGE('',*,*,#412,.T.);
#216=ORIENTED_EDGE('',*,*,#395,.T.);
#217=ORIENTED_EDGE('',*,*,#398,.T.);
#218=ORIENTED_EDGE('',*,*,#397,.F.);
#219=ORIENTED_EDGE('',*,*,#399,.F.);
#220=ORIENTED_EDGE('',*,*,#396,.T.);
#221=ORIENTED_EDGE('',*,*,#352,.T.);
#222=ORIENTED_EDGE('',*,*,#384,.F.);
#223=ORIENTED_EDGE('',*,*,#383,.F.);
#224=ORIENTED_EDGE('',*,*,#390,.T.);
#225=ORIENTED_EDGE('',*,*,#386,.T.);
#226=ORIENTED_EDGE('',*,*,#382,.T.);
#227=ORIENTED_EDGE('',*,*,#385,.F.);
#228=ORIENTED_EDGE('',*,*,#372,.F.);
#229=ORIENTED_EDGE('',*,*,#373,.F.);
#230=ORIENTED_EDGE('',*,*,#381,.T.);
#231=ORIENTED_EDGE('',*,*,#386,.F.);
#232=ORIENTED_EDGE('',*,*,#376,.F.);
#233=ORIENTED_EDGE('',*,*,#387,.F.);
#234=ORIENTED_EDGE('',*,*,#387,.T.);
#235=ORIENTED_EDGE('',*,*,#378,.T.);
#236=ORIENTED_EDGE('',*,*,#388,.F.);
#237=ORIENTED_EDGE('',*,*,#364,.F.);
#238=ORIENTED_EDGE('',*,*,#408,.T.);
#239=ORIENTED_EDGE('',*,*,#371,.F.);
#240=ORIENTED_EDGE('',*,*,#389,.T.);
#241=ORIENTED_EDGE('',*,*,#377,.T.);
#242=ORIENTED_EDGE('',*,*,#391,.T.);
#243=ORIENTED_EDGE('',*,*,#413,.T.);
#244=ORIENTED_EDGE('',*,*,#379,.T.);
#245=ORIENTED_EDGE('',*,*,#389,.F.);
#246=ORIENTED_EDGE('',*,*,#370,.F.);
#247=ORIENTED_EDGE('',*,*,#388,.T.);
#248=ORIENTED_EDGE('',*,*,#374,.F.);
#249=ORIENTED_EDGE('',*,*,#391,.F.);
#250=ORIENTED_EDGE('',*,*,#362,.F.);
#251=ORIENTED_EDGE('',*,*,#390,.F.);
#252=ORIENTED_EDGE('',*,*,#380,.T.);
#253=ORIENTED_EDGE('',*,*,#407,.F.);
#254=ORIENTED_EDGE('',*,*,#399,.T.);
#255=ORIENTED_EDGE('',*,*,#400,.F.);
#256=ORIENTED_EDGE('',*,*,#348,.F.);
#257=ORIENTED_EDGE('',*,*,#368,.T.);
#258=ORIENTED_EDGE('',*,*,#403,.T.);
#259=ORIENTED_EDGE('',*,*,#398,.F.);
#260=ORIENTED_EDGE('',*,*,#401,.T.);
#261=ORIENTED_EDGE('',*,*,#402,.T.);
#262=ORIENTED_EDGE('',*,*,#393,.T.);
#263=ORIENTED_EDGE('',*,*,#401,.F.);
#264=ORIENTED_EDGE('',*,*,#395,.F.);
#265=ORIENTED_EDGE('',*,*,#409,.T.);
#266=ORIENTED_EDGE('',*,*,#400,.T.);
#267=ORIENTED_EDGE('',*,*,#397,.T.);
#268=ORIENTED_EDGE('',*,*,#403,.F.);
#269=ORIENTED_EDGE('',*,*,#369,.F.);
#270=ORIENTED_EDGE('',*,*,#410,.F.);
#271=ORIENTED_EDGE('',*,*,#375,.T.);
#272=ORIENTED_EDGE('',*,*,#405,.F.);
#273=ORIENTED_EDGE('',*,*,#394,.F.);
#274=ORIENTED_EDGE('',*,*,#402,.F.);
#275=ORIENTED_EDGE('',*,*,#415,.F.);
#276=ORIENTED_EDGE('',*,*,#404,.F.);
#277=ORIENTED_EDGE('',*,*,#392,.F.);
#278=ORIENTED_EDGE('',*,*,#406,.T.);
#279=ORIENTED_EDGE('',*,*,#356,.T.);
#280=ORIENTED_EDGE('',*,*,#405,.T.);
#281=ORIENTED_EDGE('',*,*,#357,.T.);
#282=ORIENTED_EDGE('',*,*,#406,.F.);
#283=ORIENTED_EDGE('',*,*,#367,.F.);
#284=ORIENTED_EDGE('',*,*,#396,.F.);
#285=ORIENTED_EDGE('',*,*,#407,.T.);
#286=ORIENTED_EDGE('',*,*,#358,.T.);
#287=ORIENTED_EDGE('',*,*,#404,.T.);
#288=ORIENTED_EDGE('',*,*,#414,.T.);
#289=ORIENTED_EDGE('',*,*,#373,.T.);
#290=ORIENTED_EDGE('',*,*,#408,.F.);
#291=ORIENTED_EDGE('',*,*,#411,.T.);
#292=ORIENTED_EDGE('',*,*,#410,.T.);
#293=ORIENTED_EDGE('',*,*,#409,.F.);
#294=ORIENTED_EDGE('',*,*,#412,.F.);
#295=ORIENTED_EDGE('',*,*,#414,.F.);
#296=ORIENTED_EDGE('',*,*,#415,.T.);
#297=ORIENTED_EDGE('',*,*,#416,.T.);
#298=ORIENTED_EDGE('',*,*,#413,.F.);
#299=ORIENTED_EDGE('',*,*,#374,.T.);
#300=ORIENTED_EDGE('',*,*,#417,.F.);
#301=ORIENTED_EDGE('',*,*,#422,.F.);
#302=ORIENTED_EDGE('',*,*,#423,.T.);
#303=ORIENTED_EDGE('',*,*,#421,.T.);
#304=ORIENTED_EDGE('',*,*,#435,.T.);
#305=ORIENTED_EDGE('',*,*,#430,.F.);
#306=ORIENTED_EDGE('',*,*,#421,.F.);
#307=ORIENTED_EDGE('',*,*,#420,.F.);
#308=ORIENTED_EDGE('',*,*,#418,.T.);
#309=ORIENTED_EDGE('',*,*,#419,.T.);
#310=ORIENTED_EDGE('',*,*,#433,.F.);
#311=ORIENTED_EDGE('',*,*,#428,.F.);
#312=ORIENTED_EDGE('',*,*,#429,.T.);
#313=ORIENTED_EDGE('',*,*,#427,.T.);
#314=ORIENTED_EDGE('',*,*,#441,.T.);
#315=ORIENTED_EDGE('',*,*,#436,.F.);
#316=ORIENTED_EDGE('',*,*,#427,.F.);
#317=ORIENTED_EDGE('',*,*,#426,.F.);
#318=ORIENTED_EDGE('',*,*,#424,.T.);
#319=ORIENTED_EDGE('',*,*,#425,.T.);
#320=ORIENTED_EDGE('',*,*,#439,.F.);
#321=ORIENTED_EDGE('',*,*,#430,.T.);
#322=ORIENTED_EDGE('',*,*,#431,.T.);
#323=ORIENTED_EDGE('',*,*,#420,.T.);
#324=ORIENTED_EDGE('',*,*,#423,.F.);
#325=ORIENTED_EDGE('',*,*,#432,.F.);
#326=ORIENTED_EDGE('',*,*,#433,.T.);
#327=ORIENTED_EDGE('',*,*,#434,.T.);
#328=ORIENTED_EDGE('',*,*,#418,.F.);
#329=ORIENTED_EDGE('',*,*,#431,.F.);
#330=ORIENTED_EDGE('',*,*,#435,.F.);
#331=ORIENTED_EDGE('',*,*,#436,.T.);
#332=ORIENTED_EDGE('',*,*,#437,.T.);
#333=ORIENTED_EDGE('',*,*,#426,.T.);
#334=ORIENTED_EDGE('',*,*,#429,.F.);
#335=ORIENTED_EDGE('',*,*,#438,.F.);
#336=ORIENTED_EDGE('',*,*,#439,.T.);
#337=ORIENTED_EDGE('',*,*,#440,.T.);
#338=ORIENTED_EDGE('',*,*,#424,.F.);
#339=ORIENTED_EDGE('',*,*,#437,.F.);
#340=ORIENTED_EDGE('',*,*,#441,.F.);
#341=EDGE_CURVE('',#562,#569,#482,.T.);
#342=EDGE_CURVE('',#561,#574,#483,.T.);
#343=EDGE_CURVE('',#570,#563,#484,.T.);
#344=EDGE_CURVE('',#573,#564,#485,.T.);
#345=EDGE_CURVE('',#585,#565,#486,.T.);
#346=EDGE_CURVE('',#586,#566,#487,.T.);
#347=EDGE_CURVE('',#565,#566,#488,.T.);
#348=EDGE_CURVE('',#585,#586,#489,.T.);
#349=EDGE_CURVE('',#566,#568,#490,.T.);
#350=EDGE_CURVE('',#565,#567,#491,.T.);
#351=EDGE_CURVE('',#564,#563,#492,.T.);
#352=EDGE_CURVE('',#573,#570,#493,.T.);
#353=EDGE_CURVE('',#583,#567,#494,.T.);
#354=EDGE_CURVE('',#584,#568,#495,.T.);
#355=EDGE_CURVE('',#567,#568,#496,.T.);
#356=EDGE_CURVE('',#588,#603,#497,.T.);
#357=EDGE_CURVE('',#587,#588,#498,.T.);
#358=EDGE_CURVE('',#585,#589,#499,.T.);
#359=EDGE_CURVE('',#562,#561,#500,.T.);
#360=EDGE_CURVE('',#563,#562,#501,.T.);
#361=EDGE_CURVE('',#561,#564,#502,.T.);
#362=EDGE_CURVE('',#573,#577,#503,.T.);
#363=EDGE_CURVE('',#572,#571,#504,.T.);
#364=EDGE_CURVE('',#597,#575,#505,.T.);
#365=EDGE_CURVE('',#575,#587,#506,.T.);
#366=EDGE_CURVE('',#576,#588,#507,.T.);
#367=EDGE_CURVE('',#590,#591,#508,.T.);
#368=EDGE_CURVE('',#583,#584,#509,.T.);
#369=EDGE_CURVE('',#586,#584,#510,.T.);
#370=EDGE_CURVE('',#575,#576,#511,.T.);
#371=EDGE_CURVE('',#576,#604,#512,.T.);
#372=EDGE_CURVE('',#574,#569,#513,.T.);
#373=EDGE_CURVE('',#599,#600,#514,.T.);
#374=EDGE_CURVE('',#606,#605,#515,.T.);
#375=EDGE_CURVE('',#598,#587,#516,.T.);
#376=EDGE_CURVE('',#578,#574,#517,.T.);
#377=EDGE_CURVE('',#579,#577,#518,.T.);
#378=EDGE_CURVE('',#578,#580,#519,.T.);
#379=EDGE_CURVE('',#580,#579,#520,.T.);
#380=EDGE_CURVE('',#581,#605,#521,.T.);
#381=EDGE_CURVE('',#599,#582,#522,.T.);
#382=EDGE_CURVE('',#582,#572,#523,.T.);
#383=EDGE_CURVE('',#581,#571,#524,.T.);
#384=EDGE_CURVE('',#571,#570,#446,.T.);
#385=EDGE_CURVE('',#569,#572,#447,.T.);
#386=EDGE_CURVE('',#574,#582,#525,.T.);
#387=EDGE_CURVE('',#600,#578,#526,.T.);
#388=EDGE_CURVE('',#575,#580,#527,.T.);
#389=EDGE_CURVE('',#576,#579,#528,.T.);
#390=EDGE_CURVE('',#581,#573,#529,.T.);
#391=EDGE_CURVE('',#577,#606,#530,.T.);
#392=EDGE_CURVE('',#591,#589,#531,.T.);
#393=EDGE_CURVE('',#592,#583,#532,.T.);
#394=EDGE_CURVE('',#592,#590,#533,.T.);
#395=EDGE_CURVE('',#601,#593,#534,.T.);
#396=EDGE_CURVE('',#594,#607,#535,.T.);
#397=EDGE_CURVE('',#595,#596,#536,.T.);
#398=EDGE_CURVE('',#593,#596,#537,.T.);
#399=EDGE_CURVE('',#594,#595,#538,.T.);
#400=EDGE_CURVE('',#586,#595,#539,.T.);
#401=EDGE_CURVE('',#593,#583,#540,.T.);
#402=EDGE_CURVE('',#602,#592,#541,.T.);
#403=EDGE_CURVE('',#584,#596,#542,.T.);
#404=EDGE_CURVE('',#589,#608,#543,.T.);
#405=EDGE_CURVE('',#590,#587,#544,.T.);
#406=EDGE_CURVE('',#591,#588,#545,.T.);
#407=EDGE_CURVE('',#594,#585,#546,.T.);
#408=EDGE_CURVE('',#597,#600,#547,.T.);
#409=EDGE_CURVE('',#601,#602,#548,.T.);
#410=EDGE_CURVE('',#598,#602,#549,.T.);
#411=EDGE_CURVE('',#597,#598,#550,.T.);
#412=EDGE_CURVE('',#599,#601,#551,.T.);
#413=EDGE_CURVE('',#606,#604,#552,.T.);
#414=EDGE_CURVE('',#608,#607,#553,.T.);
#415=EDGE_CURVE('',#608,#603,#554,.T.);
#416=EDGE_CURVE('',#603,#604,#555,.T.);
#417=EDGE_CURVE('',#607,#605,#556,.T.);
#418=EDGE_CURVE('',#610,#612,#557,.T.);
#419=EDGE_CURVE('',#612,#620,#448,.T.);
#420=EDGE_CURVE('',#610,#609,#449,.T.);
#421=EDGE_CURVE('',#609,#619,#450,.T.);
#422=EDGE_CURVE('',#611,#617,#451,.T.);
#423=EDGE_CURVE('',#611,#609,#442,.T.);
#424=EDGE_CURVE('',#614,#616,#558,.T.);
#425=EDGE_CURVE('',#616,#624,#452,.T.);
#426=EDGE_CURVE('',#614,#613,#453,.T.);
#427=EDGE_CURVE('',#613,#623,#454,.T.);
#428=EDGE_CURVE('',#615,#621,#455,.T.);
#429=EDGE_CURVE('',#615,#613,#443,.T.);
#430=EDGE_CURVE('',#617,#618,#444,.T.);
#431=EDGE_CURVE('',#618,#610,#456,.T.);
#432=EDGE_CURVE('',#617,#611,#457,.T.);
#433=EDGE_CURVE('',#619,#620,#559,.T.);
#434=EDGE_CURVE('',#620,#612,#458,.T.);
#435=EDGE_CURVE('',#619,#618,#459,.T.);
#436=EDGE_CURVE('',#621,#622,#445,.T.);
#437=EDGE_CURVE('',#622,#614,#460,.T.);
#438=EDGE_CURVE('',#621,#615,#461,.T.);
#439=EDGE_CURVE('',#623,#624,#560,.T.);
#440=EDGE_CURVE('',#624,#616,#462,.T.);
#441=EDGE_CURVE('',#623,#622,#463,.T.);
#442=(
BOUNDED_CURVE()
B_SPLINE_CURVE(1,(#1467,#1468),.UNSPECIFIED.,.F.,.F.)
B_SPLINE_CURVE_WITH_KNOTS((2,2),(3.7,4.),.UNSPECIFIED.)
CURVE()
GEOMETRIC_REPRESENTATION_ITEM()
RATIONAL_B_SPLINE_CURVE((1.,1.))
REPRESENTATION_ITEM('')
);
#443=(
BOUNDED_CURVE()
B_SPLINE_CURVE(1,(#1483,#1484),.UNSPECIFIED.,.F.,.F.)
B_SPLINE_CURVE_WITH_KNOTS((2,2),(3.7,4.),.UNSPECIFIED.)
CURVE()
GEOMETRIC_REPRESENTATION_ITEM()
RATIONAL_B_SPLINE_CURVE((1.,1.))
REPRESENTATION_ITEM('')
);
#444=(
BOUNDED_CURVE()
B_SPLINE_CURVE(1,(#1485,#1486),.UNSPECIFIED.,.F.,.F.)
B_SPLINE_CURVE_WITH_KNOTS((2,2),(3.7,4.),.UNSPECIFIED.)
CURVE()
GEOMETRIC_REPRESENTATION_ITEM()
RATIONAL_B_SPLINE_CURVE((1.,1.))
REPRESENTATION_ITEM('')
);
#445=(
BOUNDED_CURVE()
B_SPLINE_CURVE(1,(#1501,#1502),.UNSPECIFIED.,.F.,.F.)
B_SPLINE_CURVE_WITH_KNOTS((2,2),(3.7,4.),.UNSPECIFIED.)
CURVE()
GEOMETRIC_REPRESENTATION_ITEM()
RATIONAL_B_SPLINE_CURVE((1.,1.))
REPRESENTATION_ITEM('')
);
#446=TRIMMED_CURVE($,#464,(#1152),(#1153),.T.,.CARTESIAN.);
#447=TRIMMED_CURVE($,#465,(#1155),(#1156),.T.,.CARTESIAN.);
#448=TRIMMED_CURVE($,#466,(#1456),(#1457),.T.,.CARTESIAN.);
#449=TRIMMED_CURVE($,#467,(#1459),(#1460),.T.,.CARTESIAN.);
#450=TRIMMED_CURVE($,#468,(#1462),(#1463),.T.,.CARTESIAN.);
#451=TRIMMED_CURVE($,#469,(#1465),(#1466),.T.,.CARTESIAN.);
#452=TRIMMED_CURVE($,#470,(#1472),(#1473),.T.,.CARTESIAN.);
#453=TRIMMED_CURVE($,#471,(#1475),(#1476),.T.,.CARTESIAN.);
#454=TRIMMED_CURVE($,#472,(#1478),(#1479),.T.,.CARTESIAN.);
#455=TRIMMED_CURVE($,#473,(#1481),(#1482),.T.,.CARTESIAN.);
#456=TRIMMED_CURVE($,#474,(#1488),(#1489),.T.,.CARTESIAN.);
#457=TRIMMED_CURVE($,#475,(#1491),(#1492),.T.,.CARTESIAN.);
#458=TRIMMED_CURVE($,#476,(#1496),(#1497),.T.,.CARTESIAN.);
#459=TRIMMED_CURVE($,#477,(#1499),(#1500),.T.,.CARTESIAN.);
#460=TRIMMED_CURVE($,#478,(#1504),(#1505),.T.,.CARTESIAN.);
#461=TRIMMED_CURVE($,#479,(#1507),(#1508),.T.,.CARTESIAN.);
#462=TRIMMED_CURVE($,#480,(#1512),(#1513),.T.,.CARTESIAN.);
#463=TRIMMED_CURVE($,#481,(#1515),(#1516),.T.,.CARTESIAN.);
#464=CIRCLE('',#787,0.500000000000021);
#465=CIRCLE('',#788,0.500000000000004);
#466=CIRCLE('',#789,3.);
#467=CIRCLE('',#790,1.5);
#468=CIRCLE('',#791,1.5);
#469=CIRCLE('',#792,1.5);
#470=CIRCLE('',#793,3.);
#471=CIRCLE('',#794,1.5);
#472=CIRCLE('',#795,1.5);
#473=CIRCLE('',#796,1.5);
#474=CIRCLE('',#797,1.5);
#475=CIRCLE('',#798,1.5);
#476=CIRCLE('',#799,3.);
#477=CIRCLE('',#800,1.5);
#478=CIRCLE('',#801,1.5);
#479=CIRCLE('',#802,1.5);
#480=CIRCLE('',#803,3.);
#481=CIRCLE('',#804,1.5);
#482=B_SPLINE_CURVE_WITH_KNOTS('',1,(#1021,#1022),.UNSPECIFIED.,.F.,.F.,
(2,2),(11.2,97.2),.UNSPECIFIED.);
#483=B_SPLINE_CURVE_WITH_KNOTS('',1,(#1023,#1024),.UNSPECIFIED.,.F.,.F.,
(2,2),(-195.4,-109.4),.UNSPECIFIED.);
#484=B_SPLINE_CURVE_WITH_KNOTS('',1,(#1025,#1026),.UNSPECIFIED.,.F.,.F.,
(2,2),(-97.2,-11.2),.UNSPECIFIED.);
#485=B_SPLINE_CURVE_WITH_KNOTS('',1,(#1027,#1028),.UNSPECIFIED.,.F.,.F.,
(2,2),(109.4,195.4),.UNSPECIFIED.);
#486=B_SPLINE_CURVE_WITH_KNOTS('',1,(#1029,#1030),.UNSPECIFIED.,.F.,.F.,
(2,2),(-86.,-1.50000000000001),.UNSPECIFIED.);
#487=B_SPLINE_CURVE_WITH_KNOTS('',1,(#1031,#1032),.UNSPECIFIED.,.F.,.F.,
(2,2),(-86.,-1.50000000000001),.UNSPECIFIED.);
#488=B_SPLINE_CURVE_WITH_KNOTS('',1,(#1033,#1034),.UNSPECIFIED.,.F.,.F.,
(2,2),(1.5,9.2),.UNSPECIFIED.);
#489=B_SPLINE_CURVE_WITH_KNOTS('',1,(#1035,#1036),.UNSPECIFIED.,.F.,.F.,
(2,2),(-6.9151034105224E-15,7.70000000000001),.UNSPECIFIED.);
#490=B_SPLINE_CURVE_WITH_KNOTS('',1,(#1037,#1038),.UNSPECIFIED.,.F.,.F.,
(2,2),(-53.5,-1.5),.UNSPECIFIED.);
#491=B_SPLINE_CURVE_WITH_KNOTS('',1,(#1039,#1040),.UNSPECIFIED.,.F.,.F.,
(2,2),(-53.5,-1.5),.UNSPECIFIED.);
#492=B_SPLINE_CURVE_WITH_KNOTS('',1,(#1041,#1042,#1043,#1044),
 .UNSPECIFIED.,.F.,.F.,(2,1,1,2),(0.,1.5,9.2,11.2),.UNSPECIFIED.);
#493=B_SPLINE_CURVE_WITH_KNOTS('',1,(#1045,#1046),.UNSPECIFIED.,.F.,.F.,
(2,2),(0.,11.2),.UNSPECIFIED.);
#494=B_SPLINE_CURVE_WITH_KNOTS('',1,(#1047,#1048),.UNSPECIFIED.,.F.,.F.,
(2,2),(-86.,-1.5),.UNSPECIFIED.);
#495=B_SPLINE_CURVE_WITH_KNOTS('',1,(#1049,#1050),.UNSPECIFIED.,.F.,.F.,
(2,2),(-86.,-1.5),.UNSPECIFIED.);
#496=B_SPLINE_CURVE_WITH_KNOTS('',1,(#1051,#1052),.UNSPECIFIED.,.F.,.F.,
(2,2),(1.5,9.2),.UNSPECIFIED.);
#497=B_SPLINE_CURVE_WITH_KNOTS('',1,(#1053,#1054),.UNSPECIFIED.,.F.,.F.,
(2,2),(0.,72.5),.UNSPECIFIED.);
#498=B_SPLINE_CURVE_WITH_KNOTS('',1,(#1055,#1056),.UNSPECIFIED.,.F.,.F.,
(2,2),(0.,46.),.UNSPECIFIED.);
#499=B_SPLINE_CURVE_WITH_KNOTS('',1,(#1057,#1058),.UNSPECIFIED.,.F.,.F.,
(2,2),(1.66533453693773E-16,2.49999999999997),.UNSPECIFIED.);
#500=B_SPLINE_CURVE_WITH_KNOTS('',1,(#1059,#1060,#1061,#1062),
 .UNSPECIFIED.,.F.,.F.,(2,1,1,2),(-11.2,-9.2,-1.5,0.),.UNSPECIFIED.);
#501=B_SPLINE_CURVE_WITH_KNOTS('',1,(#1063,#1064,#1065,#1066),
 .UNSPECIFIED.,.F.,.F.,(2,1,1,2),(-1.5,-5.55111512312578E-17,52.,53.5),
 .UNSPECIFIED.);
#502=B_SPLINE_CURVE_WITH_KNOTS('',1,(#1067,#1068,#1069,#1070),
 .UNSPECIFIED.,.F.,.F.,(2,1,1,2),(0.,1.5,53.5,55.),.UNSPECIFIED.);
#503=B_SPLINE_CURVE_WITH_KNOTS('',1,(#1071,#1072),.UNSPECIFIED.,.F.,.F.,
(2,2),(0.,3.99999999999999),.UNSPECIFIED.);
#504=B_SPLINE_CURVE_WITH_KNOTS('',1,(#1073,#1074),.UNSPECIFIED.,.F.,.F.,
(2,2),(0.499999999999996,54.5),.UNSPECIFIED.);
#505=B_SPLINE_CURVE_WITH_KNOTS('',1,(#1075,#1076),.UNSPECIFIED.,.F.,.F.,
(2,2),(0.500000000000002,73.),.UNSPECIFIED.);
#506=B_SPLINE_CURVE_WITH_KNOTS('',1,(#1077,#1078),.UNSPECIFIED.,.F.,.F.,
(2,2),(0.5,1.),.UNSPECIFIED.);
#507=B_SPLINE_CURVE_WITH_KNOTS('',1,(#1079,#1080),.UNSPECIFIED.,.F.,.F.,
(2,2),(0.500000000000001,1.),.UNSPECIFIED.);
#508=B_SPLINE_CURVE_WITH_KNOTS('',1,(#1081,#1082),.UNSPECIFIED.,.F.,.F.,
(2,2),(-0.499999999999997,46.5),.UNSPECIFIED.);
#509=B_SPLINE_CURVE_WITH_KNOTS('',1,(#1083,#1084),.UNSPECIFIED.,.F.,.F.,
(2,2),(-7.13714801544744E-15,7.70000000000001),.UNSPECIFIED.);
#510=B_SPLINE_CURVE_WITH_KNOTS('',1,(#1085,#1086),.UNSPECIFIED.,.F.,.F.,
(2,2),(-6.10622663543836E-16,52.),.UNSPECIFIED.);
#511=B_SPLINE_CURVE_WITH_KNOTS('',1,(#1087,#1088),.UNSPECIFIED.,.F.,.F.,
(2,2),(0.,46.),.UNSPECIFIED.);
#512=B_SPLINE_CURVE_WITH_KNOTS('',1,(#1089,#1090),.UNSPECIFIED.,.F.,.F.,
(2,2),(0.,72.5),.UNSPECIFIED.);
#513=B_SPLINE_CURVE_WITH_KNOTS('',1,(#1091,#1092),.UNSPECIFIED.,.F.,.F.,
(2,2),(0.,11.2),.UNSPECIFIED.);
#514=B_SPLINE_CURVE_WITH_KNOTS('',3,(#1093,#1094,#1095,#1096,#1097,#1098,
#1099,#1100,#1101,#1102,#1103,#1104,#1105,#1106,#1107,#1108,#1109,#1110,
#1111,#1112),.UNSPECIFIED.,.F.,.F.,(4,1,1,1,1,1,1,1,1,1,1,1,1,1,1,1,1,4),
(0.,0.0296575523768889,0.0597811937670079,0.0903260256721828,0.12124258057178,
0.152477088636933,0.183971840782903,0.215665655945564,0.247494453072403,
0.279391923768068,0.311290297667052,0.3431211886028,0.374816505645437,0.406309409297746,
0.437535289771195,0.46843274151888,0.498944506273799,0.529020612358685),
 .UNSPECIFIED.);
#515=B_SPLINE_CURVE_WITH_KNOTS('',3,(#1113,#1114,#1115,#1116,#1117,#1118,
#1119,#1120,#1121,#1122,#1123,#1124,#1125,#1126,#1127,#1128,#1129,#1130,
#1131,#1132),.UNSPECIFIED.,.F.,.F.,(4,1,1,1,1,1,1,1,1,1,1,1,1,1,1,1,1,4),
(-0.529020612358684,-0.498944506273753,-0.468432741518879,-0.437535289771193,
-0.406309409297729,-0.374816505645418,-0.343121188602783,-0.311290297667049,
-0.279391923768034,-0.24749445307238,-0.215665655945553,-0.183971840782916,
-0.152477088636916,-0.121242580571791,-0.090326025672292,-0.0597811937671166,
-0.0296575523768848,0.),.UNSPECIFIED.);
#516=B_SPLINE_CURVE_WITH_KNOTS('',1,(#1133,#1134),.UNSPECIFIED.,.F.,.F.,
(2,2),(0.50000000000001,73.),.UNSPECIFIED.);
#517=B_SPLINE_CURVE_WITH_KNOTS('',1,(#1135,#1136),.UNSPECIFIED.,.F.,.F.,
(2,2),(0.499999999999997,4.50000000000001),.UNSPECIFIED.);
#518=B_SPLINE_CURVE_WITH_KNOTS('',1,(#1137,#1138),.UNSPECIFIED.,.F.,.F.,
(2,2),(-0.500000000000001,72.5),.UNSPECIFIED.);
#519=B_SPLINE_CURVE_WITH_KNOTS('',1,(#1139,#1140),.UNSPECIFIED.,.F.,.F.,
(2,2),(0.499999999999986,73.5),.UNSPECIFIED.);
#520=B_SPLINE_CURVE_WITH_KNOTS('',1,(#1141,#1142),.UNSPECIFIED.,.F.,.F.,
(2,2),(-0.499999999999996,46.5),.UNSPECIFIED.);
#521=B_SPLINE_CURVE_WITH_KNOTS('',1,(#1143,#1144),.UNSPECIFIED.,.F.,.F.,
(2,2),(0.499999999999996,3.99999999999999),.UNSPECIFIED.);
#522=B_SPLINE_CURVE_WITH_KNOTS('',1,(#1145,#1146),.UNSPECIFIED.,.F.,.F.,
(2,2),(0.500000000000012,4.),.UNSPECIFIED.);
#523=B_SPLINE_CURVE_WITH_KNOTS('',1,(#1147,#1148),.UNSPECIFIED.,.F.,.F.,
(2,2),(0.500000000000018,11.2),.UNSPECIFIED.);
#524=B_SPLINE_CURVE_WITH_KNOTS('',1,(#1149,#1150),.UNSPECIFIED.,.F.,.F.,
(2,2),(0.500000000000018,11.2),.UNSPECIFIED.);
#525=B_SPLINE_CURVE_WITH_KNOTS('',3,(#1157,#1158,#1159,#1160,#1161,#1162,
#1163,#1164,#1165,#1166,#1167,#1168),.UNSPECIFIED.,.F.,.F.,(4,1,1,1,1,1,
1,1,1,4),(0.,0.0812085600481022,0.169115792310581,0.265140961625716,0.369825550506406,
0.482321915030772,0.60035208056045,0.720632865701761,0.839554257838312,
0.953838456918861),.UNSPECIFIED.);
#526=B_SPLINE_CURVE_WITH_KNOTS('',3,(#1169,#1170,#1171,#1172,#1173,#1174,
#1175,#1176),.UNSPECIFIED.,.F.,.F.,(4,1,1,1,1,4),(0.425215757901047,0.482321915030766,
0.600352080560435,0.720632865701721,0.839554257838334,0.95383845691883),
 .UNSPECIFIED.);
#527=B_SPLINE_CURVE_WITH_KNOTS('',3,(#1177,#1178,#1179,#1180,#1181,#1182,
#1183,#1184,#1185,#1186,#1187,#1188),.UNSPECIFIED.,.F.,.F.,(4,1,1,1,1,1,
1,1,1,4),(0.,0.0812085600480945,0.169115792310577,0.265140961625711,0.369825550506387,
0.482321915030759,0.600352080560437,0.72063286570173,0.839554257838358,
0.95383845691885),.UNSPECIFIED.);
#528=B_SPLINE_CURVE_WITH_KNOTS('',3,(#1189,#1190,#1191,#1192,#1193,#1194,
#1195,#1196,#1197,#1198,#1199,#1200),.UNSPECIFIED.,.F.,.F.,(4,1,1,1,1,1,
1,1,1,4),(0.,0.081208560048091,0.169115792310578,0.265140961625706,0.369825550506381,
0.48232191503075,0.600352080560418,0.720632865701721,0.839554257838344,
0.953838456918841),.UNSPECIFIED.);
#529=B_SPLINE_CURVE_WITH_KNOTS('',3,(#1201,#1202,#1203,#1204,#1205,#1206,
#1207,#1208,#1209,#1210,#1211,#1212),.UNSPECIFIED.,.F.,.F.,(4,1,1,1,1,1,
1,1,1,4),(-0.953838456918852,-0.839554257838274,-0.720632865701694,-0.600352080560421,
-0.482321915030758,-0.369825550506387,-0.265140961625712,-0.169115792310572,
-0.0812085600480952,0.),.UNSPECIFIED.);
#530=B_SPLINE_CURVE_WITH_KNOTS('',3,(#1213,#1214,#1215,#1216,#1217,#1218,
#1219,#1220),.UNSPECIFIED.,.F.,.F.,(4,1,1,1,1,4),(-0.953838456918849,-0.839554257838355,
-0.720632865701732,-0.600352080560423,-0.482321915030759,-0.425215757901051),
 .UNSPECIFIED.);
#531=B_SPLINE_CURVE_WITH_KNOTS('',1,(#1221,#1222),.UNSPECIFIED.,.F.,.F.,
(2,2),(-0.500000000000005,72.5),.UNSPECIFIED.);
#532=B_SPLINE_CURVE_WITH_KNOTS('',1,(#1223,#1224),.UNSPECIFIED.,.F.,.F.,
(2,2),(0.499999999999989,3.),.UNSPECIFIED.);
#533=B_SPLINE_CURVE_WITH_KNOTS('',1,(#1225,#1226),.UNSPECIFIED.,.F.,.F.,
(2,2),(0.5,73.5),.UNSPECIFIED.);
#534=B_SPLINE_CURVE_WITH_KNOTS('',1,(#1227,#1228),.UNSPECIFIED.,.F.,.F.,
(2,2),(0.500000000000008,3.5),.UNSPECIFIED.);
#535=B_SPLINE_CURVE_WITH_KNOTS('',1,(#1229,#1230),.UNSPECIFIED.,.F.,.F.,
(2,2),(-0.499999999999993,2.49999999999998),.UNSPECIFIED.);
#536=B_SPLINE_CURVE_WITH_KNOTS('',1,(#1231,#1232),.UNSPECIFIED.,.F.,.F.,
(2,2),(-0.5,52.5),.UNSPECIFIED.);
#537=B_SPLINE_CURVE_WITH_KNOTS('',1,(#1233,#1234),.UNSPECIFIED.,.F.,.F.,
(2,2),(-0.499999999999993,8.19999999999998),.UNSPECIFIED.);
#538=B_SPLINE_CURVE_WITH_KNOTS('',1,(#1235,#1236),.UNSPECIFIED.,.F.,.F.,
(2,2),(-0.499999999999995,8.19999999999999),.UNSPECIFIED.);
#539=B_SPLINE_CURVE_WITH_KNOTS('',3,(#1237,#1238,#1239,#1240,#1241,#1242,
#1243,#1244,#1245,#1246,#1247,#1248),.UNSPECIFIED.,.F.,.F.,(4,1,1,1,1,1,
1,1,1,4),(0.,0.081208560048088,0.169115792310566,0.265140961625698,0.369825550506383,
0.482321915030756,0.600352080560412,0.720632865701709,0.839554257838341,
0.953838456918842),.UNSPECIFIED.);
#540=B_SPLINE_CURVE_WITH_KNOTS('',3,(#1249,#1250,#1251,#1252,#1253,#1254,
#1255,#1256,#1257,#1258,#1259,#1260),.UNSPECIFIED.,.F.,.F.,(4,1,1,1,1,1,
1,1,1,4),(-0.953838456918839,-0.839554257838311,-0.720632865701713,-0.600352080560406,
-0.482321915030737,-0.369825550506367,-0.265140961625702,-0.169115792310565,
-0.0812085600480735,0.),.UNSPECIFIED.);
#541=B_SPLINE_CURVE_WITH_KNOTS('',3,(#1261,#1262,#1263,#1264,#1265,#1266,
#1267,#1268),.UNSPECIFIED.,.F.,.F.,(4,1,1,1,1,4),(0.425215757901074,0.482321915030751,
0.600352080560431,0.720632865701724,0.839554257838348,0.953838456918849),
 .UNSPECIFIED.);
#542=B_SPLINE_CURVE_WITH_KNOTS('',3,(#1269,#1270,#1271,#1272,#1273,#1274,
#1275,#1276,#1277,#1278,#1279,#1280),.UNSPECIFIED.,.F.,.F.,(4,1,1,1,1,1,
1,1,1,4),(0.,0.0812085600480669,0.169115792310567,0.265140961625678,0.369825550506359,
0.482321915030716,0.600352080560414,0.720632865701712,0.839554257838328,
0.953838456918824),.UNSPECIFIED.);
#543=B_SPLINE_CURVE_WITH_KNOTS('',3,(#1281,#1282,#1283,#1284,#1285,#1286,
#1287,#1288),.UNSPECIFIED.,.F.,.F.,(4,1,1,1,1,4),(-0.953838456918846,-0.839554257838349,
-0.720632865701729,-0.600352080560428,-0.482321915030753,-0.425215757901055),
 .UNSPECIFIED.);
#544=B_SPLINE_CURVE_WITH_KNOTS('',3,(#1289,#1290,#1291,#1292,#1293,#1294,
#1295,#1296,#1297,#1298,#1299,#1300),.UNSPECIFIED.,.F.,.F.,(4,1,1,1,1,1,
1,1,1,4),(-0.95383845691884,-0.839554257838348,-0.720632865701725,-0.600352080560427,
-0.482321915030756,-0.369825550506379,-0.265140961625708,-0.169115792310581,
-0.0812085600480928,0.),.UNSPECIFIED.);
#545=B_SPLINE_CURVE_WITH_KNOTS('',3,(#1301,#1302,#1303,#1304,#1305,#1306,
#1307,#1308,#1309,#1310,#1311,#1312),.UNSPECIFIED.,.F.,.F.,(4,1,1,1,1,1,
1,1,1,4),(-0.953838456918849,-0.839554257838352,-0.720632865701732,-0.600352080560429,
-0.482321915030761,-0.369825550506385,-0.265140961625707,-0.169115792310583,
-0.0812085600480951,0.),.UNSPECIFIED.);
#546=B_SPLINE_CURVE_WITH_KNOTS('',3,(#1313,#1314,#1315,#1316,#1317,#1318,
#1319,#1320,#1321,#1322,#1323,#1324),.UNSPECIFIED.,.F.,.F.,(4,1,1,1,1,1,
1,1,1,4),(-0.953838456918849,-0.839554257838426,-0.720632865701749,-0.600352080560438,
-0.482321915030757,-0.36982555050639,-0.265140961625699,-0.169115792310579,
-0.0812085600480875,0.),.UNSPECIFIED.);
#547=B_SPLINE_CURVE_WITH_KNOTS('',3,(#1325,#1326,#1327,#1328,#1329,#1330,
#1331,#1332,#1333,#1334,#1335,#1336,#1337,#1338,#1339,#1340,#1341,#1342,
#1343,#1344),.UNSPECIFIED.,.F.,.F.,(4,1,1,1,1,1,1,1,1,1,1,1,1,1,1,1,1,4),
(0.,0.0296575523767233,0.0597811937669294,0.09032602567222,0.121242580571699,
0.152477088636913,0.183971840782923,0.215665655945506,0.247494453072366,
0.279391923768025,0.311290297667064,0.343121188602774,0.37481650564541,
0.406309409297714,0.43753528977119,0.468432741518875,0.498944506273766,
0.529020612358687),.UNSPECIFIED.);
#548=B_SPLINE_CURVE_WITH_KNOTS('',3,(#1345,#1346,#1347,#1348,#1349,#1350,
#1351,#1352,#1353,#1354,#1355,#1356,#1357,#1358,#1359,#1360,#1361,#1362,
#1363,#1364),.UNSPECIFIED.,.F.,.F.,(4,1,1,1,1,1,1,1,1,1,1,1,1,1,1,1,1,4),
(0.,0.0296575523771172,0.0597811937671006,0.0903260256722409,0.121242580571684,
0.152477088636962,0.183971840782912,0.215665655945516,0.247494453072352,
0.279391923768045,0.311290297667042,0.343121188602753,0.374816505645376,
0.406309409297702,0.43753528977116,0.468432741518844,0.498944506273743,
0.529020612358686),.UNSPECIFIED.);
#549=B_SPLINE_CURVE_WITH_KNOTS('',3,(#1365,#1366,#1367,#1368,#1369,#1370,
#1371,#1372,#1373,#1374,#1375,#1376,#1377,#1378,#1379,#1380,#1381,#1382,
#1383,#1384),.UNSPECIFIED.,.F.,.F.,(4,1,1,1,1,1,1,1,1,1,1,1,1,1,1,1,1,4),
(0.,0.0296575523768389,0.059781193766989,0.0903260256721864,0.121242580571765,
0.152477088636906,0.183971840782905,0.215665655945543,0.247494453072402,
0.279391923768076,0.31129029766706,0.343121188602814,0.374816505645452,
0.406309409297752,0.43753528977123,0.468432741518922,0.498944506273817,
0.529020612358715),.UNSPECIFIED.);
#550=B_SPLINE_CURVE_WITH_KNOTS('',1,(#1385,#1386),.UNSPECIFIED.,.F.,.F.,
(2,2),(-7.03141248929266E-15,0.499999999999997),.UNSPECIFIED.);
#551=B_SPLINE_CURVE_WITH_KNOTS('',1,(#1387,#1388),.UNSPECIFIED.,.F.,.F.,
(2,2),(5.12552963035287E-15,0.500000000000002),.UNSPECIFIED.);
#552=B_SPLINE_CURVE_WITH_KNOTS('',3,(#1389,#1390,#1391,#1392,#1393,#1394,
#1395,#1396,#1397,#1398,#1399,#1400,#1401,#1402,#1403,#1404,#1405,#1406,
#1407,#1408),.UNSPECIFIED.,.F.,.F.,(4,1,1,1,1,1,1,1,1,1,1,1,1,1,1,1,1,4),
(-0.5290206123587,-0.498944506273772,-0.468432741518871,-0.437535289771183,
-0.406309409297723,-0.374816505645411,-0.343121188602798,-0.311290297667051,
-0.279391923768036,-0.247494453072402,-0.215665655945528,-0.183971840782905,
-0.152477088636914,-0.121242580571746,-0.0903260256721955,-0.059781193766953,
-0.0296575523767722,0.),.UNSPECIFIED.);
#553=B_SPLINE_CURVE_WITH_KNOTS('',3,(#1409,#1410,#1411,#1412,#1413,#1414,
#1415,#1416,#1417,#1418,#1419,#1420,#1421,#1422,#1423,#1424,#1425,#1426,
#1427,#1428),.UNSPECIFIED.,.F.,.F.,(4,1,1,1,1,1,1,1,1,1,1,1,1,1,1,1,1,4),
(-0.529020612358685,-0.498944506273785,-0.468432741518882,-0.43753528977119,
-0.406309409297721,-0.374816505645396,-0.343121188602784,-0.311290297667047,
-0.279391923768055,-0.24749445307238,-0.215665655945552,-0.183971840782873,
-0.152477088636919,-0.121242580571765,-0.0903260256722023,-0.0597811937669392,
-0.0296575523770003,0.),.UNSPECIFIED.);
#554=B_SPLINE_CURVE_WITH_KNOTS('',3,(#1429,#1430,#1431,#1432,#1433,#1434,
#1435,#1436,#1437,#1438,#1439,#1440,#1441,#1442,#1443,#1444,#1445,#1446,
#1447,#1448),.UNSPECIFIED.,.F.,.F.,(4,1,1,1,1,1,1,1,1,1,1,1,1,1,1,1,1,4),
(-0.529020612358691,-0.498944506273779,-0.468432741518853,-0.437535289771181,
-0.40630940929772,-0.374816505645408,-0.343121188602792,-0.311290297667069,
-0.27939192376803,-0.247494453072397,-0.215665655945549,-0.183971840782902,
-0.152477088636931,-0.121242580571747,-0.0903260256721881,-0.0597811937669513,
-0.0296575523768954,0.),.UNSPECIFIED.);
#555=B_SPLINE_CURVE_WITH_KNOTS('',1,(#1449,#1450),.UNSPECIFIED.,.F.,.F.,
(2,2),(3.44169137633799E-15,0.500000000000006),.UNSPECIFIED.);
#556=B_SPLINE_CURVE_WITH_KNOTS('',1,(#1451,#1452),.UNSPECIFIED.,.F.,.F.,
(2,2),(-1.22124532708767E-15,0.499999999999995),.UNSPECIFIED.);
#557=B_SPLINE_CURVE_WITH_KNOTS('',1,(#1453,#1454),.UNSPECIFIED.,.F.,.F.,
(2,2),(3.,5.26715680975093),.UNSPECIFIED.);
#558=B_SPLINE_CURVE_WITH_KNOTS('',1,(#1469,#1470),.UNSPECIFIED.,.F.,.F.,
(2,2),(3.,5.26715680975093),.UNSPECIFIED.);
#559=B_SPLINE_CURVE_WITH_KNOTS('',1,(#1493,#1494),.UNSPECIFIED.,.F.,.F.,
(2,2),(3.,5.26715680975093),.UNSPECIFIED.);
#560=B_SPLINE_CURVE_WITH_KNOTS('',1,(#1509,#1510),.UNSPECIFIED.,.F.,.F.,
(2,2),(3.,5.26715680975093),.UNSPECIFIED.);
#561=VERTEX_POINT('',#957);
#562=VERTEX_POINT('',#958);
#563=VERTEX_POINT('',#959);
#564=VERTEX_POINT('',#960);
#565=VERTEX_POINT('',#961);
#566=VERTEX_POINT('',#962);
#567=VERTEX_POINT('',#963);
#568=VERTEX_POINT('',#964);
#569=VERTEX_POINT('',#965);
#570=VERTEX_POINT('',#966);
#571=VERTEX_POINT('',#967);
#572=VERTEX_POINT('',#968);
#573=VERTEX_POINT('',#969);
#574=VERTEX_POINT('',#970);
#575=VERTEX_POINT('',#971);
#576=VERTEX_POINT('',#972);
#577=VERTEX_POINT('',#973);
#578=VERTEX_POINT('',#974);
#579=VERTEX_POINT('',#975);
#580=VERTEX_POINT('',#976);
#581=VERTEX_POINT('',#977);
#582=VERTEX_POINT('',#978);
#583=VERTEX_POINT('',#979);
#584=VERTEX_POINT('',#980);
#585=VERTEX_POINT('',#981);
#586=VERTEX_POINT('',#982);
#587=VERTEX_POINT('',#983);
#588=VERTEX_POINT('',#984);
#589=VERTEX_POINT('',#985);
#590=VERTEX_POINT('',#986);
#591=VERTEX_POINT('',#987);
#592=VERTEX_POINT('',#988);
#593=VERTEX_POINT('',#989);
#594=VERTEX_POINT('',#990);
#595=VERTEX_POINT('',#991);
#596=VERTEX_POINT('',#992);
#597=VERTEX_POINT('',#993);
#598=VERTEX_POINT('',#994);
#599=VERTEX_POINT('',#995);
#600=VERTEX_POINT('',#996);
#601=VERTEX_POINT('',#997);
#602=VERTEX_POINT('',#998);
#603=VERTEX_POINT('',#999);
#604=VERTEX_POINT('',#1000);
#605=VERTEX_POINT('',#1001);
#606=VERTEX_POINT('',#1002);
#607=VERTEX_POINT('',#1003);
#608=VERTEX_POINT('',#1004);
#609=VERTEX_POINT('',#1005);
#610=VERTEX_POINT('',#1006);
#611=VERTEX_POINT('',#1007);
#612=VERTEX_POINT('',#1008);
#613=VERTEX_POINT('',#1009);
#614=VERTEX_POINT('',#1010);
#615=VERTEX_POINT('',#1011);
#616=VERTEX_POINT('',#1012);
#617=VERTEX_POINT('',#1013);
#618=VERTEX_POINT('',#1014);
#619=VERTEX_POINT('',#1015);
#620=VERTEX_POINT('',#1016);
#621=VERTEX_POINT('',#1017);
#622=VERTEX_POINT('',#1018);
#623=VERTEX_POINT('',#1019);
#624=VERTEX_POINT('',#1020);
#625=(
BOUNDED_SURFACE()
B_SPLINE_SURFACE(1,2,((#914,#915,#916,#917,#918),(#919,#920,#921,#922,#923)),
 .UNSPECIFIED.,.F.,.F.,.F.)
B_SPLINE_SURFACE_WITH_KNOTS((2,2),(3,2,3),(3.,5.26715680975093),(0.,4.6505484635758,
9.3010969271516),.UNSPECIFIED.)
GEOMETRIC_REPRESENTATION_ITEM()
RATIONAL_B_SPLINE_SURFACE(((1.,0.707106781186548,1.,0.707106781186548,1.),
(1.,0.707106781186548,1.,0.707106781186548,1.)))
REPRESENTATION_ITEM('')
SURFACE()
);
#626=(
BOUNDED_SURFACE()
B_SPLINE_SURFACE(1,2,((#925,#926,#927,#928,#929),(#930,#931,#932,#933,#934)),
 .UNSPECIFIED.,.F.,.F.,.F.)
B_SPLINE_SURFACE_WITH_KNOTS((2,2),(3,2,3),(3.,5.26715680975093),(0.,4.6505484635758,
9.3010969271516),.UNSPECIFIED.)
GEOMETRIC_REPRESENTATION_ITEM()
RATIONAL_B_SPLINE_SURFACE(((1.,0.707106781186548,1.,0.707106781186548,1.),
(1.,0.707106781186548,1.,0.707106781186548,1.)))
REPRESENTATION_ITEM('')
SURFACE()
);
#627=(
BOUNDED_SURFACE()
B_SPLINE_SURFACE(1,2,((#936,#937,#938,#939,#940),(#941,#942,#943,#944,#945)),
 .UNSPECIFIED.,.F.,.F.,.F.)
B_SPLINE_SURFACE_WITH_KNOTS((2,2),(3,2,3),(3.,5.26715680975093),(9.3010969271516,
13.9516453907274,18.6021938543032),.UNSPECIFIED.)
GEOMETRIC_REPRESENTATION_ITEM()
RATIONAL_B_SPLINE_SURFACE(((1.,0.707106781186548,1.,0.707106781186548,1.),
(1.,0.707106781186548,1.,0.707106781186548,1.)))
REPRESENTATION_ITEM('')
SURFACE()
);
#628=(
BOUNDED_SURFACE()
B_SPLINE_SURFACE(1,2,((#947,#948,#949,#950,#951),(#952,#953,#954,#955,#956)),
 .UNSPECIFIED.,.F.,.F.,.F.)
B_SPLINE_SURFACE_WITH_KNOTS((2,2),(3,2,3),(3.,5.26715680975093),(9.3010969271516,
13.9516453907274,18.6021938543032),.UNSPECIFIED.)
GEOMETRIC_REPRESENTATION_ITEM()
RATIONAL_B_SPLINE_SURFACE(((1.,0.707106781186548,1.,0.707106781186548,1.),
(1.,0.707106781186548,1.,0.707106781186548,1.)))
REPRESENTATION_ITEM('')
SURFACE()
);
#629=CYLINDRICAL_SURFACE('',#766,0.500000000000014);
#630=CYLINDRICAL_SURFACE('',#767,0.500000000000014);
#631=CYLINDRICAL_SURFACE('',#768,0.50000000000001);
#632=CYLINDRICAL_SURFACE('',#769,0.499999999999991);
#633=CYLINDRICAL_SURFACE('',#770,0.499999999999997);
#634=CYLINDRICAL_SURFACE('',#771,0.499999999999998);
#635=CYLINDRICAL_SURFACE('',#772,0.500000000000007);
#636=CYLINDRICAL_SURFACE('',#773,0.500000000000004);
#637=CYLINDRICAL_SURFACE('',#774,0.499999999999989);
#638=CYLINDRICAL_SURFACE('',#775,0.500000000000004);
#639=CYLINDRICAL_SURFACE('',#776,0.500000000000004);
#640=CYLINDRICAL_SURFACE('',#777,0.500000000000003);
#641=CYLINDRICAL_SURFACE('',#778,0.499999999999999);
#642=CYLINDRICAL_SURFACE('',#779,0.500000000000005);
#643=CYLINDRICAL_SURFACE('',#780,0.499999999999999);
#644=CYLINDRICAL_SURFACE('',#781,0.500000000000007);
#645=CYLINDRICAL_SURFACE('',#782,0.499999999999993);
#646=CYLINDRICAL_SURFACE('',#783,1.5);
#647=CYLINDRICAL_SURFACE('',#784,1.5);
#648=CYLINDRICAL_SURFACE('',#785,1.5);
#649=CYLINDRICAL_SURFACE('',#786,1.5);
#650=PLANE('',#752);
#651=PLANE('',#753);
#652=PLANE('',#754);
#653=PLANE('',#755);
#654=PLANE('',#756);
#655=PLANE('',#757);
#656=PLANE('',#758);
#657=PLANE('',#759);
#658=PLANE('',#760);
#659=PLANE('',#761);
#660=PLANE('',#762);
#661=PLANE('',#763);
#662=PLANE('',#764);
#663=PLANE('',#765);
#664=SHAPE_DEFINITION_REPRESENTATION(#665,#750);
#665=PRODUCT_DEFINITION_SHAPE($,$,#667);
#666=PRODUCT_DEFINITION_CONTEXT('3D Mechanical Parts',#739,'design');
#667=PRODUCT_DEFINITION('A','First version',#709,#666);
#668=DATE_TIME_ROLE('classification_date');
#669=DATE_TIME_ROLE('creation_date');
#670=APPLIED_DATE_AND_TIME_ASSIGNMENT(#694,#668,(#673));
#671=APPLIED_DATE_AND_TIME_ASSIGNMENT(#696,#669,(#667));
#672=SECURITY_CLASSIFICATION_LEVEL('unclassified');
#673=SECURITY_CLASSIFICATION('A','Security for version',#672);
#674=APPLIED_SECURITY_CLASSIFICATION_ASSIGNMENT(#673,(#709));
#675=APPROVAL_ROLE('Version approval');
#676=APPROVAL_ROLE('Version Security approval');
#677=APPROVAL_ROLE('Definition approval');
#678=APPROVAL_PERSON_ORGANIZATION(#727,#703,#675);
#679=APPROVAL_PERSON_ORGANIZATION(#728,#704,#676);
#680=APPROVAL_PERSON_ORGANIZATION(#731,#705,#677);
#681=COORDINATED_UNIVERSAL_TIME_OFFSET(5,0,.BEHIND.);
#682=LOCAL_TIME(0,0,0.,#681);
#683=LOCAL_TIME(0,0,0.,#681);
#684=LOCAL_TIME(0,0,0.,#681);
#685=LOCAL_TIME(0,0,0.,#681);
#686=LOCAL_TIME(0,0,0.,#681);
#687=CALENDAR_DATE(1999,1,1);
#688=CALENDAR_DATE(1999,1,1);
#689=CALENDAR_DATE(1999,1,1);
#690=CALENDAR_DATE(1999,1,1);
#691=CALENDAR_DATE(1999,1,1);
#692=DATE_AND_TIME(#687,#682);
#693=DATE_AND_TIME(#688,#683);
#694=DATE_AND_TIME(#689,#684);
#695=DATE_AND_TIME(#690,#685);
#696=DATE_AND_TIME(#691,#686);
#697=APPROVAL_DATE_TIME(#692,#703);
#698=APPROVAL_DATE_TIME(#693,#704);
#699=APPROVAL_DATE_TIME(#695,#705);
#700=APPROVAL_STATUS('not_yet_approved');
#701=APPROVAL_STATUS('not_yet_approved');
#702=APPROVAL_STATUS('approved');
#703=APPROVAL(#700,'Version approval');
#704=APPROVAL(#701,'Version Security approval');
#705=APPROVAL(#702,'Definition approval');
#706=APPLIED_APPROVAL_ASSIGNMENT(#703,(#709));
#707=APPLIED_APPROVAL_ASSIGNMENT(#704,(#673));
#708=APPLIED_APPROVAL_ASSIGNMENT(#705,(#667));
#709=PRODUCT_DEFINITION_FORMATION_WITH_SPECIFIED_SOURCE('A',
'First version',#741,.MADE.);
#710=PERSON_AND_ORGANIZATION_ROLE('design_owner');
#711=PERSON_AND_ORGANIZATION_ROLE('creator');
#712=PERSON_AND_ORGANIZATION_ROLE('design_supplier');
#713=PERSON_AND_ORGANIZATION_ROLE('classification_officer');
#714=PERSON_AND_ORGANIZATION_ROLE('creator');
#715=ORGANIZATION('STI','lab','lab');
#716=ORGANIZATION('STI','unknown','unknown');
#717=ORGANIZATION('STI','unknown','unknown');
#718=ORGANIZATION('STI','unknown','unknown');
#719=ORGANIZATION('STI','unknown','unknown');
#720=ORGANIZATION('STI','unknown','unknown');
#721=ORGANIZATION('STI','unknown','unknown');
#722=PERSON('1','Box','vc60',$,$,$);
#723=PERSON('2','last','first',$,$,$);
#724=PERSON('3','President','Mr.',$,$,$);
#725=PERSON_AND_ORGANIZATION(#722,#715);
#726=PERSON_AND_ORGANIZATION(#723,#716);
#727=PERSON_AND_ORGANIZATION(#724,#717);
#728=PERSON_AND_ORGANIZATION(#724,#718);
#729=PERSON_AND_ORGANIZATION(#724,#719);
#730=PERSON_AND_ORGANIZATION(#723,#720);
#731=PERSON_AND_ORGANIZATION(#724,#721);
#732=APPLIED_PERSON_AND_ORGANIZATION_ASSIGNMENT(#725,#710,(#741));
#733=APPLIED_PERSON_AND_ORGANIZATION_ASSIGNMENT(#726,#711,(#709));
#734=APPLIED_PERSON_AND_ORGANIZATION_ASSIGNMENT(#726,#712,(#709));
#735=APPLIED_PERSON_AND_ORGANIZATION_ASSIGNMENT(#729,#713,(#673));
#736=APPLIED_PERSON_AND_ORGANIZATION_ASSIGNMENT(#730,#714,(#667));
#737=PRODUCT_RELATED_PRODUCT_CATEGORY('detail','detail',(#741));
#738=APPLICATION_PROTOCOL_DEFINITION('International Standard',
'config_control_design',1994,#739);
#739=APPLICATION_CONTEXT(
'configuration controlled 3d designs of mechanical parts and assemblie
s');
#740=PRODUCT_CONTEXT('3D Mechanical Parts',#739,'mechanical');
#741=PRODUCT('Document','Document','',(#740));
#742=(
LENGTH_UNIT()
NAMED_UNIT(*)
SI_UNIT(.MILLI.,.METRE.)
);
#743=(
NAMED_UNIT(*)
PLANE_ANGLE_UNIT()
SI_UNIT($,.RADIAN.)
);
#744=DIMENSIONAL_EXPONENTS(0.,0.,0.,0.,0.,0.,0.);
#745=PLANE_ANGLE_MEASURE_WITH_UNIT(PLANE_ANGLE_MEASURE(0.01745329252),#743);
#746=(
CONVERSION_BASED_UNIT('DEGREES',#745)
NAMED_UNIT(#744)
PLANE_ANGLE_UNIT()
);
#747=(
NAMED_UNIT(*)
SI_UNIT($,.STERADIAN.)
SOLID_ANGLE_UNIT()
);
#748=UNCERTAINTY_MEASURE_WITH_UNIT(LENGTH_MEASURE(0.001),#742,
'DISTANCE_ACCURACY_VALUE',
'Maximum model space distance between geometric entities at asserted c
onnectivities');
#749=(
GEOMETRIC_REPRESENTATION_CONTEXT(3)
GLOBAL_UNCERTAINTY_ASSIGNED_CONTEXT((#748))
GLOBAL_UNIT_ASSIGNED_CONTEXT((#747,#746,#742))
REPRESENTATION_CONTEXT('ID1','3D')
);
#750=SHAPE_REPRESENTATION('Document',(#751,#805),#749);
#751=AXIS2_PLACEMENT_3D($,#881,#806,#807);
#752=AXIS2_PLACEMENT_3D('',#882,#808,$);
#753=AXIS2_PLACEMENT_3D('',#883,#809,$);
#754=AXIS2_PLACEMENT_3D('',#884,#810,$);
#755=AXIS2_PLACEMENT_3D('',#885,#811,$);
#756=AXIS2_PLACEMENT_3D('',#886,#812,$);
#757=AXIS2_PLACEMENT_3D('',#887,#813,$);
#758=AXIS2_PLACEMENT_3D('',#888,#814,$);
#759=AXIS2_PLACEMENT_3D('',#889,#815,$);
#760=AXIS2_PLACEMENT_3D('',#890,#816,$);
#761=AXIS2_PLACEMENT_3D('',#891,#817,$);
#762=AXIS2_PLACEMENT_3D('',#892,#818,$);
#763=AXIS2_PLACEMENT_3D('',#893,#819,$);
#764=AXIS2_PLACEMENT_3D('',#894,#820,$);
#765=AXIS2_PLACEMENT_3D('',#895,#821,$);
#766=AXIS2_PLACEMENT_3D('',#896,#822,$);
#767=AXIS2_PLACEMENT_3D('',#897,#823,$);
#768=AXIS2_PLACEMENT_3D('',#898,#824,$);
#769=AXIS2_PLACEMENT_3D('',#899,#825,$);
#770=AXIS2_PLACEMENT_3D('',#900,#826,$);
#771=AXIS2_PLACEMENT_3D('',#901,#827,$);
#772=AXIS2_PLACEMENT_3D('',#902,#828,$);
#773=AXIS2_PLACEMENT_3D('',#903,#829,$);
#774=AXIS2_PLACEMENT_3D('',#904,#830,$);
#775=AXIS2_PLACEMENT_3D('',#905,#831,$);
#776=AXIS2_PLACEMENT_3D('',#906,#832,$);
#777=AXIS2_PLACEMENT_3D('',#907,#833,$);
#778=AXIS2_PLACEMENT_3D('',#908,#834,$);
#779=AXIS2_PLACEMENT_3D('',#909,#835,$);
#780=AXIS2_PLACEMENT_3D('',#910,#836,$);
#781=AXIS2_PLACEMENT_3D('',#911,#837,$);
#782=AXIS2_PLACEMENT_3D('',#912,#838,$);
#783=AXIS2_PLACEMENT_3D('',#913,#839,$);
#784=AXIS2_PLACEMENT_3D('',#924,#840,$);
#785=AXIS2_PLACEMENT_3D('',#935,#841,$);
#786=AXIS2_PLACEMENT_3D('',#946,#842,$);
#787=AXIS2_PLACEMENT_3D($,#1151,#843,#844);
#788=AXIS2_PLACEMENT_3D($,#1154,#845,#846);
#789=AXIS2_PLACEMENT_3D($,#1455,#847,#848);
#790=AXIS2_PLACEMENT_3D($,#1458,#849,#850);
#791=AXIS2_PLACEMENT_3D($,#1461,#851,#852);
#792=AXIS2_PLACEMENT_3D($,#1464,#853,#854);
#793=AXIS2_PLACEMENT_3D($,#1471,#855,#856);
#794=AXIS2_PLACEMENT_3D($,#1474,#857,#858);
#795=AXIS2_PLACEMENT_3D($,#1477,#859,#860);
#796=AXIS2_PLACEMENT_3D($,#1480,#861,#862);
#797=AXIS2_PLACEMENT_3D($,#1487,#863,#864);
#798=AXIS2_PLACEMENT_3D($,#1490,#865,#866);
#799=AXIS2_PLACEMENT_3D($,#1495,#867,#868);
#800=AXIS2_PLACEMENT_3D($,#1498,#869,#870);
#801=AXIS2_PLACEMENT_3D($,#1503,#871,#872);
#802=AXIS2_PLACEMENT_3D($,#1506,#873,#874);
#803=AXIS2_PLACEMENT_3D($,#1511,#875,#876);
#804=AXIS2_PLACEMENT_3D($,#1514,#877,#878);
#805=AXIS2_PLACEMENT_3D($,#1517,#879,#880);
#806=DIRECTION('',(0.,0.,1.));
#807=DIRECTION('',(1.,0.,0.));
#808=DIRECTION('',(1.,0.,0.));
#809=DIRECTION('',(1.,0.,0.));
#810=DIRECTION('',(0.,0.,-1.));
#811=DIRECTION('',(-1.,0.,0.));
#812=DIRECTION('',(0.,1.,0.));
#813=DIRECTION('',(-1.,0.,0.));
#814=DIRECTION('',(0.,-1.,0.));
#815=DIRECTION('',(0.,0.,1.));
#816=DIRECTION('',(1.,0.,0.));
#817=DIRECTION('',(-1.,0.,0.));
#818=DIRECTION('',(0.,0.,1.));
#819=DIRECTION('',(0.,1.,0.));
#820=DIRECTION('',(0.,-1.,0.));
#821=DIRECTION('',(0.,0.,1.));
#822=DIRECTION('',(-4.83493317728556E-15,-1.,-3.94675475758544E-15));
#823=DIRECTION('',(-2.6306588749592E-13,1.,2.6750677959442E-13));
#824=DIRECTION('',(-1.,1.00485917355766E-14,-2.42594464507787E-14));
#825=DIRECTION('',(9.86356097857683E-14,-9.86356097857679E-14,1.));
#826=DIRECTION('',(2.88065610905204E-13,2.95171038262806E-13,-1.));
#827=DIRECTION('',(-1.,2.93490291821523E-13,-2.89937578142722E-13));
#828=DIRECTION('',(-1.,-1.71540190931774E-14,1.71540190931775E-14));
#829=DIRECTION('',(1.11911061540249E-13,1.,-1.14575596799346E-13));
#830=DIRECTION('',(1.40716562873721E-13,-1.,1.40716562873722E-13));
#831=DIRECTION('',(1.,1.71540190931774E-14,1.71540190931775E-14));
#832=DIRECTION('',(-1.,-1.07591344713366E-13,1.00485917355766E-13));
#833=DIRECTION('',(-1.02924114559064E-13,-1.02924114559063E-13,-1.));
#834=DIRECTION('',(2.95906829357311E-13,-2.95906829357309E-13,1.));
#835=DIRECTION('',(1.,-1.3529892271679E-13,-1.3529892271679E-13));
#836=DIRECTION('',(1.,-1.7154019093177E-14,-1.7154019093177E-14));
#837=DIRECTION('',(-4.91186183867399E-13,1.,-4.82304399670387E-13));
#838=DIRECTION('',(2.93914964295864E-13,-1.,-2.85033180098864E-13));
#839=DIRECTION('',(0.,-1.,0.));
#840=DIRECTION('',(0.,-1.,0.));
#841=DIRECTION('',(0.,-1.,0.));
#842=DIRECTION('',(0.,-1.,0.));
#843=DIRECTION('',(4.28850477329442E-15,1.,4.28850477329436E-15));
#844=DIRECTION('',(4.26325641456042E-14,-5.32907051820052E-15,1.));
#845=DIRECTION('',(-2.32835331724836E-13,1.,2.34611688564229E-13));
#846=DIRECTION('',(-1.,-2.32702745961431E-13,-1.42108547152019E-14));
#847=DIRECTION('',(0.,-1.,0.));
#848=DIRECTION('',(0.,0.,-1.));
#849=DIRECTION('',(-1.42950159109809E-15,-1.,1.42950159109809E-15));
#850=DIRECTION('',(-8.9312492829745E-16,-1.1842378929335E-15,-1.));
#851=DIRECTION('',(-1.42950159109809E-15,-1.,-1.42950159109809E-15));
#852=DIRECTION('',(1.,-1.1842378929335E-15,-2.36847578586701E-15));
#853=DIRECTION('',(0.,-1.,0.));
#854=DIRECTION('',(1.,0.,0.));
#855=DIRECTION('',(0.,-1.,0.));
#856=DIRECTION('',(0.,0.,-1.));
#857=DIRECTION('',(-1.42950159109809E-15,-1.,1.42950159109809E-15));
#858=DIRECTION('',(-1.31493102544789E-15,-1.77635683940025E-15,-1.));
#859=DIRECTION('',(-1.42950159109809E-15,-1.,-1.42950159109809E-15));
#860=DIRECTION('',(1.,-1.1842378929335E-15,2.368475785867E-15));
#861=DIRECTION('',(0.,-1.,0.));
#862=DIRECTION('',(1.,0.,-2.368475785867E-15));
#863=DIRECTION('',(0.,-1.,0.));
#864=DIRECTION('',(-1.,0.,0.));
#865=DIRECTION('',(0.,-1.,0.));
#866=DIRECTION('',(-1.,0.,0.));
#867=DIRECTION('',(0.,-1.,0.));
#868=DIRECTION('',(2.11631997237288E-16,0.,1.));
#869=DIRECTION('',(0.,-1.,0.));
#870=DIRECTION('',(2.38557135229615E-15,0.,1.));
#871=DIRECTION('',(0.,-1.,0.));
#872=DIRECTION('',(-1.,0.,0.));
#873=DIRECTION('',(0.,-1.,0.));
#874=DIRECTION('',(-1.,0.,0.));
#875=DIRECTION('',(0.,-1.,0.));
#876=DIRECTION('',(-3.0275216902068E-16,0.,1.));
#877=DIRECTION('',(0.,-1.,0.));
#878=DIRECTION('',(3.29084343108896E-15,0.,1.));
#879=DIRECTION('',(0.,0.,1.));
#880=DIRECTION('',(1.,0.,0.));
#881=CARTESIAN_POINT('',(0.,0.,0.));
#882=CARTESIAN_POINT('',(-26.,-5.6,-43.25));
#883=CARTESIAN_POINT('',(27.5,-5.6,-43.25));
#884=CARTESIAN_POINT('',(-27.5,-5.6,-43.25));
#885=CARTESIAN_POINT('',(26.,-5.6,-43.25));
#886=CARTESIAN_POINT('',(27.5,5.6,-43.25));
#887=CARTESIAN_POINT('',(-27.5,-5.6,-43.25));
#888=CARTESIAN_POINT('',(27.5,3.6,-43.25));
#889=CARTESIAN_POINT('',(-27.5,-5.6,-41.75));
#890=CARTESIAN_POINT('',(-23.,-5.6,-29.75));
#891=CARTESIAN_POINT('',(23.,-5.6,43.25));
#892=CARTESIAN_POINT('',(23.,-5.6,-29.75));
#893=CARTESIAN_POINT('',(27.5,-4.1,-43.25));
#894=CARTESIAN_POINT('',(27.5,-5.6,-43.25));
#895=CARTESIAN_POINT('',(-27.5,-5.60000000000002,43.25));
#896=CARTESIAN_POINT('',(27.,1.12992507856442E-14,42.75));
#897=CARTESIAN_POINT('',(-27.,1.42191084784367E-13,42.75));
#898=CARTESIAN_POINT('',(-25.25,-5.09999999999999,42.75));
#899=CARTESIAN_POINT('',(-23.5,-5.10000000000001,6.50000000000004));
#900=CARTESIAN_POINT('',(23.5,-5.1,6.50000000000014));
#901=CARTESIAN_POINT('',(1.4852150275016E-13,-5.1,-30.25));
#902=CARTESIAN_POINT('',(25.25,-5.09999999999999,42.75));
#903=CARTESIAN_POINT('',(26.5,-0.250000000000063,42.75));
#904=CARTESIAN_POINT('',(-26.5,-0.250000000000073,42.75));
#905=CARTESIAN_POINT('',(-24.75,-4.6,42.75));
#906=CARTESIAN_POINT('',(-5.37956723566846E-14,4.1,42.75));
#907=CARTESIAN_POINT('',(-23.5,-4.6,6.50000000000005));
#908=CARTESIAN_POINT('',(23.5,-4.6,6.49999999999985));
#909=CARTESIAN_POINT('',(-4.98858929643931E-14,-4.6,-30.25));
#910=CARTESIAN_POINT('',(24.75,-4.6,42.75));
#911=CARTESIAN_POINT('',(-23.5,-4.85000000000025,42.75));
#912=CARTESIAN_POINT('',(23.5,-4.84999999999986,42.75));
#913=CARTESIAN_POINT('',(0.,7.3,-18.6941881930989));
#914=CARTESIAN_POINT('',(0.,5.3,-20.1941881930989));
#915=CARTESIAN_POINT('',(1.5,5.3,-20.1941881930989));
#916=CARTESIAN_POINT('',(1.5,5.3,-18.6941881930989));
#917=CARTESIAN_POINT('',(1.5,5.3,-17.1941881930989));
#918=CARTESIAN_POINT('',(1.83697019872103E-16,5.3,-17.1941881930989));
#919=CARTESIAN_POINT('',(0.,3.6,-21.6941881930989));
#920=CARTESIAN_POINT('',(3.,3.6,-21.6941881930989));
#921=CARTESIAN_POINT('',(3.,3.6,-18.6941881930989));
#922=CARTESIAN_POINT('',(3.,3.6,-15.6941881930989));
#923=CARTESIAN_POINT('',(3.67394039744206E-16,3.6,-15.6941881930989));
#924=CARTESIAN_POINT('',(0.,7.3,28.3408686388968));
#925=CARTESIAN_POINT('',(0.,5.3,26.8408686388968));
#926=CARTESIAN_POINT('',(1.5,5.3,26.8408686388968));
#927=CARTESIAN_POINT('',(1.5,5.3,28.3408686388968));
#928=CARTESIAN_POINT('',(1.5,5.3,29.8408686388968));
#929=CARTESIAN_POINT('',(1.83697019872103E-16,5.3,29.8408686388968));
#930=CARTESIAN_POINT('',(0.,3.6,25.3408686388968));
#931=CARTESIAN_POINT('',(3.,3.6,25.3408686388968));
#932=CARTESIAN_POINT('',(3.,3.6,28.3408686388968));
#933=CARTESIAN_POINT('',(3.,3.6,31.3408686388968));
#934=CARTESIAN_POINT('',(3.67394039744206E-16,3.6,31.3408686388968));
#935=CARTESIAN_POINT('',(1.99844421700786E-16,7.3,-18.6941881930989));
#936=CARTESIAN_POINT('',(0.,5.3,-17.1941881930989));
#937=CARTESIAN_POINT('',(-1.5,5.3,-17.1941881930989));
#938=CARTESIAN_POINT('',(-1.5,5.3,-18.6941881930989));
#939=CARTESIAN_POINT('',(-1.5,5.3,-20.1941881930989));
#940=CARTESIAN_POINT('',(-1.83697019872103E-16,5.3,-20.1941881930989));
#941=CARTESIAN_POINT('',(0.,3.6,-15.6941881930989));
#942=CARTESIAN_POINT('',(-3.,3.6,-15.6941881930989));
#943=CARTESIAN_POINT('',(-3.,3.6,-18.6941881930989));
#944=CARTESIAN_POINT('',(-3.,3.6,-21.6941881930989));
#945=CARTESIAN_POINT('',(-3.67394039744206E-16,3.6,-21.6941881930989));
#946=CARTESIAN_POINT('',(3.0063074636896E-15,7.3,28.3408686388968));
#947=CARTESIAN_POINT('',(0.,5.3,29.8408686388968));
#948=CARTESIAN_POINT('',(-1.5,5.3,29.8408686388968));
#949=CARTESIAN_POINT('',(-1.5,5.3,28.3408686388968));
#950=CARTESIAN_POINT('',(-1.5,5.3,26.8408686388968));
#951=CARTESIAN_POINT('',(-1.83697019872103E-16,5.3,26.8408686388968));
#952=CARTESIAN_POINT('',(0.,3.6,31.3408686388968));
#953=CARTESIAN_POINT('',(-3.,3.6,31.3408686388968));
#954=CARTESIAN_POINT('',(-3.,3.6,28.3408686388968));
#955=CARTESIAN_POINT('',(-3.,3.6,25.3408686388968));
#956=CARTESIAN_POINT('',(-3.67394039744206E-16,3.6,25.3408686388968));
#957=CARTESIAN_POINT('',(-27.5,-5.6,-43.25));
#958=CARTESIAN_POINT('',(-27.5,5.6,-43.25));
#959=CARTESIAN_POINT('',(27.5,5.6,-43.25));
#960=CARTESIAN_POINT('',(27.5,-5.6,-43.25));
#961=CARTESIAN_POINT('',(26.,-4.1,-41.75));
#962=CARTESIAN_POINT('',(26.,3.6,-41.75));
#963=CARTESIAN_POINT('',(-26.,-4.1,-41.75));
#964=CARTESIAN_POINT('',(-26.,3.6,-41.75));
#965=CARTESIAN_POINT('',(-27.5,5.60000000000001,42.75));
#966=CARTESIAN_POINT('',(27.5,5.6,42.75));
#967=CARTESIAN_POINT('',(27.,5.6,43.25));
#968=CARTESIAN_POINT('',(-27.,5.60000000000001,43.25));
#969=CARTESIAN_POINT('',(27.5,-5.6,42.75));
#970=CARTESIAN_POINT('',(-27.5,-5.6,42.75));
#971=CARTESIAN_POINT('',(-23.,-5.1,-29.75));
#972=CARTESIAN_POINT('',(23.,-5.1,-29.75));
#973=CARTESIAN_POINT('',(23.5,-5.6,42.75));
#974=CARTESIAN_POINT('',(-23.5,-5.6,42.75));
#975=CARTESIAN_POINT('',(23.5,-5.6,-30.25));
#976=CARTESIAN_POINT('',(-23.5,-5.6,-30.25));
#977=CARTESIAN_POINT('',(27.,-5.1,43.25));
#978=CARTESIAN_POINT('',(-27.,-5.1,43.25));
#979=CARTESIAN_POINT('',(-26.,-4.1,42.75));
#980=CARTESIAN_POINT('',(-26.,3.6,42.75));
#981=CARTESIAN_POINT('',(26.,-4.1,42.75));
#982=CARTESIAN_POINT('',(26.,3.6,42.75));
#983=CARTESIAN_POINT('',(-23.,-4.6,-29.75));
#984=CARTESIAN_POINT('',(23.,-4.6,-29.75));
#985=CARTESIAN_POINT('',(23.5,-4.1,42.75));
#986=CARTESIAN_POINT('',(-23.5,-4.1,-30.25));
#987=CARTESIAN_POINT('',(23.5,-4.1,-30.25));
#988=CARTESIAN_POINT('',(-23.5,-4.1,42.75));
#989=CARTESIAN_POINT('',(-26.5,-4.6,43.25));
#990=CARTESIAN_POINT('',(26.5,-4.6,43.25));
#991=CARTESIAN_POINT('',(26.5,4.1,43.25));
#992=CARTESIAN_POINT('',(-26.5,4.1,43.25));
#993=CARTESIAN_POINT('',(-23.,-5.1,42.75));
#994=CARTESIAN_POINT('',(-23.,-4.6,42.75));
#995=CARTESIAN_POINT('',(-23.5,-5.1,43.25));
#996=CARTESIAN_POINT('',(-23.1464466094067,-5.45355627624415,43.1035533905933));
#997=CARTESIAN_POINT('',(-23.5,-4.6,43.25));
#998=CARTESIAN_POINT('',(-23.1464466094067,-4.24644372375583,43.1035533905933));
#999=CARTESIAN_POINT('',(23.,-4.6,42.75));
#1000=CARTESIAN_POINT('',(23.,-5.1,42.75));
#1001=CARTESIAN_POINT('',(23.5,-5.1,43.25));
#1002=CARTESIAN_POINT('',(23.1464466094067,-5.45355627624416,43.1035533905933));
#1003=CARTESIAN_POINT('',(23.5,-4.6,43.25));
#1004=CARTESIAN_POINT('',(23.1464466094067,-4.24644372375584,43.1035533905933));
#1005=CARTESIAN_POINT('',(1.5,5.3,-18.6941881930989));
#1006=CARTESIAN_POINT('',(-2.22044604925031E-16,5.3,-20.1941881930989));
#1007=CARTESIAN_POINT('',(1.5,5.6,-18.6941881930989));
#1008=CARTESIAN_POINT('',(0.,3.6,-21.6941881930989));
#1009=CARTESIAN_POINT('',(1.5,5.3,28.3408686388968));
#1010=CARTESIAN_POINT('',(-2.22044604925031E-16,5.3,26.8408686388968));
#1011=CARTESIAN_POINT('',(1.5,5.6,28.3408686388968));
#1012=CARTESIAN_POINT('',(0.,3.6,25.3408686388968));
#1013=CARTESIAN_POINT('',(-1.5,5.6,-18.6941881930989));
#1014=CARTESIAN_POINT('',(-1.5,5.3,-18.6941881930989));
#1015=CARTESIAN_POINT('',(8.49830834647197E-16,5.3,-17.1941881930989));
#1016=CARTESIAN_POINT('',(0.,3.6,-15.6941881930989));
#1017=CARTESIAN_POINT('',(-1.5,5.6,28.3408686388968));
#1018=CARTESIAN_POINT('',(-1.5,5.3,28.3408686388968));
#1019=CARTESIAN_POINT('',(8.49830834647197E-16,5.3,29.8408686388968));
#1020=CARTESIAN_POINT('',(0.,3.6,31.3408686388968));
#1021=CARTESIAN_POINT('',(-27.5,5.6,-43.25));
#1022=CARTESIAN_POINT('',(-27.5,5.60000000000001,42.75));
#1023=CARTESIAN_POINT('',(-27.5,-5.6,-43.25));
#1024=CARTESIAN_POINT('',(-27.5,-5.6,42.75));
#1025=CARTESIAN_POINT('',(27.5,5.6,42.75));
#1026=CARTESIAN_POINT('',(27.5,5.6,-43.25));
#1027=CARTESIAN_POINT('',(27.5,-5.6,42.75));
#1028=CARTESIAN_POINT('',(27.5,-5.6,-43.25));
#1029=CARTESIAN_POINT('',(26.,-4.1,42.75));
#1030=CARTESIAN_POINT('',(26.,-4.1,-41.75));
#1031=CARTESIAN_POINT('',(26.,3.6,42.75));
#1032=CARTESIAN_POINT('',(26.,3.6,-41.75));
#1033=CARTESIAN_POINT('',(26.,-4.1,-41.75));
#1034=CARTESIAN_POINT('',(26.,3.6,-41.75));
#1035=CARTESIAN_POINT('',(26.,-4.1,42.75));
#1036=CARTESIAN_POINT('',(26.,3.6,42.75));
#1037=CARTESIAN_POINT('',(26.,3.6,-41.75));
#1038=CARTESIAN_POINT('',(-26.,3.6,-41.75));
#1039=CARTESIAN_POINT('',(26.,-4.1,-41.75));
#1040=CARTESIAN_POINT('',(-26.,-4.1,-41.75));
#1041=CARTESIAN_POINT('',(27.5,-5.6,-43.25));
#1042=CARTESIAN_POINT('',(27.5,-4.1,-43.25));
#1043=CARTESIAN_POINT('',(27.5,3.6,-43.25));
#1044=CARTESIAN_POINT('',(27.5,5.6,-43.25));
#1045=CARTESIAN_POINT('',(27.5,-5.6,42.75));
#1046=CARTESIAN_POINT('',(27.5,5.6,42.75));
#1047=CARTESIAN_POINT('',(-26.,-4.1,42.75));
#1048=CARTESIAN_POINT('',(-26.,-4.1,-41.75));
#1049=CARTESIAN_POINT('',(-26.,3.6,42.75));
#1050=CARTESIAN_POINT('',(-26.,3.6,-41.75));
#1051=CARTESIAN_POINT('',(-26.,-4.1,-41.75));
#1052=CARTESIAN_POINT('',(-26.,3.6,-41.75));
#1053=CARTESIAN_POINT('',(23.,-4.6,-29.75));
#1054=CARTESIAN_POINT('',(23.,-4.6,42.75));
#1055=CARTESIAN_POINT('',(-23.,-4.6,-29.75));
#1056=CARTESIAN_POINT('',(23.,-4.6,-29.75));
#1057=CARTESIAN_POINT('',(26.,-4.1,42.75));
#1058=CARTESIAN_POINT('',(23.5,-4.1,42.75));
#1059=CARTESIAN_POINT('',(-27.5,5.6,-43.25));
#1060=CARTESIAN_POINT('',(-27.5,3.6,-43.25));
#1061=CARTESIAN_POINT('',(-27.5,-4.1,-43.25));
#1062=CARTESIAN_POINT('',(-27.5,-5.6,-43.25));
#1063=CARTESIAN_POINT('',(27.5,5.6,-43.25));
#1064=CARTESIAN_POINT('',(26.,5.6,-43.25));
#1065=CARTESIAN_POINT('',(-26.,5.6,-43.25));
#1066=CARTESIAN_POINT('',(-27.5,5.6,-43.25));
#1067=CARTESIAN_POINT('',(-27.5,-5.6,-43.25));
#1068=CARTESIAN_POINT('',(-26.,-5.6,-43.25));
#1069=CARTESIAN_POINT('',(26.,-5.6,-43.25));
#1070=CARTESIAN_POINT('',(27.5,-5.6,-43.25));
#1071=CARTESIAN_POINT('',(27.5,-5.6,42.75));
#1072=CARTESIAN_POINT('',(23.5,-5.6,42.75));
#1073=CARTESIAN_POINT('',(-27.,5.60000000000001,43.25));
#1074=CARTESIAN_POINT('',(27.,5.6,43.25));
#1075=CARTESIAN_POINT('',(-23.,-5.1,42.75));
#1076=CARTESIAN_POINT('',(-23.,-5.1,-29.75));
#1077=CARTESIAN_POINT('',(-23.,-5.1,-29.75));
#1078=CARTESIAN_POINT('',(-23.,-4.6,-29.75));
#1079=CARTESIAN_POINT('',(23.,-5.1,-29.75));
#1080=CARTESIAN_POINT('',(23.,-4.6,-29.75));
#1081=CARTESIAN_POINT('',(-23.5,-4.1,-30.25));
#1082=CARTESIAN_POINT('',(23.5,-4.1,-30.25));
#1083=CARTESIAN_POINT('',(-26.,-4.1,42.75));
#1084=CARTESIAN_POINT('',(-26.,3.6,42.75));
#1085=CARTESIAN_POINT('',(26.,3.6,42.75));
#1086=CARTESIAN_POINT('',(-26.,3.6,42.75));
#1087=CARTESIAN_POINT('',(-23.,-5.1,-29.75));
#1088=CARTESIAN_POINT('',(23.,-5.1,-29.75));
#1089=CARTESIAN_POINT('',(23.,-5.1,-29.75));
#1090=CARTESIAN_POINT('',(23.,-5.1,42.75));
#1091=CARTESIAN_POINT('',(-27.5,-5.6,42.75));
#1092=CARTESIAN_POINT('',(-27.5,5.60000000000001,42.75));
#1093=CARTESIAN_POINT('',(-23.5,-5.1,43.25));
#1094=CARTESIAN_POINT('',(-23.4930096610694,-5.106990363888,43.2500001479115));
#1095=CARTESIAN_POINT('',(-23.478918235351,-5.12108183709821,43.2497045169751));
#1096=CARTESIAN_POINT('',(-23.457646448477,-5.14235368016297,43.2483575130725));
#1097=CARTESIAN_POINT('',(-23.4361173160767,-5.16388287468018,43.2460623353478));
#1098=CARTESIAN_POINT('',(-23.4143885822688,-5.18561167186318,43.2427821213544));
#1099=CARTESIAN_POINT('',(-23.3925224962117,-5.20747782299448,43.2384840304767));
#1100=CARTESIAN_POINT('',(-23.3705858758613,-5.22941450945933,43.2331401227814));
#1101=CARTESIAN_POINT('',(-23.3486495667428,-5.2513508855351,43.2267279517243));
#1102=CARTESIAN_POINT('',(-23.3267879348376,-5.27321258491204,43.2192311880751));
#1103=CARTESIAN_POINT('',(-23.3050782221916,-5.29492236548978,43.2106401654296));
#1104=CARTESIAN_POINT('',(-23.2835998194832,-5.31640083564196,43.2009523541529));
#1105=CARTESIAN_POINT('',(-23.2624334541719,-5.3375672702709,43.1901727392042));
#1106=CARTESIAN_POINT('',(-23.2416603087444,-5.3583404769594,43.1783140899959));
#1107=CARTESIAN_POINT('',(-23.2213610973744,-5.37863977711699,43.1653971013907));
#1108=CARTESIAN_POINT('',(-23.2016150780034,-5.39838578040315,43.1514504228884));
#1109=CARTESIAN_POINT('',(-23.1824991826097,-5.4175020406078,43.1365104709877));
#1110=CARTESIAN_POINT('',(-23.1640862453759,-5.43591394160804,43.1206209947714));
#1111=CARTESIAN_POINT('',(-23.152234768083,-5.44776815794999,43.1093415432674));
#1112=CARTESIAN_POINT('',(-23.1464466094067,-5.45355627624415,43.1035533905933));
#1113=CARTESIAN_POINT('',(23.1464466094067,-5.45355627624416,43.1035533905933));
#1114=CARTESIAN_POINT('',(23.152234768083,-5.44776815794999,43.1093415432674));
#1115=CARTESIAN_POINT('',(23.1640862453759,-5.435913941608,43.1206209947713));
#1116=CARTESIAN_POINT('',(23.1824991826098,-5.41750204060782,43.1365104709877));
#1117=CARTESIAN_POINT('',(23.2016150780034,-5.39838578040313,43.1514504228883));
#1118=CARTESIAN_POINT('',(23.2213610973744,-5.37863977711699,43.1653971013908));
#1119=CARTESIAN_POINT('',(23.2416603087445,-5.35834047695939,43.1783140899959));
#1120=CARTESIAN_POINT('',(23.2624334541719,-5.33756727027088,43.1901727392043));
#1121=CARTESIAN_POINT('',(23.2835998194832,-5.31640083564195,43.2009523541528));
#1122=CARTESIAN_POINT('',(23.3050782221916,-5.29492236548975,43.2106401654296));
#1123=CARTESIAN_POINT('',(23.3267879348376,-5.27321258491202,43.2192311880751));
#1124=CARTESIAN_POINT('',(23.3486495667428,-5.2513508855351,43.2267279517243));
#1125=CARTESIAN_POINT('',(23.3705858758614,-5.22941450945934,43.2331401227813));
#1126=CARTESIAN_POINT('',(23.3925224962117,-5.20747782299448,43.2384840304767));
#1127=CARTESIAN_POINT('',(23.4143885822688,-5.18561167186321,43.2427821213544));
#1128=CARTESIAN_POINT('',(23.4361173160768,-5.16388287468032,43.2460623353478));
#1129=CARTESIAN_POINT('',(23.4576464484771,-5.14235368016314,43.2483575130725));
#1130=CARTESIAN_POINT('',(23.4789182353509,-5.12108183709821,43.249704516975));
#1131=CARTESIAN_POINT('',(23.4930096610694,-5.10699036388799,43.2500001479115));
#1132=CARTESIAN_POINT('',(23.5,-5.1,43.25));
#1133=CARTESIAN_POINT('',(-23.,-4.6,42.75));
#1134=CARTESIAN_POINT('',(-23.,-4.6,-29.75));
#1135=CARTESIAN_POINT('',(-23.5,-5.6,42.75));
#1136=CARTESIAN_POINT('',(-27.5,-5.6,42.75));
#1137=CARTESIAN_POINT('',(23.5,-5.6,-30.25));
#1138=CARTESIAN_POINT('',(23.5,-5.6,42.75));
#1139=CARTESIAN_POINT('',(-23.5,-5.6,42.75));
#1140=CARTESIAN_POINT('',(-23.5,-5.6,-30.25));
#1141=CARTESIAN_POINT('',(-23.5,-5.6,-30.25));
#1142=CARTESIAN_POINT('',(23.5,-5.6,-30.25));
#1143=CARTESIAN_POINT('',(27.,-5.1,43.25));
#1144=CARTESIAN_POINT('',(23.5,-5.1,43.25));
#1145=CARTESIAN_POINT('',(-23.5,-5.1,43.25));
#1146=CARTESIAN_POINT('',(-27.,-5.1,43.25));
#1147=CARTESIAN_POINT('',(-27.,-5.1,43.25));
#1148=CARTESIAN_POINT('',(-27.,5.60000000000001,43.25));
#1149=CARTESIAN_POINT('',(27.,-5.1,43.25));
#1150=CARTESIAN_POINT('',(27.,5.6,43.25));
#1151=CARTESIAN_POINT('',(27.,5.60000000000001,42.75));
#1152=CARTESIAN_POINT('',(27.,5.6,43.25));
#1153=CARTESIAN_POINT('',(27.5,5.60000000000001,42.75));
#1154=CARTESIAN_POINT('',(-27.,5.60000000000012,42.75));
#1155=CARTESIAN_POINT('',(-27.5,5.60000000000001,42.75));
#1156=CARTESIAN_POINT('',(-27.,5.60000000000001,43.25));
#1157=CARTESIAN_POINT('',(-27.5,-5.6,42.75));
#1158=CARTESIAN_POINT('',(-27.5,-5.6,42.777069520016));
#1159=CARTESIAN_POINT('',(-27.4953521886515,-5.59535218865152,42.8336395516251));
#1160=CARTESIAN_POINT('',(-27.47386730178,-5.57386730178004,42.9174310052598));
#1161=CARTESIAN_POINT('',(-27.4367545070106,-5.53675450701064,42.9989645988853));
#1162=CARTESIAN_POINT('',(-27.3846323020264,-5.48463230202635,43.0738265270435));
#1163=CARTESIAN_POINT('',(-27.3195568716438,-5.41955687164381,43.1381672224049));
#1164=CARTESIAN_POINT('',(-27.2447613338529,-5.34476133385294,43.1890698866922));
#1165=CARTESIAN_POINT('',(-27.1641938966212,-5.26419389662116,43.2249362540442));
#1166=CARTESIAN_POINT('',(-27.0819555967538,-5.1819555967539,43.2455485624647));
#1167=CARTESIAN_POINT('',(-27.0269370357834,-5.12693703578344,43.2500298461596));
#1168=CARTESIAN_POINT('',(-27.,-5.1,43.25));
#1169=CARTESIAN_POINT('',(-23.1464466094067,-5.45355627624415,43.1035533905933));
#1170=CARTESIAN_POINT('',(-23.1574503915073,-5.46455967138938,43.0925496084927));
#1171=CARTESIAN_POINT('',(-23.192252860283,-5.49620442405284,43.057747139717));
#1172=CARTESIAN_POINT('',(-23.255238666147,-5.53906988669221,42.9947613338529));
#1173=CARTESIAN_POINT('',(-23.3358061033788,-5.57493625404416,42.9141938966212));
#1174=CARTESIAN_POINT('',(-23.4180444032461,-5.59554856246476,42.8319555967538));
#1175=CARTESIAN_POINT('',(-23.4730629642166,-5.60002984615961,42.7769370357834));
#1176=CARTESIAN_POINT('',(-23.5,-5.6,42.75));
#1177=CARTESIAN_POINT('',(-23.,-5.1,-29.75));
#1178=CARTESIAN_POINT('',(-23.,-5.12706952001603,-29.75));
#1179=CARTESIAN_POINT('',(-23.0046478113485,-5.1836395516251,-29.7546478113485));
#1180=CARTESIAN_POINT('',(-23.0261326982199,-5.26743100525974,-29.77613269822));
#1181=CARTESIAN_POINT('',(-23.0632454929893,-5.34896459888531,-29.8132454929893));
#1182=CARTESIAN_POINT('',(-23.1153676979736,-5.42382652704354,-29.8653676979736));
#1183=CARTESIAN_POINT('',(-23.1804431283562,-5.48816722240485,-29.9304431283562));
#1184=CARTESIAN_POINT('',(-23.255238666147,-5.53906988669221,-30.005238666147));
#1185=CARTESIAN_POINT('',(-23.3358061033788,-5.57493625404416,-30.0858061033788));
#1186=CARTESIAN_POINT('',(-23.4180444032462,-5.59554856246476,-30.1680444032462));
#1187=CARTESIAN_POINT('',(-23.4730629642166,-5.60002984615961,-30.2230629642166));
#1188=CARTESIAN_POINT('',(-23.5,-5.6,-30.25));
#1189=CARTESIAN_POINT('',(23.,-5.1,-29.75));
#1190=CARTESIAN_POINT('',(23.,-5.12706952001603,-29.75));
#1191=CARTESIAN_POINT('',(23.0046478113485,-5.1836395516251,-29.7546478113485));
#1192=CARTESIAN_POINT('',(23.02613269822,-5.26743100525973,-29.77613269822));
#1193=CARTESIAN_POINT('',(23.0632454929894,-5.3489645988853,-29.8132454929894));
#1194=CARTESIAN_POINT('',(23.1153676979736,-5.42382652704353,-29.8653676979736));
#1195=CARTESIAN_POINT('',(23.1804431283562,-5.48816722240484,-29.9304431283562));
#1196=CARTESIAN_POINT('',(23.255238666147,-5.53906988669221,-30.005238666147));
#1197=CARTESIAN_POINT('',(23.3358061033788,-5.57493625404415,-30.0858061033788));
#1198=CARTESIAN_POINT('',(23.4180444032462,-5.59554856246476,-30.1680444032462));
#1199=CARTESIAN_POINT('',(23.4730629642166,-5.60002984615961,-30.2230629642166));
#1200=CARTESIAN_POINT('',(23.5,-5.6,-30.25));
#1201=CARTESIAN_POINT('',(27.,-5.1,43.25));
#1202=CARTESIAN_POINT('',(27.0269370357834,-5.12693703578345,43.2500298461596));
#1203=CARTESIAN_POINT('',(27.0819555967538,-5.18195559675394,43.2455485624648));
#1204=CARTESIAN_POINT('',(27.1641938966212,-5.26419389662124,43.2249362540441));
#1205=CARTESIAN_POINT('',(27.244761333853,-5.34476133385297,43.1890698866922));
#1206=CARTESIAN_POINT('',(27.3195568716438,-5.41955687164381,43.1381672224048));
#1207=CARTESIAN_POINT('',(27.3846323020263,-5.48463230202637,43.0738265270435));
#1208=CARTESIAN_POINT('',(27.4367545070107,-5.53675450701065,42.9989645988853));
#1209=CARTESIAN_POINT('',(27.47386730178,-5.57386730178004,42.9174310052597));
#1210=CARTESIAN_POINT('',(27.4953521886515,-5.59535218865152,42.8336395516251));
#1211=CARTESIAN_POINT('',(27.5,-5.6,42.777069520016));
#1212=CARTESIAN_POINT('',(27.5,-5.6,42.75));
#1213=CARTESIAN_POINT('',(23.5,-5.6,42.75));
#1214=CARTESIAN_POINT('',(23.4730629642166,-5.60002984615961,42.7769370357834));
#1215=CARTESIAN_POINT('',(23.4180444032462,-5.59554856246476,42.8319555967538));
#1216=CARTESIAN_POINT('',(23.3358061033788,-5.57493625404416,42.9141938966212));
#1217=CARTESIAN_POINT('',(23.255238666147,-5.53906988669221,42.9947613338529));
#1218=CARTESIAN_POINT('',(23.192252860283,-5.49620442405284,43.057747139717));
#1219=CARTESIAN_POINT('',(23.1574503915073,-5.46455967138938,43.0925496084927));
#1220=CARTESIAN_POINT('',(23.1464466094067,-5.45355627624416,43.1035533905933));
#1221=CARTESIAN_POINT('',(23.5,-4.1,-30.25));
#1222=CARTESIAN_POINT('',(23.5,-4.1,42.75));
#1223=CARTESIAN_POINT('',(-23.5,-4.1,42.75));
#1224=CARTESIAN_POINT('',(-26.,-4.1,42.75));
#1225=CARTESIAN_POINT('',(-23.5,-4.1,42.75));
#1226=CARTESIAN_POINT('',(-23.5,-4.1,-30.25));
#1227=CARTESIAN_POINT('',(-23.5,-4.6,43.25));
#1228=CARTESIAN_POINT('',(-26.5,-4.6,43.25));
#1229=CARTESIAN_POINT('',(26.5,-4.6,43.25));
#1230=CARTESIAN_POINT('',(23.5,-4.6,43.25));
#1231=CARTESIAN_POINT('',(26.5,4.1,43.25));
#1232=CARTESIAN_POINT('',(-26.5,4.1,43.25));
#1233=CARTESIAN_POINT('',(-26.5,-4.6,43.25));
#1234=CARTESIAN_POINT('',(-26.5,4.1,43.25));
#1235=CARTESIAN_POINT('',(26.5,-4.6,43.25));
#1236=CARTESIAN_POINT('',(26.5,4.1,43.25));
#1237=CARTESIAN_POINT('',(26.,3.6,42.75));
#1238=CARTESIAN_POINT('',(26.,3.6,42.777069520016));
#1239=CARTESIAN_POINT('',(26.0046478113485,3.60464781134848,42.8336395516251));
#1240=CARTESIAN_POINT('',(26.02613269822,3.62613269821997,42.9174310052597));
#1241=CARTESIAN_POINT('',(26.0632454929894,3.66324549298934,42.9989645988853));
#1242=CARTESIAN_POINT('',(26.1153676979736,3.71536769797365,43.0738265270435));
#1243=CARTESIAN_POINT('',(26.1804431283562,3.7804431283562,43.1381672224049));
#1244=CARTESIAN_POINT('',(26.2552386661471,3.85523866614704,43.1890698866922));
#1245=CARTESIAN_POINT('',(26.3358061033788,3.93580610337881,43.2249362540442));
#1246=CARTESIAN_POINT('',(26.4180444032462,4.01804440324617,43.2455485624648));
#1247=CARTESIAN_POINT('',(26.4730629642166,4.0730629642166,43.2500298461596));
#1248=CARTESIAN_POINT('',(26.5,4.1,43.25));
#1249=CARTESIAN_POINT('',(-26.5,-4.6,43.25));
#1250=CARTESIAN_POINT('',(-26.4730629642166,-4.57306296421658,43.2500298461596));
#1251=CARTESIAN_POINT('',(-26.4180444032462,-4.51804440324612,43.2455485624647));
#1252=CARTESIAN_POINT('',(-26.3358061033788,-4.4358061033788,43.2249362540442));
#1253=CARTESIAN_POINT('',(-26.255238666147,-4.35523866614704,43.1890698866922));
#1254=CARTESIAN_POINT('',(-26.1804431283562,-4.28044312835618,43.1381672224048));
#1255=CARTESIAN_POINT('',(-26.1153676979736,-4.21536769797364,43.0738265270435));
#1256=CARTESIAN_POINT('',(-26.0632454929894,-4.16324549298935,42.9989645988853));
#1257=CARTESIAN_POINT('',(-26.02613269822,-4.12613269821996,42.9174310052597));
#1258=CARTESIAN_POINT('',(-26.0046478113485,-4.10464781134848,42.8336395516251));
#1259=CARTESIAN_POINT('',(-26.,-4.1,42.777069520016));
#1260=CARTESIAN_POINT('',(-26.,-4.1,42.75));
#1261=CARTESIAN_POINT('',(-23.1464466094067,-4.24644372375583,43.1035533905933));
#1262=CARTESIAN_POINT('',(-23.1574503915073,-4.23544032861061,43.0925496084927));
#1263=CARTESIAN_POINT('',(-23.192252860283,-4.20379557594715,43.057747139717));
#1264=CARTESIAN_POINT('',(-23.255238666147,-4.16093011330779,42.9947613338529));
#1265=CARTESIAN_POINT('',(-23.3358061033788,-4.12506374595584,42.9141938966212));
#1266=CARTESIAN_POINT('',(-23.4180444032462,-4.10445143753524,42.8319555967538));
#1267=CARTESIAN_POINT('',(-23.4730629642166,-4.09997015384039,42.7769370357834));
#1268=CARTESIAN_POINT('',(-23.5,-4.1,42.75));
#1269=CARTESIAN_POINT('',(-26.,3.6,42.75));
#1270=CARTESIAN_POINT('',(-26.,3.6,42.777069520016));
#1271=CARTESIAN_POINT('',(-26.0046478113485,3.60464781134848,42.8336395516251));
#1272=CARTESIAN_POINT('',(-26.02613269822,3.62613269821996,42.9174310052597));
#1273=CARTESIAN_POINT('',(-26.0632454929894,3.66324549298935,42.9989645988853));
#1274=CARTESIAN_POINT('',(-26.1153676979736,3.71536769797364,43.0738265270435));
#1275=CARTESIAN_POINT('',(-26.1804431283562,3.78044312835617,43.1381672224048));
#1276=CARTESIAN_POINT('',(-26.255238666147,3.85523866614705,43.1890698866922));
#1277=CARTESIAN_POINT('',(-26.3358061033788,3.93580610337881,43.2249362540442));
#1278=CARTESIAN_POINT('',(-26.4180444032462,4.01804440324618,43.2455485624648));
#1279=CARTESIAN_POINT('',(-26.4730629642166,4.0730629642166,43.2500298461596));
#1280=CARTESIAN_POINT('',(-26.5,4.1,43.25));
#1281=CARTESIAN_POINT('',(23.5,-4.1,42.75));
#1282=CARTESIAN_POINT('',(23.4730629642166,-4.09997015384039,42.7769370357834));
#1283=CARTESIAN_POINT('',(23.4180444032462,-4.10445143753524,42.8319555967538));
#1284=CARTESIAN_POINT('',(23.3358061033788,-4.12506374595584,42.9141938966212));
#1285=CARTESIAN_POINT('',(23.2552386661471,-4.16093011330779,42.994761333853));
#1286=CARTESIAN_POINT('',(23.192252860283,-4.20379557594715,43.057747139717));
#1287=CARTESIAN_POINT('',(23.1574503915073,-4.23544032861062,43.0925496084927));
#1288=CARTESIAN_POINT('',(23.1464466094067,-4.24644372375584,43.1035533905933));
#1289=CARTESIAN_POINT('',(-23.5,-4.1,-30.25));
#1290=CARTESIAN_POINT('',(-23.4730629642166,-4.09997015384039,-30.2230629642166));
#1291=CARTESIAN_POINT('',(-23.4180444032462,-4.10445143753524,-30.1680444032462));
#1292=CARTESIAN_POINT('',(-23.3358061033788,-4.12506374595584,-30.0858061033788));
#1293=CARTESIAN_POINT('',(-23.255238666147,-4.16093011330779,-30.0052386661471));
#1294=CARTESIAN_POINT('',(-23.1804431283562,-4.21183277759516,-29.9304431283562));
#1295=CARTESIAN_POINT('',(-23.1153676979736,-4.27617347295646,-29.8653676979736));
#1296=CARTESIAN_POINT('',(-23.0632454929893,-4.3510354011147,-29.8132454929894));
#1297=CARTESIAN_POINT('',(-23.0261326982199,-4.43256899474026,-29.77613269822));
#1298=CARTESIAN_POINT('',(-23.0046478113485,-4.5163604483749,-29.7546478113485));
#1299=CARTESIAN_POINT('',(-23.,-4.57293047998397,-29.75));
#1300=CARTESIAN_POINT('',(-23.,-4.6,-29.75));
#1301=CARTESIAN_POINT('',(23.5,-4.1,-30.25));
#1302=CARTESIAN_POINT('',(23.4730629642166,-4.09997015384039,-30.2230629642166));
#1303=CARTESIAN_POINT('',(23.4180444032462,-4.10445143753524,-30.1680444032462));
#1304=CARTESIAN_POINT('',(23.3358061033788,-4.12506374595584,-30.0858061033788));
#1305=CARTESIAN_POINT('',(23.2552386661471,-4.16093011330778,-30.0052386661471));
#1306=CARTESIAN_POINT('',(23.1804431283562,-4.21183277759515,-29.9304431283562));
#1307=CARTESIAN_POINT('',(23.1153676979737,-4.27617347295647,-29.8653676979737));
#1308=CARTESIAN_POINT('',(23.0632454929893,-4.35103540111469,-29.8132454929893));
#1309=CARTESIAN_POINT('',(23.02613269822,-4.43256899474027,-29.77613269822));
#1310=CARTESIAN_POINT('',(23.0046478113485,-4.5163604483749,-29.7546478113485));
#1311=CARTESIAN_POINT('',(23.,-4.57293047998397,-29.75));
#1312=CARTESIAN_POINT('',(23.,-4.6,-29.75));
#1313=CARTESIAN_POINT('',(26.5,-4.6,43.25));
#1314=CARTESIAN_POINT('',(26.4730629642166,-4.57306296421665,43.2500298461596));
#1315=CARTESIAN_POINT('',(26.4180444032461,-4.51804440324626,43.2455485624648));
#1316=CARTESIAN_POINT('',(26.3358061033788,-4.43580610337882,43.2249362540441));
#1317=CARTESIAN_POINT('',(26.2552386661471,-4.35523866614705,43.1890698866922));
#1318=CARTESIAN_POINT('',(26.1804431283562,-4.2804431283562,43.1381672224048));
#1319=CARTESIAN_POINT('',(26.1153676979736,-4.21536769797363,43.0738265270435));
#1320=CARTESIAN_POINT('',(26.0632454929894,-4.16324549298936,42.9989645988853));
#1321=CARTESIAN_POINT('',(26.02613269822,-4.12613269821995,42.9174310052597));
#1322=CARTESIAN_POINT('',(26.0046478113485,-4.10464781134848,42.8336395516251));
#1323=CARTESIAN_POINT('',(26.,-4.1,42.777069520016));
#1324=CARTESIAN_POINT('',(26.,-4.1,42.75));
#1325=CARTESIAN_POINT('',(-23.,-5.1,42.75));
#1326=CARTESIAN_POINT('',(-22.9999998520885,-5.10699036388789,42.7569903389306));
#1327=CARTESIAN_POINT('',(-23.0002954830249,-5.12108183709799,42.7710817646492));
#1328=CARTESIAN_POINT('',(-23.0016424869275,-5.14235368016288,42.7923535515229));
#1329=CARTESIAN_POINT('',(-23.0039376646522,-5.1638828746802,42.8138826839232));
#1330=CARTESIAN_POINT('',(-23.0072178786455,-5.18561167186308,42.8356114177312));
#1331=CARTESIAN_POINT('',(-23.0115159695233,-5.20747782299447,42.8574775037883));
#1332=CARTESIAN_POINT('',(-23.0168598772186,-5.22941450945934,42.8794141241386));
#1333=CARTESIAN_POINT('',(-23.0232720482757,-5.25135088553504,42.9013504332572));
#1334=CARTESIAN_POINT('',(-23.0307688119249,-5.273212584912,42.9232120651624));
#1335=CARTESIAN_POINT('',(-23.0393598345704,-5.29492236548975,42.9449217778084));
#1336=CARTESIAN_POINT('',(-23.0490476458472,-5.31640083564195,42.9664001805168));
#1337=CARTESIAN_POINT('',(-23.0598272607957,-5.33756727027088,42.9875665458281));
#1338=CARTESIAN_POINT('',(-23.0716859100041,-5.35834047695937,43.0083396912555));
#1339=CARTESIAN_POINT('',(-23.0846028986092,-5.37863977711698,43.0286389026256));
#1340=CARTESIAN_POINT('',(-23.0985495771116,-5.39838578040312,43.0483849219966));
#1341=CARTESIAN_POINT('',(-23.1134895290123,-5.4175020406078,43.0675008173903));
#1342=CARTESIAN_POINT('',(-23.1293790052286,-5.435913941608,43.0859137546241));
#1343=CARTESIAN_POINT('',(-23.1406584567326,-5.44776815794999,43.097765231917));
#1344=CARTESIAN_POINT('',(-23.1464466094067,-5.45355627624415,43.1035533905933));
#1345=CARTESIAN_POINT('',(-23.5,-4.6,43.25));
#1346=CARTESIAN_POINT('',(-23.4930096610695,-4.59300963611185,43.2500001479115));
#1347=CARTESIAN_POINT('',(-23.4789182353511,-4.5789181629015,43.2497045169751));
#1348=CARTESIAN_POINT('',(-23.457646448477,-4.5576463198369,43.2483575130725));
#1349=CARTESIAN_POINT('',(-23.4361173160768,-4.53611712531973,43.2460623353478));
#1350=CARTESIAN_POINT('',(-23.4143885822687,-4.51438832813694,43.2427821213544));
#1351=CARTESIAN_POINT('',(-23.3925224962118,-4.49252217700547,43.2384840304767));
#1352=CARTESIAN_POINT('',(-23.3705858758613,-4.47058549054066,43.2331401227813));
#1353=CARTESIAN_POINT('',(-23.3486495667428,-4.44864911446494,43.2267279517244));
#1354=CARTESIAN_POINT('',(-23.3267879348376,-4.42678741508802,43.2192311880751));
#1355=CARTESIAN_POINT('',(-23.3050782221916,-4.40507763451023,43.2106401654296));
#1356=CARTESIAN_POINT('',(-23.2835998194833,-4.38359916435805,43.2009523541528));
#1357=CARTESIAN_POINT('',(-23.2624334541719,-4.36243272972913,43.1901727392043));
#1358=CARTESIAN_POINT('',(-23.2416603087445,-4.34165952304065,43.1783140899959));
#1359=CARTESIAN_POINT('',(-23.2213610973745,-4.32136022288303,43.1653971013908));
#1360=CARTESIAN_POINT('',(-23.2016150780035,-4.30161421959686,43.1514504228884));
#1361=CARTESIAN_POINT('',(-23.1824991826098,-4.28249795939222,43.1365104709877));
#1362=CARTESIAN_POINT('',(-23.1640862453759,-4.26408605839198,43.1206209947714));
#1363=CARTESIAN_POINT('',(-23.152234768083,-4.25223184205,43.1093415432674));
#1364=CARTESIAN_POINT('',(-23.1464466094067,-4.24644372375583,43.1035533905933));
#1365=CARTESIAN_POINT('',(-23.,-4.6,42.75));
#1366=CARTESIAN_POINT('',(-22.9999998520885,-4.59300963611204,42.7569903389306));
#1367=CARTESIAN_POINT('',(-23.0002954830249,-4.57891816290187,42.7710817646491));
#1368=CARTESIAN_POINT('',(-23.0016424869275,-4.55764631983706,42.7923535515229));
#1369=CARTESIAN_POINT('',(-23.0039376646522,-4.53611712531982,42.8138826839232));
#1370=CARTESIAN_POINT('',(-23.0072178786455,-4.51438832813687,42.8356114177312));
#1371=CARTESIAN_POINT('',(-23.0115159695233,-4.49252217700554,42.8574775037883));
#1372=CARTESIAN_POINT('',(-23.0168598772186,-4.4705854905407,42.8794141241387));
#1373=CARTESIAN_POINT('',(-23.0232720482757,-4.44864911446493,42.9013504332572));
#1374=CARTESIAN_POINT('',(-23.0307688119249,-4.42678741508799,42.9232120651625));
#1375=CARTESIAN_POINT('',(-23.0393598345704,-4.40507763451023,42.9449217778084));
#1376=CARTESIAN_POINT('',(-23.0490476458472,-4.38359916435805,42.9664001805168));
#1377=CARTESIAN_POINT('',(-23.0598272607957,-4.3624327297291,42.9875665458281));
#1378=CARTESIAN_POINT('',(-23.0716859100041,-4.3416595230406,43.0083396912556));
#1379=CARTESIAN_POINT('',(-23.0846028986093,-4.32136022288301,43.0286389026256));
#1380=CARTESIAN_POINT('',(-23.0985495771117,-4.30161421959684,43.0483849219966));
#1381=CARTESIAN_POINT('',(-23.1134895290123,-4.28249795939217,43.0675008173903));
#1382=CARTESIAN_POINT('',(-23.1293790052287,-4.26408605839196,43.0859137546241));
#1383=CARTESIAN_POINT('',(-23.1406584567326,-4.25223184204999,43.097765231917));
#1384=CARTESIAN_POINT('',(-23.1464466094067,-4.24644372375583,43.1035533905933));
#1385=CARTESIAN_POINT('',(-23.,-5.1,42.75));
#1386=CARTESIAN_POINT('',(-23.,-4.6,42.75));
#1387=CARTESIAN_POINT('',(-23.5,-5.1,43.25));
#1388=CARTESIAN_POINT('',(-23.5,-4.6,43.25));
#1389=CARTESIAN_POINT('',(23.1464466094067,-5.45355627624416,43.1035533905933));
#1390=CARTESIAN_POINT('',(23.1406584567326,-5.44776815794999,43.097765231917));
#1391=CARTESIAN_POINT('',(23.1293790052286,-5.43591394160803,43.0859137546241));
#1392=CARTESIAN_POINT('',(23.1134895290123,-5.41750204060779,43.0675008173902));
#1393=CARTESIAN_POINT('',(23.0985495771117,-5.39838578040313,43.0483849219966));
#1394=CARTESIAN_POINT('',(23.0846028986092,-5.37863977711697,43.0286389026256));
#1395=CARTESIAN_POINT('',(23.0716859100041,-5.35834047695938,43.0083396912555));
#1396=CARTESIAN_POINT('',(23.0598272607957,-5.33756727027089,42.9875665458281));
#1397=CARTESIAN_POINT('',(23.0490476458472,-5.31640083564195,42.9664001805167));
#1398=CARTESIAN_POINT('',(23.0393598345704,-5.29492236548974,42.9449217778084));
#1399=CARTESIAN_POINT('',(23.0307688119249,-5.27321258491203,42.9232120651624));
#1400=CARTESIAN_POINT('',(23.0232720482757,-5.25135088553505,42.9013504332572));
#1401=CARTESIAN_POINT('',(23.0168598772187,-5.22941450945931,42.8794141241387));
#1402=CARTESIAN_POINT('',(23.0115159695233,-5.20747782299446,42.8574775037883));
#1403=CARTESIAN_POINT('',(23.0072178786456,-5.18561167186313,42.8356114177312));
#1404=CARTESIAN_POINT('',(23.0039376646522,-5.16388287468019,42.8138826839232));
#1405=CARTESIAN_POINT('',(23.0016424869275,-5.14235368016291,42.7923535515229));
#1406=CARTESIAN_POINT('',(23.000295483025,-5.12108183709807,42.7710817646491));
#1407=CARTESIAN_POINT('',(22.9999998520885,-5.10699036388793,42.7569903389306));
#1408=CARTESIAN_POINT('',(23.,-5.1,42.75));
#1409=CARTESIAN_POINT('',(23.1464466094067,-4.24644372375584,43.1035533905933));
#1410=CARTESIAN_POINT('',(23.152234768083,-4.25223184205,43.1093415432674));
#1411=CARTESIAN_POINT('',(23.1640862453759,-4.26408605839199,43.1206209947714));
#1412=CARTESIAN_POINT('',(23.1824991826098,-4.28249795939218,43.1365104709877));
#1413=CARTESIAN_POINT('',(23.2016150780034,-4.30161421959686,43.1514504228883));
#1414=CARTESIAN_POINT('',(23.2213610973744,-4.32136022288302,43.1653971013908));
#1415=CARTESIAN_POINT('',(23.2416603087444,-4.34165952304065,43.1783140899959));
#1416=CARTESIAN_POINT('',(23.2624334541719,-4.36243272972912,43.1901727392043));
#1417=CARTESIAN_POINT('',(23.2835998194832,-4.38359916435806,43.2009523541528));
#1418=CARTESIAN_POINT('',(23.3050782221916,-4.40507763451022,43.2106401654296));
#1419=CARTESIAN_POINT('',(23.3267879348376,-4.426787415088,43.2192311880751));
#1420=CARTESIAN_POINT('',(23.3486495667428,-4.44864911446491,43.2267279517243));
#1421=CARTESIAN_POINT('',(23.3705858758613,-4.47058549054071,43.2331401227814));
#1422=CARTESIAN_POINT('',(23.3925224962118,-4.49252217700553,43.2384840304767));
#1423=CARTESIAN_POINT('',(23.4143885822688,-4.51438832813685,43.2427821213544));
#1424=CARTESIAN_POINT('',(23.4361173160768,-4.53611712531979,43.2460623353478));
#1425=CARTESIAN_POINT('',(23.4576464484769,-4.55764631983712,43.2483575130725));
#1426=CARTESIAN_POINT('',(23.4789182353511,-4.57891816290164,43.2497045169751));
#1427=CARTESIAN_POINT('',(23.4930096610695,-4.59300963611191,43.2500001479115));
#1428=CARTESIAN_POINT('',(23.5,-4.6,43.25));
#1429=CARTESIAN_POINT('',(23.1464466094067,-4.24644372375584,43.1035533905933));
#1430=CARTESIAN_POINT('',(23.1406584567326,-4.25223184205001,43.097765231917));
#1431=CARTESIAN_POINT('',(23.1293790052286,-4.26408605839199,43.0859137546241));
#1432=CARTESIAN_POINT('',(23.1134895290123,-4.28249795939221,43.0675008173902));
#1433=CARTESIAN_POINT('',(23.0985495771117,-4.30161421959687,43.0483849219966));
#1434=CARTESIAN_POINT('',(23.0846028986093,-4.32136022288304,43.0286389026256));
#1435=CARTESIAN_POINT('',(23.0716859100041,-4.34165952304063,43.0083396912556));
#1436=CARTESIAN_POINT('',(23.0598272607957,-4.36243272972909,42.9875665458281));
#1437=CARTESIAN_POINT('',(23.0490476458472,-4.38359916435805,42.9664001805168));
#1438=CARTESIAN_POINT('',(23.0393598345704,-4.40507763451024,42.9449217778084));
#1439=CARTESIAN_POINT('',(23.0307688119249,-4.42678741508799,42.9232120651624));
#1440=CARTESIAN_POINT('',(23.0232720482757,-4.44864911446492,42.9013504332572));
#1441=CARTESIAN_POINT('',(23.0168598772187,-4.47058549054067,42.8794141241386));
#1442=CARTESIAN_POINT('',(23.0115159695233,-4.49252217700551,42.8574775037882));
#1443=CARTESIAN_POINT('',(23.0072178786456,-4.51438832813688,42.8356114177312));
#1444=CARTESIAN_POINT('',(23.0039376646522,-4.53611712531981,42.8138826839232));
#1445=CARTESIAN_POINT('',(23.0016424869275,-4.55764631983711,42.792353551523));
#1446=CARTESIAN_POINT('',(23.0002954830249,-4.57891816290179,42.771081764649));
#1447=CARTESIAN_POINT('',(22.9999998520885,-4.59300963611199,42.7569903389306));
#1448=CARTESIAN_POINT('',(23.,-4.6,42.75));
#1449=CARTESIAN_POINT('',(23.,-4.6,42.75));
#1450=CARTESIAN_POINT('',(23.,-5.1,42.75));
#1451=CARTESIAN_POINT('',(23.5,-4.6,43.25));
#1452=CARTESIAN_POINT('',(23.5,-5.1,43.25));
#1453=CARTESIAN_POINT('',(-2.22044604925031E-16,5.3,-20.1941881930989));
#1454=CARTESIAN_POINT('',(0.,3.6,-21.6941881930989));
#1455=CARTESIAN_POINT('',(0.,3.6,-18.6941881930989));
#1456=CARTESIAN_POINT('',(0.,3.6,-21.6941881930989));
#1457=CARTESIAN_POINT('',(3.67394039744206E-16,3.6,-15.6941881930989));
#1458=CARTESIAN_POINT('',(1.11764278752114E-15,5.3,-18.6941881930989));
#1459=CARTESIAN_POINT('',(-2.22044604925031E-16,5.3,-20.1941881930989));
#1460=CARTESIAN_POINT('',(1.5,5.3,-18.6941881930989));
#1461=CARTESIAN_POINT('',(4.03648661426527E-15,5.3,-18.6941881930989));
#1462=CARTESIAN_POINT('',(1.5,5.3,-18.6941881930989));
#1463=CARTESIAN_POINT('',(6.86643747863352E-16,5.3,-17.1941881930989));
#1464=CARTESIAN_POINT('',(0.,5.6,-18.6941881930989));
#1465=CARTESIAN_POINT('',(1.5,5.6,-18.6941881930989));
#1466=CARTESIAN_POINT('',(-1.5,5.6,-18.6941881930989));
#1467=CARTESIAN_POINT('',(1.5,5.6,-18.6941881930989));
#1468=CARTESIAN_POINT('',(1.5,5.3,-18.6941881930989));
#1469=CARTESIAN_POINT('',(-2.22044604925031E-16,5.3,26.8408686388968));
#1470=CARTESIAN_POINT('',(0.,3.6,25.3408686388968));
#1471=CARTESIAN_POINT('',(0.,3.6,28.3408686388968));
#1472=CARTESIAN_POINT('',(0.,3.6,25.3408686388968));
#1473=CARTESIAN_POINT('',(3.67394039744206E-16,3.6,31.3408686388968));
#1474=CARTESIAN_POINT('',(1.7503519332468E-15,5.3,28.3408686388968));
#1475=CARTESIAN_POINT('',(-2.22044604925031E-16,5.3,26.8408686388968));
#1476=CARTESIAN_POINT('',(1.5,5.3,28.3408686388968));
#1477=CARTESIAN_POINT('',(-1.56756947502869E-15,5.3,28.3408686388968));
#1478=CARTESIAN_POINT('',(1.5,5.3,28.3408686388968));
#1479=CARTESIAN_POINT('',(9.66769689082713E-16,5.3,29.8408686388968));
#1480=CARTESIAN_POINT('',(0.,5.6,28.3408686388968));
#1481=CARTESIAN_POINT('',(1.5,5.6,28.3408686388968));
#1482=CARTESIAN_POINT('',(-1.5,5.6,28.3408686388968));
#1483=CARTESIAN_POINT('',(1.5,5.6,28.3408686388968));
#1484=CARTESIAN_POINT('',(1.5,5.3,28.3408686388968));
#1485=CARTESIAN_POINT('',(-1.5,5.6,-18.6941881930989));
#1486=CARTESIAN_POINT('',(-1.5,5.3,-18.6941881930989));
#1487=CARTESIAN_POINT('',(-4.447466900526E-15,5.3,-18.6941881930989));
#1488=CARTESIAN_POINT('',(-1.5,5.3,-18.6941881930989));
#1489=CARTESIAN_POINT('',(1.23621292963593E-16,5.3,-20.1941881930989));
#1490=CARTESIAN_POINT('',(1.99844421700786E-16,5.6,-18.6941881930989));
#1491=CARTESIAN_POINT('',(-1.5,5.6,-18.6941881930989));
#1492=CARTESIAN_POINT('',(1.5,5.6,-18.6941881930989));
#1493=CARTESIAN_POINT('',(0.,5.3,-17.1941881930989));
#1494=CARTESIAN_POINT('',(0.,3.6,-15.6941881930989));
#1495=CARTESIAN_POINT('',(-6.34895991711863E-16,3.6,-18.6941881930989));
#1496=CARTESIAN_POINT('',(0.,3.6,-15.6941881930989));
#1497=CARTESIAN_POINT('',(-3.04918393617745E-16,3.6,-21.6941881930989));
#1498=CARTESIAN_POINT('',(-2.72852619379702E-15,5.3,-18.6941881930989));
#1499=CARTESIAN_POINT('',(8.49830834647197E-16,5.3,-17.1941881930989));
#1500=CARTESIAN_POINT('',(-1.5,5.3,-18.6941881930989));
#1501=CARTESIAN_POINT('',(-1.5,5.6,28.3408686388968));
#1502=CARTESIAN_POINT('',(-1.5,5.3,28.3408686388968));
#1503=CARTESIAN_POINT('',(3.45101127875004E-15,5.3,28.3408686388968));
#1504=CARTESIAN_POINT('',(-1.5,5.3,28.3408686388968));
#1505=CARTESIAN_POINT('',(2.84936949385133E-17,5.3,26.8408686388968));
#1506=CARTESIAN_POINT('',(3.0063074636896E-15,5.6,28.3408686388968));
#1507=CARTESIAN_POINT('',(-1.5,5.6,28.3408686388968));
#1508=CARTESIAN_POINT('',(1.50000000000001,5.6,28.3408686388968));
#1509=CARTESIAN_POINT('',(0.,5.3,29.8408686388968));
#1510=CARTESIAN_POINT('',(0.,3.6,31.3408686388968));
#1511=CARTESIAN_POINT('',(9.08256507062042E-16,3.6,28.3408686388968));
#1512=CARTESIAN_POINT('',(0.,3.6,31.3408686388968));
#1513=CARTESIAN_POINT('',(1.16851344829687E-16,3.6,25.3408686388968));
#1514=CARTESIAN_POINT('',(-4.08643431198623E-15,5.3,28.3408686388968));
#1515=CARTESIAN_POINT('',(8.49830834647197E-16,5.3,29.8408686388968));
#1516=CARTESIAN_POINT('',(-1.5,5.3,28.3408686388968));
#1517=CARTESIAN_POINT('',(0.,0.,0.));
ENDSEC;
END-ISO-10303-21;
