ISO-10303-21;
HEADER;
/* Generated by software containing ST-Developer
 * from STEP Tools, Inc. (www.steptools.com) 
 */
/* OPTION: using custom schema-name function */

FILE_DESCRIPTION(
/* description */ (''),
/* implementation_level */ '2;1');

FILE_NAME(
/* name */ 'Vattenkar_x1_big_cut',
/* time_stamp */ '2026-07-26T17:07:06+03:00',
/* author */ (''),
/* organization */ (''),
/* preprocessor_version */ 'ST-DEVELOPER v19.2',
/* originating_system */ 'Rhino 8.33',
/* authorisation */ '');

FILE_SCHEMA (('CONFIG_CONTROL_DESIGN'));
ENDSEC;

DATA;
#10=SHAPE_REPRESENTATION_RELATIONSHIP('','',#742,#13);
#11=SHAPE_REPRESENTATION_RELATIONSHIP('','',#742,#15);
#12=GEOMETRIC_CURVE_SET('curve_set_0',(#437,#438,#439));
#13=GEOMETRICALLY_BOUNDED_WIREFRAME_SHAPE_REPRESENTATION(
'wireframe_rep_0',(#12,#810),#741);
#14=MANIFOLD_SOLID_BREP('brep_1',#16);
#15=ADVANCED_BREP_SHAPE_REPRESENTATION('brep_rep_0',(#14,#811),#741);
#16=CLOSED_SHELL('',(#18,#19,#20,#21,#22,#23,#24,#25,#26,#27,#28,#29,#30,
#31,#32,#33,#34,#35,#36,#37,#38,#39,#40,#41,#42,#43,#44,#45,#46,#47,#48,
#49,#50,#51,#52,#53,#54));
#17=FACE_BOUND('',#96,.T.);
#18=ADVANCED_FACE('',(#55),#637,.T.);
#19=ADVANCED_FACE('',(#56),#638,.T.);
#20=ADVANCED_FACE('',(#57),#639,.T.);
#21=ADVANCED_FACE('',(#58,#17),#620,.T.);
#22=ADVANCED_FACE('',(#59),#640,.F.);
#23=ADVANCED_FACE('',(#60),#641,.F.);
#24=ADVANCED_FACE('',(#61),#642,.F.);
#25=ADVANCED_FACE('',(#62),#643,.F.);
#26=ADVANCED_FACE('',(#63),#621,.T.);
#27=ADVANCED_FACE('',(#64),#622,.T.);
#28=ADVANCED_FACE('',(#65),#623,.T.);
#29=ADVANCED_FACE('',(#66),#624,.T.);
#30=ADVANCED_FACE('',(#67),#625,.T.);
#31=ADVANCED_FACE('',(#68),#644,.T.);
#32=ADVANCED_FACE('',(#69),#645,.T.);
#33=ADVANCED_FACE('',(#70),#646,.T.);
#34=ADVANCED_FACE('',(#71),#647,.T.);
#35=ADVANCED_FACE('',(#72),#648,.F.);
#36=ADVANCED_FACE('',(#73),#649,.F.);
#37=ADVANCED_FACE('',(#74),#650,.F.);
#38=ADVANCED_FACE('',(#75),#651,.F.);
#39=ADVANCED_FACE('',(#76),#652,.T.);
#40=ADVANCED_FACE('',(#77),#626,.T.);
#41=ADVANCED_FACE('',(#78),#627,.T.);
#42=ADVANCED_FACE('',(#79),#628,.T.);
#43=ADVANCED_FACE('',(#80),#629,.T.);
#44=ADVANCED_FACE('',(#81),#630,.T.);
#45=ADVANCED_FACE('',(#82),#631,.T.);
#46=ADVANCED_FACE('',(#83),#632,.T.);
#47=ADVANCED_FACE('',(#84),#633,.T.);
#48=ADVANCED_FACE('',(#85),#634,.T.);
#49=ADVANCED_FACE('',(#86),#635,.T.);
#50=ADVANCED_FACE('',(#87),#636,.T.);
#51=ADVANCED_FACE('',(#88),#653,.T.);
#52=ADVANCED_FACE('',(#89),#654,.T.);
#53=ADVANCED_FACE('',(#90),#655,.T.);
#54=ADVANCED_FACE('',(#91),#619,.T.);
#55=FACE_OUTER_BOUND('',#92,.T.);
#56=FACE_OUTER_BOUND('',#93,.T.);
#57=FACE_OUTER_BOUND('',#94,.T.);
#58=FACE_OUTER_BOUND('',#95,.T.);
#59=FACE_OUTER_BOUND('',#97,.T.);
#60=FACE_OUTER_BOUND('',#98,.T.);
#61=FACE_OUTER_BOUND('',#99,.T.);
#62=FACE_OUTER_BOUND('',#100,.T.);
#63=FACE_OUTER_BOUND('',#101,.T.);
#64=FACE_OUTER_BOUND('',#102,.T.);
#65=FACE_OUTER_BOUND('',#103,.T.);
#66=FACE_OUTER_BOUND('',#104,.T.);
#67=FACE_OUTER_BOUND('',#105,.T.);
#68=FACE_OUTER_BOUND('',#106,.T.);
#69=FACE_OUTER_BOUND('',#107,.T.);
#70=FACE_OUTER_BOUND('',#108,.T.);
#71=FACE_OUTER_BOUND('',#109,.T.);
#72=FACE_OUTER_BOUND('',#110,.T.);
#73=FACE_OUTER_BOUND('',#111,.T.);
#74=FACE_OUTER_BOUND('',#112,.T.);
#75=FACE_OUTER_BOUND('',#113,.T.);
#76=FACE_OUTER_BOUND('',#114,.T.);
#77=FACE_OUTER_BOUND('',#115,.T.);
#78=FACE_OUTER_BOUND('',#116,.T.);
#79=FACE_OUTER_BOUND('',#117,.T.);
#80=FACE_OUTER_BOUND('',#118,.T.);
#81=FACE_OUTER_BOUND('',#119,.T.);
#82=FACE_OUTER_BOUND('',#120,.T.);
#83=FACE_OUTER_BOUND('',#121,.T.);
#84=FACE_OUTER_BOUND('',#122,.T.);
#85=FACE_OUTER_BOUND('',#123,.T.);
#86=FACE_OUTER_BOUND('',#124,.T.);
#87=FACE_OUTER_BOUND('',#125,.T.);
#88=FACE_OUTER_BOUND('',#126,.T.);
#89=FACE_OUTER_BOUND('',#127,.T.);
#90=FACE_OUTER_BOUND('',#128,.T.);
#91=FACE_OUTER_BOUND('',#129,.T.);
#92=EDGE_LOOP('',(#130,#131,#132,#133));
#93=EDGE_LOOP('',(#134,#135,#136,#137));
#94=EDGE_LOOP('',(#138,#139,#140,#141));
#95=EDGE_LOOP('',(#142,#143,#144,#145,#146,#147,#148,#149));
#96=EDGE_LOOP('',(#150,#151,#152,#153,#154,#155,#156,#157));
#97=EDGE_LOOP('',(#158,#159,#160,#161));
#98=EDGE_LOOP('',(#162,#163,#164,#165));
#99=EDGE_LOOP('',(#166,#167,#168,#169));
#100=EDGE_LOOP('',(#170,#171,#172,#173,#174,#175,#176));
#101=EDGE_LOOP('',(#177,#178,#179,#180));
#102=EDGE_LOOP('',(#181,#182,#183,#184,#185,#186,#187,#188,#189,#190));
#103=EDGE_LOOP('',(#191,#192,#193,#194));
#104=EDGE_LOOP('',(#195,#196,#197,#198));
#105=EDGE_LOOP('',(#199,#200,#201,#202,#203,#204,#205,#206,#207,#208,#209));
#106=EDGE_LOOP('',(#210,#211,#212,#213));
#107=EDGE_LOOP('',(#214,#215,#216,#217));
#108=EDGE_LOOP('',(#218,#219,#220,#221));
#109=EDGE_LOOP('',(#222,#223,#224,#225));
#110=EDGE_LOOP('',(#226,#227,#228,#229));
#111=EDGE_LOOP('',(#230,#231,#232,#233));
#112=EDGE_LOOP('',(#234,#235,#236,#237));
#113=EDGE_LOOP('',(#238,#239,#240,#241));
#114=EDGE_LOOP('',(#242,#243,#244,#245,#246));
#115=EDGE_LOOP('',(#247,#248,#249,#250,#251,#252));
#116=EDGE_LOOP('',(#253,#254,#255,#256,#257,#258));
#117=EDGE_LOOP('',(#259,#260,#261,#262,#263,#264));
#118=EDGE_LOOP('',(#265,#266,#267,#268,#269,#270));
#119=EDGE_LOOP('',(#271,#272,#273,#274,#275,#276));
#120=EDGE_LOOP('',(#277,#278,#279,#280,#281,#282));
#121=EDGE_LOOP('',(#283,#284,#285,#286,#287,#288,#289,#290));
#122=EDGE_LOOP('',(#291,#292,#293,#294));
#123=EDGE_LOOP('',(#295,#296,#297,#298,#299));
#124=EDGE_LOOP('',(#300,#301,#302,#303,#304,#305,#306));
#125=EDGE_LOOP('',(#307,#308,#309,#310));
#126=EDGE_LOOP('',(#311,#312,#313,#314));
#127=EDGE_LOOP('',(#315,#316,#317,#318));
#128=EDGE_LOOP('',(#319,#320,#321,#322));
#129=EDGE_LOOP('',(#323,#324,#325));
#130=ORIENTED_EDGE('',*,*,#329,.T.);
#131=ORIENTED_EDGE('',*,*,#330,.T.);
#132=ORIENTED_EDGE('',*,*,#331,.F.);
#133=ORIENTED_EDGE('',*,*,#326,.F.);
#134=ORIENTED_EDGE('',*,*,#334,.T.);
#135=ORIENTED_EDGE('',*,*,#335,.T.);
#136=ORIENTED_EDGE('',*,*,#336,.F.);
#137=ORIENTED_EDGE('',*,*,#332,.F.);
#138=ORIENTED_EDGE('',*,*,#339,.T.);
#139=ORIENTED_EDGE('',*,*,#340,.T.);
#140=ORIENTED_EDGE('',*,*,#341,.F.);
#141=ORIENTED_EDGE('',*,*,#337,.F.);
#142=ORIENTED_EDGE('',*,*,#327,.T.);
#143=ORIENTED_EDGE('',*,*,#331,.T.);
#144=ORIENTED_EDGE('',*,*,#333,.T.);
#145=ORIENTED_EDGE('',*,*,#336,.T.);
#146=ORIENTED_EDGE('',*,*,#338,.T.);
#147=ORIENTED_EDGE('',*,*,#341,.T.);
#148=ORIENTED_EDGE('',*,*,#342,.T.);
#149=ORIENTED_EDGE('',*,*,#344,.T.);
#150=ORIENTED_EDGE('',*,*,#362,.F.);
#151=ORIENTED_EDGE('',*,*,#357,.F.);
#152=ORIENTED_EDGE('',*,*,#361,.F.);
#153=ORIENTED_EDGE('',*,*,#353,.F.);
#154=ORIENTED_EDGE('',*,*,#360,.F.);
#155=ORIENTED_EDGE('',*,*,#349,.F.);
#156=ORIENTED_EDGE('',*,*,#359,.F.);
#157=ORIENTED_EDGE('',*,*,#358,.F.);
#158=ORIENTED_EDGE('',*,*,#345,.T.);
#159=ORIENTED_EDGE('',*,*,#349,.T.);
#160=ORIENTED_EDGE('',*,*,#348,.F.);
#161=ORIENTED_EDGE('',*,*,#347,.F.);
#162=ORIENTED_EDGE('',*,*,#350,.T.);
#163=ORIENTED_EDGE('',*,*,#353,.T.);
#164=ORIENTED_EDGE('',*,*,#352,.F.);
#165=ORIENTED_EDGE('',*,*,#351,.F.);
#166=ORIENTED_EDGE('',*,*,#354,.T.);
#167=ORIENTED_EDGE('',*,*,#357,.T.);
#168=ORIENTED_EDGE('',*,*,#356,.F.);
#169=ORIENTED_EDGE('',*,*,#355,.F.);
#170=ORIENTED_EDGE('',*,*,#412,.F.);
#171=ORIENTED_EDGE('',*,*,#404,.F.);
#172=ORIENTED_EDGE('',*,*,#406,.T.);
#173=ORIENTED_EDGE('',*,*,#358,.T.);
#174=ORIENTED_EDGE('',*,*,#346,.F.);
#175=ORIENTED_EDGE('',*,*,#407,.F.);
#176=ORIENTED_EDGE('',*,*,#403,.F.);
#177=ORIENTED_EDGE('',*,*,#402,.T.);
#178=ORIENTED_EDGE('',*,*,#404,.T.);
#179=ORIENTED_EDGE('',*,*,#408,.F.);
#180=ORIENTED_EDGE('',*,*,#363,.F.);
#181=ORIENTED_EDGE('',*,*,#373,.F.);
#182=ORIENTED_EDGE('',*,*,#372,.F.);
#183=ORIENTED_EDGE('',*,*,#371,.F.);
#184=ORIENTED_EDGE('',*,*,#370,.F.);
#185=ORIENTED_EDGE('',*,*,#369,.F.);
#186=ORIENTED_EDGE('',*,*,#368,.F.);
#187=ORIENTED_EDGE('',*,*,#367,.F.);
#188=ORIENTED_EDGE('',*,*,#366,.F.);
#189=ORIENTED_EDGE('',*,*,#365,.F.);
#190=ORIENTED_EDGE('',*,*,#364,.F.);
#191=ORIENTED_EDGE('',*,*,#413,.F.);
#192=ORIENTED_EDGE('',*,*,#399,.F.);
#193=ORIENTED_EDGE('',*,*,#371,.T.);
#194=ORIENTED_EDGE('',*,*,#400,.T.);
#195=ORIENTED_EDGE('',*,*,#414,.F.);
#196=ORIENTED_EDGE('',*,*,#400,.F.);
#197=ORIENTED_EDGE('',*,*,#372,.T.);
#198=ORIENTED_EDGE('',*,*,#401,.T.);
#199=ORIENTED_EDGE('',*,*,#382,.F.);
#200=ORIENTED_EDGE('',*,*,#383,.F.);
#201=ORIENTED_EDGE('',*,*,#374,.F.);
#202=ORIENTED_EDGE('',*,*,#375,.F.);
#203=ORIENTED_EDGE('',*,*,#376,.F.);
#204=ORIENTED_EDGE('',*,*,#377,.F.);
#205=ORIENTED_EDGE('',*,*,#378,.F.);
#206=ORIENTED_EDGE('',*,*,#379,.F.);
#207=ORIENTED_EDGE('',*,*,#380,.F.);
#208=ORIENTED_EDGE('',*,*,#381,.F.);
#209=ORIENTED_EDGE('',*,*,#422,.T.);
#210=ORIENTED_EDGE('',*,*,#392,.F.);
#211=ORIENTED_EDGE('',*,*,#365,.T.);
#212=ORIENTED_EDGE('',*,*,#394,.T.);
#213=ORIENTED_EDGE('',*,*,#329,.F.);
#214=ORIENTED_EDGE('',*,*,#395,.F.);
#215=ORIENTED_EDGE('',*,*,#367,.T.);
#216=ORIENTED_EDGE('',*,*,#396,.T.);
#217=ORIENTED_EDGE('',*,*,#334,.F.);
#218=ORIENTED_EDGE('',*,*,#397,.F.);
#219=ORIENTED_EDGE('',*,*,#369,.T.);
#220=ORIENTED_EDGE('',*,*,#398,.T.);
#221=ORIENTED_EDGE('',*,*,#339,.F.);
#222=ORIENTED_EDGE('',*,*,#401,.F.);
#223=ORIENTED_EDGE('',*,*,#373,.T.);
#224=ORIENTED_EDGE('',*,*,#393,.T.);
#225=ORIENTED_EDGE('',*,*,#410,.F.);
#226=ORIENTED_EDGE('',*,*,#375,.T.);
#227=ORIENTED_EDGE('',*,*,#384,.T.);
#228=ORIENTED_EDGE('',*,*,#347,.T.);
#229=ORIENTED_EDGE('',*,*,#386,.F.);
#230=ORIENTED_EDGE('',*,*,#377,.T.);
#231=ORIENTED_EDGE('',*,*,#387,.T.);
#232=ORIENTED_EDGE('',*,*,#351,.T.);
#233=ORIENTED_EDGE('',*,*,#388,.F.);
#234=ORIENTED_EDGE('',*,*,#379,.T.);
#235=ORIENTED_EDGE('',*,*,#389,.T.);
#236=ORIENTED_EDGE('',*,*,#355,.T.);
#237=ORIENTED_EDGE('',*,*,#390,.F.);
#238=ORIENTED_EDGE('',*,*,#383,.T.);
#239=ORIENTED_EDGE('',*,*,#391,.T.);
#240=ORIENTED_EDGE('',*,*,#407,.T.);
#241=ORIENTED_EDGE('',*,*,#385,.F.);
#242=ORIENTED_EDGE('',*,*,#409,.F.);
#243=ORIENTED_EDGE('',*,*,#343,.T.);
#244=ORIENTED_EDGE('',*,*,#410,.T.);
#245=ORIENTED_EDGE('',*,*,#328,.T.);
#246=ORIENTED_EDGE('',*,*,#344,.F.);
#247=ORIENTED_EDGE('',*,*,#326,.T.);
#248=ORIENTED_EDGE('',*,*,#327,.F.);
#249=ORIENTED_EDGE('',*,*,#328,.F.);
#250=ORIENTED_EDGE('',*,*,#393,.F.);
#251=ORIENTED_EDGE('',*,*,#364,.T.);
#252=ORIENTED_EDGE('',*,*,#392,.T.);
#253=ORIENTED_EDGE('',*,*,#332,.T.);
#254=ORIENTED_EDGE('',*,*,#333,.F.);
#255=ORIENTED_EDGE('',*,*,#330,.F.);
#256=ORIENTED_EDGE('',*,*,#394,.F.);
#257=ORIENTED_EDGE('',*,*,#366,.T.);
#258=ORIENTED_EDGE('',*,*,#395,.T.);
#259=ORIENTED_EDGE('',*,*,#337,.T.);
#260=ORIENTED_EDGE('',*,*,#338,.F.);
#261=ORIENTED_EDGE('',*,*,#335,.F.);
#262=ORIENTED_EDGE('',*,*,#396,.F.);
#263=ORIENTED_EDGE('',*,*,#368,.T.);
#264=ORIENTED_EDGE('',*,*,#397,.T.);
#265=ORIENTED_EDGE('',*,*,#384,.F.);
#266=ORIENTED_EDGE('',*,*,#374,.T.);
#267=ORIENTED_EDGE('',*,*,#385,.T.);
#268=ORIENTED_EDGE('',*,*,#346,.T.);
#269=ORIENTED_EDGE('',*,*,#359,.T.);
#270=ORIENTED_EDGE('',*,*,#345,.F.);
#271=ORIENTED_EDGE('',*,*,#387,.F.);
#272=ORIENTED_EDGE('',*,*,#376,.T.);
#273=ORIENTED_EDGE('',*,*,#386,.T.);
#274=ORIENTED_EDGE('',*,*,#348,.T.);
#275=ORIENTED_EDGE('',*,*,#360,.T.);
#276=ORIENTED_EDGE('',*,*,#350,.F.);
#277=ORIENTED_EDGE('',*,*,#389,.F.);
#278=ORIENTED_EDGE('',*,*,#378,.T.);
#279=ORIENTED_EDGE('',*,*,#388,.T.);
#280=ORIENTED_EDGE('',*,*,#352,.T.);
#281=ORIENTED_EDGE('',*,*,#361,.T.);
#282=ORIENTED_EDGE('',*,*,#354,.F.);
#283=ORIENTED_EDGE('',*,*,#420,.F.);
#284=ORIENTED_EDGE('',*,*,#411,.F.);
#285=ORIENTED_EDGE('',*,*,#380,.T.);
#286=ORIENTED_EDGE('',*,*,#390,.T.);
#287=ORIENTED_EDGE('',*,*,#356,.T.);
#288=ORIENTED_EDGE('',*,*,#362,.T.);
#289=ORIENTED_EDGE('',*,*,#406,.F.);
#290=ORIENTED_EDGE('',*,*,#402,.F.);
#291=ORIENTED_EDGE('',*,*,#415,.T.);
#292=ORIENTED_EDGE('',*,*,#416,.F.);
#293=ORIENTED_EDGE('',*,*,#381,.T.);
#294=ORIENTED_EDGE('',*,*,#411,.T.);
#295=ORIENTED_EDGE('',*,*,#417,.T.);
#296=ORIENTED_EDGE('',*,*,#418,.T.);
#297=ORIENTED_EDGE('',*,*,#403,.T.);
#298=ORIENTED_EDGE('',*,*,#391,.F.);
#299=ORIENTED_EDGE('',*,*,#382,.T.);
#300=ORIENTED_EDGE('',*,*,#342,.F.);
#301=ORIENTED_EDGE('',*,*,#340,.F.);
#302=ORIENTED_EDGE('',*,*,#398,.F.);
#303=ORIENTED_EDGE('',*,*,#370,.T.);
#304=ORIENTED_EDGE('',*,*,#399,.T.);
#305=ORIENTED_EDGE('',*,*,#405,.T.);
#306=ORIENTED_EDGE('',*,*,#409,.T.);
#307=ORIENTED_EDGE('',*,*,#414,.T.);
#308=ORIENTED_EDGE('',*,*,#343,.F.);
#309=ORIENTED_EDGE('',*,*,#405,.F.);
#310=ORIENTED_EDGE('',*,*,#413,.T.);
#311=ORIENTED_EDGE('',*,*,#363,.T.);
#312=ORIENTED_EDGE('',*,*,#419,.T.);
#313=ORIENTED_EDGE('',*,*,#415,.F.);
#314=ORIENTED_EDGE('',*,*,#420,.T.);
#315=ORIENTED_EDGE('',*,*,#408,.T.);
#316=ORIENTED_EDGE('',*,*,#412,.T.);
#317=ORIENTED_EDGE('',*,*,#418,.F.);
#318=ORIENTED_EDGE('',*,*,#423,.F.);
#319=ORIENTED_EDGE('',*,*,#416,.T.);
#320=ORIENTED_EDGE('',*,*,#421,.F.);
#321=ORIENTED_EDGE('',*,*,#417,.F.);
#322=ORIENTED_EDGE('',*,*,#422,.F.);
#323=ORIENTED_EDGE('',*,*,#423,.T.);
#324=ORIENTED_EDGE('',*,*,#421,.T.);
#325=ORIENTED_EDGE('',*,*,#419,.F.);
#326=EDGE_CURVE('',#556,#557,#500,.T.);
#327=EDGE_CURVE('',#558,#557,#501,.T.);
#328=EDGE_CURVE('',#555,#558,#502,.T.);
#329=EDGE_CURVE('',#556,#559,#440,.T.);
#330=EDGE_CURVE('',#559,#560,#424,.T.);
#331=EDGE_CURVE('',#557,#560,#441,.T.);
#332=EDGE_CURVE('',#561,#562,#503,.T.);
#333=EDGE_CURVE('',#560,#562,#504,.T.);
#334=EDGE_CURVE('',#561,#563,#442,.T.);
#335=EDGE_CURVE('',#563,#564,#425,.T.);
#336=EDGE_CURVE('',#562,#564,#443,.T.);
#337=EDGE_CURVE('',#565,#566,#505,.T.);
#338=EDGE_CURVE('',#564,#566,#506,.T.);
#339=EDGE_CURVE('',#565,#567,#444,.T.);
#340=EDGE_CURVE('',#567,#568,#426,.T.);
#341=EDGE_CURVE('',#566,#568,#445,.T.);
#342=EDGE_CURVE('',#568,#570,#507,.T.);
#343=EDGE_CURVE('',#569,#607,#446,.T.);
#344=EDGE_CURVE('',#570,#558,#447,.T.);
#345=EDGE_CURVE('',#572,#579,#508,.T.);
#346=EDGE_CURVE('',#571,#578,#509,.T.);
#347=EDGE_CURVE('',#572,#573,#448,.T.);
#348=EDGE_CURVE('',#573,#580,#427,.T.);
#349=EDGE_CURVE('',#579,#580,#449,.T.);
#350=EDGE_CURVE('',#574,#581,#510,.T.);
#351=EDGE_CURVE('',#574,#575,#450,.T.);
#352=EDGE_CURVE('',#575,#582,#428,.T.);
#353=EDGE_CURVE('',#581,#582,#451,.T.);
#354=EDGE_CURVE('',#576,#583,#511,.T.);
#355=EDGE_CURVE('',#576,#577,#452,.T.);
#356=EDGE_CURVE('',#577,#584,#429,.T.);
#357=EDGE_CURVE('',#583,#584,#453,.T.);
#358=EDGE_CURVE('',#585,#578,#454,.T.);
#359=EDGE_CURVE('',#578,#579,#512,.T.);
#360=EDGE_CURVE('',#580,#581,#513,.T.);
#361=EDGE_CURVE('',#582,#583,#514,.T.);
#362=EDGE_CURVE('',#584,#585,#515,.T.);
#363=EDGE_CURVE('',#612,#616,#516,.T.);
#364=EDGE_CURVE('',#586,#587,#517,.T.);
#365=EDGE_CURVE('',#587,#588,#455,.T.);
#366=EDGE_CURVE('',#588,#589,#518,.T.);
#367=EDGE_CURVE('',#589,#590,#456,.T.);
#368=EDGE_CURVE('',#590,#591,#519,.T.);
#369=EDGE_CURVE('',#591,#592,#457,.T.);
#370=EDGE_CURVE('',#592,#593,#520,.T.);
#371=EDGE_CURVE('',#593,#594,#521,.T.);
#372=EDGE_CURVE('',#594,#595,#522,.T.);
#373=EDGE_CURVE('',#595,#586,#458,.T.);
#374=EDGE_CURVE('',#596,#597,#523,.T.);
#375=EDGE_CURVE('',#598,#596,#459,.T.);
#376=EDGE_CURVE('',#599,#598,#524,.T.);
#377=EDGE_CURVE('',#600,#599,#460,.T.);
#378=EDGE_CURVE('',#601,#600,#525,.T.);
#379=EDGE_CURVE('',#602,#601,#461,.T.);
#380=EDGE_CURVE('',#603,#602,#526,.T.);
#381=EDGE_CURVE('',#610,#603,#527,.T.);
#382=EDGE_CURVE('',#604,#611,#528,.T.);
#383=EDGE_CURVE('',#597,#604,#462,.T.);
#384=EDGE_CURVE('',#596,#572,#529,.T.);
#385=EDGE_CURVE('',#597,#571,#530,.T.);
#386=EDGE_CURVE('',#598,#573,#430,.T.);
#387=EDGE_CURVE('',#599,#574,#531,.T.);
#388=EDGE_CURVE('',#600,#575,#431,.T.);
#389=EDGE_CURVE('',#601,#576,#532,.T.);
#390=EDGE_CURVE('',#602,#577,#432,.T.);
#391=EDGE_CURVE('',#604,#608,#533,.T.);
#392=EDGE_CURVE('',#587,#556,#534,.T.);
#393=EDGE_CURVE('',#586,#555,#535,.T.);
#394=EDGE_CURVE('',#588,#559,#433,.T.);
#395=EDGE_CURVE('',#589,#561,#536,.T.);
#396=EDGE_CURVE('',#590,#563,#434,.T.);
#397=EDGE_CURVE('',#591,#565,#537,.T.);
#398=EDGE_CURVE('',#592,#567,#435,.T.);
#399=EDGE_CURVE('',#593,#606,#538,.T.);
#400=EDGE_CURVE('',#594,#605,#539,.T.);
#401=EDGE_CURVE('',#595,#607,#540,.T.);
#402=EDGE_CURVE('',#612,#609,#541,.T.);
#403=EDGE_CURVE('',#613,#608,#542,.T.);
#404=EDGE_CURVE('',#609,#614,#436,.T.);
#405=EDGE_CURVE('',#606,#569,#543,.T.);
#406=EDGE_CURVE('',#609,#585,#544,.T.);
#407=EDGE_CURVE('',#608,#571,#463,.T.);
#408=EDGE_CURVE('',#616,#614,#545,.T.);
#409=EDGE_CURVE('',#569,#570,#546,.T.);
#410=EDGE_CURVE('',#607,#555,#464,.T.);
#411=EDGE_CURVE('',#603,#615,#547,.T.);
#412=EDGE_CURVE('',#614,#613,#548,.T.);
#413=EDGE_CURVE('',#606,#605,#549,.T.);
#414=EDGE_CURVE('',#605,#607,#550,.T.);
#415=EDGE_CURVE('',#615,#617,#551,.T.);
#416=EDGE_CURVE('',#610,#617,#552,.T.);
#417=EDGE_CURVE('',#611,#618,#553,.T.);
#418=EDGE_CURVE('',#618,#613,#554,.T.);
#419=EDGE_CURVE('',#616,#617,#465,.T.);
#420=EDGE_CURVE('',#615,#612,#466,.T.);
#421=EDGE_CURVE('',#618,#617,#467,.T.);
#422=EDGE_CURVE('',#610,#611,#468,.T.);
#423=EDGE_CURVE('',#616,#618,#469,.T.);
#424=(
BOUNDED_CURVE()
B_SPLINE_CURVE(1,(#1039,#1040),.UNSPECIFIED.,.F.,.F.)
B_SPLINE_CURVE_WITH_KNOTS((2,2),(0.,25.),.UNSPECIFIED.)
CURVE()
GEOMETRIC_REPRESENTATION_ITEM()
RATIONAL_B_SPLINE_CURVE((1.,1.))
REPRESENTATION_ITEM('')
);
#425=(
BOUNDED_CURVE()
B_SPLINE_CURVE(1,(#1051,#1052),.UNSPECIFIED.,.F.,.F.)
B_SPLINE_CURVE_WITH_KNOTS((2,2),(0.,25.),.UNSPECIFIED.)
CURVE()
GEOMETRIC_REPRESENTATION_ITEM()
RATIONAL_B_SPLINE_CURVE((1.,1.))
REPRESENTATION_ITEM('')
);
#426=(
BOUNDED_CURVE()
B_SPLINE_CURVE(1,(#1063,#1064),.UNSPECIFIED.,.F.,.F.)
B_SPLINE_CURVE_WITH_KNOTS((2,2),(0.,25.),.UNSPECIFIED.)
CURVE()
GEOMETRIC_REPRESENTATION_ITEM()
RATIONAL_B_SPLINE_CURVE((1.,1.))
REPRESENTATION_ITEM('')
);
#427=(
BOUNDED_CURVE()
B_SPLINE_CURVE(1,(#1083,#1084),.UNSPECIFIED.,.F.,.F.)
B_SPLINE_CURVE_WITH_KNOTS((2,2),(0.,25.),.UNSPECIFIED.)
CURVE()
GEOMETRIC_REPRESENTATION_ITEM()
RATIONAL_B_SPLINE_CURVE((1.,1.))
REPRESENTATION_ITEM('')
);
#428=(
BOUNDED_CURVE()
B_SPLINE_CURVE(1,(#1093,#1094),.UNSPECIFIED.,.F.,.F.)
B_SPLINE_CURVE_WITH_KNOTS((2,2),(0.,25.),.UNSPECIFIED.)
CURVE()
GEOMETRIC_REPRESENTATION_ITEM()
RATIONAL_B_SPLINE_CURVE((1.,1.))
REPRESENTATION_ITEM('')
);
#429=(
BOUNDED_CURVE()
B_SPLINE_CURVE(1,(#1103,#1104),.UNSPECIFIED.,.F.,.F.)
B_SPLINE_CURVE_WITH_KNOTS((2,2),(0.,25.),.UNSPECIFIED.)
CURVE()
GEOMETRIC_REPRESENTATION_ITEM()
RATIONAL_B_SPLINE_CURVE((1.,1.))
REPRESENTATION_ITEM('')
);
#430=(
BOUNDED_CURVE()
B_SPLINE_CURVE(1,(#1173,#1174),.UNSPECIFIED.,.F.,.F.)
B_SPLINE_CURVE_WITH_KNOTS((2,2),(2.,40.),.UNSPECIFIED.)
CURVE()
GEOMETRIC_REPRESENTATION_ITEM()
RATIONAL_B_SPLINE_CURVE((1.,1.))
REPRESENTATION_ITEM('')
);
#431=(
BOUNDED_CURVE()
B_SPLINE_CURVE(1,(#1177,#1178),.UNSPECIFIED.,.F.,.F.)
B_SPLINE_CURVE_WITH_KNOTS((2,2),(2.,40.),.UNSPECIFIED.)
CURVE()
GEOMETRIC_REPRESENTATION_ITEM()
RATIONAL_B_SPLINE_CURVE((1.,1.))
REPRESENTATION_ITEM('')
);
#432=(
BOUNDED_CURVE()
B_SPLINE_CURVE(1,(#1181,#1182),.UNSPECIFIED.,.F.,.F.)
B_SPLINE_CURVE_WITH_KNOTS((2,2),(2.,40.),.UNSPECIFIED.)
CURVE()
GEOMETRIC_REPRESENTATION_ITEM()
RATIONAL_B_SPLINE_CURVE((1.,1.))
REPRESENTATION_ITEM('')
);
#433=(
BOUNDED_CURVE()
B_SPLINE_CURVE(1,(#1191,#1192,#1193),.UNSPECIFIED.,.F.,.F.)
B_SPLINE_CURVE_WITH_KNOTS((2,1,2),(0.,2.,40.),.UNSPECIFIED.)
CURVE()
GEOMETRIC_REPRESENTATION_ITEM()
RATIONAL_B_SPLINE_CURVE((1.,1.,1.))
REPRESENTATION_ITEM('')
);
#434=(
BOUNDED_CURVE()
B_SPLINE_CURVE(1,(#1197,#1198,#1199),.UNSPECIFIED.,.F.,.F.)
B_SPLINE_CURVE_WITH_KNOTS((2,1,2),(0.,2.,40.),.UNSPECIFIED.)
CURVE()
GEOMETRIC_REPRESENTATION_ITEM()
RATIONAL_B_SPLINE_CURVE((1.,1.,1.))
REPRESENTATION_ITEM('')
);
#435=(
BOUNDED_CURVE()
B_SPLINE_CURVE(1,(#1203,#1204,#1205),.UNSPECIFIED.,.F.,.F.)
B_SPLINE_CURVE_WITH_KNOTS((2,1,2),(0.,2.,40.),.UNSPECIFIED.)
CURVE()
GEOMETRIC_REPRESENTATION_ITEM()
RATIONAL_B_SPLINE_CURVE((1.,1.,1.))
REPRESENTATION_ITEM('')
);
#436=(
BOUNDED_CURVE()
B_SPLINE_CURVE(2,(#1219,#1220,#1221),.UNSPECIFIED.,.F.,.F.)
B_SPLINE_CURVE_WITH_KNOTS((3,3),(1414.24777960769,1432.2912869125),
 .UNSPECIFIED.)
CURVE()
GEOMETRIC_REPRESENTATION_ITEM()
RATIONAL_B_SPLINE_CURVE((1.,0.897527515200501,1.))
REPRESENTATION_ITEM('')
);
#437=(
BOUNDED_CURVE()
B_SPLINE_CURVE(2,(#1286,#1287,#1288,#1289,#1290,#1291,#1292,#1293,#1294,
#1295,#1296,#1297,#1298,#1299,#1300,#1301,#1302,#1303,#1304,#1305,#1306),
 .UNSPECIFIED.,.T.,.F.)
B_SPLINE_CURVE_WITH_KNOTS((3,2,2,2,2,2,2,2,2,2,3),(1454.24777960769,1560.24777960769,
1591.66370614359,1697.66370614359,1729.07963267949,1835.07963267949,1866.49555921539,
1952.49555921539,1956.49555921539,1992.49555921539,2005.50846206107),
 .UNSPECIFIED.)
CURVE()
GEOMETRIC_REPRESENTATION_ITEM()
RATIONAL_B_SPLINE_CURVE((1.,1.,1.,0.707106781186548,1.,1.,1.,0.707106781186548,
1.,1.,1.,0.707106781186547,1.,1.,1.,1.,1.,1.,1.,0.948683298050513,1.))
REPRESENTATION_ITEM('')
);
#438=(
BOUNDED_CURVE()
B_SPLINE_CURVE(2,(#1307,#1308,#1309,#1310,#1311,#1312,#1313,#1314,#1315,
#1316,#1317,#1318,#1319,#1320,#1321,#1322,#1323,#1324,#1325,#1326,#1327),
 .UNSPECIFIED.,.T.,.F.)
B_SPLINE_CURVE_WITH_KNOTS((3,2,2,2,2,2,2,2,2,2,3),(1454.24777960769,1560.24777960769,
1591.66370614359,1697.66370614359,1729.07963267949,1835.07963267949,1866.49555921539,
1950.49555921539,1953.69555921539,1988.71657668106,2000.61340190721),
 .UNSPECIFIED.)
CURVE()
GEOMETRIC_REPRESENTATION_ITEM()
RATIONAL_B_SPLINE_CURVE((1.,1.,1.,0.707106781186548,1.,1.,1.,0.707106781186549,
1.,1.,1.,0.707106781186549,1.,1.,1.,1.,1.,1.,1.,0.956942897795655,1.))
REPRESENTATION_ITEM('')
);
#439=(
BOUNDED_CURVE()
B_SPLINE_CURVE(2,(#1328,#1329,#1330,#1331,#1332,#1333,#1334,#1335,#1336),
 .UNSPECIFIED.,.T.,.F.)
B_SPLINE_CURVE_WITH_KNOTS((3,2,2,2,3),(0.,4.,26.,46.7005390406719,86.0210471163642),
 .UNSPECIFIED.)
CURVE()
GEOMETRIC_REPRESENTATION_ITEM()
RATIONAL_B_SPLINE_CURVE((1.,1.,1.,1.,1.,0.866025403784419,1.,1.,1.))
REPRESENTATION_ITEM('')
);
#440=TRIMMED_CURVE($,#470,(#1037),(#1038),.T.,.CARTESIAN.);
#441=TRIMMED_CURVE($,#471,(#1042),(#1043),.T.,.CARTESIAN.);
#442=TRIMMED_CURVE($,#472,(#1049),(#1050),.T.,.CARTESIAN.);
#443=TRIMMED_CURVE($,#473,(#1054),(#1055),.T.,.CARTESIAN.);
#444=TRIMMED_CURVE($,#474,(#1061),(#1062),.T.,.CARTESIAN.);
#445=TRIMMED_CURVE($,#475,(#1066),(#1067),.T.,.CARTESIAN.);
#446=TRIMMED_CURVE($,#476,(#1071),(#1072),.T.,.CARTESIAN.);
#447=TRIMMED_CURVE($,#477,(#1074),(#1075),.T.,.CARTESIAN.);
#448=TRIMMED_CURVE($,#478,(#1081),(#1082),.T.,.CARTESIAN.);
#449=TRIMMED_CURVE($,#479,(#1086),(#1087),.T.,.CARTESIAN.);
#450=TRIMMED_CURVE($,#480,(#1091),(#1092),.T.,.CARTESIAN.);
#451=TRIMMED_CURVE($,#481,(#1096),(#1097),.T.,.CARTESIAN.);
#452=TRIMMED_CURVE($,#482,(#1101),(#1102),.T.,.CARTESIAN.);
#453=TRIMMED_CURVE($,#483,(#1106),(#1107),.T.,.CARTESIAN.);
#454=TRIMMED_CURVE($,#484,(#1109),(#1110),.T.,.CARTESIAN.);
#455=TRIMMED_CURVE($,#485,(#1124),(#1125),.T.,.CARTESIAN.);
#456=TRIMMED_CURVE($,#486,(#1129),(#1130),.T.,.CARTESIAN.);
#457=TRIMMED_CURVE($,#487,(#1134),(#1135),.T.,.CARTESIAN.);
#458=TRIMMED_CURVE($,#488,(#1143),(#1144),.T.,.CARTESIAN.);
#459=TRIMMED_CURVE($,#489,(#1148),(#1149),.T.,.CARTESIAN.);
#460=TRIMMED_CURVE($,#490,(#1153),(#1154),.T.,.CARTESIAN.);
#461=TRIMMED_CURVE($,#491,(#1158),(#1159),.T.,.CARTESIAN.);
#462=TRIMMED_CURVE($,#492,(#1167),(#1168),.T.,.CARTESIAN.);
#463=TRIMMED_CURVE($,#493,(#1227),(#1228),.T.,.CARTESIAN.);
#464=TRIMMED_CURVE($,#494,(#1235),(#1236),.T.,.CARTESIAN.);
#465=TRIMMED_CURVE($,#495,(#1272),(#1273),.T.,.CARTESIAN.);
#466=TRIMMED_CURVE($,#496,(#1275),(#1276),.T.,.CARTESIAN.);
#467=TRIMMED_CURVE($,#497,(#1278),(#1279),.T.,.CARTESIAN.);
#468=TRIMMED_CURVE($,#498,(#1281),(#1282),.T.,.CARTESIAN.);
#469=TRIMMED_CURVE($,#499,(#1284),(#1285),.T.,.CARTESIAN.);
#470=CIRCLE('',#780,20.);
#471=CIRCLE('',#781,20.);
#472=CIRCLE('',#782,20.);
#473=CIRCLE('',#783,20.);
#474=CIRCLE('',#784,20.0000000000001);
#475=CIRCLE('',#785,20.0000000000001);
#476=CIRCLE('',#786,19.9999999999995);
#477=CIRCLE('',#787,20.);
#478=CIRCLE('',#788,18.);
#479=CIRCLE('',#789,18.);
#480=CIRCLE('',#790,17.9999999999999);
#481=CIRCLE('',#791,17.9999999999999);
#482=CIRCLE('',#792,18.0000000000001);
#483=CIRCLE('',#793,18.0000000000001);
#484=CIRCLE('',#794,17.9999999999999);
#485=CIRCLE('',#795,20.);
#486=CIRCLE('',#796,20.0000000000001);
#487=CIRCLE('',#797,20.0000000000001);
#488=CIRCLE('',#798,20.0000000000002);
#489=CIRCLE('',#799,17.9999999999999);
#490=CIRCLE('',#800,18.0000000000003);
#491=CIRCLE('',#801,18.0000000000001);
#492=CIRCLE('',#802,17.9999999999996);
#493=CIRCLE('',#803,18.0000000000008);
#494=CIRCLE('',#804,20.0000000000007);
#495=CIRCLE('',#805,1.00000000000002);
#496=CIRCLE('',#806,1.00000000000001);
#497=CIRCLE('',#807,1.00000000000001);
#498=CIRCLE('',#808,1.0000000000002);
#499=CIRCLE('',#809,1.00000000000001);
#500=B_SPLINE_CURVE_WITH_KNOTS('',1,(#1030,#1031),.UNSPECIFIED.,.F.,.F.,
(2,2),(0.,25.),.UNSPECIFIED.);
#501=B_SPLINE_CURVE_WITH_KNOTS('',1,(#1032,#1033),.UNSPECIFIED.,.F.,.F.,
(2,2),(896.,1002.),.UNSPECIFIED.);
#502=B_SPLINE_CURVE_WITH_KNOTS('',1,(#1034,#1035),.UNSPECIFIED.,.F.,.F.,
(2,2),(0.,25.),.UNSPECIFIED.);
#503=B_SPLINE_CURVE_WITH_KNOTS('',1,(#1044,#1045),.UNSPECIFIED.,.F.,.F.,
(2,2),(0.,25.),.UNSPECIFIED.);
#504=B_SPLINE_CURVE_WITH_KNOTS('',1,(#1046,#1047),.UNSPECIFIED.,.F.,.F.,
(2,2),(1033.4159265359,1139.4159265359),.UNSPECIFIED.);
#505=B_SPLINE_CURVE_WITH_KNOTS('',1,(#1056,#1057),.UNSPECIFIED.,.F.,.F.,
(2,2),(0.,25.),.UNSPECIFIED.);
#506=B_SPLINE_CURVE_WITH_KNOTS('',1,(#1058,#1059),.UNSPECIFIED.,.F.,.F.,
(2,2),(1170.8318530718,1276.8318530718),.UNSPECIFIED.);
#507=B_SPLINE_CURVE_WITH_KNOTS('',1,(#1068,#1069),.UNSPECIFIED.,.F.,.F.,
(2,2),(1308.24777960769,1414.24777960769),.UNSPECIFIED.);
#508=B_SPLINE_CURVE_WITH_KNOTS('',1,(#1076,#1077),.UNSPECIFIED.,.F.,.F.,
(2,2),(0.,25.),.UNSPECIFIED.);
#509=B_SPLINE_CURVE_WITH_KNOTS('',1,(#1078,#1079),.UNSPECIFIED.,.F.,.F.,
(2,2),(0.,25.),.UNSPECIFIED.);
#510=B_SPLINE_CURVE_WITH_KNOTS('',1,(#1088,#1089),.UNSPECIFIED.,.F.,.F.,
(2,2),(0.,25.),.UNSPECIFIED.);
#511=B_SPLINE_CURVE_WITH_KNOTS('',1,(#1098,#1099),.UNSPECIFIED.,.F.,.F.,
(2,2),(0.,25.),.UNSPECIFIED.);
#512=B_SPLINE_CURVE_WITH_KNOTS('',1,(#1111,#1112),.UNSPECIFIED.,.F.,.F.,
(2,2),(896.,1002.),.UNSPECIFIED.);
#513=B_SPLINE_CURVE_WITH_KNOTS('',1,(#1113,#1114),.UNSPECIFIED.,.F.,.F.,
(2,2),(1033.4159265359,1139.4159265359),.UNSPECIFIED.);
#514=B_SPLINE_CURVE_WITH_KNOTS('',1,(#1115,#1116),.UNSPECIFIED.,.F.,.F.,
(2,2),(1170.8318530718,1276.8318530718),.UNSPECIFIED.);
#515=B_SPLINE_CURVE_WITH_KNOTS('',1,(#1117,#1118),.UNSPECIFIED.,.F.,.F.,
(2,2),(1308.24777960769,1414.24777960769),.UNSPECIFIED.);
#516=B_SPLINE_CURVE_WITH_KNOTS('',1,(#1119,#1120),.UNSPECIFIED.,.F.,.F.,
(2,2),(-1.95257951221803E-14,7.00000000000002),.UNSPECIFIED.);
#517=B_SPLINE_CURVE_WITH_KNOTS('',1,(#1121,#1122),.UNSPECIFIED.,.F.,.F.,
(2,2),(1454.24777960769,1560.24777960769),.UNSPECIFIED.);
#518=B_SPLINE_CURVE_WITH_KNOTS('',1,(#1126,#1127),.UNSPECIFIED.,.F.,.F.,
(2,2),(1591.66370614359,1697.66370614359),.UNSPECIFIED.);
#519=B_SPLINE_CURVE_WITH_KNOTS('',1,(#1131,#1132),.UNSPECIFIED.,.F.,.F.,
(2,2),(1729.07963267949,1835.07963267949),.UNSPECIFIED.);
#520=B_SPLINE_CURVE_WITH_KNOTS('',1,(#1136,#1137),.UNSPECIFIED.,.F.,.F.,
(2,2),(1866.49555921539,1952.49555921539),.UNSPECIFIED.);
#521=B_SPLINE_CURVE_WITH_KNOTS('',1,(#1138,#1139),.UNSPECIFIED.,.F.,.F.,
(2,2),(1952.49555921539,1956.49555921539),.UNSPECIFIED.);
#522=B_SPLINE_CURVE_WITH_KNOTS('',1,(#1140,#1141),.UNSPECIFIED.,.F.,.F.,
(2,2),(1956.49555921539,1992.49555921539),.UNSPECIFIED.);
#523=B_SPLINE_CURVE_WITH_KNOTS('',1,(#1145,#1146),.UNSPECIFIED.,.F.,.F.,
(2,2),(-1560.24777960769,-1454.24777960769),.UNSPECIFIED.);
#524=B_SPLINE_CURVE_WITH_KNOTS('',1,(#1150,#1151),.UNSPECIFIED.,.F.,.F.,
(2,2),(-1697.66370614359,-1591.66370614359),.UNSPECIFIED.);
#525=B_SPLINE_CURVE_WITH_KNOTS('',1,(#1155,#1156),.UNSPECIFIED.,.F.,.F.,
(2,2),(-1835.07963267949,-1729.07963267949),.UNSPECIFIED.);
#526=B_SPLINE_CURVE_WITH_KNOTS('',1,(#1160,#1161),.UNSPECIFIED.,.F.,.F.,
(2,2),(-1950.49555921539,-1866.49555921539),.UNSPECIFIED.);
#527=B_SPLINE_CURVE_WITH_KNOTS('',1,(#1162,#1163),.UNSPECIFIED.,.F.,.F.,
(2,2),(-1953.29555921539,-1950.49555921539),.UNSPECIFIED.);
#528=B_SPLINE_CURVE_WITH_KNOTS('',1,(#1164,#1165),.UNSPECIFIED.,.F.,.F.,
(2,2),(-1988.71657668106,-1954.64292763644),.UNSPECIFIED.);
#529=B_SPLINE_CURVE_WITH_KNOTS('',1,(#1169,#1170),.UNSPECIFIED.,.F.,.F.,
(2,2),(2.,40.),.UNSPECIFIED.);
#530=B_SPLINE_CURVE_WITH_KNOTS('',1,(#1171,#1172),.UNSPECIFIED.,.F.,.F.,
(2,2),(2.,40.),.UNSPECIFIED.);
#531=B_SPLINE_CURVE_WITH_KNOTS('',1,(#1175,#1176),.UNSPECIFIED.,.F.,.F.,
(2,2),(2.,40.),.UNSPECIFIED.);
#532=B_SPLINE_CURVE_WITH_KNOTS('',1,(#1179,#1180),.UNSPECIFIED.,.F.,.F.,
(2,2),(2.,40.),.UNSPECIFIED.);
#533=B_SPLINE_CURVE_WITH_KNOTS('',1,(#1183,#1184),.UNSPECIFIED.,.F.,.F.,
(2,2),(2.,40.),.UNSPECIFIED.);
#534=B_SPLINE_CURVE_WITH_KNOTS('',1,(#1185,#1186,#1187),.UNSPECIFIED.,.F.,
 .F.,(2,1,2),(0.,2.,40.),.UNSPECIFIED.);
#535=B_SPLINE_CURVE_WITH_KNOTS('',1,(#1188,#1189,#1190),.UNSPECIFIED.,.F.,
 .F.,(2,1,2),(0.,2.,40.),.UNSPECIFIED.);
#536=B_SPLINE_CURVE_WITH_KNOTS('',1,(#1194,#1195,#1196),.UNSPECIFIED.,.F.,
 .F.,(2,1,2),(0.,2.,40.),.UNSPECIFIED.);
#537=B_SPLINE_CURVE_WITH_KNOTS('',1,(#1200,#1201,#1202),.UNSPECIFIED.,.F.,
 .F.,(2,1,2),(0.,2.,40.),.UNSPECIFIED.);
#538=B_SPLINE_CURVE_WITH_KNOTS('',1,(#1206,#1207,#1208),.UNSPECIFIED.,.F.,
 .F.,(2,1,2),(0.,2.,40.),.UNSPECIFIED.);
#539=B_SPLINE_CURVE_WITH_KNOTS('',1,(#1209,#1210,#1211),.UNSPECIFIED.,.F.,
 .F.,(2,1,2),(0.,2.,40.),.UNSPECIFIED.);
#540=B_SPLINE_CURVE_WITH_KNOTS('',1,(#1212,#1213,#1214),.UNSPECIFIED.,.F.,
 .F.,(2,1,2),(0.,2.,40.),.UNSPECIFIED.);
#541=B_SPLINE_CURVE_WITH_KNOTS('',1,(#1215,#1216),.UNSPECIFIED.,.F.,.F.,
(2,2),(1393.24777960769,1414.24777960769),.UNSPECIFIED.);
#542=B_SPLINE_CURVE_WITH_KNOTS('',1,(#1217,#1218),.UNSPECIFIED.,.F.,.F.,
(2,2),(-0.999999999999996,0.),.UNSPECIFIED.);
#543=B_SPLINE_CURVE_WITH_KNOTS('',1,(#1222,#1223),.UNSPECIFIED.,.F.,.F.,
(2,2),(1394.24777960769,1414.24777960769),.UNSPECIFIED.);
#544=B_SPLINE_CURVE_WITH_KNOTS('',1,(#1224,#1225),.UNSPECIFIED.,.F.,.F.,
(2,2),(2.,25.),.UNSPECIFIED.);
#545=B_SPLINE_CURVE_WITH_KNOTS('',1,(#1229,#1230),.UNSPECIFIED.,.F.,.F.,
(2,2),(1.00000000000001,36.2478005238368),.UNSPECIFIED.);
#546=B_SPLINE_CURVE_WITH_KNOTS('',1,(#1231,#1232,#1233),.UNSPECIFIED.,.F.,
 .F.,(2,1,2),(0.,2.,25.),.UNSPECIFIED.);
#547=B_SPLINE_CURVE_WITH_KNOTS('',1,(#1237,#1238),.UNSPECIFIED.,.F.,.F.,
(2,2),(0.,39.),.UNSPECIFIED.);
#548=B_SPLINE_CURVE_WITH_KNOTS('',3,(#1239,#1240,#1241,#1242,#1243,#1244,
#1245,#1246,#1247,#1248,#1249,#1250,#1251,#1252,#1253,#1254,#1255,#1256,
#1257,#1258),.UNSPECIFIED.,.F.,.F.,(4,1,1,1,1,1,1,1,1,1,1,1,1,1,1,1,1,4),
(0.,0.106569379595289,0.215739782239254,0.326899691225841,0.439370081570754,
0.552433888485153,0.665366440952655,0.777468127094677,0.888096065573383,
0.996691384987766,1.1027991085658,1.20607858551623,1.30630375107241,1.40335397597161,
1.49719757726996,1.58787093169001,1.67545639425592,1.7600618719517),
 .UNSPECIFIED.);
#549=B_SPLINE_CURVE_WITH_KNOTS('',1,(#1259,#1260),.UNSPECIFIED.,.F.,.F.,
(2,2),(0.,8.00000000000002),.UNSPECIFIED.);
#550=B_SPLINE_CURVE_WITH_KNOTS('',1,(#1261,#1262),.UNSPECIFIED.,.F.,.F.,
(2,2),(0.,36.),.UNSPECIFIED.);
#551=B_SPLINE_CURVE_WITH_KNOTS('',1,(#1263,#1264),.UNSPECIFIED.,.F.,.F.,
(2,2),(1.7600062821285E-14,7.00000000000002),.UNSPECIFIED.);
#552=B_SPLINE_CURVE_WITH_KNOTS('',1,(#1265,#1266),.UNSPECIFIED.,.F.,.F.,
(2,2),(2.11471052309554E-16,39.),.UNSPECIFIED.);
#553=B_SPLINE_CURVE_WITH_KNOTS('',1,(#1267,#1268),.UNSPECIFIED.,.F.,.F.,
(2,2),(2.11471052309554E-16,39.),.UNSPECIFIED.);
#554=B_SPLINE_CURVE_WITH_KNOTS('',1,(#1269,#1270),.UNSPECIFIED.,.F.,.F.,
(2,2),(1.00000000000001,36.9666295470962),.UNSPECIFIED.);
#555=VERTEX_POINT('',#966);
#556=VERTEX_POINT('',#967);
#557=VERTEX_POINT('',#968);
#558=VERTEX_POINT('',#969);
#559=VERTEX_POINT('',#970);
#560=VERTEX_POINT('',#971);
#561=VERTEX_POINT('',#972);
#562=VERTEX_POINT('',#973);
#563=VERTEX_POINT('',#974);
#564=VERTEX_POINT('',#975);
#565=VERTEX_POINT('',#976);
#566=VERTEX_POINT('',#977);
#567=VERTEX_POINT('',#978);
#568=VERTEX_POINT('',#979);
#569=VERTEX_POINT('',#980);
#570=VERTEX_POINT('',#981);
#571=VERTEX_POINT('',#982);
#572=VERTEX_POINT('',#983);
#573=VERTEX_POINT('',#984);
#574=VERTEX_POINT('',#985);
#575=VERTEX_POINT('',#986);
#576=VERTEX_POINT('',#987);
#577=VERTEX_POINT('',#988);
#578=VERTEX_POINT('',#989);
#579=VERTEX_POINT('',#990);
#580=VERTEX_POINT('',#991);
#581=VERTEX_POINT('',#992);
#582=VERTEX_POINT('',#993);
#583=VERTEX_POINT('',#994);
#584=VERTEX_POINT('',#995);
#585=VERTEX_POINT('',#996);
#586=VERTEX_POINT('',#997);
#587=VERTEX_POINT('',#998);
#588=VERTEX_POINT('',#999);
#589=VERTEX_POINT('',#1000);
#590=VERTEX_POINT('',#1001);
#591=VERTEX_POINT('',#1002);
#592=VERTEX_POINT('',#1003);
#593=VERTEX_POINT('',#1004);
#594=VERTEX_POINT('',#1005);
#595=VERTEX_POINT('',#1006);
#596=VERTEX_POINT('',#1007);
#597=VERTEX_POINT('',#1008);
#598=VERTEX_POINT('',#1009);
#599=VERTEX_POINT('',#1010);
#600=VERTEX_POINT('',#1011);
#601=VERTEX_POINT('',#1012);
#602=VERTEX_POINT('',#1013);
#603=VERTEX_POINT('',#1014);
#604=VERTEX_POINT('',#1015);
#605=VERTEX_POINT('',#1016);
#606=VERTEX_POINT('',#1017);
#607=VERTEX_POINT('',#1018);
#608=VERTEX_POINT('',#1019);
#609=VERTEX_POINT('',#1020);
#610=VERTEX_POINT('',#1021);
#611=VERTEX_POINT('',#1022);
#612=VERTEX_POINT('',#1023);
#613=VERTEX_POINT('',#1024);
#614=VERTEX_POINT('',#1025);
#615=VERTEX_POINT('',#1026);
#616=VERTEX_POINT('',#1027);
#617=VERTEX_POINT('',#1028);
#618=VERTEX_POINT('',#1029);
#619=(
BOUNDED_SURFACE()
B_SPLINE_SURFACE(2,2,((#951,#952,#953,#954,#955),(#956,#957,#958,#959,#960),
(#961,#962,#963,#964,#965)),.UNSPECIFIED.,.F.,.F.,.F.)
B_SPLINE_SURFACE_WITH_KNOTS((3,3),(3,2,3),(0.785398163397441,2.35619449019234),
(2.28480849704984,3.11981075497765,3.95481301290545),.UNSPECIFIED.)
GEOMETRIC_REPRESENTATION_ITEM()
RATIONAL_B_SPLINE_SURFACE(((1.,0.922369618366428,1.,0.922369618366428,1.),
(0.707106781186543,0.652213811907345,0.707106781186543,0.652213811907345,
0.707106781186543),(1.,0.922369618366428,1.,0.922369618366428,1.)))
REPRESENTATION_ITEM('')
SURFACE()
);
#620=PLANE('',#747);
#621=PLANE('',#752);
#622=PLANE('',#753);
#623=PLANE('',#754);
#624=PLANE('',#755);
#625=PLANE('',#756);
#626=PLANE('',#766);
#627=PLANE('',#767);
#628=PLANE('',#768);
#629=PLANE('',#769);
#630=PLANE('',#770);
#631=PLANE('',#771);
#632=PLANE('',#772);
#633=PLANE('',#773);
#634=PLANE('',#774);
#635=PLANE('',#775);
#636=PLANE('',#776);
#637=CYLINDRICAL_SURFACE('',#744,20.);
#638=CYLINDRICAL_SURFACE('',#745,20.);
#639=CYLINDRICAL_SURFACE('',#746,20.0000000000001);
#640=CYLINDRICAL_SURFACE('',#748,18.);
#641=CYLINDRICAL_SURFACE('',#749,17.9999999999999);
#642=CYLINDRICAL_SURFACE('',#750,18.0000000000001);
#643=CYLINDRICAL_SURFACE('',#751,17.9999999999999);
#644=CYLINDRICAL_SURFACE('',#757,20.);
#645=CYLINDRICAL_SURFACE('',#758,20.0000000000001);
#646=CYLINDRICAL_SURFACE('',#759,20.);
#647=CYLINDRICAL_SURFACE('',#760,20.);
#648=CYLINDRICAL_SURFACE('',#761,17.9999999999999);
#649=CYLINDRICAL_SURFACE('',#762,18.0000000000002);
#650=CYLINDRICAL_SURFACE('',#763,18.);
#651=CYLINDRICAL_SURFACE('',#764,17.9999999999994);
#652=CYLINDRICAL_SURFACE('',#765,20.);
#653=CYLINDRICAL_SURFACE('',#777,0.999999999999979);
#654=CYLINDRICAL_SURFACE('',#778,1.00000000000003);
#655=CYLINDRICAL_SURFACE('',#779,1.00000000000004);
#656=SHAPE_DEFINITION_REPRESENTATION(#657,#742);
#657=PRODUCT_DEFINITION_SHAPE($,$,#659);
#658=PRODUCT_DEFINITION_CONTEXT('3D Mechanical Parts',#731,'design');
#659=PRODUCT_DEFINITION('A','First version',#701,#658);
#660=DATE_TIME_ROLE('classification_date');
#661=DATE_TIME_ROLE('creation_date');
#662=APPLIED_DATE_AND_TIME_ASSIGNMENT(#686,#660,(#665));
#663=APPLIED_DATE_AND_TIME_ASSIGNMENT(#688,#661,(#659));
#664=SECURITY_CLASSIFICATION_LEVEL('unclassified');
#665=SECURITY_CLASSIFICATION('A','Security for version',#664);
#666=APPLIED_SECURITY_CLASSIFICATION_ASSIGNMENT(#665,(#701));
#667=APPROVAL_ROLE('Version approval');
#668=APPROVAL_ROLE('Version Security approval');
#669=APPROVAL_ROLE('Definition approval');
#670=APPROVAL_PERSON_ORGANIZATION(#719,#695,#667);
#671=APPROVAL_PERSON_ORGANIZATION(#720,#696,#668);
#672=APPROVAL_PERSON_ORGANIZATION(#723,#697,#669);
#673=COORDINATED_UNIVERSAL_TIME_OFFSET(5,0,.BEHIND.);
#674=LOCAL_TIME(0,0,0.,#673);
#675=LOCAL_TIME(0,0,0.,#673);
#676=LOCAL_TIME(0,0,0.,#673);
#677=LOCAL_TIME(0,0,0.,#673);
#678=LOCAL_TIME(0,0,0.,#673);
#679=CALENDAR_DATE(1999,1,1);
#680=CALENDAR_DATE(1999,1,1);
#681=CALENDAR_DATE(1999,1,1);
#682=CALENDAR_DATE(1999,1,1);
#683=CALENDAR_DATE(1999,1,1);
#684=DATE_AND_TIME(#679,#674);
#685=DATE_AND_TIME(#680,#675);
#686=DATE_AND_TIME(#681,#676);
#687=DATE_AND_TIME(#682,#677);
#688=DATE_AND_TIME(#683,#678);
#689=APPROVAL_DATE_TIME(#684,#695);
#690=APPROVAL_DATE_TIME(#685,#696);
#691=APPROVAL_DATE_TIME(#687,#697);
#692=APPROVAL_STATUS('not_yet_approved');
#693=APPROVAL_STATUS('not_yet_approved');
#694=APPROVAL_STATUS('approved');
#695=APPROVAL(#692,'Version approval');
#696=APPROVAL(#693,'Version Security approval');
#697=APPROVAL(#694,'Definition approval');
#698=APPLIED_APPROVAL_ASSIGNMENT(#695,(#701));
#699=APPLIED_APPROVAL_ASSIGNMENT(#696,(#665));
#700=APPLIED_APPROVAL_ASSIGNMENT(#697,(#659));
#701=PRODUCT_DEFINITION_FORMATION_WITH_SPECIFIED_SOURCE('A',
'First version',#733,.MADE.);
#702=PERSON_AND_ORGANIZATION_ROLE('design_owner');
#703=PERSON_AND_ORGANIZATION_ROLE('creator');
#704=PERSON_AND_ORGANIZATION_ROLE('design_supplier');
#705=PERSON_AND_ORGANIZATION_ROLE('classification_officer');
#706=PERSON_AND_ORGANIZATION_ROLE('creator');
#707=ORGANIZATION('STI','lab','lab');
#708=ORGANIZATION('STI','unknown','unknown');
#709=ORGANIZATION('STI','unknown','unknown');
#710=ORGANIZATION('STI','unknown','unknown');
#711=ORGANIZATION('STI','unknown','unknown');
#712=ORGANIZATION('STI','unknown','unknown');
#713=ORGANIZATION('STI','unknown','unknown');
#714=PERSON('1','Box','vc60',$,$,$);
#715=PERSON('2','last','first',$,$,$);
#716=PERSON('3','President','Mr.',$,$,$);
#717=PERSON_AND_ORGANIZATION(#714,#707);
#718=PERSON_AND_ORGANIZATION(#715,#708);
#719=PERSON_AND_ORGANIZATION(#716,#709);
#720=PERSON_AND_ORGANIZATION(#716,#710);
#721=PERSON_AND_ORGANIZATION(#716,#711);
#722=PERSON_AND_ORGANIZATION(#715,#712);
#723=PERSON_AND_ORGANIZATION(#716,#713);
#724=APPLIED_PERSON_AND_ORGANIZATION_ASSIGNMENT(#717,#702,(#733));
#725=APPLIED_PERSON_AND_ORGANIZATION_ASSIGNMENT(#718,#703,(#701));
#726=APPLIED_PERSON_AND_ORGANIZATION_ASSIGNMENT(#718,#704,(#701));
#727=APPLIED_PERSON_AND_ORGANIZATION_ASSIGNMENT(#721,#705,(#665));
#728=APPLIED_PERSON_AND_ORGANIZATION_ASSIGNMENT(#722,#706,(#659));
#729=PRODUCT_RELATED_PRODUCT_CATEGORY('detail','detail',(#733));
#730=APPLICATION_PROTOCOL_DEFINITION('International Standard',
'config_control_design',1994,#731);
#731=APPLICATION_CONTEXT(
'configuration controlled 3d designs of mechanical parts and assemblie
s');
#732=PRODUCT_CONTEXT('3D Mechanical Parts',#731,'mechanical');
#733=PRODUCT('Document','Document','',(#732));
#734=(
LENGTH_UNIT()
NAMED_UNIT(*)
SI_UNIT(.MILLI.,.METRE.)
);
#735=(
NAMED_UNIT(*)
PLANE_ANGLE_UNIT()
SI_UNIT($,.RADIAN.)
);
#736=DIMENSIONAL_EXPONENTS(0.,0.,0.,0.,0.,0.,0.);
#737=PLANE_ANGLE_MEASURE_WITH_UNIT(PLANE_ANGLE_MEASURE(0.01745329252),#735);
#738=(
CONVERSION_BASED_UNIT('DEGREES',#737)
NAMED_UNIT(#736)
PLANE_ANGLE_UNIT()
);
#739=(
NAMED_UNIT(*)
SI_UNIT($,.STERADIAN.)
SOLID_ANGLE_UNIT()
);
#740=UNCERTAINTY_MEASURE_WITH_UNIT(LENGTH_MEASURE(0.001),#734,
'DISTANCE_ACCURACY_VALUE',
'Maximum model space distance between geometric entities at asserted c
onnectivities');
#741=(
GEOMETRIC_REPRESENTATION_CONTEXT(3)
GLOBAL_UNCERTAINTY_ASSIGNED_CONTEXT((#740))
GLOBAL_UNIT_ASSIGNED_CONTEXT((#739,#738,#734))
REPRESENTATION_CONTEXT('ID1','3D')
);
#742=SHAPE_REPRESENTATION('Document',(#743,#810,#811),#741);
#743=AXIS2_PLACEMENT_3D($,#914,#812,#813);
#744=AXIS2_PLACEMENT_3D('',#915,#814,$);
#745=AXIS2_PLACEMENT_3D('',#916,#815,$);
#746=AXIS2_PLACEMENT_3D('',#917,#816,$);
#747=AXIS2_PLACEMENT_3D('',#918,#817,$);
#748=AXIS2_PLACEMENT_3D('',#919,#818,$);
#749=AXIS2_PLACEMENT_3D('',#920,#819,$);
#750=AXIS2_PLACEMENT_3D('',#921,#820,$);
#751=AXIS2_PLACEMENT_3D('',#922,#821,$);
#752=AXIS2_PLACEMENT_3D('',#923,#822,$);
#753=AXIS2_PLACEMENT_3D('',#924,#823,$);
#754=AXIS2_PLACEMENT_3D('',#925,#824,$);
#755=AXIS2_PLACEMENT_3D('',#926,#825,$);
#756=AXIS2_PLACEMENT_3D('',#927,#826,$);
#757=AXIS2_PLACEMENT_3D('',#928,#827,$);
#758=AXIS2_PLACEMENT_3D('',#929,#828,$);
#759=AXIS2_PLACEMENT_3D('',#930,#829,$);
#760=AXIS2_PLACEMENT_3D('',#931,#830,$);
#761=AXIS2_PLACEMENT_3D('',#932,#831,$);
#762=AXIS2_PLACEMENT_3D('',#933,#832,$);
#763=AXIS2_PLACEMENT_3D('',#934,#833,$);
#764=AXIS2_PLACEMENT_3D('',#935,#834,$);
#765=AXIS2_PLACEMENT_3D('',#936,#835,$);
#766=AXIS2_PLACEMENT_3D('',#937,#836,$);
#767=AXIS2_PLACEMENT_3D('',#938,#837,$);
#768=AXIS2_PLACEMENT_3D('',#939,#838,$);
#769=AXIS2_PLACEMENT_3D('',#940,#839,$);
#770=AXIS2_PLACEMENT_3D('',#941,#840,$);
#771=AXIS2_PLACEMENT_3D('',#942,#841,$);
#772=AXIS2_PLACEMENT_3D('',#943,#842,$);
#773=AXIS2_PLACEMENT_3D('',#944,#843,$);
#774=AXIS2_PLACEMENT_3D('',#945,#844,$);
#775=AXIS2_PLACEMENT_3D('',#946,#845,$);
#776=AXIS2_PLACEMENT_3D('',#947,#846,$);
#777=AXIS2_PLACEMENT_3D('',#948,#847,$);
#778=AXIS2_PLACEMENT_3D('',#949,#848,$);
#779=AXIS2_PLACEMENT_3D('',#950,#849,$);
#780=AXIS2_PLACEMENT_3D($,#1036,#850,#851);
#781=AXIS2_PLACEMENT_3D($,#1041,#852,#853);
#782=AXIS2_PLACEMENT_3D($,#1048,#854,#855);
#783=AXIS2_PLACEMENT_3D($,#1053,#856,#857);
#784=AXIS2_PLACEMENT_3D($,#1060,#858,#859);
#785=AXIS2_PLACEMENT_3D($,#1065,#860,#861);
#786=AXIS2_PLACEMENT_3D($,#1070,#862,#863);
#787=AXIS2_PLACEMENT_3D($,#1073,#864,#865);
#788=AXIS2_PLACEMENT_3D($,#1080,#866,#867);
#789=AXIS2_PLACEMENT_3D($,#1085,#868,#869);
#790=AXIS2_PLACEMENT_3D($,#1090,#870,#871);
#791=AXIS2_PLACEMENT_3D($,#1095,#872,#873);
#792=AXIS2_PLACEMENT_3D($,#1100,#874,#875);
#793=AXIS2_PLACEMENT_3D($,#1105,#876,#877);
#794=AXIS2_PLACEMENT_3D($,#1108,#878,#879);
#795=AXIS2_PLACEMENT_3D($,#1123,#880,#881);
#796=AXIS2_PLACEMENT_3D($,#1128,#882,#883);
#797=AXIS2_PLACEMENT_3D($,#1133,#884,#885);
#798=AXIS2_PLACEMENT_3D($,#1142,#886,#887);
#799=AXIS2_PLACEMENT_3D($,#1147,#888,#889);
#800=AXIS2_PLACEMENT_3D($,#1152,#890,#891);
#801=AXIS2_PLACEMENT_3D($,#1157,#892,#893);
#802=AXIS2_PLACEMENT_3D($,#1166,#894,#895);
#803=AXIS2_PLACEMENT_3D($,#1226,#896,#897);
#804=AXIS2_PLACEMENT_3D($,#1234,#898,#899);
#805=AXIS2_PLACEMENT_3D($,#1271,#900,#901);
#806=AXIS2_PLACEMENT_3D($,#1274,#902,#903);
#807=AXIS2_PLACEMENT_3D($,#1277,#904,#905);
#808=AXIS2_PLACEMENT_3D($,#1280,#906,#907);
#809=AXIS2_PLACEMENT_3D($,#1283,#908,#909);
#810=AXIS2_PLACEMENT_3D($,#1337,#910,#911);
#811=AXIS2_PLACEMENT_3D($,#1338,#912,#913);
#812=DIRECTION('',(0.,0.,1.));
#813=DIRECTION('',(1.,0.,0.));
#814=DIRECTION('',(0.,0.,1.));
#815=DIRECTION('',(-8.57700954658858E-16,-8.57700954658858E-16,1.));
#816=DIRECTION('',(0.,0.,1.));
#817=DIRECTION('',(0.,0.,1.));
#818=DIRECTION('',(0.,0.,1.));
#819=DIRECTION('',(-9.53001060732064E-16,-9.53001060732064E-16,1.));
#820=DIRECTION('',(0.,0.,1.));
#821=DIRECTION('',(0.,0.,1.));
#822=DIRECTION('',(0.,0.,1.));
#823=DIRECTION('',(0.,0.,-1.));
#824=DIRECTION('',(0.,1.,0.));
#825=DIRECTION('',(1.,0.,0.));
#826=DIRECTION('',(0.,0.,1.));
#827=DIRECTION('',(4.28850477329432E-16,-4.28850477329429E-16,1.));
#828=DIRECTION('',(0.,0.,1.));
#829=DIRECTION('',(4.2885047732943E-16,-4.2885047732943E-16,1.));
#830=DIRECTION('',(0.,0.,1.));
#831=DIRECTION('',(0.,0.,1.));
#832=DIRECTION('',(-4.76500530366039E-16,-4.76500530366039E-16,1.));
#833=DIRECTION('',(4.76500530366035E-16,-4.76500530366035E-16,1.));
#834=DIRECTION('',(-1.33062102309878E-15,-4.38660903360742E-15,1.));
#835=DIRECTION('',(0.,0.,1.));
#836=DIRECTION('',(0.,1.,0.));
#837=DIRECTION('',(-1.,0.,0.));
#838=DIRECTION('',(0.,-1.,0.));
#839=DIRECTION('',(0.,-1.,0.));
#840=DIRECTION('',(1.,0.,0.));
#841=DIRECTION('',(0.,1.,0.));
#842=DIRECTION('',(-1.,0.,0.));
#843=DIRECTION('',(0.,-1.,0.));
#844=DIRECTION('',(-1.,0.,0.));
#845=DIRECTION('',(1.,0.,0.));
#846=DIRECTION('',(0.,0.,-1.));
#847=DIRECTION('',(1.,1.20078133652236E-13,-1.20078133652238E-13));
#848=DIRECTION('',(-2.89537193094205E-13,-1.,3.10853475167015E-13));
#849=DIRECTION('',(-8.25905064406434E-13,-8.29457778085216E-13,-1.));
#850=DIRECTION('',(0.,0.,1.));
#851=DIRECTION('',(0.,1.,0.));
#852=DIRECTION('',(-1.71540190931772E-15,1.71540190931772E-15,1.));
#853=DIRECTION('',(0.,1.,-1.4210854715202E-15));
#854=DIRECTION('',(-8.57700954658858E-16,-8.57700954658858E-16,1.));
#855=DIRECTION('',(-1.,0.,-1.06581410364015E-15));
#856=DIRECTION('',(0.,0.,1.));
#857=DIRECTION('',(-1.,0.,0.));
#858=DIRECTION('',(8.57700954658861E-16,-8.57700954658861E-16,1.));
#859=DIRECTION('',(3.19744231092044E-15,-1.,-1.06581410364015E-15));
#860=DIRECTION('',(0.,0.,1.));
#861=DIRECTION('',(3.19744231092044E-15,-1.,0.));
#862=DIRECTION('',(1.32731798085914E-15,1.10774820027964E-15,1.));
#863=DIRECTION('',(1.,-9.94759830064166E-15,-1.42108547152024E-15));
#864=DIRECTION('',(0.,0.,1.));
#865=DIRECTION('',(1.,2.48689957516035E-15,0.));
#866=DIRECTION('',(0.,0.,1.));
#867=DIRECTION('',(3.15796771448934E-15,1.,0.));
#868=DIRECTION('',(-1.90600212146412E-15,1.90600212146412E-15,1.));
#869=DIRECTION('',(3.15796771448934E-15,1.,-1.57898385724467E-15));
#870=DIRECTION('',(0.,0.,1.));
#871=DIRECTION('',(-1.,3.15796771448934E-15,0.));
#872=DIRECTION('',(0.,0.,1.));
#873=DIRECTION('',(-1.,3.15796771448934E-15,0.));
#874=DIRECTION('',(9.53001060732071E-16,-9.53001060732071E-16,1.));
#875=DIRECTION('',(5.13169753604514E-15,-1.,-7.8949192862233E-16));
#876=DIRECTION('',(0.,0.,1.));
#877=DIRECTION('',(5.13169753604514E-15,-1.,0.));
#878=DIRECTION('',(0.,0.,1.));
#879=DIRECTION('',(1.,-3.94745964311168E-16,0.));
#880=DIRECTION('',(0.,0.,1.));
#881=DIRECTION('',(-4.26325641456059E-15,1.,0.));
#882=DIRECTION('',(0.,0.,1.));
#883=DIRECTION('',(-1.,-2.84217094304039E-15,0.));
#884=DIRECTION('',(0.,0.,1.));
#885=DIRECTION('',(4.97379915032067E-15,-1.,0.));
#886=DIRECTION('',(0.,0.,1.));
#887=DIRECTION('',(0.599999999999997,0.800000000000002,0.));
#888=DIRECTION('',(0.,0.,-1.));
#889=DIRECTION('',(-1.,-8.68441121484571E-15,0.));
#890=DIRECTION('',(5.95625662957551E-17,5.95625662957551E-17,-1.));
#891=DIRECTION('',(-1.26318708579572E-14,-1.,-4.93432455388951E-17));
#892=DIRECTION('',(0.,0.,-1.));
#893=DIRECTION('',(1.,-3.15796771448932E-15,0.));
#894=DIRECTION('',(-8.31638139436746E-17,-2.74163064600466E-16,-1.));
#895=DIRECTION('',(0.,1.,-2.71387850463933E-16));
#896=DIRECTION('',(5.32248409239537E-15,1.75464361344307E-14,1.));
#897=DIRECTION('',(0.555555555555548,0.831479419283103,-1.77635683940017E-14));
#898=DIRECTION('',(1.67230026490957E-15,3.24054395532848E-15,1.));
#899=DIRECTION('',(0.599999999999991,0.800000000000007,-3.55271367880038E-15));
#900=DIRECTION('',(1.,1.37232152745417E-13,-1.37232152745419E-13));
#901=DIRECTION('',(1.35003119794416E-13,-1.42108547152017E-14,1.));
#902=DIRECTION('',(-1.,-1.37232152745415E-13,1.37232152745417E-13));
#903=DIRECTION('',(1.35003119794417E-13,-1.,7.1054273576009E-15));
#904=DIRECTION('',(6.34698706447553E-13,6.34698706447544E-13,1.));
#905=DIRECTION('',(-1.,0.,6.32383034826485E-13));
#906=DIRECTION('',(-6.25130386290909E-13,-6.29793322994374E-13,-1.));
#907=DIRECTION('',(-6.39488462183963E-14,-1.,6.29718499567263E-13));
#908=DIRECTION('',(-3.43080381863547E-14,-1.,3.4308038186355E-14));
#909=DIRECTION('',(-7.1054273576009E-15,2.84217094304036E-14,1.));
#910=DIRECTION('',(0.,0.,1.));
#911=DIRECTION('',(1.,0.,0.));
#912=DIRECTION('',(0.,0.,1.));
#913=DIRECTION('',(1.,0.,0.));
#914=CARTESIAN_POINT('',(0.,0.,0.));
#915=CARTESIAN_POINT('',(-163.,-55.,52.5));
#916=CARTESIAN_POINT('',(-163.,-161.,52.5));
#917=CARTESIAN_POINT('',(-57.0000000000001,-161.,52.5));
#918=CARTESIAN_POINT('',(-201.25,-199.25,65.));
#919=CARTESIAN_POINT('',(-163.,-55.,52.5));
#920=CARTESIAN_POINT('',(-163.,-161.,52.5));
#921=CARTESIAN_POINT('',(-57.0000000000001,-161.,52.5));
#922=CARTESIAN_POINT('',(-56.9999999999999,-54.9999999999999,52.5));
#923=CARTESIAN_POINT('',(-48.2500000000016,-81.9150635094615,42.));
#924=CARTESIAN_POINT('',(-201.25,-199.25,0.));
#925=CARTESIAN_POINT('',(-37.,-75.,0.));
#926=CARTESIAN_POINT('',(-45.,-75.,0.));
#927=CARTESIAN_POINT('',(-201.25,-199.25,2.));
#928=CARTESIAN_POINT('',(-163.,-55.,20.));
#929=CARTESIAN_POINT('',(-163.,-161.,20.));
#930=CARTESIAN_POINT('',(-57.,-161.,20.));
#931=CARTESIAN_POINT('',(-57.,-55.,20.));
#932=CARTESIAN_POINT('',(-163.,-54.9999999999999,20.));
#933=CARTESIAN_POINT('',(-163.,-161.,20.));
#934=CARTESIAN_POINT('',(-57.0000000000001,-161.,20.));
#935=CARTESIAN_POINT('',(-57.,-54.9999999999994,19.9999999999999));
#936=CARTESIAN_POINT('',(-57.,-55.,52.5));
#937=CARTESIAN_POINT('',(-57.,-35.,0.));
#938=CARTESIAN_POINT('',(-183.,-55.,0.));
#939=CARTESIAN_POINT('',(-163.,-181.,0.));
#940=CARTESIAN_POINT('',(-57.,-37.,0.));
#941=CARTESIAN_POINT('',(-181.,-55.,0.));
#942=CARTESIAN_POINT('',(-163.,-179.,0.));
#943=CARTESIAN_POINT('',(-39.,-161.,0.));
#944=CARTESIAN_POINT('',(-47.,-77.,0.));
#945=CARTESIAN_POINT('',(-47.,-37.6794919243076,0.));
#946=CARTESIAN_POINT('',(-37.,-161.,0.));
#947=CARTESIAN_POINT('',(-45.8000000000002,-78.6000000000002,40.));
#948=CARTESIAN_POINT('',(-42.5000000000001,-76.,41.));
#949=CARTESIAN_POINT('',(-46.,-58.0166852264522,41.));
#950=CARTESIAN_POINT('',(-46.,-76.,21.4999999999992));
#951=CARTESIAN_POINT('',(-46.4921463413441,-76.7070195471777,40.4921463413441));
#952=CARTESIAN_POINT('',(-46.7015314257709,-76.7116712968706,40.7015314257709));
#953=CARTESIAN_POINT('',(-46.8507657128854,-76.5039115292667,40.8507657128854));
#954=CARTESIAN_POINT('',(-47.,-76.2961517616628,41.));
#955=CARTESIAN_POINT('',(-47.,-76.,41.));
#956=CARTESIAN_POINT('',(-45.9842926826882,-77.4140390943555,40.9842926826882));
#957=CARTESIAN_POINT('',(-46.4030628515417,-77.4233425937413,41.4030628515417));
#958=CARTESIAN_POINT('',(-46.7015314257709,-77.0078230585335,41.7015314257709));
#959=CARTESIAN_POINT('',(-47.,-76.5923035233257,42.));
#960=CARTESIAN_POINT('',(-47.,-76.,42.));
#961=CARTESIAN_POINT('',(-45.4921463413441,-76.7070195471777,41.4921463413441));
#962=CARTESIAN_POINT('',(-45.7015314257708,-76.7116712968706,41.7015314257709));
#963=CARTESIAN_POINT('',(-45.8507657128854,-76.5039115292667,41.8507657128854));
#964=CARTESIAN_POINT('',(-46.,-76.2961517616628,42.));
#965=CARTESIAN_POINT('',(-46.,-76.,42.));
#966=CARTESIAN_POINT('',(-57.0000000000001,-35.,40.));
#967=CARTESIAN_POINT('',(-163.,-35.,40.));
#968=CARTESIAN_POINT('',(-163.,-35.,65.));
#969=CARTESIAN_POINT('',(-57.0000000000001,-35.,65.));
#970=CARTESIAN_POINT('',(-183.,-55.,40.));
#971=CARTESIAN_POINT('',(-183.,-55.,65.));
#972=CARTESIAN_POINT('',(-183.,-161.,40.));
#973=CARTESIAN_POINT('',(-183.,-161.,65.));
#974=CARTESIAN_POINT('',(-163.,-181.,40.));
#975=CARTESIAN_POINT('',(-163.,-181.,65.));
#976=CARTESIAN_POINT('',(-57.,-181.,40.));
#977=CARTESIAN_POINT('',(-57.,-181.,65.));
#978=CARTESIAN_POINT('',(-37.,-161.,40.));
#979=CARTESIAN_POINT('',(-37.,-161.,65.));
#980=CARTESIAN_POINT('',(-37.,-54.9999999999999,40.));
#981=CARTESIAN_POINT('',(-37.,-54.9999999999999,65.));
#982=CARTESIAN_POINT('',(-57.0000000000001,-37.,40.));
#983=CARTESIAN_POINT('',(-163.,-37.,40.));
#984=CARTESIAN_POINT('',(-181.,-55.,40.));
#985=CARTESIAN_POINT('',(-181.,-161.,40.));
#986=CARTESIAN_POINT('',(-163.,-179.,40.));
#987=CARTESIAN_POINT('',(-57.,-179.,40.));
#988=CARTESIAN_POINT('',(-39.,-161.,40.));
#989=CARTESIAN_POINT('',(-57.0000000000001,-37.,65.));
#990=CARTESIAN_POINT('',(-163.,-37.,65.));
#991=CARTESIAN_POINT('',(-181.,-55.,65.));
#992=CARTESIAN_POINT('',(-181.,-161.,65.));
#993=CARTESIAN_POINT('',(-163.,-179.,65.));
#994=CARTESIAN_POINT('',(-57.,-179.,65.));
#995=CARTESIAN_POINT('',(-39.,-161.,65.));
#996=CARTESIAN_POINT('',(-39.,-54.9999999999999,65.));
#997=CARTESIAN_POINT('',(-57.,-35.,0.));
#998=CARTESIAN_POINT('',(-163.,-35.,0.));
#999=CARTESIAN_POINT('',(-183.,-55.,0.));
#1000=CARTESIAN_POINT('',(-183.,-161.,0.));
#1001=CARTESIAN_POINT('',(-163.,-181.,0.));
#1002=CARTESIAN_POINT('',(-57.,-181.,0.));
#1003=CARTESIAN_POINT('',(-37.,-161.,0.));
#1004=CARTESIAN_POINT('',(-37.,-75.,0.));
#1005=CARTESIAN_POINT('',(-45.,-75.,0.));
#1006=CARTESIAN_POINT('',(-45.,-39.,0.));
#1007=CARTESIAN_POINT('',(-163.,-37.,2.));
#1008=CARTESIAN_POINT('',(-57.,-37.,2.));
#1009=CARTESIAN_POINT('',(-181.,-55.,2.));
#1010=CARTESIAN_POINT('',(-181.,-161.,2.));
#1011=CARTESIAN_POINT('',(-163.,-179.,2.));
#1012=CARTESIAN_POINT('',(-57.,-179.,2.));
#1013=CARTESIAN_POINT('',(-39.,-161.,2.));
#1014=CARTESIAN_POINT('',(-38.9999999999999,-77.,2.));
#1015=CARTESIAN_POINT('',(-47.0000000000001,-40.0333704529043,2.));
#1016=CARTESIAN_POINT('',(-45.,-75.,40.));
#1017=CARTESIAN_POINT('',(-37.,-75.0000000000002,40.));
#1018=CARTESIAN_POINT('',(-45.,-39.,40.));
#1019=CARTESIAN_POINT('',(-47.,-40.0333704529043,40.));
#1020=CARTESIAN_POINT('',(-39.,-54.9999999999999,42.));
#1021=CARTESIAN_POINT('',(-45.9999999999999,-77.,2.));
#1022=CARTESIAN_POINT('',(-47.,-75.9999999999999,2.));
#1023=CARTESIAN_POINT('',(-39.,-76.,42.));
#1024=CARTESIAN_POINT('',(-47.0000000000004,-40.0333704529038,41.));
#1025=CARTESIAN_POINT('',(-45.9999981642931,-40.7521958334677,42.));
#1026=CARTESIAN_POINT('',(-39.,-77.,41.));
#1027=CARTESIAN_POINT('',(-46.,-76.,42.));
#1028=CARTESIAN_POINT('',(-46.,-77.,41.));
#1029=CARTESIAN_POINT('',(-47.,-76.,41.));
#1030=CARTESIAN_POINT('',(-163.,-35.,40.));
#1031=CARTESIAN_POINT('',(-163.,-35.,65.));
#1032=CARTESIAN_POINT('',(-57.0000000000001,-35.,65.));
#1033=CARTESIAN_POINT('',(-163.,-35.,65.));
#1034=CARTESIAN_POINT('',(-57.0000000000001,-35.,40.));
#1035=CARTESIAN_POINT('',(-57.0000000000001,-35.,65.));
#1036=CARTESIAN_POINT('',(-163.,-55.,40.));
#1037=CARTESIAN_POINT('',(-163.,-35.,40.));
#1038=CARTESIAN_POINT('',(-183.,-55.,40.));
#1039=CARTESIAN_POINT('',(-183.,-55.,40.));
#1040=CARTESIAN_POINT('',(-183.,-55.,65.));
#1041=CARTESIAN_POINT('',(-163.,-55.,65.));
#1042=CARTESIAN_POINT('',(-163.,-35.,65.));
#1043=CARTESIAN_POINT('',(-183.,-55.,65.));
#1044=CARTESIAN_POINT('',(-183.,-161.,40.));
#1045=CARTESIAN_POINT('',(-183.,-161.,65.));
#1046=CARTESIAN_POINT('',(-183.,-55.,65.));
#1047=CARTESIAN_POINT('',(-183.,-161.,65.));
#1048=CARTESIAN_POINT('',(-163.,-161.,40.));
#1049=CARTESIAN_POINT('',(-183.,-161.,40.));
#1050=CARTESIAN_POINT('',(-163.,-181.,40.));
#1051=CARTESIAN_POINT('',(-163.,-181.,40.));
#1052=CARTESIAN_POINT('',(-163.,-181.,65.));
#1053=CARTESIAN_POINT('',(-163.,-161.,65.));
#1054=CARTESIAN_POINT('',(-183.,-161.,65.));
#1055=CARTESIAN_POINT('',(-163.,-181.,65.));
#1056=CARTESIAN_POINT('',(-57.,-181.,40.));
#1057=CARTESIAN_POINT('',(-57.,-181.,65.));
#1058=CARTESIAN_POINT('',(-163.,-181.,65.));
#1059=CARTESIAN_POINT('',(-57.,-181.,65.));
#1060=CARTESIAN_POINT('',(-57.0000000000001,-161.,40.));
#1061=CARTESIAN_POINT('',(-57.,-181.,40.));
#1062=CARTESIAN_POINT('',(-37.,-161.,40.));
#1063=CARTESIAN_POINT('',(-37.,-161.,40.));
#1064=CARTESIAN_POINT('',(-37.,-161.,65.));
#1065=CARTESIAN_POINT('',(-57.0000000000001,-161.,65.));
#1066=CARTESIAN_POINT('',(-57.,-181.,65.));
#1067=CARTESIAN_POINT('',(-37.,-161.,65.));
#1068=CARTESIAN_POINT('',(-37.,-161.,65.));
#1069=CARTESIAN_POINT('',(-37.,-54.9999999999999,65.));
#1070=CARTESIAN_POINT('',(-56.9999999999995,-54.9999999999997,40.));
#1071=CARTESIAN_POINT('',(-37.,-54.9999999999999,40.));
#1072=CARTESIAN_POINT('',(-45.,-39.,40.));
#1073=CARTESIAN_POINT('',(-57.,-55.,65.));
#1074=CARTESIAN_POINT('',(-37.,-54.9999999999999,65.));
#1075=CARTESIAN_POINT('',(-57.0000000000001,-35.,65.));
#1076=CARTESIAN_POINT('',(-163.,-37.,40.));
#1077=CARTESIAN_POINT('',(-163.,-37.,65.));
#1078=CARTESIAN_POINT('',(-57.0000000000001,-37.,40.));
#1079=CARTESIAN_POINT('',(-57.0000000000001,-37.,65.));
#1080=CARTESIAN_POINT('',(-163.,-55.,40.));
#1081=CARTESIAN_POINT('',(-163.,-37.,40.));
#1082=CARTESIAN_POINT('',(-181.,-55.,40.));
#1083=CARTESIAN_POINT('',(-181.,-55.,40.));
#1084=CARTESIAN_POINT('',(-181.,-55.,65.));
#1085=CARTESIAN_POINT('',(-163.,-55.,65.));
#1086=CARTESIAN_POINT('',(-163.,-37.,65.));
#1087=CARTESIAN_POINT('',(-181.,-55.,65.));
#1088=CARTESIAN_POINT('',(-181.,-161.,40.));
#1089=CARTESIAN_POINT('',(-181.,-161.,65.));
#1090=CARTESIAN_POINT('',(-163.,-161.,40.));
#1091=CARTESIAN_POINT('',(-181.,-161.,40.));
#1092=CARTESIAN_POINT('',(-163.,-179.,40.));
#1093=CARTESIAN_POINT('',(-163.,-179.,40.));
#1094=CARTESIAN_POINT('',(-163.,-179.,65.));
#1095=CARTESIAN_POINT('',(-163.,-161.,65.));
#1096=CARTESIAN_POINT('',(-181.,-161.,65.));
#1097=CARTESIAN_POINT('',(-163.,-179.,65.));
#1098=CARTESIAN_POINT('',(-57.,-179.,40.));
#1099=CARTESIAN_POINT('',(-57.,-179.,65.));
#1100=CARTESIAN_POINT('',(-57.0000000000001,-161.,40.));
#1101=CARTESIAN_POINT('',(-57.,-179.,40.));
#1102=CARTESIAN_POINT('',(-39.,-161.,40.));
#1103=CARTESIAN_POINT('',(-39.,-161.,40.));
#1104=CARTESIAN_POINT('',(-39.,-161.,65.));
#1105=CARTESIAN_POINT('',(-57.0000000000001,-161.,65.));
#1106=CARTESIAN_POINT('',(-57.,-179.,65.));
#1107=CARTESIAN_POINT('',(-39.,-161.,65.));
#1108=CARTESIAN_POINT('',(-56.9999999999999,-54.9999999999999,65.));
#1109=CARTESIAN_POINT('',(-39.,-54.9999999999999,65.));
#1110=CARTESIAN_POINT('',(-57.0000000000001,-37.,65.));
#1111=CARTESIAN_POINT('',(-57.0000000000001,-37.,65.));
#1112=CARTESIAN_POINT('',(-163.,-37.,65.));
#1113=CARTESIAN_POINT('',(-181.,-55.,65.));
#1114=CARTESIAN_POINT('',(-181.,-161.,65.));
#1115=CARTESIAN_POINT('',(-163.,-179.,65.));
#1116=CARTESIAN_POINT('',(-57.,-179.,65.));
#1117=CARTESIAN_POINT('',(-39.,-161.,65.));
#1118=CARTESIAN_POINT('',(-39.,-54.9999999999999,65.));
#1119=CARTESIAN_POINT('',(-39.,-76.,42.));
#1120=CARTESIAN_POINT('',(-46.,-76.,42.));
#1121=CARTESIAN_POINT('',(-57.,-35.,0.));
#1122=CARTESIAN_POINT('',(-163.,-35.,0.));
#1123=CARTESIAN_POINT('',(-163.,-55.,0.));
#1124=CARTESIAN_POINT('',(-163.,-35.,0.));
#1125=CARTESIAN_POINT('',(-183.,-55.,0.));
#1126=CARTESIAN_POINT('',(-183.,-55.,0.));
#1127=CARTESIAN_POINT('',(-183.,-161.,0.));
#1128=CARTESIAN_POINT('',(-163.,-161.,0.));
#1129=CARTESIAN_POINT('',(-183.,-161.,0.));
#1130=CARTESIAN_POINT('',(-163.,-181.,0.));
#1131=CARTESIAN_POINT('',(-163.,-181.,0.));
#1132=CARTESIAN_POINT('',(-57.,-181.,0.));
#1133=CARTESIAN_POINT('',(-57.0000000000001,-161.,0.));
#1134=CARTESIAN_POINT('',(-57.,-181.,0.));
#1135=CARTESIAN_POINT('',(-37.,-161.,0.));
#1136=CARTESIAN_POINT('',(-37.,-161.,0.));
#1137=CARTESIAN_POINT('',(-37.,-75.,0.));
#1138=CARTESIAN_POINT('',(-37.,-75.,0.));
#1139=CARTESIAN_POINT('',(-45.,-75.,0.));
#1140=CARTESIAN_POINT('',(-45.,-75.,0.));
#1141=CARTESIAN_POINT('',(-45.,-39.,0.));
#1142=CARTESIAN_POINT('',(-57.,-55.0000000000002,0.));
#1143=CARTESIAN_POINT('',(-45.,-39.,0.));
#1144=CARTESIAN_POINT('',(-57.,-35.,0.));
#1145=CARTESIAN_POINT('',(-163.,-37.,2.));
#1146=CARTESIAN_POINT('',(-57.,-37.,2.));
#1147=CARTESIAN_POINT('',(-163.,-54.9999999999999,2.));
#1148=CARTESIAN_POINT('',(-181.,-55.,2.));
#1149=CARTESIAN_POINT('',(-163.,-37.,2.));
#1150=CARTESIAN_POINT('',(-181.,-161.,2.));
#1151=CARTESIAN_POINT('',(-181.,-55.,2.));
#1152=CARTESIAN_POINT('',(-163.,-161.,2.));
#1153=CARTESIAN_POINT('',(-163.,-179.,2.));
#1154=CARTESIAN_POINT('',(-181.,-161.,2.));
#1155=CARTESIAN_POINT('',(-57.,-179.,2.));
#1156=CARTESIAN_POINT('',(-163.,-179.,2.));
#1157=CARTESIAN_POINT('',(-57.0000000000001,-161.,2.));
#1158=CARTESIAN_POINT('',(-39.,-161.,2.));
#1159=CARTESIAN_POINT('',(-57.,-179.,2.));
#1160=CARTESIAN_POINT('',(-38.9999999999999,-77.,2.));
#1161=CARTESIAN_POINT('',(-39.,-161.,2.));
#1162=CARTESIAN_POINT('',(-45.9999999999999,-77.,2.));
#1163=CARTESIAN_POINT('',(-38.9999999999999,-77.,2.));
#1164=CARTESIAN_POINT('',(-47.0000000000001,-40.0333704529043,2.));
#1165=CARTESIAN_POINT('',(-47.,-75.9999999999999,2.));
#1166=CARTESIAN_POINT('',(-57.,-54.9999999999996,2.));
#1167=CARTESIAN_POINT('',(-57.,-37.,2.));
#1168=CARTESIAN_POINT('',(-47.0000000000001,-40.0333704529043,2.));
#1169=CARTESIAN_POINT('',(-163.,-37.,2.));
#1170=CARTESIAN_POINT('',(-163.,-37.,40.));
#1171=CARTESIAN_POINT('',(-57.,-37.,2.));
#1172=CARTESIAN_POINT('',(-57.0000000000001,-37.,40.));
#1173=CARTESIAN_POINT('',(-181.,-55.,2.));
#1174=CARTESIAN_POINT('',(-181.,-55.,40.));
#1175=CARTESIAN_POINT('',(-181.,-161.,2.));
#1176=CARTESIAN_POINT('',(-181.,-161.,40.));
#1177=CARTESIAN_POINT('',(-163.,-179.,2.));
#1178=CARTESIAN_POINT('',(-163.,-179.,40.));
#1179=CARTESIAN_POINT('',(-57.,-179.,2.));
#1180=CARTESIAN_POINT('',(-57.,-179.,40.));
#1181=CARTESIAN_POINT('',(-39.,-161.,2.));
#1182=CARTESIAN_POINT('',(-39.,-161.,40.));
#1183=CARTESIAN_POINT('',(-47.0000000000001,-40.0333704529043,2.));
#1184=CARTESIAN_POINT('',(-47.,-40.0333704529043,40.));
#1185=CARTESIAN_POINT('',(-163.,-35.,0.));
#1186=CARTESIAN_POINT('',(-163.,-35.,2.));
#1187=CARTESIAN_POINT('',(-163.,-35.,40.));
#1188=CARTESIAN_POINT('',(-57.,-35.,0.));
#1189=CARTESIAN_POINT('',(-57.,-35.,2.));
#1190=CARTESIAN_POINT('',(-57.0000000000001,-35.,40.));
#1191=CARTESIAN_POINT('',(-183.,-55.,0.));
#1192=CARTESIAN_POINT('',(-183.,-55.,2.));
#1193=CARTESIAN_POINT('',(-183.,-55.,40.));
#1194=CARTESIAN_POINT('',(-183.,-161.,0.));
#1195=CARTESIAN_POINT('',(-183.,-161.,2.));
#1196=CARTESIAN_POINT('',(-183.,-161.,40.));
#1197=CARTESIAN_POINT('',(-163.,-181.,0.));
#1198=CARTESIAN_POINT('',(-163.,-181.,2.));
#1199=CARTESIAN_POINT('',(-163.,-181.,40.));
#1200=CARTESIAN_POINT('',(-57.,-181.,0.));
#1201=CARTESIAN_POINT('',(-57.,-181.,2.));
#1202=CARTESIAN_POINT('',(-57.,-181.,40.));
#1203=CARTESIAN_POINT('',(-37.,-161.,0.));
#1204=CARTESIAN_POINT('',(-37.,-161.,2.));
#1205=CARTESIAN_POINT('',(-37.,-161.,40.));
#1206=CARTESIAN_POINT('',(-37.,-75.,0.));
#1207=CARTESIAN_POINT('',(-37.,-75.,2.));
#1208=CARTESIAN_POINT('',(-37.,-75.0000000000002,40.));
#1209=CARTESIAN_POINT('',(-45.,-75.,0.));
#1210=CARTESIAN_POINT('',(-45.,-75.,2.));
#1211=CARTESIAN_POINT('',(-45.,-75.,40.));
#1212=CARTESIAN_POINT('',(-45.,-39.,0.));
#1213=CARTESIAN_POINT('',(-45.,-39.,2.));
#1214=CARTESIAN_POINT('',(-45.,-39.,40.));
#1215=CARTESIAN_POINT('',(-39.,-76.,42.));
#1216=CARTESIAN_POINT('',(-39.,-54.9999999999999,42.));
#1217=CARTESIAN_POINT('',(-47.0000000000004,-40.0333704529038,41.));
#1218=CARTESIAN_POINT('',(-47.,-40.0333704529043,40.));
#1219=CARTESIAN_POINT('',(-39.,-54.9999999999999,42.));
#1220=CARTESIAN_POINT('',(-39.0000006119023,-46.1565362392611,42.));
#1221=CARTESIAN_POINT('',(-45.9999981642931,-40.7521958334678,42.));
#1222=CARTESIAN_POINT('',(-37.,-75.0000000000002,40.));
#1223=CARTESIAN_POINT('',(-37.,-54.9999999999999,40.));
#1224=CARTESIAN_POINT('',(-39.,-54.9999999999999,42.));
#1225=CARTESIAN_POINT('',(-39.,-54.9999999999999,65.));
#1226=CARTESIAN_POINT('',(-57.0000000000003,-55.0000000000008,40.0000000000003));
#1227=CARTESIAN_POINT('',(-47.,-40.0333704529043,40.));
#1228=CARTESIAN_POINT('',(-57.0000000000001,-37.,40.));
#1229=CARTESIAN_POINT('',(-46.,-76.,42.));
#1230=CARTESIAN_POINT('',(-45.9999981642931,-40.7521958334677,42.));
#1231=CARTESIAN_POINT('',(-37.,-54.9999999999999,40.));
#1232=CARTESIAN_POINT('',(-37.,-54.9999999999999,42.));
#1233=CARTESIAN_POINT('',(-37.,-54.9999999999999,65.));
#1234=CARTESIAN_POINT('',(-57.0000000000002,-55.0000000000007,40.0000000000001));
#1235=CARTESIAN_POINT('',(-45.,-39.,40.));
#1236=CARTESIAN_POINT('',(-57.0000000000001,-35.,40.));
#1237=CARTESIAN_POINT('',(-38.9999999999999,-77.,2.));
#1238=CARTESIAN_POINT('',(-39.,-77.,41.));
#1239=CARTESIAN_POINT('',(-45.9999981642931,-40.7521958334677,42.));
#1240=CARTESIAN_POINT('',(-46.0281163119184,-40.7304872789661,42.));
#1241=CARTESIAN_POINT('',(-46.0851858361876,-40.6866916554804,41.9975992518317));
#1242=CARTESIAN_POINT('',(-46.1716479394459,-40.6211681190287,41.9864825006102));
#1243=CARTESIAN_POINT('',(-46.2592033247244,-40.5556471458548,41.9672461451071));
#1244=CARTESIAN_POINT('',(-46.3467570852522,-40.4909558656192,41.939487673459));
#1245=CARTESIAN_POINT('',(-46.4331069595546,-40.4279541647534,41.9029970408266));
#1246=CARTESIAN_POINT('',(-46.5169808448641,-40.3675102057339,41.8577886535908));
#1247=CARTESIAN_POINT('',(-46.5970908238762,-40.310461402059,41.8041223063677));
#1248=CARTESIAN_POINT('',(-46.672191644855,-40.2575784702529,41.7425092060988));
#1249=CARTESIAN_POINT('',(-46.7411412127176,-40.2095315254879,41.6737010289112));
#1250=CARTESIAN_POINT('',(-46.8029567380492,-40.1668623030358,41.59866181948));
#1251=CARTESIAN_POINT('',(-46.8568612294711,-40.1299645108957,41.5185245947865));
#1252=CARTESIAN_POINT('',(-46.902315793125,-40.0990737705578,41.4345366739338));
#1253=CARTESIAN_POINT('',(-46.9390349577242,-40.0742674481917,41.3479982250237));
#1254=CARTESIAN_POINT('',(-46.9669842983172,-40.055473698376,41.2602023974344));
#1255=CARTESIAN_POINT('',(-46.9863617730009,-40.0424881758089,41.172373635019));
#1256=CARTESIAN_POINT('',(-46.9975659135561,-40.0349963132584,41.0856407784249));
#1257=CARTESIAN_POINT('',(-46.999999996572,-40.0333704342879,41.0282018258986));
#1258=CARTESIAN_POINT('',(-47.0000000000004,-40.0333704529038,41.));
#1259=CARTESIAN_POINT('',(-37.,-75.0000000000002,40.));
#1260=CARTESIAN_POINT('',(-45.,-75.,40.));
#1261=CARTESIAN_POINT('',(-45.,-75.,40.));
#1262=CARTESIAN_POINT('',(-45.,-39.,40.));
#1263=CARTESIAN_POINT('',(-39.,-77.,41.));
#1264=CARTESIAN_POINT('',(-46.,-77.,41.));
#1265=CARTESIAN_POINT('',(-45.9999999999999,-77.,2.));
#1266=CARTESIAN_POINT('',(-46.,-77.,41.));
#1267=CARTESIAN_POINT('',(-47.,-75.9999999999999,2.));
#1268=CARTESIAN_POINT('',(-47.,-76.,41.));
#1269=CARTESIAN_POINT('',(-47.,-76.,41.));
#1270=CARTESIAN_POINT('',(-47.0000000000004,-40.0333704529038,41.));
#1271=CARTESIAN_POINT('',(-46.0000000000001,-76.,41.));
#1272=CARTESIAN_POINT('',(-46.,-76.,42.));
#1273=CARTESIAN_POINT('',(-46.,-77.,41.));
#1274=CARTESIAN_POINT('',(-39.0000000000001,-76.,41.));
#1275=CARTESIAN_POINT('',(-39.,-77.,41.));
#1276=CARTESIAN_POINT('',(-39.,-76.,42.));
#1277=CARTESIAN_POINT('',(-46.,-76.,40.9999999999994));
#1278=CARTESIAN_POINT('',(-47.,-76.,41.));
#1279=CARTESIAN_POINT('',(-46.,-77.,41.));
#1280=CARTESIAN_POINT('',(-45.9999999999998,-75.9999999999998,1.99999999999937));
#1281=CARTESIAN_POINT('',(-45.9999999999999,-77.,2.));
#1282=CARTESIAN_POINT('',(-47.,-75.9999999999999,2.));
#1283=CARTESIAN_POINT('',(-46.,-76.,41.));
#1284=CARTESIAN_POINT('',(-46.,-76.,42.));
#1285=CARTESIAN_POINT('',(-47.,-76.,41.));
#1286=CARTESIAN_POINT('',(-57.,-35.,0.));
#1287=CARTESIAN_POINT('',(-110.,-35.,0.));
#1288=CARTESIAN_POINT('',(-163.,-35.,0.));
#1289=CARTESIAN_POINT('',(-183.,-35.0000000000001,0.));
#1290=CARTESIAN_POINT('',(-183.,-55.,0.));
#1291=CARTESIAN_POINT('',(-183.,-108.,0.));
#1292=CARTESIAN_POINT('',(-183.,-161.,0.));
#1293=CARTESIAN_POINT('',(-183.,-181.,0.));
#1294=CARTESIAN_POINT('',(-163.,-181.,0.));
#1295=CARTESIAN_POINT('',(-110.,-181.,0.));
#1296=CARTESIAN_POINT('',(-57.,-181.,0.));
#1297=CARTESIAN_POINT('',(-37.,-181.,0.));
#1298=CARTESIAN_POINT('',(-37.,-161.,0.));
#1299=CARTESIAN_POINT('',(-37.,-118.,0.));
#1300=CARTESIAN_POINT('',(-37.,-75.,0.));
#1301=CARTESIAN_POINT('',(-41.,-75.,0.));
#1302=CARTESIAN_POINT('',(-45.,-75.,0.));
#1303=CARTESIAN_POINT('',(-45.,-57.,0.));
#1304=CARTESIAN_POINT('',(-45.,-39.,0.));
#1305=CARTESIAN_POINT('',(-50.3333333333334,-35.,0.));
#1306=CARTESIAN_POINT('',(-57.,-35.,0.));
#1307=CARTESIAN_POINT('',(-57.,-37.,0.));
#1308=CARTESIAN_POINT('',(-110.,-37.,0.));
#1309=CARTESIAN_POINT('',(-163.,-37.,0.));
#1310=CARTESIAN_POINT('',(-181.,-37.,0.));
#1311=CARTESIAN_POINT('',(-181.,-55.,0.));
#1312=CARTESIAN_POINT('',(-181.,-108.,0.));
#1313=CARTESIAN_POINT('',(-181.,-161.,0.));
#1314=CARTESIAN_POINT('',(-181.,-179.,0.));
#1315=CARTESIAN_POINT('',(-163.,-179.,0.));
#1316=CARTESIAN_POINT('',(-110.,-179.,0.));
#1317=CARTESIAN_POINT('',(-57.,-179.,0.));
#1318=CARTESIAN_POINT('',(-39.,-179.,0.));
#1319=CARTESIAN_POINT('',(-39.,-161.,0.));
#1320=CARTESIAN_POINT('',(-39.,-119.,0.));
#1321=CARTESIAN_POINT('',(-38.9999999999999,-77.,0.));
#1322=CARTESIAN_POINT('',(-43.,-77.,0.));
#1323=CARTESIAN_POINT('',(-47.,-77.,0.));
#1324=CARTESIAN_POINT('',(-47.,-58.5166852264521,0.));
#1325=CARTESIAN_POINT('',(-47.0000000000001,-40.0333704529043,0.));
#1326=CARTESIAN_POINT('',(-51.5399331847724,-37.,0.));
#1327=CARTESIAN_POINT('',(-57.,-37.,0.));
#1328=CARTESIAN_POINT('',(-47.,-77.,40.));
#1329=CARTESIAN_POINT('',(-42.,-77.,40.));
#1330=CARTESIAN_POINT('',(-37.,-77.,40.));
#1331=CARTESIAN_POINT('',(-37.,-66.,40.));
#1332=CARTESIAN_POINT('',(-37.,-55.,40.));
#1333=CARTESIAN_POINT('',(-37.,-43.4529946162064,40.));
#1334=CARTESIAN_POINT('',(-47.0000000000007,-37.679491924309,40.));
#1335=CARTESIAN_POINT('',(-47.0000000000003,-57.3397459621545,40.));
#1336=CARTESIAN_POINT('',(-47.,-77.,40.));
#1337=CARTESIAN_POINT('',(0.,0.,0.));
#1338=CARTESIAN_POINT('',(0.,0.,0.));
ENDSEC;
END-ISO-10303-21;
