ISO-10303-21;
HEADER;
/* Generated by software containing ST-Developer
 * from STEP Tools, Inc. (www.steptools.com) 
 */
/* OPTION: using custom schema-name function */

FILE_DESCRIPTION(
/* description */ (''),
/* implementation_level */ '2;1');

FILE_NAME(
/* name */ 'J',
/* time_stamp */ '2026-09-04T13:14:02+03:00',
/* author */ (''),
/* organization */ (''),
/* preprocessor_version */ 'ST-DEVELOPER v19.2',
/* originating_system */ 'Rhino 8.34',
/* authorisation */ '');

FILE_SCHEMA (('CONFIG_CONTROL_DESIGN'));
ENDSEC;

DATA;
#10=SHAPE_REPRESENTATION_RELATIONSHIP('','',#330,#12);
#11=MANIFOLD_SOLID_BREP('brep_1',#13);
#12=ADVANCED_BREP_SHAPE_REPRESENTATION('brep_rep_0',(#11,#347),#329);
#13=CLOSED_SHELL('',(#15,#16,#17,#18,#19,#20,#21,#22,#23,#24,#25,#26,#27,
#28,#29));
#14=FACE_BOUND('',#51,.T.);
#15=ADVANCED_FACE('',(#30),#229,.T.);
#16=ADVANCED_FACE('',(#31),#230,.T.);
#17=ADVANCED_FACE('',(#32),#231,.T.);
#18=ADVANCED_FACE('',(#33),#232,.T.);
#19=ADVANCED_FACE('',(#34),#233,.T.);
#20=ADVANCED_FACE('',(#35,#14),#234,.T.);
#21=ADVANCED_FACE('',(#36),#235,.T.);
#22=ADVANCED_FACE('',(#37),#236,.T.);
#23=ADVANCED_FACE('',(#38),#237,.T.);
#24=ADVANCED_FACE('',(#39),#238,.T.);
#25=ADVANCED_FACE('',(#40),#239,.T.);
#26=ADVANCED_FACE('',(#41),#240,.T.);
#27=ADVANCED_FACE('',(#42),#241,.T.);
#28=ADVANCED_FACE('',(#43),#242,.T.);
#29=ADVANCED_FACE('',(#44),#243,.T.);
#30=FACE_OUTER_BOUND('',#45,.T.);
#31=FACE_OUTER_BOUND('',#46,.T.);
#32=FACE_OUTER_BOUND('',#47,.T.);
#33=FACE_OUTER_BOUND('',#48,.T.);
#34=FACE_OUTER_BOUND('',#49,.T.);
#35=FACE_OUTER_BOUND('',#50,.T.);
#36=FACE_OUTER_BOUND('',#52,.T.);
#37=FACE_OUTER_BOUND('',#53,.T.);
#38=FACE_OUTER_BOUND('',#54,.T.);
#39=FACE_OUTER_BOUND('',#55,.T.);
#40=FACE_OUTER_BOUND('',#56,.T.);
#41=FACE_OUTER_BOUND('',#57,.T.);
#42=FACE_OUTER_BOUND('',#58,.T.);
#43=FACE_OUTER_BOUND('',#59,.T.);
#44=FACE_OUTER_BOUND('',#60,.T.);
#45=EDGE_LOOP('',(#61,#62,#63,#64,#65,#66));
#46=EDGE_LOOP('',(#67,#68,#69,#70));
#47=EDGE_LOOP('',(#71,#72,#73,#74));
#48=EDGE_LOOP('',(#75,#76,#77,#78));
#49=EDGE_LOOP('',(#79,#80,#81,#82));
#50=EDGE_LOOP('',(#83,#84,#85,#86,#87,#88));
#51=EDGE_LOOP('',(#89,#90,#91,#92,#93,#94));
#52=EDGE_LOOP('',(#95,#96,#97,#98,#99,#100));
#53=EDGE_LOOP('',(#101,#102,#103,#104));
#54=EDGE_LOOP('',(#105,#106,#107,#108));
#55=EDGE_LOOP('',(#109,#110,#111,#112));
#56=EDGE_LOOP('',(#113,#114,#115,#116));
#57=EDGE_LOOP('',(#117,#118,#119,#120));
#58=EDGE_LOOP('',(#121,#122,#123,#124));
#59=EDGE_LOOP('',(#125,#126,#127,#128));
#60=EDGE_LOOP('',(#129,#130,#131,#132));
#61=ORIENTED_EDGE('',*,*,#138,.F.);
#62=ORIENTED_EDGE('',*,*,#137,.F.);
#63=ORIENTED_EDGE('',*,*,#136,.F.);
#64=ORIENTED_EDGE('',*,*,#135,.F.);
#65=ORIENTED_EDGE('',*,*,#134,.F.);
#66=ORIENTED_EDGE('',*,*,#133,.F.);
#67=ORIENTED_EDGE('',*,*,#139,.F.);
#68=ORIENTED_EDGE('',*,*,#164,.F.);
#69=ORIENTED_EDGE('',*,*,#133,.T.);
#70=ORIENTED_EDGE('',*,*,#163,.T.);
#71=ORIENTED_EDGE('',*,*,#141,.F.);
#72=ORIENTED_EDGE('',*,*,#165,.F.);
#73=ORIENTED_EDGE('',*,*,#135,.T.);
#74=ORIENTED_EDGE('',*,*,#166,.T.);
#75=ORIENTED_EDGE('',*,*,#142,.F.);
#76=ORIENTED_EDGE('',*,*,#166,.F.);
#77=ORIENTED_EDGE('',*,*,#136,.T.);
#78=ORIENTED_EDGE('',*,*,#167,.T.);
#79=ORIENTED_EDGE('',*,*,#143,.F.);
#80=ORIENTED_EDGE('',*,*,#167,.F.);
#81=ORIENTED_EDGE('',*,*,#137,.T.);
#82=ORIENTED_EDGE('',*,*,#168,.T.);
#83=ORIENTED_EDGE('',*,*,#139,.T.);
#84=ORIENTED_EDGE('',*,*,#140,.T.);
#85=ORIENTED_EDGE('',*,*,#141,.T.);
#86=ORIENTED_EDGE('',*,*,#142,.T.);
#87=ORIENTED_EDGE('',*,*,#143,.T.);
#88=ORIENTED_EDGE('',*,*,#144,.T.);
#89=ORIENTED_EDGE('',*,*,#145,.F.);
#90=ORIENTED_EDGE('',*,*,#150,.F.);
#91=ORIENTED_EDGE('',*,*,#149,.F.);
#92=ORIENTED_EDGE('',*,*,#148,.F.);
#93=ORIENTED_EDGE('',*,*,#147,.F.);
#94=ORIENTED_EDGE('',*,*,#146,.F.);
#95=ORIENTED_EDGE('',*,*,#153,.F.);
#96=ORIENTED_EDGE('',*,*,#154,.F.);
#97=ORIENTED_EDGE('',*,*,#155,.F.);
#98=ORIENTED_EDGE('',*,*,#156,.F.);
#99=ORIENTED_EDGE('',*,*,#151,.F.);
#100=ORIENTED_EDGE('',*,*,#152,.F.);
#101=ORIENTED_EDGE('',*,*,#163,.F.);
#102=ORIENTED_EDGE('',*,*,#134,.T.);
#103=ORIENTED_EDGE('',*,*,#165,.T.);
#104=ORIENTED_EDGE('',*,*,#140,.F.);
#105=ORIENTED_EDGE('',*,*,#168,.F.);
#106=ORIENTED_EDGE('',*,*,#138,.T.);
#107=ORIENTED_EDGE('',*,*,#164,.T.);
#108=ORIENTED_EDGE('',*,*,#144,.F.);
#109=ORIENTED_EDGE('',*,*,#151,.T.);
#110=ORIENTED_EDGE('',*,*,#158,.T.);
#111=ORIENTED_EDGE('',*,*,#145,.T.);
#112=ORIENTED_EDGE('',*,*,#157,.F.);
#113=ORIENTED_EDGE('',*,*,#152,.T.);
#114=ORIENTED_EDGE('',*,*,#157,.T.);
#115=ORIENTED_EDGE('',*,*,#146,.T.);
#116=ORIENTED_EDGE('',*,*,#159,.F.);
#117=ORIENTED_EDGE('',*,*,#153,.T.);
#118=ORIENTED_EDGE('',*,*,#159,.T.);
#119=ORIENTED_EDGE('',*,*,#147,.T.);
#120=ORIENTED_EDGE('',*,*,#160,.F.);
#121=ORIENTED_EDGE('',*,*,#154,.T.);
#122=ORIENTED_EDGE('',*,*,#160,.T.);
#123=ORIENTED_EDGE('',*,*,#148,.T.);
#124=ORIENTED_EDGE('',*,*,#161,.F.);
#125=ORIENTED_EDGE('',*,*,#155,.T.);
#126=ORIENTED_EDGE('',*,*,#161,.T.);
#127=ORIENTED_EDGE('',*,*,#149,.T.);
#128=ORIENTED_EDGE('',*,*,#162,.F.);
#129=ORIENTED_EDGE('',*,*,#156,.T.);
#130=ORIENTED_EDGE('',*,*,#162,.T.);
#131=ORIENTED_EDGE('',*,*,#150,.T.);
#132=ORIENTED_EDGE('',*,*,#158,.F.);
#133=EDGE_CURVE('',#205,#206,#169,.T.);
#134=EDGE_CURVE('',#206,#207,#170,.T.);
#135=EDGE_CURVE('',#207,#208,#171,.T.);
#136=EDGE_CURVE('',#208,#209,#172,.T.);
#137=EDGE_CURVE('',#209,#210,#173,.T.);
#138=EDGE_CURVE('',#210,#205,#174,.T.);
#139=EDGE_CURVE('',#212,#211,#175,.T.);
#140=EDGE_CURVE('',#211,#213,#176,.T.);
#141=EDGE_CURVE('',#213,#214,#177,.T.);
#142=EDGE_CURVE('',#214,#215,#178,.T.);
#143=EDGE_CURVE('',#215,#216,#179,.T.);
#144=EDGE_CURVE('',#216,#212,#180,.T.);
#145=EDGE_CURVE('',#217,#218,#181,.T.);
#146=EDGE_CURVE('',#218,#219,#182,.T.);
#147=EDGE_CURVE('',#219,#220,#183,.T.);
#148=EDGE_CURVE('',#220,#221,#184,.T.);
#149=EDGE_CURVE('',#221,#222,#185,.T.);
#150=EDGE_CURVE('',#222,#217,#186,.T.);
#151=EDGE_CURVE('',#223,#224,#187,.T.);
#152=EDGE_CURVE('',#225,#223,#188,.T.);
#153=EDGE_CURVE('',#226,#225,#189,.T.);
#154=EDGE_CURVE('',#227,#226,#190,.T.);
#155=EDGE_CURVE('',#228,#227,#191,.T.);
#156=EDGE_CURVE('',#224,#228,#192,.T.);
#157=EDGE_CURVE('',#223,#218,#193,.T.);
#158=EDGE_CURVE('',#224,#217,#194,.T.);
#159=EDGE_CURVE('',#225,#219,#195,.T.);
#160=EDGE_CURVE('',#226,#220,#196,.T.);
#161=EDGE_CURVE('',#227,#221,#197,.T.);
#162=EDGE_CURVE('',#228,#222,#198,.T.);
#163=EDGE_CURVE('',#206,#211,#199,.T.);
#164=EDGE_CURVE('',#205,#212,#200,.T.);
#165=EDGE_CURVE('',#207,#213,#201,.T.);
#166=EDGE_CURVE('',#208,#214,#202,.T.);
#167=EDGE_CURVE('',#209,#215,#203,.T.);
#168=EDGE_CURVE('',#210,#216,#204,.T.);
#169=B_SPLINE_CURVE_WITH_KNOTS('',1,(#407,#408),.UNSPECIFIED.,.F.,.F.,(2,
2),(0.,90.),.UNSPECIFIED.);
#170=B_SPLINE_CURVE_WITH_KNOTS('',1,(#409,#410),.UNSPECIFIED.,.F.,.F.,(2,
2),(90.,120.),.UNSPECIFIED.);
#171=B_SPLINE_CURVE_WITH_KNOTS('',1,(#411,#412),.UNSPECIFIED.,.F.,.F.,(2,
2),(120.,180.),.UNSPECIFIED.);
#172=B_SPLINE_CURVE_WITH_KNOTS('',1,(#413,#414),.UNSPECIFIED.,.F.,.F.,(2,
2),(180.,210.),.UNSPECIFIED.);
#173=B_SPLINE_CURVE_WITH_KNOTS('',1,(#415,#416),.UNSPECIFIED.,.F.,.F.,(2,
2),(210.,240.),.UNSPECIFIED.);
#174=B_SPLINE_CURVE_WITH_KNOTS('',1,(#417,#418),.UNSPECIFIED.,.F.,.F.,(2,
2),(240.,300.),.UNSPECIFIED.);
#175=B_SPLINE_CURVE_WITH_KNOTS('',1,(#419,#420),.UNSPECIFIED.,.F.,.F.,(2,
2),(0.,90.),.UNSPECIFIED.);
#176=B_SPLINE_CURVE_WITH_KNOTS('',1,(#421,#422),.UNSPECIFIED.,.F.,.F.,(2,
2),(90.,120.),.UNSPECIFIED.);
#177=B_SPLINE_CURVE_WITH_KNOTS('',1,(#423,#424),.UNSPECIFIED.,.F.,.F.,(2,
2),(120.,180.),.UNSPECIFIED.);
#178=B_SPLINE_CURVE_WITH_KNOTS('',1,(#425,#426),.UNSPECIFIED.,.F.,.F.,(2,
2),(180.,210.),.UNSPECIFIED.);
#179=B_SPLINE_CURVE_WITH_KNOTS('',1,(#427,#428),.UNSPECIFIED.,.F.,.F.,(2,
2),(210.,240.),.UNSPECIFIED.);
#180=B_SPLINE_CURVE_WITH_KNOTS('',1,(#429,#430),.UNSPECIFIED.,.F.,.F.,(2,
2),(240.,300.),.UNSPECIFIED.);
#181=B_SPLINE_CURVE_WITH_KNOTS('',1,(#431,#432),.UNSPECIFIED.,.F.,.F.,(2,
2),(3.,87.),.UNSPECIFIED.);
#182=B_SPLINE_CURVE_WITH_KNOTS('',1,(#433,#434),.UNSPECIFIED.,.F.,.F.,(2,
2),(87.,111.),.UNSPECIFIED.);
#183=B_SPLINE_CURVE_WITH_KNOTS('',1,(#435,#436),.UNSPECIFIED.,.F.,.F.,(2,
2),(111.,168.142857142857),.UNSPECIFIED.);
#184=B_SPLINE_CURVE_WITH_KNOTS('',1,(#437,#438),.UNSPECIFIED.,.F.,.F.,(2,
2),(168.142857142857,195.415584415584),.UNSPECIFIED.);
#185=B_SPLINE_CURVE_WITH_KNOTS('',1,(#439,#440),.UNSPECIFIED.,.F.,.F.,(2,
2),(195.415584415584,219.415584415584),.UNSPECIFIED.);
#186=B_SPLINE_CURVE_WITH_KNOTS('',1,(#441,#442),.UNSPECIFIED.,.F.,.F.,(2,
2),(219.415584415584,273.415584415584),.UNSPECIFIED.);
#187=B_SPLINE_CURVE_WITH_KNOTS('',1,(#443,#444),.UNSPECIFIED.,.F.,.F.,(2,
2),(-87.,-3.),.UNSPECIFIED.);
#188=B_SPLINE_CURVE_WITH_KNOTS('',1,(#445,#446),.UNSPECIFIED.,.F.,.F.,(2,
2),(-111.,-87.),.UNSPECIFIED.);
#189=B_SPLINE_CURVE_WITH_KNOTS('',1,(#447,#448),.UNSPECIFIED.,.F.,.F.,(2,
2),(-168.142857142857,-111.),.UNSPECIFIED.);
#190=B_SPLINE_CURVE_WITH_KNOTS('',1,(#449,#450),.UNSPECIFIED.,.F.,.F.,(2,
2),(-195.415584415584,-168.142857142857),.UNSPECIFIED.);
#191=B_SPLINE_CURVE_WITH_KNOTS('',1,(#451,#452),.UNSPECIFIED.,.F.,.F.,(2,
2),(-219.415584415584,-195.415584415584),.UNSPECIFIED.);
#192=B_SPLINE_CURVE_WITH_KNOTS('',1,(#453,#454),.UNSPECIFIED.,.F.,.F.,(2,
2),(3.,57.),.UNSPECIFIED.);
#193=B_SPLINE_CURVE_WITH_KNOTS('',1,(#455,#456),.UNSPECIFIED.,.F.,.F.,(2,
2),(3.,30.),.UNSPECIFIED.);
#194=B_SPLINE_CURVE_WITH_KNOTS('',1,(#457,#458),.UNSPECIFIED.,.F.,.F.,(2,
2),(3.,30.),.UNSPECIFIED.);
#195=B_SPLINE_CURVE_WITH_KNOTS('',1,(#459,#460),.UNSPECIFIED.,.F.,.F.,(2,
2),(3.,30.),.UNSPECIFIED.);
#196=B_SPLINE_CURVE_WITH_KNOTS('',1,(#461,#462),.UNSPECIFIED.,.F.,.F.,(2,
2),(3.,30.),.UNSPECIFIED.);
#197=B_SPLINE_CURVE_WITH_KNOTS('',1,(#463,#464),.UNSPECIFIED.,.F.,.F.,(2,
2),(3.,30.),.UNSPECIFIED.);
#198=B_SPLINE_CURVE_WITH_KNOTS('',1,(#465,#466),.UNSPECIFIED.,.F.,.F.,(2,
2),(3.,30.),.UNSPECIFIED.);
#199=B_SPLINE_CURVE_WITH_KNOTS('',1,(#467,#468,#469),.UNSPECIFIED.,.F.,
 .F.,(2,1,2),(0.,3.,30.),.UNSPECIFIED.);
#200=B_SPLINE_CURVE_WITH_KNOTS('',1,(#470,#471,#472),.UNSPECIFIED.,.F.,
 .F.,(2,1,2),(0.,3.,30.),.UNSPECIFIED.);
#201=B_SPLINE_CURVE_WITH_KNOTS('',1,(#473,#474,#475),.UNSPECIFIED.,.F.,
 .F.,(2,1,2),(0.,3.,30.),.UNSPECIFIED.);
#202=B_SPLINE_CURVE_WITH_KNOTS('',1,(#476,#477,#478),.UNSPECIFIED.,.F.,
 .F.,(2,1,2),(0.,3.,30.),.UNSPECIFIED.);
#203=B_SPLINE_CURVE_WITH_KNOTS('',1,(#479,#480,#481),.UNSPECIFIED.,.F.,
 .F.,(2,1,2),(0.,3.,30.),.UNSPECIFIED.);
#204=B_SPLINE_CURVE_WITH_KNOTS('',1,(#482,#483,#484),.UNSPECIFIED.,.F.,
 .F.,(2,1,2),(0.,3.,30.),.UNSPECIFIED.);
#205=VERTEX_POINT('',#383);
#206=VERTEX_POINT('',#384);
#207=VERTEX_POINT('',#385);
#208=VERTEX_POINT('',#386);
#209=VERTEX_POINT('',#387);
#210=VERTEX_POINT('',#388);
#211=VERTEX_POINT('',#389);
#212=VERTEX_POINT('',#390);
#213=VERTEX_POINT('',#391);
#214=VERTEX_POINT('',#392);
#215=VERTEX_POINT('',#393);
#216=VERTEX_POINT('',#394);
#217=VERTEX_POINT('',#395);
#218=VERTEX_POINT('',#396);
#219=VERTEX_POINT('',#397);
#220=VERTEX_POINT('',#398);
#221=VERTEX_POINT('',#399);
#222=VERTEX_POINT('',#400);
#223=VERTEX_POINT('',#401);
#224=VERTEX_POINT('',#402);
#225=VERTEX_POINT('',#403);
#226=VERTEX_POINT('',#404);
#227=VERTEX_POINT('',#405);
#228=VERTEX_POINT('',#406);
#229=PLANE('',#332);
#230=PLANE('',#333);
#231=PLANE('',#334);
#232=PLANE('',#335);
#233=PLANE('',#336);
#234=PLANE('',#337);
#235=PLANE('',#338);
#236=PLANE('',#339);
#237=PLANE('',#340);
#238=PLANE('',#341);
#239=PLANE('',#342);
#240=PLANE('',#343);
#241=PLANE('',#344);
#242=PLANE('',#345);
#243=PLANE('',#346);
#244=SHAPE_DEFINITION_REPRESENTATION(#245,#330);
#245=PRODUCT_DEFINITION_SHAPE($,$,#247);
#246=PRODUCT_DEFINITION_CONTEXT('3D Mechanical Parts',#319,'design');
#247=PRODUCT_DEFINITION('A','First version',#289,#246);
#248=DATE_TIME_ROLE('classification_date');
#249=DATE_TIME_ROLE('creation_date');
#250=APPLIED_DATE_AND_TIME_ASSIGNMENT(#274,#248,(#253));
#251=APPLIED_DATE_AND_TIME_ASSIGNMENT(#276,#249,(#247));
#252=SECURITY_CLASSIFICATION_LEVEL('unclassified');
#253=SECURITY_CLASSIFICATION('A','Security for version',#252);
#254=APPLIED_SECURITY_CLASSIFICATION_ASSIGNMENT(#253,(#289));
#255=APPROVAL_ROLE('Version approval');
#256=APPROVAL_ROLE('Version Security approval');
#257=APPROVAL_ROLE('Definition approval');
#258=APPROVAL_PERSON_ORGANIZATION(#307,#283,#255);
#259=APPROVAL_PERSON_ORGANIZATION(#308,#284,#256);
#260=APPROVAL_PERSON_ORGANIZATION(#311,#285,#257);
#261=COORDINATED_UNIVERSAL_TIME_OFFSET(5,0,.BEHIND.);
#262=LOCAL_TIME(0,0,0.,#261);
#263=LOCAL_TIME(0,0,0.,#261);
#264=LOCAL_TIME(0,0,0.,#261);
#265=LOCAL_TIME(0,0,0.,#261);
#266=LOCAL_TIME(0,0,0.,#261);
#267=CALENDAR_DATE(1999,1,1);
#268=CALENDAR_DATE(1999,1,1);
#269=CALENDAR_DATE(1999,1,1);
#270=CALENDAR_DATE(1999,1,1);
#271=CALENDAR_DATE(1999,1,1);
#272=DATE_AND_TIME(#267,#262);
#273=DATE_AND_TIME(#268,#263);
#274=DATE_AND_TIME(#269,#264);
#275=DATE_AND_TIME(#270,#265);
#276=DATE_AND_TIME(#271,#266);
#277=APPROVAL_DATE_TIME(#272,#283);
#278=APPROVAL_DATE_TIME(#273,#284);
#279=APPROVAL_DATE_TIME(#275,#285);
#280=APPROVAL_STATUS('not_yet_approved');
#281=APPROVAL_STATUS('not_yet_approved');
#282=APPROVAL_STATUS('approved');
#283=APPROVAL(#280,'Version approval');
#284=APPROVAL(#281,'Version Security approval');
#285=APPROVAL(#282,'Definition approval');
#286=APPLIED_APPROVAL_ASSIGNMENT(#283,(#289));
#287=APPLIED_APPROVAL_ASSIGNMENT(#284,(#253));
#288=APPLIED_APPROVAL_ASSIGNMENT(#285,(#247));
#289=PRODUCT_DEFINITION_FORMATION_WITH_SPECIFIED_SOURCE('A',
'First version',#321,.MADE.);
#290=PERSON_AND_ORGANIZATION_ROLE('design_owner');
#291=PERSON_AND_ORGANIZATION_ROLE('creator');
#292=PERSON_AND_ORGANIZATION_ROLE('design_supplier');
#293=PERSON_AND_ORGANIZATION_ROLE('classification_officer');
#294=PERSON_AND_ORGANIZATION_ROLE('creator');
#295=ORGANIZATION('STI','lab','lab');
#296=ORGANIZATION('STI','unknown','unknown');
#297=ORGANIZATION('STI','unknown','unknown');
#298=ORGANIZATION('STI','unknown','unknown');
#299=ORGANIZATION('STI','unknown','unknown');
#300=ORGANIZATION('STI','unknown','unknown');
#301=ORGANIZATION('STI','unknown','unknown');
#302=PERSON('1','Box','vc60',$,$,$);
#303=PERSON('2','last','first',$,$,$);
#304=PERSON('3','President','Mr.',$,$,$);
#305=PERSON_AND_ORGANIZATION(#302,#295);
#306=PERSON_AND_ORGANIZATION(#303,#296);
#307=PERSON_AND_ORGANIZATION(#304,#297);
#308=PERSON_AND_ORGANIZATION(#304,#298);
#309=PERSON_AND_ORGANIZATION(#304,#299);
#310=PERSON_AND_ORGANIZATION(#303,#300);
#311=PERSON_AND_ORGANIZATION(#304,#301);
#312=APPLIED_PERSON_AND_ORGANIZATION_ASSIGNMENT(#305,#290,(#321));
#313=APPLIED_PERSON_AND_ORGANIZATION_ASSIGNMENT(#306,#291,(#289));
#314=APPLIED_PERSON_AND_ORGANIZATION_ASSIGNMENT(#306,#292,(#289));
#315=APPLIED_PERSON_AND_ORGANIZATION_ASSIGNMENT(#309,#293,(#253));
#316=APPLIED_PERSON_AND_ORGANIZATION_ASSIGNMENT(#310,#294,(#247));
#317=PRODUCT_RELATED_PRODUCT_CATEGORY('detail','detail',(#321));
#318=APPLICATION_PROTOCOL_DEFINITION('International Standard',
'config_control_design',1994,#319);
#319=APPLICATION_CONTEXT(
'configuration controlled 3d designs of mechanical parts and assemblie
s');
#320=PRODUCT_CONTEXT('3D Mechanical Parts',#319,'mechanical');
#321=PRODUCT('Document','Document','',(#320));
#322=(
LENGTH_UNIT()
NAMED_UNIT(*)
SI_UNIT(.MILLI.,.METRE.)
);
#323=(
NAMED_UNIT(*)
PLANE_ANGLE_UNIT()
SI_UNIT($,.RADIAN.)
);
#324=DIMENSIONAL_EXPONENTS(0.,0.,0.,0.,0.,0.,0.);
#325=PLANE_ANGLE_MEASURE_WITH_UNIT(PLANE_ANGLE_MEASURE(0.01745329252),#323);
#326=(
CONVERSION_BASED_UNIT('DEGREES',#325)
NAMED_UNIT(#324)
PLANE_ANGLE_UNIT()
);
#327=(
NAMED_UNIT(*)
SI_UNIT($,.STERADIAN.)
SOLID_ANGLE_UNIT()
);
#328=UNCERTAINTY_MEASURE_WITH_UNIT(LENGTH_MEASURE(0.001),#322,
'DISTANCE_ACCURACY_VALUE',
'Maximum model space distance between geometric entities at asserted c
onnectivities');
#329=(
GEOMETRIC_REPRESENTATION_CONTEXT(3)
GLOBAL_UNCERTAINTY_ASSIGNED_CONTEXT((#328))
GLOBAL_UNIT_ASSIGNED_CONTEXT((#327,#326,#322))
REPRESENTATION_CONTEXT('ID1','3D')
);
#330=SHAPE_REPRESENTATION('Document',(#331,#347),#329);
#331=AXIS2_PLACEMENT_3D($,#367,#348,#349);
#332=AXIS2_PLACEMENT_3D('',#368,#350,$);
#333=AXIS2_PLACEMENT_3D('',#369,#351,$);
#334=AXIS2_PLACEMENT_3D('',#370,#352,$);
#335=AXIS2_PLACEMENT_3D('',#371,#353,$);
#336=AXIS2_PLACEMENT_3D('',#372,#354,$);
#337=AXIS2_PLACEMENT_3D('',#373,#355,$);
#338=AXIS2_PLACEMENT_3D('',#374,#356,$);
#339=AXIS2_PLACEMENT_3D('',#375,#357,$);
#340=AXIS2_PLACEMENT_3D('',#376,#358,$);
#341=AXIS2_PLACEMENT_3D('',#377,#359,$);
#342=AXIS2_PLACEMENT_3D('',#378,#360,$);
#343=AXIS2_PLACEMENT_3D('',#379,#361,$);
#344=AXIS2_PLACEMENT_3D('',#380,#362,$);
#345=AXIS2_PLACEMENT_3D('',#381,#363,$);
#346=AXIS2_PLACEMENT_3D('',#382,#364,$);
#347=AXIS2_PLACEMENT_3D($,#485,#365,#366);
#348=DIRECTION('',(0.,0.,1.));
#349=DIRECTION('',(1.,0.,0.));
#350=DIRECTION('',(0.,0.,-1.));
#351=DIRECTION('',(1.,0.,0.));
#352=DIRECTION('',(-1.,0.,0.));
#353=DIRECTION('',(0.,1.,0.));
#354=DIRECTION('',(-1.,0.,0.));
#355=DIRECTION('',(0.,0.,1.));
#356=DIRECTION('',(0.,0.,1.));
#357=DIRECTION('',(0.,1.,0.));
#358=DIRECTION('',(0.,-1.,0.));
#359=DIRECTION('',(-1.,0.,0.));
#360=DIRECTION('',(0.,-1.,0.));
#361=DIRECTION('',(1.,0.,0.));
#362=DIRECTION('',(0.,-1.,0.));
#363=DIRECTION('',(1.,0.,0.));
#364=DIRECTION('',(0.,1.,0.));
#365=DIRECTION('',(0.,0.,1.));
#366=DIRECTION('',(1.,0.,0.));
#367=CARTESIAN_POINT('',(0.,0.,0.));
#368=CARTESIAN_POINT('',(52.,30.,0.));
#369=CARTESIAN_POINT('',(112.,30.,0.));
#370=CARTESIAN_POINT('',(82.,120.,0.));
#371=CARTESIAN_POINT('',(82.,60.,0.));
#372=CARTESIAN_POINT('',(52.,60.,0.));
#373=CARTESIAN_POINT('',(52.,30.,30.));
#374=CARTESIAN_POINT('',(52.,30.,3.));
#375=CARTESIAN_POINT('',(112.,120.,0.));
#376=CARTESIAN_POINT('',(52.,30.,0.));
#377=CARTESIAN_POINT('',(109.,33.,0.));
#378=CARTESIAN_POINT('',(109.,117.,0.));
#379=CARTESIAN_POINT('',(85.,117.,0.));
#380=CARTESIAN_POINT('',(85.,57.,0.));
#381=CARTESIAN_POINT('',(55.,57.,0.));
#382=CARTESIAN_POINT('',(55.,33.,0.));
#383=CARTESIAN_POINT('',(112.,30.,0.));
#384=CARTESIAN_POINT('',(112.,120.,0.));
#385=CARTESIAN_POINT('',(82.,120.,0.));
#386=CARTESIAN_POINT('',(82.,60.,0.));
#387=CARTESIAN_POINT('',(52.,60.,0.));
#388=CARTESIAN_POINT('',(52.,30.,0.));
#389=CARTESIAN_POINT('',(112.,120.,30.));
#390=CARTESIAN_POINT('',(112.,30.,30.));
#391=CARTESIAN_POINT('',(82.,120.,30.));
#392=CARTESIAN_POINT('',(82.,60.,30.));
#393=CARTESIAN_POINT('',(52.,60.,30.));
#394=CARTESIAN_POINT('',(52.,30.,30.));
#395=CARTESIAN_POINT('',(109.,33.,30.));
#396=CARTESIAN_POINT('',(109.,117.,30.));
#397=CARTESIAN_POINT('',(85.,117.,30.));
#398=CARTESIAN_POINT('',(85.,57.,30.));
#399=CARTESIAN_POINT('',(55.,57.,30.));
#400=CARTESIAN_POINT('',(55.,33.,30.));
#401=CARTESIAN_POINT('',(109.,117.,3.));
#402=CARTESIAN_POINT('',(109.,33.,3.));
#403=CARTESIAN_POINT('',(85.,117.,3.));
#404=CARTESIAN_POINT('',(85.,57.,3.));
#405=CARTESIAN_POINT('',(55.,57.,3.));
#406=CARTESIAN_POINT('',(55.,33.,3.));
#407=CARTESIAN_POINT('',(112.,30.,0.));
#408=CARTESIAN_POINT('',(112.,120.,0.));
#409=CARTESIAN_POINT('',(112.,120.,0.));
#410=CARTESIAN_POINT('',(82.,120.,0.));
#411=CARTESIAN_POINT('',(82.,120.,0.));
#412=CARTESIAN_POINT('',(82.,60.,0.));
#413=CARTESIAN_POINT('',(82.,60.,0.));
#414=CARTESIAN_POINT('',(52.,60.,0.));
#415=CARTESIAN_POINT('',(52.,60.,0.));
#416=CARTESIAN_POINT('',(52.,30.,0.));
#417=CARTESIAN_POINT('',(52.,30.,0.));
#418=CARTESIAN_POINT('',(112.,30.,0.));
#419=CARTESIAN_POINT('',(112.,30.,30.));
#420=CARTESIAN_POINT('',(112.,120.,30.));
#421=CARTESIAN_POINT('',(112.,120.,30.));
#422=CARTESIAN_POINT('',(82.,120.,30.));
#423=CARTESIAN_POINT('',(82.,120.,30.));
#424=CARTESIAN_POINT('',(82.,60.,30.));
#425=CARTESIAN_POINT('',(82.,60.,30.));
#426=CARTESIAN_POINT('',(52.,60.,30.));
#427=CARTESIAN_POINT('',(52.,60.,30.));
#428=CARTESIAN_POINT('',(52.,30.,30.));
#429=CARTESIAN_POINT('',(52.,30.,30.));
#430=CARTESIAN_POINT('',(112.,30.,30.));
#431=CARTESIAN_POINT('',(109.,33.,30.));
#432=CARTESIAN_POINT('',(109.,117.,30.));
#433=CARTESIAN_POINT('',(109.,117.,30.));
#434=CARTESIAN_POINT('',(85.,117.,30.));
#435=CARTESIAN_POINT('',(85.,117.,30.));
#436=CARTESIAN_POINT('',(85.,57.,30.));
#437=CARTESIAN_POINT('',(85.,57.,30.));
#438=CARTESIAN_POINT('',(55.,57.,30.));
#439=CARTESIAN_POINT('',(55.,57.,30.));
#440=CARTESIAN_POINT('',(55.,33.,30.));
#441=CARTESIAN_POINT('',(55.,33.,30.));
#442=CARTESIAN_POINT('',(109.,33.,30.));
#443=CARTESIAN_POINT('',(109.,117.,3.));
#444=CARTESIAN_POINT('',(109.,33.,3.));
#445=CARTESIAN_POINT('',(85.,117.,3.));
#446=CARTESIAN_POINT('',(109.,117.,3.));
#447=CARTESIAN_POINT('',(85.,57.,3.));
#448=CARTESIAN_POINT('',(85.,117.,3.));
#449=CARTESIAN_POINT('',(55.,57.,3.));
#450=CARTESIAN_POINT('',(85.,57.,3.));
#451=CARTESIAN_POINT('',(55.,33.,3.));
#452=CARTESIAN_POINT('',(55.,57.,3.));
#453=CARTESIAN_POINT('',(109.,33.,3.));
#454=CARTESIAN_POINT('',(55.,33.,3.));
#455=CARTESIAN_POINT('',(109.,117.,3.));
#456=CARTESIAN_POINT('',(109.,117.,30.));
#457=CARTESIAN_POINT('',(109.,33.,3.));
#458=CARTESIAN_POINT('',(109.,33.,30.));
#459=CARTESIAN_POINT('',(85.,117.,3.));
#460=CARTESIAN_POINT('',(85.,117.,30.));
#461=CARTESIAN_POINT('',(85.,57.,3.));
#462=CARTESIAN_POINT('',(85.,57.,30.));
#463=CARTESIAN_POINT('',(55.,57.,3.));
#464=CARTESIAN_POINT('',(55.,57.,30.));
#465=CARTESIAN_POINT('',(55.,33.,3.));
#466=CARTESIAN_POINT('',(55.,33.,30.));
#467=CARTESIAN_POINT('',(112.,120.,0.));
#468=CARTESIAN_POINT('',(112.,120.,3.));
#469=CARTESIAN_POINT('',(112.,120.,30.));
#470=CARTESIAN_POINT('',(112.,30.,0.));
#471=CARTESIAN_POINT('',(112.,30.,3.));
#472=CARTESIAN_POINT('',(112.,30.,30.));
#473=CARTESIAN_POINT('',(82.,120.,0.));
#474=CARTESIAN_POINT('',(82.,120.,3.));
#475=CARTESIAN_POINT('',(82.,120.,30.));
#476=CARTESIAN_POINT('',(82.,60.,0.));
#477=CARTESIAN_POINT('',(82.,60.,3.));
#478=CARTESIAN_POINT('',(82.,60.,30.));
#479=CARTESIAN_POINT('',(52.,60.,0.));
#480=CARTESIAN_POINT('',(52.,60.,3.));
#481=CARTESIAN_POINT('',(52.,60.,30.));
#482=CARTESIAN_POINT('',(52.,30.,0.));
#483=CARTESIAN_POINT('',(52.,30.,3.));
#484=CARTESIAN_POINT('',(52.,30.,30.));
#485=CARTESIAN_POINT('',(0.,0.,0.));
ENDSEC;
END-ISO-10303-21;
