ISO-10303-21;
HEADER;
/* Generated by software containing ST-Developer
 * from STEP Tools, Inc. (www.steptools.com) 
 */
/* OPTION: using custom schema-name function */

FILE_DESCRIPTION(
/* description */ (''),
/* implementation_level */ '2;1');

FILE_NAME(
/* name */ 'S',
/* time_stamp */ '2026-09-04T13:13:25+03:00',
/* author */ (''),
/* organization */ (''),
/* preprocessor_version */ 'ST-DEVELOPER v19.2',
/* originating_system */ 'Rhino 8.34',
/* authorisation */ '');

FILE_SCHEMA (('CONFIG_CONTROL_DESIGN'));
ENDSEC;

DATA;
#10=SHAPE_REPRESENTATION_RELATIONSHIP('','',#402,#12);
#11=MANIFOLD_SOLID_BREP('brep_1',#13);
#12=ADVANCED_BREP_SHAPE_REPRESENTATION('brep_rep_0',(#11,#423),#401);
#13=CLOSED_SHELL('',(#15,#16,#17,#18,#19,#20,#21,#22,#23,#24,#25,#26,#27,
#28,#29,#30,#31,#32,#33));
#14=FACE_BOUND('',#60,.T.);
#15=ADVANCED_FACE('',(#34),#297,.T.);
#16=ADVANCED_FACE('',(#35),#298,.T.);
#17=ADVANCED_FACE('',(#36),#299,.T.);
#18=ADVANCED_FACE('',(#37),#300,.T.);
#19=ADVANCED_FACE('',(#38),#301,.T.);
#20=ADVANCED_FACE('',(#39),#302,.T.);
#21=ADVANCED_FACE('',(#40,#14),#303,.T.);
#22=ADVANCED_FACE('',(#41),#304,.T.);
#23=ADVANCED_FACE('',(#42),#305,.T.);
#24=ADVANCED_FACE('',(#43),#306,.T.);
#25=ADVANCED_FACE('',(#44),#307,.T.);
#26=ADVANCED_FACE('',(#45),#308,.T.);
#27=ADVANCED_FACE('',(#46),#309,.T.);
#28=ADVANCED_FACE('',(#47),#310,.T.);
#29=ADVANCED_FACE('',(#48),#311,.T.);
#30=ADVANCED_FACE('',(#49),#312,.T.);
#31=ADVANCED_FACE('',(#50),#313,.T.);
#32=ADVANCED_FACE('',(#51),#314,.T.);
#33=ADVANCED_FACE('',(#52),#315,.T.);
#34=FACE_OUTER_BOUND('',#53,.T.);
#35=FACE_OUTER_BOUND('',#54,.T.);
#36=FACE_OUTER_BOUND('',#55,.T.);
#37=FACE_OUTER_BOUND('',#56,.T.);
#38=FACE_OUTER_BOUND('',#57,.T.);
#39=FACE_OUTER_BOUND('',#58,.T.);
#40=FACE_OUTER_BOUND('',#59,.T.);
#41=FACE_OUTER_BOUND('',#61,.T.);
#42=FACE_OUTER_BOUND('',#62,.T.);
#43=FACE_OUTER_BOUND('',#63,.T.);
#44=FACE_OUTER_BOUND('',#64,.T.);
#45=FACE_OUTER_BOUND('',#65,.T.);
#46=FACE_OUTER_BOUND('',#66,.T.);
#47=FACE_OUTER_BOUND('',#67,.T.);
#48=FACE_OUTER_BOUND('',#68,.T.);
#49=FACE_OUTER_BOUND('',#69,.T.);
#50=FACE_OUTER_BOUND('',#70,.T.);
#51=FACE_OUTER_BOUND('',#71,.T.);
#52=FACE_OUTER_BOUND('',#72,.T.);
#53=EDGE_LOOP('',(#73,#74,#75,#76,#77,#78,#79,#80));
#54=EDGE_LOOP('',(#81,#82,#83,#84));
#55=EDGE_LOOP('',(#85,#86,#87,#88));
#56=EDGE_LOOP('',(#89,#90,#91,#92));
#57=EDGE_LOOP('',(#93,#94,#95,#96));
#58=EDGE_LOOP('',(#97,#98,#99,#100));
#59=EDGE_LOOP('',(#101,#102,#103,#104,#105,#106,#107,#108));
#60=EDGE_LOOP('',(#109,#110,#111,#112,#113,#114,#115,#116));
#61=EDGE_LOOP('',(#117,#118,#119,#120,#121,#122,#123,#124));
#62=EDGE_LOOP('',(#125,#126,#127,#128));
#63=EDGE_LOOP('',(#129,#130,#131,#132));
#64=EDGE_LOOP('',(#133,#134,#135,#136));
#65=EDGE_LOOP('',(#137,#138,#139,#140));
#66=EDGE_LOOP('',(#141,#142,#143,#144));
#67=EDGE_LOOP('',(#145,#146,#147,#148));
#68=EDGE_LOOP('',(#149,#150,#151,#152));
#69=EDGE_LOOP('',(#153,#154,#155,#156));
#70=EDGE_LOOP('',(#157,#158,#159,#160));
#71=EDGE_LOOP('',(#161,#162,#163,#164));
#72=EDGE_LOOP('',(#165,#166,#167,#168));
#73=ORIENTED_EDGE('',*,*,#176,.F.);
#74=ORIENTED_EDGE('',*,*,#175,.F.);
#75=ORIENTED_EDGE('',*,*,#174,.F.);
#76=ORIENTED_EDGE('',*,*,#173,.F.);
#77=ORIENTED_EDGE('',*,*,#172,.F.);
#78=ORIENTED_EDGE('',*,*,#171,.F.);
#79=ORIENTED_EDGE('',*,*,#170,.F.);
#80=ORIENTED_EDGE('',*,*,#169,.F.);
#81=ORIENTED_EDGE('',*,*,#177,.F.);
#82=ORIENTED_EDGE('',*,*,#210,.F.);
#83=ORIENTED_EDGE('',*,*,#169,.T.);
#84=ORIENTED_EDGE('',*,*,#209,.T.);
#85=ORIENTED_EDGE('',*,*,#178,.F.);
#86=ORIENTED_EDGE('',*,*,#209,.F.);
#87=ORIENTED_EDGE('',*,*,#170,.T.);
#88=ORIENTED_EDGE('',*,*,#211,.T.);
#89=ORIENTED_EDGE('',*,*,#180,.F.);
#90=ORIENTED_EDGE('',*,*,#212,.F.);
#91=ORIENTED_EDGE('',*,*,#172,.T.);
#92=ORIENTED_EDGE('',*,*,#213,.T.);
#93=ORIENTED_EDGE('',*,*,#182,.F.);
#94=ORIENTED_EDGE('',*,*,#214,.F.);
#95=ORIENTED_EDGE('',*,*,#174,.T.);
#96=ORIENTED_EDGE('',*,*,#215,.T.);
#97=ORIENTED_EDGE('',*,*,#183,.F.);
#98=ORIENTED_EDGE('',*,*,#215,.F.);
#99=ORIENTED_EDGE('',*,*,#175,.T.);
#100=ORIENTED_EDGE('',*,*,#216,.T.);
#101=ORIENTED_EDGE('',*,*,#177,.T.);
#102=ORIENTED_EDGE('',*,*,#178,.T.);
#103=ORIENTED_EDGE('',*,*,#179,.T.);
#104=ORIENTED_EDGE('',*,*,#180,.T.);
#105=ORIENTED_EDGE('',*,*,#181,.T.);
#106=ORIENTED_EDGE('',*,*,#182,.T.);
#107=ORIENTED_EDGE('',*,*,#183,.T.);
#108=ORIENTED_EDGE('',*,*,#184,.T.);
#109=ORIENTED_EDGE('',*,*,#191,.F.);
#110=ORIENTED_EDGE('',*,*,#190,.F.);
#111=ORIENTED_EDGE('',*,*,#189,.F.);
#112=ORIENTED_EDGE('',*,*,#188,.F.);
#113=ORIENTED_EDGE('',*,*,#187,.F.);
#114=ORIENTED_EDGE('',*,*,#186,.F.);
#115=ORIENTED_EDGE('',*,*,#185,.F.);
#116=ORIENTED_EDGE('',*,*,#192,.F.);
#117=ORIENTED_EDGE('',*,*,#193,.F.);
#118=ORIENTED_EDGE('',*,*,#194,.F.);
#119=ORIENTED_EDGE('',*,*,#195,.F.);
#120=ORIENTED_EDGE('',*,*,#196,.F.);
#121=ORIENTED_EDGE('',*,*,#197,.F.);
#122=ORIENTED_EDGE('',*,*,#198,.F.);
#123=ORIENTED_EDGE('',*,*,#199,.F.);
#124=ORIENTED_EDGE('',*,*,#200,.F.);
#125=ORIENTED_EDGE('',*,*,#211,.F.);
#126=ORIENTED_EDGE('',*,*,#171,.T.);
#127=ORIENTED_EDGE('',*,*,#212,.T.);
#128=ORIENTED_EDGE('',*,*,#179,.F.);
#129=ORIENTED_EDGE('',*,*,#213,.F.);
#130=ORIENTED_EDGE('',*,*,#173,.T.);
#131=ORIENTED_EDGE('',*,*,#214,.T.);
#132=ORIENTED_EDGE('',*,*,#181,.F.);
#133=ORIENTED_EDGE('',*,*,#216,.F.);
#134=ORIENTED_EDGE('',*,*,#176,.T.);
#135=ORIENTED_EDGE('',*,*,#210,.T.);
#136=ORIENTED_EDGE('',*,*,#184,.F.);
#137=ORIENTED_EDGE('',*,*,#193,.T.);
#138=ORIENTED_EDGE('',*,*,#202,.T.);
#139=ORIENTED_EDGE('',*,*,#185,.T.);
#140=ORIENTED_EDGE('',*,*,#201,.F.);
#141=ORIENTED_EDGE('',*,*,#194,.T.);
#142=ORIENTED_EDGE('',*,*,#201,.T.);
#143=ORIENTED_EDGE('',*,*,#186,.T.);
#144=ORIENTED_EDGE('',*,*,#203,.F.);
#145=ORIENTED_EDGE('',*,*,#195,.T.);
#146=ORIENTED_EDGE('',*,*,#203,.T.);
#147=ORIENTED_EDGE('',*,*,#187,.T.);
#148=ORIENTED_EDGE('',*,*,#204,.F.);
#149=ORIENTED_EDGE('',*,*,#196,.T.);
#150=ORIENTED_EDGE('',*,*,#204,.T.);
#151=ORIENTED_EDGE('',*,*,#188,.T.);
#152=ORIENTED_EDGE('',*,*,#205,.F.);
#153=ORIENTED_EDGE('',*,*,#197,.T.);
#154=ORIENTED_EDGE('',*,*,#205,.T.);
#155=ORIENTED_EDGE('',*,*,#189,.T.);
#156=ORIENTED_EDGE('',*,*,#206,.F.);
#157=ORIENTED_EDGE('',*,*,#198,.T.);
#158=ORIENTED_EDGE('',*,*,#206,.T.);
#159=ORIENTED_EDGE('',*,*,#190,.T.);
#160=ORIENTED_EDGE('',*,*,#207,.F.);
#161=ORIENTED_EDGE('',*,*,#199,.T.);
#162=ORIENTED_EDGE('',*,*,#207,.T.);
#163=ORIENTED_EDGE('',*,*,#191,.T.);
#164=ORIENTED_EDGE('',*,*,#208,.F.);
#165=ORIENTED_EDGE('',*,*,#200,.T.);
#166=ORIENTED_EDGE('',*,*,#208,.T.);
#167=ORIENTED_EDGE('',*,*,#192,.T.);
#168=ORIENTED_EDGE('',*,*,#202,.F.);
#169=EDGE_CURVE('',#265,#266,#217,.T.);
#170=EDGE_CURVE('',#266,#267,#218,.T.);
#171=EDGE_CURVE('',#267,#268,#219,.T.);
#172=EDGE_CURVE('',#268,#269,#220,.T.);
#173=EDGE_CURVE('',#269,#270,#221,.T.);
#174=EDGE_CURVE('',#270,#271,#222,.T.);
#175=EDGE_CURVE('',#271,#272,#223,.T.);
#176=EDGE_CURVE('',#272,#265,#224,.T.);
#177=EDGE_CURVE('',#274,#273,#225,.T.);
#178=EDGE_CURVE('',#273,#275,#226,.T.);
#179=EDGE_CURVE('',#275,#276,#227,.T.);
#180=EDGE_CURVE('',#276,#277,#228,.T.);
#181=EDGE_CURVE('',#277,#278,#229,.T.);
#182=EDGE_CURVE('',#278,#279,#230,.T.);
#183=EDGE_CURVE('',#279,#280,#231,.T.);
#184=EDGE_CURVE('',#280,#274,#232,.T.);
#185=EDGE_CURVE('',#281,#282,#233,.T.);
#186=EDGE_CURVE('',#282,#283,#234,.T.);
#187=EDGE_CURVE('',#283,#284,#235,.T.);
#188=EDGE_CURVE('',#284,#285,#236,.T.);
#189=EDGE_CURVE('',#285,#286,#237,.T.);
#190=EDGE_CURVE('',#286,#287,#238,.T.);
#191=EDGE_CURVE('',#287,#288,#239,.T.);
#192=EDGE_CURVE('',#288,#281,#240,.T.);
#193=EDGE_CURVE('',#289,#290,#241,.T.);
#194=EDGE_CURVE('',#291,#289,#242,.T.);
#195=EDGE_CURVE('',#292,#291,#243,.T.);
#196=EDGE_CURVE('',#293,#292,#244,.T.);
#197=EDGE_CURVE('',#294,#293,#245,.T.);
#198=EDGE_CURVE('',#295,#294,#246,.T.);
#199=EDGE_CURVE('',#296,#295,#247,.T.);
#200=EDGE_CURVE('',#290,#296,#248,.T.);
#201=EDGE_CURVE('',#289,#282,#249,.T.);
#202=EDGE_CURVE('',#290,#281,#250,.T.);
#203=EDGE_CURVE('',#291,#283,#251,.T.);
#204=EDGE_CURVE('',#292,#284,#252,.T.);
#205=EDGE_CURVE('',#293,#285,#253,.T.);
#206=EDGE_CURVE('',#294,#286,#254,.T.);
#207=EDGE_CURVE('',#295,#287,#255,.T.);
#208=EDGE_CURVE('',#296,#288,#256,.T.);
#209=EDGE_CURVE('',#266,#273,#257,.T.);
#210=EDGE_CURVE('',#265,#274,#258,.T.);
#211=EDGE_CURVE('',#267,#275,#259,.T.);
#212=EDGE_CURVE('',#268,#276,#260,.T.);
#213=EDGE_CURVE('',#269,#277,#261,.T.);
#214=EDGE_CURVE('',#270,#278,#262,.T.);
#215=EDGE_CURVE('',#271,#279,#263,.T.);
#216=EDGE_CURVE('',#272,#280,#264,.T.);
#217=B_SPLINE_CURVE_WITH_KNOTS('',1,(#499,#500),.UNSPECIFIED.,.F.,.F.,(2,
2),(-300.,-240.),.UNSPECIFIED.);
#218=B_SPLINE_CURVE_WITH_KNOTS('',1,(#501,#502),.UNSPECIFIED.,.F.,.F.,(2,
2),(-240.,-210.),.UNSPECIFIED.);
#219=B_SPLINE_CURVE_WITH_KNOTS('',1,(#503,#504),.UNSPECIFIED.,.F.,.F.,(2,
2),(-210.,-180.),.UNSPECIFIED.);
#220=B_SPLINE_CURVE_WITH_KNOTS('',1,(#505,#506),.UNSPECIFIED.,.F.,.F.,(2,
2),(-180.,-150.),.UNSPECIFIED.);
#221=B_SPLINE_CURVE_WITH_KNOTS('',1,(#507,#508),.UNSPECIFIED.,.F.,.F.,(2,
2),(-150.,-90.),.UNSPECIFIED.);
#222=B_SPLINE_CURVE_WITH_KNOTS('',1,(#509,#510),.UNSPECIFIED.,.F.,.F.,(2,
2),(-90.,-60.),.UNSPECIFIED.);
#223=B_SPLINE_CURVE_WITH_KNOTS('',1,(#511,#512),.UNSPECIFIED.,.F.,.F.,(2,
2),(-60.,-30.),.UNSPECIFIED.);
#224=B_SPLINE_CURVE_WITH_KNOTS('',1,(#513,#514),.UNSPECIFIED.,.F.,.F.,(2,
2),(-30.,0.),.UNSPECIFIED.);
#225=B_SPLINE_CURVE_WITH_KNOTS('',1,(#515,#516),.UNSPECIFIED.,.F.,.F.,(2,
2),(-300.,-240.),.UNSPECIFIED.);
#226=B_SPLINE_CURVE_WITH_KNOTS('',1,(#517,#518),.UNSPECIFIED.,.F.,.F.,(2,
2),(-240.,-210.),.UNSPECIFIED.);
#227=B_SPLINE_CURVE_WITH_KNOTS('',1,(#519,#520),.UNSPECIFIED.,.F.,.F.,(2,
2),(-210.,-180.),.UNSPECIFIED.);
#228=B_SPLINE_CURVE_WITH_KNOTS('',1,(#521,#522),.UNSPECIFIED.,.F.,.F.,(2,
2),(-180.,-150.),.UNSPECIFIED.);
#229=B_SPLINE_CURVE_WITH_KNOTS('',1,(#523,#524),.UNSPECIFIED.,.F.,.F.,(2,
2),(-150.,-90.),.UNSPECIFIED.);
#230=B_SPLINE_CURVE_WITH_KNOTS('',1,(#525,#526),.UNSPECIFIED.,.F.,.F.,(2,
2),(-90.,-60.),.UNSPECIFIED.);
#231=B_SPLINE_CURVE_WITH_KNOTS('',1,(#527,#528),.UNSPECIFIED.,.F.,.F.,(2,
2),(-60.,-30.),.UNSPECIFIED.);
#232=B_SPLINE_CURVE_WITH_KNOTS('',1,(#529,#530),.UNSPECIFIED.,.F.,.F.,(2,
2),(-30.,0.),.UNSPECIFIED.);
#233=B_SPLINE_CURVE_WITH_KNOTS('',1,(#531,#532),.UNSPECIFIED.,.F.,.F.,(2,
2),(-268.090909090909,-214.090909090909),.UNSPECIFIED.);
#234=B_SPLINE_CURVE_WITH_KNOTS('',1,(#533,#534),.UNSPECIFIED.,.F.,.F.,(2,
2),(-214.090909090909,-186.818181818182),.UNSPECIFIED.);
#235=B_SPLINE_CURVE_WITH_KNOTS('',1,(#535,#536),.UNSPECIFIED.,.F.,.F.,(2,
2),(-186.818181818182,-159.545454545455),.UNSPECIFIED.);
#236=B_SPLINE_CURVE_WITH_KNOTS('',1,(#537,#538),.UNSPECIFIED.,.F.,.F.,(2,
2),(-159.545454545455,-135.545454545455),.UNSPECIFIED.);
#237=B_SPLINE_CURVE_WITH_KNOTS('',1,(#539,#540),.UNSPECIFIED.,.F.,.F.,(2,
2),(-135.545454545455,-81.5454545454545),.UNSPECIFIED.);
#238=B_SPLINE_CURVE_WITH_KNOTS('',1,(#541,#542),.UNSPECIFIED.,.F.,.F.,(2,
2),(-81.5454545454545,-54.2727272727273),.UNSPECIFIED.);
#239=B_SPLINE_CURVE_WITH_KNOTS('',1,(#543,#544),.UNSPECIFIED.,.F.,.F.,(2,
2),(-54.2727272727273,-27.),.UNSPECIFIED.);
#240=B_SPLINE_CURVE_WITH_KNOTS('',1,(#545,#546),.UNSPECIFIED.,.F.,.F.,(2,
2),(-27.,-3.),.UNSPECIFIED.);
#241=B_SPLINE_CURVE_WITH_KNOTS('',1,(#547,#548),.UNSPECIFIED.,.F.,.F.,(2,
2),(-57.,-3.),.UNSPECIFIED.);
#242=B_SPLINE_CURVE_WITH_KNOTS('',1,(#549,#550),.UNSPECIFIED.,.F.,.F.,(2,
2),(186.818181818182,214.090909090909),.UNSPECIFIED.);
#243=B_SPLINE_CURVE_WITH_KNOTS('',1,(#551,#552),.UNSPECIFIED.,.F.,.F.,(2,
2),(159.545454545455,186.818181818182),.UNSPECIFIED.);
#244=B_SPLINE_CURVE_WITH_KNOTS('',1,(#553,#554),.UNSPECIFIED.,.F.,.F.,(2,
2),(135.545454545455,159.545454545455),.UNSPECIFIED.);
#245=B_SPLINE_CURVE_WITH_KNOTS('',1,(#555,#556),.UNSPECIFIED.,.F.,.F.,(2,
2),(81.5454545454545,135.545454545455),.UNSPECIFIED.);
#246=B_SPLINE_CURVE_WITH_KNOTS('',1,(#557,#558),.UNSPECIFIED.,.F.,.F.,(2,
2),(54.2727272727273,81.5454545454545),.UNSPECIFIED.);
#247=B_SPLINE_CURVE_WITH_KNOTS('',1,(#559,#560),.UNSPECIFIED.,.F.,.F.,(2,
2),(27.,54.2727272727273),.UNSPECIFIED.);
#248=B_SPLINE_CURVE_WITH_KNOTS('',1,(#561,#562),.UNSPECIFIED.,.F.,.F.,(2,
2),(3.,27.),.UNSPECIFIED.);
#249=B_SPLINE_CURVE_WITH_KNOTS('',1,(#563,#564),.UNSPECIFIED.,.F.,.F.,(2,
2),(3.,30.),.UNSPECIFIED.);
#250=B_SPLINE_CURVE_WITH_KNOTS('',1,(#565,#566),.UNSPECIFIED.,.F.,.F.,(2,
2),(3.,30.),.UNSPECIFIED.);
#251=B_SPLINE_CURVE_WITH_KNOTS('',1,(#567,#568),.UNSPECIFIED.,.F.,.F.,(2,
2),(3.,30.),.UNSPECIFIED.);
#252=B_SPLINE_CURVE_WITH_KNOTS('',1,(#569,#570),.UNSPECIFIED.,.F.,.F.,(2,
2),(3.,30.),.UNSPECIFIED.);
#253=B_SPLINE_CURVE_WITH_KNOTS('',1,(#571,#572),.UNSPECIFIED.,.F.,.F.,(2,
2),(3.,30.),.UNSPECIFIED.);
#254=B_SPLINE_CURVE_WITH_KNOTS('',1,(#573,#574),.UNSPECIFIED.,.F.,.F.,(2,
2),(3.,30.),.UNSPECIFIED.);
#255=B_SPLINE_CURVE_WITH_KNOTS('',1,(#575,#576),.UNSPECIFIED.,.F.,.F.,(2,
2),(3.,30.),.UNSPECIFIED.);
#256=B_SPLINE_CURVE_WITH_KNOTS('',1,(#577,#578),.UNSPECIFIED.,.F.,.F.,(2,
2),(3.,30.),.UNSPECIFIED.);
#257=B_SPLINE_CURVE_WITH_KNOTS('',1,(#579,#580,#581),.UNSPECIFIED.,.F.,
 .F.,(2,1,2),(0.,3.,30.),.UNSPECIFIED.);
#258=B_SPLINE_CURVE_WITH_KNOTS('',1,(#582,#583,#584),.UNSPECIFIED.,.F.,
 .F.,(2,1,2),(0.,3.,30.),.UNSPECIFIED.);
#259=B_SPLINE_CURVE_WITH_KNOTS('',1,(#585,#586,#587),.UNSPECIFIED.,.F.,
 .F.,(2,1,2),(0.,3.,30.),.UNSPECIFIED.);
#260=B_SPLINE_CURVE_WITH_KNOTS('',1,(#588,#589,#590),.UNSPECIFIED.,.F.,
 .F.,(2,1,2),(0.,3.,30.),.UNSPECIFIED.);
#261=B_SPLINE_CURVE_WITH_KNOTS('',1,(#591,#592,#593),.UNSPECIFIED.,.F.,
 .F.,(2,1,2),(0.,3.,30.),.UNSPECIFIED.);
#262=B_SPLINE_CURVE_WITH_KNOTS('',1,(#594,#595,#596),.UNSPECIFIED.,.F.,
 .F.,(2,1,2),(0.,3.,30.),.UNSPECIFIED.);
#263=B_SPLINE_CURVE_WITH_KNOTS('',1,(#597,#598,#599),.UNSPECIFIED.,.F.,
 .F.,(2,1,2),(0.,3.,30.),.UNSPECIFIED.);
#264=B_SPLINE_CURVE_WITH_KNOTS('',1,(#600,#601,#602),.UNSPECIFIED.,.F.,
 .F.,(2,1,2),(0.,3.,30.),.UNSPECIFIED.);
#265=VERTEX_POINT('',#467);
#266=VERTEX_POINT('',#468);
#267=VERTEX_POINT('',#469);
#268=VERTEX_POINT('',#470);
#269=VERTEX_POINT('',#471);
#270=VERTEX_POINT('',#472);
#271=VERTEX_POINT('',#473);
#272=VERTEX_POINT('',#474);
#273=VERTEX_POINT('',#475);
#274=VERTEX_POINT('',#476);
#275=VERTEX_POINT('',#477);
#276=VERTEX_POINT('',#478);
#277=VERTEX_POINT('',#479);
#278=VERTEX_POINT('',#480);
#279=VERTEX_POINT('',#481);
#280=VERTEX_POINT('',#482);
#281=VERTEX_POINT('',#483);
#282=VERTEX_POINT('',#484);
#283=VERTEX_POINT('',#485);
#284=VERTEX_POINT('',#486);
#285=VERTEX_POINT('',#487);
#286=VERTEX_POINT('',#488);
#287=VERTEX_POINT('',#489);
#288=VERTEX_POINT('',#490);
#289=VERTEX_POINT('',#491);
#290=VERTEX_POINT('',#492);
#291=VERTEX_POINT('',#493);
#292=VERTEX_POINT('',#494);
#293=VERTEX_POINT('',#495);
#294=VERTEX_POINT('',#496);
#295=VERTEX_POINT('',#497);
#296=VERTEX_POINT('',#498);
#297=PLANE('',#404);
#298=PLANE('',#405);
#299=PLANE('',#406);
#300=PLANE('',#407);
#301=PLANE('',#408);
#302=PLANE('',#409);
#303=PLANE('',#410);
#304=PLANE('',#411);
#305=PLANE('',#412);
#306=PLANE('',#413);
#307=PLANE('',#414);
#308=PLANE('',#415);
#309=PLANE('',#416);
#310=PLANE('',#417);
#311=PLANE('',#418);
#312=PLANE('',#419);
#313=PLANE('',#420);
#314=PLANE('',#421);
#315=PLANE('',#422);
#316=SHAPE_DEFINITION_REPRESENTATION(#317,#402);
#317=PRODUCT_DEFINITION_SHAPE($,$,#319);
#318=PRODUCT_DEFINITION_CONTEXT('3D Mechanical Parts',#391,'design');
#319=PRODUCT_DEFINITION('A','First version',#361,#318);
#320=DATE_TIME_ROLE('classification_date');
#321=DATE_TIME_ROLE('creation_date');
#322=APPLIED_DATE_AND_TIME_ASSIGNMENT(#346,#320,(#325));
#323=APPLIED_DATE_AND_TIME_ASSIGNMENT(#348,#321,(#319));
#324=SECURITY_CLASSIFICATION_LEVEL('unclassified');
#325=SECURITY_CLASSIFICATION('A','Security for version',#324);
#326=APPLIED_SECURITY_CLASSIFICATION_ASSIGNMENT(#325,(#361));
#327=APPROVAL_ROLE('Version approval');
#328=APPROVAL_ROLE('Version Security approval');
#329=APPROVAL_ROLE('Definition approval');
#330=APPROVAL_PERSON_ORGANIZATION(#379,#355,#327);
#331=APPROVAL_PERSON_ORGANIZATION(#380,#356,#328);
#332=APPROVAL_PERSON_ORGANIZATION(#383,#357,#329);
#333=COORDINATED_UNIVERSAL_TIME_OFFSET(5,0,.BEHIND.);
#334=LOCAL_TIME(0,0,0.,#333);
#335=LOCAL_TIME(0,0,0.,#333);
#336=LOCAL_TIME(0,0,0.,#333);
#337=LOCAL_TIME(0,0,0.,#333);
#338=LOCAL_TIME(0,0,0.,#333);
#339=CALENDAR_DATE(1999,1,1);
#340=CALENDAR_DATE(1999,1,1);
#341=CALENDAR_DATE(1999,1,1);
#342=CALENDAR_DATE(1999,1,1);
#343=CALENDAR_DATE(1999,1,1);
#344=DATE_AND_TIME(#339,#334);
#345=DATE_AND_TIME(#340,#335);
#346=DATE_AND_TIME(#341,#336);
#347=DATE_AND_TIME(#342,#337);
#348=DATE_AND_TIME(#343,#338);
#349=APPROVAL_DATE_TIME(#344,#355);
#350=APPROVAL_DATE_TIME(#345,#356);
#351=APPROVAL_DATE_TIME(#347,#357);
#352=APPROVAL_STATUS('not_yet_approved');
#353=APPROVAL_STATUS('not_yet_approved');
#354=APPROVAL_STATUS('approved');
#355=APPROVAL(#352,'Version approval');
#356=APPROVAL(#353,'Version Security approval');
#357=APPROVAL(#354,'Definition approval');
#358=APPLIED_APPROVAL_ASSIGNMENT(#355,(#361));
#359=APPLIED_APPROVAL_ASSIGNMENT(#356,(#325));
#360=APPLIED_APPROVAL_ASSIGNMENT(#357,(#319));
#361=PRODUCT_DEFINITION_FORMATION_WITH_SPECIFIED_SOURCE('A',
'First version',#393,.MADE.);
#362=PERSON_AND_ORGANIZATION_ROLE('design_owner');
#363=PERSON_AND_ORGANIZATION_ROLE('creator');
#364=PERSON_AND_ORGANIZATION_ROLE('design_supplier');
#365=PERSON_AND_ORGANIZATION_ROLE('classification_officer');
#366=PERSON_AND_ORGANIZATION_ROLE('creator');
#367=ORGANIZATION('STI','lab','lab');
#368=ORGANIZATION('STI','unknown','unknown');
#369=ORGANIZATION('STI','unknown','unknown');
#370=ORGANIZATION('STI','unknown','unknown');
#371=ORGANIZATION('STI','unknown','unknown');
#372=ORGANIZATION('STI','unknown','unknown');
#373=ORGANIZATION('STI','unknown','unknown');
#374=PERSON('1','Box','vc60',$,$,$);
#375=PERSON('2','last','first',$,$,$);
#376=PERSON('3','President','Mr.',$,$,$);
#377=PERSON_AND_ORGANIZATION(#374,#367);
#378=PERSON_AND_ORGANIZATION(#375,#368);
#379=PERSON_AND_ORGANIZATION(#376,#369);
#380=PERSON_AND_ORGANIZATION(#376,#370);
#381=PERSON_AND_ORGANIZATION(#376,#371);
#382=PERSON_AND_ORGANIZATION(#375,#372);
#383=PERSON_AND_ORGANIZATION(#376,#373);
#384=APPLIED_PERSON_AND_ORGANIZATION_ASSIGNMENT(#377,#362,(#393));
#385=APPLIED_PERSON_AND_ORGANIZATION_ASSIGNMENT(#378,#363,(#361));
#386=APPLIED_PERSON_AND_ORGANIZATION_ASSIGNMENT(#378,#364,(#361));
#387=APPLIED_PERSON_AND_ORGANIZATION_ASSIGNMENT(#381,#365,(#325));
#388=APPLIED_PERSON_AND_ORGANIZATION_ASSIGNMENT(#382,#366,(#319));
#389=PRODUCT_RELATED_PRODUCT_CATEGORY('detail','detail',(#393));
#390=APPLICATION_PROTOCOL_DEFINITION('International Standard',
'config_control_design',1994,#391);
#391=APPLICATION_CONTEXT(
'configuration controlled 3d designs of mechanical parts and assemblie
s');
#392=PRODUCT_CONTEXT('3D Mechanical Parts',#391,'mechanical');
#393=PRODUCT('Document','Document','',(#392));
#394=(
LENGTH_UNIT()
NAMED_UNIT(*)
SI_UNIT(.MILLI.,.METRE.)
);
#395=(
NAMED_UNIT(*)
PLANE_ANGLE_UNIT()
SI_UNIT($,.RADIAN.)
);
#396=DIMENSIONAL_EXPONENTS(0.,0.,0.,0.,0.,0.,0.);
#397=PLANE_ANGLE_MEASURE_WITH_UNIT(PLANE_ANGLE_MEASURE(0.01745329252),#395);
#398=(
CONVERSION_BASED_UNIT('DEGREES',#397)
NAMED_UNIT(#396)
PLANE_ANGLE_UNIT()
);
#399=(
NAMED_UNIT(*)
SI_UNIT($,.STERADIAN.)
SOLID_ANGLE_UNIT()
);
#400=UNCERTAINTY_MEASURE_WITH_UNIT(LENGTH_MEASURE(0.001),#394,
'DISTANCE_ACCURACY_VALUE',
'Maximum model space distance between geometric entities at asserted c
onnectivities');
#401=(
GEOMETRIC_REPRESENTATION_CONTEXT(3)
GLOBAL_UNCERTAINTY_ASSIGNED_CONTEXT((#400))
GLOBAL_UNIT_ASSIGNED_CONTEXT((#399,#398,#394))
REPRESENTATION_CONTEXT('ID1','3D')
);
#402=SHAPE_REPRESENTATION('Document',(#403,#423),#401);
#403=AXIS2_PLACEMENT_3D($,#447,#424,#425);
#404=AXIS2_PLACEMENT_3D('',#448,#426,$);
#405=AXIS2_PLACEMENT_3D('',#449,#427,$);
#406=AXIS2_PLACEMENT_3D('',#450,#428,$);
#407=AXIS2_PLACEMENT_3D('',#451,#429,$);
#408=AXIS2_PLACEMENT_3D('',#452,#430,$);
#409=AXIS2_PLACEMENT_3D('',#453,#431,$);
#410=AXIS2_PLACEMENT_3D('',#454,#432,$);
#411=AXIS2_PLACEMENT_3D('',#455,#433,$);
#412=AXIS2_PLACEMENT_3D('',#456,#434,$);
#413=AXIS2_PLACEMENT_3D('',#457,#435,$);
#414=AXIS2_PLACEMENT_3D('',#458,#436,$);
#415=AXIS2_PLACEMENT_3D('',#459,#437,$);
#416=AXIS2_PLACEMENT_3D('',#460,#438,$);
#417=AXIS2_PLACEMENT_3D('',#461,#439,$);
#418=AXIS2_PLACEMENT_3D('',#462,#440,$);
#419=AXIS2_PLACEMENT_3D('',#463,#441,$);
#420=AXIS2_PLACEMENT_3D('',#464,#442,$);
#421=AXIS2_PLACEMENT_3D('',#465,#443,$);
#422=AXIS2_PLACEMENT_3D('',#466,#444,$);
#423=AXIS2_PLACEMENT_3D($,#603,#445,#446);
#424=DIRECTION('',(0.,0.,1.));
#425=DIRECTION('',(1.,0.,0.));
#426=DIRECTION('',(0.,0.,-1.));
#427=DIRECTION('',(0.,-1.,0.));
#428=DIRECTION('',(1.,0.,0.));
#429=DIRECTION('',(1.,0.,0.));
#430=DIRECTION('',(-1.,0.,0.));
#431=DIRECTION('',(0.,1.,0.));
#432=DIRECTION('',(0.,0.,1.));
#433=DIRECTION('',(0.,0.,1.));
#434=DIRECTION('',(0.,-1.,0.));
#435=DIRECTION('',(0.,1.,0.));
#436=DIRECTION('',(-1.,0.,0.));
#437=DIRECTION('',(0.,1.,0.));
#438=DIRECTION('',(-1.,0.,0.));
#439=DIRECTION('',(0.,1.,0.));
#440=DIRECTION('',(-1.,0.,0.));
#441=DIRECTION('',(0.,-1.,0.));
#442=DIRECTION('',(1.,0.,0.));
#443=DIRECTION('',(0.,-1.,0.));
#444=DIRECTION('',(1.,0.,0.));
#445=DIRECTION('',(0.,0.,1.));
#446=DIRECTION('',(1.,0.,0.));
#447=CARTESIAN_POINT('',(0.,0.,0.));
#448=CARTESIAN_POINT('',(-87.,-39.,0.));
#449=CARTESIAN_POINT('',(-177.,-99.,0.));
#450=CARTESIAN_POINT('',(-117.,-99.,0.));
#451=CARTESIAN_POINT('',(-87.,-69.,0.));
#452=CARTESIAN_POINT('',(-147.,-39.,0.));
#453=CARTESIAN_POINT('',(-147.,-69.,0.));
#454=CARTESIAN_POINT('',(-87.,-39.,30.));
#455=CARTESIAN_POINT('',(-87.,-39.,3.));
#456=CARTESIAN_POINT('',(-117.,-69.,0.));
#457=CARTESIAN_POINT('',(-87.,-39.,0.));
#458=CARTESIAN_POINT('',(-177.,-69.,0.));
#459=CARTESIAN_POINT('',(-174.,-96.,0.));
#460=CARTESIAN_POINT('',(-120.,-96.,0.));
#461=CARTESIAN_POINT('',(-120.,-66.,0.));
#462=CARTESIAN_POINT('',(-90.,-66.,0.));
#463=CARTESIAN_POINT('',(-90.,-42.,0.));
#464=CARTESIAN_POINT('',(-144.,-42.,0.));
#465=CARTESIAN_POINT('',(-144.,-72.,0.));
#466=CARTESIAN_POINT('',(-174.,-72.,0.));
#467=CARTESIAN_POINT('',(-177.,-99.,0.));
#468=CARTESIAN_POINT('',(-117.,-99.,0.));
#469=CARTESIAN_POINT('',(-117.,-69.,0.));
#470=CARTESIAN_POINT('',(-87.,-69.,0.));
#471=CARTESIAN_POINT('',(-87.,-39.,0.));
#472=CARTESIAN_POINT('',(-147.,-39.,0.));
#473=CARTESIAN_POINT('',(-147.,-69.,0.));
#474=CARTESIAN_POINT('',(-177.,-69.,0.));
#475=CARTESIAN_POINT('',(-117.,-99.,30.));
#476=CARTESIAN_POINT('',(-177.,-99.,30.));
#477=CARTESIAN_POINT('',(-117.,-69.,30.));
#478=CARTESIAN_POINT('',(-87.,-69.,30.));
#479=CARTESIAN_POINT('',(-87.,-39.,30.));
#480=CARTESIAN_POINT('',(-147.,-39.,30.));
#481=CARTESIAN_POINT('',(-147.,-69.,30.));
#482=CARTESIAN_POINT('',(-177.,-69.,30.));
#483=CARTESIAN_POINT('',(-174.,-96.,30.));
#484=CARTESIAN_POINT('',(-120.,-96.,30.));
#485=CARTESIAN_POINT('',(-120.,-66.,30.));
#486=CARTESIAN_POINT('',(-90.,-66.,30.));
#487=CARTESIAN_POINT('',(-90.,-42.,30.));
#488=CARTESIAN_POINT('',(-144.,-42.,30.));
#489=CARTESIAN_POINT('',(-144.,-72.,30.));
#490=CARTESIAN_POINT('',(-174.,-72.,30.));
#491=CARTESIAN_POINT('',(-120.,-96.,3.));
#492=CARTESIAN_POINT('',(-174.,-96.,3.));
#493=CARTESIAN_POINT('',(-120.,-66.,3.));
#494=CARTESIAN_POINT('',(-90.,-66.,3.));
#495=CARTESIAN_POINT('',(-90.,-42.,3.));
#496=CARTESIAN_POINT('',(-144.,-42.,3.));
#497=CARTESIAN_POINT('',(-144.,-72.,3.));
#498=CARTESIAN_POINT('',(-174.,-72.,3.));
#499=CARTESIAN_POINT('',(-177.,-99.,0.));
#500=CARTESIAN_POINT('',(-117.,-99.,0.));
#501=CARTESIAN_POINT('',(-117.,-99.,0.));
#502=CARTESIAN_POINT('',(-117.,-69.,0.));
#503=CARTESIAN_POINT('',(-117.,-69.,0.));
#504=CARTESIAN_POINT('',(-87.,-69.,0.));
#505=CARTESIAN_POINT('',(-87.,-69.,0.));
#506=CARTESIAN_POINT('',(-87.,-39.,0.));
#507=CARTESIAN_POINT('',(-87.,-39.,0.));
#508=CARTESIAN_POINT('',(-147.,-39.,0.));
#509=CARTESIAN_POINT('',(-147.,-39.,0.));
#510=CARTESIAN_POINT('',(-147.,-69.,0.));
#511=CARTESIAN_POINT('',(-147.,-69.,0.));
#512=CARTESIAN_POINT('',(-177.,-69.,0.));
#513=CARTESIAN_POINT('',(-177.,-69.,0.));
#514=CARTESIAN_POINT('',(-177.,-99.,0.));
#515=CARTESIAN_POINT('',(-177.,-99.,30.));
#516=CARTESIAN_POINT('',(-117.,-99.,30.));
#517=CARTESIAN_POINT('',(-117.,-99.,30.));
#518=CARTESIAN_POINT('',(-117.,-69.,30.));
#519=CARTESIAN_POINT('',(-117.,-69.,30.));
#520=CARTESIAN_POINT('',(-87.,-69.,30.));
#521=CARTESIAN_POINT('',(-87.,-69.,30.));
#522=CARTESIAN_POINT('',(-87.,-39.,30.));
#523=CARTESIAN_POINT('',(-87.,-39.,30.));
#524=CARTESIAN_POINT('',(-147.,-39.,30.));
#525=CARTESIAN_POINT('',(-147.,-39.,30.));
#526=CARTESIAN_POINT('',(-147.,-69.,30.));
#527=CARTESIAN_POINT('',(-147.,-69.,30.));
#528=CARTESIAN_POINT('',(-177.,-69.,30.));
#529=CARTESIAN_POINT('',(-177.,-69.,30.));
#530=CARTESIAN_POINT('',(-177.,-99.,30.));
#531=CARTESIAN_POINT('',(-174.,-96.,30.));
#532=CARTESIAN_POINT('',(-120.,-96.,30.));
#533=CARTESIAN_POINT('',(-120.,-96.,30.));
#534=CARTESIAN_POINT('',(-120.,-66.,30.));
#535=CARTESIAN_POINT('',(-120.,-66.,30.));
#536=CARTESIAN_POINT('',(-90.,-66.,30.));
#537=CARTESIAN_POINT('',(-90.,-66.,30.));
#538=CARTESIAN_POINT('',(-90.,-42.,30.));
#539=CARTESIAN_POINT('',(-90.,-42.,30.));
#540=CARTESIAN_POINT('',(-144.,-42.,30.));
#541=CARTESIAN_POINT('',(-144.,-42.,30.));
#542=CARTESIAN_POINT('',(-144.,-72.,30.));
#543=CARTESIAN_POINT('',(-144.,-72.,30.));
#544=CARTESIAN_POINT('',(-174.,-72.,30.));
#545=CARTESIAN_POINT('',(-174.,-72.,30.));
#546=CARTESIAN_POINT('',(-174.,-96.,30.));
#547=CARTESIAN_POINT('',(-120.,-96.,3.));
#548=CARTESIAN_POINT('',(-174.,-96.,3.));
#549=CARTESIAN_POINT('',(-120.,-66.,3.));
#550=CARTESIAN_POINT('',(-120.,-96.,3.));
#551=CARTESIAN_POINT('',(-90.,-66.,3.));
#552=CARTESIAN_POINT('',(-120.,-66.,3.));
#553=CARTESIAN_POINT('',(-90.,-42.,3.));
#554=CARTESIAN_POINT('',(-90.,-66.,3.));
#555=CARTESIAN_POINT('',(-144.,-42.,3.));
#556=CARTESIAN_POINT('',(-90.,-42.,3.));
#557=CARTESIAN_POINT('',(-144.,-72.,3.));
#558=CARTESIAN_POINT('',(-144.,-42.,3.));
#559=CARTESIAN_POINT('',(-174.,-72.,3.));
#560=CARTESIAN_POINT('',(-144.,-72.,3.));
#561=CARTESIAN_POINT('',(-174.,-96.,3.));
#562=CARTESIAN_POINT('',(-174.,-72.,3.));
#563=CARTESIAN_POINT('',(-120.,-96.,3.));
#564=CARTESIAN_POINT('',(-120.,-96.,30.));
#565=CARTESIAN_POINT('',(-174.,-96.,3.));
#566=CARTESIAN_POINT('',(-174.,-96.,30.));
#567=CARTESIAN_POINT('',(-120.,-66.,3.));
#568=CARTESIAN_POINT('',(-120.,-66.,30.));
#569=CARTESIAN_POINT('',(-90.,-66.,3.));
#570=CARTESIAN_POINT('',(-90.,-66.,30.));
#571=CARTESIAN_POINT('',(-90.,-42.,3.));
#572=CARTESIAN_POINT('',(-90.,-42.,30.));
#573=CARTESIAN_POINT('',(-144.,-42.,3.));
#574=CARTESIAN_POINT('',(-144.,-42.,30.));
#575=CARTESIAN_POINT('',(-144.,-72.,3.));
#576=CARTESIAN_POINT('',(-144.,-72.,30.));
#577=CARTESIAN_POINT('',(-174.,-72.,3.));
#578=CARTESIAN_POINT('',(-174.,-72.,30.));
#579=CARTESIAN_POINT('',(-117.,-99.,0.));
#580=CARTESIAN_POINT('',(-117.,-99.,3.));
#581=CARTESIAN_POINT('',(-117.,-99.,30.));
#582=CARTESIAN_POINT('',(-177.,-99.,0.));
#583=CARTESIAN_POINT('',(-177.,-99.,3.));
#584=CARTESIAN_POINT('',(-177.,-99.,30.));
#585=CARTESIAN_POINT('',(-117.,-69.,0.));
#586=CARTESIAN_POINT('',(-117.,-69.,3.));
#587=CARTESIAN_POINT('',(-117.,-69.,30.));
#588=CARTESIAN_POINT('',(-87.,-69.,0.));
#589=CARTESIAN_POINT('',(-87.,-69.,3.));
#590=CARTESIAN_POINT('',(-87.,-69.,30.));
#591=CARTESIAN_POINT('',(-87.,-39.,0.));
#592=CARTESIAN_POINT('',(-87.,-39.,3.));
#593=CARTESIAN_POINT('',(-87.,-39.,30.));
#594=CARTESIAN_POINT('',(-147.,-39.,0.));
#595=CARTESIAN_POINT('',(-147.,-39.,3.));
#596=CARTESIAN_POINT('',(-147.,-39.,30.));
#597=CARTESIAN_POINT('',(-147.,-69.,0.));
#598=CARTESIAN_POINT('',(-147.,-69.,3.));
#599=CARTESIAN_POINT('',(-147.,-69.,30.));
#600=CARTESIAN_POINT('',(-177.,-69.,0.));
#601=CARTESIAN_POINT('',(-177.,-69.,3.));
#602=CARTESIAN_POINT('',(-177.,-69.,30.));
#603=CARTESIAN_POINT('',(0.,0.,0.));
ENDSEC;
END-ISO-10303-21;
