ISO-10303-21;
HEADER;
/* Generated by software containing ST-Developer
 * from STEP Tools, Inc. (www.steptools.com) 
 */
/* OPTION: using custom schema-name function */

FILE_DESCRIPTION(
/* description */ (''),
/* implementation_level */ '2;1');

FILE_NAME(
/* name */ 'bts_clip',
/* time_stamp */ '2026-07-28T17:03:48+03:00',
/* author */ (''),
/* organization */ (''),
/* preprocessor_version */ 'ST-DEVELOPER v19.2',
/* originating_system */ 'Rhino 8.33',
/* authorisation */ '');

FILE_SCHEMA (('CONFIG_CONTROL_DESIGN'));
ENDSEC;

DATA;
#10=SHAPE_REPRESENTATION_RELATIONSHIP('','',#674,#13);
#11=SHAPE_REPRESENTATION_RELATIONSHIP('','',#674,#15);
#12=GEOMETRIC_CURVE_SET('curve_set_0',(#387,#388,#389,#414,#415,#497,#390,
#391,#392,#498,#393,#394,#395));
#13=GEOMETRICALLY_BOUNDED_WIREFRAME_SHAPE_REPRESENTATION(
'wireframe_rep_0',(#12,#723),#673);
#14=MANIFOLD_SOLID_BREP('brep_1',#16);
#15=ADVANCED_BREP_SHAPE_REPRESENTATION('brep_rep_0',(#14,#724),#673);
#16=CLOSED_SHELL('',(#21,#22,#23,#24,#25,#26,#27,#28,#29,#30,#31,#32,#33,
#34,#35,#36,#37,#38,#39,#40,#41,#42,#43,#44,#45,#46,#47,#48,#49,#50,#51));
#17=FACE_BOUND('',#113,.T.);
#18=FACE_BOUND('',#114,.T.);
#19=FACE_BOUND('',#116,.T.);
#20=FACE_BOUND('',#117,.T.);
#21=ADVANCED_FACE('',(#52),#570,.T.);
#22=ADVANCED_FACE('',(#53),#561,.T.);
#23=ADVANCED_FACE('',(#54),#571,.T.);
#24=ADVANCED_FACE('',(#55),#572,.T.);
#25=ADVANCED_FACE('',(#56),#573,.T.);
#26=ADVANCED_FACE('',(#57),#562,.F.);
#27=ADVANCED_FACE('',(#58),#574,.T.);
#28=ADVANCED_FACE('',(#59),#563,.T.);
#29=ADVANCED_FACE('',(#60),#575,.T.);
#30=ADVANCED_FACE('',(#61),#564,.F.);
#31=ADVANCED_FACE('',(#62),#576,.T.);
#32=ADVANCED_FACE('',(#63),#577,.T.);
#33=ADVANCED_FACE('',(#64),#578,.T.);
#34=ADVANCED_FACE('',(#65),#565,.T.);
#35=ADVANCED_FACE('',(#66),#579,.T.);
#36=ADVANCED_FACE('',(#67),#566,.T.);
#37=ADVANCED_FACE('',(#68),#557,.T.);
#38=ADVANCED_FACE('',(#69),#558,.T.);
#39=ADVANCED_FACE('',(#70),#580,.T.);
#40=ADVANCED_FACE('',(#71),#567,.F.);
#41=ADVANCED_FACE('',(#72),#581,.T.);
#42=ADVANCED_FACE('',(#73),#582,.T.);
#43=ADVANCED_FACE('',(#74),#583,.T.);
#44=ADVANCED_FACE('',(#75),#584,.T.);
#45=ADVANCED_FACE('',(#76),#585,.T.);
#46=ADVANCED_FACE('',(#77),#568,.F.);
#47=ADVANCED_FACE('',(#78),#569,.T.);
#48=ADVANCED_FACE('',(#79),#559,.T.);
#49=ADVANCED_FACE('',(#80),#560,.T.);
#50=ADVANCED_FACE('',(#81,#17,#18),#586,.T.);
#51=ADVANCED_FACE('',(#82,#19,#20),#587,.T.);
#52=FACE_OUTER_BOUND('',#83,.T.);
#53=FACE_OUTER_BOUND('',#84,.T.);
#54=FACE_OUTER_BOUND('',#85,.T.);
#55=FACE_OUTER_BOUND('',#86,.T.);
#56=FACE_OUTER_BOUND('',#87,.T.);
#57=FACE_OUTER_BOUND('',#88,.T.);
#58=FACE_OUTER_BOUND('',#89,.T.);
#59=FACE_OUTER_BOUND('',#90,.T.);
#60=FACE_OUTER_BOUND('',#91,.T.);
#61=FACE_OUTER_BOUND('',#92,.T.);
#62=FACE_OUTER_BOUND('',#93,.T.);
#63=FACE_OUTER_BOUND('',#94,.T.);
#64=FACE_OUTER_BOUND('',#95,.T.);
#65=FACE_OUTER_BOUND('',#96,.T.);
#66=FACE_OUTER_BOUND('',#97,.T.);
#67=FACE_OUTER_BOUND('',#98,.T.);
#68=FACE_OUTER_BOUND('',#99,.T.);
#69=FACE_OUTER_BOUND('',#100,.T.);
#70=FACE_OUTER_BOUND('',#101,.T.);
#71=FACE_OUTER_BOUND('',#102,.T.);
#72=FACE_OUTER_BOUND('',#103,.T.);
#73=FACE_OUTER_BOUND('',#104,.T.);
#74=FACE_OUTER_BOUND('',#105,.T.);
#75=FACE_OUTER_BOUND('',#106,.T.);
#76=FACE_OUTER_BOUND('',#107,.T.);
#77=FACE_OUTER_BOUND('',#108,.T.);
#78=FACE_OUTER_BOUND('',#109,.T.);
#79=FACE_OUTER_BOUND('',#110,.T.);
#80=FACE_OUTER_BOUND('',#111,.T.);
#81=FACE_OUTER_BOUND('',#112,.T.);
#82=FACE_OUTER_BOUND('',#115,.T.);
#83=EDGE_LOOP('',(#118,#119,#120,#121));
#84=EDGE_LOOP('',(#122,#123,#124,#125));
#85=EDGE_LOOP('',(#126,#127,#128,#129));
#86=EDGE_LOOP('',(#130,#131,#132,#133));
#87=EDGE_LOOP('',(#134,#135,#136,#137));
#88=EDGE_LOOP('',(#138,#139,#140,#141));
#89=EDGE_LOOP('',(#142,#143,#144,#145));
#90=EDGE_LOOP('',(#146,#147,#148,#149));
#91=EDGE_LOOP('',(#150,#151,#152,#153));
#92=EDGE_LOOP('',(#154,#155,#156,#157));
#93=EDGE_LOOP('',(#158,#159,#160,#161));
#94=EDGE_LOOP('',(#162,#163,#164,#165));
#95=EDGE_LOOP('',(#166,#167,#168,#169));
#96=EDGE_LOOP('',(#170,#171,#172,#173));
#97=EDGE_LOOP('',(#174,#175,#176,#177));
#98=EDGE_LOOP('',(#178,#179,#180,#181));
#99=EDGE_LOOP('',(#182,#183,#184,#185));
#100=EDGE_LOOP('',(#186,#187,#188,#189));
#101=EDGE_LOOP('',(#190,#191,#192,#193));
#102=EDGE_LOOP('',(#194,#195,#196,#197));
#103=EDGE_LOOP('',(#198,#199,#200,#201));
#104=EDGE_LOOP('',(#202,#203,#204,#205));
#105=EDGE_LOOP('',(#206,#207,#208,#209));
#106=EDGE_LOOP('',(#210,#211,#212,#213));
#107=EDGE_LOOP('',(#214,#215,#216,#217));
#108=EDGE_LOOP('',(#218,#219,#220,#221));
#109=EDGE_LOOP('',(#222,#223,#224,#225));
#110=EDGE_LOOP('',(#226,#227,#228,#229));
#111=EDGE_LOOP('',(#230,#231,#232,#233));
#112=EDGE_LOOP('',(#234,#235,#236,#237,#238,#239,#240,#241,#242,#243,#244,
#245,#246,#247,#248,#249));
#113=EDGE_LOOP('',(#250,#251,#252,#253,#254,#255,#256));
#114=EDGE_LOOP('',(#257,#258,#259,#260,#261,#262));
#115=EDGE_LOOP('',(#263,#264,#265,#266,#267,#268,#269,#270,#271,#272,#273,
#274,#275,#276,#277,#278));
#116=EDGE_LOOP('',(#279,#280,#281,#282,#283,#284,#285));
#117=EDGE_LOOP('',(#286,#287,#288,#289,#290,#291));
#118=ORIENTED_EDGE('',*,*,#292,.T.);
#119=ORIENTED_EDGE('',*,*,#293,.T.);
#120=ORIENTED_EDGE('',*,*,#294,.F.);
#121=ORIENTED_EDGE('',*,*,#295,.F.);
#122=ORIENTED_EDGE('',*,*,#296,.T.);
#123=ORIENTED_EDGE('',*,*,#297,.T.);
#124=ORIENTED_EDGE('',*,*,#298,.F.);
#125=ORIENTED_EDGE('',*,*,#293,.F.);
#126=ORIENTED_EDGE('',*,*,#299,.T.);
#127=ORIENTED_EDGE('',*,*,#300,.T.);
#128=ORIENTED_EDGE('',*,*,#301,.F.);
#129=ORIENTED_EDGE('',*,*,#297,.F.);
#130=ORIENTED_EDGE('',*,*,#302,.T.);
#131=ORIENTED_EDGE('',*,*,#303,.T.);
#132=ORIENTED_EDGE('',*,*,#304,.F.);
#133=ORIENTED_EDGE('',*,*,#300,.F.);
#134=ORIENTED_EDGE('',*,*,#305,.T.);
#135=ORIENTED_EDGE('',*,*,#306,.T.);
#136=ORIENTED_EDGE('',*,*,#307,.F.);
#137=ORIENTED_EDGE('',*,*,#303,.F.);
#138=ORIENTED_EDGE('',*,*,#308,.T.);
#139=ORIENTED_EDGE('',*,*,#309,.T.);
#140=ORIENTED_EDGE('',*,*,#310,.F.);
#141=ORIENTED_EDGE('',*,*,#306,.F.);
#142=ORIENTED_EDGE('',*,*,#311,.T.);
#143=ORIENTED_EDGE('',*,*,#312,.T.);
#144=ORIENTED_EDGE('',*,*,#313,.F.);
#145=ORIENTED_EDGE('',*,*,#309,.F.);
#146=ORIENTED_EDGE('',*,*,#314,.T.);
#147=ORIENTED_EDGE('',*,*,#315,.T.);
#148=ORIENTED_EDGE('',*,*,#316,.F.);
#149=ORIENTED_EDGE('',*,*,#312,.F.);
#150=ORIENTED_EDGE('',*,*,#317,.T.);
#151=ORIENTED_EDGE('',*,*,#318,.T.);
#152=ORIENTED_EDGE('',*,*,#319,.F.);
#153=ORIENTED_EDGE('',*,*,#315,.F.);
#154=ORIENTED_EDGE('',*,*,#320,.T.);
#155=ORIENTED_EDGE('',*,*,#321,.T.);
#156=ORIENTED_EDGE('',*,*,#322,.F.);
#157=ORIENTED_EDGE('',*,*,#318,.F.);
#158=ORIENTED_EDGE('',*,*,#323,.T.);
#159=ORIENTED_EDGE('',*,*,#324,.T.);
#160=ORIENTED_EDGE('',*,*,#325,.F.);
#161=ORIENTED_EDGE('',*,*,#321,.F.);
#162=ORIENTED_EDGE('',*,*,#326,.T.);
#163=ORIENTED_EDGE('',*,*,#327,.T.);
#164=ORIENTED_EDGE('',*,*,#328,.F.);
#165=ORIENTED_EDGE('',*,*,#324,.F.);
#166=ORIENTED_EDGE('',*,*,#329,.T.);
#167=ORIENTED_EDGE('',*,*,#330,.T.);
#168=ORIENTED_EDGE('',*,*,#331,.F.);
#169=ORIENTED_EDGE('',*,*,#327,.F.);
#170=ORIENTED_EDGE('',*,*,#332,.T.);
#171=ORIENTED_EDGE('',*,*,#333,.T.);
#172=ORIENTED_EDGE('',*,*,#334,.F.);
#173=ORIENTED_EDGE('',*,*,#330,.F.);
#174=ORIENTED_EDGE('',*,*,#335,.T.);
#175=ORIENTED_EDGE('',*,*,#336,.T.);
#176=ORIENTED_EDGE('',*,*,#337,.F.);
#177=ORIENTED_EDGE('',*,*,#333,.F.);
#178=ORIENTED_EDGE('',*,*,#338,.T.);
#179=ORIENTED_EDGE('',*,*,#295,.T.);
#180=ORIENTED_EDGE('',*,*,#339,.F.);
#181=ORIENTED_EDGE('',*,*,#336,.F.);
#182=ORIENTED_EDGE('',*,*,#340,.T.);
#183=ORIENTED_EDGE('',*,*,#341,.T.);
#184=ORIENTED_EDGE('',*,*,#342,.F.);
#185=ORIENTED_EDGE('',*,*,#343,.F.);
#186=ORIENTED_EDGE('',*,*,#344,.T.);
#187=ORIENTED_EDGE('',*,*,#345,.T.);
#188=ORIENTED_EDGE('',*,*,#346,.F.);
#189=ORIENTED_EDGE('',*,*,#341,.F.);
#190=ORIENTED_EDGE('',*,*,#347,.T.);
#191=ORIENTED_EDGE('',*,*,#348,.T.);
#192=ORIENTED_EDGE('',*,*,#349,.F.);
#193=ORIENTED_EDGE('',*,*,#345,.F.);
#194=ORIENTED_EDGE('',*,*,#350,.T.);
#195=ORIENTED_EDGE('',*,*,#351,.T.);
#196=ORIENTED_EDGE('',*,*,#352,.F.);
#197=ORIENTED_EDGE('',*,*,#348,.F.);
#198=ORIENTED_EDGE('',*,*,#353,.T.);
#199=ORIENTED_EDGE('',*,*,#354,.T.);
#200=ORIENTED_EDGE('',*,*,#355,.F.);
#201=ORIENTED_EDGE('',*,*,#351,.F.);
#202=ORIENTED_EDGE('',*,*,#356,.T.);
#203=ORIENTED_EDGE('',*,*,#357,.T.);
#204=ORIENTED_EDGE('',*,*,#358,.F.);
#205=ORIENTED_EDGE('',*,*,#354,.F.);
#206=ORIENTED_EDGE('',*,*,#359,.T.);
#207=ORIENTED_EDGE('',*,*,#343,.T.);
#208=ORIENTED_EDGE('',*,*,#360,.F.);
#209=ORIENTED_EDGE('',*,*,#357,.F.);
#210=ORIENTED_EDGE('',*,*,#361,.T.);
#211=ORIENTED_EDGE('',*,*,#362,.T.);
#212=ORIENTED_EDGE('',*,*,#363,.F.);
#213=ORIENTED_EDGE('',*,*,#364,.F.);
#214=ORIENTED_EDGE('',*,*,#365,.T.);
#215=ORIENTED_EDGE('',*,*,#366,.T.);
#216=ORIENTED_EDGE('',*,*,#367,.F.);
#217=ORIENTED_EDGE('',*,*,#362,.F.);
#218=ORIENTED_EDGE('',*,*,#368,.T.);
#219=ORIENTED_EDGE('',*,*,#369,.T.);
#220=ORIENTED_EDGE('',*,*,#370,.F.);
#221=ORIENTED_EDGE('',*,*,#366,.F.);
#222=ORIENTED_EDGE('',*,*,#371,.T.);
#223=ORIENTED_EDGE('',*,*,#372,.T.);
#224=ORIENTED_EDGE('',*,*,#373,.F.);
#225=ORIENTED_EDGE('',*,*,#369,.F.);
#226=ORIENTED_EDGE('',*,*,#374,.T.);
#227=ORIENTED_EDGE('',*,*,#375,.T.);
#228=ORIENTED_EDGE('',*,*,#376,.F.);
#229=ORIENTED_EDGE('',*,*,#372,.F.);
#230=ORIENTED_EDGE('',*,*,#377,.T.);
#231=ORIENTED_EDGE('',*,*,#364,.T.);
#232=ORIENTED_EDGE('',*,*,#378,.F.);
#233=ORIENTED_EDGE('',*,*,#375,.F.);
#234=ORIENTED_EDGE('',*,*,#338,.F.);
#235=ORIENTED_EDGE('',*,*,#335,.F.);
#236=ORIENTED_EDGE('',*,*,#332,.F.);
#237=ORIENTED_EDGE('',*,*,#329,.F.);
#238=ORIENTED_EDGE('',*,*,#326,.F.);
#239=ORIENTED_EDGE('',*,*,#323,.F.);
#240=ORIENTED_EDGE('',*,*,#320,.F.);
#241=ORIENTED_EDGE('',*,*,#317,.F.);
#242=ORIENTED_EDGE('',*,*,#314,.F.);
#243=ORIENTED_EDGE('',*,*,#311,.F.);
#244=ORIENTED_EDGE('',*,*,#308,.F.);
#245=ORIENTED_EDGE('',*,*,#305,.F.);
#246=ORIENTED_EDGE('',*,*,#302,.F.);
#247=ORIENTED_EDGE('',*,*,#299,.F.);
#248=ORIENTED_EDGE('',*,*,#296,.F.);
#249=ORIENTED_EDGE('',*,*,#292,.F.);
#250=ORIENTED_EDGE('',*,*,#359,.F.);
#251=ORIENTED_EDGE('',*,*,#356,.F.);
#252=ORIENTED_EDGE('',*,*,#353,.F.);
#253=ORIENTED_EDGE('',*,*,#350,.F.);
#254=ORIENTED_EDGE('',*,*,#347,.F.);
#255=ORIENTED_EDGE('',*,*,#344,.F.);
#256=ORIENTED_EDGE('',*,*,#340,.F.);
#257=ORIENTED_EDGE('',*,*,#377,.F.);
#258=ORIENTED_EDGE('',*,*,#374,.F.);
#259=ORIENTED_EDGE('',*,*,#371,.F.);
#260=ORIENTED_EDGE('',*,*,#368,.F.);
#261=ORIENTED_EDGE('',*,*,#365,.F.);
#262=ORIENTED_EDGE('',*,*,#361,.F.);
#263=ORIENTED_EDGE('',*,*,#294,.T.);
#264=ORIENTED_EDGE('',*,*,#298,.T.);
#265=ORIENTED_EDGE('',*,*,#301,.T.);
#266=ORIENTED_EDGE('',*,*,#304,.T.);
#267=ORIENTED_EDGE('',*,*,#307,.T.);
#268=ORIENTED_EDGE('',*,*,#310,.T.);
#269=ORIENTED_EDGE('',*,*,#313,.T.);
#270=ORIENTED_EDGE('',*,*,#316,.T.);
#271=ORIENTED_EDGE('',*,*,#319,.T.);
#272=ORIENTED_EDGE('',*,*,#322,.T.);
#273=ORIENTED_EDGE('',*,*,#325,.T.);
#274=ORIENTED_EDGE('',*,*,#328,.T.);
#275=ORIENTED_EDGE('',*,*,#331,.T.);
#276=ORIENTED_EDGE('',*,*,#334,.T.);
#277=ORIENTED_EDGE('',*,*,#337,.T.);
#278=ORIENTED_EDGE('',*,*,#339,.T.);
#279=ORIENTED_EDGE('',*,*,#342,.T.);
#280=ORIENTED_EDGE('',*,*,#346,.T.);
#281=ORIENTED_EDGE('',*,*,#349,.T.);
#282=ORIENTED_EDGE('',*,*,#352,.T.);
#283=ORIENTED_EDGE('',*,*,#355,.T.);
#284=ORIENTED_EDGE('',*,*,#358,.T.);
#285=ORIENTED_EDGE('',*,*,#360,.T.);
#286=ORIENTED_EDGE('',*,*,#363,.T.);
#287=ORIENTED_EDGE('',*,*,#367,.T.);
#288=ORIENTED_EDGE('',*,*,#370,.T.);
#289=ORIENTED_EDGE('',*,*,#373,.T.);
#290=ORIENTED_EDGE('',*,*,#376,.T.);
#291=ORIENTED_EDGE('',*,*,#378,.T.);
#292=EDGE_CURVE('',#499,#500,#436,.T.);
#293=EDGE_CURVE('',#500,#501,#437,.T.);
#294=EDGE_CURVE('',#502,#501,#438,.T.);
#295=EDGE_CURVE('',#499,#502,#439,.T.);
#296=EDGE_CURVE('',#500,#503,#396,.T.);
#297=EDGE_CURVE('',#503,#504,#379,.T.);
#298=EDGE_CURVE('',#501,#504,#397,.T.);
#299=EDGE_CURVE('',#503,#505,#440,.T.);
#300=EDGE_CURVE('',#505,#506,#441,.T.);
#301=EDGE_CURVE('',#504,#506,#442,.T.);
#302=EDGE_CURVE('',#505,#507,#443,.T.);
#303=EDGE_CURVE('',#507,#508,#444,.T.);
#304=EDGE_CURVE('',#506,#508,#445,.T.);
#305=EDGE_CURVE('',#507,#509,#446,.T.);
#306=EDGE_CURVE('',#509,#510,#447,.T.);
#307=EDGE_CURVE('',#508,#510,#448,.T.);
#308=EDGE_CURVE('',#509,#511,#398,.T.);
#309=EDGE_CURVE('',#511,#512,#380,.T.);
#310=EDGE_CURVE('',#510,#512,#399,.T.);
#311=EDGE_CURVE('',#511,#513,#449,.T.);
#312=EDGE_CURVE('',#513,#514,#450,.T.);
#313=EDGE_CURVE('',#512,#514,#451,.T.);
#314=EDGE_CURVE('',#513,#515,#400,.T.);
#315=EDGE_CURVE('',#515,#516,#381,.T.);
#316=EDGE_CURVE('',#514,#516,#401,.T.);
#317=EDGE_CURVE('',#515,#517,#452,.T.);
#318=EDGE_CURVE('',#517,#518,#453,.T.);
#319=EDGE_CURVE('',#516,#518,#454,.T.);
#320=EDGE_CURVE('',#517,#519,#402,.T.);
#321=EDGE_CURVE('',#519,#520,#382,.T.);
#322=EDGE_CURVE('',#518,#520,#403,.T.);
#323=EDGE_CURVE('',#519,#521,#455,.T.);
#324=EDGE_CURVE('',#521,#522,#456,.T.);
#325=EDGE_CURVE('',#520,#522,#457,.T.);
#326=EDGE_CURVE('',#521,#523,#458,.T.);
#327=EDGE_CURVE('',#523,#524,#459,.T.);
#328=EDGE_CURVE('',#522,#524,#460,.T.);
#329=EDGE_CURVE('',#523,#525,#461,.T.);
#330=EDGE_CURVE('',#525,#526,#462,.T.);
#331=EDGE_CURVE('',#524,#526,#463,.T.);
#332=EDGE_CURVE('',#525,#527,#404,.T.);
#333=EDGE_CURVE('',#527,#528,#383,.T.);
#334=EDGE_CURVE('',#526,#528,#405,.T.);
#335=EDGE_CURVE('',#527,#529,#464,.T.);
#336=EDGE_CURVE('',#529,#530,#465,.T.);
#337=EDGE_CURVE('',#528,#530,#466,.T.);
#338=EDGE_CURVE('',#529,#499,#406,.T.);
#339=EDGE_CURVE('',#530,#502,#407,.T.);
#340=EDGE_CURVE('',#531,#532,#467,.T.);
#341=EDGE_CURVE('',#532,#533,#468,.T.);
#342=EDGE_CURVE('',#534,#533,#469,.T.);
#343=EDGE_CURVE('',#531,#534,#470,.T.);
#344=EDGE_CURVE('',#532,#535,#471,.T.);
#345=EDGE_CURVE('',#535,#536,#472,.T.);
#346=EDGE_CURVE('',#533,#536,#473,.T.);
#347=EDGE_CURVE('',#535,#537,#474,.T.);
#348=EDGE_CURVE('',#537,#538,#475,.T.);
#349=EDGE_CURVE('',#536,#538,#476,.T.);
#350=EDGE_CURVE('',#537,#539,#408,.T.);
#351=EDGE_CURVE('',#539,#540,#384,.T.);
#352=EDGE_CURVE('',#538,#540,#409,.T.);
#353=EDGE_CURVE('',#539,#541,#477,.T.);
#354=EDGE_CURVE('',#541,#542,#478,.T.);
#355=EDGE_CURVE('',#540,#542,#479,.T.);
#356=EDGE_CURVE('',#541,#543,#480,.T.);
#357=EDGE_CURVE('',#543,#544,#481,.T.);
#358=EDGE_CURVE('',#542,#544,#482,.T.);
#359=EDGE_CURVE('',#543,#531,#483,.T.);
#360=EDGE_CURVE('',#544,#534,#484,.T.);
#361=EDGE_CURVE('',#545,#546,#485,.T.);
#362=EDGE_CURVE('',#546,#547,#486,.T.);
#363=EDGE_CURVE('',#548,#547,#487,.T.);
#364=EDGE_CURVE('',#545,#548,#488,.T.);
#365=EDGE_CURVE('',#546,#549,#489,.T.);
#366=EDGE_CURVE('',#549,#550,#490,.T.);
#367=EDGE_CURVE('',#547,#550,#491,.T.);
#368=EDGE_CURVE('',#549,#551,#410,.T.);
#369=EDGE_CURVE('',#551,#552,#385,.T.);
#370=EDGE_CURVE('',#550,#552,#411,.T.);
#371=EDGE_CURVE('',#551,#553,#412,.T.);
#372=EDGE_CURVE('',#553,#554,#386,.T.);
#373=EDGE_CURVE('',#552,#554,#413,.T.);
#374=EDGE_CURVE('',#553,#555,#492,.T.);
#375=EDGE_CURVE('',#555,#556,#493,.T.);
#376=EDGE_CURVE('',#554,#556,#494,.T.);
#377=EDGE_CURVE('',#555,#545,#495,.T.);
#378=EDGE_CURVE('',#556,#548,#496,.T.);
#379=(
BOUNDED_CURVE()
B_SPLINE_CURVE(1,(#923,#924),.UNSPECIFIED.,.F.,.F.)
B_SPLINE_CURVE_WITH_KNOTS((2,2),(0.,1.),.UNSPECIFIED.)
CURVE()
GEOMETRIC_REPRESENTATION_ITEM()
RATIONAL_B_SPLINE_CURVE((1.,1.))
REPRESENTATION_ITEM('')
);
#380=(
BOUNDED_CURVE()
B_SPLINE_CURVE(1,(#949,#950),.UNSPECIFIED.,.F.,.F.)
B_SPLINE_CURVE_WITH_KNOTS((2,2),(0.,1.),.UNSPECIFIED.)
CURVE()
GEOMETRIC_REPRESENTATION_ITEM()
RATIONAL_B_SPLINE_CURVE((1.,1.))
REPRESENTATION_ITEM('')
);
#381=(
BOUNDED_CURVE()
B_SPLINE_CURVE(1,(#963,#964),.UNSPECIFIED.,.F.,.F.)
B_SPLINE_CURVE_WITH_KNOTS((2,2),(0.,1.),.UNSPECIFIED.)
CURVE()
GEOMETRIC_REPRESENTATION_ITEM()
RATIONAL_B_SPLINE_CURVE((1.,1.))
REPRESENTATION_ITEM('')
);
#382=(
BOUNDED_CURVE()
B_SPLINE_CURVE(1,(#977,#978),.UNSPECIFIED.,.F.,.F.)
B_SPLINE_CURVE_WITH_KNOTS((2,2),(0.,1.),.UNSPECIFIED.)
CURVE()
GEOMETRIC_REPRESENTATION_ITEM()
RATIONAL_B_SPLINE_CURVE((1.,1.))
REPRESENTATION_ITEM('')
);
#383=(
BOUNDED_CURVE()
B_SPLINE_CURVE(1,(#1003,#1004),.UNSPECIFIED.,.F.,.F.)
B_SPLINE_CURVE_WITH_KNOTS((2,2),(0.,1.),.UNSPECIFIED.)
CURVE()
GEOMETRIC_REPRESENTATION_ITEM()
RATIONAL_B_SPLINE_CURVE((1.,1.))
REPRESENTATION_ITEM('')
);
#384=(
BOUNDED_CURVE()
B_SPLINE_CURVE(1,(#1049,#1050),.UNSPECIFIED.,.F.,.F.)
B_SPLINE_CURVE_WITH_KNOTS((2,2),(0.,1.),.UNSPECIFIED.)
CURVE()
GEOMETRIC_REPRESENTATION_ITEM()
RATIONAL_B_SPLINE_CURVE((1.,1.))
REPRESENTATION_ITEM('')
);
#385=(
BOUNDED_CURVE()
B_SPLINE_CURVE(1,(#1089,#1090),.UNSPECIFIED.,.F.,.F.)
B_SPLINE_CURVE_WITH_KNOTS((2,2),(0.,1.),.UNSPECIFIED.)
CURVE()
GEOMETRIC_REPRESENTATION_ITEM()
RATIONAL_B_SPLINE_CURVE((1.,1.))
REPRESENTATION_ITEM('')
);
#386=(
BOUNDED_CURVE()
B_SPLINE_CURVE(1,(#1097,#1098),.UNSPECIFIED.,.F.,.F.)
B_SPLINE_CURVE_WITH_KNOTS((2,2),(0.,1.),.UNSPECIFIED.)
CURVE()
GEOMETRIC_REPRESENTATION_ITEM()
RATIONAL_B_SPLINE_CURVE((1.,1.))
REPRESENTATION_ITEM('')
);
#387=(
BOUNDED_CURVE()
B_SPLINE_CURVE(3,(#1118,#1119,#1120,#1121,#1122,#1123,#1124,#1125,#1126,
#1127,#1128,#1129,#1130,#1131,#1132,#1133,#1134,#1135,#1136,#1137,#1138,
#1139,#1140,#1141,#1142),.UNSPECIFIED.,.T.,.F.)
B_SPLINE_CURVE_WITH_KNOTS((4,3,3,3,3,3,3,3,4),(-8.,-7.,-6.,-5.,-4.,-3.,
-2.,-1.,0.),.UNSPECIFIED.)
CURVE()
GEOMETRIC_REPRESENTATION_ITEM()
RATIONAL_B_SPLINE_CURVE((1.,1.,1.,1.,1.,1.,1.,1.,1.,1.,0.913570104044902,
0.913570104044902,1.,1.,1.,1.,1.,1.,1.,1.,1.,1.,1.,1.,1.))
REPRESENTATION_ITEM('')
);
#388=(
BOUNDED_CURVE()
B_SPLINE_CURVE(3,(#1143,#1144,#1145,#1146,#1147,#1148,#1149,#1150,#1151,
#1152,#1153,#1154,#1155,#1156,#1157,#1158,#1159,#1160,#1161,#1162,#1163,
#1164,#1165,#1166,#1167),.UNSPECIFIED.,.T.,.F.)
B_SPLINE_CURVE_WITH_KNOTS((4,3,3,3,3,3,3,3,4),(-8.,-7.,-6.,-5.,-4.,-3.,
-2.,-1.,0.),.UNSPECIFIED.)
CURVE()
GEOMETRIC_REPRESENTATION_ITEM()
RATIONAL_B_SPLINE_CURVE((1.,1.,1.,1.,1.,1.,1.,1.,1.,1.,0.999999847104749,
0.999999847104749,1.,0.91311370128189,0.91311370128189,1.,1.,1.,1.,1.,1.,
1.,1.,1.,1.))
REPRESENTATION_ITEM('')
);
#389=(
BOUNDED_CURVE()
B_SPLINE_CURVE(2,(#1168,#1169,#1170,#1171,#1172,#1173,#1174,#1175,#1176,
#1177,#1178,#1179,#1180,#1181,#1182,#1183,#1184,#1185,#1186,#1187,#1188,
#1189,#1190,#1191,#1192,#1193,#1194,#1195,#1196,#1197,#1198,#1199,#1200,
#1201,#1202,#1203,#1204,#1205,#1206,#1207,#1208,#1209,#1210,#1211,#1212,
#1213,#1214),.UNSPECIFIED.,.T.,.F.)
B_SPLINE_CURVE_WITH_KNOTS((3,2,2,2,2,2,2,2,2,2,2,2,2,2,2,2,2,2,2,2,2,2,
2,3),(-79.5973104528073,-69.5884676363465,-59.5796248198857,-49.5707820034249,
-39.5619391869641,-13.9062279571888,-7.62304265000924,-1.33985734282965,
23.4601426571704,24.4601426571704,48.3062965033242,53.0186854837089,57.7310744640936,
81.8908210579073,86.7949412862057,109.655172572925,112.482605961156,115.310039349386,
137.862084312638,138.862084312638,162.386200179477,166.784429894503,171.182659609529,
195.343723856288),.UNSPECIFIED.)
CURVE()
GEOMETRIC_REPRESENTATION_ITEM()
RATIONAL_B_SPLINE_CURVE((1.,0.785522582191457,1.,0.785522582191457,1.,0.785522582191457,
1.,0.785522582191457,1.,1.,1.,0.707106781186547,1.,0.707106781186547,1.,
1.,1.,1.,1.,1.,1.,0.707106781186548,1.,0.707106781186548,1.,1.,1.,0.947029051386061,
1.,1.,1.,0.707106781186545,1.,0.707106781186545,1.,1.,1.,1.,1.,1.,1.,0.707106781186548,
1.,0.707106781186548,1.,1.,1.))
REPRESENTATION_ITEM('')
);
#390=(
BOUNDED_CURVE()
B_SPLINE_CURVE(2,(#1223,#1224,#1225,#1226,#1227,#1228,#1229,#1230,#1231),
 .UNSPECIFIED.,.F.,.F.)
B_SPLINE_CURVE_WITH_KNOTS((3,2,2,2,3),(106.029758060859,130.190822307618,
134.589052022644,138.98728173767,162.511397604509),.UNSPECIFIED.)
CURVE()
GEOMETRIC_REPRESENTATION_ITEM()
RATIONAL_B_SPLINE_CURVE((1.,1.,1.,0.707106781186548,1.,0.707106781186549,
1.,1.,1.))
REPRESENTATION_ITEM('')
);
#391=(
BOUNDED_CURVE()
B_SPLINE_CURVE(2,(#1232,#1233,#1234,#1235,#1236,#1237,#1238,#1239,#1240),
 .UNSPECIFIED.,.F.,.F.)
B_SPLINE_CURVE_WITH_KNOTS((3,2,2,2,3),(103.256516946825,126.116748233544,
128.944181621775,131.771615010006,154.323659973257),.UNSPECIFIED.)
CURVE()
GEOMETRIC_REPRESENTATION_ITEM()
RATIONAL_B_SPLINE_CURVE((1.,1.,1.,0.707106781186546,1.,0.707106781186546,
1.,1.,1.))
REPRESENTATION_ITEM('')
);
#392=(
BOUNDED_CURVE()
B_SPLINE_CURVE(2,(#1241,#1242,#1243,#1244,#1245,#1246,#1247,#1248,#1249),
 .UNSPECIFIED.,.F.,.F.)
B_SPLINE_CURVE_WITH_KNOTS((3,2,2,2,3),(-26.1293391533334,-2.28318530717959,
2.42920367320511,7.1415926535898,31.3013392474035),.UNSPECIFIED.)
CURVE()
GEOMETRIC_REPRESENTATION_ITEM()
RATIONAL_B_SPLINE_CURVE((1.,1.,1.,0.707106781186547,1.,0.707106781186547,
1.,1.,1.))
REPRESENTATION_ITEM('')
);
#393=(
BOUNDED_CURVE()
B_SPLINE_CURVE(2,(#1252,#1253,#1254,#1255,#1256,#1257,#1258,#1259,#1260),
 .UNSPECIFIED.,.F.,.F.)
B_SPLINE_CURVE_WITH_KNOTS((3,2,2,2,3),(33.4858814238146,59.1415926535898,
65.4247779607694,71.707963267949,96.507963267949),.UNSPECIFIED.)
CURVE()
GEOMETRIC_REPRESENTATION_ITEM()
RATIONAL_B_SPLINE_CURVE((1.,1.,1.,0.707106781186548,1.,0.707106781186548,
1.,1.,1.))
REPRESENTATION_ITEM('')
);
#394=(
BOUNDED_CURVE()
B_SPLINE_CURVE(3,(#1261,#1262,#1263,#1264,#1265,#1266,#1267,#1268,#1269,
#1270,#1271,#1272,#1273,#1274,#1275,#1276,#1277,#1278,#1279,#1280,#1281,
#1282,#1283,#1284,#1285),.UNSPECIFIED.,.T.,.F.)
B_SPLINE_CURVE_WITH_KNOTS((4,3,3,3,3,3,3,3,4),(0.,1.,2.,3.,4.,5.,6.,7.,
8.),.UNSPECIFIED.)
CURVE()
GEOMETRIC_REPRESENTATION_ITEM()
RATIONAL_B_SPLINE_CURVE((1.,1.,1.,1.,0.999999870488039,0.999999870488039,
1.,1.,1.,1.,0.999999953437713,0.999999953437713,1.,1.,1.,1.,0.999999939205153,
0.999999939205153,1.,0.999918422642204,0.999918422642204,1.,1.,1.,1.))
REPRESENTATION_ITEM('')
);
#395=(
BOUNDED_CURVE()
B_SPLINE_CURVE(3,(#1286,#1287,#1288,#1289,#1290,#1291,#1292,#1293,#1294,
#1295,#1296,#1297,#1298,#1299,#1300,#1301,#1302,#1303,#1304,#1305,#1306,
#1307,#1308,#1309,#1310),.UNSPECIFIED.,.T.,.F.)
B_SPLINE_CURVE_WITH_KNOTS((4,3,3,3,3,3,3,3,4),(0.,1.,2.,3.,4.,5.,6.,7.,
8.),.UNSPECIFIED.)
CURVE()
GEOMETRIC_REPRESENTATION_ITEM()
RATIONAL_B_SPLINE_CURVE((1.,1.,1.,1.,1.,1.,1.,0.999999894356809,0.999999894356809,
1.,1.,1.,1.,0.999999847104748,0.999999847104748,1.,1.,1.,1.,0.999999708016086,
0.999999708016086,1.,0.999892159261328,0.999892159261328,1.))
REPRESENTATION_ITEM('')
);
#396=TRIMMED_CURVE($,#416,(#921),(#922),.T.,.CARTESIAN.);
#397=TRIMMED_CURVE($,#417,(#926),(#927),.T.,.CARTESIAN.);
#398=TRIMMED_CURVE($,#418,(#947),(#948),.T.,.CARTESIAN.);
#399=TRIMMED_CURVE($,#419,(#952),(#953),.T.,.CARTESIAN.);
#400=TRIMMED_CURVE($,#420,(#961),(#962),.T.,.CARTESIAN.);
#401=TRIMMED_CURVE($,#421,(#966),(#967),.T.,.CARTESIAN.);
#402=TRIMMED_CURVE($,#422,(#975),(#976),.T.,.CARTESIAN.);
#403=TRIMMED_CURVE($,#423,(#980),(#981),.T.,.CARTESIAN.);
#404=TRIMMED_CURVE($,#424,(#1001),(#1002),.T.,.CARTESIAN.);
#405=TRIMMED_CURVE($,#425,(#1006),(#1007),.T.,.CARTESIAN.);
#406=TRIMMED_CURVE($,#426,(#1015),(#1016),.T.,.CARTESIAN.);
#407=TRIMMED_CURVE($,#427,(#1018),(#1019),.T.,.CARTESIAN.);
#408=TRIMMED_CURVE($,#428,(#1047),(#1048),.T.,.CARTESIAN.);
#409=TRIMMED_CURVE($,#429,(#1052),(#1053),.T.,.CARTESIAN.);
#410=TRIMMED_CURVE($,#430,(#1087),(#1088),.T.,.CARTESIAN.);
#411=TRIMMED_CURVE($,#431,(#1092),(#1093),.T.,.CARTESIAN.);
#412=TRIMMED_CURVE($,#432,(#1095),(#1096),.T.,.CARTESIAN.);
#413=TRIMMED_CURVE($,#433,(#1100),(#1101),.T.,.CARTESIAN.);
#414=TRIMMED_CURVE($,#434,(#1216),(#1217),.T.,.CARTESIAN.);
#415=TRIMMED_CURVE($,#435,(#1219),(#1220),.T.,.CARTESIAN.);
#416=CIRCLE('',#703,2.8);
#417=CIRCLE('',#704,2.8);
#418=CIRCLE('',#705,1.8);
#419=CIRCLE('',#706,1.8);
#420=CIRCLE('',#707,7.49999999999999);
#421=CIRCLE('',#708,7.49999999999999);
#422=CIRCLE('',#709,3.);
#423=CIRCLE('',#710,3.);
#424=CIRCLE('',#711,4.);
#425=CIRCLE('',#712,4.);
#426=CIRCLE('',#713,7.5);
#427=CIRCLE('',#714,7.5);
#428=CIRCLE('',#715,0.0838757897284796);
#429=CIRCLE('',#716,0.0838757897284796);
#430=CIRCLE('',#717,0.124944158208042);
#431=CIRCLE('',#718,0.124944158208042);
#432=CIRCLE('',#719,4860.3026349233);
#433=CIRCLE('',#720,4860.3026349233);
#434=CIRCLE('',#721,7.5);
#435=CIRCLE('',#722,7.5);
#436=B_SPLINE_CURVE_WITH_KNOTS('',1,(#912,#913),.UNSPECIFIED.,.F.,.F.,(2,
2),(-195.343723856288,-171.182659609529),.UNSPECIFIED.);
#437=B_SPLINE_CURVE_WITH_KNOTS('',1,(#914,#915),.UNSPECIFIED.,.F.,.F.,(2,
2),(0.,1.),.UNSPECIFIED.);
#438=B_SPLINE_CURVE_WITH_KNOTS('',1,(#916,#917),.UNSPECIFIED.,.F.,.F.,(2,
2),(-195.343723856288,-171.182659609529),.UNSPECIFIED.);
#439=B_SPLINE_CURVE_WITH_KNOTS('',1,(#918,#919),.UNSPECIFIED.,.F.,.F.,(2,
2),(0.,1.),.UNSPECIFIED.);
#440=B_SPLINE_CURVE_WITH_KNOTS('',1,(#928,#929),.UNSPECIFIED.,.F.,.F.,(2,
2),(-162.386200179477,-138.862084312638),.UNSPECIFIED.);
#441=B_SPLINE_CURVE_WITH_KNOTS('',1,(#930,#931),.UNSPECIFIED.,.F.,.F.,(2,
2),(0.,1.),.UNSPECIFIED.);
#442=B_SPLINE_CURVE_WITH_KNOTS('',1,(#932,#933),.UNSPECIFIED.,.F.,.F.,(2,
2),(-162.386200179477,-138.862084312638),.UNSPECIFIED.);
#443=B_SPLINE_CURVE_WITH_KNOTS('',1,(#934,#935),.UNSPECIFIED.,.F.,.F.,(2,
2),(-138.862084312638,-137.862084312638),.UNSPECIFIED.);
#444=B_SPLINE_CURVE_WITH_KNOTS('',1,(#936,#937),.UNSPECIFIED.,.F.,.F.,(2,
2),(0.,1.),.UNSPECIFIED.);
#445=B_SPLINE_CURVE_WITH_KNOTS('',1,(#938,#939),.UNSPECIFIED.,.F.,.F.,(2,
2),(-138.862084312638,-137.862084312638),.UNSPECIFIED.);
#446=B_SPLINE_CURVE_WITH_KNOTS('',1,(#940,#941),.UNSPECIFIED.,.F.,.F.,(2,
2),(-137.862084312638,-115.310039349386),.UNSPECIFIED.);
#447=B_SPLINE_CURVE_WITH_KNOTS('',1,(#942,#943),.UNSPECIFIED.,.F.,.F.,(2,
2),(0.,1.),.UNSPECIFIED.);
#448=B_SPLINE_CURVE_WITH_KNOTS('',1,(#944,#945),.UNSPECIFIED.,.F.,.F.,(2,
2),(-137.862084312638,-115.310039349386),.UNSPECIFIED.);
#449=B_SPLINE_CURVE_WITH_KNOTS('',1,(#954,#955),.UNSPECIFIED.,.F.,.F.,(2,
2),(-109.655172572925,-86.7949412862057),.UNSPECIFIED.);
#450=B_SPLINE_CURVE_WITH_KNOTS('',1,(#956,#957),.UNSPECIFIED.,.F.,.F.,(2,
2),(0.,1.),.UNSPECIFIED.);
#451=B_SPLINE_CURVE_WITH_KNOTS('',1,(#958,#959),.UNSPECIFIED.,.F.,.F.,(2,
2),(-109.655172572925,-86.7949412862057),.UNSPECIFIED.);
#452=B_SPLINE_CURVE_WITH_KNOTS('',1,(#968,#969),.UNSPECIFIED.,.F.,.F.,(2,
2),(-81.8908210579073,-57.7310744640936),.UNSPECIFIED.);
#453=B_SPLINE_CURVE_WITH_KNOTS('',1,(#970,#971),.UNSPECIFIED.,.F.,.F.,(2,
2),(0.,1.),.UNSPECIFIED.);
#454=B_SPLINE_CURVE_WITH_KNOTS('',1,(#972,#973),.UNSPECIFIED.,.F.,.F.,(2,
2),(-81.8908210579073,-57.7310744640936),.UNSPECIFIED.);
#455=B_SPLINE_CURVE_WITH_KNOTS('',1,(#982,#983),.UNSPECIFIED.,.F.,.F.,(2,
2),(-48.3062965033242,-24.4601426571704),.UNSPECIFIED.);
#456=B_SPLINE_CURVE_WITH_KNOTS('',1,(#984,#985),.UNSPECIFIED.,.F.,.F.,(2,
2),(0.,1.),.UNSPECIFIED.);
#457=B_SPLINE_CURVE_WITH_KNOTS('',1,(#986,#987),.UNSPECIFIED.,.F.,.F.,(2,
2),(-48.3062965033242,-24.4601426571704),.UNSPECIFIED.);
#458=B_SPLINE_CURVE_WITH_KNOTS('',1,(#988,#989),.UNSPECIFIED.,.F.,.F.,(2,
2),(-24.4601426571704,-23.4601426571704),.UNSPECIFIED.);
#459=B_SPLINE_CURVE_WITH_KNOTS('',1,(#990,#991),.UNSPECIFIED.,.F.,.F.,(2,
2),(0.,1.),.UNSPECIFIED.);
#460=B_SPLINE_CURVE_WITH_KNOTS('',1,(#992,#993),.UNSPECIFIED.,.F.,.F.,(2,
2),(-24.4601426571704,-23.4601426571704),.UNSPECIFIED.);
#461=B_SPLINE_CURVE_WITH_KNOTS('',1,(#994,#995),.UNSPECIFIED.,.F.,.F.,(2,
2),(-23.4601426571704,1.33985734282965),.UNSPECIFIED.);
#462=B_SPLINE_CURVE_WITH_KNOTS('',1,(#996,#997),.UNSPECIFIED.,.F.,.F.,(2,
2),(0.,1.),.UNSPECIFIED.);
#463=B_SPLINE_CURVE_WITH_KNOTS('',1,(#998,#999),.UNSPECIFIED.,.F.,.F.,(2,
2),(-23.4601426571704,1.33985734282965),.UNSPECIFIED.);
#464=B_SPLINE_CURVE_WITH_KNOTS('',1,(#1008,#1009),.UNSPECIFIED.,.F.,.F.,
(2,2),(13.9062279571888,39.5619391869641),.UNSPECIFIED.);
#465=B_SPLINE_CURVE_WITH_KNOTS('',1,(#1010,#1011),.UNSPECIFIED.,.F.,.F.,
(2,2),(0.,1.),.UNSPECIFIED.);
#466=B_SPLINE_CURVE_WITH_KNOTS('',1,(#1012,#1013),.UNSPECIFIED.,.F.,.F.,
(2,2),(13.9062279571888,39.5619391869641),.UNSPECIFIED.);
#467=B_SPLINE_CURVE_WITH_KNOTS('',1,(#1020,#1021,#1022),.UNSPECIFIED.,.F.,
 .F.,(2,1,2),(79.5973104528073,80.5973104528073,81.5973104528073),
 .UNSPECIFIED.);
#468=B_SPLINE_CURVE_WITH_KNOTS('',1,(#1023,#1024),.UNSPECIFIED.,.F.,.F.,
(2,2),(0.,1.),.UNSPECIFIED.);
#469=B_SPLINE_CURVE_WITH_KNOTS('',1,(#1025,#1026,#1027),.UNSPECIFIED.,.F.,
 .F.,(2,1,2),(79.5973104528073,80.5973104528073,81.5973104528073),
 .UNSPECIFIED.);
#470=B_SPLINE_CURVE_WITH_KNOTS('',1,(#1028,#1029),.UNSPECIFIED.,.F.,.F.,
(2,2),(0.,1.),.UNSPECIFIED.);
#471=B_SPLINE_CURVE_WITH_KNOTS('',3,(#1030,#1031,#1032,#1033),
 .UNSPECIFIED.,.F.,.F.,(4,4),(81.5973104528073,82.5973104528073),
 .UNSPECIFIED.);
#472=B_SPLINE_CURVE_WITH_KNOTS('',1,(#1034,#1035),.UNSPECIFIED.,.F.,.F.,
(2,2),(0.,1.),.UNSPECIFIED.);
#473=B_SPLINE_CURVE_WITH_KNOTS('',3,(#1036,#1037,#1038,#1039),
 .UNSPECIFIED.,.F.,.F.,(4,4),(81.5973104528073,82.5973104528073),
 .UNSPECIFIED.);
#474=B_SPLINE_CURVE_WITH_KNOTS('',1,(#1040,#1041),.UNSPECIFIED.,.F.,.F.,
(2,2),(82.5973104528073,83.5973104528073),.UNSPECIFIED.);
#475=B_SPLINE_CURVE_WITH_KNOTS('',1,(#1042,#1043),.UNSPECIFIED.,.F.,.F.,
(2,2),(0.,1.),.UNSPECIFIED.);
#476=B_SPLINE_CURVE_WITH_KNOTS('',1,(#1044,#1045),.UNSPECIFIED.,.F.,.F.,
(2,2),(82.5973104528073,83.5973104528073),.UNSPECIFIED.);
#477=B_SPLINE_CURVE_WITH_KNOTS('',1,(#1054,#1055),.UNSPECIFIED.,.F.,.F.,
(2,2),(84.5973104528073,85.5973104528073),.UNSPECIFIED.);
#478=B_SPLINE_CURVE_WITH_KNOTS('',1,(#1056,#1057),.UNSPECIFIED.,.F.,.F.,
(2,2),(0.,1.),.UNSPECIFIED.);
#479=B_SPLINE_CURVE_WITH_KNOTS('',1,(#1058,#1059),.UNSPECIFIED.,.F.,.F.,
(2,2),(84.5973104528073,85.5973104528073),.UNSPECIFIED.);
#480=B_SPLINE_CURVE_WITH_KNOTS('',1,(#1060,#1061),.UNSPECIFIED.,.F.,.F.,
(2,2),(85.5973104528073,86.5973104528073),.UNSPECIFIED.);
#481=B_SPLINE_CURVE_WITH_KNOTS('',1,(#1062,#1063),.UNSPECIFIED.,.F.,.F.,
(2,2),(0.,1.),.UNSPECIFIED.);
#482=B_SPLINE_CURVE_WITH_KNOTS('',1,(#1064,#1065),.UNSPECIFIED.,.F.,.F.,
(2,2),(85.5973104528073,86.5973104528073),.UNSPECIFIED.);
#483=B_SPLINE_CURVE_WITH_KNOTS('',1,(#1066,#1067),.UNSPECIFIED.,.F.,.F.,
(2,2),(86.5973104528073,87.5973104528073),.UNSPECIFIED.);
#484=B_SPLINE_CURVE_WITH_KNOTS('',1,(#1068,#1069),.UNSPECIFIED.,.F.,.F.,
(2,2),(86.5973104528073,87.5973104528073),.UNSPECIFIED.);
#485=B_SPLINE_CURVE_WITH_KNOTS('',1,(#1070,#1071),.UNSPECIFIED.,.F.,.F.,
(2,2),(87.5973104528073,88.5973104528073),.UNSPECIFIED.);
#486=B_SPLINE_CURVE_WITH_KNOTS('',1,(#1072,#1073),.UNSPECIFIED.,.F.,.F.,
(2,2),(0.,1.),.UNSPECIFIED.);
#487=B_SPLINE_CURVE_WITH_KNOTS('',1,(#1074,#1075),.UNSPECIFIED.,.F.,.F.,
(2,2),(87.5973104528073,88.5973104528073),.UNSPECIFIED.);
#488=B_SPLINE_CURVE_WITH_KNOTS('',1,(#1076,#1077),.UNSPECIFIED.,.F.,.F.,
(2,2),(0.,1.),.UNSPECIFIED.);
#489=B_SPLINE_CURVE_WITH_KNOTS('',1,(#1078,#1079,#1080),.UNSPECIFIED.,.F.,
 .F.,(2,1,2),(88.5973104528073,89.5973104528073,90.5973104528073),
 .UNSPECIFIED.);
#490=B_SPLINE_CURVE_WITH_KNOTS('',1,(#1081,#1082),.UNSPECIFIED.,.F.,.F.,
(2,2),(0.,1.),.UNSPECIFIED.);
#491=B_SPLINE_CURVE_WITH_KNOTS('',1,(#1083,#1084,#1085),.UNSPECIFIED.,.F.,
 .F.,(2,1,2),(88.5973104528073,89.5973104528073,90.5973104528073),
 .UNSPECIFIED.);
#492=B_SPLINE_CURVE_WITH_KNOTS('',3,(#1102,#1103,#1104,#1105),
 .UNSPECIFIED.,.F.,.F.,(4,4),(92.5973104528073,93.5973104528073),
 .UNSPECIFIED.);
#493=B_SPLINE_CURVE_WITH_KNOTS('',1,(#1106,#1107),.UNSPECIFIED.,.F.,.F.,
(2,2),(0.,1.),.UNSPECIFIED.);
#494=B_SPLINE_CURVE_WITH_KNOTS('',3,(#1108,#1109,#1110,#1111),
 .UNSPECIFIED.,.F.,.F.,(4,4),(92.5973104528073,93.5973104528073),
 .UNSPECIFIED.);
#495=B_SPLINE_CURVE_WITH_KNOTS('',1,(#1112,#1113,#1114),.UNSPECIFIED.,.F.,
 .F.,(2,1,2),(93.5973104528073,94.5973104528073,95.5973104528073),
 .UNSPECIFIED.);
#496=B_SPLINE_CURVE_WITH_KNOTS('',1,(#1115,#1116,#1117),.UNSPECIFIED.,.F.,
 .F.,(2,1,2),(93.5973104528073,94.5973104528073,95.5973104528073),
 .UNSPECIFIED.);
#497=B_SPLINE_CURVE_WITH_KNOTS('',1,(#1221,#1222),.UNSPECIFIED.,.F.,.F.,
(2,2),(6.9,7.9),.UNSPECIFIED.);
#498=B_SPLINE_CURVE_WITH_KNOTS('',1,(#1250,#1251),.UNSPECIFIED.,.F.,.F.,
(2,2),(0.9,1.9),.UNSPECIFIED.);
#499=VERTEX_POINT('',#854);
#500=VERTEX_POINT('',#855);
#501=VERTEX_POINT('',#856);
#502=VERTEX_POINT('',#857);
#503=VERTEX_POINT('',#858);
#504=VERTEX_POINT('',#859);
#505=VERTEX_POINT('',#860);
#506=VERTEX_POINT('',#861);
#507=VERTEX_POINT('',#862);
#508=VERTEX_POINT('',#863);
#509=VERTEX_POINT('',#864);
#510=VERTEX_POINT('',#865);
#511=VERTEX_POINT('',#866);
#512=VERTEX_POINT('',#867);
#513=VERTEX_POINT('',#868);
#514=VERTEX_POINT('',#869);
#515=VERTEX_POINT('',#870);
#516=VERTEX_POINT('',#871);
#517=VERTEX_POINT('',#872);
#518=VERTEX_POINT('',#873);
#519=VERTEX_POINT('',#874);
#520=VERTEX_POINT('',#875);
#521=VERTEX_POINT('',#876);
#522=VERTEX_POINT('',#877);
#523=VERTEX_POINT('',#878);
#524=VERTEX_POINT('',#879);
#525=VERTEX_POINT('',#880);
#526=VERTEX_POINT('',#881);
#527=VERTEX_POINT('',#882);
#528=VERTEX_POINT('',#883);
#529=VERTEX_POINT('',#884);
#530=VERTEX_POINT('',#885);
#531=VERTEX_POINT('',#886);
#532=VERTEX_POINT('',#887);
#533=VERTEX_POINT('',#888);
#534=VERTEX_POINT('',#889);
#535=VERTEX_POINT('',#890);
#536=VERTEX_POINT('',#891);
#537=VERTEX_POINT('',#892);
#538=VERTEX_POINT('',#893);
#539=VERTEX_POINT('',#894);
#540=VERTEX_POINT('',#895);
#541=VERTEX_POINT('',#896);
#542=VERTEX_POINT('',#897);
#543=VERTEX_POINT('',#898);
#544=VERTEX_POINT('',#899);
#545=VERTEX_POINT('',#900);
#546=VERTEX_POINT('',#901);
#547=VERTEX_POINT('',#902);
#548=VERTEX_POINT('',#903);
#549=VERTEX_POINT('',#904);
#550=VERTEX_POINT('',#905);
#551=VERTEX_POINT('',#906);
#552=VERTEX_POINT('',#907);
#553=VERTEX_POINT('',#908);
#554=VERTEX_POINT('',#909);
#555=VERTEX_POINT('',#910);
#556=VERTEX_POINT('',#911);
#557=B_SPLINE_SURFACE_WITH_KNOTS('',1,1,((#815,#816),(#817,#818),(#819,
#820)),.UNSPECIFIED.,.F.,.F.,.F.,(2,1,2),(2,2),(79.5973104528073,80.5973104528073,
81.5973104528073),(0.,1.),.UNSPECIFIED.);
#558=B_SPLINE_SURFACE_WITH_KNOTS('',3,1,((#821,#822),(#823,#824),(#825,
#826),(#827,#828)),.UNSPECIFIED.,.F.,.F.,.F.,(4,4),(2,2),(81.5973104528073,
82.5973104528073),(0.,1.),.UNSPECIFIED.);
#559=B_SPLINE_SURFACE_WITH_KNOTS('',3,1,((#838,#839),(#840,#841),(#842,
#843),(#844,#845)),.UNSPECIFIED.,.F.,.F.,.F.,(4,4),(2,2),(92.5973104528073,
93.5973104528073),(0.,1.),.UNSPECIFIED.);
#560=B_SPLINE_SURFACE_WITH_KNOTS('',1,1,((#846,#847),(#848,#849),(#850,
#851)),.UNSPECIFIED.,.F.,.F.,.F.,(2,1,2),(2,2),(93.5973104528073,94.5973104528073,
95.5973104528073),(0.,1.),.UNSPECIFIED.);
#561=CYLINDRICAL_SURFACE('',#677,2.8);
#562=CYLINDRICAL_SURFACE('',#681,1.8);
#563=CYLINDRICAL_SURFACE('',#683,7.49999999999999);
#564=CYLINDRICAL_SURFACE('',#685,3.);
#565=CYLINDRICAL_SURFACE('',#689,4.);
#566=CYLINDRICAL_SURFACE('',#691,7.5);
#567=CYLINDRICAL_SURFACE('',#693,0.0838757897284796);
#568=CYLINDRICAL_SURFACE('',#699,0.124944158208042);
#569=CYLINDRICAL_SURFACE('',#700,4860.3026349233);
#570=PLANE('',#676);
#571=PLANE('',#678);
#572=PLANE('',#679);
#573=PLANE('',#680);
#574=PLANE('',#682);
#575=PLANE('',#684);
#576=PLANE('',#686);
#577=PLANE('',#687);
#578=PLANE('',#688);
#579=PLANE('',#690);
#580=PLANE('',#692);
#581=PLANE('',#694);
#582=PLANE('',#695);
#583=PLANE('',#696);
#584=PLANE('',#697);
#585=PLANE('',#698);
#586=PLANE('',#701);
#587=PLANE('',#702);
#588=SHAPE_DEFINITION_REPRESENTATION(#589,#674);
#589=PRODUCT_DEFINITION_SHAPE($,$,#591);
#590=PRODUCT_DEFINITION_CONTEXT('3D Mechanical Parts',#663,'design');
#591=PRODUCT_DEFINITION('A','First version',#633,#590);
#592=DATE_TIME_ROLE('classification_date');
#593=DATE_TIME_ROLE('creation_date');
#594=APPLIED_DATE_AND_TIME_ASSIGNMENT(#618,#592,(#597));
#595=APPLIED_DATE_AND_TIME_ASSIGNMENT(#620,#593,(#591));
#596=SECURITY_CLASSIFICATION_LEVEL('unclassified');
#597=SECURITY_CLASSIFICATION('A','Security for version',#596);
#598=APPLIED_SECURITY_CLASSIFICATION_ASSIGNMENT(#597,(#633));
#599=APPROVAL_ROLE('Version approval');
#600=APPROVAL_ROLE('Version Security approval');
#601=APPROVAL_ROLE('Definition approval');
#602=APPROVAL_PERSON_ORGANIZATION(#651,#627,#599);
#603=APPROVAL_PERSON_ORGANIZATION(#652,#628,#600);
#604=APPROVAL_PERSON_ORGANIZATION(#655,#629,#601);
#605=COORDINATED_UNIVERSAL_TIME_OFFSET(5,0,.BEHIND.);
#606=LOCAL_TIME(0,0,0.,#605);
#607=LOCAL_TIME(0,0,0.,#605);
#608=LOCAL_TIME(0,0,0.,#605);
#609=LOCAL_TIME(0,0,0.,#605);
#610=LOCAL_TIME(0,0,0.,#605);
#611=CALENDAR_DATE(1999,1,1);
#612=CALENDAR_DATE(1999,1,1);
#613=CALENDAR_DATE(1999,1,1);
#614=CALENDAR_DATE(1999,1,1);
#615=CALENDAR_DATE(1999,1,1);
#616=DATE_AND_TIME(#611,#606);
#617=DATE_AND_TIME(#612,#607);
#618=DATE_AND_TIME(#613,#608);
#619=DATE_AND_TIME(#614,#609);
#620=DATE_AND_TIME(#615,#610);
#621=APPROVAL_DATE_TIME(#616,#627);
#622=APPROVAL_DATE_TIME(#617,#628);
#623=APPROVAL_DATE_TIME(#619,#629);
#624=APPROVAL_STATUS('not_yet_approved');
#625=APPROVAL_STATUS('not_yet_approved');
#626=APPROVAL_STATUS('approved');
#627=APPROVAL(#624,'Version approval');
#628=APPROVAL(#625,'Version Security approval');
#629=APPROVAL(#626,'Definition approval');
#630=APPLIED_APPROVAL_ASSIGNMENT(#627,(#633));
#631=APPLIED_APPROVAL_ASSIGNMENT(#628,(#597));
#632=APPLIED_APPROVAL_ASSIGNMENT(#629,(#591));
#633=PRODUCT_DEFINITION_FORMATION_WITH_SPECIFIED_SOURCE('A',
'First version',#665,.MADE.);
#634=PERSON_AND_ORGANIZATION_ROLE('design_owner');
#635=PERSON_AND_ORGANIZATION_ROLE('creator');
#636=PERSON_AND_ORGANIZATION_ROLE('design_supplier');
#637=PERSON_AND_ORGANIZATION_ROLE('classification_officer');
#638=PERSON_AND_ORGANIZATION_ROLE('creator');
#639=ORGANIZATION('STI','lab','lab');
#640=ORGANIZATION('STI','unknown','unknown');
#641=ORGANIZATION('STI','unknown','unknown');
#642=ORGANIZATION('STI','unknown','unknown');
#643=ORGANIZATION('STI','unknown','unknown');
#644=ORGANIZATION('STI','unknown','unknown');
#645=ORGANIZATION('STI','unknown','unknown');
#646=PERSON('1','Box','vc60',$,$,$);
#647=PERSON('2','last','first',$,$,$);
#648=PERSON('3','President','Mr.',$,$,$);
#649=PERSON_AND_ORGANIZATION(#646,#639);
#650=PERSON_AND_ORGANIZATION(#647,#640);
#651=PERSON_AND_ORGANIZATION(#648,#641);
#652=PERSON_AND_ORGANIZATION(#648,#642);
#653=PERSON_AND_ORGANIZATION(#648,#643);
#654=PERSON_AND_ORGANIZATION(#647,#644);
#655=PERSON_AND_ORGANIZATION(#648,#645);
#656=APPLIED_PERSON_AND_ORGANIZATION_ASSIGNMENT(#649,#634,(#665));
#657=APPLIED_PERSON_AND_ORGANIZATION_ASSIGNMENT(#650,#635,(#633));
#658=APPLIED_PERSON_AND_ORGANIZATION_ASSIGNMENT(#650,#636,(#633));
#659=APPLIED_PERSON_AND_ORGANIZATION_ASSIGNMENT(#653,#637,(#597));
#660=APPLIED_PERSON_AND_ORGANIZATION_ASSIGNMENT(#654,#638,(#591));
#661=PRODUCT_RELATED_PRODUCT_CATEGORY('detail','detail',(#665));
#662=APPLICATION_PROTOCOL_DEFINITION('International Standard',
'config_control_design',1994,#663);
#663=APPLICATION_CONTEXT(
'configuration controlled 3d designs of mechanical parts and assemblie
s');
#664=PRODUCT_CONTEXT('3D Mechanical Parts',#663,'mechanical');
#665=PRODUCT('Document','Document','',(#664));
#666=(
LENGTH_UNIT()
NAMED_UNIT(*)
SI_UNIT(.MILLI.,.METRE.)
);
#667=(
NAMED_UNIT(*)
PLANE_ANGLE_UNIT()
SI_UNIT($,.RADIAN.)
);
#668=DIMENSIONAL_EXPONENTS(0.,0.,0.,0.,0.,0.,0.);
#669=PLANE_ANGLE_MEASURE_WITH_UNIT(PLANE_ANGLE_MEASURE(0.01745329252),#667);
#670=(
CONVERSION_BASED_UNIT('DEGREES',#669)
NAMED_UNIT(#668)
PLANE_ANGLE_UNIT()
);
#671=(
NAMED_UNIT(*)
SI_UNIT($,.STERADIAN.)
SOLID_ANGLE_UNIT()
);
#672=UNCERTAINTY_MEASURE_WITH_UNIT(LENGTH_MEASURE(0.001),#666,
'DISTANCE_ACCURACY_VALUE',
'Maximum model space distance between geometric entities at asserted c
onnectivities');
#673=(
GEOMETRIC_REPRESENTATION_CONTEXT(3)
GLOBAL_UNCERTAINTY_ASSIGNED_CONTEXT((#672))
GLOBAL_UNIT_ASSIGNED_CONTEXT((#671,#670,#666))
REPRESENTATION_CONTEXT('ID1','3D')
);
#674=SHAPE_REPRESENTATION('Document',(#675,#723,#724),#673);
#675=AXIS2_PLACEMENT_3D($,#798,#725,#726);
#676=AXIS2_PLACEMENT_3D('',#799,#727,$);
#677=AXIS2_PLACEMENT_3D('',#800,#728,$);
#678=AXIS2_PLACEMENT_3D('',#801,#729,$);
#679=AXIS2_PLACEMENT_3D('',#802,#730,$);
#680=AXIS2_PLACEMENT_3D('',#803,#731,$);
#681=AXIS2_PLACEMENT_3D('',#804,#732,$);
#682=AXIS2_PLACEMENT_3D('',#805,#733,$);
#683=AXIS2_PLACEMENT_3D('',#806,#734,$);
#684=AXIS2_PLACEMENT_3D('',#807,#735,$);
#685=AXIS2_PLACEMENT_3D('',#808,#736,$);
#686=AXIS2_PLACEMENT_3D('',#809,#737,$);
#687=AXIS2_PLACEMENT_3D('',#810,#738,$);
#688=AXIS2_PLACEMENT_3D('',#811,#739,$);
#689=AXIS2_PLACEMENT_3D('',#812,#740,$);
#690=AXIS2_PLACEMENT_3D('',#813,#741,$);
#691=AXIS2_PLACEMENT_3D('',#814,#742,$);
#692=AXIS2_PLACEMENT_3D('',#829,#743,$);
#693=AXIS2_PLACEMENT_3D('',#830,#744,$);
#694=AXIS2_PLACEMENT_3D('',#831,#745,$);
#695=AXIS2_PLACEMENT_3D('',#832,#746,$);
#696=AXIS2_PLACEMENT_3D('',#833,#747,$);
#697=AXIS2_PLACEMENT_3D('',#834,#748,$);
#698=AXIS2_PLACEMENT_3D('',#835,#749,$);
#699=AXIS2_PLACEMENT_3D('',#836,#750,$);
#700=AXIS2_PLACEMENT_3D('',#837,#751,$);
#701=AXIS2_PLACEMENT_3D('',#852,#752,$);
#702=AXIS2_PLACEMENT_3D('',#853,#753,$);
#703=AXIS2_PLACEMENT_3D($,#920,#754,#755);
#704=AXIS2_PLACEMENT_3D($,#925,#756,#757);
#705=AXIS2_PLACEMENT_3D($,#946,#758,#759);
#706=AXIS2_PLACEMENT_3D($,#951,#760,#761);
#707=AXIS2_PLACEMENT_3D($,#960,#762,#763);
#708=AXIS2_PLACEMENT_3D($,#965,#764,#765);
#709=AXIS2_PLACEMENT_3D($,#974,#766,#767);
#710=AXIS2_PLACEMENT_3D($,#979,#768,#769);
#711=AXIS2_PLACEMENT_3D($,#1000,#770,#771);
#712=AXIS2_PLACEMENT_3D($,#1005,#772,#773);
#713=AXIS2_PLACEMENT_3D($,#1014,#774,#775);
#714=AXIS2_PLACEMENT_3D($,#1017,#776,#777);
#715=AXIS2_PLACEMENT_3D($,#1046,#778,#779);
#716=AXIS2_PLACEMENT_3D($,#1051,#780,#781);
#717=AXIS2_PLACEMENT_3D($,#1086,#782,#783);
#718=AXIS2_PLACEMENT_3D($,#1091,#784,#785);
#719=AXIS2_PLACEMENT_3D($,#1094,#786,#787);
#720=AXIS2_PLACEMENT_3D($,#1099,#788,#789);
#721=AXIS2_PLACEMENT_3D($,#1215,#790,#791);
#722=AXIS2_PLACEMENT_3D($,#1218,#792,#793);
#723=AXIS2_PLACEMENT_3D($,#1311,#794,#795);
#724=AXIS2_PLACEMENT_3D($,#1312,#796,#797);
#725=DIRECTION('',(0.,0.,1.));
#726=DIRECTION('',(1.,0.,0.));
#727=DIRECTION('',(-1.,0.,0.));
#728=DIRECTION('',(0.,0.,1.));
#729=DIRECTION('',(1.,0.,0.));
#730=DIRECTION('',(0.,1.,0.));
#731=DIRECTION('',(-1.,0.,0.));
#732=DIRECTION('',(0.,0.,-1.));
#733=DIRECTION('',(1.,0.,0.));
#734=DIRECTION('',(0.,0.,1.));
#735=DIRECTION('',(-1.,0.,0.));
#736=DIRECTION('',(0.,0.,-1.));
#737=DIRECTION('',(1.,0.,0.));
#738=DIRECTION('',(0.,1.,0.));
#739=DIRECTION('',(-1.,0.,0.));
#740=DIRECTION('',(0.,0.,1.));
#741=DIRECTION('',(1.,0.,0.));
#742=DIRECTION('',(0.,0.,1.));
#743=DIRECTION('',(0.999999998758339,-4.98329419524352E-5,0.));
#744=DIRECTION('',(4.6332598258723E-15,-2.14313840678257E-15,-1.));
#745=DIRECTION('',(0.619253244744185,-0.785191326285383,0.));
#746=DIRECTION('',(0.596524023525085,-0.802595221364695,0.));
#747=DIRECTION('',(-0.999999999449158,3.31916368235996E-5,0.));
#748=DIRECTION('',(1.,0.,0.));
#749=DIRECTION('',(-0.619139656060846,-0.785280896426786,0.));
#750=DIRECTION('',(0.,0.,-1.));
#751=DIRECTION('',(0.,0.,1.));
#752=DIRECTION('',(0.,0.,-1.));
#753=DIRECTION('',(0.,0.,1.));
#754=DIRECTION('',(0.,0.,1.));
#755=DIRECTION('',(-1.,-1.90323947078598E-15,0.));
#756=DIRECTION('',(0.,0.,1.));
#757=DIRECTION('',(-1.,-1.90323947078598E-15,0.));
#758=DIRECTION('',(0.,0.,-1.));
#759=DIRECTION('',(1.,7.89491928622334E-15,0.));
#760=DIRECTION('',(0.,0.,-1.));
#761=DIRECTION('',(1.,7.89491928622334E-15,0.));
#762=DIRECTION('',(0.,0.,1.));
#763=DIRECTION('',(-0.240000000000002,-0.970772887960927,0.));
#764=DIRECTION('',(0.,0.,1.));
#765=DIRECTION('',(-0.240000000000002,-0.970772887960927,0.));
#766=DIRECTION('',(0.,0.,-1.));
#767=DIRECTION('',(1.,0.,0.));
#768=DIRECTION('',(0.,0.,-1.));
#769=DIRECTION('',(1.,0.,0.));
#770=DIRECTION('',(0.,0.,1.));
#771=DIRECTION('',(-1.,1.77635683940025E-15,0.));
#772=DIRECTION('',(0.,0.,1.));
#773=DIRECTION('',(-1.,1.77635683940025E-15,0.));
#774=DIRECTION('',(0.,0.,1.));
#775=DIRECTION('',(0.533333333333334,-0.845905169363301,0.));
#776=DIRECTION('',(0.,0.,1.));
#777=DIRECTION('',(0.533333333333334,-0.845905169363301,0.));
#778=DIRECTION('',(0.,0.,-1.));
#779=DIRECTION('',(-0.996670317837691,-0.0815369703957397,0.));
#780=DIRECTION('',(9.26651965174461E-15,-4.28627681356514E-15,-1.));
#781=DIRECTION('',(-0.996670317837691,-0.0815369703957397,-7.94190811116634E-15));
#782=DIRECTION('',(0.,0.,-1.));
#783=DIRECTION('',(0.571923683091971,0.820306833275522,0.));
#784=DIRECTION('',(0.,0.,-1.));
#785=DIRECTION('',(0.571923683091971,0.820306833275522,0.));
#786=DIRECTION('',(0.,0.,1.));
#787=DIRECTION('',(-0.999999803375624,0.00062709545816875,0.));
#788=DIRECTION('',(0.,0.,1.));
#789=DIRECTION('',(-0.999999803375624,0.00062709545816875,0.));
#790=DIRECTION('',(0.,0.,1.));
#791=DIRECTION('',(0.533333333333334,-0.845905169363301,0.));
#792=DIRECTION('',(0.,0.,1.));
#793=DIRECTION('',(0.533333333333334,-0.845905169363301,0.));
#794=DIRECTION('',(0.,0.,1.));
#795=DIRECTION('',(1.,0.,0.));
#796=DIRECTION('',(0.,0.,1.));
#797=DIRECTION('',(1.,0.,0.));
#798=CARTESIAN_POINT('',(0.,0.,0.));
#799=CARTESIAN_POINT('',(-2.8,14.0422704852804,0.));
#800=CARTESIAN_POINT('',(9.99200722162673E-17,-10.7,0.5));
#801=CARTESIAN_POINT('',(2.8,-10.7,0.));
#802=CARTESIAN_POINT('',(2.8,13.39,0.));
#803=CARTESIAN_POINT('',(1.8,13.39,0.));
#804=CARTESIAN_POINT('',(1.40755051368505E-15,-10.7,0.5));
#805=CARTESIAN_POINT('',(-1.8,-10.7,0.));
#806=CARTESIAN_POINT('',(1.14521794109796E-15,21.,0.5));
#807=CARTESIAN_POINT('',(3.,14.1261364575662,0.));
#808=CARTESIAN_POINT('',(1.20219691143688E-15,-11.,0.5));
#809=CARTESIAN_POINT('',(-3.,-11.,0.));
#810=CARTESIAN_POINT('',(-3.,13.8,0.));
#811=CARTESIAN_POINT('',(-4.,13.8,0.));
#812=CARTESIAN_POINT('',(-3.72517467908934E-16,-11.,0.5));
#813=CARTESIAN_POINT('',(4.,-11.,0.));
#814=CARTESIAN_POINT('',(2.89566531558805E-15,21.,0.5));
#815=CARTESIAN_POINT('',(3.02463667020815,16.0319503521482,0.));
#816=CARTESIAN_POINT('',(3.02463667020815,16.0319503521482,1.));
#817=CARTESIAN_POINT('',(2.63590073240432,16.1736392102396,0.));
#818=CARTESIAN_POINT('',(2.63590073240432,16.1736392102396,1.));
#819=CARTESIAN_POINT('',(0.277723435914372,17.0389648015913,0.));
#820=CARTESIAN_POINT('',(0.277723435914372,17.0389648015913,1.));
#821=CARTESIAN_POINT('',(0.277723435914372,17.0389648015913,0.));
#822=CARTESIAN_POINT('',(0.277723435914372,17.0389648015913,1.));
#823=CARTESIAN_POINT('',(0.242053481772142,17.0521758475588,0.));
#824=CARTESIAN_POINT('',(0.242053481772142,17.0521758475588,1.));
#825=CARTESIAN_POINT('',(0.231154368848944,17.0686896550182,0.));
#826=CARTESIAN_POINT('',(0.231154368848944,17.0686896550182,1.));
#827=CARTESIAN_POINT('',(0.231154368847745,17.1063412660556,0.));
#828=CARTESIAN_POINT('',(0.231154368847745,17.1063412660556,1.));
#829=CARTESIAN_POINT('',(0.231154368847745,17.1063412660556,0.));
#830=CARTESIAN_POINT('',(0.31508115500507,23.7408473331884,0.5));
#831=CARTESIAN_POINT('',(0.26616377069307,23.8089813013294,0.));
#832=CARTESIAN_POINT('',(2.97608594624768,25.9462032038629,0.));
#833=CARTESIAN_POINT('',(3.02496694635734,25.9825337103039,0.));
#834=CARTESIAN_POINT('',(-3.03,16.0319503521482,0.));
#835=CARTESIAN_POINT('',(-3.03,25.9845153671991,0.));
#836=CARTESIAN_POINT('',(-0.359499431087393,23.7206906289892,0.5));
#837=CARTESIAN_POINT('',(4860.06681295143,20.6640061457228,0.5));
#838=CARTESIAN_POINT('',(-0.234536041745566,17.1284697680512,0.));
#839=CARTESIAN_POINT('',(-0.234536041745566,17.1284697680512,1.));
#840=CARTESIAN_POINT('',(-0.234536041745662,17.0733135211069,0.));
#841=CARTESIAN_POINT('',(-0.234536041745662,17.0733135211069,1.));
#842=CARTESIAN_POINT('',(-0.248737916160737,17.0495336383653,0.));
#843=CARTESIAN_POINT('',(-0.248737916160737,17.0495336383653,1.));
#844=CARTESIAN_POINT('',(-0.301582230060683,17.0303774916826,0.));
#845=CARTESIAN_POINT('',(-0.301582230060683,17.0303774916826,1.));
#846=CARTESIAN_POINT('',(-0.301582230060683,17.0303774916826,0.));
#847=CARTESIAN_POINT('',(-0.301582230060683,17.0303774916826,1.));
#848=CARTESIAN_POINT('',(-2.97715568609994,16.0504459465327,0.));
#849=CARTESIAN_POINT('',(-2.97715568609994,16.0504459465327,1.));
#850=CARTESIAN_POINT('',(-3.03,16.0319503521482,0.));
#851=CARTESIAN_POINT('',(-3.03,16.0319503521482,1.));
#852=CARTESIAN_POINT('',(9.375,33.9375,0.));
#853=CARTESIAN_POINT('',(9.375,33.9375,1.));
#854=CARTESIAN_POINT('',(-2.8,14.0422704852804,0.));
#855=CARTESIAN_POINT('',(-2.8,-10.7,0.));
#856=CARTESIAN_POINT('',(-2.8,-10.7,1.));
#857=CARTESIAN_POINT('',(-2.8,14.0422704852804,1.));
#858=CARTESIAN_POINT('',(2.8,-10.7,0.));
#859=CARTESIAN_POINT('',(2.8,-10.7,1.));
#860=CARTESIAN_POINT('',(2.8,13.39,0.));
#861=CARTESIAN_POINT('',(2.8,13.39,1.));
#862=CARTESIAN_POINT('',(1.8,13.39,0.));
#863=CARTESIAN_POINT('',(1.8,13.39,1.));
#864=CARTESIAN_POINT('',(1.8,-10.7,0.));
#865=CARTESIAN_POINT('',(1.8,-10.7,1.));
#866=CARTESIAN_POINT('',(-1.8,-10.7,0.));
#867=CARTESIAN_POINT('',(-1.8,-10.7,1.));
#868=CARTESIAN_POINT('',(-1.80000000000001,13.719203340293,0.));
#869=CARTESIAN_POINT('',(-1.80000000000001,13.719203340293,1.));
#870=CARTESIAN_POINT('',(3.,14.1261364575662,0.));
#871=CARTESIAN_POINT('',(3.,14.1261364575662,1.));
#872=CARTESIAN_POINT('',(3.,-11.,0.));
#873=CARTESIAN_POINT('',(3.,-11.,1.));
#874=CARTESIAN_POINT('',(-3.,-11.,0.));
#875=CARTESIAN_POINT('',(-3.,-11.,1.));
#876=CARTESIAN_POINT('',(-3.,13.8,0.));
#877=CARTESIAN_POINT('',(-3.,13.8,1.));
#878=CARTESIAN_POINT('',(-4.,13.8,0.));
#879=CARTESIAN_POINT('',(-4.,13.8,1.));
#880=CARTESIAN_POINT('',(-4.,-11.,0.));
#881=CARTESIAN_POINT('',(-4.,-11.,1.));
#882=CARTESIAN_POINT('',(4.,-11.,0.));
#883=CARTESIAN_POINT('',(4.,-11.,1.));
#884=CARTESIAN_POINT('',(4.,14.6557112297752,0.));
#885=CARTESIAN_POINT('',(4.,14.6557112297752,1.));
#886=CARTESIAN_POINT('',(3.02463667020815,16.0319503521482,0.));
#887=CARTESIAN_POINT('',(0.277723435914372,17.0389648015913,0.));
#888=CARTESIAN_POINT('',(0.277723435914372,17.0389648015913,1.));
#889=CARTESIAN_POINT('',(3.02463667020815,16.0319503521482,1.));
#890=CARTESIAN_POINT('',(0.231154368847745,17.1063412660556,0.));
#891=CARTESIAN_POINT('',(0.231154368847745,17.1063412660556,1.));
#892=CARTESIAN_POINT('',(0.231484644997499,23.7340083554043,0.));
#893=CARTESIAN_POINT('',(0.231484644997499,23.7340083554043,1.));
#894=CARTESIAN_POINT('',(0.26616377069307,23.8089813013294,0.));
#895=CARTESIAN_POINT('',(0.26616377069307,23.8089813013294,1.));
#896=CARTESIAN_POINT('',(2.97608594624768,25.9462032038629,0.));
#897=CARTESIAN_POINT('',(2.97608594624768,25.9462032038629,1.));
#898=CARTESIAN_POINT('',(3.02496694635734,25.9825337103039,0.));
#899=CARTESIAN_POINT('',(3.02496694635734,25.9825337103039,1.));
#900=CARTESIAN_POINT('',(-3.03,16.0319503521482,0.));
#901=CARTESIAN_POINT('',(-3.03,25.9845153671991,0.));
#902=CARTESIAN_POINT('',(-3.03,25.9845153671991,1.));
#903=CARTESIAN_POINT('',(-3.03,16.0319503521482,1.));
#904=CARTESIAN_POINT('',(-0.288040907944224,23.8231831757451,0.));
#905=CARTESIAN_POINT('',(-0.288040907944224,23.8231831757451,1.));
#906=CARTESIAN_POINT('',(-0.234866317895159,23.7118798534088,0.));
#907=CARTESIAN_POINT('',(-0.234866317895159,23.7118798534088,1.));
#908=CARTESIAN_POINT('',(-0.234536041745741,17.1284697680512,0.));
#909=CARTESIAN_POINT('',(-0.234536041745741,17.1284697680512,1.));
#910=CARTESIAN_POINT('',(-0.301582230060683,17.0303774916826,0.));
#911=CARTESIAN_POINT('',(-0.301582230060683,17.0303774916826,1.));
#912=CARTESIAN_POINT('',(-2.8,14.0422704852804,0.));
#913=CARTESIAN_POINT('',(-2.8,-10.7,0.));
#914=CARTESIAN_POINT('',(-2.8,-10.7,0.));
#915=CARTESIAN_POINT('',(-2.8,-10.7,1.));
#916=CARTESIAN_POINT('',(-2.8,14.0422704852804,1.));
#917=CARTESIAN_POINT('',(-2.8,-10.7,1.));
#918=CARTESIAN_POINT('',(-2.8,14.0422704852804,0.));
#919=CARTESIAN_POINT('',(-2.8,14.0422704852804,1.));
#920=CARTESIAN_POINT('',(9.99200722162673E-17,-10.7,0.));
#921=CARTESIAN_POINT('',(-2.8,-10.7,0.));
#922=CARTESIAN_POINT('',(2.8,-10.7,0.));
#923=CARTESIAN_POINT('',(2.8,-10.7,0.));
#924=CARTESIAN_POINT('',(2.8,-10.7,1.));
#925=CARTESIAN_POINT('',(9.99200722162673E-17,-10.7,1.));
#926=CARTESIAN_POINT('',(-2.8,-10.7,1.));
#927=CARTESIAN_POINT('',(2.8,-10.7,1.));
#928=CARTESIAN_POINT('',(2.8,-10.7,0.));
#929=CARTESIAN_POINT('',(2.8,13.39,0.));
#930=CARTESIAN_POINT('',(2.8,13.39,0.));
#931=CARTESIAN_POINT('',(2.8,13.39,1.));
#932=CARTESIAN_POINT('',(2.8,-10.7,1.));
#933=CARTESIAN_POINT('',(2.8,13.39,1.));
#934=CARTESIAN_POINT('',(2.8,13.39,0.));
#935=CARTESIAN_POINT('',(1.8,13.39,0.));
#936=CARTESIAN_POINT('',(1.8,13.39,0.));
#937=CARTESIAN_POINT('',(1.8,13.39,1.));
#938=CARTESIAN_POINT('',(2.8,13.39,1.));
#939=CARTESIAN_POINT('',(1.8,13.39,1.));
#940=CARTESIAN_POINT('',(1.8,13.39,0.));
#941=CARTESIAN_POINT('',(1.8,-10.7,0.));
#942=CARTESIAN_POINT('',(1.8,-10.7,0.));
#943=CARTESIAN_POINT('',(1.8,-10.7,1.));
#944=CARTESIAN_POINT('',(1.8,13.39,1.));
#945=CARTESIAN_POINT('',(1.8,-10.7,1.));
#946=CARTESIAN_POINT('',(1.40755051368505E-15,-10.7,0.));
#947=CARTESIAN_POINT('',(1.8,-10.7,0.));
#948=CARTESIAN_POINT('',(-1.8,-10.7,0.));
#949=CARTESIAN_POINT('',(-1.8,-10.7,0.));
#950=CARTESIAN_POINT('',(-1.8,-10.7,1.));
#951=CARTESIAN_POINT('',(1.40755051368505E-15,-10.7,1.));
#952=CARTESIAN_POINT('',(1.8,-10.7,1.));
#953=CARTESIAN_POINT('',(-1.8,-10.7,1.));
#954=CARTESIAN_POINT('',(-1.8,-10.7,0.));
#955=CARTESIAN_POINT('',(-1.80000000000001,13.719203340293,0.));
#956=CARTESIAN_POINT('',(-1.80000000000001,13.719203340293,0.));
#957=CARTESIAN_POINT('',(-1.80000000000001,13.719203340293,1.));
#958=CARTESIAN_POINT('',(-1.8,-10.7,1.));
#959=CARTESIAN_POINT('',(-1.80000000000001,13.719203340293,1.));
#960=CARTESIAN_POINT('',(1.14521794109796E-15,21.,0.));
#961=CARTESIAN_POINT('',(-1.80000000000001,13.719203340293,0.));
#962=CARTESIAN_POINT('',(3.,14.1261364575662,0.));
#963=CARTESIAN_POINT('',(3.,14.1261364575662,0.));
#964=CARTESIAN_POINT('',(3.,14.1261364575662,1.));
#965=CARTESIAN_POINT('',(1.14521794109796E-15,21.,1.));
#966=CARTESIAN_POINT('',(-1.80000000000001,13.719203340293,1.));
#967=CARTESIAN_POINT('',(3.,14.1261364575662,1.));
#968=CARTESIAN_POINT('',(3.,14.1261364575662,0.));
#969=CARTESIAN_POINT('',(3.,-11.,0.));
#970=CARTESIAN_POINT('',(3.,-11.,0.));
#971=CARTESIAN_POINT('',(3.,-11.,1.));
#972=CARTESIAN_POINT('',(3.,14.1261364575662,1.));
#973=CARTESIAN_POINT('',(3.,-11.,1.));
#974=CARTESIAN_POINT('',(1.20219691143688E-15,-11.,0.));
#975=CARTESIAN_POINT('',(3.,-11.,0.));
#976=CARTESIAN_POINT('',(-3.,-11.,0.));
#977=CARTESIAN_POINT('',(-3.,-11.,0.));
#978=CARTESIAN_POINT('',(-3.,-11.,1.));
#979=CARTESIAN_POINT('',(1.20219691143688E-15,-11.,1.));
#980=CARTESIAN_POINT('',(3.,-11.,1.));
#981=CARTESIAN_POINT('',(-3.,-11.,1.));
#982=CARTESIAN_POINT('',(-3.,-11.,0.));
#983=CARTESIAN_POINT('',(-3.,13.8,0.));
#984=CARTESIAN_POINT('',(-3.,13.8,0.));
#985=CARTESIAN_POINT('',(-3.,13.8,1.));
#986=CARTESIAN_POINT('',(-3.,-11.,1.));
#987=CARTESIAN_POINT('',(-3.,13.8,1.));
#988=CARTESIAN_POINT('',(-3.,13.8,0.));
#989=CARTESIAN_POINT('',(-4.,13.8,0.));
#990=CARTESIAN_POINT('',(-4.,13.8,0.));
#991=CARTESIAN_POINT('',(-4.,13.8,1.));
#992=CARTESIAN_POINT('',(-3.,13.8,1.));
#993=CARTESIAN_POINT('',(-4.,13.8,1.));
#994=CARTESIAN_POINT('',(-4.,13.8,0.));
#995=CARTESIAN_POINT('',(-4.,-11.,0.));
#996=CARTESIAN_POINT('',(-4.,-11.,0.));
#997=CARTESIAN_POINT('',(-4.,-11.,1.));
#998=CARTESIAN_POINT('',(-4.,13.8,1.));
#999=CARTESIAN_POINT('',(-4.,-11.,1.));
#1000=CARTESIAN_POINT('',(-3.72517467908934E-16,-11.,0.));
#1001=CARTESIAN_POINT('',(-4.,-11.,0.));
#1002=CARTESIAN_POINT('',(4.,-11.,0.));
#1003=CARTESIAN_POINT('',(4.,-11.,0.));
#1004=CARTESIAN_POINT('',(4.,-11.,1.));
#1005=CARTESIAN_POINT('',(-3.72517467908934E-16,-11.,1.));
#1006=CARTESIAN_POINT('',(-4.,-11.,1.));
#1007=CARTESIAN_POINT('',(4.,-11.,1.));
#1008=CARTESIAN_POINT('',(4.,-11.,0.));
#1009=CARTESIAN_POINT('',(4.,14.6557112297752,0.));
#1010=CARTESIAN_POINT('',(4.,14.6557112297752,0.));
#1011=CARTESIAN_POINT('',(4.,14.6557112297752,1.));
#1012=CARTESIAN_POINT('',(4.,-11.,1.));
#1013=CARTESIAN_POINT('',(4.,14.6557112297752,1.));
#1014=CARTESIAN_POINT('',(2.89566531558805E-15,21.,0.));
#1015=CARTESIAN_POINT('',(4.00000000000001,14.6557112297752,0.));
#1016=CARTESIAN_POINT('',(-2.8,14.0422704852804,0.));
#1017=CARTESIAN_POINT('',(2.89566531558805E-15,21.,1.));
#1018=CARTESIAN_POINT('',(4.00000000000001,14.6557112297752,1.));
#1019=CARTESIAN_POINT('',(-2.8,14.0422704852804,1.));
#1020=CARTESIAN_POINT('',(3.02463667020815,16.0319503521482,0.));
#1021=CARTESIAN_POINT('',(2.63590073240432,16.1736392102396,0.));
#1022=CARTESIAN_POINT('',(0.277723435914372,17.0389648015913,0.));
#1023=CARTESIAN_POINT('',(0.277723435914372,17.0389648015913,0.));
#1024=CARTESIAN_POINT('',(0.277723435914372,17.0389648015913,1.));
#1025=CARTESIAN_POINT('',(3.02463667020815,16.0319503521482,1.));
#1026=CARTESIAN_POINT('',(2.63590073240432,16.1736392102396,1.));
#1027=CARTESIAN_POINT('',(0.277723435914372,17.0389648015913,1.));
#1028=CARTESIAN_POINT('',(3.02463667020815,16.0319503521482,0.));
#1029=CARTESIAN_POINT('',(3.02463667020815,16.0319503521482,1.));
#1030=CARTESIAN_POINT('',(0.277723435914372,17.0389648015913,0.));
#1031=CARTESIAN_POINT('',(0.242053481772142,17.0521758475588,0.));
#1032=CARTESIAN_POINT('',(0.231154368848944,17.0686896550182,0.));
#1033=CARTESIAN_POINT('',(0.231154368847745,17.1063412660556,0.));
#1034=CARTESIAN_POINT('',(0.231154368847745,17.1063412660556,0.));
#1035=CARTESIAN_POINT('',(0.231154368847745,17.1063412660556,1.));
#1036=CARTESIAN_POINT('',(0.277723435914372,17.0389648015913,1.));
#1037=CARTESIAN_POINT('',(0.242053481772142,17.0521758475588,1.));
#1038=CARTESIAN_POINT('',(0.231154368848944,17.0686896550182,1.));
#1039=CARTESIAN_POINT('',(0.231154368847745,17.1063412660556,1.));
#1040=CARTESIAN_POINT('',(0.231154368847745,17.1063412660556,0.));
#1041=CARTESIAN_POINT('',(0.231484644997499,23.7340083554043,0.));
#1042=CARTESIAN_POINT('',(0.231484644997499,23.7340083554043,0.));
#1043=CARTESIAN_POINT('',(0.231484644997499,23.7340083554043,1.));
#1044=CARTESIAN_POINT('',(0.231154368847745,17.1063412660556,1.));
#1045=CARTESIAN_POINT('',(0.231484644997499,23.7340083554043,1.));
#1046=CARTESIAN_POINT('',(0.31508115500507,23.7408473331884,0.));
#1047=CARTESIAN_POINT('',(0.231484644997499,23.7340083554043,0.));
#1048=CARTESIAN_POINT('',(0.266163770693068,23.8089813013294,0.));
#1049=CARTESIAN_POINT('',(0.26616377069307,23.8089813013294,0.));
#1050=CARTESIAN_POINT('',(0.26616377069307,23.8089813013294,1.));
#1051=CARTESIAN_POINT('',(0.31508115500507,23.7408473331884,1.));
#1052=CARTESIAN_POINT('',(0.231484644997499,23.7340083554043,1.));
#1053=CARTESIAN_POINT('',(0.266163770693068,23.8089813013294,1.));
#1054=CARTESIAN_POINT('',(0.26616377069307,23.8089813013294,0.));
#1055=CARTESIAN_POINT('',(2.97608594624768,25.9462032038629,0.));
#1056=CARTESIAN_POINT('',(2.97608594624768,25.9462032038629,0.));
#1057=CARTESIAN_POINT('',(2.97608594624768,25.9462032038629,1.));
#1058=CARTESIAN_POINT('',(0.26616377069307,23.8089813013294,1.));
#1059=CARTESIAN_POINT('',(2.97608594624768,25.9462032038629,1.));
#1060=CARTESIAN_POINT('',(2.97608594624768,25.9462032038629,0.));
#1061=CARTESIAN_POINT('',(3.02496694635734,25.9825337103039,0.));
#1062=CARTESIAN_POINT('',(3.02496694635734,25.9825337103039,0.));
#1063=CARTESIAN_POINT('',(3.02496694635734,25.9825337103039,1.));
#1064=CARTESIAN_POINT('',(2.97608594624768,25.9462032038629,1.));
#1065=CARTESIAN_POINT('',(3.02496694635734,25.9825337103039,1.));
#1066=CARTESIAN_POINT('',(3.02496694635734,25.9825337103039,0.));
#1067=CARTESIAN_POINT('',(3.02463667020815,16.0319503521482,0.));
#1068=CARTESIAN_POINT('',(3.02496694635734,25.9825337103039,1.));
#1069=CARTESIAN_POINT('',(3.02463667020815,16.0319503521482,1.));
#1070=CARTESIAN_POINT('',(-3.03,16.0319503521482,0.));
#1071=CARTESIAN_POINT('',(-3.03,25.9845153671991,0.));
#1072=CARTESIAN_POINT('',(-3.03,25.9845153671991,0.));
#1073=CARTESIAN_POINT('',(-3.03,25.9845153671991,1.));
#1074=CARTESIAN_POINT('',(-3.03,16.0319503521482,1.));
#1075=CARTESIAN_POINT('',(-3.03,25.9845153671991,1.));
#1076=CARTESIAN_POINT('',(-3.03,16.0319503521482,0.));
#1077=CARTESIAN_POINT('',(-3.03,16.0319503521482,1.));
#1078=CARTESIAN_POINT('',(-3.03,25.9845153671991,0.));
#1079=CARTESIAN_POINT('',(-2.77172344019442,25.7813950153286,0.));
#1080=CARTESIAN_POINT('',(-0.288040907944224,23.8231831757451,0.));
#1081=CARTESIAN_POINT('',(-0.288040907944224,23.8231831757451,0.));
#1082=CARTESIAN_POINT('',(-0.288040907944224,23.8231831757451,1.));
#1083=CARTESIAN_POINT('',(-3.03,25.9845153671991,1.));
#1084=CARTESIAN_POINT('',(-2.77172344019442,25.7813950153286,1.));
#1085=CARTESIAN_POINT('',(-0.288040907944224,23.8231831757451,1.));
#1086=CARTESIAN_POINT('',(-0.359499431087393,23.7206906289892,0.));
#1087=CARTESIAN_POINT('',(-0.288040907944223,23.8231831757451,0.));
#1088=CARTESIAN_POINT('',(-0.234866317895158,23.7118798534088,0.));
#1089=CARTESIAN_POINT('',(-0.234866317895159,23.7118798534088,0.));
#1090=CARTESIAN_POINT('',(-0.234866317895159,23.7118798534088,1.));
#1091=CARTESIAN_POINT('',(-0.359499431087393,23.7206906289892,1.));
#1092=CARTESIAN_POINT('',(-0.288040907944223,23.8231831757451,1.));
#1093=CARTESIAN_POINT('',(-0.234866317895158,23.7118798534088,1.));
#1094=CARTESIAN_POINT('',(4860.06681295143,20.6640061457228,0.));
#1095=CARTESIAN_POINT('',(-0.234866317895467,23.7118798534088,0.));
#1096=CARTESIAN_POINT('',(-0.234536041745717,17.1284697680512,0.));
#1097=CARTESIAN_POINT('',(-0.234536041745741,17.1284697680512,0.));
#1098=CARTESIAN_POINT('',(-0.234536041745741,17.1284697680512,1.));
#1099=CARTESIAN_POINT('',(4860.06681295143,20.6640061457228,1.));
#1100=CARTESIAN_POINT('',(-0.234866317895467,23.7118798534088,1.));
#1101=CARTESIAN_POINT('',(-0.234536041745717,17.1284697680512,1.));
#1102=CARTESIAN_POINT('',(-0.234536041745566,17.1284697680512,0.));
#1103=CARTESIAN_POINT('',(-0.234536041745662,17.0733135211069,0.));
#1104=CARTESIAN_POINT('',(-0.248737916160737,17.0495336383653,0.));
#1105=CARTESIAN_POINT('',(-0.301582230060683,17.0303774916826,0.));
#1106=CARTESIAN_POINT('',(-0.301582230060683,17.0303774916826,0.));
#1107=CARTESIAN_POINT('',(-0.301582230060683,17.0303774916826,1.));
#1108=CARTESIAN_POINT('',(-0.234536041745566,17.1284697680512,1.));
#1109=CARTESIAN_POINT('',(-0.234536041745662,17.0733135211069,1.));
#1110=CARTESIAN_POINT('',(-0.248737916160737,17.0495336383653,1.));
#1111=CARTESIAN_POINT('',(-0.301582230060683,17.0303774916826,1.));
#1112=CARTESIAN_POINT('',(-0.301582230060683,17.0303774916826,0.));
#1113=CARTESIAN_POINT('',(-2.97715568609994,16.0504459465327,0.));
#1114=CARTESIAN_POINT('',(-3.03,16.0319503521482,0.));
#1115=CARTESIAN_POINT('',(-0.301582230060683,17.0303774916826,1.));
#1116=CARTESIAN_POINT('',(-2.97715568609994,16.0504459465327,1.));
#1117=CARTESIAN_POINT('',(-3.03,16.0319503521482,1.));
#1118=CARTESIAN_POINT('',(3.02463667020815,16.0319503521482,0.));
#1119=CARTESIAN_POINT('',(3.02474676225788,19.3488114715334,0.));
#1120=CARTESIAN_POINT('',(3.02485685430761,22.6656725909187,0.));
#1121=CARTESIAN_POINT('',(3.02496694635734,25.9825337103039,0.));
#1122=CARTESIAN_POINT('',(3.00867327965412,25.9704235414902,0.));
#1123=CARTESIAN_POINT('',(2.9923796129509,25.9583133726766,0.));
#1124=CARTESIAN_POINT('',(2.97608594624768,25.9462032038629,0.));
#1125=CARTESIAN_POINT('',(2.07277855439614,25.2337959030184,0.));
#1126=CARTESIAN_POINT('',(1.16947116254461,24.5213886021739,0.));
#1127=CARTESIAN_POINT('',(0.26616377069307,23.8089813013294,0.));
#1128=CARTESIAN_POINT('',(0.241680456260119,23.7914032894504,0.));
#1129=CARTESIAN_POINT('',(0.229027121268082,23.7640479919594,0.));
#1130=CARTESIAN_POINT('',(0.231484644997499,23.7340083554044,0.));
#1131=CARTESIAN_POINT('',(0.231374552947581,21.5247859922881,0.));
#1132=CARTESIAN_POINT('',(0.231264460897663,19.3155636291719,0.));
#1133=CARTESIAN_POINT('',(0.231154368847745,17.1063412660556,0.));
#1134=CARTESIAN_POINT('',(0.231154368848944,17.0686896550182,0.));
#1135=CARTESIAN_POINT('',(0.242053481772142,17.0521758475588,0.));
#1136=CARTESIAN_POINT('',(0.277723435914372,17.0389648015913,0.));
#1137=CARTESIAN_POINT('',(1.06378253474436,16.7505229378074,0.));
#1138=CARTESIAN_POINT('',(1.84984163357434,16.4620810740235,0.));
#1139=CARTESIAN_POINT('',(2.63590073240432,16.1736392102396,0.));
#1140=CARTESIAN_POINT('',(2.76547937833893,16.1264095908758,0.));
#1141=CARTESIAN_POINT('',(2.89505802427354,16.079179971512,0.));
#1142=CARTESIAN_POINT('',(3.02463667020815,16.0319503521482,0.));
#1143=CARTESIAN_POINT('',(-3.03,16.0319503521482,0.));
#1144=CARTESIAN_POINT('',(-3.01238522869998,16.0381155502763,0.));
#1145=CARTESIAN_POINT('',(-2.99477045739996,16.0442807484045,0.));
#1146=CARTESIAN_POINT('',(-2.97715568609994,16.0504459465327,0.));
#1147=CARTESIAN_POINT('',(-2.08529786742019,16.377089794916,0.));
#1148=CARTESIAN_POINT('',(-1.19344004874044,16.7037336432993,0.));
#1149=CARTESIAN_POINT('',(-0.301582230060683,17.0303774916826,0.));
#1150=CARTESIAN_POINT('',(-0.248737916160737,17.0495336383653,0.));
#1151=CARTESIAN_POINT('',(-0.234536041745662,17.0733135211069,0.));
#1152=CARTESIAN_POINT('',(-0.234536041745654,17.1284697680512,0.));
#1153=CARTESIAN_POINT('',(-0.236132368228672,19.3229395541803,0.));
#1154=CARTESIAN_POINT('',(-0.236242460295396,21.517409918157,0.));
#1155=CARTESIAN_POINT('',(-0.234866317895243,23.7118798534088,0.));
#1156=CARTESIAN_POINT('',(-0.231690893017555,23.7567979295301,0.));
#1157=CARTESIAN_POINT('',(-0.251102345638162,23.7974293507795,0.));
#1158=CARTESIAN_POINT('',(-0.288040907944224,23.8231831757451,0.));
#1159=CARTESIAN_POINT('',(-1.11593508536096,24.4759204556062,0.));
#1160=CARTESIAN_POINT('',(-1.94382926277769,25.1286577354674,0.));
#1161=CARTESIAN_POINT('',(-2.77172344019442,25.7813950153286,0.));
#1162=CARTESIAN_POINT('',(-2.85781562679628,25.8491017992854,0.));
#1163=CARTESIAN_POINT('',(-2.94390781339814,25.9168085832422,0.));
#1164=CARTESIAN_POINT('',(-3.03,25.9845153671991,0.));
#1165=CARTESIAN_POINT('',(-3.03,22.6669936955154,0.));
#1166=CARTESIAN_POINT('',(-3.03,19.3494720238318,0.));
#1167=CARTESIAN_POINT('',(-3.03,16.0319503521482,0.));
#1168=CARTESIAN_POINT('',(-2.8,14.0422704852804,0.));
#1169=CARTESIAN_POINT('',(-8.28128427581725,16.2481044343897,0.));
#1170=CARTESIAN_POINT('',(-7.41986215512907,22.093455805638,0.));
#1171=CARTESIAN_POINT('',(-6.55844003444088,27.9388071768862,0.));
#1172=CARTESIAN_POINT('',(-0.673852644686942,28.4696668341532,0.));
#1173=CARTESIAN_POINT('',(5.210734745067,29.0005264914202,0.));
#1174=CARTESIAN_POINT('',(7.10437586401827,23.4037145385329,0.));
#1175=CARTESIAN_POINT('',(8.99801698296956,17.8069025856457,0.));
#1176=CARTESIAN_POINT('',(4.,14.6557112297752,0.));
#1177=CARTESIAN_POINT('',(4.,1.82785561488762,0.));
#1178=CARTESIAN_POINT('',(4.,-11.,0.));
#1179=CARTESIAN_POINT('',(4.00000000000001,-15.,0.));
#1180=CARTESIAN_POINT('',(-1.99159850020592E-16,-15.,0.));
#1181=CARTESIAN_POINT('',(-4.00000000000001,-15.,0.));
#1182=CARTESIAN_POINT('',(-4.,-11.,0.));
#1183=CARTESIAN_POINT('',(-4.,1.40000000000001,0.));
#1184=CARTESIAN_POINT('',(-4.,13.8,0.));
#1185=CARTESIAN_POINT('',(-3.5,13.8,0.));
#1186=CARTESIAN_POINT('',(-3.,13.8,0.));
#1187=CARTESIAN_POINT('',(-3.,1.4,0.));
#1188=CARTESIAN_POINT('',(-3.,-11.,0.));
#1189=CARTESIAN_POINT('',(-3.,-14.,0.));
#1190=CARTESIAN_POINT('',(1.14857060967808E-15,-14.,0.));
#1191=CARTESIAN_POINT('',(3.,-14.,0.));
#1192=CARTESIAN_POINT('',(3.,-11.,0.));
#1193=CARTESIAN_POINT('',(3.,1.56306822878312,0.));
#1194=CARTESIAN_POINT('',(3.,14.1261364575662,0.));
#1195=CARTESIAN_POINT('',(0.66899773413903,13.1088036643832,0.));
#1196=CARTESIAN_POINT('',(-1.80000000000001,13.719203340293,0.));
#1197=CARTESIAN_POINT('',(-1.8,1.50960167014652,0.));
#1198=CARTESIAN_POINT('',(-1.8,-10.7,0.));
#1199=CARTESIAN_POINT('',(-1.80000000000001,-12.5,0.));
#1200=CARTESIAN_POINT('',(3.62013115081728E-15,-12.5,0.));
#1201=CARTESIAN_POINT('',(1.80000000000001,-12.5,0.));
#1202=CARTESIAN_POINT('',(1.8,-10.7,0.));
#1203=CARTESIAN_POINT('',(1.8,1.345,0.));
#1204=CARTESIAN_POINT('',(1.8,13.39,0.));
#1205=CARTESIAN_POINT('',(2.3,13.39,0.));
#1206=CARTESIAN_POINT('',(2.8,13.39,0.));
#1207=CARTESIAN_POINT('',(2.8,1.345,0.));
#1208=CARTESIAN_POINT('',(2.8,-10.7,0.));
#1209=CARTESIAN_POINT('',(2.8,-13.5,0.));
#1210=CARTESIAN_POINT('',(2.88039473196601E-15,-13.5,0.));
#1211=CARTESIAN_POINT('',(-2.79999999999999,-13.5,0.));
#1212=CARTESIAN_POINT('',(-2.8,-10.7,0.));
#1213=CARTESIAN_POINT('',(-2.8,1.67113524264021,0.));
#1214=CARTESIAN_POINT('',(-2.8,14.0422704852804,0.));
#1215=CARTESIAN_POINT('',(0.,21.,0.));
#1216=CARTESIAN_POINT('',(-1.80000000000001,13.719203340293,0.));
#1217=CARTESIAN_POINT('',(3.,14.1261364575662,0.));
#1218=CARTESIAN_POINT('',(0.,21.,0.));
#1219=CARTESIAN_POINT('',(4.00000000000001,14.6557112297752,0.));
#1220=CARTESIAN_POINT('',(-2.8,14.0422704852804,0.));
#1221=CARTESIAN_POINT('',(1.8,13.39,0.));
#1222=CARTESIAN_POINT('',(2.8,13.39,0.));
#1223=CARTESIAN_POINT('',(-2.8,14.0422704852804,0.));
#1224=CARTESIAN_POINT('',(-2.8,1.67113524264021,0.));
#1225=CARTESIAN_POINT('',(-2.8,-10.7,0.));
#1226=CARTESIAN_POINT('',(-2.8,-13.5,0.));
#1227=CARTESIAN_POINT('',(2.15859472865662E-16,-13.5,0.));
#1228=CARTESIAN_POINT('',(2.8,-13.5,0.));
#1229=CARTESIAN_POINT('',(2.8,-10.7,0.));
#1230=CARTESIAN_POINT('',(2.8,1.345,0.));
#1231=CARTESIAN_POINT('',(2.8,13.39,0.));
#1232=CARTESIAN_POINT('',(-1.80000000000001,13.719203340293,0.));
#1233=CARTESIAN_POINT('',(-1.8,1.50960167014652,0.));
#1234=CARTESIAN_POINT('',(-1.8,-10.7,0.));
#1235=CARTESIAN_POINT('',(-1.8,-12.5,0.));
#1236=CARTESIAN_POINT('',(3.42029100638475E-15,-12.5,0.));
#1237=CARTESIAN_POINT('',(1.80000000000001,-12.5,0.));
#1238=CARTESIAN_POINT('',(1.8,-10.7,0.));
#1239=CARTESIAN_POINT('',(1.8,1.345,0.));
#1240=CARTESIAN_POINT('',(1.8,13.39,0.));
#1241=CARTESIAN_POINT('',(-3.,13.8,0.));
#1242=CARTESIAN_POINT('',(-3.,1.4,0.));
#1243=CARTESIAN_POINT('',(-3.,-11.,0.));
#1244=CARTESIAN_POINT('',(-3.,-14.,0.));
#1245=CARTESIAN_POINT('',(1.81470442445318E-15,-14.,0.));
#1246=CARTESIAN_POINT('',(3.00000000000001,-14.,0.));
#1247=CARTESIAN_POINT('',(3.,-11.,0.));
#1248=CARTESIAN_POINT('',(3.,1.56306822878312,0.));
#1249=CARTESIAN_POINT('',(3.,14.1261364575662,0.));
#1250=CARTESIAN_POINT('',(-4.,13.8,0.));
#1251=CARTESIAN_POINT('',(-3.,13.8,0.));
#1252=CARTESIAN_POINT('',(4.,14.6557112297752,0.));
#1253=CARTESIAN_POINT('',(4.,1.82785561488762,0.));
#1254=CARTESIAN_POINT('',(4.,-11.,0.));
#1255=CARTESIAN_POINT('',(4.,-15.,0.));
#1256=CARTESIAN_POINT('',(-1.99159850020592E-16,-15.,0.));
#1257=CARTESIAN_POINT('',(-4.,-15.,0.));
#1258=CARTESIAN_POINT('',(-4.,-11.,0.));
#1259=CARTESIAN_POINT('',(-4.,1.40000000000001,0.));
#1260=CARTESIAN_POINT('',(-4.,13.8,0.));
#1261=CARTESIAN_POINT('',(3.02463667020815,16.0319503521482,0.));
#1262=CARTESIAN_POINT('',(2.89505802427354,16.079179971512,0.));
#1263=CARTESIAN_POINT('',(2.76547937833893,16.1264095908758,0.));
#1264=CARTESIAN_POINT('',(2.63590073240432,16.1736392102396,0.));
#1265=CARTESIAN_POINT('',(1.8500214779384,16.4625710268246,0.));
#1266=CARTESIAN_POINT('',(1.06396227730435,16.7510129279652,0.));
#1267=CARTESIAN_POINT('',(0.277723435914372,17.0389648015913,0.));
#1268=CARTESIAN_POINT('',(0.242053481772142,17.0521758475588,0.));
#1269=CARTESIAN_POINT('',(0.231154368848944,17.0686896550182,0.));
#1270=CARTESIAN_POINT('',(0.231154368847745,17.1063412660556,0.));
#1271=CARTESIAN_POINT('',(0.232090151274691,19.315563536592,0.));
#1272=CARTESIAN_POINT('',(0.232200243329525,21.5247860025747,0.));
#1273=CARTESIAN_POINT('',(0.231484644997499,23.7340083554043,0.));
#1274=CARTESIAN_POINT('',(0.231484644998131,23.7663755480547,0.));
#1275=CARTESIAN_POINT('',(0.239411272578639,23.7878434977519,0.));
#1276=CARTESIAN_POINT('',(0.26616377069307,23.8089813013294,0.));
#1277=CARTESIAN_POINT('',(1.16977537934514,24.521002809503,0.));
#1278=CARTESIAN_POINT('',(2.07308282611316,25.2334101536581,0.));
#1279=CARTESIAN_POINT('',(2.97608594624768,25.9462032038629,0.));
#1280=CARTESIAN_POINT('',(2.99218948818917,25.958567788411,0.));
#1281=CARTESIAN_POINT('',(3.00848448419511,25.9706789452208,0.));
#1282=CARTESIAN_POINT('',(3.02496694635734,25.9825337103039,0.));
#1283=CARTESIAN_POINT('',(3.02485685430761,22.6656725909187,0.));
#1284=CARTESIAN_POINT('',(3.02474676225788,19.3488114715334,0.));
#1285=CARTESIAN_POINT('',(3.02463667020815,16.0319503521482,0.));
#1286=CARTESIAN_POINT('',(-3.03,16.0319503521482,0.));
#1287=CARTESIAN_POINT('',(-3.03,19.3494720238318,0.));
#1288=CARTESIAN_POINT('',(-3.03,22.6669936955154,0.));
#1289=CARTESIAN_POINT('',(-3.03,25.9845153671991,0.));
#1290=CARTESIAN_POINT('',(-2.94390781339814,25.9168085832422,0.));
#1291=CARTESIAN_POINT('',(-2.85781562679628,25.8491017992854,0.));
#1292=CARTESIAN_POINT('',(-2.77172344019442,25.7813950153286,0.));
#1293=CARTESIAN_POINT('',(-1.9441967747649,25.1281916944834,0.));
#1294=CARTESIAN_POINT('',(-1.11630250988677,24.475454345665,0.));
#1295=CARTESIAN_POINT('',(-0.288040907944224,23.8231831757451,0.));
#1296=CARTESIAN_POINT('',(-0.249068192309926,23.7924673638406,0.));
#1297=CARTESIAN_POINT('',(-0.234866317894851,23.7617516819661,0.));
#1298=CARTESIAN_POINT('',(-0.234866317895159,23.7118798534088,0.));
#1299=CARTESIAN_POINT('',(-0.236242460295637,21.517409918157,0.));
#1300=CARTESIAN_POINT('',(-0.236132368228908,19.3229395541803,0.));
#1301=CARTESIAN_POINT('',(-0.234536041745566,17.1284697680512,0.));
#1302=CARTESIAN_POINT('',(-0.234536041745662,17.0733135211069,0.));
#1303=CARTESIAN_POINT('',(-0.248737916160737,17.0495336383653,0.));
#1304=CARTESIAN_POINT('',(-0.301582230060683,17.0303774916826,0.));
#1305=CARTESIAN_POINT('',(-1.19374563206167,16.7045684013271,0.));
#1306=CARTESIAN_POINT('',(-2.08560371114962,16.377924457569,0.));
#1307=CARTESIAN_POINT('',(-2.97715568609994,16.0504459465327,0.));
#1308=CARTESIAN_POINT('',(-2.99465860831471,16.0439642274956,0.));
#1309=CARTESIAN_POINT('',(-3.01227527940955,16.0377983644362,0.));
#1310=CARTESIAN_POINT('',(-3.03,16.0319503521482,0.));
#1311=CARTESIAN_POINT('',(0.,0.,0.));
#1312=CARTESIAN_POINT('',(0.,0.,0.));
ENDSEC;
END-ISO-10303-21;
